%TF.GenerationSoftware,KiCad,Pcbnew,9.0.0-9.0.0-2~ubuntu24.04.1*%
%TF.CreationDate,2025-10-20T09:35:38+01:00*%
%TF.ProjectId,gateway_rev0,67617465-7761-4795-9f72-6576302e6b69,REV0.0*%
%TF.SameCoordinates,Original*%
%TF.FileFunction,Copper,L2,Bot*%
%TF.FilePolarity,Positive*%
%FSLAX46Y46*%
G04 Gerber Fmt 4.6, Leading zero omitted, Abs format (unit mm)*
G04 Created by KiCad (PCBNEW 9.0.0-9.0.0-2~ubuntu24.04.1) date 2025-10-20 09:35:38*
%MOMM*%
%LPD*%
G01*
G04 APERTURE LIST*
%TA.AperFunction,ComponentPad*%
%ADD10R,1.500000X1.500000*%
%TD*%
%TA.AperFunction,ComponentPad*%
%ADD11C,1.500000*%
%TD*%
%TA.AperFunction,ComponentPad*%
%ADD12C,1.400000*%
%TD*%
%TA.AperFunction,ComponentPad*%
%ADD13C,1.635000*%
%TD*%
%TA.AperFunction,ComponentPad*%
%ADD14R,1.725000X1.725000*%
%TD*%
%TA.AperFunction,ComponentPad*%
%ADD15C,1.725000*%
%TD*%
%TA.AperFunction,ComponentPad*%
%ADD16C,1.600000*%
%TD*%
%TA.AperFunction,ComponentPad*%
%ADD17C,5.000000*%
%TD*%
%TA.AperFunction,ViaPad*%
%ADD18C,0.600000*%
%TD*%
%TA.AperFunction,Conductor*%
%ADD19C,0.200000*%
%TD*%
%TA.AperFunction,Conductor*%
%ADD20C,0.500000*%
%TD*%
G04 APERTURE END LIST*
D10*
%TO.P,J1,1,1*%
%TO.N,VDD*%
X210950000Y-156450000D03*
D11*
%TO.P,J1,2,2*%
%TO.N,SWIM*%
X208950000Y-156450000D03*
%TO.P,J1,3,3*%
%TO.N,NRST*%
X206950000Y-156450000D03*
%TO.P,J1,4,4*%
%TO.N,GND*%
X204950000Y-156450000D03*
%TD*%
D12*
%TO.P,LED1,1,K*%
%TO.N,GND*%
X250836500Y-131550000D03*
%TO.P,LED1,2,A*%
%TO.N,Net-(LED1-A)*%
X248296500Y-131550000D03*
%TD*%
D13*
%TO.P,LED3,1,A*%
%TO.N,Net-(LED3-A)*%
X248346500Y-143900000D03*
%TO.P,LED3,2,K*%
%TO.N,GND*%
X250886500Y-143900000D03*
%TD*%
D14*
%TO.P,J2,1,1*%
%TO.N,TX*%
X198950000Y-156450000D03*
D15*
%TO.P,J2,2,2*%
%TO.N,RX*%
X196410000Y-156450000D03*
%TO.P,J2,3,3*%
%TO.N,GND*%
X193870000Y-156450000D03*
%TD*%
D13*
%TO.P,LED2,1,K*%
%TO.N,GND*%
X250886500Y-137650000D03*
%TO.P,LED2,2,A*%
%TO.N,Net-(LED2-A)*%
X248346500Y-137650000D03*
%TD*%
D16*
%TO.P,U1,1,+*%
%TO.N,BAT_IN*%
X243000000Y-125260000D03*
%TO.P,U1,2,-*%
%TO.N,GND*%
X243000000Y-140250000D03*
D17*
%TO.P,U1,3,3*%
%TO.N,unconnected-(U1-Pad3)*%
X215820000Y-140250000D03*
%TO.P,U1,4,4*%
%TO.N,unconnected-(U1-Pad4)*%
X215820000Y-125260000D03*
%TD*%
D18*
%TO.N,GND*%
X230900000Y-129900000D03*
X244450000Y-119400000D03*
X234400000Y-127450000D03*
X223350000Y-124050000D03*
X225600000Y-131850000D03*
X238550000Y-128000000D03*
X189350000Y-127050000D03*
X236000000Y-119000000D03*
X230000000Y-124550000D03*
X192800000Y-138100000D03*
X226550000Y-148050000D03*
X216750000Y-133550000D03*
X230900000Y-128800000D03*
X255700000Y-119400000D03*
X236550000Y-141900000D03*
X238350000Y-119800000D03*
X208650000Y-119750000D03*
X202100000Y-134950000D03*
X196850000Y-118300000D03*
X209350000Y-125150000D03*
X197650000Y-142450000D03*
X192800000Y-140100000D03*
X197400000Y-134950000D03*
X235200000Y-124600000D03*
X237650000Y-124100000D03*
X249950000Y-122550000D03*
X238000000Y-121850000D03*
X230850000Y-126450000D03*
X219200000Y-143200000D03*
X193050000Y-120550000D03*
X226350000Y-127000000D03*
X232150000Y-118250000D03*
X236050000Y-122800000D03*
X221400000Y-150650000D03*
X198100000Y-126250000D03*
X217950000Y-151000000D03*
X222550000Y-115650000D03*
X199350000Y-119300000D03*
X224950000Y-122450000D03*
X199200000Y-115950000D03*
X188450000Y-115950000D03*
X221050000Y-143162000D03*
X229450000Y-132000000D03*
X188100000Y-125400000D03*
X190000000Y-119100000D03*
X230900000Y-127700000D03*
X187100000Y-119100000D03*
X247250000Y-122550000D03*
X224900000Y-130800000D03*
X207300000Y-129250000D03*
X223950000Y-148100000D03*
X235150000Y-118850000D03*
X218350000Y-152400000D03*
X202150000Y-137600000D03*
X227000000Y-153050000D03*
X197650000Y-119150000D03*
X224300000Y-127150000D03*
X257300000Y-119400000D03*
X209350000Y-122850000D03*
X219350000Y-116700000D03*
X254250000Y-122600000D03*
X237550000Y-120050000D03*
X229650000Y-151100000D03*
X217900000Y-147700000D03*
X232100000Y-119300000D03*
X212400000Y-150250000D03*
X210600000Y-118500000D03*
X199650000Y-120800000D03*
X231400000Y-123750000D03*
X210550000Y-119750000D03*
X221100000Y-158200000D03*
X212000000Y-127400000D03*
X230600000Y-124050000D03*
X237050000Y-122350000D03*
X244400000Y-122550000D03*
X257350000Y-122500000D03*
X254150000Y-119400000D03*
X255750000Y-122550000D03*
X230900000Y-131150000D03*
X224650000Y-129700000D03*
X234450000Y-118300000D03*
X228700000Y-126950000D03*
X229100000Y-118200000D03*
X192800000Y-135450000D03*
X261850000Y-122500000D03*
X192850000Y-142550000D03*
X232850000Y-119400000D03*
X186800000Y-116550000D03*
X235100000Y-156550000D03*
X241800000Y-122100000D03*
X238900000Y-123300000D03*
X237050000Y-129650000D03*
X232200000Y-117350000D03*
X202200000Y-140050000D03*
X204200000Y-121300000D03*
X228450000Y-118800000D03*
X237300000Y-132450000D03*
X215050000Y-130850000D03*
X228565000Y-131100000D03*
X260350000Y-122500000D03*
X238100000Y-122750000D03*
X242950000Y-122100000D03*
X225250000Y-153000000D03*
X233400000Y-118100000D03*
X230650000Y-132150000D03*
X242000000Y-156800000D03*
X210500000Y-117250000D03*
X228700000Y-117350000D03*
X207100000Y-122850000D03*
X234000000Y-124650000D03*
X226400000Y-120050000D03*
X227050000Y-149200000D03*
X202050000Y-132450000D03*
X235500000Y-123550000D03*
X213950000Y-129300000D03*
X191550000Y-115950000D03*
X229250000Y-153050000D03*
X232850000Y-122300000D03*
X216350000Y-116050000D03*
X208700000Y-117200000D03*
X210600000Y-121050000D03*
X248550000Y-122550000D03*
X199750000Y-122350000D03*
X202950000Y-125400000D03*
X194500000Y-115900000D03*
X227450000Y-121450000D03*
X221150000Y-141800000D03*
X202150000Y-142527397D03*
X251300000Y-122600000D03*
X201350000Y-123650000D03*
X252650000Y-119400000D03*
X245850000Y-119400000D03*
X211900000Y-122850000D03*
X224600000Y-116419000D03*
X196950000Y-115900000D03*
X215100000Y-136100000D03*
X234500000Y-136850000D03*
X209000000Y-147150000D03*
X241800000Y-119800000D03*
X226525000Y-133275000D03*
X201650000Y-115950000D03*
X230200000Y-116450000D03*
X260300000Y-119400000D03*
X252750000Y-122600000D03*
X240600000Y-122100000D03*
X197600000Y-138000000D03*
X232550000Y-156500000D03*
X189850000Y-117350000D03*
X261850000Y-119400000D03*
X248500000Y-119400000D03*
X235150000Y-135350000D03*
X230900000Y-117200000D03*
X232850000Y-123350000D03*
X197650000Y-140150000D03*
X208600000Y-121050000D03*
X210850000Y-141000000D03*
X233050000Y-125950000D03*
X230700000Y-125200000D03*
X235250000Y-152150000D03*
X258850000Y-122500000D03*
X236050000Y-125950000D03*
X239800000Y-122800000D03*
X226300000Y-121500000D03*
X232900000Y-128800000D03*
X208050000Y-144150000D03*
X242950000Y-134800000D03*
X239550000Y-119800000D03*
X193000000Y-132500000D03*
X226900000Y-131700000D03*
X238950000Y-122600000D03*
X208250000Y-150450000D03*
X217250000Y-144150000D03*
X224250000Y-128300000D03*
X218200000Y-119200000D03*
X247250000Y-119400000D03*
X233800000Y-118800000D03*
X188100000Y-122200000D03*
X216350000Y-117200000D03*
X229450000Y-115650000D03*
X249850000Y-119400000D03*
X228200000Y-131900000D03*
X214250000Y-147500000D03*
X227450000Y-126800000D03*
X204150000Y-115900000D03*
X197450000Y-132450000D03*
X227400000Y-125900000D03*
X237550000Y-139750000D03*
X240650000Y-119800000D03*
X222300000Y-124000000D03*
X221200000Y-138350000D03*
X211650000Y-138800000D03*
X205125000Y-119675000D03*
X208680000Y-118480000D03*
X222600000Y-154000000D03*
X232150000Y-122650000D03*
X245800000Y-122550000D03*
X240550000Y-126400000D03*
X236800000Y-119250000D03*
X217450000Y-146400000D03*
X242900000Y-119850000D03*
X251250000Y-119400000D03*
X227550000Y-120050000D03*
X197250000Y-124900000D03*
X232950000Y-124450000D03*
X258850000Y-119400000D03*
%TO.N,NRST*%
X210500000Y-152950000D03*
X214800000Y-144800000D03*
%TO.N,VDD*%
X215250000Y-118300000D03*
X220250000Y-132950000D03*
X225250000Y-137950000D03*
X237800000Y-147700000D03*
X212350000Y-116300000D03*
%TO.N,RF_VDD*%
X226200000Y-124850000D03*
X228283235Y-124566765D03*
X222650000Y-121650000D03*
X229300000Y-123650000D03*
%TO.N,+12V*%
X212600000Y-130800000D03*
X204550000Y-122750000D03*
%TO.N,/MCU/SDI*%
X222700000Y-118450000D03*
X235400000Y-148050000D03*
X231950000Y-148000000D03*
X229900000Y-139500000D03*
%TO.N,/MCU/IRQ*%
X222450000Y-139700000D03*
X223250000Y-149000000D03*
%TO.N,LED_R*%
X223900000Y-147000000D03*
X243400000Y-143750000D03*
%TO.N,LED_B*%
X243050000Y-131550000D03*
X224649265Y-145249265D03*
%TO.N,/Buzzer/BZR_P*%
X221100000Y-151750000D03*
X219850000Y-140200000D03*
%TO.N,/MCU/SDO*%
X222600000Y-119700000D03*
X233800000Y-147050000D03*
X232150000Y-147050000D03*
X229050000Y-137250000D03*
%TO.N,BTN*%
X237950000Y-145500000D03*
X231350000Y-146400000D03*
%TO.N,SDA*%
X213600000Y-120950000D03*
X226625000Y-138125000D03*
%TO.N,/MCU/SCLK*%
X221950000Y-136800000D03*
X221550000Y-121700000D03*
X223800000Y-119150000D03*
X228300000Y-144050000D03*
%TO.N,TX*%
X207950000Y-153750000D03*
X224650000Y-149100000D03*
%TO.N,SCL*%
X213550000Y-119750000D03*
X227500000Y-140000000D03*
%TO.N,LED_Y*%
X224050000Y-146100000D03*
X243500000Y-137700000D03*
%TO.N,RX*%
X225600000Y-149100000D03*
%TO.N,SWIM*%
X215950000Y-151700000D03*
X218500000Y-142600000D03*
%TO.N,/Buzzer/BZR_N*%
X229700000Y-142750000D03*
X226874265Y-140875735D03*
%TO.N,/Buzzer/BZR_EN*%
X194700000Y-120600000D03*
X219100000Y-141050000D03*
%TO.N,/MCU/CS*%
X227500000Y-144400000D03*
X223450000Y-139700000D03*
%TD*%
D19*
%TO.N,GND*%
X217250000Y-144150000D02*
X218200000Y-143200000D01*
X218200000Y-143200000D02*
X219200000Y-143200000D01*
%TO.N,NRST*%
X214800000Y-144800000D02*
X210500000Y-149100000D01*
X210500000Y-149100000D02*
X210500000Y-152950000D01*
D20*
%TO.N,VDD*%
X224275000Y-136975000D02*
X220250000Y-132950000D01*
X229050000Y-156450000D02*
X237800000Y-147700000D01*
X225250000Y-137950000D02*
X224275000Y-136975000D01*
X210950000Y-156450000D02*
X229050000Y-156450000D01*
X213250000Y-116300000D02*
X215250000Y-118300000D01*
X212350000Y-116300000D02*
X213250000Y-116300000D01*
%TO.N,RF_VDD*%
X226200000Y-124850000D02*
X225850000Y-124850000D01*
X228283235Y-124566765D02*
X228383235Y-124566765D01*
X228383235Y-124566765D02*
X229300000Y-123650000D01*
X225850000Y-124850000D02*
X222650000Y-121650000D01*
%TO.N,+12V*%
X204550000Y-122750000D02*
X212600000Y-130800000D01*
D19*
%TO.N,/MCU/SDI*%
X229900000Y-139500000D02*
X220450000Y-130050000D01*
X220450000Y-130050000D02*
X220450000Y-120700000D01*
X220450000Y-120700000D02*
X222700000Y-118450000D01*
X235350000Y-148000000D02*
X235400000Y-148050000D01*
X231950000Y-148000000D02*
X235350000Y-148000000D01*
%TO.N,/MCU/IRQ*%
X222450000Y-148200000D02*
X223250000Y-149000000D01*
X222450000Y-139700000D02*
X222450000Y-148200000D01*
%TO.N,LED_R*%
X229400000Y-147000000D02*
X232600000Y-143800000D01*
X232600000Y-143800000D02*
X243350000Y-143800000D01*
X243350000Y-143800000D02*
X243400000Y-143750000D01*
X223900000Y-147000000D02*
X229400000Y-147000000D01*
%TO.N,LED_B*%
X242350000Y-131550000D02*
X243050000Y-131550000D01*
X224649265Y-145249265D02*
X228650735Y-145249265D01*
X228650735Y-145249265D02*
X242350000Y-131550000D01*
%TO.N,/Buzzer/BZR_P*%
X221100000Y-151750000D02*
X219850000Y-150500000D01*
X219850000Y-150500000D02*
X219850000Y-140200000D01*
%TO.N,/MCU/SDO*%
X220949000Y-121301000D02*
X220949000Y-129149000D01*
X222600000Y-119700000D02*
X222550000Y-119700000D01*
X222550000Y-119700000D02*
X220949000Y-121301000D01*
X232150000Y-147050000D02*
X233800000Y-147050000D01*
X220949000Y-129149000D02*
X229050000Y-137250000D01*
%TO.N,BTN*%
X231350000Y-146400000D02*
X237050000Y-146400000D01*
X237050000Y-146400000D02*
X237950000Y-145500000D01*
%TO.N,SDA*%
X219250000Y-123650000D02*
X216550000Y-120950000D01*
X216550000Y-120950000D02*
X213600000Y-120950000D01*
X226625000Y-138125000D02*
X219250000Y-130750000D01*
X219250000Y-130750000D02*
X219250000Y-123650000D01*
%TO.N,/MCU/SCLK*%
X228300000Y-143150000D02*
X228300000Y-144050000D01*
X223800000Y-119450000D02*
X223800000Y-119150000D01*
X221950000Y-136800000D02*
X228300000Y-143150000D01*
X221550000Y-121700000D02*
X223800000Y-119450000D01*
X221600000Y-121700000D02*
X221550000Y-121700000D01*
%TO.N,TX*%
X207950000Y-153750000D02*
X220000000Y-153750000D01*
X220000000Y-153750000D02*
X224650000Y-149100000D01*
%TO.N,SCL*%
X219800000Y-130250000D02*
X219800000Y-122800000D01*
X227500000Y-140000000D02*
X227500000Y-137950000D01*
X227500000Y-137950000D02*
X219800000Y-130250000D01*
X219800000Y-122800000D02*
X216750000Y-119750000D01*
X216750000Y-119750000D02*
X213550000Y-119750000D01*
%TO.N,LED_Y*%
X229067100Y-146100000D02*
X237467100Y-137700000D01*
X224050000Y-146100000D02*
X229067100Y-146100000D01*
X237467100Y-137700000D02*
X243500000Y-137700000D01*
%TO.N,RX*%
X196410000Y-156450000D02*
X198460000Y-154400000D01*
X198460000Y-154400000D02*
X220300000Y-154400000D01*
X220300000Y-154400000D02*
X225600000Y-149100000D01*
%TO.N,SWIM*%
X215950000Y-144250000D02*
X217600000Y-142600000D01*
X217600000Y-142600000D02*
X218500000Y-142600000D01*
X215950000Y-151700000D02*
X215950000Y-144250000D01*
%TO.N,/Buzzer/BZR_N*%
X226874265Y-140875735D02*
X227825735Y-140875735D01*
X227825735Y-140875735D02*
X229700000Y-142750000D01*
%TO.N,/Buzzer/BZR_EN*%
X219100000Y-141050000D02*
X219100000Y-137550000D01*
X205501000Y-131401000D02*
X194700000Y-120600000D01*
X219100000Y-137550000D02*
X212951000Y-131401000D01*
X212951000Y-131401000D02*
X205501000Y-131401000D01*
%TO.N,/MCU/CS*%
X227500000Y-144400000D02*
X227500000Y-143750000D01*
X227500000Y-143750000D02*
X223450000Y-139700000D01*
%TD*%
%TA.AperFunction,Conductor*%
%TO.N,GND*%
G36*
X262443039Y-118519685D02*
G01*
X262488794Y-118572489D01*
X262500000Y-118624000D01*
X262500000Y-123226000D01*
X262480315Y-123293039D01*
X262427511Y-123338794D01*
X262376000Y-123350000D01*
X252400000Y-123350000D01*
X252400000Y-118500000D01*
X252450000Y-118500000D01*
X262376000Y-118500000D01*
X262443039Y-118519685D01*
G37*
%TD.AperFunction*%
%TD*%
%TA.AperFunction,Conductor*%
%TO.N,GND*%
G36*
X206648531Y-155020185D02*
G01*
X206694286Y-155072989D01*
X206704230Y-155142147D01*
X206675205Y-155205703D01*
X206619811Y-155242431D01*
X206469970Y-155291117D01*
X206294594Y-155380476D01*
X206229692Y-155427631D01*
X206135354Y-155496172D01*
X206135352Y-155496174D01*
X206135351Y-155496174D01*
X205996174Y-155635351D01*
X205996174Y-155635352D01*
X205996172Y-155635354D01*
X205964220Y-155679332D01*
X205880474Y-155794597D01*
X205807860Y-155937109D01*
X205785057Y-155968494D01*
X205432962Y-156320589D01*
X205415925Y-156257007D01*
X205350099Y-156142993D01*
X205257007Y-156049901D01*
X205142993Y-155984075D01*
X205079409Y-155967037D01*
X205640125Y-155406320D01*
X205640125Y-155406319D01*
X205605145Y-155380905D01*
X205429837Y-155291581D01*
X205278568Y-155242431D01*
X205220893Y-155202993D01*
X205193695Y-155138634D01*
X205205610Y-155069788D01*
X205252854Y-155018312D01*
X205316887Y-155000500D01*
X206581492Y-155000500D01*
X206648531Y-155020185D01*
G37*
%TD.AperFunction*%
%TA.AperFunction,Conductor*%
G36*
X230596467Y-146755280D02*
G01*
X230652400Y-146797152D01*
X230656235Y-146802571D01*
X230728210Y-146910288D01*
X230728213Y-146910292D01*
X230839707Y-147021786D01*
X230839711Y-147021789D01*
X230970814Y-147109390D01*
X230970827Y-147109397D01*
X231049899Y-147142149D01*
X231116503Y-147169737D01*
X231216898Y-147189707D01*
X231271147Y-147200498D01*
X231271148Y-147200498D01*
X231271158Y-147200500D01*
X231271167Y-147200500D01*
X231275206Y-147200898D01*
X231288349Y-147206203D01*
X231302512Y-147206745D01*
X231320103Y-147219023D01*
X231339995Y-147227054D01*
X231349304Y-147239405D01*
X231359805Y-147246735D01*
X231371384Y-147268702D01*
X231377739Y-147277133D01*
X231380175Y-147283056D01*
X231380263Y-147283497D01*
X231393665Y-147315854D01*
X231393825Y-147316242D01*
X231397456Y-147350828D01*
X231401177Y-147385429D01*
X231401105Y-147385572D01*
X231401122Y-147385730D01*
X231385504Y-147416737D01*
X231369901Y-147447908D01*
X231369699Y-147448116D01*
X231369692Y-147448132D01*
X231369675Y-147448141D01*
X231366830Y-147451090D01*
X231328212Y-147489708D01*
X231328208Y-147489714D01*
X231240609Y-147620814D01*
X231240602Y-147620827D01*
X231180264Y-147766498D01*
X231180261Y-147766510D01*
X231149500Y-147921153D01*
X231149500Y-148078846D01*
X231180261Y-148233489D01*
X231180264Y-148233501D01*
X231240602Y-148379172D01*
X231240609Y-148379185D01*
X231328210Y-148510288D01*
X231328213Y-148510292D01*
X231439707Y-148621786D01*
X231439711Y-148621789D01*
X231570814Y-148709390D01*
X231570827Y-148709397D01*
X231716498Y-148769735D01*
X231716503Y-148769737D01*
X231871153Y-148800499D01*
X231871156Y-148800500D01*
X231871158Y-148800500D01*
X232028844Y-148800500D01*
X232028845Y-148800499D01*
X232183497Y-148769737D01*
X232301592Y-148720821D01*
X232329172Y-148709397D01*
X232329172Y-148709396D01*
X232329179Y-148709394D01*
X232361811Y-148687590D01*
X232460875Y-148621398D01*
X232527553Y-148600520D01*
X232529766Y-148600500D01*
X234767060Y-148600500D01*
X234834099Y-148620185D01*
X234854742Y-148636820D01*
X234889707Y-148671786D01*
X234889711Y-148671789D01*
X235020814Y-148759390D01*
X235020827Y-148759397D01*
X235143616Y-148810257D01*
X235166503Y-148819737D01*
X235316308Y-148849535D01*
X235378219Y-148881919D01*
X235412793Y-148942635D01*
X235409054Y-149012405D01*
X235379798Y-149058833D01*
X228775451Y-155663181D01*
X228714128Y-155696666D01*
X228687770Y-155699500D01*
X212316977Y-155699500D01*
X212249938Y-155679815D01*
X212204183Y-155627011D01*
X212196733Y-155599865D01*
X212195876Y-155600068D01*
X212194092Y-155592520D01*
X212143797Y-155457671D01*
X212143793Y-155457664D01*
X212057547Y-155342455D01*
X212057544Y-155342452D01*
X211942335Y-155256206D01*
X211942328Y-155256202D01*
X211900715Y-155240682D01*
X211844781Y-155198811D01*
X211820364Y-155133347D01*
X211835215Y-155065074D01*
X211884620Y-155015668D01*
X211944048Y-155000500D01*
X220213331Y-155000500D01*
X220213347Y-155000501D01*
X220220943Y-155000501D01*
X220379054Y-155000501D01*
X220379057Y-155000501D01*
X220531785Y-154959577D01*
X220581904Y-154930639D01*
X220668716Y-154880520D01*
X220780520Y-154768716D01*
X220780520Y-154768714D01*
X220790728Y-154758507D01*
X220790729Y-154758504D01*
X225614662Y-149934572D01*
X225675983Y-149901089D01*
X225678150Y-149900638D01*
X225736085Y-149889113D01*
X225833497Y-149869737D01*
X225979179Y-149809394D01*
X226110289Y-149721789D01*
X226221789Y-149610289D01*
X226309394Y-149479179D01*
X226369737Y-149333497D01*
X226400500Y-149178842D01*
X226400500Y-149021158D01*
X226400500Y-149021155D01*
X226400499Y-149021153D01*
X226398759Y-149012405D01*
X226369737Y-148866503D01*
X226369735Y-148866498D01*
X226309397Y-148720827D01*
X226309390Y-148720814D01*
X226221789Y-148589711D01*
X226221786Y-148589707D01*
X226110292Y-148478213D01*
X226110288Y-148478210D01*
X225979185Y-148390609D01*
X225979172Y-148390602D01*
X225833501Y-148330264D01*
X225833489Y-148330261D01*
X225678845Y-148299500D01*
X225678842Y-148299500D01*
X225521158Y-148299500D01*
X225521155Y-148299500D01*
X225366510Y-148330261D01*
X225366498Y-148330264D01*
X225220828Y-148390602D01*
X225220814Y-148390610D01*
X225193888Y-148408601D01*
X225127210Y-148429477D01*
X225059831Y-148410991D01*
X225056112Y-148408601D01*
X225029185Y-148390610D01*
X225029184Y-148390609D01*
X225029179Y-148390606D01*
X225029175Y-148390604D01*
X225029171Y-148390602D01*
X224883501Y-148330264D01*
X224883489Y-148330261D01*
X224728845Y-148299500D01*
X224728842Y-148299500D01*
X224571158Y-148299500D01*
X224571155Y-148299500D01*
X224416510Y-148330261D01*
X224416498Y-148330264D01*
X224270827Y-148390602D01*
X224270814Y-148390609D01*
X224139711Y-148478210D01*
X224081336Y-148536585D01*
X224020012Y-148570069D01*
X223950321Y-148565084D01*
X223894387Y-148523213D01*
X223890552Y-148517792D01*
X223871790Y-148489712D01*
X223871786Y-148489707D01*
X223760292Y-148378213D01*
X223760288Y-148378210D01*
X223629185Y-148290609D01*
X223629172Y-148290602D01*
X223483501Y-148230264D01*
X223483491Y-148230261D01*
X223328149Y-148199361D01*
X223266238Y-148166976D01*
X223264660Y-148165425D01*
X223086819Y-147987584D01*
X223053334Y-147926261D01*
X223050500Y-147899903D01*
X223050500Y-147578269D01*
X223070185Y-147511230D01*
X223122989Y-147465475D01*
X223192147Y-147455531D01*
X223255703Y-147484556D01*
X223274292Y-147505626D01*
X223274347Y-147505581D01*
X223275609Y-147507119D01*
X223277603Y-147509379D01*
X223278212Y-147510291D01*
X223389707Y-147621786D01*
X223389711Y-147621789D01*
X223520814Y-147709390D01*
X223520827Y-147709397D01*
X223658683Y-147766498D01*
X223666503Y-147769737D01*
X223821153Y-147800499D01*
X223821156Y-147800500D01*
X223821158Y-147800500D01*
X223978844Y-147800500D01*
X223978845Y-147800499D01*
X224133497Y-147769737D01*
X224279179Y-147709394D01*
X224336918Y-147670814D01*
X224410875Y-147621398D01*
X224477553Y-147600520D01*
X224479766Y-147600500D01*
X229313331Y-147600500D01*
X229313347Y-147600501D01*
X229320943Y-147600501D01*
X229479054Y-147600501D01*
X229479057Y-147600501D01*
X229631785Y-147559577D01*
X229701233Y-147519481D01*
X229768716Y-147480520D01*
X229880520Y-147368716D01*
X229880520Y-147368714D01*
X229890724Y-147358511D01*
X229890728Y-147358506D01*
X230465454Y-146783779D01*
X230526775Y-146750296D01*
X230596467Y-146755280D01*
G37*
%TD.AperFunction*%
%TA.AperFunction,Conductor*%
G36*
X219168834Y-143165759D02*
G01*
X219224767Y-143207631D01*
X219249184Y-143273095D01*
X219249500Y-143281941D01*
X219249500Y-150413330D01*
X219249499Y-150413348D01*
X219249499Y-150579054D01*
X219249498Y-150579054D01*
X219290423Y-150731785D01*
X219319358Y-150781900D01*
X219319359Y-150781904D01*
X219319360Y-150781904D01*
X219369479Y-150868714D01*
X219369481Y-150868717D01*
X219488349Y-150987585D01*
X219488355Y-150987590D01*
X220265425Y-151764660D01*
X220298910Y-151825983D01*
X220299361Y-151828149D01*
X220330261Y-151983491D01*
X220330264Y-151983501D01*
X220390602Y-152129172D01*
X220390609Y-152129185D01*
X220478211Y-152260289D01*
X220480053Y-152262534D01*
X220480650Y-152263939D01*
X220481595Y-152265354D01*
X220481326Y-152265533D01*
X220507367Y-152326843D01*
X220495577Y-152395711D01*
X220471882Y-152428881D01*
X219787584Y-153113181D01*
X219726261Y-153146666D01*
X219699903Y-153149500D01*
X211424500Y-153149500D01*
X211357461Y-153129815D01*
X211311706Y-153077011D01*
X211300500Y-153025500D01*
X211300500Y-152871155D01*
X211300499Y-152871153D01*
X211269738Y-152716510D01*
X211269737Y-152716503D01*
X211269735Y-152716498D01*
X211209397Y-152570827D01*
X211209390Y-152570814D01*
X211121398Y-152439125D01*
X211100520Y-152372447D01*
X211100500Y-152370234D01*
X211100500Y-149400097D01*
X211120185Y-149333058D01*
X211136819Y-149312416D01*
X212968717Y-147480518D01*
X214814662Y-145634572D01*
X214875983Y-145601089D01*
X214878150Y-145600638D01*
X214936085Y-145589113D01*
X215033497Y-145569737D01*
X215120574Y-145533669D01*
X215178048Y-145509863D01*
X215247517Y-145502394D01*
X215309996Y-145533669D01*
X215345648Y-145593759D01*
X215349500Y-145624424D01*
X215349500Y-151120234D01*
X215329815Y-151187273D01*
X215328602Y-151189125D01*
X215240609Y-151320814D01*
X215240602Y-151320827D01*
X215180264Y-151466498D01*
X215180261Y-151466510D01*
X215149500Y-151621153D01*
X215149500Y-151778846D01*
X215180261Y-151933489D01*
X215180264Y-151933501D01*
X215240602Y-152079172D01*
X215240609Y-152079185D01*
X215328210Y-152210288D01*
X215328213Y-152210292D01*
X215439707Y-152321786D01*
X215439711Y-152321789D01*
X215570814Y-152409390D01*
X215570827Y-152409397D01*
X215644013Y-152439711D01*
X215716503Y-152469737D01*
X215871153Y-152500499D01*
X215871156Y-152500500D01*
X215871158Y-152500500D01*
X216028844Y-152500500D01*
X216028845Y-152500499D01*
X216183497Y-152469737D01*
X216329179Y-152409394D01*
X216460289Y-152321789D01*
X216571789Y-152210289D01*
X216659394Y-152079179D01*
X216719737Y-151933497D01*
X216750500Y-151778842D01*
X216750500Y-151621158D01*
X216750500Y-151621155D01*
X216750499Y-151621153D01*
X216719738Y-151466510D01*
X216719737Y-151466503D01*
X216719735Y-151466498D01*
X216659397Y-151320827D01*
X216659390Y-151320814D01*
X216571398Y-151189125D01*
X216550520Y-151122447D01*
X216550500Y-151120234D01*
X216550500Y-144550097D01*
X216570185Y-144483058D01*
X216586819Y-144462416D01*
X217812416Y-143236819D01*
X217839343Y-143222115D01*
X217865162Y-143205523D01*
X217871362Y-143204631D01*
X217873739Y-143203334D01*
X217900097Y-143200500D01*
X217920234Y-143200500D01*
X217987273Y-143220185D01*
X217989125Y-143221398D01*
X218120814Y-143309390D01*
X218120827Y-143309397D01*
X218230924Y-143355000D01*
X218266503Y-143369737D01*
X218421153Y-143400499D01*
X218421156Y-143400500D01*
X218421158Y-143400500D01*
X218578844Y-143400500D01*
X218578845Y-143400499D01*
X218733497Y-143369737D01*
X218858076Y-143318135D01*
X218879172Y-143309397D01*
X218879172Y-143309396D01*
X218879179Y-143309394D01*
X219010289Y-143221789D01*
X219022862Y-143209216D01*
X219037819Y-143194260D01*
X219099142Y-143160775D01*
X219168834Y-143165759D01*
G37*
%TD.AperFunction*%
%TA.AperFunction,Conductor*%
G36*
X252393039Y-115220185D02*
G01*
X252438794Y-115272989D01*
X252450000Y-115324500D01*
X252450000Y-118500000D01*
X252400000Y-118500000D01*
X252400000Y-123350000D01*
X252450000Y-123350000D01*
X252450000Y-137523920D01*
X252430315Y-137590959D01*
X252377511Y-137636714D01*
X252308353Y-137646658D01*
X252244797Y-137617633D01*
X252207023Y-137558855D01*
X252203527Y-137543318D01*
X252171559Y-137341488D01*
X252107473Y-137144253D01*
X252013324Y-136959474D01*
X251978504Y-136911549D01*
X251978503Y-136911548D01*
X251406205Y-137483847D01*
X251394359Y-137439638D01*
X251322609Y-137315362D01*
X251221138Y-137213891D01*
X251096862Y-137142141D01*
X251052651Y-137130294D01*
X251624949Y-136557995D01*
X251577019Y-136523172D01*
X251392246Y-136429026D01*
X251195011Y-136364940D01*
X250990195Y-136332500D01*
X250782805Y-136332500D01*
X250577988Y-136364940D01*
X250380753Y-136429026D01*
X250195972Y-136523176D01*
X250148049Y-136557994D01*
X250148049Y-136557995D01*
X250720348Y-137130294D01*
X250676138Y-137142141D01*
X250551862Y-137213891D01*
X250450391Y-137315362D01*
X250378641Y-137439638D01*
X250366794Y-137483848D01*
X249794495Y-136911549D01*
X249794494Y-136911549D01*
X249759676Y-136959472D01*
X249727266Y-137023082D01*
X249679291Y-137073878D01*
X249611470Y-137090673D01*
X249545335Y-137068135D01*
X249506296Y-137023082D01*
X249489750Y-136990609D01*
X249473755Y-136959217D01*
X249351814Y-136791380D01*
X249205120Y-136644686D01*
X249037283Y-136522745D01*
X248953910Y-136480264D01*
X248852441Y-136428562D01*
X248655133Y-136364452D01*
X248450234Y-136332000D01*
X248450229Y-136332000D01*
X248242771Y-136332000D01*
X248242766Y-136332000D01*
X248037866Y-136364452D01*
X247840558Y-136428562D01*
X247655716Y-136522745D01*
X247559959Y-136592317D01*
X247487880Y-136644686D01*
X247487878Y-136644688D01*
X247487877Y-136644688D01*
X247341188Y-136791377D01*
X247341188Y-136791378D01*
X247341186Y-136791380D01*
X247288817Y-136863459D01*
X247219245Y-136959216D01*
X247125062Y-137144058D01*
X247060952Y-137341366D01*
X247028500Y-137546265D01*
X247028500Y-137753734D01*
X247060952Y-137958633D01*
X247125062Y-138155941D01*
X247209567Y-138321789D01*
X247219245Y-138340783D01*
X247341186Y-138508620D01*
X247487880Y-138655314D01*
X247655717Y-138777255D01*
X247707991Y-138803890D01*
X247840558Y-138871437D01*
X247840560Y-138871437D01*
X247840563Y-138871439D01*
X247912261Y-138894735D01*
X248037866Y-138935547D01*
X248242766Y-138968000D01*
X248242771Y-138968000D01*
X248450234Y-138968000D01*
X248655133Y-138935547D01*
X248671395Y-138930263D01*
X248852437Y-138871439D01*
X249037283Y-138777255D01*
X249205120Y-138655314D01*
X249351814Y-138508620D01*
X249473755Y-138340783D01*
X249506296Y-138276915D01*
X249554270Y-138226121D01*
X249622091Y-138209326D01*
X249688226Y-138231863D01*
X249727266Y-138276917D01*
X249759672Y-138340519D01*
X249794495Y-138388449D01*
X250366794Y-137816150D01*
X250378641Y-137860362D01*
X250450391Y-137984638D01*
X250551862Y-138086109D01*
X250676138Y-138157859D01*
X250720348Y-138169705D01*
X250148048Y-138742003D01*
X250148049Y-138742004D01*
X250195974Y-138776824D01*
X250380753Y-138870973D01*
X250577988Y-138935059D01*
X250782805Y-138967500D01*
X250990195Y-138967500D01*
X251195011Y-138935059D01*
X251392246Y-138870973D01*
X251577013Y-138776830D01*
X251577026Y-138776822D01*
X251624949Y-138742004D01*
X251624950Y-138742003D01*
X251052651Y-138169705D01*
X251096862Y-138157859D01*
X251221138Y-138086109D01*
X251322609Y-137984638D01*
X251394359Y-137860362D01*
X251406205Y-137816151D01*
X251978503Y-138388450D01*
X251978504Y-138388449D01*
X252013322Y-138340526D01*
X252013330Y-138340513D01*
X252107473Y-138155746D01*
X252171559Y-137958511D01*
X252203527Y-137756681D01*
X252233456Y-137693546D01*
X252292768Y-137656615D01*
X252362630Y-137657613D01*
X252420863Y-137696223D01*
X252448977Y-137760187D01*
X252450000Y-137776079D01*
X252450000Y-143773920D01*
X252430315Y-143840959D01*
X252377511Y-143886714D01*
X252308353Y-143896658D01*
X252244797Y-143867633D01*
X252207023Y-143808855D01*
X252203527Y-143793318D01*
X252171559Y-143591488D01*
X252107473Y-143394253D01*
X252013324Y-143209474D01*
X251978504Y-143161549D01*
X251978503Y-143161548D01*
X251406205Y-143733847D01*
X251394359Y-143689638D01*
X251322609Y-143565362D01*
X251221138Y-143463891D01*
X251096862Y-143392141D01*
X251052651Y-143380294D01*
X251624949Y-142807995D01*
X251577019Y-142773172D01*
X251392246Y-142679026D01*
X251195011Y-142614940D01*
X250990195Y-142582500D01*
X250782805Y-142582500D01*
X250577988Y-142614940D01*
X250380753Y-142679026D01*
X250195972Y-142773176D01*
X250148049Y-142807994D01*
X250148049Y-142807995D01*
X250720348Y-143380294D01*
X250676138Y-143392141D01*
X250551862Y-143463891D01*
X250450391Y-143565362D01*
X250378641Y-143689638D01*
X250366794Y-143733848D01*
X249794495Y-143161549D01*
X249794494Y-143161549D01*
X249759676Y-143209472D01*
X249727266Y-143273082D01*
X249679291Y-143323878D01*
X249611470Y-143340673D01*
X249545335Y-143318135D01*
X249506296Y-143273082D01*
X249494789Y-143250499D01*
X249473755Y-143209217D01*
X249351814Y-143041380D01*
X249205120Y-142894686D01*
X249037283Y-142772745D01*
X248852441Y-142678562D01*
X248655133Y-142614452D01*
X248450234Y-142582000D01*
X248450229Y-142582000D01*
X248242771Y-142582000D01*
X248242766Y-142582000D01*
X248037866Y-142614452D01*
X247840558Y-142678562D01*
X247655716Y-142772745D01*
X247578506Y-142828842D01*
X247487880Y-142894686D01*
X247487878Y-142894688D01*
X247487877Y-142894688D01*
X247341188Y-143041377D01*
X247341188Y-143041378D01*
X247341186Y-143041380D01*
X247329218Y-143057853D01*
X247219245Y-143209216D01*
X247125062Y-143394058D01*
X247060952Y-143591366D01*
X247028500Y-143796265D01*
X247028500Y-144003734D01*
X247060952Y-144208633D01*
X247125062Y-144405941D01*
X247193302Y-144539867D01*
X247219245Y-144590783D01*
X247341186Y-144758620D01*
X247487880Y-144905314D01*
X247655717Y-145027255D01*
X247743048Y-145071752D01*
X247840558Y-145121437D01*
X247840560Y-145121437D01*
X247840563Y-145121439D01*
X247946323Y-145155802D01*
X248037866Y-145185547D01*
X248242766Y-145218000D01*
X248242771Y-145218000D01*
X248450234Y-145218000D01*
X248655133Y-145185547D01*
X248656635Y-145185059D01*
X248852437Y-145121439D01*
X249037283Y-145027255D01*
X249205120Y-144905314D01*
X249351814Y-144758620D01*
X249473755Y-144590783D01*
X249506296Y-144526915D01*
X249554270Y-144476121D01*
X249622091Y-144459326D01*
X249688226Y-144481863D01*
X249727266Y-144526917D01*
X249759672Y-144590519D01*
X249794495Y-144638449D01*
X250366794Y-144066150D01*
X250378641Y-144110362D01*
X250450391Y-144234638D01*
X250551862Y-144336109D01*
X250676138Y-144407859D01*
X250720348Y-144419705D01*
X250148048Y-144992003D01*
X250148049Y-144992004D01*
X250195974Y-145026824D01*
X250380753Y-145120973D01*
X250577988Y-145185059D01*
X250782805Y-145217500D01*
X250990195Y-145217500D01*
X251195011Y-145185059D01*
X251392246Y-145120973D01*
X251577013Y-145026830D01*
X251577026Y-145026822D01*
X251624949Y-144992004D01*
X251624950Y-144992003D01*
X251052651Y-144419705D01*
X251096862Y-144407859D01*
X251221138Y-144336109D01*
X251322609Y-144234638D01*
X251394359Y-144110362D01*
X251406205Y-144066151D01*
X251978503Y-144638450D01*
X251978504Y-144638449D01*
X252013322Y-144590526D01*
X252013330Y-144590513D01*
X252107473Y-144405746D01*
X252171559Y-144208511D01*
X252203527Y-144006681D01*
X252233456Y-143943546D01*
X252292768Y-143906615D01*
X252362630Y-143907613D01*
X252420863Y-143946223D01*
X252448977Y-144010187D01*
X252450000Y-144026079D01*
X252450000Y-159575500D01*
X252430315Y-159642539D01*
X252377511Y-159688294D01*
X252326000Y-159699500D01*
X179874500Y-159699500D01*
X179807461Y-159679815D01*
X179761706Y-159627011D01*
X179750500Y-159575500D01*
X179750500Y-157331902D01*
X180499500Y-157331902D01*
X180499500Y-157568097D01*
X180536446Y-157801368D01*
X180609433Y-158025996D01*
X180716657Y-158236433D01*
X180855483Y-158427510D01*
X181022490Y-158594517D01*
X181213567Y-158733343D01*
X181312991Y-158784002D01*
X181424003Y-158840566D01*
X181424005Y-158840566D01*
X181424008Y-158840568D01*
X181544412Y-158879689D01*
X181648631Y-158913553D01*
X181881903Y-158950500D01*
X181881908Y-158950500D01*
X182118097Y-158950500D01*
X182351368Y-158913553D01*
X182575992Y-158840568D01*
X182786433Y-158733343D01*
X182977510Y-158594517D01*
X183144517Y-158427510D01*
X183283343Y-158236433D01*
X183390568Y-158025992D01*
X183463553Y-157801368D01*
X183467026Y-157779439D01*
X183500500Y-157568097D01*
X183500500Y-157331902D01*
X183463553Y-157098631D01*
X183415259Y-156950000D01*
X183390568Y-156874008D01*
X183390566Y-156874005D01*
X183390566Y-156874003D01*
X183283342Y-156663566D01*
X183268395Y-156642993D01*
X183144517Y-156472490D01*
X183014790Y-156342763D01*
X192507500Y-156342763D01*
X192507500Y-156557236D01*
X192541048Y-156769049D01*
X192607323Y-156973020D01*
X192704688Y-157164110D01*
X192745778Y-157220665D01*
X192745779Y-157220666D01*
X193325799Y-156640646D01*
X193334185Y-156671942D01*
X193409885Y-156803058D01*
X193516942Y-156910115D01*
X193648058Y-156985815D01*
X193679352Y-156994200D01*
X193099332Y-157574219D01*
X193155893Y-157615313D01*
X193346979Y-157712676D01*
X193550950Y-157778951D01*
X193762764Y-157812500D01*
X193977236Y-157812500D01*
X194189049Y-157778951D01*
X194393020Y-157712676D01*
X194584105Y-157615314D01*
X194640665Y-157574219D01*
X194640666Y-157574219D01*
X194060646Y-156994200D01*
X194091942Y-156985815D01*
X194223058Y-156910115D01*
X194330115Y-156803058D01*
X194405815Y-156671942D01*
X194414200Y-156640647D01*
X194994219Y-157220666D01*
X194994219Y-157220665D01*
X195038177Y-157160165D01*
X195039607Y-157161204D01*
X195085753Y-157119428D01*
X195154679Y-157107982D01*
X195218851Y-157135618D01*
X195240756Y-157160889D01*
X195241394Y-157160426D01*
X195244257Y-157164367D01*
X195244258Y-157164368D01*
X195370362Y-157337935D01*
X195522065Y-157489638D01*
X195695632Y-157615742D01*
X195750685Y-157643793D01*
X195886784Y-157713140D01*
X195886786Y-157713140D01*
X195886789Y-157713142D01*
X195996160Y-157748678D01*
X196090829Y-157779439D01*
X196302725Y-157813000D01*
X196302730Y-157813000D01*
X196517275Y-157813000D01*
X196729170Y-157779439D01*
X196730672Y-157778951D01*
X196933211Y-157713142D01*
X197124368Y-157615742D01*
X197297935Y-157489638D01*
X197395631Y-157391941D01*
X197456950Y-157358459D01*
X197526642Y-157363443D01*
X197582576Y-157405314D01*
X197599491Y-157436292D01*
X197643702Y-157554828D01*
X197643706Y-157554835D01*
X197729952Y-157670044D01*
X197729955Y-157670047D01*
X197845164Y-157756293D01*
X197845171Y-157756297D01*
X197980017Y-157806591D01*
X197980016Y-157806591D01*
X197986944Y-157807335D01*
X198039627Y-157813000D01*
X199860372Y-157812999D01*
X199919983Y-157806591D01*
X200054831Y-157756296D01*
X200170046Y-157670046D01*
X200256296Y-157554831D01*
X200306591Y-157419983D01*
X200313000Y-157360373D01*
X200312999Y-155539628D01*
X200306591Y-155480017D01*
X200298256Y-155457671D01*
X200256297Y-155345171D01*
X200256293Y-155345164D01*
X200170047Y-155229955D01*
X200170046Y-155229954D01*
X200161780Y-155223766D01*
X200119909Y-155167834D01*
X200114925Y-155098142D01*
X200148409Y-155036819D01*
X200209732Y-155003334D01*
X200236091Y-155000500D01*
X204583113Y-155000500D01*
X204650152Y-155020185D01*
X204695907Y-155072989D01*
X204705851Y-155142147D01*
X204676826Y-155205703D01*
X204621432Y-155242431D01*
X204470159Y-155291582D01*
X204294863Y-155380899D01*
X204294859Y-155380902D01*
X204259873Y-155406320D01*
X204259872Y-155406320D01*
X204820590Y-155967037D01*
X204757007Y-155984075D01*
X204642993Y-156049901D01*
X204549901Y-156142993D01*
X204484075Y-156257007D01*
X204467037Y-156320590D01*
X203906320Y-155759872D01*
X203906320Y-155759873D01*
X203880902Y-155794859D01*
X203880899Y-155794863D01*
X203791582Y-155970161D01*
X203730778Y-156157294D01*
X203700000Y-156351617D01*
X203700000Y-156548382D01*
X203730778Y-156742705D01*
X203791581Y-156929835D01*
X203880905Y-157105145D01*
X203906319Y-157140125D01*
X203906320Y-157140125D01*
X204467037Y-156579408D01*
X204484075Y-156642993D01*
X204549901Y-156757007D01*
X204642993Y-156850099D01*
X204757007Y-156915925D01*
X204820590Y-156932962D01*
X204259873Y-157493677D01*
X204259873Y-157493678D01*
X204294858Y-157519096D01*
X204470164Y-157608418D01*
X204657294Y-157669221D01*
X204851618Y-157700000D01*
X205048382Y-157700000D01*
X205242705Y-157669221D01*
X205429835Y-157608418D01*
X205605143Y-157519095D01*
X205640125Y-157493678D01*
X205640126Y-157493678D01*
X205079410Y-156932962D01*
X205142993Y-156915925D01*
X205257007Y-156850099D01*
X205350099Y-156757007D01*
X205415925Y-156642993D01*
X205432962Y-156579409D01*
X205785057Y-156931504D01*
X205807861Y-156962890D01*
X205852501Y-157050500D01*
X205880476Y-157105405D01*
X205996172Y-157264646D01*
X206135354Y-157403828D01*
X206294595Y-157519524D01*
X206363889Y-157554831D01*
X206469970Y-157608882D01*
X206469972Y-157608882D01*
X206469975Y-157608884D01*
X206570317Y-157641487D01*
X206657173Y-157669709D01*
X206851578Y-157700500D01*
X206851583Y-157700500D01*
X207048422Y-157700500D01*
X207242826Y-157669709D01*
X207322574Y-157643797D01*
X207430025Y-157608884D01*
X207605405Y-157519524D01*
X207764646Y-157403828D01*
X207862319Y-157306155D01*
X207923642Y-157272670D01*
X207993334Y-157277654D01*
X208037681Y-157306155D01*
X208135354Y-157403828D01*
X208294595Y-157519524D01*
X208363889Y-157554831D01*
X208469970Y-157608882D01*
X208469972Y-157608882D01*
X208469975Y-157608884D01*
X208570317Y-157641487D01*
X208657173Y-157669709D01*
X208851578Y-157700500D01*
X208851583Y-157700500D01*
X209048422Y-157700500D01*
X209242826Y-157669709D01*
X209322574Y-157643797D01*
X209430025Y-157608884D01*
X209605405Y-157519524D01*
X209641614Y-157493215D01*
X209707417Y-157469736D01*
X209775471Y-157485560D01*
X209813763Y-157519220D01*
X209842454Y-157557546D01*
X209842455Y-157557546D01*
X209842456Y-157557548D01*
X209957664Y-157643793D01*
X209957671Y-157643797D01*
X210092517Y-157694091D01*
X210092516Y-157694091D01*
X210099444Y-157694835D01*
X210152127Y-157700500D01*
X211747872Y-157700499D01*
X211807483Y-157694091D01*
X211942331Y-157643796D01*
X212057546Y-157557546D01*
X212143796Y-157442331D01*
X212194091Y-157307483D01*
X212194091Y-157307481D01*
X212195874Y-157299938D01*
X212198146Y-157300474D01*
X212220429Y-157246688D01*
X212277823Y-157206843D01*
X212316976Y-157200500D01*
X229123920Y-157200500D01*
X229221462Y-157181096D01*
X229268913Y-157171658D01*
X229405495Y-157115084D01*
X229502151Y-157050501D01*
X229528416Y-157032952D01*
X238115295Y-148446070D01*
X238155519Y-148419193D01*
X238179179Y-148409394D01*
X238310289Y-148321789D01*
X238421789Y-148210289D01*
X238509394Y-148079179D01*
X238569737Y-147933497D01*
X238600500Y-147778842D01*
X238600500Y-147621158D01*
X238600500Y-147621155D01*
X238600499Y-147621153D01*
X238578447Y-147510291D01*
X238569737Y-147466503D01*
X238553876Y-147428210D01*
X238509397Y-147320827D01*
X238509390Y-147320814D01*
X238421789Y-147189711D01*
X238421786Y-147189707D01*
X238310292Y-147078213D01*
X238310288Y-147078210D01*
X238179185Y-146990609D01*
X238179172Y-146990602D01*
X238033501Y-146930264D01*
X238033489Y-146930261D01*
X237878845Y-146899500D01*
X237878842Y-146899500D01*
X237721158Y-146899500D01*
X237721157Y-146899500D01*
X237720835Y-146899564D01*
X237720662Y-146899548D01*
X237715093Y-146900097D01*
X237714988Y-146899040D01*
X237651243Y-146893332D01*
X237596068Y-146850466D01*
X237572827Y-146784575D01*
X237588899Y-146716579D01*
X237608965Y-146690268D01*
X237964662Y-146334572D01*
X238025983Y-146301089D01*
X238028150Y-146300638D01*
X238086085Y-146289113D01*
X238183497Y-146269737D01*
X238329179Y-146209394D01*
X238460289Y-146121789D01*
X238571789Y-146010289D01*
X238659394Y-145879179D01*
X238719737Y-145733497D01*
X238750500Y-145578842D01*
X238750500Y-145421158D01*
X238750500Y-145421155D01*
X238750499Y-145421153D01*
X238731143Y-145323845D01*
X238719737Y-145266503D01*
X238699647Y-145218000D01*
X238659397Y-145120827D01*
X238659390Y-145120814D01*
X238571789Y-144989711D01*
X238571786Y-144989707D01*
X238460292Y-144878213D01*
X238460288Y-144878210D01*
X238329185Y-144790609D01*
X238329172Y-144790602D01*
X238183501Y-144730264D01*
X238183489Y-144730261D01*
X238028845Y-144699500D01*
X238028842Y-144699500D01*
X237871158Y-144699500D01*
X237871155Y-144699500D01*
X237716510Y-144730261D01*
X237716498Y-144730264D01*
X237570827Y-144790602D01*
X237570814Y-144790609D01*
X237439711Y-144878210D01*
X237439707Y-144878213D01*
X237328213Y-144989707D01*
X237328210Y-144989711D01*
X237240609Y-145120814D01*
X237240602Y-145120827D01*
X237180264Y-145266498D01*
X237180261Y-145266508D01*
X237149361Y-145421850D01*
X237116976Y-145483761D01*
X237115425Y-145485339D01*
X236837584Y-145763181D01*
X236776261Y-145796666D01*
X236749903Y-145799500D01*
X231929766Y-145799500D01*
X231911620Y-145794171D01*
X231892713Y-145793834D01*
X231864496Y-145780334D01*
X231862727Y-145779815D01*
X231860875Y-145778602D01*
X231752571Y-145706235D01*
X231707766Y-145652623D01*
X231699059Y-145583298D01*
X231729214Y-145520270D01*
X231733760Y-145515473D01*
X232812416Y-144436819D01*
X232873739Y-144403334D01*
X232900097Y-144400500D01*
X242895065Y-144400500D01*
X242962104Y-144420185D01*
X242963909Y-144421366D01*
X243020821Y-144459394D01*
X243020823Y-144459395D01*
X243020827Y-144459397D01*
X243075066Y-144481863D01*
X243166503Y-144519737D01*
X243319132Y-144550097D01*
X243321153Y-144550499D01*
X243321156Y-144550500D01*
X243321158Y-144550500D01*
X243478844Y-144550500D01*
X243478845Y-144550499D01*
X243633497Y-144519737D01*
X243779179Y-144459394D01*
X243910289Y-144371789D01*
X244021789Y-144260289D01*
X244109394Y-144129179D01*
X244111512Y-144124067D01*
X244140658Y-144053700D01*
X244169737Y-143983497D01*
X244200500Y-143828842D01*
X244200500Y-143671158D01*
X244200500Y-143671155D01*
X244200499Y-143671153D01*
X244194622Y-143641606D01*
X244169737Y-143516503D01*
X244150572Y-143470234D01*
X244109397Y-143370827D01*
X244109390Y-143370814D01*
X244021789Y-143239711D01*
X244021786Y-143239707D01*
X243910292Y-143128213D01*
X243910288Y-143128210D01*
X243779185Y-143040609D01*
X243779172Y-143040602D01*
X243633501Y-142980264D01*
X243633489Y-142980261D01*
X243478845Y-142949500D01*
X243478842Y-142949500D01*
X243321158Y-142949500D01*
X243321155Y-142949500D01*
X243166510Y-142980261D01*
X243166498Y-142980264D01*
X243020827Y-143040602D01*
X243020814Y-143040609D01*
X242889711Y-143128210D01*
X242889707Y-143128213D01*
X242854742Y-143163180D01*
X242793420Y-143196666D01*
X242767060Y-143199500D01*
X233116197Y-143199500D01*
X233049158Y-143179815D01*
X233003403Y-143127011D01*
X232993459Y-143057853D01*
X233022484Y-142994297D01*
X233028516Y-142987819D01*
X235868653Y-140147682D01*
X241700000Y-140147682D01*
X241700000Y-140352317D01*
X241732009Y-140554417D01*
X241795244Y-140749031D01*
X241888141Y-140931350D01*
X241888147Y-140931359D01*
X241920523Y-140975921D01*
X241920524Y-140975922D01*
X242508871Y-140387574D01*
X242524755Y-140446853D01*
X242591898Y-140563147D01*
X242686853Y-140658102D01*
X242803147Y-140725245D01*
X242862424Y-140741128D01*
X242274076Y-141329474D01*
X242318650Y-141361859D01*
X242500968Y-141454755D01*
X242695582Y-141517990D01*
X242897683Y-141550000D01*
X243102317Y-141550000D01*
X243304417Y-141517990D01*
X243499031Y-141454755D01*
X243681349Y-141361859D01*
X243725921Y-141329474D01*
X243137575Y-140741128D01*
X243196853Y-140725245D01*
X243313147Y-140658102D01*
X243408102Y-140563147D01*
X243475245Y-140446853D01*
X243491128Y-140387575D01*
X244079474Y-140975921D01*
X244111859Y-140931349D01*
X244204755Y-140749031D01*
X244267990Y-140554417D01*
X244300000Y-140352317D01*
X244300000Y-140147682D01*
X244267990Y-139945582D01*
X244204755Y-139750968D01*
X244111859Y-139568650D01*
X244079474Y-139524077D01*
X244079474Y-139524076D01*
X243491127Y-140112423D01*
X243475245Y-140053147D01*
X243408102Y-139936853D01*
X243313147Y-139841898D01*
X243196853Y-139774755D01*
X243137574Y-139758871D01*
X243725922Y-139170524D01*
X243725921Y-139170523D01*
X243681359Y-139138147D01*
X243681350Y-139138141D01*
X243499031Y-139045244D01*
X243304417Y-138982009D01*
X243102317Y-138950000D01*
X242897683Y-138950000D01*
X242695582Y-138982009D01*
X242500968Y-139045244D01*
X242318644Y-139138143D01*
X242274077Y-139170523D01*
X242274077Y-139170524D01*
X242862425Y-139758871D01*
X242803147Y-139774755D01*
X242686853Y-139841898D01*
X242591898Y-139936853D01*
X242524755Y-140053147D01*
X242508871Y-140112424D01*
X241920524Y-139524077D01*
X241920523Y-139524077D01*
X241888143Y-139568644D01*
X241795244Y-139750968D01*
X241732009Y-139945582D01*
X241700000Y-140147682D01*
X235868653Y-140147682D01*
X237679516Y-138336819D01*
X237740839Y-138303334D01*
X237767197Y-138300500D01*
X242920234Y-138300500D01*
X242987273Y-138320185D01*
X242989125Y-138321398D01*
X243120814Y-138409390D01*
X243120827Y-138409397D01*
X243205063Y-138444288D01*
X243266503Y-138469737D01*
X243421153Y-138500499D01*
X243421156Y-138500500D01*
X243421158Y-138500500D01*
X243578844Y-138500500D01*
X243578845Y-138500499D01*
X243733497Y-138469737D01*
X243879179Y-138409394D01*
X244010289Y-138321789D01*
X244121789Y-138210289D01*
X244209394Y-138079179D01*
X244269737Y-137933497D01*
X244300500Y-137778842D01*
X244300500Y-137621158D01*
X244300500Y-137621155D01*
X244289447Y-137565591D01*
X244289447Y-137565590D01*
X244278269Y-137509397D01*
X244269737Y-137466503D01*
X244226544Y-137362224D01*
X244209397Y-137320827D01*
X244209390Y-137320814D01*
X244121789Y-137189711D01*
X244121786Y-137189707D01*
X244010292Y-137078213D01*
X244010288Y-137078210D01*
X243879185Y-136990609D01*
X243879172Y-136990602D01*
X243733501Y-136930264D01*
X243733489Y-136930261D01*
X243578845Y-136899500D01*
X243578842Y-136899500D01*
X243421158Y-136899500D01*
X243421155Y-136899500D01*
X243266510Y-136930261D01*
X243266498Y-136930264D01*
X243120827Y-136990602D01*
X243120814Y-136990609D01*
X242989125Y-137078602D01*
X242922447Y-137099480D01*
X242920234Y-137099500D01*
X237949097Y-137099500D01*
X237882058Y-137079815D01*
X237836303Y-137027011D01*
X237826359Y-136957853D01*
X237855384Y-136894297D01*
X237861416Y-136887819D01*
X241288946Y-133460288D01*
X242490374Y-132258859D01*
X242551695Y-132225376D01*
X242621387Y-132230360D01*
X242646945Y-132243441D01*
X242670812Y-132259389D01*
X242670827Y-132259397D01*
X242808239Y-132316314D01*
X242816503Y-132319737D01*
X242971153Y-132350499D01*
X242971156Y-132350500D01*
X242971158Y-132350500D01*
X243128844Y-132350500D01*
X243128845Y-132350499D01*
X243283497Y-132319737D01*
X243429179Y-132259394D01*
X243560289Y-132171789D01*
X243671789Y-132060289D01*
X243759394Y-131929179D01*
X243819737Y-131783497D01*
X243850500Y-131628842D01*
X243850500Y-131471158D01*
X243850500Y-131471155D01*
X243850499Y-131471152D01*
X243847388Y-131455513D01*
X247096000Y-131455513D01*
X247096000Y-131644486D01*
X247125559Y-131831118D01*
X247183954Y-132010836D01*
X247242396Y-132125534D01*
X247269740Y-132179199D01*
X247380810Y-132332073D01*
X247514427Y-132465690D01*
X247667301Y-132576760D01*
X247746847Y-132617290D01*
X247835663Y-132662545D01*
X247835665Y-132662545D01*
X247835668Y-132662547D01*
X247931997Y-132693846D01*
X248015381Y-132720940D01*
X248202014Y-132750500D01*
X248202019Y-132750500D01*
X248390986Y-132750500D01*
X248577618Y-132720940D01*
X248591252Y-132716510D01*
X248757332Y-132662547D01*
X248925699Y-132576760D01*
X249078573Y-132465690D01*
X249212190Y-132332073D01*
X249323260Y-132179199D01*
X249409047Y-132010832D01*
X249448832Y-131888385D01*
X249488268Y-131830713D01*
X249552627Y-131803514D01*
X249621473Y-131815429D01*
X249672949Y-131862673D01*
X249684693Y-131888388D01*
X249724414Y-132010637D01*
X249810166Y-132178933D01*
X249828616Y-132204328D01*
X250394361Y-131638584D01*
X250417167Y-131723694D01*
X250476410Y-131826306D01*
X250560194Y-131910090D01*
X250662806Y-131969333D01*
X250747915Y-131992138D01*
X250182169Y-132557882D01*
X250182170Y-132557883D01*
X250207559Y-132576329D01*
X250375862Y-132662085D01*
X250555497Y-132720451D01*
X250742053Y-132750000D01*
X250930947Y-132750000D01*
X251117502Y-132720451D01*
X251297137Y-132662085D01*
X251465437Y-132576331D01*
X251490828Y-132557883D01*
X251490828Y-132557882D01*
X250925084Y-131992138D01*
X251010194Y-131969333D01*
X251112806Y-131910090D01*
X251196590Y-131826306D01*
X251255833Y-131723694D01*
X251278638Y-131638584D01*
X251844382Y-132204328D01*
X251844383Y-132204328D01*
X251862831Y-132178937D01*
X251948585Y-132010637D01*
X252006951Y-131831002D01*
X252036500Y-131644447D01*
X252036500Y-131455552D01*
X252006951Y-131268997D01*
X251948585Y-131089362D01*
X251862829Y-130921059D01*
X251844383Y-130895670D01*
X251844382Y-130895669D01*
X251278637Y-131461414D01*
X251255833Y-131376306D01*
X251196590Y-131273694D01*
X251112806Y-131189910D01*
X251010194Y-131130667D01*
X250925084Y-131107861D01*
X251490828Y-130542116D01*
X251465433Y-130523666D01*
X251297137Y-130437914D01*
X251117502Y-130379548D01*
X250930947Y-130350000D01*
X250742053Y-130350000D01*
X250555497Y-130379548D01*
X250375862Y-130437914D01*
X250207560Y-130523669D01*
X250182170Y-130542116D01*
X250182169Y-130542116D01*
X250747915Y-131107861D01*
X250662806Y-131130667D01*
X250560194Y-131189910D01*
X250476410Y-131273694D01*
X250417167Y-131376306D01*
X250394361Y-131461414D01*
X249828616Y-130895669D01*
X249828616Y-130895670D01*
X249810169Y-130921060D01*
X249724415Y-131089361D01*
X249684693Y-131211612D01*
X249645255Y-131269287D01*
X249580896Y-131296485D01*
X249512050Y-131284570D01*
X249460574Y-131237326D01*
X249448832Y-131211614D01*
X249409047Y-131089168D01*
X249323260Y-130920801D01*
X249212190Y-130767927D01*
X249078573Y-130634310D01*
X248925699Y-130523240D01*
X248757336Y-130437454D01*
X248577618Y-130379059D01*
X248390986Y-130349500D01*
X248390981Y-130349500D01*
X248202019Y-130349500D01*
X248202014Y-130349500D01*
X248015381Y-130379059D01*
X247835663Y-130437454D01*
X247667300Y-130523240D01*
X247607755Y-130566503D01*
X247514427Y-130634310D01*
X247514425Y-130634312D01*
X247514424Y-130634312D01*
X247380812Y-130767924D01*
X247380812Y-130767925D01*
X247380810Y-130767927D01*
X247357374Y-130800184D01*
X247269740Y-130920800D01*
X247183954Y-131089163D01*
X247125559Y-131268881D01*
X247096000Y-131455513D01*
X243847388Y-131455513D01*
X243819738Y-131316508D01*
X243819737Y-131316507D01*
X243819737Y-131316503D01*
X243800012Y-131268882D01*
X243759397Y-131170827D01*
X243759390Y-131170814D01*
X243671789Y-131039711D01*
X243671786Y-131039707D01*
X243560292Y-130928213D01*
X243560288Y-130928210D01*
X243429185Y-130840609D01*
X243429172Y-130840602D01*
X243283501Y-130780264D01*
X243283489Y-130780261D01*
X243128845Y-130749500D01*
X243128842Y-130749500D01*
X242971158Y-130749500D01*
X242971155Y-130749500D01*
X242816510Y-130780261D01*
X242816498Y-130780264D01*
X242670827Y-130840602D01*
X242670814Y-130840609D01*
X242539125Y-130928602D01*
X242472447Y-130949480D01*
X242470234Y-130949500D01*
X242270940Y-130949500D01*
X242230019Y-130960464D01*
X242230019Y-130960465D01*
X242192751Y-130970451D01*
X242118214Y-130990423D01*
X242118209Y-130990426D01*
X241981290Y-131069475D01*
X241981282Y-131069481D01*
X241869478Y-131181286D01*
X230619860Y-142430903D01*
X230558537Y-142464388D01*
X230488845Y-142459404D01*
X230432912Y-142417532D01*
X230417618Y-142390675D01*
X230409395Y-142370823D01*
X230409390Y-142370814D01*
X230321789Y-142239711D01*
X230321786Y-142239707D01*
X230210292Y-142128213D01*
X230210288Y-142128210D01*
X230079185Y-142040609D01*
X230079172Y-142040602D01*
X229933501Y-141980264D01*
X229933491Y-141980261D01*
X229778149Y-141949361D01*
X229716238Y-141916976D01*
X229714660Y-141915425D01*
X228313324Y-140514089D01*
X228306255Y-140507020D01*
X228306255Y-140507019D01*
X228258906Y-140459670D01*
X228234533Y-140415033D01*
X228225422Y-140398348D01*
X228230406Y-140328656D01*
X228232027Y-140324537D01*
X228235090Y-140317143D01*
X228269737Y-140233497D01*
X228300500Y-140078842D01*
X228300500Y-139921158D01*
X228300500Y-139921155D01*
X228300499Y-139921153D01*
X228280543Y-139820827D01*
X228269737Y-139766503D01*
X228263302Y-139750968D01*
X228209397Y-139620827D01*
X228209390Y-139620814D01*
X228121398Y-139489125D01*
X228100520Y-139422447D01*
X228100500Y-139420234D01*
X228100500Y-138849097D01*
X228120185Y-138782058D01*
X228172989Y-138736303D01*
X228242147Y-138726359D01*
X228305703Y-138755384D01*
X228312181Y-138761416D01*
X229065425Y-139514660D01*
X229098910Y-139575983D01*
X229099361Y-139578149D01*
X229130261Y-139733491D01*
X229130264Y-139733501D01*
X229190602Y-139879172D01*
X229190609Y-139879185D01*
X229278210Y-140010288D01*
X229278213Y-140010292D01*
X229389707Y-140121786D01*
X229389711Y-140121789D01*
X229520814Y-140209390D01*
X229520827Y-140209397D01*
X229649427Y-140262664D01*
X229666503Y-140269737D01*
X229821153Y-140300499D01*
X229821156Y-140300500D01*
X229821158Y-140300500D01*
X229978844Y-140300500D01*
X229978845Y-140300499D01*
X230133497Y-140269737D01*
X230279179Y-140209394D01*
X230410289Y-140121789D01*
X230521789Y-140010289D01*
X230609394Y-139879179D01*
X230669737Y-139733497D01*
X230700500Y-139578842D01*
X230700500Y-139421158D01*
X230700500Y-139421155D01*
X230700499Y-139421153D01*
X230680543Y-139320827D01*
X230669737Y-139266503D01*
X230637929Y-139189711D01*
X230609397Y-139120827D01*
X230609390Y-139120814D01*
X230521789Y-138989711D01*
X230521786Y-138989707D01*
X230410292Y-138878213D01*
X230410288Y-138878210D01*
X230279185Y-138790609D01*
X230279172Y-138790602D01*
X230133501Y-138730264D01*
X230133491Y-138730261D01*
X229978149Y-138699361D01*
X229916238Y-138666976D01*
X229914660Y-138665425D01*
X229403677Y-138154442D01*
X229370192Y-138093119D01*
X229375176Y-138023427D01*
X229417048Y-137967494D01*
X229424216Y-137962932D01*
X229424114Y-137962779D01*
X229492363Y-137917175D01*
X229560289Y-137871789D01*
X229671789Y-137760289D01*
X229759394Y-137629179D01*
X229764177Y-137617633D01*
X229793738Y-137546265D01*
X229819737Y-137483497D01*
X229850500Y-137328842D01*
X229850500Y-137171158D01*
X229850500Y-137171155D01*
X229850499Y-137171153D01*
X229834490Y-137090673D01*
X229819737Y-137016503D01*
X229819735Y-137016498D01*
X229759397Y-136870827D01*
X229759390Y-136870814D01*
X229671789Y-136739711D01*
X229671786Y-136739707D01*
X229560292Y-136628213D01*
X229560288Y-136628210D01*
X229429185Y-136540609D01*
X229429172Y-136540602D01*
X229283501Y-136480264D01*
X229283491Y-136480261D01*
X229128149Y-136449361D01*
X229066238Y-136416976D01*
X229064660Y-136415425D01*
X221585819Y-128936584D01*
X221552334Y-128875261D01*
X221549500Y-128848903D01*
X221549500Y-122618046D01*
X221569185Y-122551007D01*
X221621989Y-122505252D01*
X221649309Y-122496429D01*
X221678848Y-122490552D01*
X221783497Y-122469737D01*
X221929179Y-122409394D01*
X221975221Y-122378630D01*
X222065354Y-122318405D01*
X222066383Y-122319945D01*
X222079048Y-122314562D01*
X222097420Y-122301688D01*
X222110581Y-122301160D01*
X222122705Y-122296008D01*
X222144819Y-122299788D01*
X222167233Y-122298891D01*
X222184600Y-122306590D01*
X222191575Y-122307783D01*
X222199899Y-122312255D01*
X222202991Y-122314071D01*
X222270821Y-122359394D01*
X222302420Y-122372482D01*
X222309831Y-122376836D01*
X222316427Y-122383859D01*
X222334703Y-122396071D01*
X225371580Y-125432948D01*
X225371584Y-125432951D01*
X225494498Y-125515080D01*
X225494511Y-125515087D01*
X225601469Y-125559390D01*
X225631087Y-125571658D01*
X225631091Y-125571658D01*
X225631092Y-125571659D01*
X225776079Y-125600500D01*
X225776082Y-125600500D01*
X225895396Y-125600500D01*
X225942844Y-125609937D01*
X225966503Y-125619737D01*
X225966508Y-125619738D01*
X225966511Y-125619739D01*
X226121153Y-125650499D01*
X226121156Y-125650500D01*
X226121158Y-125650500D01*
X226278844Y-125650500D01*
X226278845Y-125650499D01*
X226433497Y-125619737D01*
X226579179Y-125559394D01*
X226710289Y-125471789D01*
X226821789Y-125360289D01*
X226909394Y-125229179D01*
X226969737Y-125083497D01*
X227000500Y-124928842D01*
X227000500Y-124771158D01*
X227000500Y-124771155D01*
X227000499Y-124771153D01*
X226969738Y-124616510D01*
X226969737Y-124616503D01*
X226916476Y-124487918D01*
X227482735Y-124487918D01*
X227482735Y-124645611D01*
X227513496Y-124800254D01*
X227513499Y-124800266D01*
X227573837Y-124945937D01*
X227573844Y-124945950D01*
X227661445Y-125077053D01*
X227661448Y-125077057D01*
X227772942Y-125188551D01*
X227772946Y-125188554D01*
X227904049Y-125276155D01*
X227904062Y-125276162D01*
X228049733Y-125336500D01*
X228049738Y-125336502D01*
X228169323Y-125360289D01*
X228204388Y-125367264D01*
X228204391Y-125367265D01*
X228204393Y-125367265D01*
X228362079Y-125367265D01*
X228362080Y-125367264D01*
X228516732Y-125336502D01*
X228662414Y-125276159D01*
X228702262Y-125249533D01*
X228707185Y-125246409D01*
X228715133Y-125241622D01*
X228738730Y-125231849D01*
X228803526Y-125188554D01*
X228849781Y-125157648D01*
X241699500Y-125157648D01*
X241699500Y-125362351D01*
X241731522Y-125564534D01*
X241794781Y-125759223D01*
X241887715Y-125941613D01*
X242008028Y-126107213D01*
X242152786Y-126251971D01*
X242307749Y-126364556D01*
X242318390Y-126372287D01*
X242392512Y-126410054D01*
X242500776Y-126465218D01*
X242500778Y-126465218D01*
X242500781Y-126465220D01*
X242605137Y-126499127D01*
X242695465Y-126528477D01*
X242796557Y-126544488D01*
X242897648Y-126560500D01*
X242897649Y-126560500D01*
X243102351Y-126560500D01*
X243102352Y-126560500D01*
X243304534Y-126528477D01*
X243499219Y-126465220D01*
X243681610Y-126372287D01*
X243774590Y-126304732D01*
X243847213Y-126251971D01*
X243847215Y-126251968D01*
X243847219Y-126251966D01*
X243991966Y-126107219D01*
X243991968Y-126107215D01*
X243991971Y-126107213D01*
X244044732Y-126034590D01*
X244112287Y-125941610D01*
X244205220Y-125759219D01*
X244268477Y-125564534D01*
X244300500Y-125362352D01*
X244300500Y-125157648D01*
X244288756Y-125083501D01*
X244268477Y-124955465D01*
X244218048Y-124800262D01*
X244205220Y-124760781D01*
X244205218Y-124760778D01*
X244205218Y-124760776D01*
X244171503Y-124694607D01*
X244112287Y-124578390D01*
X244076609Y-124529283D01*
X243991971Y-124412786D01*
X243847213Y-124268028D01*
X243681613Y-124147715D01*
X243681612Y-124147714D01*
X243681610Y-124147713D01*
X243607494Y-124109949D01*
X243499223Y-124054781D01*
X243304534Y-123991522D01*
X243129995Y-123963878D01*
X243102352Y-123959500D01*
X242897648Y-123959500D01*
X242873329Y-123963351D01*
X242695465Y-123991522D01*
X242500776Y-124054781D01*
X242318386Y-124147715D01*
X242152786Y-124268028D01*
X242008028Y-124412786D01*
X241887715Y-124578386D01*
X241794781Y-124760776D01*
X241731522Y-124955465D01*
X241699500Y-125157648D01*
X228849781Y-125157648D01*
X228861651Y-125149717D01*
X228861656Y-125149712D01*
X228946274Y-125065095D01*
X229482084Y-124529283D01*
X229615297Y-124396069D01*
X229655522Y-124369192D01*
X229679179Y-124359394D01*
X229810289Y-124271789D01*
X229921789Y-124160289D01*
X230009394Y-124029179D01*
X230069737Y-123883497D01*
X230100500Y-123728842D01*
X230100500Y-123571158D01*
X230100500Y-123571155D01*
X230100499Y-123571153D01*
X230080217Y-123469190D01*
X230069737Y-123416503D01*
X230019194Y-123294480D01*
X230009397Y-123270827D01*
X230009390Y-123270814D01*
X229921789Y-123139711D01*
X229921786Y-123139707D01*
X229810292Y-123028213D01*
X229810288Y-123028210D01*
X229679185Y-122940609D01*
X229679172Y-122940602D01*
X229533501Y-122880264D01*
X229533489Y-122880261D01*
X229378845Y-122849500D01*
X229378842Y-122849500D01*
X229221158Y-122849500D01*
X229221155Y-122849500D01*
X229066510Y-122880261D01*
X229066498Y-122880264D01*
X228920827Y-122940602D01*
X228920814Y-122940609D01*
X228789711Y-123028210D01*
X228789707Y-123028213D01*
X228678213Y-123139707D01*
X228678207Y-123139715D01*
X228590607Y-123270818D01*
X228590606Y-123270819D01*
X228580805Y-123294480D01*
X228553927Y-123334703D01*
X228128596Y-123760034D01*
X228067273Y-123793519D01*
X228065108Y-123793970D01*
X228049742Y-123797026D01*
X228049735Y-123797028D01*
X227904062Y-123857367D01*
X227904049Y-123857374D01*
X227772946Y-123944975D01*
X227772942Y-123944978D01*
X227661448Y-124056472D01*
X227661445Y-124056476D01*
X227573844Y-124187579D01*
X227573837Y-124187592D01*
X227513499Y-124333263D01*
X227513496Y-124333275D01*
X227482735Y-124487918D01*
X226916476Y-124487918D01*
X226909397Y-124470827D01*
X226909390Y-124470814D01*
X226821789Y-124339711D01*
X226821786Y-124339707D01*
X226710292Y-124228213D01*
X226710288Y-124228210D01*
X226579185Y-124140609D01*
X226579172Y-124140602D01*
X226433501Y-124080264D01*
X226433489Y-124080261D01*
X226278845Y-124049500D01*
X226278842Y-124049500D01*
X226162229Y-124049500D01*
X226095190Y-124029815D01*
X226074548Y-124013181D01*
X223396071Y-121334703D01*
X223369191Y-121294475D01*
X223359394Y-121270821D01*
X223301041Y-121183489D01*
X223271789Y-121139710D01*
X223203337Y-121071258D01*
X223169852Y-121009935D01*
X223174836Y-120940243D01*
X223203334Y-120895899D01*
X224280520Y-119818716D01*
X224295792Y-119792262D01*
X224315497Y-119766580D01*
X224421789Y-119660289D01*
X224509394Y-119529179D01*
X224569737Y-119383497D01*
X224600500Y-119228842D01*
X224600500Y-119071158D01*
X224600500Y-119071155D01*
X224600499Y-119071153D01*
X224576499Y-118950500D01*
X224569737Y-118916503D01*
X224538283Y-118840566D01*
X224509397Y-118770827D01*
X224509390Y-118770814D01*
X224421789Y-118639711D01*
X224421786Y-118639707D01*
X224310292Y-118528213D01*
X224310288Y-118528210D01*
X224179185Y-118440609D01*
X224179172Y-118440602D01*
X224033501Y-118380264D01*
X224033489Y-118380261D01*
X223878845Y-118349500D01*
X223878842Y-118349500D01*
X223721158Y-118349500D01*
X223626370Y-118368354D01*
X223556779Y-118362126D01*
X223501602Y-118319262D01*
X223480563Y-118270927D01*
X223469738Y-118216510D01*
X223469738Y-118216508D01*
X223469737Y-118216503D01*
X223469735Y-118216498D01*
X223409397Y-118070827D01*
X223409390Y-118070814D01*
X223321789Y-117939711D01*
X223321786Y-117939707D01*
X223210292Y-117828213D01*
X223210288Y-117828210D01*
X223079185Y-117740609D01*
X223079172Y-117740602D01*
X222933501Y-117680264D01*
X222933489Y-117680261D01*
X222778845Y-117649500D01*
X222778842Y-117649500D01*
X222621158Y-117649500D01*
X222621155Y-117649500D01*
X222466510Y-117680261D01*
X222466498Y-117680264D01*
X222320827Y-117740602D01*
X222320814Y-117740609D01*
X222189711Y-117828210D01*
X222189707Y-117828213D01*
X222078213Y-117939707D01*
X222078210Y-117939711D01*
X221990609Y-118070814D01*
X221990602Y-118070827D01*
X221930264Y-118216498D01*
X221930261Y-118216508D01*
X221899362Y-118371848D01*
X221866977Y-118433759D01*
X221865426Y-118435337D01*
X220081286Y-120219478D01*
X219969481Y-120331282D01*
X219969479Y-120331285D01*
X219924385Y-120409392D01*
X219924384Y-120409393D01*
X219890423Y-120468214D01*
X219890423Y-120468215D01*
X219849499Y-120620943D01*
X219849499Y-120620945D01*
X219849499Y-120789046D01*
X219849500Y-120789059D01*
X219849500Y-121700903D01*
X219829815Y-121767942D01*
X219777011Y-121813697D01*
X219707853Y-121823641D01*
X219644297Y-121794616D01*
X219637819Y-121788584D01*
X217237590Y-119388355D01*
X217237588Y-119388352D01*
X217118717Y-119269481D01*
X217118709Y-119269475D01*
X217029923Y-119218215D01*
X217029922Y-119218215D01*
X216981785Y-119190423D01*
X216829057Y-119149499D01*
X216670943Y-119149499D01*
X216663347Y-119149499D01*
X216663331Y-119149500D01*
X215828269Y-119149500D01*
X215761230Y-119129815D01*
X215715475Y-119077011D01*
X215705531Y-119007853D01*
X215734556Y-118944297D01*
X215755626Y-118925707D01*
X215755581Y-118925653D01*
X215757119Y-118924390D01*
X215759379Y-118922397D01*
X215760289Y-118921789D01*
X215871789Y-118810289D01*
X215959394Y-118679179D01*
X216019737Y-118533497D01*
X216050500Y-118378842D01*
X216050500Y-118221158D01*
X216050500Y-118221155D01*
X216050499Y-118221153D01*
X216020596Y-118070821D01*
X216019737Y-118066503D01*
X216002957Y-118025992D01*
X215959397Y-117920827D01*
X215959390Y-117920814D01*
X215871789Y-117789711D01*
X215871786Y-117789707D01*
X215760292Y-117678213D01*
X215760288Y-117678210D01*
X215629185Y-117590609D01*
X215629180Y-117590607D01*
X215629179Y-117590606D01*
X215605519Y-117580805D01*
X215565293Y-117553926D01*
X213728421Y-115717052D01*
X213728414Y-115717046D01*
X213654729Y-115667812D01*
X213654729Y-115667813D01*
X213605491Y-115634913D01*
X213468917Y-115578343D01*
X213468907Y-115578340D01*
X213323920Y-115549500D01*
X213323918Y-115549500D01*
X212654604Y-115549500D01*
X212607155Y-115540062D01*
X212583497Y-115530263D01*
X212583493Y-115530262D01*
X212583488Y-115530260D01*
X212428845Y-115499500D01*
X212428842Y-115499500D01*
X212271158Y-115499500D01*
X212271155Y-115499500D01*
X212116510Y-115530261D01*
X212116498Y-115530264D01*
X211970827Y-115590602D01*
X211970814Y-115590609D01*
X211839711Y-115678210D01*
X211839707Y-115678213D01*
X211728213Y-115789707D01*
X211728210Y-115789711D01*
X211640609Y-115920814D01*
X211640602Y-115920827D01*
X211580264Y-116066498D01*
X211580261Y-116066510D01*
X211549500Y-116221153D01*
X211549500Y-116378846D01*
X211580261Y-116533489D01*
X211580264Y-116533501D01*
X211640602Y-116679172D01*
X211640609Y-116679185D01*
X211728210Y-116810288D01*
X211728213Y-116810292D01*
X211839707Y-116921786D01*
X211839711Y-116921789D01*
X211970814Y-117009390D01*
X211970827Y-117009397D01*
X212070060Y-117050500D01*
X212116503Y-117069737D01*
X212261762Y-117098631D01*
X212271153Y-117100499D01*
X212271156Y-117100500D01*
X212271158Y-117100500D01*
X212428844Y-117100500D01*
X212428845Y-117100499D01*
X212505152Y-117085320D01*
X212583488Y-117069739D01*
X212583489Y-117069738D01*
X212583497Y-117069737D01*
X212607155Y-117059937D01*
X212615329Y-117058311D01*
X212619669Y-117055523D01*
X212654604Y-117050500D01*
X212887770Y-117050500D01*
X212954809Y-117070185D01*
X212975451Y-117086819D01*
X214503926Y-118615293D01*
X214530805Y-118655519D01*
X214540603Y-118679172D01*
X214540606Y-118679178D01*
X214540609Y-118679185D01*
X214628210Y-118810288D01*
X214628213Y-118810292D01*
X214739708Y-118921787D01*
X214740621Y-118922397D01*
X214740991Y-118922839D01*
X214744419Y-118925653D01*
X214743885Y-118926303D01*
X214785427Y-118976010D01*
X214794134Y-119045334D01*
X214763980Y-119108362D01*
X214704537Y-119145082D01*
X214671731Y-119149500D01*
X214129766Y-119149500D01*
X214062727Y-119129815D01*
X214060875Y-119128602D01*
X213929185Y-119040609D01*
X213929172Y-119040602D01*
X213783501Y-118980264D01*
X213783489Y-118980261D01*
X213628845Y-118949500D01*
X213628842Y-118949500D01*
X213471158Y-118949500D01*
X213471155Y-118949500D01*
X213316510Y-118980261D01*
X213316498Y-118980264D01*
X213170827Y-119040602D01*
X213170814Y-119040609D01*
X213039711Y-119128210D01*
X213039707Y-119128213D01*
X212928213Y-119239707D01*
X212928210Y-119239711D01*
X212840609Y-119370814D01*
X212840602Y-119370827D01*
X212780264Y-119516498D01*
X212780261Y-119516510D01*
X212749500Y-119671153D01*
X212749500Y-119828846D01*
X212780261Y-119983489D01*
X212780264Y-119983501D01*
X212840602Y-120129172D01*
X212840609Y-120129185D01*
X212928210Y-120260288D01*
X212928213Y-120260292D01*
X212958091Y-120290170D01*
X212991576Y-120351493D01*
X212986592Y-120421185D01*
X212973512Y-120446742D01*
X212890609Y-120570814D01*
X212890602Y-120570827D01*
X212830264Y-120716498D01*
X212830261Y-120716510D01*
X212799500Y-120871153D01*
X212799500Y-121028846D01*
X212830261Y-121183489D01*
X212830264Y-121183501D01*
X212890602Y-121329172D01*
X212890609Y-121329185D01*
X212978210Y-121460288D01*
X212978213Y-121460292D01*
X213089707Y-121571786D01*
X213089711Y-121571789D01*
X213220814Y-121659390D01*
X213220827Y-121659397D01*
X213321033Y-121700903D01*
X213366503Y-121719737D01*
X213521153Y-121750499D01*
X213521156Y-121750500D01*
X213521158Y-121750500D01*
X213678844Y-121750500D01*
X213678845Y-121750499D01*
X213833497Y-121719737D01*
X213979179Y-121659394D01*
X213979185Y-121659390D01*
X214110875Y-121571398D01*
X214177553Y-121550520D01*
X214179766Y-121550500D01*
X216249903Y-121550500D01*
X216316942Y-121570185D01*
X216337583Y-121586818D01*
X216992372Y-122241608D01*
X217025857Y-122302930D01*
X217020873Y-122372622D01*
X216979001Y-122428555D01*
X216913537Y-122452972D01*
X216863737Y-122446330D01*
X216651954Y-122372224D01*
X216651953Y-122372223D01*
X216651951Y-122372223D01*
X216323397Y-122297233D01*
X216323381Y-122297231D01*
X215988508Y-122259500D01*
X215988504Y-122259500D01*
X215651496Y-122259500D01*
X215651491Y-122259500D01*
X215316618Y-122297231D01*
X215316602Y-122297233D01*
X214988046Y-122372223D01*
X214988034Y-122372227D01*
X214669945Y-122483532D01*
X214366316Y-122629752D01*
X214080962Y-122809053D01*
X213817477Y-123019174D01*
X213579174Y-123257477D01*
X213369053Y-123520962D01*
X213189752Y-123806316D01*
X213043532Y-124109945D01*
X212932227Y-124428034D01*
X212932223Y-124428046D01*
X212857233Y-124756602D01*
X212857231Y-124756618D01*
X212819500Y-125091491D01*
X212819500Y-125428508D01*
X212857231Y-125763381D01*
X212857233Y-125763397D01*
X212932223Y-126091953D01*
X212932227Y-126091965D01*
X213043532Y-126410054D01*
X213189752Y-126713683D01*
X213238234Y-126790841D01*
X213369054Y-126999039D01*
X213579175Y-127262523D01*
X213817477Y-127500825D01*
X214080961Y-127710946D01*
X214366314Y-127890246D01*
X214669949Y-128036469D01*
X214908848Y-128120063D01*
X214988034Y-128147772D01*
X214988046Y-128147776D01*
X215316606Y-128222767D01*
X215651492Y-128260499D01*
X215651493Y-128260500D01*
X215651496Y-128260500D01*
X215988507Y-128260500D01*
X215988507Y-128260499D01*
X216323394Y-128222767D01*
X216651954Y-128147776D01*
X216970051Y-128036469D01*
X217273686Y-127890246D01*
X217559039Y-127710946D01*
X217822523Y-127500825D01*
X218060825Y-127262523D01*
X218270946Y-126999039D01*
X218420507Y-126761015D01*
X218472841Y-126714725D01*
X218541894Y-126704077D01*
X218605743Y-126732452D01*
X218644115Y-126790841D01*
X218649500Y-126826988D01*
X218649500Y-130663330D01*
X218649499Y-130663348D01*
X218649499Y-130829054D01*
X218649498Y-130829054D01*
X218690423Y-130981787D01*
X218695410Y-130990424D01*
X218695412Y-130990426D01*
X218769477Y-131118712D01*
X218769481Y-131118717D01*
X218888349Y-131237585D01*
X218888355Y-131237590D01*
X219776299Y-132125534D01*
X219809784Y-132186857D01*
X219804800Y-132256549D01*
X219762928Y-132312482D01*
X219757513Y-132316314D01*
X219739715Y-132328207D01*
X219739707Y-132328213D01*
X219628213Y-132439707D01*
X219628210Y-132439711D01*
X219540609Y-132570814D01*
X219540602Y-132570827D01*
X219480264Y-132716498D01*
X219480261Y-132716510D01*
X219449500Y-132871153D01*
X219449500Y-133028846D01*
X219480261Y-133183489D01*
X219480264Y-133183501D01*
X219540602Y-133329172D01*
X219540609Y-133329185D01*
X219628210Y-133460288D01*
X219628213Y-133460292D01*
X219739710Y-133571789D01*
X219870815Y-133659390D01*
X219870821Y-133659394D01*
X219894475Y-133669191D01*
X219934703Y-133696071D01*
X222026451Y-135787819D01*
X222059936Y-135849142D01*
X222054952Y-135918834D01*
X222013080Y-135974767D01*
X221947616Y-135999184D01*
X221938770Y-135999500D01*
X221871155Y-135999500D01*
X221716510Y-136030261D01*
X221716498Y-136030264D01*
X221570827Y-136090602D01*
X221570814Y-136090609D01*
X221439711Y-136178210D01*
X221439707Y-136178213D01*
X221328213Y-136289707D01*
X221328210Y-136289711D01*
X221240609Y-136420814D01*
X221240602Y-136420827D01*
X221180264Y-136566498D01*
X221180261Y-136566510D01*
X221149500Y-136721153D01*
X221149500Y-136878846D01*
X221180261Y-137033489D01*
X221180264Y-137033501D01*
X221240602Y-137179172D01*
X221240609Y-137179185D01*
X221328210Y-137310288D01*
X221328213Y-137310292D01*
X221439707Y-137421786D01*
X221439711Y-137421789D01*
X221570814Y-137509390D01*
X221570827Y-137509397D01*
X221716498Y-137569735D01*
X221716503Y-137569737D01*
X221781147Y-137582595D01*
X221871849Y-137600638D01*
X221933760Y-137633023D01*
X221935339Y-137634574D01*
X223096322Y-138795557D01*
X223106493Y-138814183D01*
X223120636Y-138830011D01*
X223122903Y-138844237D01*
X223129807Y-138856880D01*
X223128293Y-138878049D01*
X223131634Y-138899009D01*
X223125850Y-138912202D01*
X223124823Y-138926572D01*
X223112104Y-138943561D01*
X223103583Y-138963001D01*
X223088216Y-138975471D01*
X223082951Y-138982505D01*
X223077265Y-138986518D01*
X223071595Y-138990285D01*
X223070821Y-138990606D01*
X223018892Y-139025304D01*
X223018624Y-139025482D01*
X222985278Y-139035828D01*
X222952214Y-139046182D01*
X222952053Y-139046138D01*
X222951893Y-139046188D01*
X222918285Y-139036874D01*
X222884833Y-139027698D01*
X222884577Y-139027533D01*
X222884561Y-139027529D01*
X222884548Y-139027515D01*
X222881109Y-139025304D01*
X222829185Y-138990609D01*
X222829172Y-138990602D01*
X222683501Y-138930264D01*
X222683489Y-138930261D01*
X222528845Y-138899500D01*
X222528842Y-138899500D01*
X222371158Y-138899500D01*
X222371155Y-138899500D01*
X222216510Y-138930261D01*
X222216498Y-138930264D01*
X222070827Y-138990602D01*
X222070814Y-138990609D01*
X221939711Y-139078210D01*
X221939707Y-139078213D01*
X221828213Y-139189707D01*
X221828210Y-139189711D01*
X221740609Y-139320814D01*
X221740602Y-139320827D01*
X221680264Y-139466498D01*
X221680261Y-139466510D01*
X221649500Y-139621153D01*
X221649500Y-139778846D01*
X221680261Y-139933489D01*
X221680264Y-139933501D01*
X221740602Y-140079172D01*
X221740609Y-140079185D01*
X221828602Y-140210874D01*
X221849480Y-140277551D01*
X221849500Y-140279765D01*
X221849500Y-148113330D01*
X221849499Y-148113348D01*
X221849499Y-148279054D01*
X221849498Y-148279054D01*
X221889805Y-148429477D01*
X221890423Y-148431785D01*
X221900651Y-148449500D01*
X221969477Y-148568712D01*
X221969481Y-148568717D01*
X222088349Y-148687585D01*
X222088355Y-148687590D01*
X222415425Y-149014660D01*
X222448910Y-149075983D01*
X222449361Y-149078149D01*
X222480261Y-149233491D01*
X222480264Y-149233501D01*
X222540602Y-149379172D01*
X222540609Y-149379185D01*
X222628210Y-149510288D01*
X222628213Y-149510292D01*
X222739707Y-149621786D01*
X222739711Y-149621789D01*
X222870814Y-149709390D01*
X222870821Y-149709394D01*
X222926030Y-149732262D01*
X222980433Y-149776102D01*
X223002499Y-149842396D01*
X222985221Y-149910095D01*
X222966259Y-149934504D01*
X221778881Y-151121882D01*
X221717558Y-151155367D01*
X221647866Y-151150383D01*
X221612534Y-151130053D01*
X221610289Y-151128211D01*
X221479185Y-151040609D01*
X221479172Y-151040602D01*
X221333501Y-150980264D01*
X221333491Y-150980261D01*
X221178149Y-150949361D01*
X221116238Y-150916976D01*
X221114660Y-150915425D01*
X220486819Y-150287584D01*
X220453334Y-150226261D01*
X220450500Y-150199903D01*
X220450500Y-140779765D01*
X220470185Y-140712726D01*
X220471398Y-140710874D01*
X220559390Y-140579185D01*
X220559390Y-140579184D01*
X220559394Y-140579179D01*
X220619737Y-140433497D01*
X220650500Y-140278842D01*
X220650500Y-140121158D01*
X220650500Y-140121155D01*
X220650499Y-140121153D01*
X220642148Y-140079172D01*
X220619737Y-139966503D01*
X220600955Y-139921158D01*
X220559397Y-139820827D01*
X220559390Y-139820814D01*
X220471789Y-139689711D01*
X220471786Y-139689707D01*
X220360292Y-139578213D01*
X220360288Y-139578210D01*
X220229185Y-139490609D01*
X220229172Y-139490602D01*
X220083501Y-139430264D01*
X220083489Y-139430261D01*
X219928845Y-139399500D01*
X219928842Y-139399500D01*
X219824500Y-139399500D01*
X219757461Y-139379815D01*
X219711706Y-139327011D01*
X219700500Y-139275500D01*
X219700500Y-137470944D01*
X219700499Y-137470939D01*
X219699774Y-137468231D01*
X219695804Y-137453416D01*
X219659577Y-137318215D01*
X219614769Y-137240606D01*
X219580520Y-137181284D01*
X219468716Y-137069480D01*
X219468715Y-137069479D01*
X219464385Y-137065149D01*
X219464374Y-137065139D01*
X213438586Y-131039351D01*
X213427051Y-131027815D01*
X213406637Y-130990426D01*
X213393570Y-130966496D01*
X213393569Y-130966492D01*
X213393569Y-130966479D01*
X213393119Y-130915946D01*
X213400500Y-130878842D01*
X213400500Y-130721158D01*
X213400500Y-130721155D01*
X213400499Y-130721153D01*
X213400237Y-130719834D01*
X213369737Y-130566503D01*
X213351995Y-130523669D01*
X213309397Y-130420827D01*
X213309390Y-130420814D01*
X213221789Y-130289711D01*
X213221786Y-130289707D01*
X213110292Y-130178213D01*
X213110288Y-130178210D01*
X212979185Y-130090609D01*
X212979180Y-130090607D01*
X212979179Y-130090606D01*
X212955519Y-130080805D01*
X212915293Y-130053926D01*
X205296071Y-122434703D01*
X205269191Y-122394475D01*
X205259394Y-122370821D01*
X205221803Y-122314562D01*
X205171789Y-122239710D01*
X205060292Y-122128213D01*
X205060288Y-122128210D01*
X204929185Y-122040609D01*
X204929172Y-122040602D01*
X204783501Y-121980264D01*
X204783489Y-121980261D01*
X204628845Y-121949500D01*
X204628842Y-121949500D01*
X204471158Y-121949500D01*
X204471155Y-121949500D01*
X204316510Y-121980261D01*
X204316498Y-121980264D01*
X204170827Y-122040602D01*
X204170814Y-122040609D01*
X204039711Y-122128210D01*
X204039707Y-122128213D01*
X203928213Y-122239707D01*
X203928210Y-122239711D01*
X203840609Y-122370814D01*
X203840602Y-122370827D01*
X203780264Y-122516498D01*
X203780261Y-122516510D01*
X203749500Y-122671153D01*
X203749500Y-122828846D01*
X203780261Y-122983489D01*
X203780264Y-122983501D01*
X203840602Y-123129172D01*
X203840609Y-123129185D01*
X203928210Y-123260288D01*
X203928213Y-123260292D01*
X204039710Y-123371789D01*
X204170815Y-123459390D01*
X204170821Y-123459394D01*
X204194475Y-123469191D01*
X204234703Y-123496071D01*
X211327452Y-130588819D01*
X211360937Y-130650142D01*
X211355953Y-130719834D01*
X211314081Y-130775767D01*
X211248617Y-130800184D01*
X211239771Y-130800500D01*
X205801098Y-130800500D01*
X205734059Y-130780815D01*
X205713417Y-130764181D01*
X195534573Y-120585337D01*
X195501088Y-120524014D01*
X195500637Y-120521847D01*
X195489969Y-120468214D01*
X195469737Y-120366503D01*
X195463520Y-120351493D01*
X195409397Y-120220827D01*
X195409390Y-120220814D01*
X195321789Y-120089711D01*
X195321786Y-120089707D01*
X195210292Y-119978213D01*
X195210288Y-119978210D01*
X195079185Y-119890609D01*
X195079172Y-119890602D01*
X194933501Y-119830264D01*
X194933489Y-119830261D01*
X194778845Y-119799500D01*
X194778842Y-119799500D01*
X194621158Y-119799500D01*
X194621155Y-119799500D01*
X194466510Y-119830261D01*
X194466498Y-119830264D01*
X194320827Y-119890602D01*
X194320814Y-119890609D01*
X194189711Y-119978210D01*
X194189707Y-119978213D01*
X194078213Y-120089707D01*
X194078210Y-120089711D01*
X193990609Y-120220814D01*
X193990602Y-120220827D01*
X193930264Y-120366498D01*
X193930261Y-120366510D01*
X193899500Y-120521153D01*
X193899500Y-120678846D01*
X193930261Y-120833489D01*
X193930264Y-120833501D01*
X193990602Y-120979172D01*
X193990609Y-120979185D01*
X194078210Y-121110288D01*
X194078213Y-121110292D01*
X194189707Y-121221786D01*
X194189711Y-121221789D01*
X194320814Y-121309390D01*
X194320827Y-121309397D01*
X194466498Y-121369735D01*
X194466503Y-121369737D01*
X194531147Y-121382595D01*
X194621849Y-121400638D01*
X194683760Y-121433023D01*
X194685338Y-121434573D01*
X205132284Y-131881520D01*
X205132286Y-131881521D01*
X205132290Y-131881524D01*
X205214843Y-131929185D01*
X205269216Y-131960577D01*
X205421943Y-132001501D01*
X205421945Y-132001501D01*
X205587654Y-132001501D01*
X205587670Y-132001500D01*
X212650903Y-132001500D01*
X212717942Y-132021185D01*
X212738584Y-132037819D01*
X218463181Y-137762416D01*
X218496666Y-137823739D01*
X218499500Y-137850097D01*
X218499500Y-138444288D01*
X218479815Y-138511327D01*
X218427011Y-138557082D01*
X218357853Y-138567026D01*
X218294297Y-138538001D01*
X218273323Y-138513547D01*
X218272963Y-138513803D01*
X218270949Y-138510965D01*
X218265537Y-138504179D01*
X218060825Y-138247477D01*
X217822523Y-138009175D01*
X217815474Y-138003554D01*
X217755606Y-137955811D01*
X217559039Y-137799054D01*
X217321822Y-137650000D01*
X217273683Y-137619752D01*
X216970054Y-137473532D01*
X216651965Y-137362227D01*
X216651953Y-137362223D01*
X216323397Y-137287233D01*
X216323381Y-137287231D01*
X215988508Y-137249500D01*
X215988504Y-137249500D01*
X215651496Y-137249500D01*
X215651491Y-137249500D01*
X215316618Y-137287231D01*
X215316602Y-137287233D01*
X214988046Y-137362223D01*
X214988034Y-137362227D01*
X214669945Y-137473532D01*
X214366316Y-137619752D01*
X214080962Y-137799053D01*
X213817477Y-138009174D01*
X213579174Y-138247477D01*
X213369053Y-138510962D01*
X213189752Y-138796316D01*
X213043532Y-139099945D01*
X212932227Y-139418034D01*
X212932223Y-139418046D01*
X212857233Y-139746602D01*
X212857231Y-139746618D01*
X212819500Y-140081491D01*
X212819500Y-140418508D01*
X212857231Y-140753381D01*
X212857233Y-140753397D01*
X212932223Y-141081953D01*
X212932227Y-141081965D01*
X213043532Y-141400054D01*
X213189752Y-141703683D01*
X213189754Y-141703686D01*
X213369054Y-141989039D01*
X213410180Y-142040609D01*
X213568954Y-142239707D01*
X213579175Y-142252523D01*
X213817477Y-142490825D01*
X214080961Y-142700946D01*
X214366314Y-142880246D01*
X214669949Y-143026469D01*
X214908848Y-143110063D01*
X214988034Y-143137772D01*
X214988046Y-143137776D01*
X215316606Y-143212767D01*
X215651492Y-143250499D01*
X215651493Y-143250500D01*
X215800902Y-143250500D01*
X215867941Y-143270185D01*
X215913696Y-143322989D01*
X215923640Y-143392147D01*
X215894615Y-143455703D01*
X215888583Y-143462181D01*
X215469481Y-143881282D01*
X215469479Y-143881285D01*
X215431988Y-143946223D01*
X215419360Y-143968095D01*
X215390423Y-144018215D01*
X215383698Y-144043309D01*
X215378717Y-144053700D01*
X215362740Y-144071456D01*
X215350311Y-144091846D01*
X215339801Y-144096950D01*
X215331983Y-144105640D01*
X215308943Y-144111939D01*
X215287463Y-144122373D01*
X215275859Y-144120985D01*
X215264587Y-144124067D01*
X215241801Y-144116911D01*
X215218088Y-144114075D01*
X215198013Y-144103190D01*
X215197928Y-144103133D01*
X215197927Y-144103133D01*
X215197926Y-144103131D01*
X215179186Y-144090610D01*
X215179172Y-144090602D01*
X215033501Y-144030264D01*
X215033489Y-144030261D01*
X214878845Y-143999500D01*
X214878842Y-143999500D01*
X214721158Y-143999500D01*
X214721155Y-143999500D01*
X214566510Y-144030261D01*
X214566498Y-144030264D01*
X214420827Y-144090602D01*
X214420814Y-144090609D01*
X214289711Y-144178210D01*
X214289707Y-144178213D01*
X214178213Y-144289707D01*
X214178210Y-144289711D01*
X214090609Y-144420814D01*
X214090602Y-144420827D01*
X214030264Y-144566498D01*
X214030261Y-144566508D01*
X213999361Y-144721850D01*
X213966976Y-144783761D01*
X213965425Y-144785339D01*
X210019481Y-148731282D01*
X210019479Y-148731285D01*
X209973887Y-148810255D01*
X209973885Y-148810257D01*
X209940425Y-148868209D01*
X209940423Y-148868212D01*
X209920482Y-148942635D01*
X209899499Y-149020943D01*
X209899499Y-149020945D01*
X209899499Y-149189046D01*
X209899500Y-149189059D01*
X209899500Y-152370234D01*
X209879815Y-152437273D01*
X209878602Y-152439125D01*
X209790609Y-152570814D01*
X209790602Y-152570827D01*
X209730264Y-152716498D01*
X209730261Y-152716510D01*
X209699500Y-152871153D01*
X209699500Y-153025500D01*
X209679815Y-153092539D01*
X209627011Y-153138294D01*
X209575500Y-153149500D01*
X208529766Y-153149500D01*
X208462727Y-153129815D01*
X208460875Y-153128602D01*
X208329185Y-153040609D01*
X208329172Y-153040602D01*
X208183501Y-152980264D01*
X208183489Y-152980261D01*
X208028845Y-152949500D01*
X208028842Y-152949500D01*
X207871158Y-152949500D01*
X207871155Y-152949500D01*
X207716510Y-152980261D01*
X207716498Y-152980264D01*
X207570827Y-153040602D01*
X207570814Y-153040609D01*
X207439711Y-153128210D01*
X207439707Y-153128213D01*
X207328213Y-153239707D01*
X207328210Y-153239711D01*
X207240609Y-153370814D01*
X207240602Y-153370827D01*
X207180264Y-153516498D01*
X207180261Y-153516510D01*
X207149500Y-153671153D01*
X207149500Y-153675500D01*
X207129815Y-153742539D01*
X207077011Y-153788294D01*
X207025500Y-153799500D01*
X198546670Y-153799500D01*
X198546654Y-153799499D01*
X198539058Y-153799499D01*
X198380943Y-153799499D01*
X198228215Y-153840423D01*
X198228213Y-153840423D01*
X198228213Y-153840424D01*
X198091281Y-153919482D01*
X196904443Y-155106320D01*
X196843120Y-155139805D01*
X196778445Y-155136571D01*
X196729168Y-155120560D01*
X196517275Y-155087000D01*
X196517270Y-155087000D01*
X196302730Y-155087000D01*
X196302725Y-155087000D01*
X196090829Y-155120560D01*
X195886784Y-155186859D01*
X195695631Y-155284258D01*
X195596605Y-155356205D01*
X195522065Y-155410362D01*
X195522063Y-155410364D01*
X195522062Y-155410364D01*
X195370364Y-155562062D01*
X195370364Y-155562063D01*
X195370362Y-155562065D01*
X195244258Y-155735632D01*
X195241394Y-155739574D01*
X195240047Y-155738595D01*
X195193592Y-155780603D01*
X195124660Y-155792008D01*
X195060504Y-155764335D01*
X195038858Y-155739341D01*
X195038178Y-155739836D01*
X194994219Y-155679333D01*
X194994219Y-155679332D01*
X194414200Y-156259352D01*
X194405815Y-156228058D01*
X194330115Y-156096942D01*
X194223058Y-155989885D01*
X194091942Y-155914185D01*
X194060646Y-155905799D01*
X194640666Y-155325779D01*
X194640665Y-155325778D01*
X194584110Y-155284688D01*
X194393020Y-155187323D01*
X194189049Y-155121048D01*
X193977236Y-155087500D01*
X193762764Y-155087500D01*
X193550950Y-155121048D01*
X193346979Y-155187323D01*
X193155892Y-155284687D01*
X193099333Y-155325778D01*
X193099333Y-155325779D01*
X193679353Y-155905799D01*
X193648058Y-155914185D01*
X193516942Y-155989885D01*
X193409885Y-156096942D01*
X193334185Y-156228058D01*
X193325799Y-156259352D01*
X192745779Y-155679333D01*
X192745778Y-155679333D01*
X192704687Y-155735892D01*
X192607323Y-155926979D01*
X192541048Y-156130950D01*
X192507500Y-156342763D01*
X183014790Y-156342763D01*
X182977510Y-156305483D01*
X182786433Y-156166657D01*
X182739990Y-156142993D01*
X182575996Y-156059433D01*
X182351368Y-155986446D01*
X182118097Y-155949500D01*
X182118092Y-155949500D01*
X181881908Y-155949500D01*
X181881903Y-155949500D01*
X181648631Y-155986446D01*
X181424003Y-156059433D01*
X181213566Y-156166657D01*
X181129056Y-156228058D01*
X181022490Y-156305483D01*
X181022488Y-156305485D01*
X181022487Y-156305485D01*
X180855485Y-156472487D01*
X180855485Y-156472488D01*
X180855483Y-156472490D01*
X180816824Y-156525700D01*
X180716657Y-156663566D01*
X180609433Y-156874003D01*
X180536446Y-157098631D01*
X180499500Y-157331902D01*
X179750500Y-157331902D01*
X179750500Y-117331902D01*
X180499500Y-117331902D01*
X180499500Y-117568097D01*
X180536446Y-117801368D01*
X180609433Y-118025996D01*
X180706500Y-118216498D01*
X180716657Y-118236433D01*
X180855483Y-118427510D01*
X181022490Y-118594517D01*
X181213567Y-118733343D01*
X181287108Y-118770814D01*
X181424003Y-118840566D01*
X181424005Y-118840566D01*
X181424008Y-118840568D01*
X181544412Y-118879689D01*
X181648631Y-118913553D01*
X181881903Y-118950500D01*
X181881908Y-118950500D01*
X182118097Y-118950500D01*
X182351368Y-118913553D01*
X182575992Y-118840568D01*
X182786433Y-118733343D01*
X182977510Y-118594517D01*
X183144517Y-118427510D01*
X183283343Y-118236433D01*
X183390568Y-118025992D01*
X183463553Y-117801368D01*
X183473177Y-117740606D01*
X183500500Y-117568097D01*
X183500500Y-117331902D01*
X183463553Y-117098631D01*
X183390566Y-116874003D01*
X183334002Y-116762991D01*
X183283343Y-116663567D01*
X183144517Y-116472490D01*
X182977510Y-116305483D01*
X182786433Y-116166657D01*
X182575996Y-116059433D01*
X182351368Y-115986446D01*
X182118097Y-115949500D01*
X182118092Y-115949500D01*
X181881908Y-115949500D01*
X181881903Y-115949500D01*
X181648631Y-115986446D01*
X181424003Y-116059433D01*
X181213566Y-116166657D01*
X181138560Y-116221153D01*
X181022490Y-116305483D01*
X181022488Y-116305485D01*
X181022487Y-116305485D01*
X180855485Y-116472487D01*
X180855485Y-116472488D01*
X180855483Y-116472490D01*
X180811159Y-116533497D01*
X180716657Y-116663566D01*
X180609433Y-116874003D01*
X180536446Y-117098631D01*
X180499500Y-117331902D01*
X179750500Y-117331902D01*
X179750500Y-115324500D01*
X179770185Y-115257461D01*
X179822989Y-115211706D01*
X179874500Y-115200500D01*
X252326000Y-115200500D01*
X252393039Y-115220185D01*
G37*
%TD.AperFunction*%
%TD*%
M02*
