M48
; DRILL file {KiCad 9.0.0-9.0.0-2~ubuntu24.04.1} date 2025-10-20T09:35:36+0100
; FORMAT={-:-/ absolute / inch / decimal}
; #@! TF.CreationDate,2025-10-20T09:35:36+01:00
; #@! TF.GenerationSoftware,Kicad,Pcbnew,9.0.0-9.0.0-2~ubuntu24.04.1
; #@! TF.FileFunction,Plated,1,2,PTH
FMAT,2
INCH
; #@! TA.AperFunction,Plated,PTH,ViaDrill
T1C0.0118
; #@! TA.AperFunction,Plated,PTH,ComponentDrill
T2C0.0354
; #@! TA.AperFunction,Plated,PTH,ComponentDrill
T3C0.0394
; #@! TA.AperFunction,Plated,PTH,ComponentDrill
T4C0.0402
; #@! TA.AperFunction,Plated,PTH,ComponentDrill
T5C0.0429
; #@! TA.AperFunction,Plated,PTH,ComponentDrill
T6C0.0453
; #@! TA.AperFunction,Plated,PTH,ComponentDrill
T7C0.1299
%
G90
G05
T1
X7.3543Y-4.5886
X7.3661Y-4.689
X7.4055Y-4.811
X7.4055Y-4.937
X7.4193Y-4.565
X7.4547Y-5.002
X7.4744Y-4.6201
X7.4803Y-4.689
X7.5413Y-4.565
X7.5906Y-5.3327
X7.5906Y-5.437
X7.5906Y-5.5157
X7.5925Y-5.6122
X7.5984Y-5.2165
X7.6004Y-4.7461
X7.6575Y-4.563
X7.6654Y-4.748
X7.75Y-4.6575
X7.7539Y-4.563
X7.7657Y-4.9173
X7.7717Y-5.313
X7.7736Y-5.2146
X7.7795Y-5.4331
X7.7815Y-4.6909
X7.7815Y-5.5177
X7.7815Y-5.6083
X7.7992Y-4.9705
X7.8425Y-4.565
X7.8484Y-4.6969
X7.8602Y-4.7559
X7.8642Y-4.8169
X7.9272Y-4.8681
X7.939Y-4.565
X7.9547Y-5.2146
X7.9567Y-5.313
X7.9587Y-5.4173
X7.9587Y-5.6113
X7.9606Y-5.5138
X7.9902Y-4.937
X8.0374Y-4.563
X8.0394Y-4.7756
X8.0531Y-4.8327
X8.0758Y-4.7116
X8.1535Y-4.8366
X8.1614Y-5.0886
X8.187Y-6.0531
X8.1909Y-5.6752
X8.1988Y-5.9232
X8.2126Y-4.7657
X8.2146Y-4.7146
X8.2157Y-4.6646
X8.2165Y-4.6142
X8.2283Y-5.7933
X8.2421Y-4.8366
X8.2421Y-4.9272
X8.2874Y-4.6161
X8.2874Y-6.0217
X8.2894Y-4.7146
X8.2913Y-4.6654
X8.2913Y-4.7657
X8.3012Y-5.5512
X8.3327Y-5.4646
X8.3425Y-4.8366
X8.3465Y-5.0157
X8.3602Y-4.5787
X8.3622Y-5.9154
X8.3701Y-5.1496
X8.4075Y-4.7146
X8.4094Y-4.7618
X8.4232Y-5.0906
X8.435Y-5.8071
X8.4567Y-5.7008
X8.4665Y-5.1516
X8.4685Y-5.3583
X8.4744Y-4.6575
X8.502Y-5.9724
X8.5177Y-4.5689
X8.5177Y-4.6142
X8.5335Y-5.2579
X8.5531Y-5.6752
X8.561Y-5.7638
X8.5787Y-5.815
X8.5807Y-5.9449
X8.5906Y-4.6929
X8.5965Y-6.0
X8.6024Y-5.6142
X8.626Y-5.5531
X8.6299Y-5.6378
X8.6358Y-4.5945
X8.6555Y-5.5197
X8.6713Y-5.2343
X8.7028Y-5.6363
X8.7047Y-5.9744
X8.7047Y-6.2283
X8.7067Y-5.5827
X8.7087Y-5.4469
X8.7165Y-5.9311
X8.7224Y-4.7913
X8.7382Y-5.3858
X8.752Y-4.8819
X8.7579Y-5.5
X8.7618Y-4.5531
X8.7638Y-4.7126
X8.7638Y-6.063
X8.7657Y-4.7894
X8.7677Y-4.6634
X8.7894Y-5.8661
X8.7933Y-4.8839
X8.7972Y-5.5
X8.811Y-4.6909
X8.815Y-5.7874
X8.8169Y-5.8307
X8.8209Y-5.752
X8.8287Y-5.0512
X8.8307Y-5.0059
X8.8425Y-4.5834
X8.8445Y-5.7185
X8.8445Y-5.1063
X8.8445Y-5.8701
X8.8543Y-5.1496
X8.8563Y-4.8209
X8.8681Y-5.4311
X8.8681Y-6.0236
X8.8819Y-5.1909
X8.8819Y-5.8701
X8.9055Y-4.9154
X8.9094Y-4.7835
X8.9114Y-5.0
X8.9134Y-4.7264
X8.9183Y-5.247
X8.9193Y-5.8287
X8.9222Y-5.438
X8.9321Y-5.5463
X8.9331Y-5.185
X8.937Y-6.0256
X8.939Y-5.874
X8.9528Y-4.9567
X8.9547Y-4.7815
X8.9547Y-4.9921
X8.9567Y-5.5118
X8.9567Y-5.685
X8.9587Y-4.7264
X8.9843Y-5.1929
X8.9875Y-4.9042
X8.9882Y-5.6713
X8.9941Y-4.6772
X8.9986Y-5.1614
X9.0039Y-4.6201
X9.0039Y-4.998
X9.0177Y-5.4035
X9.0197Y-4.6535
X9.0256Y-6.0256
X9.0276Y-4.8681
X9.0335Y-4.5531
X9.0335Y-5.1969
X9.0413Y-5.9488
X9.0433Y-5.6201
X9.0512Y-5.4921
X9.0551Y-4.9035
X9.063Y-4.5846
X9.0787Y-4.8839
X9.0807Y-5.2028
X9.0827Y-4.9291
X9.0886Y-4.9783
X9.0906Y-4.6142
X9.0906Y-5.0276
X9.0906Y-5.0709
X9.0906Y-5.1142
X9.0906Y-5.1634
X9.1083Y-5.7638
X9.1102Y-4.872
X9.1319Y-5.8268
X9.1378Y-4.6969
X9.1398Y-4.6555
X9.1398Y-4.8287
X9.1398Y-5.7894
X9.1417Y-4.6201
X9.1555Y-6.1614
X9.1673Y-4.7008
X9.1673Y-4.815
X9.1673Y-4.8563
X9.1693Y-5.0709
X9.1713Y-4.8996
X9.1752Y-4.9587
X9.189Y-4.6496
X9.2047Y-4.6772
X9.2047Y-5.7894
X9.2126Y-4.9075
X9.2283Y-5.0177
X9.2303Y-4.6575
X9.2323Y-5.3878
X9.2559Y-6.1634
X9.2579Y-4.6791
X9.2579Y-5.3287
X9.2598Y-4.9055
X9.2618Y-5.9902
X9.2677Y-5.8287
X9.2717Y-4.8642
X9.2913Y-4.685
X9.2933Y-4.8346
X9.2933Y-4.9587
X9.313Y-5.5866
X9.3228Y-4.6949
X9.3327Y-4.8169
X9.3327Y-5.1043
X9.3425Y-5.2146
X9.3524Y-4.7264
X9.3524Y-5.502
X9.3563Y-4.8858
X9.3622Y-5.815
X9.3681Y-5.7283
X9.3701Y-4.7972
X9.374Y-4.8327
X9.3839Y-4.7165
X9.3917Y-5.0394
X9.4055Y-4.8543
X9.4075Y-4.8268
X9.4311Y-4.7165
X9.4409Y-4.8346
X9.4705Y-4.9764
X9.4724Y-4.8071
X9.4744Y-4.7165
X9.5197Y-4.7165
X9.5197Y-4.8071
X9.5276Y-6.1732
X9.563Y-4.7185
X9.565Y-4.8071
X9.565Y-5.3071
X9.5689Y-5.1791
X9.5827Y-5.6594
X9.5866Y-5.4213
X9.622Y-4.8248
X9.624Y-4.7008
X9.6772Y-4.8248
X9.6791Y-4.7008
X9.7343Y-4.7008
X9.7343Y-4.8248
X9.7835Y-4.7008
X9.7854Y-4.8248
X9.8366Y-4.7008
X9.8406Y-4.8248
X9.8917Y-4.7008
X9.8937Y-4.8268
X9.9469Y-4.7008
X9.9508Y-4.8268
X10.0059Y-4.7008
X10.0098Y-4.8268
X10.0669Y-4.7008
X10.0689Y-4.8248
X10.1299Y-4.7008
X10.1319Y-4.8228
X10.1909Y-4.7008
X10.1909Y-4.8228
X10.248Y-4.7008
X10.25Y-4.8228
X10.3091Y-4.7008
X10.3091Y-4.8228
T2
X9.7755Y-5.1791
X9.8755Y-5.1791
T3
X8.0689Y-6.1594
X8.1476Y-6.1594
X8.2264Y-6.1594
X8.3051Y-6.1594
T4
X9.5669Y-4.9315
X9.5669Y-5.5217
T5
X9.7774Y-5.4193
X9.7774Y-5.6654
X9.8774Y-5.4193
X9.8774Y-5.6654
T6
X7.6327Y-6.1594
X7.7327Y-6.1594
X7.8327Y-6.1594
T7
X8.4969Y-4.9315
X8.4969Y-5.5217
M30
