%TF.GenerationSoftware,KiCad,Pcbnew,9.0.0-9.0.0-2~ubuntu24.04.1*%
%TF.CreationDate,2025-10-20T09:35:39+01:00*%
%TF.ProjectId,gateway_rev0,67617465-7761-4795-9f72-6576302e6b69,REV0.0*%
%TF.SameCoordinates,Original*%
%TF.FileFunction,Legend,Top*%
%TF.FilePolarity,Positive*%
%FSLAX46Y46*%
G04 Gerber Fmt 4.6, Leading zero omitted, Abs format (unit mm)*
G04 Created by KiCad (PCBNEW 9.0.0-9.0.0-2~ubuntu24.04.1) date 2025-10-20 09:35:39*
%MOMM*%
%LPD*%
G01*
G04 APERTURE LIST*
%ADD10C,0.150000*%
%ADD11C,0.254000*%
%ADD12C,0.120000*%
%ADD13C,0.200000*%
%ADD14C,0.400000*%
%ADD15C,0.100000*%
%ADD16C,0.250000*%
G04 APERTURE END LIST*
D10*
X183163934Y-125036779D02*
X183163934Y-125370112D01*
X182640124Y-125512969D02*
X182640124Y-125036779D01*
X182640124Y-125036779D02*
X183640124Y-125036779D01*
X183640124Y-125036779D02*
X183640124Y-125512969D01*
X182640124Y-125846303D02*
X183306791Y-126370112D01*
X183306791Y-125846303D02*
X182640124Y-126370112D01*
X182640124Y-126751065D02*
X183306791Y-126751065D01*
X183640124Y-126751065D02*
X183592505Y-126703446D01*
X183592505Y-126703446D02*
X183544886Y-126751065D01*
X183544886Y-126751065D02*
X183592505Y-126798684D01*
X183592505Y-126798684D02*
X183640124Y-126751065D01*
X183640124Y-126751065D02*
X183544886Y-126751065D01*
X183306791Y-127084398D02*
X183306791Y-127465350D01*
X183640124Y-127227255D02*
X182782982Y-127227255D01*
X182782982Y-127227255D02*
X182687744Y-127274874D01*
X182687744Y-127274874D02*
X182640124Y-127370112D01*
X182640124Y-127370112D02*
X182640124Y-127465350D01*
X183592505Y-129084398D02*
X183640124Y-128989160D01*
X183640124Y-128989160D02*
X183640124Y-128846303D01*
X183640124Y-128846303D02*
X183592505Y-128703446D01*
X183592505Y-128703446D02*
X183497267Y-128608208D01*
X183497267Y-128608208D02*
X183402029Y-128560589D01*
X183402029Y-128560589D02*
X183211553Y-128512970D01*
X183211553Y-128512970D02*
X183068696Y-128512970D01*
X183068696Y-128512970D02*
X182878220Y-128560589D01*
X182878220Y-128560589D02*
X182782982Y-128608208D01*
X182782982Y-128608208D02*
X182687744Y-128703446D01*
X182687744Y-128703446D02*
X182640124Y-128846303D01*
X182640124Y-128846303D02*
X182640124Y-128941541D01*
X182640124Y-128941541D02*
X182687744Y-129084398D01*
X182687744Y-129084398D02*
X182735363Y-129132017D01*
X182735363Y-129132017D02*
X183068696Y-129132017D01*
X183068696Y-129132017D02*
X183068696Y-128941541D01*
X183306791Y-129989160D02*
X182640124Y-129989160D01*
X183306791Y-129560589D02*
X182782982Y-129560589D01*
X182782982Y-129560589D02*
X182687744Y-129608208D01*
X182687744Y-129608208D02*
X182640124Y-129703446D01*
X182640124Y-129703446D02*
X182640124Y-129846303D01*
X182640124Y-129846303D02*
X182687744Y-129941541D01*
X182687744Y-129941541D02*
X182735363Y-129989160D01*
X182640124Y-130893922D02*
X183163934Y-130893922D01*
X183163934Y-130893922D02*
X183259172Y-130846303D01*
X183259172Y-130846303D02*
X183306791Y-130751065D01*
X183306791Y-130751065D02*
X183306791Y-130560589D01*
X183306791Y-130560589D02*
X183259172Y-130465351D01*
X182687744Y-130893922D02*
X182640124Y-130798684D01*
X182640124Y-130798684D02*
X182640124Y-130560589D01*
X182640124Y-130560589D02*
X182687744Y-130465351D01*
X182687744Y-130465351D02*
X182782982Y-130417732D01*
X182782982Y-130417732D02*
X182878220Y-130417732D01*
X182878220Y-130417732D02*
X182973458Y-130465351D01*
X182973458Y-130465351D02*
X183021077Y-130560589D01*
X183021077Y-130560589D02*
X183021077Y-130798684D01*
X183021077Y-130798684D02*
X183068696Y-130893922D01*
X182640124Y-131370113D02*
X183306791Y-131370113D01*
X183116315Y-131370113D02*
X183211553Y-131417732D01*
X183211553Y-131417732D02*
X183259172Y-131465351D01*
X183259172Y-131465351D02*
X183306791Y-131560589D01*
X183306791Y-131560589D02*
X183306791Y-131655827D01*
X182640124Y-132417732D02*
X183640124Y-132417732D01*
X182687744Y-132417732D02*
X182640124Y-132322494D01*
X182640124Y-132322494D02*
X182640124Y-132132018D01*
X182640124Y-132132018D02*
X182687744Y-132036780D01*
X182687744Y-132036780D02*
X182735363Y-131989161D01*
X182735363Y-131989161D02*
X182830601Y-131941542D01*
X182830601Y-131941542D02*
X183116315Y-131941542D01*
X183116315Y-131941542D02*
X183211553Y-131989161D01*
X183211553Y-131989161D02*
X183259172Y-132036780D01*
X183259172Y-132036780D02*
X183306791Y-132132018D01*
X183306791Y-132132018D02*
X183306791Y-132322494D01*
X183306791Y-132322494D02*
X183259172Y-132417732D01*
X182640124Y-132893923D02*
X183306791Y-132893923D01*
X183640124Y-132893923D02*
X183592505Y-132846304D01*
X183592505Y-132846304D02*
X183544886Y-132893923D01*
X183544886Y-132893923D02*
X183592505Y-132941542D01*
X183592505Y-132941542D02*
X183640124Y-132893923D01*
X183640124Y-132893923D02*
X183544886Y-132893923D01*
X182640124Y-133798684D02*
X183163934Y-133798684D01*
X183163934Y-133798684D02*
X183259172Y-133751065D01*
X183259172Y-133751065D02*
X183306791Y-133655827D01*
X183306791Y-133655827D02*
X183306791Y-133465351D01*
X183306791Y-133465351D02*
X183259172Y-133370113D01*
X182687744Y-133798684D02*
X182640124Y-133703446D01*
X182640124Y-133703446D02*
X182640124Y-133465351D01*
X182640124Y-133465351D02*
X182687744Y-133370113D01*
X182687744Y-133370113D02*
X182782982Y-133322494D01*
X182782982Y-133322494D02*
X182878220Y-133322494D01*
X182878220Y-133322494D02*
X182973458Y-133370113D01*
X182973458Y-133370113D02*
X183021077Y-133465351D01*
X183021077Y-133465351D02*
X183021077Y-133703446D01*
X183021077Y-133703446D02*
X183068696Y-133798684D01*
X183306791Y-134274875D02*
X182640124Y-134274875D01*
X183211553Y-134274875D02*
X183259172Y-134322494D01*
X183259172Y-134322494D02*
X183306791Y-134417732D01*
X183306791Y-134417732D02*
X183306791Y-134560589D01*
X183306791Y-134560589D02*
X183259172Y-134655827D01*
X183259172Y-134655827D02*
X183163934Y-134703446D01*
X183163934Y-134703446D02*
X182640124Y-134703446D01*
X183021077Y-135941542D02*
X183021077Y-136703447D01*
X183592505Y-138465351D02*
X183640124Y-138370113D01*
X183640124Y-138370113D02*
X183640124Y-138227256D01*
X183640124Y-138227256D02*
X183592505Y-138084399D01*
X183592505Y-138084399D02*
X183497267Y-137989161D01*
X183497267Y-137989161D02*
X183402029Y-137941542D01*
X183402029Y-137941542D02*
X183211553Y-137893923D01*
X183211553Y-137893923D02*
X183068696Y-137893923D01*
X183068696Y-137893923D02*
X182878220Y-137941542D01*
X182878220Y-137941542D02*
X182782982Y-137989161D01*
X182782982Y-137989161D02*
X182687744Y-138084399D01*
X182687744Y-138084399D02*
X182640124Y-138227256D01*
X182640124Y-138227256D02*
X182640124Y-138322494D01*
X182640124Y-138322494D02*
X182687744Y-138465351D01*
X182687744Y-138465351D02*
X182735363Y-138512970D01*
X182735363Y-138512970D02*
X183068696Y-138512970D01*
X183068696Y-138512970D02*
X183068696Y-138322494D01*
X182640124Y-139370113D02*
X183163934Y-139370113D01*
X183163934Y-139370113D02*
X183259172Y-139322494D01*
X183259172Y-139322494D02*
X183306791Y-139227256D01*
X183306791Y-139227256D02*
X183306791Y-139036780D01*
X183306791Y-139036780D02*
X183259172Y-138941542D01*
X182687744Y-139370113D02*
X182640124Y-139274875D01*
X182640124Y-139274875D02*
X182640124Y-139036780D01*
X182640124Y-139036780D02*
X182687744Y-138941542D01*
X182687744Y-138941542D02*
X182782982Y-138893923D01*
X182782982Y-138893923D02*
X182878220Y-138893923D01*
X182878220Y-138893923D02*
X182973458Y-138941542D01*
X182973458Y-138941542D02*
X183021077Y-139036780D01*
X183021077Y-139036780D02*
X183021077Y-139274875D01*
X183021077Y-139274875D02*
X183068696Y-139370113D01*
X183306791Y-139703447D02*
X183306791Y-140084399D01*
X183640124Y-139846304D02*
X182782982Y-139846304D01*
X182782982Y-139846304D02*
X182687744Y-139893923D01*
X182687744Y-139893923D02*
X182640124Y-139989161D01*
X182640124Y-139989161D02*
X182640124Y-140084399D01*
X182687744Y-140798685D02*
X182640124Y-140703447D01*
X182640124Y-140703447D02*
X182640124Y-140512971D01*
X182640124Y-140512971D02*
X182687744Y-140417733D01*
X182687744Y-140417733D02*
X182782982Y-140370114D01*
X182782982Y-140370114D02*
X183163934Y-140370114D01*
X183163934Y-140370114D02*
X183259172Y-140417733D01*
X183259172Y-140417733D02*
X183306791Y-140512971D01*
X183306791Y-140512971D02*
X183306791Y-140703447D01*
X183306791Y-140703447D02*
X183259172Y-140798685D01*
X183259172Y-140798685D02*
X183163934Y-140846304D01*
X183163934Y-140846304D02*
X183068696Y-140846304D01*
X183068696Y-140846304D02*
X182973458Y-140370114D01*
X183306791Y-141179638D02*
X182640124Y-141370114D01*
X182640124Y-141370114D02*
X183116315Y-141560590D01*
X183116315Y-141560590D02*
X182640124Y-141751066D01*
X182640124Y-141751066D02*
X183306791Y-141941542D01*
X182640124Y-142751066D02*
X183163934Y-142751066D01*
X183163934Y-142751066D02*
X183259172Y-142703447D01*
X183259172Y-142703447D02*
X183306791Y-142608209D01*
X183306791Y-142608209D02*
X183306791Y-142417733D01*
X183306791Y-142417733D02*
X183259172Y-142322495D01*
X182687744Y-142751066D02*
X182640124Y-142655828D01*
X182640124Y-142655828D02*
X182640124Y-142417733D01*
X182640124Y-142417733D02*
X182687744Y-142322495D01*
X182687744Y-142322495D02*
X182782982Y-142274876D01*
X182782982Y-142274876D02*
X182878220Y-142274876D01*
X182878220Y-142274876D02*
X182973458Y-142322495D01*
X182973458Y-142322495D02*
X183021077Y-142417733D01*
X183021077Y-142417733D02*
X183021077Y-142655828D01*
X183021077Y-142655828D02*
X183068696Y-142751066D01*
X183306791Y-143132019D02*
X182640124Y-143370114D01*
X183306791Y-143608209D02*
X182640124Y-143370114D01*
X182640124Y-143370114D02*
X182402029Y-143274876D01*
X182402029Y-143274876D02*
X182354410Y-143227257D01*
X182354410Y-143227257D02*
X182306791Y-143132019D01*
X182640124Y-145322495D02*
X183116315Y-144989162D01*
X182640124Y-144751067D02*
X183640124Y-144751067D01*
X183640124Y-144751067D02*
X183640124Y-145132019D01*
X183640124Y-145132019D02*
X183592505Y-145227257D01*
X183592505Y-145227257D02*
X183544886Y-145274876D01*
X183544886Y-145274876D02*
X183449648Y-145322495D01*
X183449648Y-145322495D02*
X183306791Y-145322495D01*
X183306791Y-145322495D02*
X183211553Y-145274876D01*
X183211553Y-145274876D02*
X183163934Y-145227257D01*
X183163934Y-145227257D02*
X183116315Y-145132019D01*
X183116315Y-145132019D02*
X183116315Y-144751067D01*
X183163934Y-145751067D02*
X183163934Y-146084400D01*
X182640124Y-146227257D02*
X182640124Y-145751067D01*
X182640124Y-145751067D02*
X183640124Y-145751067D01*
X183640124Y-145751067D02*
X183640124Y-146227257D01*
X183640124Y-146512972D02*
X182640124Y-146846305D01*
X182640124Y-146846305D02*
X183640124Y-147179638D01*
X183640124Y-147703448D02*
X183640124Y-147798686D01*
X183640124Y-147798686D02*
X183592505Y-147893924D01*
X183592505Y-147893924D02*
X183544886Y-147941543D01*
X183544886Y-147941543D02*
X183449648Y-147989162D01*
X183449648Y-147989162D02*
X183259172Y-148036781D01*
X183259172Y-148036781D02*
X183021077Y-148036781D01*
X183021077Y-148036781D02*
X182830601Y-147989162D01*
X182830601Y-147989162D02*
X182735363Y-147941543D01*
X182735363Y-147941543D02*
X182687744Y-147893924D01*
X182687744Y-147893924D02*
X182640124Y-147798686D01*
X182640124Y-147798686D02*
X182640124Y-147703448D01*
X182640124Y-147703448D02*
X182687744Y-147608210D01*
X182687744Y-147608210D02*
X182735363Y-147560591D01*
X182735363Y-147560591D02*
X182830601Y-147512972D01*
X182830601Y-147512972D02*
X183021077Y-147465353D01*
X183021077Y-147465353D02*
X183259172Y-147465353D01*
X183259172Y-147465353D02*
X183449648Y-147512972D01*
X183449648Y-147512972D02*
X183544886Y-147560591D01*
X183544886Y-147560591D02*
X183592505Y-147608210D01*
X183592505Y-147608210D02*
X183640124Y-147703448D01*
X182735363Y-148465353D02*
X182687744Y-148512972D01*
X182687744Y-148512972D02*
X182640124Y-148465353D01*
X182640124Y-148465353D02*
X182687744Y-148417734D01*
X182687744Y-148417734D02*
X182735363Y-148465353D01*
X182735363Y-148465353D02*
X182640124Y-148465353D01*
X183640124Y-149132019D02*
X183640124Y-149227257D01*
X183640124Y-149227257D02*
X183592505Y-149322495D01*
X183592505Y-149322495D02*
X183544886Y-149370114D01*
X183544886Y-149370114D02*
X183449648Y-149417733D01*
X183449648Y-149417733D02*
X183259172Y-149465352D01*
X183259172Y-149465352D02*
X183021077Y-149465352D01*
X183021077Y-149465352D02*
X182830601Y-149417733D01*
X182830601Y-149417733D02*
X182735363Y-149370114D01*
X182735363Y-149370114D02*
X182687744Y-149322495D01*
X182687744Y-149322495D02*
X182640124Y-149227257D01*
X182640124Y-149227257D02*
X182640124Y-149132019D01*
X182640124Y-149132019D02*
X182687744Y-149036781D01*
X182687744Y-149036781D02*
X182735363Y-148989162D01*
X182735363Y-148989162D02*
X182830601Y-148941543D01*
X182830601Y-148941543D02*
X183021077Y-148893924D01*
X183021077Y-148893924D02*
X183259172Y-148893924D01*
X183259172Y-148893924D02*
X183449648Y-148941543D01*
X183449648Y-148941543D02*
X183544886Y-148989162D01*
X183544886Y-148989162D02*
X183592505Y-149036781D01*
X183592505Y-149036781D02*
X183640124Y-149132019D01*
X181030180Y-125036779D02*
X182030180Y-125036779D01*
X182030180Y-125036779D02*
X181030180Y-125608207D01*
X181030180Y-125608207D02*
X182030180Y-125608207D01*
X181030180Y-126084398D02*
X182030180Y-126084398D01*
X182030180Y-126084398D02*
X182030180Y-126465350D01*
X182030180Y-126465350D02*
X181982561Y-126560588D01*
X181982561Y-126560588D02*
X181934942Y-126608207D01*
X181934942Y-126608207D02*
X181839704Y-126655826D01*
X181839704Y-126655826D02*
X181696847Y-126655826D01*
X181696847Y-126655826D02*
X181601609Y-126608207D01*
X181601609Y-126608207D02*
X181553990Y-126560588D01*
X181553990Y-126560588D02*
X181506371Y-126465350D01*
X181506371Y-126465350D02*
X181506371Y-126084398D01*
X182030180Y-126989160D02*
X181030180Y-127655826D01*
X182030180Y-127655826D02*
X181030180Y-126989160D01*
X181696847Y-128465350D02*
X181030180Y-128465350D01*
X182077800Y-128227255D02*
X181363514Y-127989160D01*
X181363514Y-127989160D02*
X181363514Y-128608207D01*
X182030180Y-128989160D02*
X181220657Y-128989160D01*
X181220657Y-128989160D02*
X181125419Y-129036779D01*
X181125419Y-129036779D02*
X181077800Y-129084398D01*
X181077800Y-129084398D02*
X181030180Y-129179636D01*
X181030180Y-129179636D02*
X181030180Y-129370112D01*
X181030180Y-129370112D02*
X181077800Y-129465350D01*
X181077800Y-129465350D02*
X181125419Y-129512969D01*
X181125419Y-129512969D02*
X181220657Y-129560588D01*
X181220657Y-129560588D02*
X182030180Y-129560588D01*
X181934942Y-130751065D02*
X181982561Y-130798684D01*
X181982561Y-130798684D02*
X182030180Y-130893922D01*
X182030180Y-130893922D02*
X182030180Y-131132017D01*
X182030180Y-131132017D02*
X181982561Y-131227255D01*
X181982561Y-131227255D02*
X181934942Y-131274874D01*
X181934942Y-131274874D02*
X181839704Y-131322493D01*
X181839704Y-131322493D02*
X181744466Y-131322493D01*
X181744466Y-131322493D02*
X181601609Y-131274874D01*
X181601609Y-131274874D02*
X181030180Y-130703446D01*
X181030180Y-130703446D02*
X181030180Y-131322493D01*
X182030180Y-131941541D02*
X182030180Y-132036779D01*
X182030180Y-132036779D02*
X181982561Y-132132017D01*
X181982561Y-132132017D02*
X181934942Y-132179636D01*
X181934942Y-132179636D02*
X181839704Y-132227255D01*
X181839704Y-132227255D02*
X181649228Y-132274874D01*
X181649228Y-132274874D02*
X181411133Y-132274874D01*
X181411133Y-132274874D02*
X181220657Y-132227255D01*
X181220657Y-132227255D02*
X181125419Y-132179636D01*
X181125419Y-132179636D02*
X181077800Y-132132017D01*
X181077800Y-132132017D02*
X181030180Y-132036779D01*
X181030180Y-132036779D02*
X181030180Y-131941541D01*
X181030180Y-131941541D02*
X181077800Y-131846303D01*
X181077800Y-131846303D02*
X181125419Y-131798684D01*
X181125419Y-131798684D02*
X181220657Y-131751065D01*
X181220657Y-131751065D02*
X181411133Y-131703446D01*
X181411133Y-131703446D02*
X181649228Y-131703446D01*
X181649228Y-131703446D02*
X181839704Y-131751065D01*
X181839704Y-131751065D02*
X181934942Y-131798684D01*
X181934942Y-131798684D02*
X181982561Y-131846303D01*
X181982561Y-131846303D02*
X182030180Y-131941541D01*
X181934942Y-132655827D02*
X181982561Y-132703446D01*
X181982561Y-132703446D02*
X182030180Y-132798684D01*
X182030180Y-132798684D02*
X182030180Y-133036779D01*
X182030180Y-133036779D02*
X181982561Y-133132017D01*
X181982561Y-133132017D02*
X181934942Y-133179636D01*
X181934942Y-133179636D02*
X181839704Y-133227255D01*
X181839704Y-133227255D02*
X181744466Y-133227255D01*
X181744466Y-133227255D02*
X181601609Y-133179636D01*
X181601609Y-133179636D02*
X181030180Y-132608208D01*
X181030180Y-132608208D02*
X181030180Y-133227255D01*
X182030180Y-134132017D02*
X182030180Y-133655827D01*
X182030180Y-133655827D02*
X181553990Y-133608208D01*
X181553990Y-133608208D02*
X181601609Y-133655827D01*
X181601609Y-133655827D02*
X181649228Y-133751065D01*
X181649228Y-133751065D02*
X181649228Y-133989160D01*
X181649228Y-133989160D02*
X181601609Y-134084398D01*
X181601609Y-134084398D02*
X181553990Y-134132017D01*
X181553990Y-134132017D02*
X181458752Y-134179636D01*
X181458752Y-134179636D02*
X181220657Y-134179636D01*
X181220657Y-134179636D02*
X181125419Y-134132017D01*
X181125419Y-134132017D02*
X181077800Y-134084398D01*
X181077800Y-134084398D02*
X181030180Y-133989160D01*
X181030180Y-133989160D02*
X181030180Y-133751065D01*
X181030180Y-133751065D02*
X181077800Y-133655827D01*
X181077800Y-133655827D02*
X181125419Y-133608208D01*
X222222142Y-118859580D02*
X222174523Y-118907200D01*
X222174523Y-118907200D02*
X222031666Y-118954819D01*
X222031666Y-118954819D02*
X221936428Y-118954819D01*
X221936428Y-118954819D02*
X221793571Y-118907200D01*
X221793571Y-118907200D02*
X221698333Y-118811961D01*
X221698333Y-118811961D02*
X221650714Y-118716723D01*
X221650714Y-118716723D02*
X221603095Y-118526247D01*
X221603095Y-118526247D02*
X221603095Y-118383390D01*
X221603095Y-118383390D02*
X221650714Y-118192914D01*
X221650714Y-118192914D02*
X221698333Y-118097676D01*
X221698333Y-118097676D02*
X221793571Y-118002438D01*
X221793571Y-118002438D02*
X221936428Y-117954819D01*
X221936428Y-117954819D02*
X222031666Y-117954819D01*
X222031666Y-117954819D02*
X222174523Y-118002438D01*
X222174523Y-118002438D02*
X222222142Y-118050057D01*
X223174523Y-118954819D02*
X222603095Y-118954819D01*
X222888809Y-118954819D02*
X222888809Y-117954819D01*
X222888809Y-117954819D02*
X222793571Y-118097676D01*
X222793571Y-118097676D02*
X222698333Y-118192914D01*
X222698333Y-118192914D02*
X222603095Y-118240533D01*
X223507857Y-117954819D02*
X224126904Y-117954819D01*
X224126904Y-117954819D02*
X223793571Y-118335771D01*
X223793571Y-118335771D02*
X223936428Y-118335771D01*
X223936428Y-118335771D02*
X224031666Y-118383390D01*
X224031666Y-118383390D02*
X224079285Y-118431009D01*
X224079285Y-118431009D02*
X224126904Y-118526247D01*
X224126904Y-118526247D02*
X224126904Y-118764342D01*
X224126904Y-118764342D02*
X224079285Y-118859580D01*
X224079285Y-118859580D02*
X224031666Y-118907200D01*
X224031666Y-118907200D02*
X223936428Y-118954819D01*
X223936428Y-118954819D02*
X223650714Y-118954819D01*
X223650714Y-118954819D02*
X223555476Y-118907200D01*
X223555476Y-118907200D02*
X223507857Y-118859580D01*
D11*
X229479047Y-133195270D02*
X229358095Y-133134794D01*
X229358095Y-133134794D02*
X229237142Y-133013842D01*
X229237142Y-133013842D02*
X229055714Y-132832413D01*
X229055714Y-132832413D02*
X228934761Y-132771937D01*
X228934761Y-132771937D02*
X228813809Y-132771937D01*
X228874285Y-133074318D02*
X228753333Y-133013842D01*
X228753333Y-133013842D02*
X228632380Y-132892889D01*
X228632380Y-132892889D02*
X228571904Y-132650984D01*
X228571904Y-132650984D02*
X228571904Y-132227651D01*
X228571904Y-132227651D02*
X228632380Y-131985746D01*
X228632380Y-131985746D02*
X228753333Y-131864794D01*
X228753333Y-131864794D02*
X228874285Y-131804318D01*
X228874285Y-131804318D02*
X229116190Y-131804318D01*
X229116190Y-131804318D02*
X229237142Y-131864794D01*
X229237142Y-131864794D02*
X229358095Y-131985746D01*
X229358095Y-131985746D02*
X229418571Y-132227651D01*
X229418571Y-132227651D02*
X229418571Y-132650984D01*
X229418571Y-132650984D02*
X229358095Y-132892889D01*
X229358095Y-132892889D02*
X229237142Y-133013842D01*
X229237142Y-133013842D02*
X229116190Y-133074318D01*
X229116190Y-133074318D02*
X228874285Y-133074318D01*
X230628095Y-133074318D02*
X229902380Y-133074318D01*
X230265237Y-133074318D02*
X230265237Y-131804318D01*
X230265237Y-131804318D02*
X230144285Y-131985746D01*
X230144285Y-131985746D02*
X230023333Y-132106699D01*
X230023333Y-132106699D02*
X229902380Y-132167175D01*
D10*
X230457142Y-116704819D02*
X230123809Y-116228628D01*
X229885714Y-116704819D02*
X229885714Y-115704819D01*
X229885714Y-115704819D02*
X230266666Y-115704819D01*
X230266666Y-115704819D02*
X230361904Y-115752438D01*
X230361904Y-115752438D02*
X230409523Y-115800057D01*
X230409523Y-115800057D02*
X230457142Y-115895295D01*
X230457142Y-115895295D02*
X230457142Y-116038152D01*
X230457142Y-116038152D02*
X230409523Y-116133390D01*
X230409523Y-116133390D02*
X230361904Y-116181009D01*
X230361904Y-116181009D02*
X230266666Y-116228628D01*
X230266666Y-116228628D02*
X229885714Y-116228628D01*
X231409523Y-116704819D02*
X230838095Y-116704819D01*
X231123809Y-116704819D02*
X231123809Y-115704819D01*
X231123809Y-115704819D02*
X231028571Y-115847676D01*
X231028571Y-115847676D02*
X230933333Y-115942914D01*
X230933333Y-115942914D02*
X230838095Y-115990533D01*
X231742857Y-115704819D02*
X232361904Y-115704819D01*
X232361904Y-115704819D02*
X232028571Y-116085771D01*
X232028571Y-116085771D02*
X232171428Y-116085771D01*
X232171428Y-116085771D02*
X232266666Y-116133390D01*
X232266666Y-116133390D02*
X232314285Y-116181009D01*
X232314285Y-116181009D02*
X232361904Y-116276247D01*
X232361904Y-116276247D02*
X232361904Y-116514342D01*
X232361904Y-116514342D02*
X232314285Y-116609580D01*
X232314285Y-116609580D02*
X232266666Y-116657200D01*
X232266666Y-116657200D02*
X232171428Y-116704819D01*
X232171428Y-116704819D02*
X231885714Y-116704819D01*
X231885714Y-116704819D02*
X231790476Y-116657200D01*
X231790476Y-116657200D02*
X231742857Y-116609580D01*
D11*
X214398237Y-135179318D02*
X214398237Y-133909318D01*
X215728714Y-135058365D02*
X215668238Y-135118842D01*
X215668238Y-135118842D02*
X215486809Y-135179318D01*
X215486809Y-135179318D02*
X215365857Y-135179318D01*
X215365857Y-135179318D02*
X215184428Y-135118842D01*
X215184428Y-135118842D02*
X215063476Y-134997889D01*
X215063476Y-134997889D02*
X215002999Y-134876937D01*
X215002999Y-134876937D02*
X214942523Y-134635032D01*
X214942523Y-134635032D02*
X214942523Y-134453603D01*
X214942523Y-134453603D02*
X215002999Y-134211699D01*
X215002999Y-134211699D02*
X215063476Y-134090746D01*
X215063476Y-134090746D02*
X215184428Y-133969794D01*
X215184428Y-133969794D02*
X215365857Y-133909318D01*
X215365857Y-133909318D02*
X215486809Y-133909318D01*
X215486809Y-133909318D02*
X215668238Y-133969794D01*
X215668238Y-133969794D02*
X215728714Y-134030270D01*
X216817285Y-134332651D02*
X216817285Y-135179318D01*
X216514904Y-133848842D02*
X216212523Y-134755984D01*
X216212523Y-134755984D02*
X216998714Y-134755984D01*
X208410237Y-123584318D02*
X208410237Y-122314318D01*
X209740714Y-123463365D02*
X209680238Y-123523842D01*
X209680238Y-123523842D02*
X209498809Y-123584318D01*
X209498809Y-123584318D02*
X209377857Y-123584318D01*
X209377857Y-123584318D02*
X209196428Y-123523842D01*
X209196428Y-123523842D02*
X209075476Y-123402889D01*
X209075476Y-123402889D02*
X209014999Y-123281937D01*
X209014999Y-123281937D02*
X208954523Y-123040032D01*
X208954523Y-123040032D02*
X208954523Y-122858603D01*
X208954523Y-122858603D02*
X209014999Y-122616699D01*
X209014999Y-122616699D02*
X209075476Y-122495746D01*
X209075476Y-122495746D02*
X209196428Y-122374794D01*
X209196428Y-122374794D02*
X209377857Y-122314318D01*
X209377857Y-122314318D02*
X209498809Y-122314318D01*
X209498809Y-122314318D02*
X209680238Y-122374794D01*
X209680238Y-122374794D02*
X209740714Y-122435270D01*
X210889761Y-122314318D02*
X210284999Y-122314318D01*
X210284999Y-122314318D02*
X210224523Y-122919080D01*
X210224523Y-122919080D02*
X210284999Y-122858603D01*
X210284999Y-122858603D02*
X210405952Y-122798127D01*
X210405952Y-122798127D02*
X210708333Y-122798127D01*
X210708333Y-122798127D02*
X210829285Y-122858603D01*
X210829285Y-122858603D02*
X210889761Y-122919080D01*
X210889761Y-122919080D02*
X210950238Y-123040032D01*
X210950238Y-123040032D02*
X210950238Y-123342413D01*
X210950238Y-123342413D02*
X210889761Y-123463365D01*
X210889761Y-123463365D02*
X210829285Y-123523842D01*
X210829285Y-123523842D02*
X210708333Y-123584318D01*
X210708333Y-123584318D02*
X210405952Y-123584318D01*
X210405952Y-123584318D02*
X210284999Y-123523842D01*
X210284999Y-123523842D02*
X210224523Y-123463365D01*
D10*
X236324580Y-125469047D02*
X236372200Y-125516666D01*
X236372200Y-125516666D02*
X236419819Y-125659523D01*
X236419819Y-125659523D02*
X236419819Y-125754761D01*
X236419819Y-125754761D02*
X236372200Y-125897618D01*
X236372200Y-125897618D02*
X236276961Y-125992856D01*
X236276961Y-125992856D02*
X236181723Y-126040475D01*
X236181723Y-126040475D02*
X235991247Y-126088094D01*
X235991247Y-126088094D02*
X235848390Y-126088094D01*
X235848390Y-126088094D02*
X235657914Y-126040475D01*
X235657914Y-126040475D02*
X235562676Y-125992856D01*
X235562676Y-125992856D02*
X235467438Y-125897618D01*
X235467438Y-125897618D02*
X235419819Y-125754761D01*
X235419819Y-125754761D02*
X235419819Y-125659523D01*
X235419819Y-125659523D02*
X235467438Y-125516666D01*
X235467438Y-125516666D02*
X235515057Y-125469047D01*
X236419819Y-124516666D02*
X236419819Y-125088094D01*
X236419819Y-124802380D02*
X235419819Y-124802380D01*
X235419819Y-124802380D02*
X235562676Y-124897618D01*
X235562676Y-124897618D02*
X235657914Y-124992856D01*
X235657914Y-124992856D02*
X235705533Y-125088094D01*
X235515057Y-124135713D02*
X235467438Y-124088094D01*
X235467438Y-124088094D02*
X235419819Y-123992856D01*
X235419819Y-123992856D02*
X235419819Y-123754761D01*
X235419819Y-123754761D02*
X235467438Y-123659523D01*
X235467438Y-123659523D02*
X235515057Y-123611904D01*
X235515057Y-123611904D02*
X235610295Y-123564285D01*
X235610295Y-123564285D02*
X235705533Y-123564285D01*
X235705533Y-123564285D02*
X235848390Y-123611904D01*
X235848390Y-123611904D02*
X236419819Y-124183332D01*
X236419819Y-124183332D02*
X236419819Y-123564285D01*
X235515057Y-123183332D02*
X235467438Y-123135713D01*
X235467438Y-123135713D02*
X235419819Y-123040475D01*
X235419819Y-123040475D02*
X235419819Y-122802380D01*
X235419819Y-122802380D02*
X235467438Y-122707142D01*
X235467438Y-122707142D02*
X235515057Y-122659523D01*
X235515057Y-122659523D02*
X235610295Y-122611904D01*
X235610295Y-122611904D02*
X235705533Y-122611904D01*
X235705533Y-122611904D02*
X235848390Y-122659523D01*
X235848390Y-122659523D02*
X236419819Y-123230951D01*
X236419819Y-123230951D02*
X236419819Y-122611904D01*
X222857142Y-116559580D02*
X222809523Y-116607200D01*
X222809523Y-116607200D02*
X222666666Y-116654819D01*
X222666666Y-116654819D02*
X222571428Y-116654819D01*
X222571428Y-116654819D02*
X222428571Y-116607200D01*
X222428571Y-116607200D02*
X222333333Y-116511961D01*
X222333333Y-116511961D02*
X222285714Y-116416723D01*
X222285714Y-116416723D02*
X222238095Y-116226247D01*
X222238095Y-116226247D02*
X222238095Y-116083390D01*
X222238095Y-116083390D02*
X222285714Y-115892914D01*
X222285714Y-115892914D02*
X222333333Y-115797676D01*
X222333333Y-115797676D02*
X222428571Y-115702438D01*
X222428571Y-115702438D02*
X222571428Y-115654819D01*
X222571428Y-115654819D02*
X222666666Y-115654819D01*
X222666666Y-115654819D02*
X222809523Y-115702438D01*
X222809523Y-115702438D02*
X222857142Y-115750057D01*
X223809523Y-116654819D02*
X223238095Y-116654819D01*
X223523809Y-116654819D02*
X223523809Y-115654819D01*
X223523809Y-115654819D02*
X223428571Y-115797676D01*
X223428571Y-115797676D02*
X223333333Y-115892914D01*
X223333333Y-115892914D02*
X223238095Y-115940533D01*
X224190476Y-115750057D02*
X224238095Y-115702438D01*
X224238095Y-115702438D02*
X224333333Y-115654819D01*
X224333333Y-115654819D02*
X224571428Y-115654819D01*
X224571428Y-115654819D02*
X224666666Y-115702438D01*
X224666666Y-115702438D02*
X224714285Y-115750057D01*
X224714285Y-115750057D02*
X224761904Y-115845295D01*
X224761904Y-115845295D02*
X224761904Y-115940533D01*
X224761904Y-115940533D02*
X224714285Y-116083390D01*
X224714285Y-116083390D02*
X224142857Y-116654819D01*
X224142857Y-116654819D02*
X224761904Y-116654819D01*
X210457142Y-138054819D02*
X210123809Y-137578628D01*
X209885714Y-138054819D02*
X209885714Y-137054819D01*
X209885714Y-137054819D02*
X210266666Y-137054819D01*
X210266666Y-137054819D02*
X210361904Y-137102438D01*
X210361904Y-137102438D02*
X210409523Y-137150057D01*
X210409523Y-137150057D02*
X210457142Y-137245295D01*
X210457142Y-137245295D02*
X210457142Y-137388152D01*
X210457142Y-137388152D02*
X210409523Y-137483390D01*
X210409523Y-137483390D02*
X210361904Y-137531009D01*
X210361904Y-137531009D02*
X210266666Y-137578628D01*
X210266666Y-137578628D02*
X209885714Y-137578628D01*
X210838095Y-137150057D02*
X210885714Y-137102438D01*
X210885714Y-137102438D02*
X210980952Y-137054819D01*
X210980952Y-137054819D02*
X211219047Y-137054819D01*
X211219047Y-137054819D02*
X211314285Y-137102438D01*
X211314285Y-137102438D02*
X211361904Y-137150057D01*
X211361904Y-137150057D02*
X211409523Y-137245295D01*
X211409523Y-137245295D02*
X211409523Y-137340533D01*
X211409523Y-137340533D02*
X211361904Y-137483390D01*
X211361904Y-137483390D02*
X210790476Y-138054819D01*
X210790476Y-138054819D02*
X211409523Y-138054819D01*
X212028571Y-137054819D02*
X212123809Y-137054819D01*
X212123809Y-137054819D02*
X212219047Y-137102438D01*
X212219047Y-137102438D02*
X212266666Y-137150057D01*
X212266666Y-137150057D02*
X212314285Y-137245295D01*
X212314285Y-137245295D02*
X212361904Y-137435771D01*
X212361904Y-137435771D02*
X212361904Y-137673866D01*
X212361904Y-137673866D02*
X212314285Y-137864342D01*
X212314285Y-137864342D02*
X212266666Y-137959580D01*
X212266666Y-137959580D02*
X212219047Y-138007200D01*
X212219047Y-138007200D02*
X212123809Y-138054819D01*
X212123809Y-138054819D02*
X212028571Y-138054819D01*
X212028571Y-138054819D02*
X211933333Y-138007200D01*
X211933333Y-138007200D02*
X211885714Y-137959580D01*
X211885714Y-137959580D02*
X211838095Y-137864342D01*
X211838095Y-137864342D02*
X211790476Y-137673866D01*
X211790476Y-137673866D02*
X211790476Y-137435771D01*
X211790476Y-137435771D02*
X211838095Y-137245295D01*
X211838095Y-137245295D02*
X211885714Y-137150057D01*
X211885714Y-137150057D02*
X211933333Y-137102438D01*
X211933333Y-137102438D02*
X212028571Y-137054819D01*
X216283333Y-116459580D02*
X216235714Y-116507200D01*
X216235714Y-116507200D02*
X216092857Y-116554819D01*
X216092857Y-116554819D02*
X215997619Y-116554819D01*
X215997619Y-116554819D02*
X215854762Y-116507200D01*
X215854762Y-116507200D02*
X215759524Y-116411961D01*
X215759524Y-116411961D02*
X215711905Y-116316723D01*
X215711905Y-116316723D02*
X215664286Y-116126247D01*
X215664286Y-116126247D02*
X215664286Y-115983390D01*
X215664286Y-115983390D02*
X215711905Y-115792914D01*
X215711905Y-115792914D02*
X215759524Y-115697676D01*
X215759524Y-115697676D02*
X215854762Y-115602438D01*
X215854762Y-115602438D02*
X215997619Y-115554819D01*
X215997619Y-115554819D02*
X216092857Y-115554819D01*
X216092857Y-115554819D02*
X216235714Y-115602438D01*
X216235714Y-115602438D02*
X216283333Y-115650057D01*
X216616667Y-115554819D02*
X217283333Y-115554819D01*
X217283333Y-115554819D02*
X216854762Y-116554819D01*
X189057142Y-116634819D02*
X188723809Y-116158628D01*
X188485714Y-116634819D02*
X188485714Y-115634819D01*
X188485714Y-115634819D02*
X188866666Y-115634819D01*
X188866666Y-115634819D02*
X188961904Y-115682438D01*
X188961904Y-115682438D02*
X189009523Y-115730057D01*
X189009523Y-115730057D02*
X189057142Y-115825295D01*
X189057142Y-115825295D02*
X189057142Y-115968152D01*
X189057142Y-115968152D02*
X189009523Y-116063390D01*
X189009523Y-116063390D02*
X188961904Y-116111009D01*
X188961904Y-116111009D02*
X188866666Y-116158628D01*
X188866666Y-116158628D02*
X188485714Y-116158628D01*
X190009523Y-116634819D02*
X189438095Y-116634819D01*
X189723809Y-116634819D02*
X189723809Y-115634819D01*
X189723809Y-115634819D02*
X189628571Y-115777676D01*
X189628571Y-115777676D02*
X189533333Y-115872914D01*
X189533333Y-115872914D02*
X189438095Y-115920533D01*
X190914285Y-115634819D02*
X190438095Y-115634819D01*
X190438095Y-115634819D02*
X190390476Y-116111009D01*
X190390476Y-116111009D02*
X190438095Y-116063390D01*
X190438095Y-116063390D02*
X190533333Y-116015771D01*
X190533333Y-116015771D02*
X190771428Y-116015771D01*
X190771428Y-116015771D02*
X190866666Y-116063390D01*
X190866666Y-116063390D02*
X190914285Y-116111009D01*
X190914285Y-116111009D02*
X190961904Y-116206247D01*
X190961904Y-116206247D02*
X190961904Y-116444342D01*
X190961904Y-116444342D02*
X190914285Y-116539580D01*
X190914285Y-116539580D02*
X190866666Y-116587200D01*
X190866666Y-116587200D02*
X190771428Y-116634819D01*
X190771428Y-116634819D02*
X190533333Y-116634819D01*
X190533333Y-116634819D02*
X190438095Y-116587200D01*
X190438095Y-116587200D02*
X190390476Y-116539580D01*
X234574580Y-127169047D02*
X234622200Y-127216666D01*
X234622200Y-127216666D02*
X234669819Y-127359523D01*
X234669819Y-127359523D02*
X234669819Y-127454761D01*
X234669819Y-127454761D02*
X234622200Y-127597618D01*
X234622200Y-127597618D02*
X234526961Y-127692856D01*
X234526961Y-127692856D02*
X234431723Y-127740475D01*
X234431723Y-127740475D02*
X234241247Y-127788094D01*
X234241247Y-127788094D02*
X234098390Y-127788094D01*
X234098390Y-127788094D02*
X233907914Y-127740475D01*
X233907914Y-127740475D02*
X233812676Y-127692856D01*
X233812676Y-127692856D02*
X233717438Y-127597618D01*
X233717438Y-127597618D02*
X233669819Y-127454761D01*
X233669819Y-127454761D02*
X233669819Y-127359523D01*
X233669819Y-127359523D02*
X233717438Y-127216666D01*
X233717438Y-127216666D02*
X233765057Y-127169047D01*
X234669819Y-126216666D02*
X234669819Y-126788094D01*
X234669819Y-126502380D02*
X233669819Y-126502380D01*
X233669819Y-126502380D02*
X233812676Y-126597618D01*
X233812676Y-126597618D02*
X233907914Y-126692856D01*
X233907914Y-126692856D02*
X233955533Y-126788094D01*
X233765057Y-125835713D02*
X233717438Y-125788094D01*
X233717438Y-125788094D02*
X233669819Y-125692856D01*
X233669819Y-125692856D02*
X233669819Y-125454761D01*
X233669819Y-125454761D02*
X233717438Y-125359523D01*
X233717438Y-125359523D02*
X233765057Y-125311904D01*
X233765057Y-125311904D02*
X233860295Y-125264285D01*
X233860295Y-125264285D02*
X233955533Y-125264285D01*
X233955533Y-125264285D02*
X234098390Y-125311904D01*
X234098390Y-125311904D02*
X234669819Y-125883332D01*
X234669819Y-125883332D02*
X234669819Y-125264285D01*
X234003152Y-124407142D02*
X234669819Y-124407142D01*
X233622200Y-124645237D02*
X234336485Y-124883332D01*
X234336485Y-124883332D02*
X234336485Y-124264285D01*
X228757142Y-125309580D02*
X228709523Y-125357200D01*
X228709523Y-125357200D02*
X228566666Y-125404819D01*
X228566666Y-125404819D02*
X228471428Y-125404819D01*
X228471428Y-125404819D02*
X228328571Y-125357200D01*
X228328571Y-125357200D02*
X228233333Y-125261961D01*
X228233333Y-125261961D02*
X228185714Y-125166723D01*
X228185714Y-125166723D02*
X228138095Y-124976247D01*
X228138095Y-124976247D02*
X228138095Y-124833390D01*
X228138095Y-124833390D02*
X228185714Y-124642914D01*
X228185714Y-124642914D02*
X228233333Y-124547676D01*
X228233333Y-124547676D02*
X228328571Y-124452438D01*
X228328571Y-124452438D02*
X228471428Y-124404819D01*
X228471428Y-124404819D02*
X228566666Y-124404819D01*
X228566666Y-124404819D02*
X228709523Y-124452438D01*
X228709523Y-124452438D02*
X228757142Y-124500057D01*
X229709523Y-125404819D02*
X229138095Y-125404819D01*
X229423809Y-125404819D02*
X229423809Y-124404819D01*
X229423809Y-124404819D02*
X229328571Y-124547676D01*
X229328571Y-124547676D02*
X229233333Y-124642914D01*
X229233333Y-124642914D02*
X229138095Y-124690533D01*
X230042857Y-124404819D02*
X230709523Y-124404819D01*
X230709523Y-124404819D02*
X230280952Y-125404819D01*
D11*
X224222237Y-147374318D02*
X224222237Y-146104318D01*
X225552714Y-147253365D02*
X225492238Y-147313842D01*
X225492238Y-147313842D02*
X225310809Y-147374318D01*
X225310809Y-147374318D02*
X225189857Y-147374318D01*
X225189857Y-147374318D02*
X225008428Y-147313842D01*
X225008428Y-147313842D02*
X224887476Y-147192889D01*
X224887476Y-147192889D02*
X224826999Y-147071937D01*
X224826999Y-147071937D02*
X224766523Y-146830032D01*
X224766523Y-146830032D02*
X224766523Y-146648603D01*
X224766523Y-146648603D02*
X224826999Y-146406699D01*
X224826999Y-146406699D02*
X224887476Y-146285746D01*
X224887476Y-146285746D02*
X225008428Y-146164794D01*
X225008428Y-146164794D02*
X225189857Y-146104318D01*
X225189857Y-146104318D02*
X225310809Y-146104318D01*
X225310809Y-146104318D02*
X225492238Y-146164794D01*
X225492238Y-146164794D02*
X225552714Y-146225270D01*
X226762238Y-147374318D02*
X226036523Y-147374318D01*
X226399380Y-147374318D02*
X226399380Y-146104318D01*
X226399380Y-146104318D02*
X226278428Y-146285746D01*
X226278428Y-146285746D02*
X226157476Y-146406699D01*
X226157476Y-146406699D02*
X226036523Y-146467175D01*
D10*
X216507142Y-122504819D02*
X216173809Y-122028628D01*
X215935714Y-122504819D02*
X215935714Y-121504819D01*
X215935714Y-121504819D02*
X216316666Y-121504819D01*
X216316666Y-121504819D02*
X216411904Y-121552438D01*
X216411904Y-121552438D02*
X216459523Y-121600057D01*
X216459523Y-121600057D02*
X216507142Y-121695295D01*
X216507142Y-121695295D02*
X216507142Y-121838152D01*
X216507142Y-121838152D02*
X216459523Y-121933390D01*
X216459523Y-121933390D02*
X216411904Y-121981009D01*
X216411904Y-121981009D02*
X216316666Y-122028628D01*
X216316666Y-122028628D02*
X215935714Y-122028628D01*
X217459523Y-122504819D02*
X216888095Y-122504819D01*
X217173809Y-122504819D02*
X217173809Y-121504819D01*
X217173809Y-121504819D02*
X217078571Y-121647676D01*
X217078571Y-121647676D02*
X216983333Y-121742914D01*
X216983333Y-121742914D02*
X216888095Y-121790533D01*
X217840476Y-121600057D02*
X217888095Y-121552438D01*
X217888095Y-121552438D02*
X217983333Y-121504819D01*
X217983333Y-121504819D02*
X218221428Y-121504819D01*
X218221428Y-121504819D02*
X218316666Y-121552438D01*
X218316666Y-121552438D02*
X218364285Y-121600057D01*
X218364285Y-121600057D02*
X218411904Y-121695295D01*
X218411904Y-121695295D02*
X218411904Y-121790533D01*
X218411904Y-121790533D02*
X218364285Y-121933390D01*
X218364285Y-121933390D02*
X217792857Y-122504819D01*
X217792857Y-122504819D02*
X218411904Y-122504819D01*
X242874580Y-119669047D02*
X242922200Y-119716666D01*
X242922200Y-119716666D02*
X242969819Y-119859523D01*
X242969819Y-119859523D02*
X242969819Y-119954761D01*
X242969819Y-119954761D02*
X242922200Y-120097618D01*
X242922200Y-120097618D02*
X242826961Y-120192856D01*
X242826961Y-120192856D02*
X242731723Y-120240475D01*
X242731723Y-120240475D02*
X242541247Y-120288094D01*
X242541247Y-120288094D02*
X242398390Y-120288094D01*
X242398390Y-120288094D02*
X242207914Y-120240475D01*
X242207914Y-120240475D02*
X242112676Y-120192856D01*
X242112676Y-120192856D02*
X242017438Y-120097618D01*
X242017438Y-120097618D02*
X241969819Y-119954761D01*
X241969819Y-119954761D02*
X241969819Y-119859523D01*
X241969819Y-119859523D02*
X242017438Y-119716666D01*
X242017438Y-119716666D02*
X242065057Y-119669047D01*
X242969819Y-118716666D02*
X242969819Y-119288094D01*
X242969819Y-119002380D02*
X241969819Y-119002380D01*
X241969819Y-119002380D02*
X242112676Y-119097618D01*
X242112676Y-119097618D02*
X242207914Y-119192856D01*
X242207914Y-119192856D02*
X242255533Y-119288094D01*
X242065057Y-118335713D02*
X242017438Y-118288094D01*
X242017438Y-118288094D02*
X241969819Y-118192856D01*
X241969819Y-118192856D02*
X241969819Y-117954761D01*
X241969819Y-117954761D02*
X242017438Y-117859523D01*
X242017438Y-117859523D02*
X242065057Y-117811904D01*
X242065057Y-117811904D02*
X242160295Y-117764285D01*
X242160295Y-117764285D02*
X242255533Y-117764285D01*
X242255533Y-117764285D02*
X242398390Y-117811904D01*
X242398390Y-117811904D02*
X242969819Y-118383332D01*
X242969819Y-118383332D02*
X242969819Y-117764285D01*
X241969819Y-116859523D02*
X241969819Y-117335713D01*
X241969819Y-117335713D02*
X242446009Y-117383332D01*
X242446009Y-117383332D02*
X242398390Y-117335713D01*
X242398390Y-117335713D02*
X242350771Y-117240475D01*
X242350771Y-117240475D02*
X242350771Y-117002380D01*
X242350771Y-117002380D02*
X242398390Y-116907142D01*
X242398390Y-116907142D02*
X242446009Y-116859523D01*
X242446009Y-116859523D02*
X242541247Y-116811904D01*
X242541247Y-116811904D02*
X242779342Y-116811904D01*
X242779342Y-116811904D02*
X242874580Y-116859523D01*
X242874580Y-116859523D02*
X242922200Y-116907142D01*
X242922200Y-116907142D02*
X242969819Y-117002380D01*
X242969819Y-117002380D02*
X242969819Y-117240475D01*
X242969819Y-117240475D02*
X242922200Y-117335713D01*
X242922200Y-117335713D02*
X242874580Y-117383332D01*
X222507142Y-126409580D02*
X222459523Y-126457200D01*
X222459523Y-126457200D02*
X222316666Y-126504819D01*
X222316666Y-126504819D02*
X222221428Y-126504819D01*
X222221428Y-126504819D02*
X222078571Y-126457200D01*
X222078571Y-126457200D02*
X221983333Y-126361961D01*
X221983333Y-126361961D02*
X221935714Y-126266723D01*
X221935714Y-126266723D02*
X221888095Y-126076247D01*
X221888095Y-126076247D02*
X221888095Y-125933390D01*
X221888095Y-125933390D02*
X221935714Y-125742914D01*
X221935714Y-125742914D02*
X221983333Y-125647676D01*
X221983333Y-125647676D02*
X222078571Y-125552438D01*
X222078571Y-125552438D02*
X222221428Y-125504819D01*
X222221428Y-125504819D02*
X222316666Y-125504819D01*
X222316666Y-125504819D02*
X222459523Y-125552438D01*
X222459523Y-125552438D02*
X222507142Y-125600057D01*
X223459523Y-126504819D02*
X222888095Y-126504819D01*
X223173809Y-126504819D02*
X223173809Y-125504819D01*
X223173809Y-125504819D02*
X223078571Y-125647676D01*
X223078571Y-125647676D02*
X222983333Y-125742914D01*
X222983333Y-125742914D02*
X222888095Y-125790533D01*
X224030952Y-125933390D02*
X223935714Y-125885771D01*
X223935714Y-125885771D02*
X223888095Y-125838152D01*
X223888095Y-125838152D02*
X223840476Y-125742914D01*
X223840476Y-125742914D02*
X223840476Y-125695295D01*
X223840476Y-125695295D02*
X223888095Y-125600057D01*
X223888095Y-125600057D02*
X223935714Y-125552438D01*
X223935714Y-125552438D02*
X224030952Y-125504819D01*
X224030952Y-125504819D02*
X224221428Y-125504819D01*
X224221428Y-125504819D02*
X224316666Y-125552438D01*
X224316666Y-125552438D02*
X224364285Y-125600057D01*
X224364285Y-125600057D02*
X224411904Y-125695295D01*
X224411904Y-125695295D02*
X224411904Y-125742914D01*
X224411904Y-125742914D02*
X224364285Y-125838152D01*
X224364285Y-125838152D02*
X224316666Y-125885771D01*
X224316666Y-125885771D02*
X224221428Y-125933390D01*
X224221428Y-125933390D02*
X224030952Y-125933390D01*
X224030952Y-125933390D02*
X223935714Y-125981009D01*
X223935714Y-125981009D02*
X223888095Y-126028628D01*
X223888095Y-126028628D02*
X223840476Y-126123866D01*
X223840476Y-126123866D02*
X223840476Y-126314342D01*
X223840476Y-126314342D02*
X223888095Y-126409580D01*
X223888095Y-126409580D02*
X223935714Y-126457200D01*
X223935714Y-126457200D02*
X224030952Y-126504819D01*
X224030952Y-126504819D02*
X224221428Y-126504819D01*
X224221428Y-126504819D02*
X224316666Y-126457200D01*
X224316666Y-126457200D02*
X224364285Y-126409580D01*
X224364285Y-126409580D02*
X224411904Y-126314342D01*
X224411904Y-126314342D02*
X224411904Y-126123866D01*
X224411904Y-126123866D02*
X224364285Y-126028628D01*
X224364285Y-126028628D02*
X224316666Y-125981009D01*
X224316666Y-125981009D02*
X224221428Y-125933390D01*
X233109580Y-119342857D02*
X233157200Y-119390476D01*
X233157200Y-119390476D02*
X233204819Y-119533333D01*
X233204819Y-119533333D02*
X233204819Y-119628571D01*
X233204819Y-119628571D02*
X233157200Y-119771428D01*
X233157200Y-119771428D02*
X233061961Y-119866666D01*
X233061961Y-119866666D02*
X232966723Y-119914285D01*
X232966723Y-119914285D02*
X232776247Y-119961904D01*
X232776247Y-119961904D02*
X232633390Y-119961904D01*
X232633390Y-119961904D02*
X232442914Y-119914285D01*
X232442914Y-119914285D02*
X232347676Y-119866666D01*
X232347676Y-119866666D02*
X232252438Y-119771428D01*
X232252438Y-119771428D02*
X232204819Y-119628571D01*
X232204819Y-119628571D02*
X232204819Y-119533333D01*
X232204819Y-119533333D02*
X232252438Y-119390476D01*
X232252438Y-119390476D02*
X232300057Y-119342857D01*
X233204819Y-118390476D02*
X233204819Y-118961904D01*
X233204819Y-118676190D02*
X232204819Y-118676190D01*
X232204819Y-118676190D02*
X232347676Y-118771428D01*
X232347676Y-118771428D02*
X232442914Y-118866666D01*
X232442914Y-118866666D02*
X232490533Y-118961904D01*
X232204819Y-117533333D02*
X232204819Y-117723809D01*
X232204819Y-117723809D02*
X232252438Y-117819047D01*
X232252438Y-117819047D02*
X232300057Y-117866666D01*
X232300057Y-117866666D02*
X232442914Y-117961904D01*
X232442914Y-117961904D02*
X232633390Y-118009523D01*
X232633390Y-118009523D02*
X233014342Y-118009523D01*
X233014342Y-118009523D02*
X233109580Y-117961904D01*
X233109580Y-117961904D02*
X233157200Y-117914285D01*
X233157200Y-117914285D02*
X233204819Y-117819047D01*
X233204819Y-117819047D02*
X233204819Y-117628571D01*
X233204819Y-117628571D02*
X233157200Y-117533333D01*
X233157200Y-117533333D02*
X233109580Y-117485714D01*
X233109580Y-117485714D02*
X233014342Y-117438095D01*
X233014342Y-117438095D02*
X232776247Y-117438095D01*
X232776247Y-117438095D02*
X232681009Y-117485714D01*
X232681009Y-117485714D02*
X232633390Y-117533333D01*
X232633390Y-117533333D02*
X232585771Y-117628571D01*
X232585771Y-117628571D02*
X232585771Y-117819047D01*
X232585771Y-117819047D02*
X232633390Y-117914285D01*
X232633390Y-117914285D02*
X232681009Y-117961904D01*
X232681009Y-117961904D02*
X232776247Y-118009523D01*
X233683333Y-153639580D02*
X233635714Y-153687200D01*
X233635714Y-153687200D02*
X233492857Y-153734819D01*
X233492857Y-153734819D02*
X233397619Y-153734819D01*
X233397619Y-153734819D02*
X233254762Y-153687200D01*
X233254762Y-153687200D02*
X233159524Y-153591961D01*
X233159524Y-153591961D02*
X233111905Y-153496723D01*
X233111905Y-153496723D02*
X233064286Y-153306247D01*
X233064286Y-153306247D02*
X233064286Y-153163390D01*
X233064286Y-153163390D02*
X233111905Y-152972914D01*
X233111905Y-152972914D02*
X233159524Y-152877676D01*
X233159524Y-152877676D02*
X233254762Y-152782438D01*
X233254762Y-152782438D02*
X233397619Y-152734819D01*
X233397619Y-152734819D02*
X233492857Y-152734819D01*
X233492857Y-152734819D02*
X233635714Y-152782438D01*
X233635714Y-152782438D02*
X233683333Y-152830057D01*
X234635714Y-153734819D02*
X234064286Y-153734819D01*
X234350000Y-153734819D02*
X234350000Y-152734819D01*
X234350000Y-152734819D02*
X234254762Y-152877676D01*
X234254762Y-152877676D02*
X234159524Y-152972914D01*
X234159524Y-152972914D02*
X234064286Y-153020533D01*
X234559580Y-117642857D02*
X234607200Y-117690476D01*
X234607200Y-117690476D02*
X234654819Y-117833333D01*
X234654819Y-117833333D02*
X234654819Y-117928571D01*
X234654819Y-117928571D02*
X234607200Y-118071428D01*
X234607200Y-118071428D02*
X234511961Y-118166666D01*
X234511961Y-118166666D02*
X234416723Y-118214285D01*
X234416723Y-118214285D02*
X234226247Y-118261904D01*
X234226247Y-118261904D02*
X234083390Y-118261904D01*
X234083390Y-118261904D02*
X233892914Y-118214285D01*
X233892914Y-118214285D02*
X233797676Y-118166666D01*
X233797676Y-118166666D02*
X233702438Y-118071428D01*
X233702438Y-118071428D02*
X233654819Y-117928571D01*
X233654819Y-117928571D02*
X233654819Y-117833333D01*
X233654819Y-117833333D02*
X233702438Y-117690476D01*
X233702438Y-117690476D02*
X233750057Y-117642857D01*
X234654819Y-116690476D02*
X234654819Y-117261904D01*
X234654819Y-116976190D02*
X233654819Y-116976190D01*
X233654819Y-116976190D02*
X233797676Y-117071428D01*
X233797676Y-117071428D02*
X233892914Y-117166666D01*
X233892914Y-117166666D02*
X233940533Y-117261904D01*
X233988152Y-115833333D02*
X234654819Y-115833333D01*
X233607200Y-116071428D02*
X234321485Y-116309523D01*
X234321485Y-116309523D02*
X234321485Y-115690476D01*
D11*
X228682380Y-157213842D02*
X228863809Y-157274318D01*
X228863809Y-157274318D02*
X229166190Y-157274318D01*
X229166190Y-157274318D02*
X229287142Y-157213842D01*
X229287142Y-157213842D02*
X229347618Y-157153365D01*
X229347618Y-157153365D02*
X229408095Y-157032413D01*
X229408095Y-157032413D02*
X229408095Y-156911461D01*
X229408095Y-156911461D02*
X229347618Y-156790508D01*
X229347618Y-156790508D02*
X229287142Y-156730032D01*
X229287142Y-156730032D02*
X229166190Y-156669556D01*
X229166190Y-156669556D02*
X228924285Y-156609080D01*
X228924285Y-156609080D02*
X228803333Y-156548603D01*
X228803333Y-156548603D02*
X228742856Y-156488127D01*
X228742856Y-156488127D02*
X228682380Y-156367175D01*
X228682380Y-156367175D02*
X228682380Y-156246222D01*
X228682380Y-156246222D02*
X228742856Y-156125270D01*
X228742856Y-156125270D02*
X228803333Y-156064794D01*
X228803333Y-156064794D02*
X228924285Y-156004318D01*
X228924285Y-156004318D02*
X229226666Y-156004318D01*
X229226666Y-156004318D02*
X229408095Y-156064794D01*
X230617619Y-157274318D02*
X229891904Y-157274318D01*
X230254761Y-157274318D02*
X230254761Y-156004318D01*
X230254761Y-156004318D02*
X230133809Y-156185746D01*
X230133809Y-156185746D02*
X230012857Y-156306699D01*
X230012857Y-156306699D02*
X229891904Y-156367175D01*
X216541667Y-119109080D02*
X216118333Y-119109080D01*
X216118333Y-119774318D02*
X216118333Y-118504318D01*
X216118333Y-118504318D02*
X216723095Y-118504318D01*
X217630238Y-119109080D02*
X217811666Y-119169556D01*
X217811666Y-119169556D02*
X217872143Y-119230032D01*
X217872143Y-119230032D02*
X217932619Y-119350984D01*
X217932619Y-119350984D02*
X217932619Y-119532413D01*
X217932619Y-119532413D02*
X217872143Y-119653365D01*
X217872143Y-119653365D02*
X217811666Y-119713842D01*
X217811666Y-119713842D02*
X217690714Y-119774318D01*
X217690714Y-119774318D02*
X217206904Y-119774318D01*
X217206904Y-119774318D02*
X217206904Y-118504318D01*
X217206904Y-118504318D02*
X217630238Y-118504318D01*
X217630238Y-118504318D02*
X217751190Y-118564794D01*
X217751190Y-118564794D02*
X217811666Y-118625270D01*
X217811666Y-118625270D02*
X217872143Y-118746222D01*
X217872143Y-118746222D02*
X217872143Y-118867175D01*
X217872143Y-118867175D02*
X217811666Y-118988127D01*
X217811666Y-118988127D02*
X217751190Y-119048603D01*
X217751190Y-119048603D02*
X217630238Y-119109080D01*
X217630238Y-119109080D02*
X217206904Y-119109080D01*
X219142143Y-119774318D02*
X218416428Y-119774318D01*
X218779285Y-119774318D02*
X218779285Y-118504318D01*
X218779285Y-118504318D02*
X218658333Y-118685746D01*
X218658333Y-118685746D02*
X218537381Y-118806699D01*
X218537381Y-118806699D02*
X218416428Y-118867175D01*
D10*
X244293333Y-130604819D02*
X243960000Y-130128628D01*
X243721905Y-130604819D02*
X243721905Y-129604819D01*
X243721905Y-129604819D02*
X244102857Y-129604819D01*
X244102857Y-129604819D02*
X244198095Y-129652438D01*
X244198095Y-129652438D02*
X244245714Y-129700057D01*
X244245714Y-129700057D02*
X244293333Y-129795295D01*
X244293333Y-129795295D02*
X244293333Y-129938152D01*
X244293333Y-129938152D02*
X244245714Y-130033390D01*
X244245714Y-130033390D02*
X244198095Y-130081009D01*
X244198095Y-130081009D02*
X244102857Y-130128628D01*
X244102857Y-130128628D02*
X243721905Y-130128628D01*
X244864762Y-130033390D02*
X244769524Y-129985771D01*
X244769524Y-129985771D02*
X244721905Y-129938152D01*
X244721905Y-129938152D02*
X244674286Y-129842914D01*
X244674286Y-129842914D02*
X244674286Y-129795295D01*
X244674286Y-129795295D02*
X244721905Y-129700057D01*
X244721905Y-129700057D02*
X244769524Y-129652438D01*
X244769524Y-129652438D02*
X244864762Y-129604819D01*
X244864762Y-129604819D02*
X245055238Y-129604819D01*
X245055238Y-129604819D02*
X245150476Y-129652438D01*
X245150476Y-129652438D02*
X245198095Y-129700057D01*
X245198095Y-129700057D02*
X245245714Y-129795295D01*
X245245714Y-129795295D02*
X245245714Y-129842914D01*
X245245714Y-129842914D02*
X245198095Y-129938152D01*
X245198095Y-129938152D02*
X245150476Y-129985771D01*
X245150476Y-129985771D02*
X245055238Y-130033390D01*
X245055238Y-130033390D02*
X244864762Y-130033390D01*
X244864762Y-130033390D02*
X244769524Y-130081009D01*
X244769524Y-130081009D02*
X244721905Y-130128628D01*
X244721905Y-130128628D02*
X244674286Y-130223866D01*
X244674286Y-130223866D02*
X244674286Y-130414342D01*
X244674286Y-130414342D02*
X244721905Y-130509580D01*
X244721905Y-130509580D02*
X244769524Y-130557200D01*
X244769524Y-130557200D02*
X244864762Y-130604819D01*
X244864762Y-130604819D02*
X245055238Y-130604819D01*
X245055238Y-130604819D02*
X245150476Y-130557200D01*
X245150476Y-130557200D02*
X245198095Y-130509580D01*
X245198095Y-130509580D02*
X245245714Y-130414342D01*
X245245714Y-130414342D02*
X245245714Y-130223866D01*
X245245714Y-130223866D02*
X245198095Y-130128628D01*
X245198095Y-130128628D02*
X245150476Y-130081009D01*
X245150476Y-130081009D02*
X245055238Y-130033390D01*
X209333333Y-143154819D02*
X209000000Y-142678628D01*
X208761905Y-143154819D02*
X208761905Y-142154819D01*
X208761905Y-142154819D02*
X209142857Y-142154819D01*
X209142857Y-142154819D02*
X209238095Y-142202438D01*
X209238095Y-142202438D02*
X209285714Y-142250057D01*
X209285714Y-142250057D02*
X209333333Y-142345295D01*
X209333333Y-142345295D02*
X209333333Y-142488152D01*
X209333333Y-142488152D02*
X209285714Y-142583390D01*
X209285714Y-142583390D02*
X209238095Y-142631009D01*
X209238095Y-142631009D02*
X209142857Y-142678628D01*
X209142857Y-142678628D02*
X208761905Y-142678628D01*
X210238095Y-142154819D02*
X209761905Y-142154819D01*
X209761905Y-142154819D02*
X209714286Y-142631009D01*
X209714286Y-142631009D02*
X209761905Y-142583390D01*
X209761905Y-142583390D02*
X209857143Y-142535771D01*
X209857143Y-142535771D02*
X210095238Y-142535771D01*
X210095238Y-142535771D02*
X210190476Y-142583390D01*
X210190476Y-142583390D02*
X210238095Y-142631009D01*
X210238095Y-142631009D02*
X210285714Y-142726247D01*
X210285714Y-142726247D02*
X210285714Y-142964342D01*
X210285714Y-142964342D02*
X210238095Y-143059580D01*
X210238095Y-143059580D02*
X210190476Y-143107200D01*
X210190476Y-143107200D02*
X210095238Y-143154819D01*
X210095238Y-143154819D02*
X209857143Y-143154819D01*
X209857143Y-143154819D02*
X209761905Y-143107200D01*
X209761905Y-143107200D02*
X209714286Y-143059580D01*
X216633333Y-145514580D02*
X216585714Y-145562200D01*
X216585714Y-145562200D02*
X216442857Y-145609819D01*
X216442857Y-145609819D02*
X216347619Y-145609819D01*
X216347619Y-145609819D02*
X216204762Y-145562200D01*
X216204762Y-145562200D02*
X216109524Y-145466961D01*
X216109524Y-145466961D02*
X216061905Y-145371723D01*
X216061905Y-145371723D02*
X216014286Y-145181247D01*
X216014286Y-145181247D02*
X216014286Y-145038390D01*
X216014286Y-145038390D02*
X216061905Y-144847914D01*
X216061905Y-144847914D02*
X216109524Y-144752676D01*
X216109524Y-144752676D02*
X216204762Y-144657438D01*
X216204762Y-144657438D02*
X216347619Y-144609819D01*
X216347619Y-144609819D02*
X216442857Y-144609819D01*
X216442857Y-144609819D02*
X216585714Y-144657438D01*
X216585714Y-144657438D02*
X216633333Y-144705057D01*
X216966667Y-144609819D02*
X217585714Y-144609819D01*
X217585714Y-144609819D02*
X217252381Y-144990771D01*
X217252381Y-144990771D02*
X217395238Y-144990771D01*
X217395238Y-144990771D02*
X217490476Y-145038390D01*
X217490476Y-145038390D02*
X217538095Y-145086009D01*
X217538095Y-145086009D02*
X217585714Y-145181247D01*
X217585714Y-145181247D02*
X217585714Y-145419342D01*
X217585714Y-145419342D02*
X217538095Y-145514580D01*
X217538095Y-145514580D02*
X217490476Y-145562200D01*
X217490476Y-145562200D02*
X217395238Y-145609819D01*
X217395238Y-145609819D02*
X217109524Y-145609819D01*
X217109524Y-145609819D02*
X217014286Y-145562200D01*
X217014286Y-145562200D02*
X216966667Y-145514580D01*
D11*
X188538333Y-124274318D02*
X187933571Y-124274318D01*
X187933571Y-124274318D02*
X187933571Y-123004318D01*
X188901190Y-123125270D02*
X188961666Y-123064794D01*
X188961666Y-123064794D02*
X189082619Y-123004318D01*
X189082619Y-123004318D02*
X189385000Y-123004318D01*
X189385000Y-123004318D02*
X189505952Y-123064794D01*
X189505952Y-123064794D02*
X189566428Y-123125270D01*
X189566428Y-123125270D02*
X189626905Y-123246222D01*
X189626905Y-123246222D02*
X189626905Y-123367175D01*
X189626905Y-123367175D02*
X189566428Y-123548603D01*
X189566428Y-123548603D02*
X188840714Y-124274318D01*
X188840714Y-124274318D02*
X189626905Y-124274318D01*
D10*
X236159580Y-118719047D02*
X236207200Y-118766666D01*
X236207200Y-118766666D02*
X236254819Y-118909523D01*
X236254819Y-118909523D02*
X236254819Y-119004761D01*
X236254819Y-119004761D02*
X236207200Y-119147618D01*
X236207200Y-119147618D02*
X236111961Y-119242856D01*
X236111961Y-119242856D02*
X236016723Y-119290475D01*
X236016723Y-119290475D02*
X235826247Y-119338094D01*
X235826247Y-119338094D02*
X235683390Y-119338094D01*
X235683390Y-119338094D02*
X235492914Y-119290475D01*
X235492914Y-119290475D02*
X235397676Y-119242856D01*
X235397676Y-119242856D02*
X235302438Y-119147618D01*
X235302438Y-119147618D02*
X235254819Y-119004761D01*
X235254819Y-119004761D02*
X235254819Y-118909523D01*
X235254819Y-118909523D02*
X235302438Y-118766666D01*
X235302438Y-118766666D02*
X235350057Y-118719047D01*
X236254819Y-117766666D02*
X236254819Y-118338094D01*
X236254819Y-118052380D02*
X235254819Y-118052380D01*
X235254819Y-118052380D02*
X235397676Y-118147618D01*
X235397676Y-118147618D02*
X235492914Y-118242856D01*
X235492914Y-118242856D02*
X235540533Y-118338094D01*
X235350057Y-117385713D02*
X235302438Y-117338094D01*
X235302438Y-117338094D02*
X235254819Y-117242856D01*
X235254819Y-117242856D02*
X235254819Y-117004761D01*
X235254819Y-117004761D02*
X235302438Y-116909523D01*
X235302438Y-116909523D02*
X235350057Y-116861904D01*
X235350057Y-116861904D02*
X235445295Y-116814285D01*
X235445295Y-116814285D02*
X235540533Y-116814285D01*
X235540533Y-116814285D02*
X235683390Y-116861904D01*
X235683390Y-116861904D02*
X236254819Y-117433332D01*
X236254819Y-117433332D02*
X236254819Y-116814285D01*
X236254819Y-115861904D02*
X236254819Y-116433332D01*
X236254819Y-116147618D02*
X235254819Y-116147618D01*
X235254819Y-116147618D02*
X235397676Y-116242856D01*
X235397676Y-116242856D02*
X235492914Y-116338094D01*
X235492914Y-116338094D02*
X235540533Y-116433332D01*
X240254819Y-119769047D02*
X240254819Y-120245237D01*
X240254819Y-120245237D02*
X239254819Y-120245237D01*
X240254819Y-118911904D02*
X240254819Y-119483332D01*
X240254819Y-119197618D02*
X239254819Y-119197618D01*
X239254819Y-119197618D02*
X239397676Y-119292856D01*
X239397676Y-119292856D02*
X239492914Y-119388094D01*
X239492914Y-119388094D02*
X239540533Y-119483332D01*
X239350057Y-118530951D02*
X239302438Y-118483332D01*
X239302438Y-118483332D02*
X239254819Y-118388094D01*
X239254819Y-118388094D02*
X239254819Y-118149999D01*
X239254819Y-118149999D02*
X239302438Y-118054761D01*
X239302438Y-118054761D02*
X239350057Y-118007142D01*
X239350057Y-118007142D02*
X239445295Y-117959523D01*
X239445295Y-117959523D02*
X239540533Y-117959523D01*
X239540533Y-117959523D02*
X239683390Y-118007142D01*
X239683390Y-118007142D02*
X240254819Y-118578570D01*
X240254819Y-118578570D02*
X240254819Y-117959523D01*
X239254819Y-117626189D02*
X239254819Y-117007142D01*
X239254819Y-117007142D02*
X239635771Y-117340475D01*
X239635771Y-117340475D02*
X239635771Y-117197618D01*
X239635771Y-117197618D02*
X239683390Y-117102380D01*
X239683390Y-117102380D02*
X239731009Y-117054761D01*
X239731009Y-117054761D02*
X239826247Y-117007142D01*
X239826247Y-117007142D02*
X240064342Y-117007142D01*
X240064342Y-117007142D02*
X240159580Y-117054761D01*
X240159580Y-117054761D02*
X240207200Y-117102380D01*
X240207200Y-117102380D02*
X240254819Y-117197618D01*
X240254819Y-117197618D02*
X240254819Y-117483332D01*
X240254819Y-117483332D02*
X240207200Y-117578570D01*
X240207200Y-117578570D02*
X240159580Y-117626189D01*
D11*
X231060238Y-130769556D02*
X231060238Y-131374318D01*
X230636905Y-130104318D02*
X231060238Y-130769556D01*
X231060238Y-130769556D02*
X231483572Y-130104318D01*
X232572143Y-131374318D02*
X231846428Y-131374318D01*
X232209285Y-131374318D02*
X232209285Y-130104318D01*
X232209285Y-130104318D02*
X232088333Y-130285746D01*
X232088333Y-130285746D02*
X231967381Y-130406699D01*
X231967381Y-130406699D02*
X231846428Y-130467175D01*
D10*
X236823333Y-153104819D02*
X236490000Y-152628628D01*
X236251905Y-153104819D02*
X236251905Y-152104819D01*
X236251905Y-152104819D02*
X236632857Y-152104819D01*
X236632857Y-152104819D02*
X236728095Y-152152438D01*
X236728095Y-152152438D02*
X236775714Y-152200057D01*
X236775714Y-152200057D02*
X236823333Y-152295295D01*
X236823333Y-152295295D02*
X236823333Y-152438152D01*
X236823333Y-152438152D02*
X236775714Y-152533390D01*
X236775714Y-152533390D02*
X236728095Y-152581009D01*
X236728095Y-152581009D02*
X236632857Y-152628628D01*
X236632857Y-152628628D02*
X236251905Y-152628628D01*
X237156667Y-152104819D02*
X237775714Y-152104819D01*
X237775714Y-152104819D02*
X237442381Y-152485771D01*
X237442381Y-152485771D02*
X237585238Y-152485771D01*
X237585238Y-152485771D02*
X237680476Y-152533390D01*
X237680476Y-152533390D02*
X237728095Y-152581009D01*
X237728095Y-152581009D02*
X237775714Y-152676247D01*
X237775714Y-152676247D02*
X237775714Y-152914342D01*
X237775714Y-152914342D02*
X237728095Y-153009580D01*
X237728095Y-153009580D02*
X237680476Y-153057200D01*
X237680476Y-153057200D02*
X237585238Y-153104819D01*
X237585238Y-153104819D02*
X237299524Y-153104819D01*
X237299524Y-153104819D02*
X237204286Y-153057200D01*
X237204286Y-153057200D02*
X237156667Y-153009580D01*
X208757142Y-134204819D02*
X208423809Y-133728628D01*
X208185714Y-134204819D02*
X208185714Y-133204819D01*
X208185714Y-133204819D02*
X208566666Y-133204819D01*
X208566666Y-133204819D02*
X208661904Y-133252438D01*
X208661904Y-133252438D02*
X208709523Y-133300057D01*
X208709523Y-133300057D02*
X208757142Y-133395295D01*
X208757142Y-133395295D02*
X208757142Y-133538152D01*
X208757142Y-133538152D02*
X208709523Y-133633390D01*
X208709523Y-133633390D02*
X208661904Y-133681009D01*
X208661904Y-133681009D02*
X208566666Y-133728628D01*
X208566666Y-133728628D02*
X208185714Y-133728628D01*
X209709523Y-134204819D02*
X209138095Y-134204819D01*
X209423809Y-134204819D02*
X209423809Y-133204819D01*
X209423809Y-133204819D02*
X209328571Y-133347676D01*
X209328571Y-133347676D02*
X209233333Y-133442914D01*
X209233333Y-133442914D02*
X209138095Y-133490533D01*
X210185714Y-134204819D02*
X210376190Y-134204819D01*
X210376190Y-134204819D02*
X210471428Y-134157200D01*
X210471428Y-134157200D02*
X210519047Y-134109580D01*
X210519047Y-134109580D02*
X210614285Y-133966723D01*
X210614285Y-133966723D02*
X210661904Y-133776247D01*
X210661904Y-133776247D02*
X210661904Y-133395295D01*
X210661904Y-133395295D02*
X210614285Y-133300057D01*
X210614285Y-133300057D02*
X210566666Y-133252438D01*
X210566666Y-133252438D02*
X210471428Y-133204819D01*
X210471428Y-133204819D02*
X210280952Y-133204819D01*
X210280952Y-133204819D02*
X210185714Y-133252438D01*
X210185714Y-133252438D02*
X210138095Y-133300057D01*
X210138095Y-133300057D02*
X210090476Y-133395295D01*
X210090476Y-133395295D02*
X210090476Y-133633390D01*
X210090476Y-133633390D02*
X210138095Y-133728628D01*
X210138095Y-133728628D02*
X210185714Y-133776247D01*
X210185714Y-133776247D02*
X210280952Y-133823866D01*
X210280952Y-133823866D02*
X210471428Y-133823866D01*
X210471428Y-133823866D02*
X210566666Y-133776247D01*
X210566666Y-133776247D02*
X210614285Y-133728628D01*
X210614285Y-133728628D02*
X210661904Y-133633390D01*
X213527142Y-131409580D02*
X213479523Y-131457200D01*
X213479523Y-131457200D02*
X213336666Y-131504819D01*
X213336666Y-131504819D02*
X213241428Y-131504819D01*
X213241428Y-131504819D02*
X213098571Y-131457200D01*
X213098571Y-131457200D02*
X213003333Y-131361961D01*
X213003333Y-131361961D02*
X212955714Y-131266723D01*
X212955714Y-131266723D02*
X212908095Y-131076247D01*
X212908095Y-131076247D02*
X212908095Y-130933390D01*
X212908095Y-130933390D02*
X212955714Y-130742914D01*
X212955714Y-130742914D02*
X213003333Y-130647676D01*
X213003333Y-130647676D02*
X213098571Y-130552438D01*
X213098571Y-130552438D02*
X213241428Y-130504819D01*
X213241428Y-130504819D02*
X213336666Y-130504819D01*
X213336666Y-130504819D02*
X213479523Y-130552438D01*
X213479523Y-130552438D02*
X213527142Y-130600057D01*
X213908095Y-130600057D02*
X213955714Y-130552438D01*
X213955714Y-130552438D02*
X214050952Y-130504819D01*
X214050952Y-130504819D02*
X214289047Y-130504819D01*
X214289047Y-130504819D02*
X214384285Y-130552438D01*
X214384285Y-130552438D02*
X214431904Y-130600057D01*
X214431904Y-130600057D02*
X214479523Y-130695295D01*
X214479523Y-130695295D02*
X214479523Y-130790533D01*
X214479523Y-130790533D02*
X214431904Y-130933390D01*
X214431904Y-130933390D02*
X213860476Y-131504819D01*
X213860476Y-131504819D02*
X214479523Y-131504819D01*
X215336666Y-130838152D02*
X215336666Y-131504819D01*
X215098571Y-130457200D02*
X214860476Y-131171485D01*
X214860476Y-131171485D02*
X215479523Y-131171485D01*
X231954819Y-125869047D02*
X231954819Y-126345237D01*
X231954819Y-126345237D02*
X230954819Y-126345237D01*
X231954819Y-125011904D02*
X231954819Y-125583332D01*
X231954819Y-125297618D02*
X230954819Y-125297618D01*
X230954819Y-125297618D02*
X231097676Y-125392856D01*
X231097676Y-125392856D02*
X231192914Y-125488094D01*
X231192914Y-125488094D02*
X231240533Y-125583332D01*
X231050057Y-124630951D02*
X231002438Y-124583332D01*
X231002438Y-124583332D02*
X230954819Y-124488094D01*
X230954819Y-124488094D02*
X230954819Y-124249999D01*
X230954819Y-124249999D02*
X231002438Y-124154761D01*
X231002438Y-124154761D02*
X231050057Y-124107142D01*
X231050057Y-124107142D02*
X231145295Y-124059523D01*
X231145295Y-124059523D02*
X231240533Y-124059523D01*
X231240533Y-124059523D02*
X231383390Y-124107142D01*
X231383390Y-124107142D02*
X231954819Y-124678570D01*
X231954819Y-124678570D02*
X231954819Y-124059523D01*
X231954819Y-123107142D02*
X231954819Y-123678570D01*
X231954819Y-123392856D02*
X230954819Y-123392856D01*
X230954819Y-123392856D02*
X231097676Y-123488094D01*
X231097676Y-123488094D02*
X231192914Y-123583332D01*
X231192914Y-123583332D02*
X231240533Y-123678570D01*
X181238095Y-154404819D02*
X181238095Y-153404819D01*
X181238095Y-153881009D02*
X181809523Y-153881009D01*
X181809523Y-154404819D02*
X181809523Y-153404819D01*
X182238095Y-153500057D02*
X182285714Y-153452438D01*
X182285714Y-153452438D02*
X182380952Y-153404819D01*
X182380952Y-153404819D02*
X182619047Y-153404819D01*
X182619047Y-153404819D02*
X182714285Y-153452438D01*
X182714285Y-153452438D02*
X182761904Y-153500057D01*
X182761904Y-153500057D02*
X182809523Y-153595295D01*
X182809523Y-153595295D02*
X182809523Y-153690533D01*
X182809523Y-153690533D02*
X182761904Y-153833390D01*
X182761904Y-153833390D02*
X182190476Y-154404819D01*
X182190476Y-154404819D02*
X182809523Y-154404819D01*
X226273333Y-136074819D02*
X225940000Y-135598628D01*
X225701905Y-136074819D02*
X225701905Y-135074819D01*
X225701905Y-135074819D02*
X226082857Y-135074819D01*
X226082857Y-135074819D02*
X226178095Y-135122438D01*
X226178095Y-135122438D02*
X226225714Y-135170057D01*
X226225714Y-135170057D02*
X226273333Y-135265295D01*
X226273333Y-135265295D02*
X226273333Y-135408152D01*
X226273333Y-135408152D02*
X226225714Y-135503390D01*
X226225714Y-135503390D02*
X226178095Y-135551009D01*
X226178095Y-135551009D02*
X226082857Y-135598628D01*
X226082857Y-135598628D02*
X225701905Y-135598628D01*
X227225714Y-136074819D02*
X226654286Y-136074819D01*
X226940000Y-136074819D02*
X226940000Y-135074819D01*
X226940000Y-135074819D02*
X226844762Y-135217676D01*
X226844762Y-135217676D02*
X226749524Y-135312914D01*
X226749524Y-135312914D02*
X226654286Y-135360533D01*
X230757142Y-127609580D02*
X230709523Y-127657200D01*
X230709523Y-127657200D02*
X230566666Y-127704819D01*
X230566666Y-127704819D02*
X230471428Y-127704819D01*
X230471428Y-127704819D02*
X230328571Y-127657200D01*
X230328571Y-127657200D02*
X230233333Y-127561961D01*
X230233333Y-127561961D02*
X230185714Y-127466723D01*
X230185714Y-127466723D02*
X230138095Y-127276247D01*
X230138095Y-127276247D02*
X230138095Y-127133390D01*
X230138095Y-127133390D02*
X230185714Y-126942914D01*
X230185714Y-126942914D02*
X230233333Y-126847676D01*
X230233333Y-126847676D02*
X230328571Y-126752438D01*
X230328571Y-126752438D02*
X230471428Y-126704819D01*
X230471428Y-126704819D02*
X230566666Y-126704819D01*
X230566666Y-126704819D02*
X230709523Y-126752438D01*
X230709523Y-126752438D02*
X230757142Y-126800057D01*
X231709523Y-127704819D02*
X231138095Y-127704819D01*
X231423809Y-127704819D02*
X231423809Y-126704819D01*
X231423809Y-126704819D02*
X231328571Y-126847676D01*
X231328571Y-126847676D02*
X231233333Y-126942914D01*
X231233333Y-126942914D02*
X231138095Y-126990533D01*
X232185714Y-127704819D02*
X232376190Y-127704819D01*
X232376190Y-127704819D02*
X232471428Y-127657200D01*
X232471428Y-127657200D02*
X232519047Y-127609580D01*
X232519047Y-127609580D02*
X232614285Y-127466723D01*
X232614285Y-127466723D02*
X232661904Y-127276247D01*
X232661904Y-127276247D02*
X232661904Y-126895295D01*
X232661904Y-126895295D02*
X232614285Y-126800057D01*
X232614285Y-126800057D02*
X232566666Y-126752438D01*
X232566666Y-126752438D02*
X232471428Y-126704819D01*
X232471428Y-126704819D02*
X232280952Y-126704819D01*
X232280952Y-126704819D02*
X232185714Y-126752438D01*
X232185714Y-126752438D02*
X232138095Y-126800057D01*
X232138095Y-126800057D02*
X232090476Y-126895295D01*
X232090476Y-126895295D02*
X232090476Y-127133390D01*
X232090476Y-127133390D02*
X232138095Y-127228628D01*
X232138095Y-127228628D02*
X232185714Y-127276247D01*
X232185714Y-127276247D02*
X232280952Y-127323866D01*
X232280952Y-127323866D02*
X232471428Y-127323866D01*
X232471428Y-127323866D02*
X232566666Y-127276247D01*
X232566666Y-127276247D02*
X232614285Y-127228628D01*
X232614285Y-127228628D02*
X232661904Y-127133390D01*
D11*
X212904318Y-157123332D02*
X213811461Y-157123332D01*
X213811461Y-157123332D02*
X213992889Y-157183809D01*
X213992889Y-157183809D02*
X214113842Y-157304761D01*
X214113842Y-157304761D02*
X214174318Y-157486190D01*
X214174318Y-157486190D02*
X214174318Y-157607142D01*
X214174318Y-155853332D02*
X214174318Y-156579047D01*
X214174318Y-156216190D02*
X212904318Y-156216190D01*
X212904318Y-156216190D02*
X213085746Y-156337142D01*
X213085746Y-156337142D02*
X213206699Y-156458094D01*
X213206699Y-156458094D02*
X213267175Y-156579047D01*
D10*
X237509580Y-118719047D02*
X237557200Y-118766666D01*
X237557200Y-118766666D02*
X237604819Y-118909523D01*
X237604819Y-118909523D02*
X237604819Y-119004761D01*
X237604819Y-119004761D02*
X237557200Y-119147618D01*
X237557200Y-119147618D02*
X237461961Y-119242856D01*
X237461961Y-119242856D02*
X237366723Y-119290475D01*
X237366723Y-119290475D02*
X237176247Y-119338094D01*
X237176247Y-119338094D02*
X237033390Y-119338094D01*
X237033390Y-119338094D02*
X236842914Y-119290475D01*
X236842914Y-119290475D02*
X236747676Y-119242856D01*
X236747676Y-119242856D02*
X236652438Y-119147618D01*
X236652438Y-119147618D02*
X236604819Y-119004761D01*
X236604819Y-119004761D02*
X236604819Y-118909523D01*
X236604819Y-118909523D02*
X236652438Y-118766666D01*
X236652438Y-118766666D02*
X236700057Y-118719047D01*
X237604819Y-117766666D02*
X237604819Y-118338094D01*
X237604819Y-118052380D02*
X236604819Y-118052380D01*
X236604819Y-118052380D02*
X236747676Y-118147618D01*
X236747676Y-118147618D02*
X236842914Y-118242856D01*
X236842914Y-118242856D02*
X236890533Y-118338094D01*
X236604819Y-117433332D02*
X236604819Y-116814285D01*
X236604819Y-116814285D02*
X236985771Y-117147618D01*
X236985771Y-117147618D02*
X236985771Y-117004761D01*
X236985771Y-117004761D02*
X237033390Y-116909523D01*
X237033390Y-116909523D02*
X237081009Y-116861904D01*
X237081009Y-116861904D02*
X237176247Y-116814285D01*
X237176247Y-116814285D02*
X237414342Y-116814285D01*
X237414342Y-116814285D02*
X237509580Y-116861904D01*
X237509580Y-116861904D02*
X237557200Y-116909523D01*
X237557200Y-116909523D02*
X237604819Y-117004761D01*
X237604819Y-117004761D02*
X237604819Y-117290475D01*
X237604819Y-117290475D02*
X237557200Y-117385713D01*
X237557200Y-117385713D02*
X237509580Y-117433332D01*
X237604819Y-115861904D02*
X237604819Y-116433332D01*
X237604819Y-116147618D02*
X236604819Y-116147618D01*
X236604819Y-116147618D02*
X236747676Y-116242856D01*
X236747676Y-116242856D02*
X236842914Y-116338094D01*
X236842914Y-116338094D02*
X236890533Y-116433332D01*
X213583333Y-148254580D02*
X213535714Y-148302200D01*
X213535714Y-148302200D02*
X213392857Y-148349819D01*
X213392857Y-148349819D02*
X213297619Y-148349819D01*
X213297619Y-148349819D02*
X213154762Y-148302200D01*
X213154762Y-148302200D02*
X213059524Y-148206961D01*
X213059524Y-148206961D02*
X213011905Y-148111723D01*
X213011905Y-148111723D02*
X212964286Y-147921247D01*
X212964286Y-147921247D02*
X212964286Y-147778390D01*
X212964286Y-147778390D02*
X213011905Y-147587914D01*
X213011905Y-147587914D02*
X213059524Y-147492676D01*
X213059524Y-147492676D02*
X213154762Y-147397438D01*
X213154762Y-147397438D02*
X213297619Y-147349819D01*
X213297619Y-147349819D02*
X213392857Y-147349819D01*
X213392857Y-147349819D02*
X213535714Y-147397438D01*
X213535714Y-147397438D02*
X213583333Y-147445057D01*
X214440476Y-147349819D02*
X214250000Y-147349819D01*
X214250000Y-147349819D02*
X214154762Y-147397438D01*
X214154762Y-147397438D02*
X214107143Y-147445057D01*
X214107143Y-147445057D02*
X214011905Y-147587914D01*
X214011905Y-147587914D02*
X213964286Y-147778390D01*
X213964286Y-147778390D02*
X213964286Y-148159342D01*
X213964286Y-148159342D02*
X214011905Y-148254580D01*
X214011905Y-148254580D02*
X214059524Y-148302200D01*
X214059524Y-148302200D02*
X214154762Y-148349819D01*
X214154762Y-148349819D02*
X214345238Y-148349819D01*
X214345238Y-148349819D02*
X214440476Y-148302200D01*
X214440476Y-148302200D02*
X214488095Y-148254580D01*
X214488095Y-148254580D02*
X214535714Y-148159342D01*
X214535714Y-148159342D02*
X214535714Y-147921247D01*
X214535714Y-147921247D02*
X214488095Y-147826009D01*
X214488095Y-147826009D02*
X214440476Y-147778390D01*
X214440476Y-147778390D02*
X214345238Y-147730771D01*
X214345238Y-147730771D02*
X214154762Y-147730771D01*
X214154762Y-147730771D02*
X214059524Y-147778390D01*
X214059524Y-147778390D02*
X214011905Y-147826009D01*
X214011905Y-147826009D02*
X213964286Y-147921247D01*
X217533333Y-151354580D02*
X217485714Y-151402200D01*
X217485714Y-151402200D02*
X217342857Y-151449819D01*
X217342857Y-151449819D02*
X217247619Y-151449819D01*
X217247619Y-151449819D02*
X217104762Y-151402200D01*
X217104762Y-151402200D02*
X217009524Y-151306961D01*
X217009524Y-151306961D02*
X216961905Y-151211723D01*
X216961905Y-151211723D02*
X216914286Y-151021247D01*
X216914286Y-151021247D02*
X216914286Y-150878390D01*
X216914286Y-150878390D02*
X216961905Y-150687914D01*
X216961905Y-150687914D02*
X217009524Y-150592676D01*
X217009524Y-150592676D02*
X217104762Y-150497438D01*
X217104762Y-150497438D02*
X217247619Y-150449819D01*
X217247619Y-150449819D02*
X217342857Y-150449819D01*
X217342857Y-150449819D02*
X217485714Y-150497438D01*
X217485714Y-150497438D02*
X217533333Y-150545057D01*
X218390476Y-150783152D02*
X218390476Y-151449819D01*
X218152381Y-150402200D02*
X217914286Y-151116485D01*
X217914286Y-151116485D02*
X218533333Y-151116485D01*
X276188095Y-122204819D02*
X276188095Y-121204819D01*
X276188095Y-121681009D02*
X276759523Y-121681009D01*
X276759523Y-122204819D02*
X276759523Y-121204819D01*
X277140476Y-121204819D02*
X277759523Y-121204819D01*
X277759523Y-121204819D02*
X277426190Y-121585771D01*
X277426190Y-121585771D02*
X277569047Y-121585771D01*
X277569047Y-121585771D02*
X277664285Y-121633390D01*
X277664285Y-121633390D02*
X277711904Y-121681009D01*
X277711904Y-121681009D02*
X277759523Y-121776247D01*
X277759523Y-121776247D02*
X277759523Y-122014342D01*
X277759523Y-122014342D02*
X277711904Y-122109580D01*
X277711904Y-122109580D02*
X277664285Y-122157200D01*
X277664285Y-122157200D02*
X277569047Y-122204819D01*
X277569047Y-122204819D02*
X277283333Y-122204819D01*
X277283333Y-122204819D02*
X277188095Y-122157200D01*
X277188095Y-122157200D02*
X277140476Y-122109580D01*
X213083333Y-143154819D02*
X212750000Y-142678628D01*
X212511905Y-143154819D02*
X212511905Y-142154819D01*
X212511905Y-142154819D02*
X212892857Y-142154819D01*
X212892857Y-142154819D02*
X212988095Y-142202438D01*
X212988095Y-142202438D02*
X213035714Y-142250057D01*
X213035714Y-142250057D02*
X213083333Y-142345295D01*
X213083333Y-142345295D02*
X213083333Y-142488152D01*
X213083333Y-142488152D02*
X213035714Y-142583390D01*
X213035714Y-142583390D02*
X212988095Y-142631009D01*
X212988095Y-142631009D02*
X212892857Y-142678628D01*
X212892857Y-142678628D02*
X212511905Y-142678628D01*
X213940476Y-142154819D02*
X213750000Y-142154819D01*
X213750000Y-142154819D02*
X213654762Y-142202438D01*
X213654762Y-142202438D02*
X213607143Y-142250057D01*
X213607143Y-142250057D02*
X213511905Y-142392914D01*
X213511905Y-142392914D02*
X213464286Y-142583390D01*
X213464286Y-142583390D02*
X213464286Y-142964342D01*
X213464286Y-142964342D02*
X213511905Y-143059580D01*
X213511905Y-143059580D02*
X213559524Y-143107200D01*
X213559524Y-143107200D02*
X213654762Y-143154819D01*
X213654762Y-143154819D02*
X213845238Y-143154819D01*
X213845238Y-143154819D02*
X213940476Y-143107200D01*
X213940476Y-143107200D02*
X213988095Y-143059580D01*
X213988095Y-143059580D02*
X214035714Y-142964342D01*
X214035714Y-142964342D02*
X214035714Y-142726247D01*
X214035714Y-142726247D02*
X213988095Y-142631009D01*
X213988095Y-142631009D02*
X213940476Y-142583390D01*
X213940476Y-142583390D02*
X213845238Y-142535771D01*
X213845238Y-142535771D02*
X213654762Y-142535771D01*
X213654762Y-142535771D02*
X213559524Y-142583390D01*
X213559524Y-142583390D02*
X213511905Y-142631009D01*
X213511905Y-142631009D02*
X213464286Y-142726247D01*
X264805895Y-133005952D02*
X264805895Y-133482142D01*
X264520180Y-132910714D02*
X265520180Y-133244047D01*
X265520180Y-133244047D02*
X264520180Y-133577380D01*
X264520180Y-133910714D02*
X265520180Y-133910714D01*
X265520180Y-133910714D02*
X264520180Y-134482142D01*
X264520180Y-134482142D02*
X265520180Y-134482142D01*
X265520180Y-134815476D02*
X265520180Y-135386904D01*
X264520180Y-135101190D02*
X265520180Y-135101190D01*
X264520180Y-136244047D02*
X264520180Y-135672619D01*
X264520180Y-135958333D02*
X265520180Y-135958333D01*
X265520180Y-135958333D02*
X265377323Y-135863095D01*
X265377323Y-135863095D02*
X265282085Y-135767857D01*
X265282085Y-135767857D02*
X265234466Y-135672619D01*
X216233333Y-117709580D02*
X216185714Y-117757200D01*
X216185714Y-117757200D02*
X216042857Y-117804819D01*
X216042857Y-117804819D02*
X215947619Y-117804819D01*
X215947619Y-117804819D02*
X215804762Y-117757200D01*
X215804762Y-117757200D02*
X215709524Y-117661961D01*
X215709524Y-117661961D02*
X215661905Y-117566723D01*
X215661905Y-117566723D02*
X215614286Y-117376247D01*
X215614286Y-117376247D02*
X215614286Y-117233390D01*
X215614286Y-117233390D02*
X215661905Y-117042914D01*
X215661905Y-117042914D02*
X215709524Y-116947676D01*
X215709524Y-116947676D02*
X215804762Y-116852438D01*
X215804762Y-116852438D02*
X215947619Y-116804819D01*
X215947619Y-116804819D02*
X216042857Y-116804819D01*
X216042857Y-116804819D02*
X216185714Y-116852438D01*
X216185714Y-116852438D02*
X216233333Y-116900057D01*
X216804762Y-117233390D02*
X216709524Y-117185771D01*
X216709524Y-117185771D02*
X216661905Y-117138152D01*
X216661905Y-117138152D02*
X216614286Y-117042914D01*
X216614286Y-117042914D02*
X216614286Y-116995295D01*
X216614286Y-116995295D02*
X216661905Y-116900057D01*
X216661905Y-116900057D02*
X216709524Y-116852438D01*
X216709524Y-116852438D02*
X216804762Y-116804819D01*
X216804762Y-116804819D02*
X216995238Y-116804819D01*
X216995238Y-116804819D02*
X217090476Y-116852438D01*
X217090476Y-116852438D02*
X217138095Y-116900057D01*
X217138095Y-116900057D02*
X217185714Y-116995295D01*
X217185714Y-116995295D02*
X217185714Y-117042914D01*
X217185714Y-117042914D02*
X217138095Y-117138152D01*
X217138095Y-117138152D02*
X217090476Y-117185771D01*
X217090476Y-117185771D02*
X216995238Y-117233390D01*
X216995238Y-117233390D02*
X216804762Y-117233390D01*
X216804762Y-117233390D02*
X216709524Y-117281009D01*
X216709524Y-117281009D02*
X216661905Y-117328628D01*
X216661905Y-117328628D02*
X216614286Y-117423866D01*
X216614286Y-117423866D02*
X216614286Y-117614342D01*
X216614286Y-117614342D02*
X216661905Y-117709580D01*
X216661905Y-117709580D02*
X216709524Y-117757200D01*
X216709524Y-117757200D02*
X216804762Y-117804819D01*
X216804762Y-117804819D02*
X216995238Y-117804819D01*
X216995238Y-117804819D02*
X217090476Y-117757200D01*
X217090476Y-117757200D02*
X217138095Y-117709580D01*
X217138095Y-117709580D02*
X217185714Y-117614342D01*
X217185714Y-117614342D02*
X217185714Y-117423866D01*
X217185714Y-117423866D02*
X217138095Y-117328628D01*
X217138095Y-117328628D02*
X217090476Y-117281009D01*
X217090476Y-117281009D02*
X216995238Y-117233390D01*
X212257142Y-129709580D02*
X212209523Y-129757200D01*
X212209523Y-129757200D02*
X212066666Y-129804819D01*
X212066666Y-129804819D02*
X211971428Y-129804819D01*
X211971428Y-129804819D02*
X211828571Y-129757200D01*
X211828571Y-129757200D02*
X211733333Y-129661961D01*
X211733333Y-129661961D02*
X211685714Y-129566723D01*
X211685714Y-129566723D02*
X211638095Y-129376247D01*
X211638095Y-129376247D02*
X211638095Y-129233390D01*
X211638095Y-129233390D02*
X211685714Y-129042914D01*
X211685714Y-129042914D02*
X211733333Y-128947676D01*
X211733333Y-128947676D02*
X211828571Y-128852438D01*
X211828571Y-128852438D02*
X211971428Y-128804819D01*
X211971428Y-128804819D02*
X212066666Y-128804819D01*
X212066666Y-128804819D02*
X212209523Y-128852438D01*
X212209523Y-128852438D02*
X212257142Y-128900057D01*
X212638095Y-128900057D02*
X212685714Y-128852438D01*
X212685714Y-128852438D02*
X212780952Y-128804819D01*
X212780952Y-128804819D02*
X213019047Y-128804819D01*
X213019047Y-128804819D02*
X213114285Y-128852438D01*
X213114285Y-128852438D02*
X213161904Y-128900057D01*
X213161904Y-128900057D02*
X213209523Y-128995295D01*
X213209523Y-128995295D02*
X213209523Y-129090533D01*
X213209523Y-129090533D02*
X213161904Y-129233390D01*
X213161904Y-129233390D02*
X212590476Y-129804819D01*
X212590476Y-129804819D02*
X213209523Y-129804819D01*
X213542857Y-128804819D02*
X214161904Y-128804819D01*
X214161904Y-128804819D02*
X213828571Y-129185771D01*
X213828571Y-129185771D02*
X213971428Y-129185771D01*
X213971428Y-129185771D02*
X214066666Y-129233390D01*
X214066666Y-129233390D02*
X214114285Y-129281009D01*
X214114285Y-129281009D02*
X214161904Y-129376247D01*
X214161904Y-129376247D02*
X214161904Y-129614342D01*
X214161904Y-129614342D02*
X214114285Y-129709580D01*
X214114285Y-129709580D02*
X214066666Y-129757200D01*
X214066666Y-129757200D02*
X213971428Y-129804819D01*
X213971428Y-129804819D02*
X213685714Y-129804819D01*
X213685714Y-129804819D02*
X213590476Y-129757200D01*
X213590476Y-129757200D02*
X213542857Y-129709580D01*
X239354580Y-125419047D02*
X239402200Y-125466666D01*
X239402200Y-125466666D02*
X239449819Y-125609523D01*
X239449819Y-125609523D02*
X239449819Y-125704761D01*
X239449819Y-125704761D02*
X239402200Y-125847618D01*
X239402200Y-125847618D02*
X239306961Y-125942856D01*
X239306961Y-125942856D02*
X239211723Y-125990475D01*
X239211723Y-125990475D02*
X239021247Y-126038094D01*
X239021247Y-126038094D02*
X238878390Y-126038094D01*
X238878390Y-126038094D02*
X238687914Y-125990475D01*
X238687914Y-125990475D02*
X238592676Y-125942856D01*
X238592676Y-125942856D02*
X238497438Y-125847618D01*
X238497438Y-125847618D02*
X238449819Y-125704761D01*
X238449819Y-125704761D02*
X238449819Y-125609523D01*
X238449819Y-125609523D02*
X238497438Y-125466666D01*
X238497438Y-125466666D02*
X238545057Y-125419047D01*
X239449819Y-124466666D02*
X239449819Y-125038094D01*
X239449819Y-124752380D02*
X238449819Y-124752380D01*
X238449819Y-124752380D02*
X238592676Y-124847618D01*
X238592676Y-124847618D02*
X238687914Y-124942856D01*
X238687914Y-124942856D02*
X238735533Y-125038094D01*
X238545057Y-124085713D02*
X238497438Y-124038094D01*
X238497438Y-124038094D02*
X238449819Y-123942856D01*
X238449819Y-123942856D02*
X238449819Y-123704761D01*
X238449819Y-123704761D02*
X238497438Y-123609523D01*
X238497438Y-123609523D02*
X238545057Y-123561904D01*
X238545057Y-123561904D02*
X238640295Y-123514285D01*
X238640295Y-123514285D02*
X238735533Y-123514285D01*
X238735533Y-123514285D02*
X238878390Y-123561904D01*
X238878390Y-123561904D02*
X239449819Y-124133332D01*
X239449819Y-124133332D02*
X239449819Y-123514285D01*
X238449819Y-123180951D02*
X238449819Y-122561904D01*
X238449819Y-122561904D02*
X238830771Y-122895237D01*
X238830771Y-122895237D02*
X238830771Y-122752380D01*
X238830771Y-122752380D02*
X238878390Y-122657142D01*
X238878390Y-122657142D02*
X238926009Y-122609523D01*
X238926009Y-122609523D02*
X239021247Y-122561904D01*
X239021247Y-122561904D02*
X239259342Y-122561904D01*
X239259342Y-122561904D02*
X239354580Y-122609523D01*
X239354580Y-122609523D02*
X239402200Y-122657142D01*
X239402200Y-122657142D02*
X239449819Y-122752380D01*
X239449819Y-122752380D02*
X239449819Y-123038094D01*
X239449819Y-123038094D02*
X239402200Y-123133332D01*
X239402200Y-123133332D02*
X239354580Y-123180951D01*
X218983333Y-145859580D02*
X218935714Y-145907200D01*
X218935714Y-145907200D02*
X218792857Y-145954819D01*
X218792857Y-145954819D02*
X218697619Y-145954819D01*
X218697619Y-145954819D02*
X218554762Y-145907200D01*
X218554762Y-145907200D02*
X218459524Y-145811961D01*
X218459524Y-145811961D02*
X218411905Y-145716723D01*
X218411905Y-145716723D02*
X218364286Y-145526247D01*
X218364286Y-145526247D02*
X218364286Y-145383390D01*
X218364286Y-145383390D02*
X218411905Y-145192914D01*
X218411905Y-145192914D02*
X218459524Y-145097676D01*
X218459524Y-145097676D02*
X218554762Y-145002438D01*
X218554762Y-145002438D02*
X218697619Y-144954819D01*
X218697619Y-144954819D02*
X218792857Y-144954819D01*
X218792857Y-144954819D02*
X218935714Y-145002438D01*
X218935714Y-145002438D02*
X218983333Y-145050057D01*
X219364286Y-145050057D02*
X219411905Y-145002438D01*
X219411905Y-145002438D02*
X219507143Y-144954819D01*
X219507143Y-144954819D02*
X219745238Y-144954819D01*
X219745238Y-144954819D02*
X219840476Y-145002438D01*
X219840476Y-145002438D02*
X219888095Y-145050057D01*
X219888095Y-145050057D02*
X219935714Y-145145295D01*
X219935714Y-145145295D02*
X219935714Y-145240533D01*
X219935714Y-145240533D02*
X219888095Y-145383390D01*
X219888095Y-145383390D02*
X219316667Y-145954819D01*
X219316667Y-145954819D02*
X219935714Y-145954819D01*
X210257142Y-140554819D02*
X209923809Y-140078628D01*
X209685714Y-140554819D02*
X209685714Y-139554819D01*
X209685714Y-139554819D02*
X210066666Y-139554819D01*
X210066666Y-139554819D02*
X210161904Y-139602438D01*
X210161904Y-139602438D02*
X210209523Y-139650057D01*
X210209523Y-139650057D02*
X210257142Y-139745295D01*
X210257142Y-139745295D02*
X210257142Y-139888152D01*
X210257142Y-139888152D02*
X210209523Y-139983390D01*
X210209523Y-139983390D02*
X210161904Y-140031009D01*
X210161904Y-140031009D02*
X210066666Y-140078628D01*
X210066666Y-140078628D02*
X209685714Y-140078628D01*
X211209523Y-140554819D02*
X210638095Y-140554819D01*
X210923809Y-140554819D02*
X210923809Y-139554819D01*
X210923809Y-139554819D02*
X210828571Y-139697676D01*
X210828571Y-139697676D02*
X210733333Y-139792914D01*
X210733333Y-139792914D02*
X210638095Y-139840533D01*
X211780952Y-139983390D02*
X211685714Y-139935771D01*
X211685714Y-139935771D02*
X211638095Y-139888152D01*
X211638095Y-139888152D02*
X211590476Y-139792914D01*
X211590476Y-139792914D02*
X211590476Y-139745295D01*
X211590476Y-139745295D02*
X211638095Y-139650057D01*
X211638095Y-139650057D02*
X211685714Y-139602438D01*
X211685714Y-139602438D02*
X211780952Y-139554819D01*
X211780952Y-139554819D02*
X211971428Y-139554819D01*
X211971428Y-139554819D02*
X212066666Y-139602438D01*
X212066666Y-139602438D02*
X212114285Y-139650057D01*
X212114285Y-139650057D02*
X212161904Y-139745295D01*
X212161904Y-139745295D02*
X212161904Y-139792914D01*
X212161904Y-139792914D02*
X212114285Y-139888152D01*
X212114285Y-139888152D02*
X212066666Y-139935771D01*
X212066666Y-139935771D02*
X211971428Y-139983390D01*
X211971428Y-139983390D02*
X211780952Y-139983390D01*
X211780952Y-139983390D02*
X211685714Y-140031009D01*
X211685714Y-140031009D02*
X211638095Y-140078628D01*
X211638095Y-140078628D02*
X211590476Y-140173866D01*
X211590476Y-140173866D02*
X211590476Y-140364342D01*
X211590476Y-140364342D02*
X211638095Y-140459580D01*
X211638095Y-140459580D02*
X211685714Y-140507200D01*
X211685714Y-140507200D02*
X211780952Y-140554819D01*
X211780952Y-140554819D02*
X211971428Y-140554819D01*
X211971428Y-140554819D02*
X212066666Y-140507200D01*
X212066666Y-140507200D02*
X212114285Y-140459580D01*
X212114285Y-140459580D02*
X212161904Y-140364342D01*
X212161904Y-140364342D02*
X212161904Y-140173866D01*
X212161904Y-140173866D02*
X212114285Y-140078628D01*
X212114285Y-140078628D02*
X212066666Y-140031009D01*
X212066666Y-140031009D02*
X211971428Y-139983390D01*
X195937142Y-116684819D02*
X195603809Y-116208628D01*
X195365714Y-116684819D02*
X195365714Y-115684819D01*
X195365714Y-115684819D02*
X195746666Y-115684819D01*
X195746666Y-115684819D02*
X195841904Y-115732438D01*
X195841904Y-115732438D02*
X195889523Y-115780057D01*
X195889523Y-115780057D02*
X195937142Y-115875295D01*
X195937142Y-115875295D02*
X195937142Y-116018152D01*
X195937142Y-116018152D02*
X195889523Y-116113390D01*
X195889523Y-116113390D02*
X195841904Y-116161009D01*
X195841904Y-116161009D02*
X195746666Y-116208628D01*
X195746666Y-116208628D02*
X195365714Y-116208628D01*
X196889523Y-116684819D02*
X196318095Y-116684819D01*
X196603809Y-116684819D02*
X196603809Y-115684819D01*
X196603809Y-115684819D02*
X196508571Y-115827676D01*
X196508571Y-115827676D02*
X196413333Y-115922914D01*
X196413333Y-115922914D02*
X196318095Y-115970533D01*
X197746666Y-115684819D02*
X197556190Y-115684819D01*
X197556190Y-115684819D02*
X197460952Y-115732438D01*
X197460952Y-115732438D02*
X197413333Y-115780057D01*
X197413333Y-115780057D02*
X197318095Y-115922914D01*
X197318095Y-115922914D02*
X197270476Y-116113390D01*
X197270476Y-116113390D02*
X197270476Y-116494342D01*
X197270476Y-116494342D02*
X197318095Y-116589580D01*
X197318095Y-116589580D02*
X197365714Y-116637200D01*
X197365714Y-116637200D02*
X197460952Y-116684819D01*
X197460952Y-116684819D02*
X197651428Y-116684819D01*
X197651428Y-116684819D02*
X197746666Y-116637200D01*
X197746666Y-116637200D02*
X197794285Y-116589580D01*
X197794285Y-116589580D02*
X197841904Y-116494342D01*
X197841904Y-116494342D02*
X197841904Y-116256247D01*
X197841904Y-116256247D02*
X197794285Y-116161009D01*
X197794285Y-116161009D02*
X197746666Y-116113390D01*
X197746666Y-116113390D02*
X197651428Y-116065771D01*
X197651428Y-116065771D02*
X197460952Y-116065771D01*
X197460952Y-116065771D02*
X197365714Y-116113390D01*
X197365714Y-116113390D02*
X197318095Y-116161009D01*
X197318095Y-116161009D02*
X197270476Y-116256247D01*
D11*
X198324318Y-138416428D02*
X198324318Y-139021190D01*
X198324318Y-139021190D02*
X197054318Y-139021190D01*
X198263842Y-138053571D02*
X198324318Y-137872142D01*
X198324318Y-137872142D02*
X198324318Y-137569761D01*
X198324318Y-137569761D02*
X198263842Y-137448809D01*
X198263842Y-137448809D02*
X198203365Y-137388333D01*
X198203365Y-137388333D02*
X198082413Y-137327856D01*
X198082413Y-137327856D02*
X197961461Y-137327856D01*
X197961461Y-137327856D02*
X197840508Y-137388333D01*
X197840508Y-137388333D02*
X197780032Y-137448809D01*
X197780032Y-137448809D02*
X197719556Y-137569761D01*
X197719556Y-137569761D02*
X197659080Y-137811666D01*
X197659080Y-137811666D02*
X197598603Y-137932618D01*
X197598603Y-137932618D02*
X197538127Y-137993095D01*
X197538127Y-137993095D02*
X197417175Y-138053571D01*
X197417175Y-138053571D02*
X197296222Y-138053571D01*
X197296222Y-138053571D02*
X197175270Y-137993095D01*
X197175270Y-137993095D02*
X197114794Y-137932618D01*
X197114794Y-137932618D02*
X197054318Y-137811666D01*
X197054318Y-137811666D02*
X197054318Y-137509285D01*
X197054318Y-137509285D02*
X197114794Y-137327856D01*
X198324318Y-136118332D02*
X198324318Y-136844047D01*
X198324318Y-136481190D02*
X197054318Y-136481190D01*
X197054318Y-136481190D02*
X197235746Y-136602142D01*
X197235746Y-136602142D02*
X197356699Y-136723094D01*
X197356699Y-136723094D02*
X197417175Y-136844047D01*
D10*
X244683333Y-136934819D02*
X244350000Y-136458628D01*
X244111905Y-136934819D02*
X244111905Y-135934819D01*
X244111905Y-135934819D02*
X244492857Y-135934819D01*
X244492857Y-135934819D02*
X244588095Y-135982438D01*
X244588095Y-135982438D02*
X244635714Y-136030057D01*
X244635714Y-136030057D02*
X244683333Y-136125295D01*
X244683333Y-136125295D02*
X244683333Y-136268152D01*
X244683333Y-136268152D02*
X244635714Y-136363390D01*
X244635714Y-136363390D02*
X244588095Y-136411009D01*
X244588095Y-136411009D02*
X244492857Y-136458628D01*
X244492857Y-136458628D02*
X244111905Y-136458628D01*
X245159524Y-136934819D02*
X245350000Y-136934819D01*
X245350000Y-136934819D02*
X245445238Y-136887200D01*
X245445238Y-136887200D02*
X245492857Y-136839580D01*
X245492857Y-136839580D02*
X245588095Y-136696723D01*
X245588095Y-136696723D02*
X245635714Y-136506247D01*
X245635714Y-136506247D02*
X245635714Y-136125295D01*
X245635714Y-136125295D02*
X245588095Y-136030057D01*
X245588095Y-136030057D02*
X245540476Y-135982438D01*
X245540476Y-135982438D02*
X245445238Y-135934819D01*
X245445238Y-135934819D02*
X245254762Y-135934819D01*
X245254762Y-135934819D02*
X245159524Y-135982438D01*
X245159524Y-135982438D02*
X245111905Y-136030057D01*
X245111905Y-136030057D02*
X245064286Y-136125295D01*
X245064286Y-136125295D02*
X245064286Y-136363390D01*
X245064286Y-136363390D02*
X245111905Y-136458628D01*
X245111905Y-136458628D02*
X245159524Y-136506247D01*
X245159524Y-136506247D02*
X245254762Y-136553866D01*
X245254762Y-136553866D02*
X245445238Y-136553866D01*
X245445238Y-136553866D02*
X245540476Y-136506247D01*
X245540476Y-136506247D02*
X245588095Y-136458628D01*
X245588095Y-136458628D02*
X245635714Y-136363390D01*
X201637142Y-116734819D02*
X201303809Y-116258628D01*
X201065714Y-116734819D02*
X201065714Y-115734819D01*
X201065714Y-115734819D02*
X201446666Y-115734819D01*
X201446666Y-115734819D02*
X201541904Y-115782438D01*
X201541904Y-115782438D02*
X201589523Y-115830057D01*
X201589523Y-115830057D02*
X201637142Y-115925295D01*
X201637142Y-115925295D02*
X201637142Y-116068152D01*
X201637142Y-116068152D02*
X201589523Y-116163390D01*
X201589523Y-116163390D02*
X201541904Y-116211009D01*
X201541904Y-116211009D02*
X201446666Y-116258628D01*
X201446666Y-116258628D02*
X201065714Y-116258628D01*
X202589523Y-116734819D02*
X202018095Y-116734819D01*
X202303809Y-116734819D02*
X202303809Y-115734819D01*
X202303809Y-115734819D02*
X202208571Y-115877676D01*
X202208571Y-115877676D02*
X202113333Y-115972914D01*
X202113333Y-115972914D02*
X202018095Y-116020533D01*
X202922857Y-115734819D02*
X203589523Y-115734819D01*
X203589523Y-115734819D02*
X203160952Y-116734819D01*
X241604819Y-119719047D02*
X241604819Y-120195237D01*
X241604819Y-120195237D02*
X240604819Y-120195237D01*
X241604819Y-118861904D02*
X241604819Y-119433332D01*
X241604819Y-119147618D02*
X240604819Y-119147618D01*
X240604819Y-119147618D02*
X240747676Y-119242856D01*
X240747676Y-119242856D02*
X240842914Y-119338094D01*
X240842914Y-119338094D02*
X240890533Y-119433332D01*
X240700057Y-118480951D02*
X240652438Y-118433332D01*
X240652438Y-118433332D02*
X240604819Y-118338094D01*
X240604819Y-118338094D02*
X240604819Y-118099999D01*
X240604819Y-118099999D02*
X240652438Y-118004761D01*
X240652438Y-118004761D02*
X240700057Y-117957142D01*
X240700057Y-117957142D02*
X240795295Y-117909523D01*
X240795295Y-117909523D02*
X240890533Y-117909523D01*
X240890533Y-117909523D02*
X241033390Y-117957142D01*
X241033390Y-117957142D02*
X241604819Y-118528570D01*
X241604819Y-118528570D02*
X241604819Y-117909523D01*
X240938152Y-117052380D02*
X241604819Y-117052380D01*
X240557200Y-117290475D02*
X241271485Y-117528570D01*
X241271485Y-117528570D02*
X241271485Y-116909523D01*
X198787142Y-116639580D02*
X198739523Y-116687200D01*
X198739523Y-116687200D02*
X198596666Y-116734819D01*
X198596666Y-116734819D02*
X198501428Y-116734819D01*
X198501428Y-116734819D02*
X198358571Y-116687200D01*
X198358571Y-116687200D02*
X198263333Y-116591961D01*
X198263333Y-116591961D02*
X198215714Y-116496723D01*
X198215714Y-116496723D02*
X198168095Y-116306247D01*
X198168095Y-116306247D02*
X198168095Y-116163390D01*
X198168095Y-116163390D02*
X198215714Y-115972914D01*
X198215714Y-115972914D02*
X198263333Y-115877676D01*
X198263333Y-115877676D02*
X198358571Y-115782438D01*
X198358571Y-115782438D02*
X198501428Y-115734819D01*
X198501428Y-115734819D02*
X198596666Y-115734819D01*
X198596666Y-115734819D02*
X198739523Y-115782438D01*
X198739523Y-115782438D02*
X198787142Y-115830057D01*
X199168095Y-115830057D02*
X199215714Y-115782438D01*
X199215714Y-115782438D02*
X199310952Y-115734819D01*
X199310952Y-115734819D02*
X199549047Y-115734819D01*
X199549047Y-115734819D02*
X199644285Y-115782438D01*
X199644285Y-115782438D02*
X199691904Y-115830057D01*
X199691904Y-115830057D02*
X199739523Y-115925295D01*
X199739523Y-115925295D02*
X199739523Y-116020533D01*
X199739523Y-116020533D02*
X199691904Y-116163390D01*
X199691904Y-116163390D02*
X199120476Y-116734819D01*
X199120476Y-116734819D02*
X199739523Y-116734819D01*
X200691904Y-116734819D02*
X200120476Y-116734819D01*
X200406190Y-116734819D02*
X200406190Y-115734819D01*
X200406190Y-115734819D02*
X200310952Y-115877676D01*
X200310952Y-115877676D02*
X200215714Y-115972914D01*
X200215714Y-115972914D02*
X200120476Y-116020533D01*
D11*
X191360237Y-116724318D02*
X191360237Y-115454318D01*
X192690714Y-116603365D02*
X192630238Y-116663842D01*
X192630238Y-116663842D02*
X192448809Y-116724318D01*
X192448809Y-116724318D02*
X192327857Y-116724318D01*
X192327857Y-116724318D02*
X192146428Y-116663842D01*
X192146428Y-116663842D02*
X192025476Y-116542889D01*
X192025476Y-116542889D02*
X191964999Y-116421937D01*
X191964999Y-116421937D02*
X191904523Y-116180032D01*
X191904523Y-116180032D02*
X191904523Y-115998603D01*
X191904523Y-115998603D02*
X191964999Y-115756699D01*
X191964999Y-115756699D02*
X192025476Y-115635746D01*
X192025476Y-115635746D02*
X192146428Y-115514794D01*
X192146428Y-115514794D02*
X192327857Y-115454318D01*
X192327857Y-115454318D02*
X192448809Y-115454318D01*
X192448809Y-115454318D02*
X192630238Y-115514794D01*
X192630238Y-115514794D02*
X192690714Y-115575270D01*
X193114047Y-115454318D02*
X193900238Y-115454318D01*
X193900238Y-115454318D02*
X193476904Y-115938127D01*
X193476904Y-115938127D02*
X193658333Y-115938127D01*
X193658333Y-115938127D02*
X193779285Y-115998603D01*
X193779285Y-115998603D02*
X193839761Y-116059080D01*
X193839761Y-116059080D02*
X193900238Y-116180032D01*
X193900238Y-116180032D02*
X193900238Y-116482413D01*
X193900238Y-116482413D02*
X193839761Y-116603365D01*
X193839761Y-116603365D02*
X193779285Y-116663842D01*
X193779285Y-116663842D02*
X193658333Y-116724318D01*
X193658333Y-116724318D02*
X193295476Y-116724318D01*
X193295476Y-116724318D02*
X193174523Y-116663842D01*
X193174523Y-116663842D02*
X193114047Y-116603365D01*
D10*
X181238095Y-121704819D02*
X181238095Y-120704819D01*
X181238095Y-121181009D02*
X181809523Y-121181009D01*
X181809523Y-121704819D02*
X181809523Y-120704819D01*
X182809523Y-121704819D02*
X182238095Y-121704819D01*
X182523809Y-121704819D02*
X182523809Y-120704819D01*
X182523809Y-120704819D02*
X182428571Y-120847676D01*
X182428571Y-120847676D02*
X182333333Y-120942914D01*
X182333333Y-120942914D02*
X182238095Y-120990533D01*
X240433333Y-146504819D02*
X240100000Y-146028628D01*
X239861905Y-146504819D02*
X239861905Y-145504819D01*
X239861905Y-145504819D02*
X240242857Y-145504819D01*
X240242857Y-145504819D02*
X240338095Y-145552438D01*
X240338095Y-145552438D02*
X240385714Y-145600057D01*
X240385714Y-145600057D02*
X240433333Y-145695295D01*
X240433333Y-145695295D02*
X240433333Y-145838152D01*
X240433333Y-145838152D02*
X240385714Y-145933390D01*
X240385714Y-145933390D02*
X240338095Y-145981009D01*
X240338095Y-145981009D02*
X240242857Y-146028628D01*
X240242857Y-146028628D02*
X239861905Y-146028628D01*
X241290476Y-145838152D02*
X241290476Y-146504819D01*
X241052381Y-145457200D02*
X240814286Y-146171485D01*
X240814286Y-146171485D02*
X241433333Y-146171485D01*
X228807142Y-124009580D02*
X228759523Y-124057200D01*
X228759523Y-124057200D02*
X228616666Y-124104819D01*
X228616666Y-124104819D02*
X228521428Y-124104819D01*
X228521428Y-124104819D02*
X228378571Y-124057200D01*
X228378571Y-124057200D02*
X228283333Y-123961961D01*
X228283333Y-123961961D02*
X228235714Y-123866723D01*
X228235714Y-123866723D02*
X228188095Y-123676247D01*
X228188095Y-123676247D02*
X228188095Y-123533390D01*
X228188095Y-123533390D02*
X228235714Y-123342914D01*
X228235714Y-123342914D02*
X228283333Y-123247676D01*
X228283333Y-123247676D02*
X228378571Y-123152438D01*
X228378571Y-123152438D02*
X228521428Y-123104819D01*
X228521428Y-123104819D02*
X228616666Y-123104819D01*
X228616666Y-123104819D02*
X228759523Y-123152438D01*
X228759523Y-123152438D02*
X228807142Y-123200057D01*
X229759523Y-124104819D02*
X229188095Y-124104819D01*
X229473809Y-124104819D02*
X229473809Y-123104819D01*
X229473809Y-123104819D02*
X229378571Y-123247676D01*
X229378571Y-123247676D02*
X229283333Y-123342914D01*
X229283333Y-123342914D02*
X229188095Y-123390533D01*
X230664285Y-123104819D02*
X230188095Y-123104819D01*
X230188095Y-123104819D02*
X230140476Y-123581009D01*
X230140476Y-123581009D02*
X230188095Y-123533390D01*
X230188095Y-123533390D02*
X230283333Y-123485771D01*
X230283333Y-123485771D02*
X230521428Y-123485771D01*
X230521428Y-123485771D02*
X230616666Y-123533390D01*
X230616666Y-123533390D02*
X230664285Y-123581009D01*
X230664285Y-123581009D02*
X230711904Y-123676247D01*
X230711904Y-123676247D02*
X230711904Y-123914342D01*
X230711904Y-123914342D02*
X230664285Y-124009580D01*
X230664285Y-124009580D02*
X230616666Y-124057200D01*
X230616666Y-124057200D02*
X230521428Y-124104819D01*
X230521428Y-124104819D02*
X230283333Y-124104819D01*
X230283333Y-124104819D02*
X230188095Y-124057200D01*
X230188095Y-124057200D02*
X230140476Y-124009580D01*
D11*
X254565309Y-132274318D02*
X253960547Y-132274318D01*
X253960547Y-132274318D02*
X253960547Y-131004318D01*
X254988642Y-131609080D02*
X255411976Y-131609080D01*
X255593404Y-132274318D02*
X254988642Y-132274318D01*
X254988642Y-132274318D02*
X254988642Y-131004318D01*
X254988642Y-131004318D02*
X255593404Y-131004318D01*
X256137690Y-132274318D02*
X256137690Y-131004318D01*
X256137690Y-131004318D02*
X256440071Y-131004318D01*
X256440071Y-131004318D02*
X256621500Y-131064794D01*
X256621500Y-131064794D02*
X256742452Y-131185746D01*
X256742452Y-131185746D02*
X256802929Y-131306699D01*
X256802929Y-131306699D02*
X256863405Y-131548603D01*
X256863405Y-131548603D02*
X256863405Y-131730032D01*
X256863405Y-131730032D02*
X256802929Y-131971937D01*
X256802929Y-131971937D02*
X256742452Y-132092889D01*
X256742452Y-132092889D02*
X256621500Y-132213842D01*
X256621500Y-132213842D02*
X256440071Y-132274318D01*
X256440071Y-132274318D02*
X256137690Y-132274318D01*
X258072929Y-132274318D02*
X257347214Y-132274318D01*
X257710071Y-132274318D02*
X257710071Y-131004318D01*
X257710071Y-131004318D02*
X257589119Y-131185746D01*
X257589119Y-131185746D02*
X257468167Y-131306699D01*
X257468167Y-131306699D02*
X257347214Y-131367175D01*
D10*
X216507142Y-121204819D02*
X216173809Y-120728628D01*
X215935714Y-121204819D02*
X215935714Y-120204819D01*
X215935714Y-120204819D02*
X216316666Y-120204819D01*
X216316666Y-120204819D02*
X216411904Y-120252438D01*
X216411904Y-120252438D02*
X216459523Y-120300057D01*
X216459523Y-120300057D02*
X216507142Y-120395295D01*
X216507142Y-120395295D02*
X216507142Y-120538152D01*
X216507142Y-120538152D02*
X216459523Y-120633390D01*
X216459523Y-120633390D02*
X216411904Y-120681009D01*
X216411904Y-120681009D02*
X216316666Y-120728628D01*
X216316666Y-120728628D02*
X215935714Y-120728628D01*
X217459523Y-121204819D02*
X216888095Y-121204819D01*
X217173809Y-121204819D02*
X217173809Y-120204819D01*
X217173809Y-120204819D02*
X217078571Y-120347676D01*
X217078571Y-120347676D02*
X216983333Y-120442914D01*
X216983333Y-120442914D02*
X216888095Y-120490533D01*
X218411904Y-121204819D02*
X217840476Y-121204819D01*
X218126190Y-121204819D02*
X218126190Y-120204819D01*
X218126190Y-120204819D02*
X218030952Y-120347676D01*
X218030952Y-120347676D02*
X217935714Y-120442914D01*
X217935714Y-120442914D02*
X217840476Y-120490533D01*
X211283333Y-143154819D02*
X210950000Y-142678628D01*
X210711905Y-143154819D02*
X210711905Y-142154819D01*
X210711905Y-142154819D02*
X211092857Y-142154819D01*
X211092857Y-142154819D02*
X211188095Y-142202438D01*
X211188095Y-142202438D02*
X211235714Y-142250057D01*
X211235714Y-142250057D02*
X211283333Y-142345295D01*
X211283333Y-142345295D02*
X211283333Y-142488152D01*
X211283333Y-142488152D02*
X211235714Y-142583390D01*
X211235714Y-142583390D02*
X211188095Y-142631009D01*
X211188095Y-142631009D02*
X211092857Y-142678628D01*
X211092857Y-142678628D02*
X210711905Y-142678628D01*
X211616667Y-142154819D02*
X212283333Y-142154819D01*
X212283333Y-142154819D02*
X211854762Y-143154819D01*
X188157142Y-121409580D02*
X188109523Y-121457200D01*
X188109523Y-121457200D02*
X187966666Y-121504819D01*
X187966666Y-121504819D02*
X187871428Y-121504819D01*
X187871428Y-121504819D02*
X187728571Y-121457200D01*
X187728571Y-121457200D02*
X187633333Y-121361961D01*
X187633333Y-121361961D02*
X187585714Y-121266723D01*
X187585714Y-121266723D02*
X187538095Y-121076247D01*
X187538095Y-121076247D02*
X187538095Y-120933390D01*
X187538095Y-120933390D02*
X187585714Y-120742914D01*
X187585714Y-120742914D02*
X187633333Y-120647676D01*
X187633333Y-120647676D02*
X187728571Y-120552438D01*
X187728571Y-120552438D02*
X187871428Y-120504819D01*
X187871428Y-120504819D02*
X187966666Y-120504819D01*
X187966666Y-120504819D02*
X188109523Y-120552438D01*
X188109523Y-120552438D02*
X188157142Y-120600057D01*
X188538095Y-120600057D02*
X188585714Y-120552438D01*
X188585714Y-120552438D02*
X188680952Y-120504819D01*
X188680952Y-120504819D02*
X188919047Y-120504819D01*
X188919047Y-120504819D02*
X189014285Y-120552438D01*
X189014285Y-120552438D02*
X189061904Y-120600057D01*
X189061904Y-120600057D02*
X189109523Y-120695295D01*
X189109523Y-120695295D02*
X189109523Y-120790533D01*
X189109523Y-120790533D02*
X189061904Y-120933390D01*
X189061904Y-120933390D02*
X188490476Y-121504819D01*
X188490476Y-121504819D02*
X189109523Y-121504819D01*
X189728571Y-120504819D02*
X189823809Y-120504819D01*
X189823809Y-120504819D02*
X189919047Y-120552438D01*
X189919047Y-120552438D02*
X189966666Y-120600057D01*
X189966666Y-120600057D02*
X190014285Y-120695295D01*
X190014285Y-120695295D02*
X190061904Y-120885771D01*
X190061904Y-120885771D02*
X190061904Y-121123866D01*
X190061904Y-121123866D02*
X190014285Y-121314342D01*
X190014285Y-121314342D02*
X189966666Y-121409580D01*
X189966666Y-121409580D02*
X189919047Y-121457200D01*
X189919047Y-121457200D02*
X189823809Y-121504819D01*
X189823809Y-121504819D02*
X189728571Y-121504819D01*
X189728571Y-121504819D02*
X189633333Y-121457200D01*
X189633333Y-121457200D02*
X189585714Y-121409580D01*
X189585714Y-121409580D02*
X189538095Y-121314342D01*
X189538095Y-121314342D02*
X189490476Y-121123866D01*
X189490476Y-121123866D02*
X189490476Y-120885771D01*
X189490476Y-120885771D02*
X189538095Y-120695295D01*
X189538095Y-120695295D02*
X189585714Y-120600057D01*
X189585714Y-120600057D02*
X189633333Y-120552438D01*
X189633333Y-120552438D02*
X189728571Y-120504819D01*
X229504819Y-118569047D02*
X229504819Y-119045237D01*
X229504819Y-119045237D02*
X228504819Y-119045237D01*
X229504819Y-117711904D02*
X229504819Y-118283332D01*
X229504819Y-117997618D02*
X228504819Y-117997618D01*
X228504819Y-117997618D02*
X228647676Y-118092856D01*
X228647676Y-118092856D02*
X228742914Y-118188094D01*
X228742914Y-118188094D02*
X228790533Y-118283332D01*
X228504819Y-117378570D02*
X228504819Y-116759523D01*
X228504819Y-116759523D02*
X228885771Y-117092856D01*
X228885771Y-117092856D02*
X228885771Y-116949999D01*
X228885771Y-116949999D02*
X228933390Y-116854761D01*
X228933390Y-116854761D02*
X228981009Y-116807142D01*
X228981009Y-116807142D02*
X229076247Y-116759523D01*
X229076247Y-116759523D02*
X229314342Y-116759523D01*
X229314342Y-116759523D02*
X229409580Y-116807142D01*
X229409580Y-116807142D02*
X229457200Y-116854761D01*
X229457200Y-116854761D02*
X229504819Y-116949999D01*
X229504819Y-116949999D02*
X229504819Y-117235713D01*
X229504819Y-117235713D02*
X229457200Y-117330951D01*
X229457200Y-117330951D02*
X229409580Y-117378570D01*
X229504819Y-115807142D02*
X229504819Y-116378570D01*
X229504819Y-116092856D02*
X228504819Y-116092856D01*
X228504819Y-116092856D02*
X228647676Y-116188094D01*
X228647676Y-116188094D02*
X228742914Y-116283332D01*
X228742914Y-116283332D02*
X228790533Y-116378570D01*
X240083333Y-153754819D02*
X239750000Y-153278628D01*
X239511905Y-153754819D02*
X239511905Y-152754819D01*
X239511905Y-152754819D02*
X239892857Y-152754819D01*
X239892857Y-152754819D02*
X239988095Y-152802438D01*
X239988095Y-152802438D02*
X240035714Y-152850057D01*
X240035714Y-152850057D02*
X240083333Y-152945295D01*
X240083333Y-152945295D02*
X240083333Y-153088152D01*
X240083333Y-153088152D02*
X240035714Y-153183390D01*
X240035714Y-153183390D02*
X239988095Y-153231009D01*
X239988095Y-153231009D02*
X239892857Y-153278628D01*
X239892857Y-153278628D02*
X239511905Y-153278628D01*
X240464286Y-152850057D02*
X240511905Y-152802438D01*
X240511905Y-152802438D02*
X240607143Y-152754819D01*
X240607143Y-152754819D02*
X240845238Y-152754819D01*
X240845238Y-152754819D02*
X240940476Y-152802438D01*
X240940476Y-152802438D02*
X240988095Y-152850057D01*
X240988095Y-152850057D02*
X241035714Y-152945295D01*
X241035714Y-152945295D02*
X241035714Y-153040533D01*
X241035714Y-153040533D02*
X240988095Y-153183390D01*
X240988095Y-153183390D02*
X240416667Y-153754819D01*
X240416667Y-153754819D02*
X241035714Y-153754819D01*
D11*
X253965309Y-144374318D02*
X253360547Y-144374318D01*
X253360547Y-144374318D02*
X253360547Y-143104318D01*
X254388642Y-143709080D02*
X254811976Y-143709080D01*
X254993404Y-144374318D02*
X254388642Y-144374318D01*
X254388642Y-144374318D02*
X254388642Y-143104318D01*
X254388642Y-143104318D02*
X254993404Y-143104318D01*
X255537690Y-144374318D02*
X255537690Y-143104318D01*
X255537690Y-143104318D02*
X255840071Y-143104318D01*
X255840071Y-143104318D02*
X256021500Y-143164794D01*
X256021500Y-143164794D02*
X256142452Y-143285746D01*
X256142452Y-143285746D02*
X256202929Y-143406699D01*
X256202929Y-143406699D02*
X256263405Y-143648603D01*
X256263405Y-143648603D02*
X256263405Y-143830032D01*
X256263405Y-143830032D02*
X256202929Y-144071937D01*
X256202929Y-144071937D02*
X256142452Y-144192889D01*
X256142452Y-144192889D02*
X256021500Y-144313842D01*
X256021500Y-144313842D02*
X255840071Y-144374318D01*
X255840071Y-144374318D02*
X255537690Y-144374318D01*
X256686738Y-143104318D02*
X257472929Y-143104318D01*
X257472929Y-143104318D02*
X257049595Y-143588127D01*
X257049595Y-143588127D02*
X257231024Y-143588127D01*
X257231024Y-143588127D02*
X257351976Y-143648603D01*
X257351976Y-143648603D02*
X257412452Y-143709080D01*
X257412452Y-143709080D02*
X257472929Y-143830032D01*
X257472929Y-143830032D02*
X257472929Y-144132413D01*
X257472929Y-144132413D02*
X257412452Y-144253365D01*
X257412452Y-144253365D02*
X257351976Y-144313842D01*
X257351976Y-144313842D02*
X257231024Y-144374318D01*
X257231024Y-144374318D02*
X256868167Y-144374318D01*
X256868167Y-144374318D02*
X256747214Y-144313842D01*
X256747214Y-144313842D02*
X256686738Y-144253365D01*
D10*
X220107142Y-124409580D02*
X220059523Y-124457200D01*
X220059523Y-124457200D02*
X219916666Y-124504819D01*
X219916666Y-124504819D02*
X219821428Y-124504819D01*
X219821428Y-124504819D02*
X219678571Y-124457200D01*
X219678571Y-124457200D02*
X219583333Y-124361961D01*
X219583333Y-124361961D02*
X219535714Y-124266723D01*
X219535714Y-124266723D02*
X219488095Y-124076247D01*
X219488095Y-124076247D02*
X219488095Y-123933390D01*
X219488095Y-123933390D02*
X219535714Y-123742914D01*
X219535714Y-123742914D02*
X219583333Y-123647676D01*
X219583333Y-123647676D02*
X219678571Y-123552438D01*
X219678571Y-123552438D02*
X219821428Y-123504819D01*
X219821428Y-123504819D02*
X219916666Y-123504819D01*
X219916666Y-123504819D02*
X220059523Y-123552438D01*
X220059523Y-123552438D02*
X220107142Y-123600057D01*
X221059523Y-124504819D02*
X220488095Y-124504819D01*
X220773809Y-124504819D02*
X220773809Y-123504819D01*
X220773809Y-123504819D02*
X220678571Y-123647676D01*
X220678571Y-123647676D02*
X220583333Y-123742914D01*
X220583333Y-123742914D02*
X220488095Y-123790533D01*
X222011904Y-124504819D02*
X221440476Y-124504819D01*
X221726190Y-124504819D02*
X221726190Y-123504819D01*
X221726190Y-123504819D02*
X221630952Y-123647676D01*
X221630952Y-123647676D02*
X221535714Y-123742914D01*
X221535714Y-123742914D02*
X221440476Y-123790533D01*
X203137142Y-121639580D02*
X203089523Y-121687200D01*
X203089523Y-121687200D02*
X202946666Y-121734819D01*
X202946666Y-121734819D02*
X202851428Y-121734819D01*
X202851428Y-121734819D02*
X202708571Y-121687200D01*
X202708571Y-121687200D02*
X202613333Y-121591961D01*
X202613333Y-121591961D02*
X202565714Y-121496723D01*
X202565714Y-121496723D02*
X202518095Y-121306247D01*
X202518095Y-121306247D02*
X202518095Y-121163390D01*
X202518095Y-121163390D02*
X202565714Y-120972914D01*
X202565714Y-120972914D02*
X202613333Y-120877676D01*
X202613333Y-120877676D02*
X202708571Y-120782438D01*
X202708571Y-120782438D02*
X202851428Y-120734819D01*
X202851428Y-120734819D02*
X202946666Y-120734819D01*
X202946666Y-120734819D02*
X203089523Y-120782438D01*
X203089523Y-120782438D02*
X203137142Y-120830057D01*
X203518095Y-120830057D02*
X203565714Y-120782438D01*
X203565714Y-120782438D02*
X203660952Y-120734819D01*
X203660952Y-120734819D02*
X203899047Y-120734819D01*
X203899047Y-120734819D02*
X203994285Y-120782438D01*
X203994285Y-120782438D02*
X204041904Y-120830057D01*
X204041904Y-120830057D02*
X204089523Y-120925295D01*
X204089523Y-120925295D02*
X204089523Y-121020533D01*
X204089523Y-121020533D02*
X204041904Y-121163390D01*
X204041904Y-121163390D02*
X203470476Y-121734819D01*
X203470476Y-121734819D02*
X204089523Y-121734819D01*
X204470476Y-120830057D02*
X204518095Y-120782438D01*
X204518095Y-120782438D02*
X204613333Y-120734819D01*
X204613333Y-120734819D02*
X204851428Y-120734819D01*
X204851428Y-120734819D02*
X204946666Y-120782438D01*
X204946666Y-120782438D02*
X204994285Y-120830057D01*
X204994285Y-120830057D02*
X205041904Y-120925295D01*
X205041904Y-120925295D02*
X205041904Y-121020533D01*
X205041904Y-121020533D02*
X204994285Y-121163390D01*
X204994285Y-121163390D02*
X204422857Y-121734819D01*
X204422857Y-121734819D02*
X205041904Y-121734819D01*
X238904819Y-119769047D02*
X238904819Y-120245237D01*
X238904819Y-120245237D02*
X237904819Y-120245237D01*
X238904819Y-118911904D02*
X238904819Y-119483332D01*
X238904819Y-119197618D02*
X237904819Y-119197618D01*
X237904819Y-119197618D02*
X238047676Y-119292856D01*
X238047676Y-119292856D02*
X238142914Y-119388094D01*
X238142914Y-119388094D02*
X238190533Y-119483332D01*
X237904819Y-118578570D02*
X237904819Y-117959523D01*
X237904819Y-117959523D02*
X238285771Y-118292856D01*
X238285771Y-118292856D02*
X238285771Y-118149999D01*
X238285771Y-118149999D02*
X238333390Y-118054761D01*
X238333390Y-118054761D02*
X238381009Y-118007142D01*
X238381009Y-118007142D02*
X238476247Y-117959523D01*
X238476247Y-117959523D02*
X238714342Y-117959523D01*
X238714342Y-117959523D02*
X238809580Y-118007142D01*
X238809580Y-118007142D02*
X238857200Y-118054761D01*
X238857200Y-118054761D02*
X238904819Y-118149999D01*
X238904819Y-118149999D02*
X238904819Y-118435713D01*
X238904819Y-118435713D02*
X238857200Y-118530951D01*
X238857200Y-118530951D02*
X238809580Y-118578570D01*
X238000057Y-117578570D02*
X237952438Y-117530951D01*
X237952438Y-117530951D02*
X237904819Y-117435713D01*
X237904819Y-117435713D02*
X237904819Y-117197618D01*
X237904819Y-117197618D02*
X237952438Y-117102380D01*
X237952438Y-117102380D02*
X238000057Y-117054761D01*
X238000057Y-117054761D02*
X238095295Y-117007142D01*
X238095295Y-117007142D02*
X238190533Y-117007142D01*
X238190533Y-117007142D02*
X238333390Y-117054761D01*
X238333390Y-117054761D02*
X238904819Y-117626189D01*
X238904819Y-117626189D02*
X238904819Y-117007142D01*
D11*
X223210237Y-125224318D02*
X223210237Y-123954318D01*
X224540714Y-125103365D02*
X224480238Y-125163842D01*
X224480238Y-125163842D02*
X224298809Y-125224318D01*
X224298809Y-125224318D02*
X224177857Y-125224318D01*
X224177857Y-125224318D02*
X223996428Y-125163842D01*
X223996428Y-125163842D02*
X223875476Y-125042889D01*
X223875476Y-125042889D02*
X223814999Y-124921937D01*
X223814999Y-124921937D02*
X223754523Y-124680032D01*
X223754523Y-124680032D02*
X223754523Y-124498603D01*
X223754523Y-124498603D02*
X223814999Y-124256699D01*
X223814999Y-124256699D02*
X223875476Y-124135746D01*
X223875476Y-124135746D02*
X223996428Y-124014794D01*
X223996428Y-124014794D02*
X224177857Y-123954318D01*
X224177857Y-123954318D02*
X224298809Y-123954318D01*
X224298809Y-123954318D02*
X224480238Y-124014794D01*
X224480238Y-124014794D02*
X224540714Y-124075270D01*
X225024523Y-124075270D02*
X225084999Y-124014794D01*
X225084999Y-124014794D02*
X225205952Y-123954318D01*
X225205952Y-123954318D02*
X225508333Y-123954318D01*
X225508333Y-123954318D02*
X225629285Y-124014794D01*
X225629285Y-124014794D02*
X225689761Y-124075270D01*
X225689761Y-124075270D02*
X225750238Y-124196222D01*
X225750238Y-124196222D02*
X225750238Y-124317175D01*
X225750238Y-124317175D02*
X225689761Y-124498603D01*
X225689761Y-124498603D02*
X224964047Y-125224318D01*
X224964047Y-125224318D02*
X225750238Y-125224318D01*
D10*
X219657142Y-122959580D02*
X219609523Y-123007200D01*
X219609523Y-123007200D02*
X219466666Y-123054819D01*
X219466666Y-123054819D02*
X219371428Y-123054819D01*
X219371428Y-123054819D02*
X219228571Y-123007200D01*
X219228571Y-123007200D02*
X219133333Y-122911961D01*
X219133333Y-122911961D02*
X219085714Y-122816723D01*
X219085714Y-122816723D02*
X219038095Y-122626247D01*
X219038095Y-122626247D02*
X219038095Y-122483390D01*
X219038095Y-122483390D02*
X219085714Y-122292914D01*
X219085714Y-122292914D02*
X219133333Y-122197676D01*
X219133333Y-122197676D02*
X219228571Y-122102438D01*
X219228571Y-122102438D02*
X219371428Y-122054819D01*
X219371428Y-122054819D02*
X219466666Y-122054819D01*
X219466666Y-122054819D02*
X219609523Y-122102438D01*
X219609523Y-122102438D02*
X219657142Y-122150057D01*
X220609523Y-123054819D02*
X220038095Y-123054819D01*
X220323809Y-123054819D02*
X220323809Y-122054819D01*
X220323809Y-122054819D02*
X220228571Y-122197676D01*
X220228571Y-122197676D02*
X220133333Y-122292914D01*
X220133333Y-122292914D02*
X220038095Y-122340533D01*
X221228571Y-122054819D02*
X221323809Y-122054819D01*
X221323809Y-122054819D02*
X221419047Y-122102438D01*
X221419047Y-122102438D02*
X221466666Y-122150057D01*
X221466666Y-122150057D02*
X221514285Y-122245295D01*
X221514285Y-122245295D02*
X221561904Y-122435771D01*
X221561904Y-122435771D02*
X221561904Y-122673866D01*
X221561904Y-122673866D02*
X221514285Y-122864342D01*
X221514285Y-122864342D02*
X221466666Y-122959580D01*
X221466666Y-122959580D02*
X221419047Y-123007200D01*
X221419047Y-123007200D02*
X221323809Y-123054819D01*
X221323809Y-123054819D02*
X221228571Y-123054819D01*
X221228571Y-123054819D02*
X221133333Y-123007200D01*
X221133333Y-123007200D02*
X221085714Y-122959580D01*
X221085714Y-122959580D02*
X221038095Y-122864342D01*
X221038095Y-122864342D02*
X220990476Y-122673866D01*
X220990476Y-122673866D02*
X220990476Y-122435771D01*
X220990476Y-122435771D02*
X221038095Y-122245295D01*
X221038095Y-122245295D02*
X221085714Y-122150057D01*
X221085714Y-122150057D02*
X221133333Y-122102438D01*
X221133333Y-122102438D02*
X221228571Y-122054819D01*
X244297142Y-143054819D02*
X243963809Y-142578628D01*
X243725714Y-143054819D02*
X243725714Y-142054819D01*
X243725714Y-142054819D02*
X244106666Y-142054819D01*
X244106666Y-142054819D02*
X244201904Y-142102438D01*
X244201904Y-142102438D02*
X244249523Y-142150057D01*
X244249523Y-142150057D02*
X244297142Y-142245295D01*
X244297142Y-142245295D02*
X244297142Y-142388152D01*
X244297142Y-142388152D02*
X244249523Y-142483390D01*
X244249523Y-142483390D02*
X244201904Y-142531009D01*
X244201904Y-142531009D02*
X244106666Y-142578628D01*
X244106666Y-142578628D02*
X243725714Y-142578628D01*
X245249523Y-143054819D02*
X244678095Y-143054819D01*
X244963809Y-143054819D02*
X244963809Y-142054819D01*
X244963809Y-142054819D02*
X244868571Y-142197676D01*
X244868571Y-142197676D02*
X244773333Y-142292914D01*
X244773333Y-142292914D02*
X244678095Y-142340533D01*
X245868571Y-142054819D02*
X245963809Y-142054819D01*
X245963809Y-142054819D02*
X246059047Y-142102438D01*
X246059047Y-142102438D02*
X246106666Y-142150057D01*
X246106666Y-142150057D02*
X246154285Y-142245295D01*
X246154285Y-142245295D02*
X246201904Y-142435771D01*
X246201904Y-142435771D02*
X246201904Y-142673866D01*
X246201904Y-142673866D02*
X246154285Y-142864342D01*
X246154285Y-142864342D02*
X246106666Y-142959580D01*
X246106666Y-142959580D02*
X246059047Y-143007200D01*
X246059047Y-143007200D02*
X245963809Y-143054819D01*
X245963809Y-143054819D02*
X245868571Y-143054819D01*
X245868571Y-143054819D02*
X245773333Y-143007200D01*
X245773333Y-143007200D02*
X245725714Y-142959580D01*
X245725714Y-142959580D02*
X245678095Y-142864342D01*
X245678095Y-142864342D02*
X245630476Y-142673866D01*
X245630476Y-142673866D02*
X245630476Y-142435771D01*
X245630476Y-142435771D02*
X245678095Y-142245295D01*
X245678095Y-142245295D02*
X245725714Y-142150057D01*
X245725714Y-142150057D02*
X245773333Y-142102438D01*
X245773333Y-142102438D02*
X245868571Y-142054819D01*
D11*
X190364318Y-156973332D02*
X191271461Y-156973332D01*
X191271461Y-156973332D02*
X191452889Y-157033809D01*
X191452889Y-157033809D02*
X191573842Y-157154761D01*
X191573842Y-157154761D02*
X191634318Y-157336190D01*
X191634318Y-157336190D02*
X191634318Y-157457142D01*
X190485270Y-156429047D02*
X190424794Y-156368571D01*
X190424794Y-156368571D02*
X190364318Y-156247618D01*
X190364318Y-156247618D02*
X190364318Y-155945237D01*
X190364318Y-155945237D02*
X190424794Y-155824285D01*
X190424794Y-155824285D02*
X190485270Y-155763809D01*
X190485270Y-155763809D02*
X190606222Y-155703332D01*
X190606222Y-155703332D02*
X190727175Y-155703332D01*
X190727175Y-155703332D02*
X190908603Y-155763809D01*
X190908603Y-155763809D02*
X191634318Y-156489523D01*
X191634318Y-156489523D02*
X191634318Y-155703332D01*
D10*
X219183333Y-117159580D02*
X219135714Y-117207200D01*
X219135714Y-117207200D02*
X218992857Y-117254819D01*
X218992857Y-117254819D02*
X218897619Y-117254819D01*
X218897619Y-117254819D02*
X218754762Y-117207200D01*
X218754762Y-117207200D02*
X218659524Y-117111961D01*
X218659524Y-117111961D02*
X218611905Y-117016723D01*
X218611905Y-117016723D02*
X218564286Y-116826247D01*
X218564286Y-116826247D02*
X218564286Y-116683390D01*
X218564286Y-116683390D02*
X218611905Y-116492914D01*
X218611905Y-116492914D02*
X218659524Y-116397676D01*
X218659524Y-116397676D02*
X218754762Y-116302438D01*
X218754762Y-116302438D02*
X218897619Y-116254819D01*
X218897619Y-116254819D02*
X218992857Y-116254819D01*
X218992857Y-116254819D02*
X219135714Y-116302438D01*
X219135714Y-116302438D02*
X219183333Y-116350057D01*
X219659524Y-117254819D02*
X219850000Y-117254819D01*
X219850000Y-117254819D02*
X219945238Y-117207200D01*
X219945238Y-117207200D02*
X219992857Y-117159580D01*
X219992857Y-117159580D02*
X220088095Y-117016723D01*
X220088095Y-117016723D02*
X220135714Y-116826247D01*
X220135714Y-116826247D02*
X220135714Y-116445295D01*
X220135714Y-116445295D02*
X220088095Y-116350057D01*
X220088095Y-116350057D02*
X220040476Y-116302438D01*
X220040476Y-116302438D02*
X219945238Y-116254819D01*
X219945238Y-116254819D02*
X219754762Y-116254819D01*
X219754762Y-116254819D02*
X219659524Y-116302438D01*
X219659524Y-116302438D02*
X219611905Y-116350057D01*
X219611905Y-116350057D02*
X219564286Y-116445295D01*
X219564286Y-116445295D02*
X219564286Y-116683390D01*
X219564286Y-116683390D02*
X219611905Y-116778628D01*
X219611905Y-116778628D02*
X219659524Y-116826247D01*
X219659524Y-116826247D02*
X219754762Y-116873866D01*
X219754762Y-116873866D02*
X219945238Y-116873866D01*
X219945238Y-116873866D02*
X220040476Y-116826247D01*
X220040476Y-116826247D02*
X220088095Y-116778628D01*
X220088095Y-116778628D02*
X220135714Y-116683390D01*
D11*
X198792618Y-124304318D02*
X198792618Y-123034318D01*
X198792618Y-123034318D02*
X199094999Y-123034318D01*
X199094999Y-123034318D02*
X199276428Y-123094794D01*
X199276428Y-123094794D02*
X199397380Y-123215746D01*
X199397380Y-123215746D02*
X199457857Y-123336699D01*
X199457857Y-123336699D02*
X199518333Y-123578603D01*
X199518333Y-123578603D02*
X199518333Y-123760032D01*
X199518333Y-123760032D02*
X199457857Y-124001937D01*
X199457857Y-124001937D02*
X199397380Y-124122889D01*
X199397380Y-124122889D02*
X199276428Y-124243842D01*
X199276428Y-124243842D02*
X199094999Y-124304318D01*
X199094999Y-124304318D02*
X198792618Y-124304318D01*
X200727857Y-124304318D02*
X200002142Y-124304318D01*
X200364999Y-124304318D02*
X200364999Y-123034318D01*
X200364999Y-123034318D02*
X200244047Y-123215746D01*
X200244047Y-123215746D02*
X200123095Y-123336699D01*
X200123095Y-123336699D02*
X200002142Y-123397175D01*
X255165309Y-138474318D02*
X254560547Y-138474318D01*
X254560547Y-138474318D02*
X254560547Y-137204318D01*
X255588642Y-137809080D02*
X256011976Y-137809080D01*
X256193404Y-138474318D02*
X255588642Y-138474318D01*
X255588642Y-138474318D02*
X255588642Y-137204318D01*
X255588642Y-137204318D02*
X256193404Y-137204318D01*
X256737690Y-138474318D02*
X256737690Y-137204318D01*
X256737690Y-137204318D02*
X257040071Y-137204318D01*
X257040071Y-137204318D02*
X257221500Y-137264794D01*
X257221500Y-137264794D02*
X257342452Y-137385746D01*
X257342452Y-137385746D02*
X257402929Y-137506699D01*
X257402929Y-137506699D02*
X257463405Y-137748603D01*
X257463405Y-137748603D02*
X257463405Y-137930032D01*
X257463405Y-137930032D02*
X257402929Y-138171937D01*
X257402929Y-138171937D02*
X257342452Y-138292889D01*
X257342452Y-138292889D02*
X257221500Y-138413842D01*
X257221500Y-138413842D02*
X257040071Y-138474318D01*
X257040071Y-138474318D02*
X256737690Y-138474318D01*
X257947214Y-137325270D02*
X258007690Y-137264794D01*
X258007690Y-137264794D02*
X258128643Y-137204318D01*
X258128643Y-137204318D02*
X258431024Y-137204318D01*
X258431024Y-137204318D02*
X258551976Y-137264794D01*
X258551976Y-137264794D02*
X258612452Y-137325270D01*
X258612452Y-137325270D02*
X258672929Y-137446222D01*
X258672929Y-137446222D02*
X258672929Y-137567175D01*
X258672929Y-137567175D02*
X258612452Y-137748603D01*
X258612452Y-137748603D02*
X257886738Y-138474318D01*
X257886738Y-138474318D02*
X258672929Y-138474318D01*
D10*
X233254819Y-124969047D02*
X233254819Y-125445237D01*
X233254819Y-125445237D02*
X232254819Y-125445237D01*
X233254819Y-124111904D02*
X233254819Y-124683332D01*
X233254819Y-124397618D02*
X232254819Y-124397618D01*
X232254819Y-124397618D02*
X232397676Y-124492856D01*
X232397676Y-124492856D02*
X232492914Y-124588094D01*
X232492914Y-124588094D02*
X232540533Y-124683332D01*
X232350057Y-123730951D02*
X232302438Y-123683332D01*
X232302438Y-123683332D02*
X232254819Y-123588094D01*
X232254819Y-123588094D02*
X232254819Y-123349999D01*
X232254819Y-123349999D02*
X232302438Y-123254761D01*
X232302438Y-123254761D02*
X232350057Y-123207142D01*
X232350057Y-123207142D02*
X232445295Y-123159523D01*
X232445295Y-123159523D02*
X232540533Y-123159523D01*
X232540533Y-123159523D02*
X232683390Y-123207142D01*
X232683390Y-123207142D02*
X233254819Y-123778570D01*
X233254819Y-123778570D02*
X233254819Y-123159523D01*
X232350057Y-122778570D02*
X232302438Y-122730951D01*
X232302438Y-122730951D02*
X232254819Y-122635713D01*
X232254819Y-122635713D02*
X232254819Y-122397618D01*
X232254819Y-122397618D02*
X232302438Y-122302380D01*
X232302438Y-122302380D02*
X232350057Y-122254761D01*
X232350057Y-122254761D02*
X232445295Y-122207142D01*
X232445295Y-122207142D02*
X232540533Y-122207142D01*
X232540533Y-122207142D02*
X232683390Y-122254761D01*
X232683390Y-122254761D02*
X233254819Y-122826189D01*
X233254819Y-122826189D02*
X233254819Y-122207142D01*
X276238095Y-154404819D02*
X276238095Y-153404819D01*
X276238095Y-153881009D02*
X276809523Y-153881009D01*
X276809523Y-154404819D02*
X276809523Y-153404819D01*
X277714285Y-153738152D02*
X277714285Y-154404819D01*
X277476190Y-153357200D02*
X277238095Y-154071485D01*
X277238095Y-154071485D02*
X277857142Y-154071485D01*
D11*
X237663842Y-138417619D02*
X237724318Y-138236190D01*
X237724318Y-138236190D02*
X237724318Y-137933809D01*
X237724318Y-137933809D02*
X237663842Y-137812857D01*
X237663842Y-137812857D02*
X237603365Y-137752381D01*
X237603365Y-137752381D02*
X237482413Y-137691904D01*
X237482413Y-137691904D02*
X237361461Y-137691904D01*
X237361461Y-137691904D02*
X237240508Y-137752381D01*
X237240508Y-137752381D02*
X237180032Y-137812857D01*
X237180032Y-137812857D02*
X237119556Y-137933809D01*
X237119556Y-137933809D02*
X237059080Y-138175714D01*
X237059080Y-138175714D02*
X236998603Y-138296666D01*
X236998603Y-138296666D02*
X236938127Y-138357143D01*
X236938127Y-138357143D02*
X236817175Y-138417619D01*
X236817175Y-138417619D02*
X236696222Y-138417619D01*
X236696222Y-138417619D02*
X236575270Y-138357143D01*
X236575270Y-138357143D02*
X236514794Y-138296666D01*
X236514794Y-138296666D02*
X236454318Y-138175714D01*
X236454318Y-138175714D02*
X236454318Y-137873333D01*
X236454318Y-137873333D02*
X236514794Y-137691904D01*
X236575270Y-137208095D02*
X236514794Y-137147619D01*
X236514794Y-137147619D02*
X236454318Y-137026666D01*
X236454318Y-137026666D02*
X236454318Y-136724285D01*
X236454318Y-136724285D02*
X236514794Y-136603333D01*
X236514794Y-136603333D02*
X236575270Y-136542857D01*
X236575270Y-136542857D02*
X236696222Y-136482380D01*
X236696222Y-136482380D02*
X236817175Y-136482380D01*
X236817175Y-136482380D02*
X236998603Y-136542857D01*
X236998603Y-136542857D02*
X237724318Y-137268571D01*
X237724318Y-137268571D02*
X237724318Y-136482380D01*
D12*
%TO.C,C13*%
X225155000Y-117027836D02*
X225155000Y-116812164D01*
X225875000Y-117027836D02*
X225875000Y-116812164D01*
D13*
%TO.C,Q1*%
X227850000Y-133900000D02*
X229150000Y-133900000D01*
X229500000Y-133940000D02*
X229600000Y-133940000D01*
X229500000Y-136860000D02*
X229500000Y-133940000D01*
X229600000Y-133940000D02*
X229600000Y-136860000D01*
X229600000Y-136860000D02*
X229500000Y-136860000D01*
D12*
%TO.C,R13*%
X227385000Y-117053641D02*
X227385000Y-116746359D01*
X228145000Y-117053641D02*
X228145000Y-116746359D01*
D13*
%TO.C,IC4*%
X214038000Y-132160000D02*
X217238000Y-132160000D01*
X214038000Y-137050000D02*
X214038000Y-132160000D01*
X217238000Y-132160000D02*
X217238000Y-137050000D01*
X217238000Y-137050000D02*
X214038000Y-137050000D01*
X219113000Y-137185000D02*
X217588000Y-137185000D01*
%TO.C,IC5*%
X206125000Y-116535000D02*
X207675000Y-116535000D01*
X208025000Y-116670000D02*
X211225000Y-116670000D01*
X208025000Y-121560000D02*
X208025000Y-116670000D01*
X211225000Y-116670000D02*
X211225000Y-121560000D01*
X211225000Y-121560000D02*
X208025000Y-121560000D01*
D12*
%TO.C,C122*%
X235257164Y-121490000D02*
X235472836Y-121490000D01*
X235257164Y-122210000D02*
X235472836Y-122210000D01*
%TO.C,C12*%
X226255000Y-117007836D02*
X226255000Y-116792164D01*
X226975000Y-117007836D02*
X226975000Y-116792164D01*
%TO.C,R20*%
X208670000Y-136706359D02*
X208670000Y-137013641D01*
X209430000Y-136706359D02*
X209430000Y-137013641D01*
%TO.C,C7*%
X214672164Y-115690000D02*
X214887836Y-115690000D01*
X214672164Y-116410000D02*
X214887836Y-116410000D01*
%TO.C,R15*%
X191136359Y-116970000D02*
X191443641Y-116970000D01*
X191136359Y-117730000D02*
X191443641Y-117730000D01*
%TO.C,C124*%
X234402836Y-123190000D02*
X234187164Y-123190000D01*
X234402836Y-123910000D02*
X234187164Y-123910000D01*
%TO.C,C17*%
X227055000Y-124612164D02*
X227055000Y-124827836D01*
X227775000Y-124612164D02*
X227775000Y-124827836D01*
D13*
%TO.C,IC1*%
X222312000Y-143650000D02*
X228612000Y-143650000D01*
X222312000Y-149950000D02*
X222312000Y-143650000D01*
X228612000Y-143650000D02*
X228612000Y-149950000D01*
X228612000Y-149950000D02*
X222312000Y-149950000D01*
D14*
X221087000Y-142800000D02*
G75*
G02*
X220687000Y-142800000I-200000J0D01*
G01*
X220687000Y-142800000D02*
G75*
G02*
X221087000Y-142800000I200000J0D01*
G01*
D12*
%TO.C,R12*%
X214596359Y-120580000D02*
X214903641Y-120580000D01*
X214596359Y-121340000D02*
X214903641Y-121340000D01*
%TO.C,C125*%
X242437164Y-120590000D02*
X242652836Y-120590000D01*
X242437164Y-121310000D02*
X242652836Y-121310000D01*
%TO.C,C18*%
X225427164Y-125540000D02*
X225642836Y-125540000D01*
X225427164Y-126260000D02*
X225642836Y-126260000D01*
%TO.C,C16*%
X230807164Y-118940000D02*
X231022836Y-118940000D01*
X230807164Y-119660000D02*
X231022836Y-119660000D01*
%TO.C,C1*%
X234890000Y-153387836D02*
X234890000Y-153172164D01*
X235610000Y-153387836D02*
X235610000Y-153172164D01*
%TO.C,C14*%
X230827164Y-117890000D02*
X231042836Y-117890000D01*
X230827164Y-118610000D02*
X231042836Y-118610000D01*
D13*
%TO.C,S1*%
X219025000Y-156700000D02*
X219025000Y-156700000D01*
X219025000Y-156700000D02*
X219025000Y-156700000D01*
X219125000Y-156700000D02*
X219125000Y-156700000D01*
D15*
X221175000Y-155560000D02*
X221175000Y-155560000D01*
X221175000Y-155560000D02*
X238685000Y-155560000D01*
X221175000Y-157840000D02*
X221175000Y-157840000D01*
X221175000Y-157840000D02*
X238675000Y-157840000D01*
X238675000Y-157840000D02*
X221175000Y-157840000D01*
X238675000Y-157840000D02*
X238675000Y-157840000D01*
X238685000Y-155560000D02*
X221175000Y-155560000D01*
X238685000Y-155560000D02*
X238685000Y-155560000D01*
D13*
X219025000Y-156700000D02*
G75*
G02*
X219125000Y-156700000I50000J0D01*
G01*
X219125000Y-156700000D02*
G75*
G02*
X219025000Y-156700000I-50000J0D01*
G01*
X219125000Y-156700000D02*
G75*
G02*
X219025000Y-156700000I-50000J0D01*
G01*
%TO.C,FB1*%
X220225000Y-118500000D02*
X220225000Y-119100000D01*
D12*
%TO.C,R8*%
X244396359Y-131170000D02*
X244703641Y-131170000D01*
X244396359Y-131930000D02*
X244703641Y-131930000D01*
%TO.C,R5*%
X209520000Y-144156359D02*
X209520000Y-144463641D01*
X210280000Y-144156359D02*
X210280000Y-144463641D01*
%TO.C,C3*%
X218527836Y-143635000D02*
X218312164Y-143635000D01*
X218527836Y-144355000D02*
X218312164Y-144355000D01*
D15*
%TO.C,L2*%
X192755000Y-121430000D02*
X193555000Y-121430000D01*
X192755000Y-125930000D02*
X193555000Y-125930000D01*
D12*
%TO.C,C121*%
X232355000Y-121057836D02*
X232355000Y-120842164D01*
X233075000Y-121057836D02*
X233075000Y-120842164D01*
D15*
%TO.C,Y1*%
X226365000Y-130949999D02*
X226365000Y-130949999D01*
X226365000Y-131049999D02*
X226365000Y-131049999D01*
X226365000Y-130949999D02*
G75*
G02*
X226365000Y-131049999I0J-50000D01*
G01*
X226365000Y-131049999D02*
G75*
G02*
X226365000Y-130949999I0J50000D01*
G01*
D12*
%TO.C,R3*%
X237143641Y-153420000D02*
X236836359Y-153420000D01*
X237143641Y-154180000D02*
X236836359Y-154180000D01*
%TO.C,R19*%
X209406359Y-134620000D02*
X209713641Y-134620000D01*
X209406359Y-135380000D02*
X209713641Y-135380000D01*
%TO.C,C24*%
X216727836Y-130740000D02*
X216512164Y-130740000D01*
X216727836Y-131460000D02*
X216512164Y-131460000D01*
%TO.C,R1*%
X226593641Y-134070000D02*
X226286359Y-134070000D01*
X226593641Y-134830000D02*
X226286359Y-134830000D01*
%TO.C,C19*%
X229492836Y-125540000D02*
X229277164Y-125540000D01*
X229492836Y-126260000D02*
X229277164Y-126260000D01*
D13*
%TO.C,J1*%
X203800000Y-155375000D02*
X203800000Y-157525000D01*
X203800000Y-157525000D02*
X210950000Y-157525000D01*
X212100000Y-155375000D02*
X203800000Y-155375000D01*
X212100000Y-156450000D02*
X212100000Y-155375000D01*
D12*
%TO.C,C131*%
X233455000Y-120027836D02*
X233455000Y-119812164D01*
X234175000Y-120027836D02*
X234175000Y-119812164D01*
%TO.C,C6*%
X215040000Y-148581252D02*
X215040000Y-147158748D01*
X216860000Y-148581252D02*
X216860000Y-147158748D01*
%TO.C,C4*%
X217390000Y-149382836D02*
X217390000Y-149167164D01*
X218110000Y-149382836D02*
X218110000Y-149167164D01*
%TO.C,R6*%
X213703641Y-143470000D02*
X213396359Y-143470000D01*
X213703641Y-144230000D02*
X213396359Y-144230000D01*
%TO.C,ANT1*%
D15*
X268200000Y-120300000D02*
X261750000Y-120300000D01*
X261750000Y-148950000D01*
X268200000Y-148950000D01*
X268200000Y-120300000D01*
D12*
%TO.C,C8*%
X214662164Y-116850000D02*
X214877836Y-116850000D01*
X214662164Y-117570000D02*
X214877836Y-117570000D01*
%TO.C,C23*%
X216411252Y-128565000D02*
X215888748Y-128565000D01*
X216411252Y-130035000D02*
X215888748Y-130035000D01*
%TO.C,C123*%
X238605000Y-121507836D02*
X238605000Y-121292164D01*
X239325000Y-121507836D02*
X239325000Y-121292164D01*
%TO.C,C2*%
X218640000Y-147122164D02*
X218640000Y-147337836D01*
X219360000Y-147122164D02*
X219360000Y-147337836D01*
%TO.C,R18*%
X209336359Y-138270000D02*
X209643641Y-138270000D01*
X209336359Y-139030000D02*
X209643641Y-139030000D01*
%TO.C,R16*%
X197270000Y-118043641D02*
X197270000Y-117736359D01*
X198030000Y-118043641D02*
X198030000Y-117736359D01*
D13*
%TO.C,LS1*%
X188750000Y-128600000D02*
X189750000Y-128600000D01*
X188750000Y-146600000D02*
X188750000Y-128600000D01*
X189750000Y-146600000D02*
X188750000Y-146600000D01*
D15*
X193200000Y-147300000D02*
X193200000Y-147300000D01*
X193200000Y-147400000D02*
X193200000Y-147400000D01*
D13*
X196750000Y-128600000D02*
X198750000Y-128600000D01*
X198750000Y-146600000D02*
X196750000Y-146600000D01*
X205750000Y-128600000D02*
X206750000Y-128600000D01*
X206750000Y-128600000D02*
X206750000Y-146600000D01*
X206750000Y-146600000D02*
X205750000Y-146600000D01*
D15*
X193200000Y-147300000D02*
G75*
G02*
X193200000Y-147400000I0J-50000D01*
G01*
X193200000Y-147400000D02*
G75*
G02*
X193200000Y-147300000I0J50000D01*
G01*
D12*
%TO.C,R9*%
X244696359Y-137270000D02*
X245003641Y-137270000D01*
X244696359Y-138030000D02*
X245003641Y-138030000D01*
%TO.C,R17*%
X200500000Y-118093641D02*
X200500000Y-117786359D01*
X201260000Y-118093641D02*
X201260000Y-117786359D01*
%TO.C,C21*%
X199407836Y-117070000D02*
X199192164Y-117070000D01*
X199407836Y-117790000D02*
X199192164Y-117790000D01*
D13*
%TO.C,IC3*%
X194175000Y-116825000D02*
X194925000Y-116825000D01*
X194175000Y-119775000D02*
X194175000Y-116825000D01*
X194925000Y-116825000D02*
X194925000Y-119775000D01*
X194925000Y-119775000D02*
X194175000Y-119775000D01*
X196425000Y-119800000D02*
X195275000Y-119800000D01*
D12*
%TO.C,R4*%
X238820000Y-145896359D02*
X238820000Y-146203641D01*
X239580000Y-145896359D02*
X239580000Y-146203641D01*
%TO.C,C15*%
X230807164Y-122290000D02*
X231022836Y-122290000D01*
X230807164Y-123010000D02*
X231022836Y-123010000D01*
D15*
%TO.C,LED1*%
X249466500Y-129950000D02*
X249666500Y-129950000D01*
X249666500Y-129950000D02*
X249466500Y-129950000D01*
X249666500Y-133150000D02*
X249466500Y-133150000D01*
D13*
X252066500Y-131450000D02*
X252066500Y-131450000D01*
X252066500Y-131650000D02*
X252066500Y-131650000D01*
X252066500Y-131450000D02*
G75*
G02*
X252066500Y-131650000I0J-100000D01*
G01*
X252066500Y-131650000D02*
G75*
G02*
X252066500Y-131450000I0J100000D01*
G01*
D12*
%TO.C,R11*%
X214586359Y-119380000D02*
X214893641Y-119380000D01*
X214586359Y-120140000D02*
X214893641Y-120140000D01*
%TO.C,C5*%
X218640000Y-149352836D02*
X218640000Y-149137164D01*
X219360000Y-149352836D02*
X219360000Y-149137164D01*
%TO.C,R7*%
X211070000Y-144156359D02*
X211070000Y-144463641D01*
X211830000Y-144156359D02*
X211830000Y-144463641D01*
%TO.C,C20*%
X190666252Y-118170000D02*
X189243748Y-118170000D01*
X190666252Y-119990000D02*
X189243748Y-119990000D01*
%TO.C,R2*%
X238370000Y-153453641D02*
X238370000Y-153146359D01*
X239130000Y-153453641D02*
X239130000Y-153146359D01*
D15*
%TO.C,LED3*%
X247146500Y-143800000D02*
X247146500Y-143800000D01*
X247146500Y-143900000D02*
X247146500Y-143900000D01*
X247146500Y-143800000D02*
G75*
G02*
X247146500Y-143900000I0J-50000D01*
G01*
X247146500Y-143900000D02*
G75*
G02*
X247146500Y-143800000I0J50000D01*
G01*
D12*
%TO.C,C11*%
X222990000Y-122812164D02*
X222990000Y-123027836D01*
X223710000Y-122812164D02*
X223710000Y-123027836D01*
%TO.C,C22*%
X202845000Y-118468748D02*
X202845000Y-118991252D01*
X204315000Y-118468748D02*
X204315000Y-118991252D01*
D16*
%TO.C,IC2*%
X224650000Y-118950000D02*
G75*
G02*
X224400000Y-118950000I-125000J0D01*
G01*
X224400000Y-118950000D02*
G75*
G02*
X224650000Y-118950000I125000J0D01*
G01*
D12*
%TO.C,C10*%
X221940000Y-122812164D02*
X221940000Y-123027836D01*
X222660000Y-122812164D02*
X222660000Y-123027836D01*
%TO.C,R10*%
X244786359Y-143420000D02*
X245093641Y-143420000D01*
X244786359Y-144180000D02*
X245093641Y-144180000D01*
D13*
%TO.C,J2*%
X192350000Y-155130000D02*
X192350000Y-157770000D01*
X192350000Y-157770000D02*
X200470000Y-157770000D01*
X200470000Y-155130000D02*
X192350000Y-155130000D01*
X200470000Y-157770000D02*
X200470000Y-155130000D01*
D12*
%TO.C,C9*%
X218663748Y-115790000D02*
X220086252Y-115790000D01*
X218663748Y-117610000D02*
X220086252Y-117610000D01*
D13*
%TO.C,D1*%
X201075000Y-120080000D02*
X198385000Y-120080000D01*
X202055000Y-121680000D02*
X198385000Y-121680000D01*
D15*
%TO.C,LED2*%
X252716500Y-137650000D02*
X252716500Y-137650000D01*
X252816500Y-137650000D02*
X252816500Y-137650000D01*
X252716500Y-137650000D02*
G75*
G02*
X252816500Y-137650000I50000J0D01*
G01*
X252816500Y-137650000D02*
G75*
G02*
X252716500Y-137650000I-50000J0D01*
G01*
D13*
%TO.C,S2*%
X233450000Y-133750000D02*
X233450000Y-141150000D01*
X233450000Y-141150000D02*
X234350000Y-141150000D01*
X234350000Y-133750000D02*
X233450000Y-133750000D01*
D15*
X235150000Y-130850000D02*
X235150000Y-130850000D01*
X235150000Y-130950000D02*
X235150000Y-130950000D01*
D13*
X235950000Y-133750000D02*
X238350000Y-133750000D01*
X235950000Y-141150000D02*
X238350000Y-141150000D01*
X239950000Y-141150000D02*
X240850000Y-141150000D01*
X240850000Y-133750000D02*
X239950000Y-133750000D01*
X240850000Y-141150000D02*
X240850000Y-133750000D01*
D15*
X235150000Y-130850000D02*
G75*
G02*
X235150000Y-130950000I0J-50000D01*
G01*
X235150000Y-130950000D02*
G75*
G02*
X235150000Y-130850000I0J50000D01*
G01*
%TD*%
M02*
