%TF.GenerationSoftware,KiCad,Pcbnew,9.0.7*%
%TF.CreationDate,2026-08-28T14:20:31+01:00*%
%TF.ProjectId,sensor_rev1,73656e73-6f72-45f7-9265-76312e6b6963,REV1.0*%
%TF.SameCoordinates,Original*%
%TF.FileFunction,Legend,Bot*%
%TF.FilePolarity,Positive*%
%FSLAX46Y46*%
G04 Gerber Fmt 4.6, Leading zero omitted, Abs format (unit mm)*
G04 Created by KiCad (PCBNEW 9.0.7) date 2026-08-28 14:20:31*
%MOMM*%
%LPD*%
G01*
G04 APERTURE LIST*
%ADD10C,0.153000*%
%ADD11C,0.254000*%
%ADD12C,0.100000*%
%ADD13C,0.120000*%
%ADD14C,0.200000*%
%ADD15C,0.250000*%
G04 APERTURE END LIST*
D10*
X242579047Y-121257163D02*
X242912380Y-120780972D01*
X243150475Y-121257163D02*
X243150475Y-120257163D01*
X243150475Y-120257163D02*
X242769523Y-120257163D01*
X242769523Y-120257163D02*
X242674285Y-120304782D01*
X242674285Y-120304782D02*
X242626666Y-120352401D01*
X242626666Y-120352401D02*
X242579047Y-120447639D01*
X242579047Y-120447639D02*
X242579047Y-120590496D01*
X242579047Y-120590496D02*
X242626666Y-120685734D01*
X242626666Y-120685734D02*
X242674285Y-120733353D01*
X242674285Y-120733353D02*
X242769523Y-120780972D01*
X242769523Y-120780972D02*
X243150475Y-120780972D01*
X241626666Y-121257163D02*
X242198094Y-121257163D01*
X241912380Y-121257163D02*
X241912380Y-120257163D01*
X241912380Y-120257163D02*
X242007618Y-120400020D01*
X242007618Y-120400020D02*
X242102856Y-120495258D01*
X242102856Y-120495258D02*
X242198094Y-120542877D01*
X241293332Y-120257163D02*
X240626666Y-120257163D01*
X240626666Y-120257163D02*
X241055237Y-121257163D01*
X239721904Y-121257163D02*
X240293332Y-121257163D01*
X240007618Y-121257163D02*
X240007618Y-120257163D01*
X240007618Y-120257163D02*
X240102856Y-120400020D01*
X240102856Y-120400020D02*
X240198094Y-120495258D01*
X240198094Y-120495258D02*
X240293332Y-120542877D01*
X247971428Y-94980853D02*
X248304761Y-94980853D01*
X248304761Y-95504663D02*
X248304761Y-94504663D01*
X248304761Y-94504663D02*
X247828571Y-94504663D01*
X247447618Y-95504663D02*
X247447618Y-94504663D01*
X246971428Y-95504663D02*
X246971428Y-94504663D01*
X246971428Y-94504663D02*
X246733333Y-94504663D01*
X246733333Y-94504663D02*
X246590476Y-94552282D01*
X246590476Y-94552282D02*
X246495238Y-94647520D01*
X246495238Y-94647520D02*
X246447619Y-94742758D01*
X246447619Y-94742758D02*
X246400000Y-94933234D01*
X246400000Y-94933234D02*
X246400000Y-95076091D01*
X246400000Y-95076091D02*
X246447619Y-95266567D01*
X246447619Y-95266567D02*
X246495238Y-95361805D01*
X246495238Y-95361805D02*
X246590476Y-95457044D01*
X246590476Y-95457044D02*
X246733333Y-95504663D01*
X246733333Y-95504663D02*
X246971428Y-95504663D01*
X245542857Y-94837996D02*
X245542857Y-95504663D01*
X245780952Y-94457044D02*
X246019047Y-95171329D01*
X246019047Y-95171329D02*
X245400000Y-95171329D01*
X231599047Y-112771924D02*
X231646666Y-112819544D01*
X231646666Y-112819544D02*
X231789523Y-112867163D01*
X231789523Y-112867163D02*
X231884761Y-112867163D01*
X231884761Y-112867163D02*
X232027618Y-112819544D01*
X232027618Y-112819544D02*
X232122856Y-112724305D01*
X232122856Y-112724305D02*
X232170475Y-112629067D01*
X232170475Y-112629067D02*
X232218094Y-112438591D01*
X232218094Y-112438591D02*
X232218094Y-112295734D01*
X232218094Y-112295734D02*
X232170475Y-112105258D01*
X232170475Y-112105258D02*
X232122856Y-112010020D01*
X232122856Y-112010020D02*
X232027618Y-111914782D01*
X232027618Y-111914782D02*
X231884761Y-111867163D01*
X231884761Y-111867163D02*
X231789523Y-111867163D01*
X231789523Y-111867163D02*
X231646666Y-111914782D01*
X231646666Y-111914782D02*
X231599047Y-111962401D01*
X230646666Y-112867163D02*
X231218094Y-112867163D01*
X230932380Y-112867163D02*
X230932380Y-111867163D01*
X230932380Y-111867163D02*
X231027618Y-112010020D01*
X231027618Y-112010020D02*
X231122856Y-112105258D01*
X231122856Y-112105258D02*
X231218094Y-112152877D01*
X230265713Y-111962401D02*
X230218094Y-111914782D01*
X230218094Y-111914782D02*
X230122856Y-111867163D01*
X230122856Y-111867163D02*
X229884761Y-111867163D01*
X229884761Y-111867163D02*
X229789523Y-111914782D01*
X229789523Y-111914782D02*
X229741904Y-111962401D01*
X229741904Y-111962401D02*
X229694285Y-112057639D01*
X229694285Y-112057639D02*
X229694285Y-112152877D01*
X229694285Y-112152877D02*
X229741904Y-112295734D01*
X229741904Y-112295734D02*
X230313332Y-112867163D01*
X230313332Y-112867163D02*
X229694285Y-112867163D01*
X229313332Y-111962401D02*
X229265713Y-111914782D01*
X229265713Y-111914782D02*
X229170475Y-111867163D01*
X229170475Y-111867163D02*
X228932380Y-111867163D01*
X228932380Y-111867163D02*
X228837142Y-111914782D01*
X228837142Y-111914782D02*
X228789523Y-111962401D01*
X228789523Y-111962401D02*
X228741904Y-112057639D01*
X228741904Y-112057639D02*
X228741904Y-112152877D01*
X228741904Y-112152877D02*
X228789523Y-112295734D01*
X228789523Y-112295734D02*
X229360951Y-112867163D01*
X229360951Y-112867163D02*
X228741904Y-112867163D01*
X240716666Y-122541924D02*
X240764285Y-122589544D01*
X240764285Y-122589544D02*
X240907142Y-122637163D01*
X240907142Y-122637163D02*
X241002380Y-122637163D01*
X241002380Y-122637163D02*
X241145237Y-122589544D01*
X241145237Y-122589544D02*
X241240475Y-122494305D01*
X241240475Y-122494305D02*
X241288094Y-122399067D01*
X241288094Y-122399067D02*
X241335713Y-122208591D01*
X241335713Y-122208591D02*
X241335713Y-122065734D01*
X241335713Y-122065734D02*
X241288094Y-121875258D01*
X241288094Y-121875258D02*
X241240475Y-121780020D01*
X241240475Y-121780020D02*
X241145237Y-121684782D01*
X241145237Y-121684782D02*
X241002380Y-121637163D01*
X241002380Y-121637163D02*
X240907142Y-121637163D01*
X240907142Y-121637163D02*
X240764285Y-121684782D01*
X240764285Y-121684782D02*
X240716666Y-121732401D01*
X239811904Y-121637163D02*
X240288094Y-121637163D01*
X240288094Y-121637163D02*
X240335713Y-122113353D01*
X240335713Y-122113353D02*
X240288094Y-122065734D01*
X240288094Y-122065734D02*
X240192856Y-122018115D01*
X240192856Y-122018115D02*
X239954761Y-122018115D01*
X239954761Y-122018115D02*
X239859523Y-122065734D01*
X239859523Y-122065734D02*
X239811904Y-122113353D01*
X239811904Y-122113353D02*
X239764285Y-122208591D01*
X239764285Y-122208591D02*
X239764285Y-122446686D01*
X239764285Y-122446686D02*
X239811904Y-122541924D01*
X239811904Y-122541924D02*
X239859523Y-122589544D01*
X239859523Y-122589544D02*
X239954761Y-122637163D01*
X239954761Y-122637163D02*
X240192856Y-122637163D01*
X240192856Y-122637163D02*
X240288094Y-122589544D01*
X240288094Y-122589544D02*
X240335713Y-122541924D01*
X229779047Y-114111924D02*
X229826666Y-114159544D01*
X229826666Y-114159544D02*
X229969523Y-114207163D01*
X229969523Y-114207163D02*
X230064761Y-114207163D01*
X230064761Y-114207163D02*
X230207618Y-114159544D01*
X230207618Y-114159544D02*
X230302856Y-114064305D01*
X230302856Y-114064305D02*
X230350475Y-113969067D01*
X230350475Y-113969067D02*
X230398094Y-113778591D01*
X230398094Y-113778591D02*
X230398094Y-113635734D01*
X230398094Y-113635734D02*
X230350475Y-113445258D01*
X230350475Y-113445258D02*
X230302856Y-113350020D01*
X230302856Y-113350020D02*
X230207618Y-113254782D01*
X230207618Y-113254782D02*
X230064761Y-113207163D01*
X230064761Y-113207163D02*
X229969523Y-113207163D01*
X229969523Y-113207163D02*
X229826666Y-113254782D01*
X229826666Y-113254782D02*
X229779047Y-113302401D01*
X228826666Y-114207163D02*
X229398094Y-114207163D01*
X229112380Y-114207163D02*
X229112380Y-113207163D01*
X229112380Y-113207163D02*
X229207618Y-113350020D01*
X229207618Y-113350020D02*
X229302856Y-113445258D01*
X229302856Y-113445258D02*
X229398094Y-113492877D01*
X228445713Y-113302401D02*
X228398094Y-113254782D01*
X228398094Y-113254782D02*
X228302856Y-113207163D01*
X228302856Y-113207163D02*
X228064761Y-113207163D01*
X228064761Y-113207163D02*
X227969523Y-113254782D01*
X227969523Y-113254782D02*
X227921904Y-113302401D01*
X227921904Y-113302401D02*
X227874285Y-113397639D01*
X227874285Y-113397639D02*
X227874285Y-113492877D01*
X227874285Y-113492877D02*
X227921904Y-113635734D01*
X227921904Y-113635734D02*
X228493332Y-114207163D01*
X228493332Y-114207163D02*
X227874285Y-114207163D01*
X227017142Y-113540496D02*
X227017142Y-114207163D01*
X227255237Y-113159544D02*
X227493332Y-113873829D01*
X227493332Y-113873829D02*
X226874285Y-113873829D01*
X223509424Y-120369642D02*
X223557044Y-120322023D01*
X223557044Y-120322023D02*
X223604663Y-120179166D01*
X223604663Y-120179166D02*
X223604663Y-120083928D01*
X223604663Y-120083928D02*
X223557044Y-119941071D01*
X223557044Y-119941071D02*
X223461805Y-119845833D01*
X223461805Y-119845833D02*
X223366567Y-119798214D01*
X223366567Y-119798214D02*
X223176091Y-119750595D01*
X223176091Y-119750595D02*
X223033234Y-119750595D01*
X223033234Y-119750595D02*
X222842758Y-119798214D01*
X222842758Y-119798214D02*
X222747520Y-119845833D01*
X222747520Y-119845833D02*
X222652282Y-119941071D01*
X222652282Y-119941071D02*
X222604663Y-120083928D01*
X222604663Y-120083928D02*
X222604663Y-120179166D01*
X222604663Y-120179166D02*
X222652282Y-120322023D01*
X222652282Y-120322023D02*
X222699901Y-120369642D01*
X223604663Y-121322023D02*
X223604663Y-120750595D01*
X223604663Y-121036309D02*
X222604663Y-121036309D01*
X222604663Y-121036309D02*
X222747520Y-120941071D01*
X222747520Y-120941071D02*
X222842758Y-120845833D01*
X222842758Y-120845833D02*
X222890377Y-120750595D01*
X223604663Y-122274404D02*
X223604663Y-121702976D01*
X223604663Y-121988690D02*
X222604663Y-121988690D01*
X222604663Y-121988690D02*
X222747520Y-121893452D01*
X222747520Y-121893452D02*
X222842758Y-121798214D01*
X222842758Y-121798214D02*
X222890377Y-121702976D01*
X226786190Y-117560972D02*
X226786190Y-118037163D01*
X227119523Y-117037163D02*
X226786190Y-117560972D01*
X226786190Y-117560972D02*
X226452857Y-117037163D01*
X225595714Y-118037163D02*
X226167142Y-118037163D01*
X225881428Y-118037163D02*
X225881428Y-117037163D01*
X225881428Y-117037163D02*
X225976666Y-117180020D01*
X225976666Y-117180020D02*
X226071904Y-117275258D01*
X226071904Y-117275258D02*
X226167142Y-117322877D01*
X232269047Y-106601924D02*
X232316666Y-106649544D01*
X232316666Y-106649544D02*
X232459523Y-106697163D01*
X232459523Y-106697163D02*
X232554761Y-106697163D01*
X232554761Y-106697163D02*
X232697618Y-106649544D01*
X232697618Y-106649544D02*
X232792856Y-106554305D01*
X232792856Y-106554305D02*
X232840475Y-106459067D01*
X232840475Y-106459067D02*
X232888094Y-106268591D01*
X232888094Y-106268591D02*
X232888094Y-106125734D01*
X232888094Y-106125734D02*
X232840475Y-105935258D01*
X232840475Y-105935258D02*
X232792856Y-105840020D01*
X232792856Y-105840020D02*
X232697618Y-105744782D01*
X232697618Y-105744782D02*
X232554761Y-105697163D01*
X232554761Y-105697163D02*
X232459523Y-105697163D01*
X232459523Y-105697163D02*
X232316666Y-105744782D01*
X232316666Y-105744782D02*
X232269047Y-105792401D01*
X231316666Y-106697163D02*
X231888094Y-106697163D01*
X231602380Y-106697163D02*
X231602380Y-105697163D01*
X231602380Y-105697163D02*
X231697618Y-105840020D01*
X231697618Y-105840020D02*
X231792856Y-105935258D01*
X231792856Y-105935258D02*
X231888094Y-105982877D01*
X230935713Y-105792401D02*
X230888094Y-105744782D01*
X230888094Y-105744782D02*
X230792856Y-105697163D01*
X230792856Y-105697163D02*
X230554761Y-105697163D01*
X230554761Y-105697163D02*
X230459523Y-105744782D01*
X230459523Y-105744782D02*
X230411904Y-105792401D01*
X230411904Y-105792401D02*
X230364285Y-105887639D01*
X230364285Y-105887639D02*
X230364285Y-105982877D01*
X230364285Y-105982877D02*
X230411904Y-106125734D01*
X230411904Y-106125734D02*
X230983332Y-106697163D01*
X230983332Y-106697163D02*
X230364285Y-106697163D01*
X229459523Y-105697163D02*
X229935713Y-105697163D01*
X229935713Y-105697163D02*
X229983332Y-106173353D01*
X229983332Y-106173353D02*
X229935713Y-106125734D01*
X229935713Y-106125734D02*
X229840475Y-106078115D01*
X229840475Y-106078115D02*
X229602380Y-106078115D01*
X229602380Y-106078115D02*
X229507142Y-106125734D01*
X229507142Y-106125734D02*
X229459523Y-106173353D01*
X229459523Y-106173353D02*
X229411904Y-106268591D01*
X229411904Y-106268591D02*
X229411904Y-106506686D01*
X229411904Y-106506686D02*
X229459523Y-106601924D01*
X229459523Y-106601924D02*
X229507142Y-106649544D01*
X229507142Y-106649544D02*
X229602380Y-106697163D01*
X229602380Y-106697163D02*
X229840475Y-106697163D01*
X229840475Y-106697163D02*
X229935713Y-106649544D01*
X229935713Y-106649544D02*
X229983332Y-106601924D01*
X228172857Y-124479424D02*
X228220476Y-124527044D01*
X228220476Y-124527044D02*
X228363333Y-124574663D01*
X228363333Y-124574663D02*
X228458571Y-124574663D01*
X228458571Y-124574663D02*
X228601428Y-124527044D01*
X228601428Y-124527044D02*
X228696666Y-124431805D01*
X228696666Y-124431805D02*
X228744285Y-124336567D01*
X228744285Y-124336567D02*
X228791904Y-124146091D01*
X228791904Y-124146091D02*
X228791904Y-124003234D01*
X228791904Y-124003234D02*
X228744285Y-123812758D01*
X228744285Y-123812758D02*
X228696666Y-123717520D01*
X228696666Y-123717520D02*
X228601428Y-123622282D01*
X228601428Y-123622282D02*
X228458571Y-123574663D01*
X228458571Y-123574663D02*
X228363333Y-123574663D01*
X228363333Y-123574663D02*
X228220476Y-123622282D01*
X228220476Y-123622282D02*
X228172857Y-123669901D01*
X227601428Y-124003234D02*
X227696666Y-123955615D01*
X227696666Y-123955615D02*
X227744285Y-123907996D01*
X227744285Y-123907996D02*
X227791904Y-123812758D01*
X227791904Y-123812758D02*
X227791904Y-123765139D01*
X227791904Y-123765139D02*
X227744285Y-123669901D01*
X227744285Y-123669901D02*
X227696666Y-123622282D01*
X227696666Y-123622282D02*
X227601428Y-123574663D01*
X227601428Y-123574663D02*
X227410952Y-123574663D01*
X227410952Y-123574663D02*
X227315714Y-123622282D01*
X227315714Y-123622282D02*
X227268095Y-123669901D01*
X227268095Y-123669901D02*
X227220476Y-123765139D01*
X227220476Y-123765139D02*
X227220476Y-123812758D01*
X227220476Y-123812758D02*
X227268095Y-123907996D01*
X227268095Y-123907996D02*
X227315714Y-123955615D01*
X227315714Y-123955615D02*
X227410952Y-124003234D01*
X227410952Y-124003234D02*
X227601428Y-124003234D01*
X227601428Y-124003234D02*
X227696666Y-124050853D01*
X227696666Y-124050853D02*
X227744285Y-124098472D01*
X227744285Y-124098472D02*
X227791904Y-124193710D01*
X227791904Y-124193710D02*
X227791904Y-124384186D01*
X227791904Y-124384186D02*
X227744285Y-124479424D01*
X227744285Y-124479424D02*
X227696666Y-124527044D01*
X227696666Y-124527044D02*
X227601428Y-124574663D01*
X227601428Y-124574663D02*
X227410952Y-124574663D01*
X227410952Y-124574663D02*
X227315714Y-124527044D01*
X227315714Y-124527044D02*
X227268095Y-124479424D01*
X227268095Y-124479424D02*
X227220476Y-124384186D01*
X227220476Y-124384186D02*
X227220476Y-124193710D01*
X227220476Y-124193710D02*
X227268095Y-124098472D01*
X227268095Y-124098472D02*
X227315714Y-124050853D01*
X227315714Y-124050853D02*
X227410952Y-124003234D01*
X226268095Y-124574663D02*
X226839523Y-124574663D01*
X226553809Y-124574663D02*
X226553809Y-123574663D01*
X226553809Y-123574663D02*
X226649047Y-123717520D01*
X226649047Y-123717520D02*
X226744285Y-123812758D01*
X226744285Y-123812758D02*
X226839523Y-123860377D01*
X238592857Y-119991924D02*
X238640476Y-120039544D01*
X238640476Y-120039544D02*
X238783333Y-120087163D01*
X238783333Y-120087163D02*
X238878571Y-120087163D01*
X238878571Y-120087163D02*
X239021428Y-120039544D01*
X239021428Y-120039544D02*
X239116666Y-119944305D01*
X239116666Y-119944305D02*
X239164285Y-119849067D01*
X239164285Y-119849067D02*
X239211904Y-119658591D01*
X239211904Y-119658591D02*
X239211904Y-119515734D01*
X239211904Y-119515734D02*
X239164285Y-119325258D01*
X239164285Y-119325258D02*
X239116666Y-119230020D01*
X239116666Y-119230020D02*
X239021428Y-119134782D01*
X239021428Y-119134782D02*
X238878571Y-119087163D01*
X238878571Y-119087163D02*
X238783333Y-119087163D01*
X238783333Y-119087163D02*
X238640476Y-119134782D01*
X238640476Y-119134782D02*
X238592857Y-119182401D01*
X237640476Y-120087163D02*
X238211904Y-120087163D01*
X237926190Y-120087163D02*
X237926190Y-119087163D01*
X237926190Y-119087163D02*
X238021428Y-119230020D01*
X238021428Y-119230020D02*
X238116666Y-119325258D01*
X238116666Y-119325258D02*
X238211904Y-119372877D01*
X237021428Y-119087163D02*
X236926190Y-119087163D01*
X236926190Y-119087163D02*
X236830952Y-119134782D01*
X236830952Y-119134782D02*
X236783333Y-119182401D01*
X236783333Y-119182401D02*
X236735714Y-119277639D01*
X236735714Y-119277639D02*
X236688095Y-119468115D01*
X236688095Y-119468115D02*
X236688095Y-119706210D01*
X236688095Y-119706210D02*
X236735714Y-119896686D01*
X236735714Y-119896686D02*
X236783333Y-119991924D01*
X236783333Y-119991924D02*
X236830952Y-120039544D01*
X236830952Y-120039544D02*
X236926190Y-120087163D01*
X236926190Y-120087163D02*
X237021428Y-120087163D01*
X237021428Y-120087163D02*
X237116666Y-120039544D01*
X237116666Y-120039544D02*
X237164285Y-119991924D01*
X237164285Y-119991924D02*
X237211904Y-119896686D01*
X237211904Y-119896686D02*
X237259523Y-119706210D01*
X237259523Y-119706210D02*
X237259523Y-119468115D01*
X237259523Y-119468115D02*
X237211904Y-119277639D01*
X237211904Y-119277639D02*
X237164285Y-119182401D01*
X237164285Y-119182401D02*
X237116666Y-119134782D01*
X237116666Y-119134782D02*
X237021428Y-119087163D01*
X237531666Y-149049424D02*
X237579285Y-149097044D01*
X237579285Y-149097044D02*
X237722142Y-149144663D01*
X237722142Y-149144663D02*
X237817380Y-149144663D01*
X237817380Y-149144663D02*
X237960237Y-149097044D01*
X237960237Y-149097044D02*
X238055475Y-149001805D01*
X238055475Y-149001805D02*
X238103094Y-148906567D01*
X238103094Y-148906567D02*
X238150713Y-148716091D01*
X238150713Y-148716091D02*
X238150713Y-148573234D01*
X238150713Y-148573234D02*
X238103094Y-148382758D01*
X238103094Y-148382758D02*
X238055475Y-148287520D01*
X238055475Y-148287520D02*
X237960237Y-148192282D01*
X237960237Y-148192282D02*
X237817380Y-148144663D01*
X237817380Y-148144663D02*
X237722142Y-148144663D01*
X237722142Y-148144663D02*
X237579285Y-148192282D01*
X237579285Y-148192282D02*
X237531666Y-148239901D01*
X237150713Y-148239901D02*
X237103094Y-148192282D01*
X237103094Y-148192282D02*
X237007856Y-148144663D01*
X237007856Y-148144663D02*
X236769761Y-148144663D01*
X236769761Y-148144663D02*
X236674523Y-148192282D01*
X236674523Y-148192282D02*
X236626904Y-148239901D01*
X236626904Y-148239901D02*
X236579285Y-148335139D01*
X236579285Y-148335139D02*
X236579285Y-148430377D01*
X236579285Y-148430377D02*
X236626904Y-148573234D01*
X236626904Y-148573234D02*
X237198332Y-149144663D01*
X237198332Y-149144663D02*
X236579285Y-149144663D01*
X240176666Y-118811924D02*
X240224285Y-118859544D01*
X240224285Y-118859544D02*
X240367142Y-118907163D01*
X240367142Y-118907163D02*
X240462380Y-118907163D01*
X240462380Y-118907163D02*
X240605237Y-118859544D01*
X240605237Y-118859544D02*
X240700475Y-118764305D01*
X240700475Y-118764305D02*
X240748094Y-118669067D01*
X240748094Y-118669067D02*
X240795713Y-118478591D01*
X240795713Y-118478591D02*
X240795713Y-118335734D01*
X240795713Y-118335734D02*
X240748094Y-118145258D01*
X240748094Y-118145258D02*
X240700475Y-118050020D01*
X240700475Y-118050020D02*
X240605237Y-117954782D01*
X240605237Y-117954782D02*
X240462380Y-117907163D01*
X240462380Y-117907163D02*
X240367142Y-117907163D01*
X240367142Y-117907163D02*
X240224285Y-117954782D01*
X240224285Y-117954782D02*
X240176666Y-118002401D01*
X239319523Y-117907163D02*
X239509999Y-117907163D01*
X239509999Y-117907163D02*
X239605237Y-117954782D01*
X239605237Y-117954782D02*
X239652856Y-118002401D01*
X239652856Y-118002401D02*
X239748094Y-118145258D01*
X239748094Y-118145258D02*
X239795713Y-118335734D01*
X239795713Y-118335734D02*
X239795713Y-118716686D01*
X239795713Y-118716686D02*
X239748094Y-118811924D01*
X239748094Y-118811924D02*
X239700475Y-118859544D01*
X239700475Y-118859544D02*
X239605237Y-118907163D01*
X239605237Y-118907163D02*
X239414761Y-118907163D01*
X239414761Y-118907163D02*
X239319523Y-118859544D01*
X239319523Y-118859544D02*
X239271904Y-118811924D01*
X239271904Y-118811924D02*
X239224285Y-118716686D01*
X239224285Y-118716686D02*
X239224285Y-118478591D01*
X239224285Y-118478591D02*
X239271904Y-118383353D01*
X239271904Y-118383353D02*
X239319523Y-118335734D01*
X239319523Y-118335734D02*
X239414761Y-118288115D01*
X239414761Y-118288115D02*
X239605237Y-118288115D01*
X239605237Y-118288115D02*
X239700475Y-118335734D01*
X239700475Y-118335734D02*
X239748094Y-118383353D01*
X239748094Y-118383353D02*
X239795713Y-118478591D01*
X230927618Y-130974663D02*
X230927618Y-129974663D01*
X230927618Y-129974663D02*
X230594285Y-130688948D01*
X230594285Y-130688948D02*
X230260952Y-129974663D01*
X230260952Y-129974663D02*
X230260952Y-130974663D01*
X229594285Y-129974663D02*
X229403809Y-129974663D01*
X229403809Y-129974663D02*
X229308571Y-130022282D01*
X229308571Y-130022282D02*
X229213333Y-130117520D01*
X229213333Y-130117520D02*
X229165714Y-130307996D01*
X229165714Y-130307996D02*
X229165714Y-130641329D01*
X229165714Y-130641329D02*
X229213333Y-130831805D01*
X229213333Y-130831805D02*
X229308571Y-130927044D01*
X229308571Y-130927044D02*
X229403809Y-130974663D01*
X229403809Y-130974663D02*
X229594285Y-130974663D01*
X229594285Y-130974663D02*
X229689523Y-130927044D01*
X229689523Y-130927044D02*
X229784761Y-130831805D01*
X229784761Y-130831805D02*
X229832380Y-130641329D01*
X229832380Y-130641329D02*
X229832380Y-130307996D01*
X229832380Y-130307996D02*
X229784761Y-130117520D01*
X229784761Y-130117520D02*
X229689523Y-130022282D01*
X229689523Y-130022282D02*
X229594285Y-129974663D01*
X228784761Y-130927044D02*
X228641904Y-130974663D01*
X228641904Y-130974663D02*
X228403809Y-130974663D01*
X228403809Y-130974663D02*
X228308571Y-130927044D01*
X228308571Y-130927044D02*
X228260952Y-130879424D01*
X228260952Y-130879424D02*
X228213333Y-130784186D01*
X228213333Y-130784186D02*
X228213333Y-130688948D01*
X228213333Y-130688948D02*
X228260952Y-130593710D01*
X228260952Y-130593710D02*
X228308571Y-130546091D01*
X228308571Y-130546091D02*
X228403809Y-130498472D01*
X228403809Y-130498472D02*
X228594285Y-130450853D01*
X228594285Y-130450853D02*
X228689523Y-130403234D01*
X228689523Y-130403234D02*
X228737142Y-130355615D01*
X228737142Y-130355615D02*
X228784761Y-130260377D01*
X228784761Y-130260377D02*
X228784761Y-130165139D01*
X228784761Y-130165139D02*
X228737142Y-130069901D01*
X228737142Y-130069901D02*
X228689523Y-130022282D01*
X228689523Y-130022282D02*
X228594285Y-129974663D01*
X228594285Y-129974663D02*
X228356190Y-129974663D01*
X228356190Y-129974663D02*
X228213333Y-130022282D01*
X227784761Y-130974663D02*
X227784761Y-129974663D01*
X226784762Y-130974663D02*
X227356190Y-130974663D01*
X227070476Y-130974663D02*
X227070476Y-129974663D01*
X227070476Y-129974663D02*
X227165714Y-130117520D01*
X227165714Y-130117520D02*
X227260952Y-130212758D01*
X227260952Y-130212758D02*
X227356190Y-130260377D01*
X241326666Y-143669424D02*
X241374285Y-143717044D01*
X241374285Y-143717044D02*
X241517142Y-143764663D01*
X241517142Y-143764663D02*
X241612380Y-143764663D01*
X241612380Y-143764663D02*
X241755237Y-143717044D01*
X241755237Y-143717044D02*
X241850475Y-143621805D01*
X241850475Y-143621805D02*
X241898094Y-143526567D01*
X241898094Y-143526567D02*
X241945713Y-143336091D01*
X241945713Y-143336091D02*
X241945713Y-143193234D01*
X241945713Y-143193234D02*
X241898094Y-143002758D01*
X241898094Y-143002758D02*
X241850475Y-142907520D01*
X241850475Y-142907520D02*
X241755237Y-142812282D01*
X241755237Y-142812282D02*
X241612380Y-142764663D01*
X241612380Y-142764663D02*
X241517142Y-142764663D01*
X241517142Y-142764663D02*
X241374285Y-142812282D01*
X241374285Y-142812282D02*
X241326666Y-142859901D01*
X240469523Y-143097996D02*
X240469523Y-143764663D01*
X240707618Y-142717044D02*
X240945713Y-143431329D01*
X240945713Y-143431329D02*
X240326666Y-143431329D01*
X224446666Y-128759424D02*
X224494285Y-128807044D01*
X224494285Y-128807044D02*
X224637142Y-128854663D01*
X224637142Y-128854663D02*
X224732380Y-128854663D01*
X224732380Y-128854663D02*
X224875237Y-128807044D01*
X224875237Y-128807044D02*
X224970475Y-128711805D01*
X224970475Y-128711805D02*
X225018094Y-128616567D01*
X225018094Y-128616567D02*
X225065713Y-128426091D01*
X225065713Y-128426091D02*
X225065713Y-128283234D01*
X225065713Y-128283234D02*
X225018094Y-128092758D01*
X225018094Y-128092758D02*
X224970475Y-127997520D01*
X224970475Y-127997520D02*
X224875237Y-127902282D01*
X224875237Y-127902282D02*
X224732380Y-127854663D01*
X224732380Y-127854663D02*
X224637142Y-127854663D01*
X224637142Y-127854663D02*
X224494285Y-127902282D01*
X224494285Y-127902282D02*
X224446666Y-127949901D01*
X223494285Y-128854663D02*
X224065713Y-128854663D01*
X223779999Y-128854663D02*
X223779999Y-127854663D01*
X223779999Y-127854663D02*
X223875237Y-127997520D01*
X223875237Y-127997520D02*
X223970475Y-128092758D01*
X223970475Y-128092758D02*
X224065713Y-128140377D01*
X238670853Y-126986666D02*
X238670853Y-126653333D01*
X239194663Y-126653333D02*
X238194663Y-126653333D01*
X238194663Y-126653333D02*
X238194663Y-127129523D01*
X238670853Y-127843809D02*
X238718472Y-127986666D01*
X238718472Y-127986666D02*
X238766091Y-128034285D01*
X238766091Y-128034285D02*
X238861329Y-128081904D01*
X238861329Y-128081904D02*
X239004186Y-128081904D01*
X239004186Y-128081904D02*
X239099424Y-128034285D01*
X239099424Y-128034285D02*
X239147044Y-127986666D01*
X239147044Y-127986666D02*
X239194663Y-127891428D01*
X239194663Y-127891428D02*
X239194663Y-127510476D01*
X239194663Y-127510476D02*
X238194663Y-127510476D01*
X238194663Y-127510476D02*
X238194663Y-127843809D01*
X238194663Y-127843809D02*
X238242282Y-127939047D01*
X238242282Y-127939047D02*
X238289901Y-127986666D01*
X238289901Y-127986666D02*
X238385139Y-128034285D01*
X238385139Y-128034285D02*
X238480377Y-128034285D01*
X238480377Y-128034285D02*
X238575615Y-127986666D01*
X238575615Y-127986666D02*
X238623234Y-127939047D01*
X238623234Y-127939047D02*
X238670853Y-127843809D01*
X238670853Y-127843809D02*
X238670853Y-127510476D01*
X239194663Y-129034285D02*
X239194663Y-128462857D01*
X239194663Y-128748571D02*
X238194663Y-128748571D01*
X238194663Y-128748571D02*
X238337520Y-128653333D01*
X238337520Y-128653333D02*
X238432758Y-128558095D01*
X238432758Y-128558095D02*
X238480377Y-128462857D01*
X239549047Y-116061924D02*
X239596666Y-116109544D01*
X239596666Y-116109544D02*
X239739523Y-116157163D01*
X239739523Y-116157163D02*
X239834761Y-116157163D01*
X239834761Y-116157163D02*
X239977618Y-116109544D01*
X239977618Y-116109544D02*
X240072856Y-116014305D01*
X240072856Y-116014305D02*
X240120475Y-115919067D01*
X240120475Y-115919067D02*
X240168094Y-115728591D01*
X240168094Y-115728591D02*
X240168094Y-115585734D01*
X240168094Y-115585734D02*
X240120475Y-115395258D01*
X240120475Y-115395258D02*
X240072856Y-115300020D01*
X240072856Y-115300020D02*
X239977618Y-115204782D01*
X239977618Y-115204782D02*
X239834761Y-115157163D01*
X239834761Y-115157163D02*
X239739523Y-115157163D01*
X239739523Y-115157163D02*
X239596666Y-115204782D01*
X239596666Y-115204782D02*
X239549047Y-115252401D01*
X238596666Y-116157163D02*
X239168094Y-116157163D01*
X238882380Y-116157163D02*
X238882380Y-115157163D01*
X238882380Y-115157163D02*
X238977618Y-115300020D01*
X238977618Y-115300020D02*
X239072856Y-115395258D01*
X239072856Y-115395258D02*
X239168094Y-115442877D01*
X238215713Y-115252401D02*
X238168094Y-115204782D01*
X238168094Y-115204782D02*
X238072856Y-115157163D01*
X238072856Y-115157163D02*
X237834761Y-115157163D01*
X237834761Y-115157163D02*
X237739523Y-115204782D01*
X237739523Y-115204782D02*
X237691904Y-115252401D01*
X237691904Y-115252401D02*
X237644285Y-115347639D01*
X237644285Y-115347639D02*
X237644285Y-115442877D01*
X237644285Y-115442877D02*
X237691904Y-115585734D01*
X237691904Y-115585734D02*
X238263332Y-116157163D01*
X238263332Y-116157163D02*
X237644285Y-116157163D01*
X236691904Y-116157163D02*
X237263332Y-116157163D01*
X236977618Y-116157163D02*
X236977618Y-115157163D01*
X236977618Y-115157163D02*
X237072856Y-115300020D01*
X237072856Y-115300020D02*
X237168094Y-115395258D01*
X237168094Y-115395258D02*
X237263332Y-115442877D01*
X231639047Y-111487163D02*
X232115237Y-111487163D01*
X232115237Y-111487163D02*
X232115237Y-110487163D01*
X230781904Y-111487163D02*
X231353332Y-111487163D01*
X231067618Y-111487163D02*
X231067618Y-110487163D01*
X231067618Y-110487163D02*
X231162856Y-110630020D01*
X231162856Y-110630020D02*
X231258094Y-110725258D01*
X231258094Y-110725258D02*
X231353332Y-110772877D01*
X230400951Y-110582401D02*
X230353332Y-110534782D01*
X230353332Y-110534782D02*
X230258094Y-110487163D01*
X230258094Y-110487163D02*
X230019999Y-110487163D01*
X230019999Y-110487163D02*
X229924761Y-110534782D01*
X229924761Y-110534782D02*
X229877142Y-110582401D01*
X229877142Y-110582401D02*
X229829523Y-110677639D01*
X229829523Y-110677639D02*
X229829523Y-110772877D01*
X229829523Y-110772877D02*
X229877142Y-110915734D01*
X229877142Y-110915734D02*
X230448570Y-111487163D01*
X230448570Y-111487163D02*
X229829523Y-111487163D01*
X229496189Y-110487163D02*
X228877142Y-110487163D01*
X228877142Y-110487163D02*
X229210475Y-110868115D01*
X229210475Y-110868115D02*
X229067618Y-110868115D01*
X229067618Y-110868115D02*
X228972380Y-110915734D01*
X228972380Y-110915734D02*
X228924761Y-110963353D01*
X228924761Y-110963353D02*
X228877142Y-111058591D01*
X228877142Y-111058591D02*
X228877142Y-111296686D01*
X228877142Y-111296686D02*
X228924761Y-111391924D01*
X228924761Y-111391924D02*
X228972380Y-111439544D01*
X228972380Y-111439544D02*
X229067618Y-111487163D01*
X229067618Y-111487163D02*
X229353332Y-111487163D01*
X229353332Y-111487163D02*
X229448570Y-111439544D01*
X229448570Y-111439544D02*
X229496189Y-111391924D01*
X247153333Y-137104663D02*
X247153333Y-137818948D01*
X247153333Y-137818948D02*
X247200952Y-137961805D01*
X247200952Y-137961805D02*
X247296190Y-138057044D01*
X247296190Y-138057044D02*
X247439047Y-138104663D01*
X247439047Y-138104663D02*
X247534285Y-138104663D01*
X246153333Y-138104663D02*
X246724761Y-138104663D01*
X246439047Y-138104663D02*
X246439047Y-137104663D01*
X246439047Y-137104663D02*
X246534285Y-137247520D01*
X246534285Y-137247520D02*
X246629523Y-137342758D01*
X246629523Y-137342758D02*
X246724761Y-137390377D01*
X232589047Y-117337163D02*
X233065237Y-117337163D01*
X233065237Y-117337163D02*
X233065237Y-116337163D01*
X231731904Y-117337163D02*
X232303332Y-117337163D01*
X232017618Y-117337163D02*
X232017618Y-116337163D01*
X232017618Y-116337163D02*
X232112856Y-116480020D01*
X232112856Y-116480020D02*
X232208094Y-116575258D01*
X232208094Y-116575258D02*
X232303332Y-116622877D01*
X231350951Y-116432401D02*
X231303332Y-116384782D01*
X231303332Y-116384782D02*
X231208094Y-116337163D01*
X231208094Y-116337163D02*
X230969999Y-116337163D01*
X230969999Y-116337163D02*
X230874761Y-116384782D01*
X230874761Y-116384782D02*
X230827142Y-116432401D01*
X230827142Y-116432401D02*
X230779523Y-116527639D01*
X230779523Y-116527639D02*
X230779523Y-116622877D01*
X230779523Y-116622877D02*
X230827142Y-116765734D01*
X230827142Y-116765734D02*
X231398570Y-117337163D01*
X231398570Y-117337163D02*
X230779523Y-117337163D01*
X229827142Y-117337163D02*
X230398570Y-117337163D01*
X230112856Y-117337163D02*
X230112856Y-116337163D01*
X230112856Y-116337163D02*
X230208094Y-116480020D01*
X230208094Y-116480020D02*
X230303332Y-116575258D01*
X230303332Y-116575258D02*
X230398570Y-116622877D01*
X226662857Y-136999424D02*
X226710476Y-137047044D01*
X226710476Y-137047044D02*
X226853333Y-137094663D01*
X226853333Y-137094663D02*
X226948571Y-137094663D01*
X226948571Y-137094663D02*
X227091428Y-137047044D01*
X227091428Y-137047044D02*
X227186666Y-136951805D01*
X227186666Y-136951805D02*
X227234285Y-136856567D01*
X227234285Y-136856567D02*
X227281904Y-136666091D01*
X227281904Y-136666091D02*
X227281904Y-136523234D01*
X227281904Y-136523234D02*
X227234285Y-136332758D01*
X227234285Y-136332758D02*
X227186666Y-136237520D01*
X227186666Y-136237520D02*
X227091428Y-136142282D01*
X227091428Y-136142282D02*
X226948571Y-136094663D01*
X226948571Y-136094663D02*
X226853333Y-136094663D01*
X226853333Y-136094663D02*
X226710476Y-136142282D01*
X226710476Y-136142282D02*
X226662857Y-136189901D01*
X226281904Y-137047044D02*
X226139047Y-137094663D01*
X226139047Y-137094663D02*
X225900952Y-137094663D01*
X225900952Y-137094663D02*
X225805714Y-137047044D01*
X225805714Y-137047044D02*
X225758095Y-136999424D01*
X225758095Y-136999424D02*
X225710476Y-136904186D01*
X225710476Y-136904186D02*
X225710476Y-136808948D01*
X225710476Y-136808948D02*
X225758095Y-136713710D01*
X225758095Y-136713710D02*
X225805714Y-136666091D01*
X225805714Y-136666091D02*
X225900952Y-136618472D01*
X225900952Y-136618472D02*
X226091428Y-136570853D01*
X226091428Y-136570853D02*
X226186666Y-136523234D01*
X226186666Y-136523234D02*
X226234285Y-136475615D01*
X226234285Y-136475615D02*
X226281904Y-136380377D01*
X226281904Y-136380377D02*
X226281904Y-136285139D01*
X226281904Y-136285139D02*
X226234285Y-136189901D01*
X226234285Y-136189901D02*
X226186666Y-136142282D01*
X226186666Y-136142282D02*
X226091428Y-136094663D01*
X226091428Y-136094663D02*
X225853333Y-136094663D01*
X225853333Y-136094663D02*
X225710476Y-136142282D01*
X224758095Y-137094663D02*
X225329523Y-137094663D01*
X225043809Y-137094663D02*
X225043809Y-136094663D01*
X225043809Y-136094663D02*
X225139047Y-136237520D01*
X225139047Y-136237520D02*
X225234285Y-136332758D01*
X225234285Y-136332758D02*
X225329523Y-136380377D01*
X228989424Y-115203452D02*
X229037044Y-115155833D01*
X229037044Y-115155833D02*
X229084663Y-115012976D01*
X229084663Y-115012976D02*
X229084663Y-114917738D01*
X229084663Y-114917738D02*
X229037044Y-114774881D01*
X229037044Y-114774881D02*
X228941805Y-114679643D01*
X228941805Y-114679643D02*
X228846567Y-114632024D01*
X228846567Y-114632024D02*
X228656091Y-114584405D01*
X228656091Y-114584405D02*
X228513234Y-114584405D01*
X228513234Y-114584405D02*
X228322758Y-114632024D01*
X228322758Y-114632024D02*
X228227520Y-114679643D01*
X228227520Y-114679643D02*
X228132282Y-114774881D01*
X228132282Y-114774881D02*
X228084663Y-114917738D01*
X228084663Y-114917738D02*
X228084663Y-115012976D01*
X228084663Y-115012976D02*
X228132282Y-115155833D01*
X228132282Y-115155833D02*
X228179901Y-115203452D01*
X229084663Y-116155833D02*
X229084663Y-115584405D01*
X229084663Y-115870119D02*
X228084663Y-115870119D01*
X228084663Y-115870119D02*
X228227520Y-115774881D01*
X228227520Y-115774881D02*
X228322758Y-115679643D01*
X228322758Y-115679643D02*
X228370377Y-115584405D01*
X228084663Y-116774881D02*
X228084663Y-116870119D01*
X228084663Y-116870119D02*
X228132282Y-116965357D01*
X228132282Y-116965357D02*
X228179901Y-117012976D01*
X228179901Y-117012976D02*
X228275139Y-117060595D01*
X228275139Y-117060595D02*
X228465615Y-117108214D01*
X228465615Y-117108214D02*
X228703710Y-117108214D01*
X228703710Y-117108214D02*
X228894186Y-117060595D01*
X228894186Y-117060595D02*
X228989424Y-117012976D01*
X228989424Y-117012976D02*
X229037044Y-116965357D01*
X229037044Y-116965357D02*
X229084663Y-116870119D01*
X229084663Y-116870119D02*
X229084663Y-116774881D01*
X229084663Y-116774881D02*
X229037044Y-116679643D01*
X229037044Y-116679643D02*
X228989424Y-116632024D01*
X228989424Y-116632024D02*
X228894186Y-116584405D01*
X228894186Y-116584405D02*
X228703710Y-116536786D01*
X228703710Y-116536786D02*
X228465615Y-116536786D01*
X228465615Y-116536786D02*
X228275139Y-116584405D01*
X228275139Y-116584405D02*
X228179901Y-116632024D01*
X228179901Y-116632024D02*
X228132282Y-116679643D01*
X228132282Y-116679643D02*
X228084663Y-116774881D01*
X229084663Y-118060595D02*
X229084663Y-117489167D01*
X229084663Y-117774881D02*
X228084663Y-117774881D01*
X228084663Y-117774881D02*
X228227520Y-117679643D01*
X228227520Y-117679643D02*
X228322758Y-117584405D01*
X228322758Y-117584405D02*
X228370377Y-117489167D01*
X239379047Y-114671924D02*
X239426666Y-114719544D01*
X239426666Y-114719544D02*
X239569523Y-114767163D01*
X239569523Y-114767163D02*
X239664761Y-114767163D01*
X239664761Y-114767163D02*
X239807618Y-114719544D01*
X239807618Y-114719544D02*
X239902856Y-114624305D01*
X239902856Y-114624305D02*
X239950475Y-114529067D01*
X239950475Y-114529067D02*
X239998094Y-114338591D01*
X239998094Y-114338591D02*
X239998094Y-114195734D01*
X239998094Y-114195734D02*
X239950475Y-114005258D01*
X239950475Y-114005258D02*
X239902856Y-113910020D01*
X239902856Y-113910020D02*
X239807618Y-113814782D01*
X239807618Y-113814782D02*
X239664761Y-113767163D01*
X239664761Y-113767163D02*
X239569523Y-113767163D01*
X239569523Y-113767163D02*
X239426666Y-113814782D01*
X239426666Y-113814782D02*
X239379047Y-113862401D01*
X238426666Y-114767163D02*
X238998094Y-114767163D01*
X238712380Y-114767163D02*
X238712380Y-113767163D01*
X238712380Y-113767163D02*
X238807618Y-113910020D01*
X238807618Y-113910020D02*
X238902856Y-114005258D01*
X238902856Y-114005258D02*
X238998094Y-114052877D01*
X238093332Y-113767163D02*
X237474285Y-113767163D01*
X237474285Y-113767163D02*
X237807618Y-114148115D01*
X237807618Y-114148115D02*
X237664761Y-114148115D01*
X237664761Y-114148115D02*
X237569523Y-114195734D01*
X237569523Y-114195734D02*
X237521904Y-114243353D01*
X237521904Y-114243353D02*
X237474285Y-114338591D01*
X237474285Y-114338591D02*
X237474285Y-114576686D01*
X237474285Y-114576686D02*
X237521904Y-114671924D01*
X237521904Y-114671924D02*
X237569523Y-114719544D01*
X237569523Y-114719544D02*
X237664761Y-114767163D01*
X237664761Y-114767163D02*
X237950475Y-114767163D01*
X237950475Y-114767163D02*
X238045713Y-114719544D01*
X238045713Y-114719544D02*
X238093332Y-114671924D01*
X236521904Y-114767163D02*
X237093332Y-114767163D01*
X236807618Y-114767163D02*
X236807618Y-113767163D01*
X236807618Y-113767163D02*
X236902856Y-113910020D01*
X236902856Y-113910020D02*
X236998094Y-114005258D01*
X236998094Y-114005258D02*
X237093332Y-114052877D01*
X231709047Y-110071924D02*
X231756666Y-110119544D01*
X231756666Y-110119544D02*
X231899523Y-110167163D01*
X231899523Y-110167163D02*
X231994761Y-110167163D01*
X231994761Y-110167163D02*
X232137618Y-110119544D01*
X232137618Y-110119544D02*
X232232856Y-110024305D01*
X232232856Y-110024305D02*
X232280475Y-109929067D01*
X232280475Y-109929067D02*
X232328094Y-109738591D01*
X232328094Y-109738591D02*
X232328094Y-109595734D01*
X232328094Y-109595734D02*
X232280475Y-109405258D01*
X232280475Y-109405258D02*
X232232856Y-109310020D01*
X232232856Y-109310020D02*
X232137618Y-109214782D01*
X232137618Y-109214782D02*
X231994761Y-109167163D01*
X231994761Y-109167163D02*
X231899523Y-109167163D01*
X231899523Y-109167163D02*
X231756666Y-109214782D01*
X231756666Y-109214782D02*
X231709047Y-109262401D01*
X230756666Y-110167163D02*
X231328094Y-110167163D01*
X231042380Y-110167163D02*
X231042380Y-109167163D01*
X231042380Y-109167163D02*
X231137618Y-109310020D01*
X231137618Y-109310020D02*
X231232856Y-109405258D01*
X231232856Y-109405258D02*
X231328094Y-109452877D01*
X230375713Y-109262401D02*
X230328094Y-109214782D01*
X230328094Y-109214782D02*
X230232856Y-109167163D01*
X230232856Y-109167163D02*
X229994761Y-109167163D01*
X229994761Y-109167163D02*
X229899523Y-109214782D01*
X229899523Y-109214782D02*
X229851904Y-109262401D01*
X229851904Y-109262401D02*
X229804285Y-109357639D01*
X229804285Y-109357639D02*
X229804285Y-109452877D01*
X229804285Y-109452877D02*
X229851904Y-109595734D01*
X229851904Y-109595734D02*
X230423332Y-110167163D01*
X230423332Y-110167163D02*
X229804285Y-110167163D01*
X229470951Y-109167163D02*
X228851904Y-109167163D01*
X228851904Y-109167163D02*
X229185237Y-109548115D01*
X229185237Y-109548115D02*
X229042380Y-109548115D01*
X229042380Y-109548115D02*
X228947142Y-109595734D01*
X228947142Y-109595734D02*
X228899523Y-109643353D01*
X228899523Y-109643353D02*
X228851904Y-109738591D01*
X228851904Y-109738591D02*
X228851904Y-109976686D01*
X228851904Y-109976686D02*
X228899523Y-110071924D01*
X228899523Y-110071924D02*
X228947142Y-110119544D01*
X228947142Y-110119544D02*
X229042380Y-110167163D01*
X229042380Y-110167163D02*
X229328094Y-110167163D01*
X229328094Y-110167163D02*
X229423332Y-110119544D01*
X229423332Y-110119544D02*
X229470951Y-110071924D01*
X235063333Y-152144663D02*
X235063333Y-152858948D01*
X235063333Y-152858948D02*
X235110952Y-153001805D01*
X235110952Y-153001805D02*
X235206190Y-153097044D01*
X235206190Y-153097044D02*
X235349047Y-153144663D01*
X235349047Y-153144663D02*
X235444285Y-153144663D01*
X234634761Y-152239901D02*
X234587142Y-152192282D01*
X234587142Y-152192282D02*
X234491904Y-152144663D01*
X234491904Y-152144663D02*
X234253809Y-152144663D01*
X234253809Y-152144663D02*
X234158571Y-152192282D01*
X234158571Y-152192282D02*
X234110952Y-152239901D01*
X234110952Y-152239901D02*
X234063333Y-152335139D01*
X234063333Y-152335139D02*
X234063333Y-152430377D01*
X234063333Y-152430377D02*
X234110952Y-152573234D01*
X234110952Y-152573234D02*
X234682380Y-153144663D01*
X234682380Y-153144663D02*
X234063333Y-153144663D01*
X235651904Y-135067044D02*
X235509047Y-135114663D01*
X235509047Y-135114663D02*
X235270952Y-135114663D01*
X235270952Y-135114663D02*
X235175714Y-135067044D01*
X235175714Y-135067044D02*
X235128095Y-135019424D01*
X235128095Y-135019424D02*
X235080476Y-134924186D01*
X235080476Y-134924186D02*
X235080476Y-134828948D01*
X235080476Y-134828948D02*
X235128095Y-134733710D01*
X235128095Y-134733710D02*
X235175714Y-134686091D01*
X235175714Y-134686091D02*
X235270952Y-134638472D01*
X235270952Y-134638472D02*
X235461428Y-134590853D01*
X235461428Y-134590853D02*
X235556666Y-134543234D01*
X235556666Y-134543234D02*
X235604285Y-134495615D01*
X235604285Y-134495615D02*
X235651904Y-134400377D01*
X235651904Y-134400377D02*
X235651904Y-134305139D01*
X235651904Y-134305139D02*
X235604285Y-134209901D01*
X235604285Y-134209901D02*
X235556666Y-134162282D01*
X235556666Y-134162282D02*
X235461428Y-134114663D01*
X235461428Y-134114663D02*
X235223333Y-134114663D01*
X235223333Y-134114663D02*
X235080476Y-134162282D01*
X234699523Y-134209901D02*
X234651904Y-134162282D01*
X234651904Y-134162282D02*
X234556666Y-134114663D01*
X234556666Y-134114663D02*
X234318571Y-134114663D01*
X234318571Y-134114663D02*
X234223333Y-134162282D01*
X234223333Y-134162282D02*
X234175714Y-134209901D01*
X234175714Y-134209901D02*
X234128095Y-134305139D01*
X234128095Y-134305139D02*
X234128095Y-134400377D01*
X234128095Y-134400377D02*
X234175714Y-134543234D01*
X234175714Y-134543234D02*
X234747142Y-135114663D01*
X234747142Y-135114663D02*
X234128095Y-135114663D01*
X238979047Y-108607163D02*
X239455237Y-108607163D01*
X239455237Y-108607163D02*
X239455237Y-107607163D01*
X238121904Y-108607163D02*
X238693332Y-108607163D01*
X238407618Y-108607163D02*
X238407618Y-107607163D01*
X238407618Y-107607163D02*
X238502856Y-107750020D01*
X238502856Y-107750020D02*
X238598094Y-107845258D01*
X238598094Y-107845258D02*
X238693332Y-107892877D01*
X237740951Y-107702401D02*
X237693332Y-107654782D01*
X237693332Y-107654782D02*
X237598094Y-107607163D01*
X237598094Y-107607163D02*
X237359999Y-107607163D01*
X237359999Y-107607163D02*
X237264761Y-107654782D01*
X237264761Y-107654782D02*
X237217142Y-107702401D01*
X237217142Y-107702401D02*
X237169523Y-107797639D01*
X237169523Y-107797639D02*
X237169523Y-107892877D01*
X237169523Y-107892877D02*
X237217142Y-108035734D01*
X237217142Y-108035734D02*
X237788570Y-108607163D01*
X237788570Y-108607163D02*
X237169523Y-108607163D01*
X236312380Y-107940496D02*
X236312380Y-108607163D01*
X236550475Y-107559544D02*
X236788570Y-108273829D01*
X236788570Y-108273829D02*
X236169523Y-108273829D01*
X233179046Y-104138948D02*
X232702856Y-104138948D01*
X233274284Y-104424663D02*
X232940951Y-103424663D01*
X232940951Y-103424663D02*
X232607618Y-104424663D01*
X232274284Y-104424663D02*
X232274284Y-103424663D01*
X232274284Y-103424663D02*
X231702856Y-104424663D01*
X231702856Y-104424663D02*
X231702856Y-103424663D01*
X231369522Y-103424663D02*
X230798094Y-103424663D01*
X231083808Y-104424663D02*
X231083808Y-103424663D01*
X229940951Y-104424663D02*
X230512379Y-104424663D01*
X230226665Y-104424663D02*
X230226665Y-103424663D01*
X230226665Y-103424663D02*
X230321903Y-103567520D01*
X230321903Y-103567520D02*
X230417141Y-103662758D01*
X230417141Y-103662758D02*
X230512379Y-103710377D01*
X227674285Y-138252282D02*
X227769523Y-138204663D01*
X227769523Y-138204663D02*
X227912380Y-138204663D01*
X227912380Y-138204663D02*
X228055237Y-138252282D01*
X228055237Y-138252282D02*
X228150475Y-138347520D01*
X228150475Y-138347520D02*
X228198094Y-138442758D01*
X228198094Y-138442758D02*
X228245713Y-138633234D01*
X228245713Y-138633234D02*
X228245713Y-138776091D01*
X228245713Y-138776091D02*
X228198094Y-138966567D01*
X228198094Y-138966567D02*
X228150475Y-139061805D01*
X228150475Y-139061805D02*
X228055237Y-139157044D01*
X228055237Y-139157044D02*
X227912380Y-139204663D01*
X227912380Y-139204663D02*
X227817142Y-139204663D01*
X227817142Y-139204663D02*
X227674285Y-139157044D01*
X227674285Y-139157044D02*
X227626666Y-139109424D01*
X227626666Y-139109424D02*
X227626666Y-138776091D01*
X227626666Y-138776091D02*
X227817142Y-138776091D01*
X227198094Y-139204663D02*
X227198094Y-138204663D01*
X227198094Y-138204663D02*
X226959999Y-138204663D01*
X226959999Y-138204663D02*
X226817142Y-138252282D01*
X226817142Y-138252282D02*
X226721904Y-138347520D01*
X226721904Y-138347520D02*
X226674285Y-138442758D01*
X226674285Y-138442758D02*
X226626666Y-138633234D01*
X226626666Y-138633234D02*
X226626666Y-138776091D01*
X226626666Y-138776091D02*
X226674285Y-138966567D01*
X226674285Y-138966567D02*
X226721904Y-139061805D01*
X226721904Y-139061805D02*
X226817142Y-139157044D01*
X226817142Y-139157044D02*
X226959999Y-139204663D01*
X226959999Y-139204663D02*
X227198094Y-139204663D01*
X226007618Y-138204663D02*
X225912380Y-138204663D01*
X225912380Y-138204663D02*
X225817142Y-138252282D01*
X225817142Y-138252282D02*
X225769523Y-138299901D01*
X225769523Y-138299901D02*
X225721904Y-138395139D01*
X225721904Y-138395139D02*
X225674285Y-138585615D01*
X225674285Y-138585615D02*
X225674285Y-138823710D01*
X225674285Y-138823710D02*
X225721904Y-139014186D01*
X225721904Y-139014186D02*
X225769523Y-139109424D01*
X225769523Y-139109424D02*
X225817142Y-139157044D01*
X225817142Y-139157044D02*
X225912380Y-139204663D01*
X225912380Y-139204663D02*
X226007618Y-139204663D01*
X226007618Y-139204663D02*
X226102856Y-139157044D01*
X226102856Y-139157044D02*
X226150475Y-139109424D01*
X226150475Y-139109424D02*
X226198094Y-139014186D01*
X226198094Y-139014186D02*
X226245713Y-138823710D01*
X226245713Y-138823710D02*
X226245713Y-138585615D01*
X226245713Y-138585615D02*
X226198094Y-138395139D01*
X226198094Y-138395139D02*
X226150475Y-138299901D01*
X226150475Y-138299901D02*
X226102856Y-138252282D01*
X226102856Y-138252282D02*
X226007618Y-138204663D01*
X232596189Y-124297163D02*
X232596189Y-123297163D01*
X231548571Y-124201924D02*
X231596190Y-124249544D01*
X231596190Y-124249544D02*
X231739047Y-124297163D01*
X231739047Y-124297163D02*
X231834285Y-124297163D01*
X231834285Y-124297163D02*
X231977142Y-124249544D01*
X231977142Y-124249544D02*
X232072380Y-124154305D01*
X232072380Y-124154305D02*
X232119999Y-124059067D01*
X232119999Y-124059067D02*
X232167618Y-123868591D01*
X232167618Y-123868591D02*
X232167618Y-123725734D01*
X232167618Y-123725734D02*
X232119999Y-123535258D01*
X232119999Y-123535258D02*
X232072380Y-123440020D01*
X232072380Y-123440020D02*
X231977142Y-123344782D01*
X231977142Y-123344782D02*
X231834285Y-123297163D01*
X231834285Y-123297163D02*
X231739047Y-123297163D01*
X231739047Y-123297163D02*
X231596190Y-123344782D01*
X231596190Y-123344782D02*
X231548571Y-123392401D01*
X231167618Y-123392401D02*
X231119999Y-123344782D01*
X231119999Y-123344782D02*
X231024761Y-123297163D01*
X231024761Y-123297163D02*
X230786666Y-123297163D01*
X230786666Y-123297163D02*
X230691428Y-123344782D01*
X230691428Y-123344782D02*
X230643809Y-123392401D01*
X230643809Y-123392401D02*
X230596190Y-123487639D01*
X230596190Y-123487639D02*
X230596190Y-123582877D01*
X230596190Y-123582877D02*
X230643809Y-123725734D01*
X230643809Y-123725734D02*
X231215237Y-124297163D01*
X231215237Y-124297163D02*
X230596190Y-124297163D01*
X244377618Y-141174663D02*
X244377618Y-140174663D01*
X244377618Y-140174663D02*
X244044285Y-140888948D01*
X244044285Y-140888948D02*
X243710952Y-140174663D01*
X243710952Y-140174663D02*
X243710952Y-141174663D01*
X243234761Y-141174663D02*
X243234761Y-140174663D01*
X242806190Y-141127044D02*
X242663333Y-141174663D01*
X242663333Y-141174663D02*
X242425238Y-141174663D01*
X242425238Y-141174663D02*
X242330000Y-141127044D01*
X242330000Y-141127044D02*
X242282381Y-141079424D01*
X242282381Y-141079424D02*
X242234762Y-140984186D01*
X242234762Y-140984186D02*
X242234762Y-140888948D01*
X242234762Y-140888948D02*
X242282381Y-140793710D01*
X242282381Y-140793710D02*
X242330000Y-140746091D01*
X242330000Y-140746091D02*
X242425238Y-140698472D01*
X242425238Y-140698472D02*
X242615714Y-140650853D01*
X242615714Y-140650853D02*
X242710952Y-140603234D01*
X242710952Y-140603234D02*
X242758571Y-140555615D01*
X242758571Y-140555615D02*
X242806190Y-140460377D01*
X242806190Y-140460377D02*
X242806190Y-140365139D01*
X242806190Y-140365139D02*
X242758571Y-140269901D01*
X242758571Y-140269901D02*
X242710952Y-140222282D01*
X242710952Y-140222282D02*
X242615714Y-140174663D01*
X242615714Y-140174663D02*
X242377619Y-140174663D01*
X242377619Y-140174663D02*
X242234762Y-140222282D01*
X241615714Y-140174663D02*
X241425238Y-140174663D01*
X241425238Y-140174663D02*
X241330000Y-140222282D01*
X241330000Y-140222282D02*
X241234762Y-140317520D01*
X241234762Y-140317520D02*
X241187143Y-140507996D01*
X241187143Y-140507996D02*
X241187143Y-140841329D01*
X241187143Y-140841329D02*
X241234762Y-141031805D01*
X241234762Y-141031805D02*
X241330000Y-141127044D01*
X241330000Y-141127044D02*
X241425238Y-141174663D01*
X241425238Y-141174663D02*
X241615714Y-141174663D01*
X241615714Y-141174663D02*
X241710952Y-141127044D01*
X241710952Y-141127044D02*
X241806190Y-141031805D01*
X241806190Y-141031805D02*
X241853809Y-140841329D01*
X241853809Y-140841329D02*
X241853809Y-140507996D01*
X241853809Y-140507996D02*
X241806190Y-140317520D01*
X241806190Y-140317520D02*
X241710952Y-140222282D01*
X241710952Y-140222282D02*
X241615714Y-140174663D01*
X240234762Y-141174663D02*
X240806190Y-141174663D01*
X240520476Y-141174663D02*
X240520476Y-140174663D01*
X240520476Y-140174663D02*
X240615714Y-140317520D01*
X240615714Y-140317520D02*
X240710952Y-140412758D01*
X240710952Y-140412758D02*
X240806190Y-140460377D01*
X242261428Y-135139424D02*
X242309047Y-135187044D01*
X242309047Y-135187044D02*
X242451904Y-135234663D01*
X242451904Y-135234663D02*
X242547142Y-135234663D01*
X242547142Y-135234663D02*
X242689999Y-135187044D01*
X242689999Y-135187044D02*
X242785237Y-135091805D01*
X242785237Y-135091805D02*
X242832856Y-134996567D01*
X242832856Y-134996567D02*
X242880475Y-134806091D01*
X242880475Y-134806091D02*
X242880475Y-134663234D01*
X242880475Y-134663234D02*
X242832856Y-134472758D01*
X242832856Y-134472758D02*
X242785237Y-134377520D01*
X242785237Y-134377520D02*
X242689999Y-134282282D01*
X242689999Y-134282282D02*
X242547142Y-134234663D01*
X242547142Y-134234663D02*
X242451904Y-134234663D01*
X242451904Y-134234663D02*
X242309047Y-134282282D01*
X242309047Y-134282282D02*
X242261428Y-134329901D01*
X241356666Y-135234663D02*
X241832856Y-135234663D01*
X241832856Y-135234663D02*
X241832856Y-134234663D01*
X241023332Y-135234663D02*
X241023332Y-134234663D01*
X240451904Y-135234663D02*
X240880475Y-134663234D01*
X240451904Y-134234663D02*
X241023332Y-134806091D01*
X239499523Y-135234663D02*
X240070951Y-135234663D01*
X239785237Y-135234663D02*
X239785237Y-134234663D01*
X239785237Y-134234663D02*
X239880475Y-134377520D01*
X239880475Y-134377520D02*
X239975713Y-134472758D01*
X239975713Y-134472758D02*
X240070951Y-134520377D01*
X232606666Y-119881924D02*
X232654285Y-119929544D01*
X232654285Y-119929544D02*
X232797142Y-119977163D01*
X232797142Y-119977163D02*
X232892380Y-119977163D01*
X232892380Y-119977163D02*
X233035237Y-119929544D01*
X233035237Y-119929544D02*
X233130475Y-119834305D01*
X233130475Y-119834305D02*
X233178094Y-119739067D01*
X233178094Y-119739067D02*
X233225713Y-119548591D01*
X233225713Y-119548591D02*
X233225713Y-119405734D01*
X233225713Y-119405734D02*
X233178094Y-119215258D01*
X233178094Y-119215258D02*
X233130475Y-119120020D01*
X233130475Y-119120020D02*
X233035237Y-119024782D01*
X233035237Y-119024782D02*
X232892380Y-118977163D01*
X232892380Y-118977163D02*
X232797142Y-118977163D01*
X232797142Y-118977163D02*
X232654285Y-119024782D01*
X232654285Y-119024782D02*
X232606666Y-119072401D01*
X232130475Y-119977163D02*
X231939999Y-119977163D01*
X231939999Y-119977163D02*
X231844761Y-119929544D01*
X231844761Y-119929544D02*
X231797142Y-119881924D01*
X231797142Y-119881924D02*
X231701904Y-119739067D01*
X231701904Y-119739067D02*
X231654285Y-119548591D01*
X231654285Y-119548591D02*
X231654285Y-119167639D01*
X231654285Y-119167639D02*
X231701904Y-119072401D01*
X231701904Y-119072401D02*
X231749523Y-119024782D01*
X231749523Y-119024782D02*
X231844761Y-118977163D01*
X231844761Y-118977163D02*
X232035237Y-118977163D01*
X232035237Y-118977163D02*
X232130475Y-119024782D01*
X232130475Y-119024782D02*
X232178094Y-119072401D01*
X232178094Y-119072401D02*
X232225713Y-119167639D01*
X232225713Y-119167639D02*
X232225713Y-119405734D01*
X232225713Y-119405734D02*
X232178094Y-119500972D01*
X232178094Y-119500972D02*
X232130475Y-119548591D01*
X232130475Y-119548591D02*
X232035237Y-119596210D01*
X232035237Y-119596210D02*
X231844761Y-119596210D01*
X231844761Y-119596210D02*
X231749523Y-119548591D01*
X231749523Y-119548591D02*
X231701904Y-119500972D01*
X231701904Y-119500972D02*
X231654285Y-119405734D01*
X223191428Y-126540853D02*
X223524761Y-126540853D01*
X223524761Y-127064663D02*
X223524761Y-126064663D01*
X223524761Y-126064663D02*
X223048571Y-126064663D01*
X222667618Y-127064663D02*
X222667618Y-126064663D01*
X222191428Y-127064663D02*
X222191428Y-126064663D01*
X222191428Y-126064663D02*
X221953333Y-126064663D01*
X221953333Y-126064663D02*
X221810476Y-126112282D01*
X221810476Y-126112282D02*
X221715238Y-126207520D01*
X221715238Y-126207520D02*
X221667619Y-126302758D01*
X221667619Y-126302758D02*
X221620000Y-126493234D01*
X221620000Y-126493234D02*
X221620000Y-126636091D01*
X221620000Y-126636091D02*
X221667619Y-126826567D01*
X221667619Y-126826567D02*
X221715238Y-126921805D01*
X221715238Y-126921805D02*
X221810476Y-127017044D01*
X221810476Y-127017044D02*
X221953333Y-127064663D01*
X221953333Y-127064663D02*
X222191428Y-127064663D01*
X220715238Y-126064663D02*
X221191428Y-126064663D01*
X221191428Y-126064663D02*
X221239047Y-126540853D01*
X221239047Y-126540853D02*
X221191428Y-126493234D01*
X221191428Y-126493234D02*
X221096190Y-126445615D01*
X221096190Y-126445615D02*
X220858095Y-126445615D01*
X220858095Y-126445615D02*
X220762857Y-126493234D01*
X220762857Y-126493234D02*
X220715238Y-126540853D01*
X220715238Y-126540853D02*
X220667619Y-126636091D01*
X220667619Y-126636091D02*
X220667619Y-126874186D01*
X220667619Y-126874186D02*
X220715238Y-126969424D01*
X220715238Y-126969424D02*
X220762857Y-127017044D01*
X220762857Y-127017044D02*
X220858095Y-127064663D01*
X220858095Y-127064663D02*
X221096190Y-127064663D01*
X221096190Y-127064663D02*
X221191428Y-127017044D01*
X221191428Y-127017044D02*
X221239047Y-126969424D01*
X223191428Y-141980853D02*
X223524761Y-141980853D01*
X223524761Y-142504663D02*
X223524761Y-141504663D01*
X223524761Y-141504663D02*
X223048571Y-141504663D01*
X222667618Y-142504663D02*
X222667618Y-141504663D01*
X222191428Y-142504663D02*
X222191428Y-141504663D01*
X222191428Y-141504663D02*
X221953333Y-141504663D01*
X221953333Y-141504663D02*
X221810476Y-141552282D01*
X221810476Y-141552282D02*
X221715238Y-141647520D01*
X221715238Y-141647520D02*
X221667619Y-141742758D01*
X221667619Y-141742758D02*
X221620000Y-141933234D01*
X221620000Y-141933234D02*
X221620000Y-142076091D01*
X221620000Y-142076091D02*
X221667619Y-142266567D01*
X221667619Y-142266567D02*
X221715238Y-142361805D01*
X221715238Y-142361805D02*
X221810476Y-142457044D01*
X221810476Y-142457044D02*
X221953333Y-142504663D01*
X221953333Y-142504663D02*
X222191428Y-142504663D01*
X220762857Y-141504663D02*
X220953333Y-141504663D01*
X220953333Y-141504663D02*
X221048571Y-141552282D01*
X221048571Y-141552282D02*
X221096190Y-141599901D01*
X221096190Y-141599901D02*
X221191428Y-141742758D01*
X221191428Y-141742758D02*
X221239047Y-141933234D01*
X221239047Y-141933234D02*
X221239047Y-142314186D01*
X221239047Y-142314186D02*
X221191428Y-142409424D01*
X221191428Y-142409424D02*
X221143809Y-142457044D01*
X221143809Y-142457044D02*
X221048571Y-142504663D01*
X221048571Y-142504663D02*
X220858095Y-142504663D01*
X220858095Y-142504663D02*
X220762857Y-142457044D01*
X220762857Y-142457044D02*
X220715238Y-142409424D01*
X220715238Y-142409424D02*
X220667619Y-142314186D01*
X220667619Y-142314186D02*
X220667619Y-142076091D01*
X220667619Y-142076091D02*
X220715238Y-141980853D01*
X220715238Y-141980853D02*
X220762857Y-141933234D01*
X220762857Y-141933234D02*
X220858095Y-141885615D01*
X220858095Y-141885615D02*
X221048571Y-141885615D01*
X221048571Y-141885615D02*
X221143809Y-141933234D01*
X221143809Y-141933234D02*
X221191428Y-141980853D01*
X221191428Y-141980853D02*
X221239047Y-142076091D01*
X227679047Y-142164663D02*
X228155237Y-142164663D01*
X228155237Y-142164663D02*
X228155237Y-141164663D01*
X227345713Y-141640853D02*
X227012380Y-141640853D01*
X226869523Y-142164663D02*
X227345713Y-142164663D01*
X227345713Y-142164663D02*
X227345713Y-141164663D01*
X227345713Y-141164663D02*
X226869523Y-141164663D01*
X226440951Y-142164663D02*
X226440951Y-141164663D01*
X226440951Y-141164663D02*
X226202856Y-141164663D01*
X226202856Y-141164663D02*
X226059999Y-141212282D01*
X226059999Y-141212282D02*
X225964761Y-141307520D01*
X225964761Y-141307520D02*
X225917142Y-141402758D01*
X225917142Y-141402758D02*
X225869523Y-141593234D01*
X225869523Y-141593234D02*
X225869523Y-141736091D01*
X225869523Y-141736091D02*
X225917142Y-141926567D01*
X225917142Y-141926567D02*
X225964761Y-142021805D01*
X225964761Y-142021805D02*
X226059999Y-142117044D01*
X226059999Y-142117044D02*
X226202856Y-142164663D01*
X226202856Y-142164663D02*
X226440951Y-142164663D01*
X225488570Y-141259901D02*
X225440951Y-141212282D01*
X225440951Y-141212282D02*
X225345713Y-141164663D01*
X225345713Y-141164663D02*
X225107618Y-141164663D01*
X225107618Y-141164663D02*
X225012380Y-141212282D01*
X225012380Y-141212282D02*
X224964761Y-141259901D01*
X224964761Y-141259901D02*
X224917142Y-141355139D01*
X224917142Y-141355139D02*
X224917142Y-141450377D01*
X224917142Y-141450377D02*
X224964761Y-141593234D01*
X224964761Y-141593234D02*
X225536189Y-142164663D01*
X225536189Y-142164663D02*
X224917142Y-142164663D01*
X229426666Y-149099424D02*
X229474285Y-149147044D01*
X229474285Y-149147044D02*
X229617142Y-149194663D01*
X229617142Y-149194663D02*
X229712380Y-149194663D01*
X229712380Y-149194663D02*
X229855237Y-149147044D01*
X229855237Y-149147044D02*
X229950475Y-149051805D01*
X229950475Y-149051805D02*
X229998094Y-148956567D01*
X229998094Y-148956567D02*
X230045713Y-148766091D01*
X230045713Y-148766091D02*
X230045713Y-148623234D01*
X230045713Y-148623234D02*
X229998094Y-148432758D01*
X229998094Y-148432758D02*
X229950475Y-148337520D01*
X229950475Y-148337520D02*
X229855237Y-148242282D01*
X229855237Y-148242282D02*
X229712380Y-148194663D01*
X229712380Y-148194663D02*
X229617142Y-148194663D01*
X229617142Y-148194663D02*
X229474285Y-148242282D01*
X229474285Y-148242282D02*
X229426666Y-148289901D01*
X229093332Y-148194663D02*
X228474285Y-148194663D01*
X228474285Y-148194663D02*
X228807618Y-148575615D01*
X228807618Y-148575615D02*
X228664761Y-148575615D01*
X228664761Y-148575615D02*
X228569523Y-148623234D01*
X228569523Y-148623234D02*
X228521904Y-148670853D01*
X228521904Y-148670853D02*
X228474285Y-148766091D01*
X228474285Y-148766091D02*
X228474285Y-149004186D01*
X228474285Y-149004186D02*
X228521904Y-149099424D01*
X228521904Y-149099424D02*
X228569523Y-149147044D01*
X228569523Y-149147044D02*
X228664761Y-149194663D01*
X228664761Y-149194663D02*
X228950475Y-149194663D01*
X228950475Y-149194663D02*
X229045713Y-149147044D01*
X229045713Y-149147044D02*
X229093332Y-149099424D01*
X239599047Y-117557163D02*
X240075237Y-117557163D01*
X240075237Y-117557163D02*
X240075237Y-116557163D01*
X238741904Y-117557163D02*
X239313332Y-117557163D01*
X239027618Y-117557163D02*
X239027618Y-116557163D01*
X239027618Y-116557163D02*
X239122856Y-116700020D01*
X239122856Y-116700020D02*
X239218094Y-116795258D01*
X239218094Y-116795258D02*
X239313332Y-116842877D01*
X238408570Y-116557163D02*
X237789523Y-116557163D01*
X237789523Y-116557163D02*
X238122856Y-116938115D01*
X238122856Y-116938115D02*
X237979999Y-116938115D01*
X237979999Y-116938115D02*
X237884761Y-116985734D01*
X237884761Y-116985734D02*
X237837142Y-117033353D01*
X237837142Y-117033353D02*
X237789523Y-117128591D01*
X237789523Y-117128591D02*
X237789523Y-117366686D01*
X237789523Y-117366686D02*
X237837142Y-117461924D01*
X237837142Y-117461924D02*
X237884761Y-117509544D01*
X237884761Y-117509544D02*
X237979999Y-117557163D01*
X237979999Y-117557163D02*
X238265713Y-117557163D01*
X238265713Y-117557163D02*
X238360951Y-117509544D01*
X238360951Y-117509544D02*
X238408570Y-117461924D01*
X236837142Y-117557163D02*
X237408570Y-117557163D01*
X237122856Y-117557163D02*
X237122856Y-116557163D01*
X237122856Y-116557163D02*
X237218094Y-116700020D01*
X237218094Y-116700020D02*
X237313332Y-116795258D01*
X237313332Y-116795258D02*
X237408570Y-116842877D01*
X236656666Y-150834663D02*
X236989999Y-150358472D01*
X237228094Y-150834663D02*
X237228094Y-149834663D01*
X237228094Y-149834663D02*
X236847142Y-149834663D01*
X236847142Y-149834663D02*
X236751904Y-149882282D01*
X236751904Y-149882282D02*
X236704285Y-149929901D01*
X236704285Y-149929901D02*
X236656666Y-150025139D01*
X236656666Y-150025139D02*
X236656666Y-150167996D01*
X236656666Y-150167996D02*
X236704285Y-150263234D01*
X236704285Y-150263234D02*
X236751904Y-150310853D01*
X236751904Y-150310853D02*
X236847142Y-150358472D01*
X236847142Y-150358472D02*
X237228094Y-150358472D01*
X236275713Y-149929901D02*
X236228094Y-149882282D01*
X236228094Y-149882282D02*
X236132856Y-149834663D01*
X236132856Y-149834663D02*
X235894761Y-149834663D01*
X235894761Y-149834663D02*
X235799523Y-149882282D01*
X235799523Y-149882282D02*
X235751904Y-149929901D01*
X235751904Y-149929901D02*
X235704285Y-150025139D01*
X235704285Y-150025139D02*
X235704285Y-150120377D01*
X235704285Y-150120377D02*
X235751904Y-150263234D01*
X235751904Y-150263234D02*
X236323332Y-150834663D01*
X236323332Y-150834663D02*
X235704285Y-150834663D01*
X230682857Y-126199424D02*
X230730476Y-126247044D01*
X230730476Y-126247044D02*
X230873333Y-126294663D01*
X230873333Y-126294663D02*
X230968571Y-126294663D01*
X230968571Y-126294663D02*
X231111428Y-126247044D01*
X231111428Y-126247044D02*
X231206666Y-126151805D01*
X231206666Y-126151805D02*
X231254285Y-126056567D01*
X231254285Y-126056567D02*
X231301904Y-125866091D01*
X231301904Y-125866091D02*
X231301904Y-125723234D01*
X231301904Y-125723234D02*
X231254285Y-125532758D01*
X231254285Y-125532758D02*
X231206666Y-125437520D01*
X231206666Y-125437520D02*
X231111428Y-125342282D01*
X231111428Y-125342282D02*
X230968571Y-125294663D01*
X230968571Y-125294663D02*
X230873333Y-125294663D01*
X230873333Y-125294663D02*
X230730476Y-125342282D01*
X230730476Y-125342282D02*
X230682857Y-125389901D01*
X229778095Y-125294663D02*
X230254285Y-125294663D01*
X230254285Y-125294663D02*
X230301904Y-125770853D01*
X230301904Y-125770853D02*
X230254285Y-125723234D01*
X230254285Y-125723234D02*
X230159047Y-125675615D01*
X230159047Y-125675615D02*
X229920952Y-125675615D01*
X229920952Y-125675615D02*
X229825714Y-125723234D01*
X229825714Y-125723234D02*
X229778095Y-125770853D01*
X229778095Y-125770853D02*
X229730476Y-125866091D01*
X229730476Y-125866091D02*
X229730476Y-126104186D01*
X229730476Y-126104186D02*
X229778095Y-126199424D01*
X229778095Y-126199424D02*
X229825714Y-126247044D01*
X229825714Y-126247044D02*
X229920952Y-126294663D01*
X229920952Y-126294663D02*
X230159047Y-126294663D01*
X230159047Y-126294663D02*
X230254285Y-126247044D01*
X230254285Y-126247044D02*
X230301904Y-126199424D01*
X228778095Y-126294663D02*
X229349523Y-126294663D01*
X229063809Y-126294663D02*
X229063809Y-125294663D01*
X229063809Y-125294663D02*
X229159047Y-125437520D01*
X229159047Y-125437520D02*
X229254285Y-125532758D01*
X229254285Y-125532758D02*
X229349523Y-125580377D01*
X238949047Y-113307163D02*
X239425237Y-113307163D01*
X239425237Y-113307163D02*
X239425237Y-112307163D01*
X238091904Y-113307163D02*
X238663332Y-113307163D01*
X238377618Y-113307163D02*
X238377618Y-112307163D01*
X238377618Y-112307163D02*
X238472856Y-112450020D01*
X238472856Y-112450020D02*
X238568094Y-112545258D01*
X238568094Y-112545258D02*
X238663332Y-112592877D01*
X237758570Y-112307163D02*
X237139523Y-112307163D01*
X237139523Y-112307163D02*
X237472856Y-112688115D01*
X237472856Y-112688115D02*
X237329999Y-112688115D01*
X237329999Y-112688115D02*
X237234761Y-112735734D01*
X237234761Y-112735734D02*
X237187142Y-112783353D01*
X237187142Y-112783353D02*
X237139523Y-112878591D01*
X237139523Y-112878591D02*
X237139523Y-113116686D01*
X237139523Y-113116686D02*
X237187142Y-113211924D01*
X237187142Y-113211924D02*
X237234761Y-113259544D01*
X237234761Y-113259544D02*
X237329999Y-113307163D01*
X237329999Y-113307163D02*
X237615713Y-113307163D01*
X237615713Y-113307163D02*
X237710951Y-113259544D01*
X237710951Y-113259544D02*
X237758570Y-113211924D01*
X236758570Y-112402401D02*
X236710951Y-112354782D01*
X236710951Y-112354782D02*
X236615713Y-112307163D01*
X236615713Y-112307163D02*
X236377618Y-112307163D01*
X236377618Y-112307163D02*
X236282380Y-112354782D01*
X236282380Y-112354782D02*
X236234761Y-112402401D01*
X236234761Y-112402401D02*
X236187142Y-112497639D01*
X236187142Y-112497639D02*
X236187142Y-112592877D01*
X236187142Y-112592877D02*
X236234761Y-112735734D01*
X236234761Y-112735734D02*
X236806189Y-113307163D01*
X236806189Y-113307163D02*
X236187142Y-113307163D01*
X244463809Y-123944663D02*
X244797142Y-123468472D01*
X245035237Y-123944663D02*
X245035237Y-122944663D01*
X245035237Y-122944663D02*
X244654285Y-122944663D01*
X244654285Y-122944663D02*
X244559047Y-122992282D01*
X244559047Y-122992282D02*
X244511428Y-123039901D01*
X244511428Y-123039901D02*
X244463809Y-123135139D01*
X244463809Y-123135139D02*
X244463809Y-123277996D01*
X244463809Y-123277996D02*
X244511428Y-123373234D01*
X244511428Y-123373234D02*
X244559047Y-123420853D01*
X244559047Y-123420853D02*
X244654285Y-123468472D01*
X244654285Y-123468472D02*
X245035237Y-123468472D01*
X243701904Y-123420853D02*
X244035237Y-123420853D01*
X244035237Y-123944663D02*
X244035237Y-122944663D01*
X244035237Y-122944663D02*
X243559047Y-122944663D01*
X243320951Y-122944663D02*
X242987618Y-123944663D01*
X242987618Y-123944663D02*
X242654285Y-122944663D01*
X242320951Y-123944663D02*
X242320951Y-122944663D01*
X242320951Y-122944663D02*
X242082856Y-122944663D01*
X242082856Y-122944663D02*
X241939999Y-122992282D01*
X241939999Y-122992282D02*
X241844761Y-123087520D01*
X241844761Y-123087520D02*
X241797142Y-123182758D01*
X241797142Y-123182758D02*
X241749523Y-123373234D01*
X241749523Y-123373234D02*
X241749523Y-123516091D01*
X241749523Y-123516091D02*
X241797142Y-123706567D01*
X241797142Y-123706567D02*
X241844761Y-123801805D01*
X241844761Y-123801805D02*
X241939999Y-123897044D01*
X241939999Y-123897044D02*
X242082856Y-123944663D01*
X242082856Y-123944663D02*
X242320951Y-123944663D01*
X241320951Y-123944663D02*
X241320951Y-122944663D01*
X241320951Y-122944663D02*
X241082856Y-122944663D01*
X241082856Y-122944663D02*
X240939999Y-122992282D01*
X240939999Y-122992282D02*
X240844761Y-123087520D01*
X240844761Y-123087520D02*
X240797142Y-123182758D01*
X240797142Y-123182758D02*
X240749523Y-123373234D01*
X240749523Y-123373234D02*
X240749523Y-123516091D01*
X240749523Y-123516091D02*
X240797142Y-123706567D01*
X240797142Y-123706567D02*
X240844761Y-123801805D01*
X240844761Y-123801805D02*
X240939999Y-123897044D01*
X240939999Y-123897044D02*
X241082856Y-123944663D01*
X241082856Y-123944663D02*
X241320951Y-123944663D01*
X239797142Y-123944663D02*
X240368570Y-123944663D01*
X240082856Y-123944663D02*
X240082856Y-122944663D01*
X240082856Y-122944663D02*
X240178094Y-123087520D01*
X240178094Y-123087520D02*
X240273332Y-123182758D01*
X240273332Y-123182758D02*
X240368570Y-123230377D01*
X234986666Y-125889424D02*
X235034285Y-125937044D01*
X235034285Y-125937044D02*
X235177142Y-125984663D01*
X235177142Y-125984663D02*
X235272380Y-125984663D01*
X235272380Y-125984663D02*
X235415237Y-125937044D01*
X235415237Y-125937044D02*
X235510475Y-125841805D01*
X235510475Y-125841805D02*
X235558094Y-125746567D01*
X235558094Y-125746567D02*
X235605713Y-125556091D01*
X235605713Y-125556091D02*
X235605713Y-125413234D01*
X235605713Y-125413234D02*
X235558094Y-125222758D01*
X235558094Y-125222758D02*
X235510475Y-125127520D01*
X235510475Y-125127520D02*
X235415237Y-125032282D01*
X235415237Y-125032282D02*
X235272380Y-124984663D01*
X235272380Y-124984663D02*
X235177142Y-124984663D01*
X235177142Y-124984663D02*
X235034285Y-125032282D01*
X235034285Y-125032282D02*
X234986666Y-125079901D01*
X234653332Y-124984663D02*
X233986666Y-124984663D01*
X233986666Y-124984663D02*
X234415237Y-125984663D01*
X233621904Y-153884663D02*
X233621904Y-152884663D01*
X233621904Y-152884663D02*
X233288571Y-153598948D01*
X233288571Y-153598948D02*
X232955238Y-152884663D01*
X232955238Y-152884663D02*
X232955238Y-153884663D01*
X231907619Y-153789424D02*
X231955238Y-153837044D01*
X231955238Y-153837044D02*
X232098095Y-153884663D01*
X232098095Y-153884663D02*
X232193333Y-153884663D01*
X232193333Y-153884663D02*
X232336190Y-153837044D01*
X232336190Y-153837044D02*
X232431428Y-153741805D01*
X232431428Y-153741805D02*
X232479047Y-153646567D01*
X232479047Y-153646567D02*
X232526666Y-153456091D01*
X232526666Y-153456091D02*
X232526666Y-153313234D01*
X232526666Y-153313234D02*
X232479047Y-153122758D01*
X232479047Y-153122758D02*
X232431428Y-153027520D01*
X232431428Y-153027520D02*
X232336190Y-152932282D01*
X232336190Y-152932282D02*
X232193333Y-152884663D01*
X232193333Y-152884663D02*
X232098095Y-152884663D01*
X232098095Y-152884663D02*
X231955238Y-152932282D01*
X231955238Y-152932282D02*
X231907619Y-152979901D01*
X231479047Y-152884663D02*
X231479047Y-153694186D01*
X231479047Y-153694186D02*
X231431428Y-153789424D01*
X231431428Y-153789424D02*
X231383809Y-153837044D01*
X231383809Y-153837044D02*
X231288571Y-153884663D01*
X231288571Y-153884663D02*
X231098095Y-153884663D01*
X231098095Y-153884663D02*
X231002857Y-153837044D01*
X231002857Y-153837044D02*
X230955238Y-153789424D01*
X230955238Y-153789424D02*
X230907619Y-153694186D01*
X230907619Y-153694186D02*
X230907619Y-152884663D01*
X230574285Y-152884663D02*
X230240952Y-153884663D01*
X230240952Y-153884663D02*
X229907619Y-152884663D01*
X229574285Y-153884663D02*
X229574285Y-152884663D01*
X229574285Y-152884663D02*
X229336190Y-152884663D01*
X229336190Y-152884663D02*
X229193333Y-152932282D01*
X229193333Y-152932282D02*
X229098095Y-153027520D01*
X229098095Y-153027520D02*
X229050476Y-153122758D01*
X229050476Y-153122758D02*
X229002857Y-153313234D01*
X229002857Y-153313234D02*
X229002857Y-153456091D01*
X229002857Y-153456091D02*
X229050476Y-153646567D01*
X229050476Y-153646567D02*
X229098095Y-153741805D01*
X229098095Y-153741805D02*
X229193333Y-153837044D01*
X229193333Y-153837044D02*
X229336190Y-153884663D01*
X229336190Y-153884663D02*
X229574285Y-153884663D01*
X228574285Y-153884663D02*
X228574285Y-152884663D01*
X228574285Y-152884663D02*
X228336190Y-152884663D01*
X228336190Y-152884663D02*
X228193333Y-152932282D01*
X228193333Y-152932282D02*
X228098095Y-153027520D01*
X228098095Y-153027520D02*
X228050476Y-153122758D01*
X228050476Y-153122758D02*
X228002857Y-153313234D01*
X228002857Y-153313234D02*
X228002857Y-153456091D01*
X228002857Y-153456091D02*
X228050476Y-153646567D01*
X228050476Y-153646567D02*
X228098095Y-153741805D01*
X228098095Y-153741805D02*
X228193333Y-153837044D01*
X228193333Y-153837044D02*
X228336190Y-153884663D01*
X228336190Y-153884663D02*
X228574285Y-153884663D01*
X227050476Y-153884663D02*
X227621904Y-153884663D01*
X227336190Y-153884663D02*
X227336190Y-152884663D01*
X227336190Y-152884663D02*
X227431428Y-153027520D01*
X227431428Y-153027520D02*
X227526666Y-153122758D01*
X227526666Y-153122758D02*
X227621904Y-153170377D01*
X228126666Y-146004663D02*
X228459999Y-145528472D01*
X228698094Y-146004663D02*
X228698094Y-145004663D01*
X228698094Y-145004663D02*
X228317142Y-145004663D01*
X228317142Y-145004663D02*
X228221904Y-145052282D01*
X228221904Y-145052282D02*
X228174285Y-145099901D01*
X228174285Y-145099901D02*
X228126666Y-145195139D01*
X228126666Y-145195139D02*
X228126666Y-145337996D01*
X228126666Y-145337996D02*
X228174285Y-145433234D01*
X228174285Y-145433234D02*
X228221904Y-145480853D01*
X228221904Y-145480853D02*
X228317142Y-145528472D01*
X228317142Y-145528472D02*
X228698094Y-145528472D01*
X227174285Y-146004663D02*
X227745713Y-146004663D01*
X227459999Y-146004663D02*
X227459999Y-145004663D01*
X227459999Y-145004663D02*
X227555237Y-145147520D01*
X227555237Y-145147520D02*
X227650475Y-145242758D01*
X227650475Y-145242758D02*
X227745713Y-145290377D01*
X236229047Y-131574663D02*
X236705237Y-131574663D01*
X236705237Y-131574663D02*
X236705237Y-130574663D01*
X235895713Y-131050853D02*
X235562380Y-131050853D01*
X235419523Y-131574663D02*
X235895713Y-131574663D01*
X235895713Y-131574663D02*
X235895713Y-130574663D01*
X235895713Y-130574663D02*
X235419523Y-130574663D01*
X234990951Y-131574663D02*
X234990951Y-130574663D01*
X234990951Y-130574663D02*
X234752856Y-130574663D01*
X234752856Y-130574663D02*
X234609999Y-130622282D01*
X234609999Y-130622282D02*
X234514761Y-130717520D01*
X234514761Y-130717520D02*
X234467142Y-130812758D01*
X234467142Y-130812758D02*
X234419523Y-131003234D01*
X234419523Y-131003234D02*
X234419523Y-131146091D01*
X234419523Y-131146091D02*
X234467142Y-131336567D01*
X234467142Y-131336567D02*
X234514761Y-131431805D01*
X234514761Y-131431805D02*
X234609999Y-131527044D01*
X234609999Y-131527044D02*
X234752856Y-131574663D01*
X234752856Y-131574663D02*
X234990951Y-131574663D01*
X233467142Y-131574663D02*
X234038570Y-131574663D01*
X233752856Y-131574663D02*
X233752856Y-130574663D01*
X233752856Y-130574663D02*
X233848094Y-130717520D01*
X233848094Y-130717520D02*
X233943332Y-130812758D01*
X233943332Y-130812758D02*
X234038570Y-130860377D01*
X226979047Y-115687163D02*
X227455237Y-115687163D01*
X227455237Y-115687163D02*
X227455237Y-114687163D01*
X226121904Y-115687163D02*
X226693332Y-115687163D01*
X226407618Y-115687163D02*
X226407618Y-114687163D01*
X226407618Y-114687163D02*
X226502856Y-114830020D01*
X226502856Y-114830020D02*
X226598094Y-114925258D01*
X226598094Y-114925258D02*
X226693332Y-114972877D01*
X225740951Y-114782401D02*
X225693332Y-114734782D01*
X225693332Y-114734782D02*
X225598094Y-114687163D01*
X225598094Y-114687163D02*
X225359999Y-114687163D01*
X225359999Y-114687163D02*
X225264761Y-114734782D01*
X225264761Y-114734782D02*
X225217142Y-114782401D01*
X225217142Y-114782401D02*
X225169523Y-114877639D01*
X225169523Y-114877639D02*
X225169523Y-114972877D01*
X225169523Y-114972877D02*
X225217142Y-115115734D01*
X225217142Y-115115734D02*
X225788570Y-115687163D01*
X225788570Y-115687163D02*
X225169523Y-115687163D01*
X224788570Y-114782401D02*
X224740951Y-114734782D01*
X224740951Y-114734782D02*
X224645713Y-114687163D01*
X224645713Y-114687163D02*
X224407618Y-114687163D01*
X224407618Y-114687163D02*
X224312380Y-114734782D01*
X224312380Y-114734782D02*
X224264761Y-114782401D01*
X224264761Y-114782401D02*
X224217142Y-114877639D01*
X224217142Y-114877639D02*
X224217142Y-114972877D01*
X224217142Y-114972877D02*
X224264761Y-115115734D01*
X224264761Y-115115734D02*
X224836189Y-115687163D01*
X224836189Y-115687163D02*
X224217142Y-115687163D01*
D11*
X235169318Y-142158237D02*
X233899318Y-142158237D01*
X235048365Y-143488714D02*
X235108842Y-143428238D01*
X235108842Y-143428238D02*
X235169318Y-143246809D01*
X235169318Y-143246809D02*
X235169318Y-143125857D01*
X235169318Y-143125857D02*
X235108842Y-142944428D01*
X235108842Y-142944428D02*
X234987889Y-142823476D01*
X234987889Y-142823476D02*
X234866937Y-142762999D01*
X234866937Y-142762999D02*
X234625032Y-142702523D01*
X234625032Y-142702523D02*
X234443603Y-142702523D01*
X234443603Y-142702523D02*
X234201699Y-142762999D01*
X234201699Y-142762999D02*
X234080746Y-142823476D01*
X234080746Y-142823476D02*
X233959794Y-142944428D01*
X233959794Y-142944428D02*
X233899318Y-143125857D01*
X233899318Y-143125857D02*
X233899318Y-143246809D01*
X233899318Y-143246809D02*
X233959794Y-143428238D01*
X233959794Y-143428238D02*
X234020270Y-143488714D01*
X235169318Y-144698238D02*
X235169318Y-143972523D01*
X235169318Y-144335380D02*
X233899318Y-144335380D01*
X233899318Y-144335380D02*
X234080746Y-144214428D01*
X234080746Y-144214428D02*
X234201699Y-144093476D01*
X234201699Y-144093476D02*
X234262175Y-143972523D01*
D12*
%TO.C,Y1*%
X224350000Y-122292500D02*
X224350000Y-122292500D01*
X224450000Y-122292500D02*
X224450000Y-122292500D01*
X224350000Y-122292500D02*
G75*
G02*
X224450000Y-122292500I50000J0D01*
G01*
X224450000Y-122292500D02*
G75*
G02*
X224350000Y-122292500I-50000J0D01*
G01*
D13*
%TO.C,C2*%
X235010580Y-148140000D02*
X234729420Y-148140000D01*
X235010580Y-149160000D02*
X234729420Y-149160000D01*
%TO.C,MOSI1*%
X229610000Y-132190000D02*
G75*
G02*
X228010000Y-132190000I-800000J0D01*
G01*
X228010000Y-132190000D02*
G75*
G02*
X229610000Y-132190000I800000J0D01*
G01*
%TO.C,C4*%
X238780000Y-143470580D02*
X238780000Y-143189420D01*
X239800000Y-143470580D02*
X239800000Y-143189420D01*
D14*
%TO.C,C1*%
X228365000Y-127930000D02*
X226965000Y-127930000D01*
X228365000Y-129530000D02*
X226965000Y-129530000D01*
X230065000Y-128630000D02*
X230065000Y-128630000D01*
X230065000Y-128830000D02*
X230065000Y-128830000D01*
X230065000Y-128630000D02*
G75*
G02*
X230065000Y-128830000I0J-100000D01*
G01*
X230065000Y-128830000D02*
G75*
G02*
X230065000Y-128630000I0J100000D01*
G01*
%TO.C,FB1*%
X238430000Y-124480000D02*
X239030000Y-124480000D01*
%TO.C,J1*%
X245430000Y-127320000D02*
X245430000Y-136335000D01*
X245430000Y-136335000D02*
X248170000Y-136335000D01*
X248170000Y-125925000D02*
X246800000Y-125925000D01*
X248170000Y-136335000D02*
X248170000Y-125925000D01*
D13*
%TO.C,CS1*%
X227400000Y-134610000D02*
G75*
G02*
X225800000Y-134610000I-800000J0D01*
G01*
X225800000Y-134610000D02*
G75*
G02*
X227400000Y-134610000I800000J0D01*
G01*
D14*
%TO.C,J2*%
X236030000Y-151360000D02*
X244150000Y-151360000D01*
X236030000Y-154000000D02*
X236030000Y-151360000D01*
X244150000Y-151360000D02*
X244150000Y-154000000D01*
X244150000Y-154000000D02*
X236030000Y-154000000D01*
D12*
%TO.C,S2*%
X230890000Y-134660000D02*
X230890000Y-134660000D01*
X230990000Y-134660000D02*
X230990000Y-134660000D01*
D14*
X231840000Y-132810000D02*
X235890000Y-132810000D01*
X231840000Y-133660000D02*
X231840000Y-132810000D01*
X231840000Y-136510000D02*
X231840000Y-135660000D01*
X232090000Y-136510000D02*
X231840000Y-136510000D01*
X233890000Y-136510000D02*
X237940000Y-136510000D01*
X237690000Y-132810000D02*
X237940000Y-132810000D01*
X237940000Y-132810000D02*
X237940000Y-133660000D01*
X237940000Y-136510000D02*
X237940000Y-135660000D01*
D12*
X230890000Y-134660000D02*
G75*
G02*
X230990000Y-134660000I50000J0D01*
G01*
X230990000Y-134660000D02*
G75*
G02*
X230890000Y-134660000I-50000J0D01*
G01*
D13*
%TO.C,GD0*%
X231010000Y-138740000D02*
G75*
G02*
X229410000Y-138740000I-800000J0D01*
G01*
X229410000Y-138740000D02*
G75*
G02*
X231010000Y-138740000I800000J0D01*
G01*
D15*
%TO.C,IC2*%
X236575000Y-124127500D02*
G75*
G02*
X236325000Y-124127500I-125000J0D01*
G01*
X236325000Y-124127500D02*
G75*
G02*
X236575000Y-124127500I125000J0D01*
G01*
D13*
%TO.C,MISO1*%
X240970000Y-138980000D02*
G75*
G02*
X239370000Y-138980000I-800000J0D01*
G01*
X239370000Y-138980000D02*
G75*
G02*
X240970000Y-138980000I800000J0D01*
G01*
%TO.C,CLK1*%
X241560000Y-136470000D02*
G75*
G02*
X239960000Y-136470000I-800000J0D01*
G01*
X239960000Y-136470000D02*
G75*
G02*
X241560000Y-136470000I800000J0D01*
G01*
%TO.C,LED2*%
X227710000Y-143440000D02*
G75*
G02*
X226110000Y-143440000I-800000J0D01*
G01*
X226110000Y-143440000D02*
G75*
G02*
X227710000Y-143440000I800000J0D01*
G01*
%TO.C,C3*%
X231875580Y-148150000D02*
X231594420Y-148150000D01*
X231875580Y-149170000D02*
X231594420Y-149170000D01*
%TO.C,R2*%
X234027258Y-149887500D02*
X233552742Y-149887500D01*
X234027258Y-150932500D02*
X233552742Y-150932500D01*
%TO.C,RFVDD1*%
X242690000Y-125060000D02*
G75*
G02*
X241090000Y-125060000I-800000J0D01*
G01*
X241090000Y-125060000D02*
G75*
G02*
X242690000Y-125060000I800000J0D01*
G01*
%TO.C,MCUVDD1*%
X231860000Y-151380000D02*
G75*
G02*
X230260000Y-151380000I-800000J0D01*
G01*
X230260000Y-151380000D02*
G75*
G02*
X231860000Y-151380000I800000J0D01*
G01*
%TO.C,R1*%
X229217500Y-145772258D02*
X229217500Y-145297742D01*
X230262500Y-145772258D02*
X230262500Y-145297742D01*
D12*
%TO.C,LED1*%
X232300000Y-128830000D02*
X232300000Y-128830000D01*
X232400000Y-128830000D02*
X232400000Y-128830000D01*
X232300000Y-128830000D02*
G75*
G02*
X232400000Y-128830000I50000J0D01*
G01*
X232400000Y-128830000D02*
G75*
G02*
X232300000Y-128830000I-50000J0D01*
G01*
D14*
%TO.C,IC1*%
X231345000Y-141548000D02*
X231345000Y-145248000D01*
X231345000Y-145248000D02*
X237845000Y-145248000D01*
X237845000Y-141548000D02*
X231345000Y-141548000D01*
X237845000Y-145248000D02*
X237845000Y-141548000D01*
X238095000Y-147073000D02*
X238095000Y-145598000D01*
%TD*%
M02*
