%TF.GenerationSoftware,KiCad,Pcbnew,9.0.7*%
%TF.CreationDate,2026-08-08T22:31:38+01:00*%
%TF.ProjectId,sensor_rev1,73656e73-6f72-45f7-9265-76312e6b6963,REV1.0*%
%TF.SameCoordinates,Original*%
%TF.FileFunction,Soldermask,Bot*%
%TF.FilePolarity,Negative*%
%FSLAX46Y46*%
G04 Gerber Fmt 4.6, Leading zero omitted, Abs format (unit mm)*
G04 Created by KiCad (PCBNEW 9.0.7) date 2026-08-08 22:31:38*
%MOMM*%
%LPD*%
G01*
G04 APERTURE LIST*
G04 Aperture macros list*
%AMRoundRect*
0 Rectangle with rounded corners*
0 $1 Rounding radius*
0 $2 $3 $4 $5 $6 $7 $8 $9 X,Y pos of 4 corners*
0 Add a 4 corners polygon primitive as box body*
4,1,4,$2,$3,$4,$5,$6,$7,$8,$9,$2,$3,0*
0 Add four circle primitives for the rounded corners*
1,1,$1+$1,$2,$3*
1,1,$1+$1,$4,$5*
1,1,$1+$1,$6,$7*
1,1,$1+$1,$8,$9*
0 Add four rect primitives between the rounded corners*
20,1,$1+$1,$2,$3,$4,$5,0*
20,1,$1+$1,$4,$5,$6,$7,0*
20,1,$1+$1,$6,$7,$8,$9,0*
20,1,$1+$1,$8,$9,$2,$3,0*%
G04 Aperture macros list end*
%ADD10C,1.700000*%
%ADD11C,2.200000*%
%ADD12C,2.000000*%
%ADD13R,1.300000X1.300000*%
%ADD14C,1.300000*%
%ADD15RoundRect,0.225000X0.225000X0.250000X-0.225000X0.250000X-0.225000X-0.250000X0.225000X-0.250000X0*%
%ADD16C,1.000000*%
%ADD17RoundRect,0.225000X0.250000X-0.225000X0.250000X0.225000X-0.250000X0.225000X-0.250000X-0.225000X0*%
%ADD18R,1.050000X1.600000*%
%ADD19R,1.725000X1.725000*%
%ADD20C,1.725000*%
%ADD21R,1.400000X1.200000*%
%ADD22R,0.900000X0.400000*%
%ADD23RoundRect,0.200000X0.200000X0.275000X-0.200000X0.275000X-0.200000X-0.275000X0.200000X-0.275000X0*%
%ADD24RoundRect,0.200000X0.275000X-0.200000X0.275000X0.200000X-0.275000X0.200000X-0.275000X-0.200000X0*%
%ADD25R,1.750000X2.700000*%
%ADD26R,0.450000X1.475000*%
G04 APERTURE END LIST*
D10*
%TO.C,M5*%
X222000000Y-148000000D03*
%TD*%
%TO.C,M1*%
X222000000Y-92000000D03*
%TD*%
D11*
%TO.C,BT1*%
X227850000Y-151431535D03*
X241050000Y-128568465D03*
X222391670Y-134885641D03*
X223991670Y-132114359D03*
%TD*%
D12*
%TO.C,ANT1*%
X234560000Y-103930000D03*
%TD*%
D10*
%TO.C,M6*%
X246900000Y-148000000D03*
%TD*%
%TO.C,M2*%
X246900000Y-92000000D03*
%TD*%
D12*
%TO.C,FID4*%
X246900000Y-97000000D03*
%TD*%
D13*
%TO.C,S1*%
X246580000Y-100000000D03*
D14*
X246580000Y-123400000D03*
%TD*%
D15*
%TO.C,C2*%
X235645000Y-148650000D03*
X234095000Y-148650000D03*
%TD*%
D16*
%TO.C,MOSI1*%
X228150000Y-134840000D03*
%TD*%
D17*
%TO.C,C4*%
X239290000Y-144105000D03*
X239290000Y-142555000D03*
%TD*%
D18*
%TO.C,C1*%
X229140000Y-128730000D03*
X226190000Y-128730000D03*
%TD*%
D13*
%TO.C,S3*%
X222320000Y-100000000D03*
D14*
X222320000Y-123400000D03*
%TD*%
D19*
%TO.C,J1*%
X246800000Y-127320000D03*
D20*
X246800000Y-129860000D03*
X246800000Y-132400000D03*
X246800000Y-134940000D03*
%TD*%
D16*
%TO.C,CS1*%
X243370000Y-140190000D03*
%TD*%
D19*
%TO.C,J2*%
X237550000Y-152680000D03*
D20*
X240090000Y-152680000D03*
X242630000Y-152680000D03*
%TD*%
D21*
%TO.C,S2*%
X232090000Y-134660000D03*
X237690000Y-134660000D03*
D22*
X232990000Y-136360000D03*
X236790000Y-132960000D03*
%TD*%
D16*
%TO.C,GD0*%
X230210000Y-138740000D03*
%TD*%
%TO.C,MISO1*%
X228170000Y-132240000D03*
%TD*%
%TO.C,CLK1*%
X240710000Y-136270000D03*
%TD*%
D12*
%TO.C,FID5*%
X222120000Y-128560000D03*
%TD*%
%TO.C,FID6*%
X222120000Y-144000000D03*
%TD*%
D16*
%TO.C,LED2*%
X226910000Y-143440000D03*
%TD*%
D15*
%TO.C,C3*%
X232510000Y-148660000D03*
X230960000Y-148660000D03*
%TD*%
D23*
%TO.C,R2*%
X234615000Y-150410000D03*
X232965000Y-150410000D03*
%TD*%
D16*
%TO.C,RFVDD1*%
X229810000Y-125350000D03*
%TD*%
%TO.C,MCUVDD1*%
X231060000Y-151380000D03*
%TD*%
D24*
%TO.C,R1*%
X229740000Y-146360000D03*
X229740000Y-144710000D03*
%TD*%
D25*
%TO.C,LED1*%
X233700000Y-128830000D03*
X236500000Y-128830000D03*
%TD*%
D26*
%TO.C,IC1*%
X237520000Y-146336000D03*
X236870000Y-146336000D03*
X236220000Y-146336000D03*
X235570000Y-146336000D03*
X234920000Y-146336000D03*
X234270000Y-146336000D03*
X233620000Y-146336000D03*
X232970000Y-146336000D03*
X232320000Y-146336000D03*
X231670000Y-146336000D03*
X231670000Y-140460000D03*
X232320000Y-140460000D03*
X232970000Y-140460000D03*
X233620000Y-140460000D03*
X234270000Y-140460000D03*
X234920000Y-140460000D03*
X235570000Y-140460000D03*
X236220000Y-140460000D03*
X236870000Y-140460000D03*
X237520000Y-140460000D03*
%TD*%
M02*
