%TF.GenerationSoftware,KiCad,Pcbnew,10.0.6-10.0.6~ubuntu24.04.1*%
%TF.CreationDate,2026-08-31T18:28:37+01:00*%
%TF.ProjectId,sensor_rev1,73656e73-6f72-45f7-9265-76312e6b6963,REV1.0*%
%TF.SameCoordinates,Original*%
%TF.FileFunction,Legend,Bot*%
%TF.FilePolarity,Positive*%
%FSLAX46Y46*%
G04 Gerber Fmt 4.6, Leading zero omitted, Abs format (unit mm)*
G04 Created by KiCad (PCBNEW 10.0.6-10.0.6~ubuntu24.04.1) date 2026-08-31 18:28:37*
%MOMM*%
%LPD*%
G01*
G04 APERTURE LIST*
%ADD10C,0.254000*%
%ADD11C,0.153000*%
%ADD12C,0.150000*%
%ADD13C,0.200000*%
%ADD14C,0.100000*%
%ADD15C,0.120000*%
%ADD16C,0.250000*%
G04 APERTURE END LIST*
D10*
X235372619Y-134278842D02*
X235191190Y-134339318D01*
X235191190Y-134339318D02*
X234888809Y-134339318D01*
X234888809Y-134339318D02*
X234767857Y-134278842D01*
X234767857Y-134278842D02*
X234707381Y-134218365D01*
X234707381Y-134218365D02*
X234646904Y-134097413D01*
X234646904Y-134097413D02*
X234646904Y-133976461D01*
X234646904Y-133976461D02*
X234707381Y-133855508D01*
X234707381Y-133855508D02*
X234767857Y-133795032D01*
X234767857Y-133795032D02*
X234888809Y-133734556D01*
X234888809Y-133734556D02*
X235130714Y-133674080D01*
X235130714Y-133674080D02*
X235251666Y-133613603D01*
X235251666Y-133613603D02*
X235312143Y-133553127D01*
X235312143Y-133553127D02*
X235372619Y-133432175D01*
X235372619Y-133432175D02*
X235372619Y-133311222D01*
X235372619Y-133311222D02*
X235312143Y-133190270D01*
X235312143Y-133190270D02*
X235251666Y-133129794D01*
X235251666Y-133129794D02*
X235130714Y-133069318D01*
X235130714Y-133069318D02*
X234828333Y-133069318D01*
X234828333Y-133069318D02*
X234646904Y-133129794D01*
X234163095Y-133190270D02*
X234102619Y-133129794D01*
X234102619Y-133129794D02*
X233981666Y-133069318D01*
X233981666Y-133069318D02*
X233679285Y-133069318D01*
X233679285Y-133069318D02*
X233558333Y-133129794D01*
X233558333Y-133129794D02*
X233497857Y-133190270D01*
X233497857Y-133190270D02*
X233437380Y-133311222D01*
X233437380Y-133311222D02*
X233437380Y-133432175D01*
X233437380Y-133432175D02*
X233497857Y-133613603D01*
X233497857Y-133613603D02*
X234223571Y-134339318D01*
X234223571Y-134339318D02*
X233437380Y-134339318D01*
D11*
X242579047Y-121257163D02*
X242912380Y-120780972D01*
X243150475Y-121257163D02*
X243150475Y-120257163D01*
X243150475Y-120257163D02*
X242769523Y-120257163D01*
X242769523Y-120257163D02*
X242674285Y-120304782D01*
X242674285Y-120304782D02*
X242626666Y-120352401D01*
X242626666Y-120352401D02*
X242579047Y-120447639D01*
X242579047Y-120447639D02*
X242579047Y-120590496D01*
X242579047Y-120590496D02*
X242626666Y-120685734D01*
X242626666Y-120685734D02*
X242674285Y-120733353D01*
X242674285Y-120733353D02*
X242769523Y-120780972D01*
X242769523Y-120780972D02*
X243150475Y-120780972D01*
X241626666Y-121257163D02*
X242198094Y-121257163D01*
X241912380Y-121257163D02*
X241912380Y-120257163D01*
X241912380Y-120257163D02*
X242007618Y-120400020D01*
X242007618Y-120400020D02*
X242102856Y-120495258D01*
X242102856Y-120495258D02*
X242198094Y-120542877D01*
X241293332Y-120257163D02*
X240626666Y-120257163D01*
X240626666Y-120257163D02*
X241055237Y-121257163D01*
X239721904Y-121257163D02*
X240293332Y-121257163D01*
X240007618Y-121257163D02*
X240007618Y-120257163D01*
X240007618Y-120257163D02*
X240102856Y-120400020D01*
X240102856Y-120400020D02*
X240198094Y-120495258D01*
X240198094Y-120495258D02*
X240293332Y-120542877D01*
X247971428Y-94980853D02*
X248304761Y-94980853D01*
X248304761Y-95504663D02*
X248304761Y-94504663D01*
X248304761Y-94504663D02*
X247828571Y-94504663D01*
X247447618Y-95504663D02*
X247447618Y-94504663D01*
X246971428Y-95504663D02*
X246971428Y-94504663D01*
X246971428Y-94504663D02*
X246733333Y-94504663D01*
X246733333Y-94504663D02*
X246590476Y-94552282D01*
X246590476Y-94552282D02*
X246495238Y-94647520D01*
X246495238Y-94647520D02*
X246447619Y-94742758D01*
X246447619Y-94742758D02*
X246400000Y-94933234D01*
X246400000Y-94933234D02*
X246400000Y-95076091D01*
X246400000Y-95076091D02*
X246447619Y-95266567D01*
X246447619Y-95266567D02*
X246495238Y-95361805D01*
X246495238Y-95361805D02*
X246590476Y-95457044D01*
X246590476Y-95457044D02*
X246733333Y-95504663D01*
X246733333Y-95504663D02*
X246971428Y-95504663D01*
X245542857Y-94837996D02*
X245542857Y-95504663D01*
X245780952Y-94457044D02*
X246019047Y-95171329D01*
X246019047Y-95171329D02*
X245400000Y-95171329D01*
X231589047Y-112971924D02*
X231636666Y-113019544D01*
X231636666Y-113019544D02*
X231779523Y-113067163D01*
X231779523Y-113067163D02*
X231874761Y-113067163D01*
X231874761Y-113067163D02*
X232017618Y-113019544D01*
X232017618Y-113019544D02*
X232112856Y-112924305D01*
X232112856Y-112924305D02*
X232160475Y-112829067D01*
X232160475Y-112829067D02*
X232208094Y-112638591D01*
X232208094Y-112638591D02*
X232208094Y-112495734D01*
X232208094Y-112495734D02*
X232160475Y-112305258D01*
X232160475Y-112305258D02*
X232112856Y-112210020D01*
X232112856Y-112210020D02*
X232017618Y-112114782D01*
X232017618Y-112114782D02*
X231874761Y-112067163D01*
X231874761Y-112067163D02*
X231779523Y-112067163D01*
X231779523Y-112067163D02*
X231636666Y-112114782D01*
X231636666Y-112114782D02*
X231589047Y-112162401D01*
X230636666Y-113067163D02*
X231208094Y-113067163D01*
X230922380Y-113067163D02*
X230922380Y-112067163D01*
X230922380Y-112067163D02*
X231017618Y-112210020D01*
X231017618Y-112210020D02*
X231112856Y-112305258D01*
X231112856Y-112305258D02*
X231208094Y-112352877D01*
X230255713Y-112162401D02*
X230208094Y-112114782D01*
X230208094Y-112114782D02*
X230112856Y-112067163D01*
X230112856Y-112067163D02*
X229874761Y-112067163D01*
X229874761Y-112067163D02*
X229779523Y-112114782D01*
X229779523Y-112114782D02*
X229731904Y-112162401D01*
X229731904Y-112162401D02*
X229684285Y-112257639D01*
X229684285Y-112257639D02*
X229684285Y-112352877D01*
X229684285Y-112352877D02*
X229731904Y-112495734D01*
X229731904Y-112495734D02*
X230303332Y-113067163D01*
X230303332Y-113067163D02*
X229684285Y-113067163D01*
X229303332Y-112162401D02*
X229255713Y-112114782D01*
X229255713Y-112114782D02*
X229160475Y-112067163D01*
X229160475Y-112067163D02*
X228922380Y-112067163D01*
X228922380Y-112067163D02*
X228827142Y-112114782D01*
X228827142Y-112114782D02*
X228779523Y-112162401D01*
X228779523Y-112162401D02*
X228731904Y-112257639D01*
X228731904Y-112257639D02*
X228731904Y-112352877D01*
X228731904Y-112352877D02*
X228779523Y-112495734D01*
X228779523Y-112495734D02*
X229350951Y-113067163D01*
X229350951Y-113067163D02*
X228731904Y-113067163D01*
X240716666Y-122541924D02*
X240764285Y-122589544D01*
X240764285Y-122589544D02*
X240907142Y-122637163D01*
X240907142Y-122637163D02*
X241002380Y-122637163D01*
X241002380Y-122637163D02*
X241145237Y-122589544D01*
X241145237Y-122589544D02*
X241240475Y-122494305D01*
X241240475Y-122494305D02*
X241288094Y-122399067D01*
X241288094Y-122399067D02*
X241335713Y-122208591D01*
X241335713Y-122208591D02*
X241335713Y-122065734D01*
X241335713Y-122065734D02*
X241288094Y-121875258D01*
X241288094Y-121875258D02*
X241240475Y-121780020D01*
X241240475Y-121780020D02*
X241145237Y-121684782D01*
X241145237Y-121684782D02*
X241002380Y-121637163D01*
X241002380Y-121637163D02*
X240907142Y-121637163D01*
X240907142Y-121637163D02*
X240764285Y-121684782D01*
X240764285Y-121684782D02*
X240716666Y-121732401D01*
X239811904Y-121637163D02*
X240288094Y-121637163D01*
X240288094Y-121637163D02*
X240335713Y-122113353D01*
X240335713Y-122113353D02*
X240288094Y-122065734D01*
X240288094Y-122065734D02*
X240192856Y-122018115D01*
X240192856Y-122018115D02*
X239954761Y-122018115D01*
X239954761Y-122018115D02*
X239859523Y-122065734D01*
X239859523Y-122065734D02*
X239811904Y-122113353D01*
X239811904Y-122113353D02*
X239764285Y-122208591D01*
X239764285Y-122208591D02*
X239764285Y-122446686D01*
X239764285Y-122446686D02*
X239811904Y-122541924D01*
X239811904Y-122541924D02*
X239859523Y-122589544D01*
X239859523Y-122589544D02*
X239954761Y-122637163D01*
X239954761Y-122637163D02*
X240192856Y-122637163D01*
X240192856Y-122637163D02*
X240288094Y-122589544D01*
X240288094Y-122589544D02*
X240335713Y-122541924D01*
X229769047Y-114311924D02*
X229816666Y-114359544D01*
X229816666Y-114359544D02*
X229959523Y-114407163D01*
X229959523Y-114407163D02*
X230054761Y-114407163D01*
X230054761Y-114407163D02*
X230197618Y-114359544D01*
X230197618Y-114359544D02*
X230292856Y-114264305D01*
X230292856Y-114264305D02*
X230340475Y-114169067D01*
X230340475Y-114169067D02*
X230388094Y-113978591D01*
X230388094Y-113978591D02*
X230388094Y-113835734D01*
X230388094Y-113835734D02*
X230340475Y-113645258D01*
X230340475Y-113645258D02*
X230292856Y-113550020D01*
X230292856Y-113550020D02*
X230197618Y-113454782D01*
X230197618Y-113454782D02*
X230054761Y-113407163D01*
X230054761Y-113407163D02*
X229959523Y-113407163D01*
X229959523Y-113407163D02*
X229816666Y-113454782D01*
X229816666Y-113454782D02*
X229769047Y-113502401D01*
X228816666Y-114407163D02*
X229388094Y-114407163D01*
X229102380Y-114407163D02*
X229102380Y-113407163D01*
X229102380Y-113407163D02*
X229197618Y-113550020D01*
X229197618Y-113550020D02*
X229292856Y-113645258D01*
X229292856Y-113645258D02*
X229388094Y-113692877D01*
X228435713Y-113502401D02*
X228388094Y-113454782D01*
X228388094Y-113454782D02*
X228292856Y-113407163D01*
X228292856Y-113407163D02*
X228054761Y-113407163D01*
X228054761Y-113407163D02*
X227959523Y-113454782D01*
X227959523Y-113454782D02*
X227911904Y-113502401D01*
X227911904Y-113502401D02*
X227864285Y-113597639D01*
X227864285Y-113597639D02*
X227864285Y-113692877D01*
X227864285Y-113692877D02*
X227911904Y-113835734D01*
X227911904Y-113835734D02*
X228483332Y-114407163D01*
X228483332Y-114407163D02*
X227864285Y-114407163D01*
X227007142Y-113740496D02*
X227007142Y-114407163D01*
X227245237Y-113359544D02*
X227483332Y-114073829D01*
X227483332Y-114073829D02*
X226864285Y-114073829D01*
X223509424Y-120369642D02*
X223557044Y-120322023D01*
X223557044Y-120322023D02*
X223604663Y-120179166D01*
X223604663Y-120179166D02*
X223604663Y-120083928D01*
X223604663Y-120083928D02*
X223557044Y-119941071D01*
X223557044Y-119941071D02*
X223461805Y-119845833D01*
X223461805Y-119845833D02*
X223366567Y-119798214D01*
X223366567Y-119798214D02*
X223176091Y-119750595D01*
X223176091Y-119750595D02*
X223033234Y-119750595D01*
X223033234Y-119750595D02*
X222842758Y-119798214D01*
X222842758Y-119798214D02*
X222747520Y-119845833D01*
X222747520Y-119845833D02*
X222652282Y-119941071D01*
X222652282Y-119941071D02*
X222604663Y-120083928D01*
X222604663Y-120083928D02*
X222604663Y-120179166D01*
X222604663Y-120179166D02*
X222652282Y-120322023D01*
X222652282Y-120322023D02*
X222699901Y-120369642D01*
X223604663Y-121322023D02*
X223604663Y-120750595D01*
X223604663Y-121036309D02*
X222604663Y-121036309D01*
X222604663Y-121036309D02*
X222747520Y-120941071D01*
X222747520Y-120941071D02*
X222842758Y-120845833D01*
X222842758Y-120845833D02*
X222890377Y-120750595D01*
X223604663Y-122274404D02*
X223604663Y-121702976D01*
X223604663Y-121988690D02*
X222604663Y-121988690D01*
X222604663Y-121988690D02*
X222747520Y-121893452D01*
X222747520Y-121893452D02*
X222842758Y-121798214D01*
X222842758Y-121798214D02*
X222890377Y-121702976D01*
X226786190Y-117560972D02*
X226786190Y-118037163D01*
X227119523Y-117037163D02*
X226786190Y-117560972D01*
X226786190Y-117560972D02*
X226452857Y-117037163D01*
X225595714Y-118037163D02*
X226167142Y-118037163D01*
X225881428Y-118037163D02*
X225881428Y-117037163D01*
X225881428Y-117037163D02*
X225976666Y-117180020D01*
X225976666Y-117180020D02*
X226071904Y-117275258D01*
X226071904Y-117275258D02*
X226167142Y-117322877D01*
X232259047Y-106801924D02*
X232306666Y-106849544D01*
X232306666Y-106849544D02*
X232449523Y-106897163D01*
X232449523Y-106897163D02*
X232544761Y-106897163D01*
X232544761Y-106897163D02*
X232687618Y-106849544D01*
X232687618Y-106849544D02*
X232782856Y-106754305D01*
X232782856Y-106754305D02*
X232830475Y-106659067D01*
X232830475Y-106659067D02*
X232878094Y-106468591D01*
X232878094Y-106468591D02*
X232878094Y-106325734D01*
X232878094Y-106325734D02*
X232830475Y-106135258D01*
X232830475Y-106135258D02*
X232782856Y-106040020D01*
X232782856Y-106040020D02*
X232687618Y-105944782D01*
X232687618Y-105944782D02*
X232544761Y-105897163D01*
X232544761Y-105897163D02*
X232449523Y-105897163D01*
X232449523Y-105897163D02*
X232306666Y-105944782D01*
X232306666Y-105944782D02*
X232259047Y-105992401D01*
X231306666Y-106897163D02*
X231878094Y-106897163D01*
X231592380Y-106897163D02*
X231592380Y-105897163D01*
X231592380Y-105897163D02*
X231687618Y-106040020D01*
X231687618Y-106040020D02*
X231782856Y-106135258D01*
X231782856Y-106135258D02*
X231878094Y-106182877D01*
X230925713Y-105992401D02*
X230878094Y-105944782D01*
X230878094Y-105944782D02*
X230782856Y-105897163D01*
X230782856Y-105897163D02*
X230544761Y-105897163D01*
X230544761Y-105897163D02*
X230449523Y-105944782D01*
X230449523Y-105944782D02*
X230401904Y-105992401D01*
X230401904Y-105992401D02*
X230354285Y-106087639D01*
X230354285Y-106087639D02*
X230354285Y-106182877D01*
X230354285Y-106182877D02*
X230401904Y-106325734D01*
X230401904Y-106325734D02*
X230973332Y-106897163D01*
X230973332Y-106897163D02*
X230354285Y-106897163D01*
X229449523Y-105897163D02*
X229925713Y-105897163D01*
X229925713Y-105897163D02*
X229973332Y-106373353D01*
X229973332Y-106373353D02*
X229925713Y-106325734D01*
X229925713Y-106325734D02*
X229830475Y-106278115D01*
X229830475Y-106278115D02*
X229592380Y-106278115D01*
X229592380Y-106278115D02*
X229497142Y-106325734D01*
X229497142Y-106325734D02*
X229449523Y-106373353D01*
X229449523Y-106373353D02*
X229401904Y-106468591D01*
X229401904Y-106468591D02*
X229401904Y-106706686D01*
X229401904Y-106706686D02*
X229449523Y-106801924D01*
X229449523Y-106801924D02*
X229497142Y-106849544D01*
X229497142Y-106849544D02*
X229592380Y-106897163D01*
X229592380Y-106897163D02*
X229830475Y-106897163D01*
X229830475Y-106897163D02*
X229925713Y-106849544D01*
X229925713Y-106849544D02*
X229973332Y-106801924D01*
X228172857Y-124479424D02*
X228220476Y-124527044D01*
X228220476Y-124527044D02*
X228363333Y-124574663D01*
X228363333Y-124574663D02*
X228458571Y-124574663D01*
X228458571Y-124574663D02*
X228601428Y-124527044D01*
X228601428Y-124527044D02*
X228696666Y-124431805D01*
X228696666Y-124431805D02*
X228744285Y-124336567D01*
X228744285Y-124336567D02*
X228791904Y-124146091D01*
X228791904Y-124146091D02*
X228791904Y-124003234D01*
X228791904Y-124003234D02*
X228744285Y-123812758D01*
X228744285Y-123812758D02*
X228696666Y-123717520D01*
X228696666Y-123717520D02*
X228601428Y-123622282D01*
X228601428Y-123622282D02*
X228458571Y-123574663D01*
X228458571Y-123574663D02*
X228363333Y-123574663D01*
X228363333Y-123574663D02*
X228220476Y-123622282D01*
X228220476Y-123622282D02*
X228172857Y-123669901D01*
X227601428Y-124003234D02*
X227696666Y-123955615D01*
X227696666Y-123955615D02*
X227744285Y-123907996D01*
X227744285Y-123907996D02*
X227791904Y-123812758D01*
X227791904Y-123812758D02*
X227791904Y-123765139D01*
X227791904Y-123765139D02*
X227744285Y-123669901D01*
X227744285Y-123669901D02*
X227696666Y-123622282D01*
X227696666Y-123622282D02*
X227601428Y-123574663D01*
X227601428Y-123574663D02*
X227410952Y-123574663D01*
X227410952Y-123574663D02*
X227315714Y-123622282D01*
X227315714Y-123622282D02*
X227268095Y-123669901D01*
X227268095Y-123669901D02*
X227220476Y-123765139D01*
X227220476Y-123765139D02*
X227220476Y-123812758D01*
X227220476Y-123812758D02*
X227268095Y-123907996D01*
X227268095Y-123907996D02*
X227315714Y-123955615D01*
X227315714Y-123955615D02*
X227410952Y-124003234D01*
X227410952Y-124003234D02*
X227601428Y-124003234D01*
X227601428Y-124003234D02*
X227696666Y-124050853D01*
X227696666Y-124050853D02*
X227744285Y-124098472D01*
X227744285Y-124098472D02*
X227791904Y-124193710D01*
X227791904Y-124193710D02*
X227791904Y-124384186D01*
X227791904Y-124384186D02*
X227744285Y-124479424D01*
X227744285Y-124479424D02*
X227696666Y-124527044D01*
X227696666Y-124527044D02*
X227601428Y-124574663D01*
X227601428Y-124574663D02*
X227410952Y-124574663D01*
X227410952Y-124574663D02*
X227315714Y-124527044D01*
X227315714Y-124527044D02*
X227268095Y-124479424D01*
X227268095Y-124479424D02*
X227220476Y-124384186D01*
X227220476Y-124384186D02*
X227220476Y-124193710D01*
X227220476Y-124193710D02*
X227268095Y-124098472D01*
X227268095Y-124098472D02*
X227315714Y-124050853D01*
X227315714Y-124050853D02*
X227410952Y-124003234D01*
X226268095Y-124574663D02*
X226839523Y-124574663D01*
X226553809Y-124574663D02*
X226553809Y-123574663D01*
X226553809Y-123574663D02*
X226649047Y-123717520D01*
X226649047Y-123717520D02*
X226744285Y-123812758D01*
X226744285Y-123812758D02*
X226839523Y-123860377D01*
X238592857Y-119991924D02*
X238640476Y-120039544D01*
X238640476Y-120039544D02*
X238783333Y-120087163D01*
X238783333Y-120087163D02*
X238878571Y-120087163D01*
X238878571Y-120087163D02*
X239021428Y-120039544D01*
X239021428Y-120039544D02*
X239116666Y-119944305D01*
X239116666Y-119944305D02*
X239164285Y-119849067D01*
X239164285Y-119849067D02*
X239211904Y-119658591D01*
X239211904Y-119658591D02*
X239211904Y-119515734D01*
X239211904Y-119515734D02*
X239164285Y-119325258D01*
X239164285Y-119325258D02*
X239116666Y-119230020D01*
X239116666Y-119230020D02*
X239021428Y-119134782D01*
X239021428Y-119134782D02*
X238878571Y-119087163D01*
X238878571Y-119087163D02*
X238783333Y-119087163D01*
X238783333Y-119087163D02*
X238640476Y-119134782D01*
X238640476Y-119134782D02*
X238592857Y-119182401D01*
X237640476Y-120087163D02*
X238211904Y-120087163D01*
X237926190Y-120087163D02*
X237926190Y-119087163D01*
X237926190Y-119087163D02*
X238021428Y-119230020D01*
X238021428Y-119230020D02*
X238116666Y-119325258D01*
X238116666Y-119325258D02*
X238211904Y-119372877D01*
X237021428Y-119087163D02*
X236926190Y-119087163D01*
X236926190Y-119087163D02*
X236830952Y-119134782D01*
X236830952Y-119134782D02*
X236783333Y-119182401D01*
X236783333Y-119182401D02*
X236735714Y-119277639D01*
X236735714Y-119277639D02*
X236688095Y-119468115D01*
X236688095Y-119468115D02*
X236688095Y-119706210D01*
X236688095Y-119706210D02*
X236735714Y-119896686D01*
X236735714Y-119896686D02*
X236783333Y-119991924D01*
X236783333Y-119991924D02*
X236830952Y-120039544D01*
X236830952Y-120039544D02*
X236926190Y-120087163D01*
X236926190Y-120087163D02*
X237021428Y-120087163D01*
X237021428Y-120087163D02*
X237116666Y-120039544D01*
X237116666Y-120039544D02*
X237164285Y-119991924D01*
X237164285Y-119991924D02*
X237211904Y-119896686D01*
X237211904Y-119896686D02*
X237259523Y-119706210D01*
X237259523Y-119706210D02*
X237259523Y-119468115D01*
X237259523Y-119468115D02*
X237211904Y-119277639D01*
X237211904Y-119277639D02*
X237164285Y-119182401D01*
X237164285Y-119182401D02*
X237116666Y-119134782D01*
X237116666Y-119134782D02*
X237021428Y-119087163D01*
X237531666Y-149049424D02*
X237579285Y-149097044D01*
X237579285Y-149097044D02*
X237722142Y-149144663D01*
X237722142Y-149144663D02*
X237817380Y-149144663D01*
X237817380Y-149144663D02*
X237960237Y-149097044D01*
X237960237Y-149097044D02*
X238055475Y-149001805D01*
X238055475Y-149001805D02*
X238103094Y-148906567D01*
X238103094Y-148906567D02*
X238150713Y-148716091D01*
X238150713Y-148716091D02*
X238150713Y-148573234D01*
X238150713Y-148573234D02*
X238103094Y-148382758D01*
X238103094Y-148382758D02*
X238055475Y-148287520D01*
X238055475Y-148287520D02*
X237960237Y-148192282D01*
X237960237Y-148192282D02*
X237817380Y-148144663D01*
X237817380Y-148144663D02*
X237722142Y-148144663D01*
X237722142Y-148144663D02*
X237579285Y-148192282D01*
X237579285Y-148192282D02*
X237531666Y-148239901D01*
X237150713Y-148239901D02*
X237103094Y-148192282D01*
X237103094Y-148192282D02*
X237007856Y-148144663D01*
X237007856Y-148144663D02*
X236769761Y-148144663D01*
X236769761Y-148144663D02*
X236674523Y-148192282D01*
X236674523Y-148192282D02*
X236626904Y-148239901D01*
X236626904Y-148239901D02*
X236579285Y-148335139D01*
X236579285Y-148335139D02*
X236579285Y-148430377D01*
X236579285Y-148430377D02*
X236626904Y-148573234D01*
X236626904Y-148573234D02*
X237198332Y-149144663D01*
X237198332Y-149144663D02*
X236579285Y-149144663D01*
X240176666Y-118811924D02*
X240224285Y-118859544D01*
X240224285Y-118859544D02*
X240367142Y-118907163D01*
X240367142Y-118907163D02*
X240462380Y-118907163D01*
X240462380Y-118907163D02*
X240605237Y-118859544D01*
X240605237Y-118859544D02*
X240700475Y-118764305D01*
X240700475Y-118764305D02*
X240748094Y-118669067D01*
X240748094Y-118669067D02*
X240795713Y-118478591D01*
X240795713Y-118478591D02*
X240795713Y-118335734D01*
X240795713Y-118335734D02*
X240748094Y-118145258D01*
X240748094Y-118145258D02*
X240700475Y-118050020D01*
X240700475Y-118050020D02*
X240605237Y-117954782D01*
X240605237Y-117954782D02*
X240462380Y-117907163D01*
X240462380Y-117907163D02*
X240367142Y-117907163D01*
X240367142Y-117907163D02*
X240224285Y-117954782D01*
X240224285Y-117954782D02*
X240176666Y-118002401D01*
X239319523Y-117907163D02*
X239509999Y-117907163D01*
X239509999Y-117907163D02*
X239605237Y-117954782D01*
X239605237Y-117954782D02*
X239652856Y-118002401D01*
X239652856Y-118002401D02*
X239748094Y-118145258D01*
X239748094Y-118145258D02*
X239795713Y-118335734D01*
X239795713Y-118335734D02*
X239795713Y-118716686D01*
X239795713Y-118716686D02*
X239748094Y-118811924D01*
X239748094Y-118811924D02*
X239700475Y-118859544D01*
X239700475Y-118859544D02*
X239605237Y-118907163D01*
X239605237Y-118907163D02*
X239414761Y-118907163D01*
X239414761Y-118907163D02*
X239319523Y-118859544D01*
X239319523Y-118859544D02*
X239271904Y-118811924D01*
X239271904Y-118811924D02*
X239224285Y-118716686D01*
X239224285Y-118716686D02*
X239224285Y-118478591D01*
X239224285Y-118478591D02*
X239271904Y-118383353D01*
X239271904Y-118383353D02*
X239319523Y-118335734D01*
X239319523Y-118335734D02*
X239414761Y-118288115D01*
X239414761Y-118288115D02*
X239605237Y-118288115D01*
X239605237Y-118288115D02*
X239700475Y-118335734D01*
X239700475Y-118335734D02*
X239748094Y-118383353D01*
X239748094Y-118383353D02*
X239795713Y-118478591D01*
X230927618Y-130974663D02*
X230927618Y-129974663D01*
X230927618Y-129974663D02*
X230594285Y-130688948D01*
X230594285Y-130688948D02*
X230260952Y-129974663D01*
X230260952Y-129974663D02*
X230260952Y-130974663D01*
X229594285Y-129974663D02*
X229403809Y-129974663D01*
X229403809Y-129974663D02*
X229308571Y-130022282D01*
X229308571Y-130022282D02*
X229213333Y-130117520D01*
X229213333Y-130117520D02*
X229165714Y-130307996D01*
X229165714Y-130307996D02*
X229165714Y-130641329D01*
X229165714Y-130641329D02*
X229213333Y-130831805D01*
X229213333Y-130831805D02*
X229308571Y-130927044D01*
X229308571Y-130927044D02*
X229403809Y-130974663D01*
X229403809Y-130974663D02*
X229594285Y-130974663D01*
X229594285Y-130974663D02*
X229689523Y-130927044D01*
X229689523Y-130927044D02*
X229784761Y-130831805D01*
X229784761Y-130831805D02*
X229832380Y-130641329D01*
X229832380Y-130641329D02*
X229832380Y-130307996D01*
X229832380Y-130307996D02*
X229784761Y-130117520D01*
X229784761Y-130117520D02*
X229689523Y-130022282D01*
X229689523Y-130022282D02*
X229594285Y-129974663D01*
X228784761Y-130927044D02*
X228641904Y-130974663D01*
X228641904Y-130974663D02*
X228403809Y-130974663D01*
X228403809Y-130974663D02*
X228308571Y-130927044D01*
X228308571Y-130927044D02*
X228260952Y-130879424D01*
X228260952Y-130879424D02*
X228213333Y-130784186D01*
X228213333Y-130784186D02*
X228213333Y-130688948D01*
X228213333Y-130688948D02*
X228260952Y-130593710D01*
X228260952Y-130593710D02*
X228308571Y-130546091D01*
X228308571Y-130546091D02*
X228403809Y-130498472D01*
X228403809Y-130498472D02*
X228594285Y-130450853D01*
X228594285Y-130450853D02*
X228689523Y-130403234D01*
X228689523Y-130403234D02*
X228737142Y-130355615D01*
X228737142Y-130355615D02*
X228784761Y-130260377D01*
X228784761Y-130260377D02*
X228784761Y-130165139D01*
X228784761Y-130165139D02*
X228737142Y-130069901D01*
X228737142Y-130069901D02*
X228689523Y-130022282D01*
X228689523Y-130022282D02*
X228594285Y-129974663D01*
X228594285Y-129974663D02*
X228356190Y-129974663D01*
X228356190Y-129974663D02*
X228213333Y-130022282D01*
X227784761Y-130974663D02*
X227784761Y-129974663D01*
X226784762Y-130974663D02*
X227356190Y-130974663D01*
X227070476Y-130974663D02*
X227070476Y-129974663D01*
X227070476Y-129974663D02*
X227165714Y-130117520D01*
X227165714Y-130117520D02*
X227260952Y-130212758D01*
X227260952Y-130212758D02*
X227356190Y-130260377D01*
X241326666Y-143669424D02*
X241374285Y-143717044D01*
X241374285Y-143717044D02*
X241517142Y-143764663D01*
X241517142Y-143764663D02*
X241612380Y-143764663D01*
X241612380Y-143764663D02*
X241755237Y-143717044D01*
X241755237Y-143717044D02*
X241850475Y-143621805D01*
X241850475Y-143621805D02*
X241898094Y-143526567D01*
X241898094Y-143526567D02*
X241945713Y-143336091D01*
X241945713Y-143336091D02*
X241945713Y-143193234D01*
X241945713Y-143193234D02*
X241898094Y-143002758D01*
X241898094Y-143002758D02*
X241850475Y-142907520D01*
X241850475Y-142907520D02*
X241755237Y-142812282D01*
X241755237Y-142812282D02*
X241612380Y-142764663D01*
X241612380Y-142764663D02*
X241517142Y-142764663D01*
X241517142Y-142764663D02*
X241374285Y-142812282D01*
X241374285Y-142812282D02*
X241326666Y-142859901D01*
X240469523Y-143097996D02*
X240469523Y-143764663D01*
X240707618Y-142717044D02*
X240945713Y-143431329D01*
X240945713Y-143431329D02*
X240326666Y-143431329D01*
X224446666Y-128759424D02*
X224494285Y-128807044D01*
X224494285Y-128807044D02*
X224637142Y-128854663D01*
X224637142Y-128854663D02*
X224732380Y-128854663D01*
X224732380Y-128854663D02*
X224875237Y-128807044D01*
X224875237Y-128807044D02*
X224970475Y-128711805D01*
X224970475Y-128711805D02*
X225018094Y-128616567D01*
X225018094Y-128616567D02*
X225065713Y-128426091D01*
X225065713Y-128426091D02*
X225065713Y-128283234D01*
X225065713Y-128283234D02*
X225018094Y-128092758D01*
X225018094Y-128092758D02*
X224970475Y-127997520D01*
X224970475Y-127997520D02*
X224875237Y-127902282D01*
X224875237Y-127902282D02*
X224732380Y-127854663D01*
X224732380Y-127854663D02*
X224637142Y-127854663D01*
X224637142Y-127854663D02*
X224494285Y-127902282D01*
X224494285Y-127902282D02*
X224446666Y-127949901D01*
X223494285Y-128854663D02*
X224065713Y-128854663D01*
X223779999Y-128854663D02*
X223779999Y-127854663D01*
X223779999Y-127854663D02*
X223875237Y-127997520D01*
X223875237Y-127997520D02*
X223970475Y-128092758D01*
X223970475Y-128092758D02*
X224065713Y-128140377D01*
X238670853Y-126986666D02*
X238670853Y-126653333D01*
X239194663Y-126653333D02*
X238194663Y-126653333D01*
X238194663Y-126653333D02*
X238194663Y-127129523D01*
X238670853Y-127843809D02*
X238718472Y-127986666D01*
X238718472Y-127986666D02*
X238766091Y-128034285D01*
X238766091Y-128034285D02*
X238861329Y-128081904D01*
X238861329Y-128081904D02*
X239004186Y-128081904D01*
X239004186Y-128081904D02*
X239099424Y-128034285D01*
X239099424Y-128034285D02*
X239147044Y-127986666D01*
X239147044Y-127986666D02*
X239194663Y-127891428D01*
X239194663Y-127891428D02*
X239194663Y-127510476D01*
X239194663Y-127510476D02*
X238194663Y-127510476D01*
X238194663Y-127510476D02*
X238194663Y-127843809D01*
X238194663Y-127843809D02*
X238242282Y-127939047D01*
X238242282Y-127939047D02*
X238289901Y-127986666D01*
X238289901Y-127986666D02*
X238385139Y-128034285D01*
X238385139Y-128034285D02*
X238480377Y-128034285D01*
X238480377Y-128034285D02*
X238575615Y-127986666D01*
X238575615Y-127986666D02*
X238623234Y-127939047D01*
X238623234Y-127939047D02*
X238670853Y-127843809D01*
X238670853Y-127843809D02*
X238670853Y-127510476D01*
X239194663Y-129034285D02*
X239194663Y-128462857D01*
X239194663Y-128748571D02*
X238194663Y-128748571D01*
X238194663Y-128748571D02*
X238337520Y-128653333D01*
X238337520Y-128653333D02*
X238432758Y-128558095D01*
X238432758Y-128558095D02*
X238480377Y-128462857D01*
X239519047Y-116139424D02*
X239566666Y-116187044D01*
X239566666Y-116187044D02*
X239709523Y-116234663D01*
X239709523Y-116234663D02*
X239804761Y-116234663D01*
X239804761Y-116234663D02*
X239947618Y-116187044D01*
X239947618Y-116187044D02*
X240042856Y-116091805D01*
X240042856Y-116091805D02*
X240090475Y-115996567D01*
X240090475Y-115996567D02*
X240138094Y-115806091D01*
X240138094Y-115806091D02*
X240138094Y-115663234D01*
X240138094Y-115663234D02*
X240090475Y-115472758D01*
X240090475Y-115472758D02*
X240042856Y-115377520D01*
X240042856Y-115377520D02*
X239947618Y-115282282D01*
X239947618Y-115282282D02*
X239804761Y-115234663D01*
X239804761Y-115234663D02*
X239709523Y-115234663D01*
X239709523Y-115234663D02*
X239566666Y-115282282D01*
X239566666Y-115282282D02*
X239519047Y-115329901D01*
X238566666Y-116234663D02*
X239138094Y-116234663D01*
X238852380Y-116234663D02*
X238852380Y-115234663D01*
X238852380Y-115234663D02*
X238947618Y-115377520D01*
X238947618Y-115377520D02*
X239042856Y-115472758D01*
X239042856Y-115472758D02*
X239138094Y-115520377D01*
X238185713Y-115329901D02*
X238138094Y-115282282D01*
X238138094Y-115282282D02*
X238042856Y-115234663D01*
X238042856Y-115234663D02*
X237804761Y-115234663D01*
X237804761Y-115234663D02*
X237709523Y-115282282D01*
X237709523Y-115282282D02*
X237661904Y-115329901D01*
X237661904Y-115329901D02*
X237614285Y-115425139D01*
X237614285Y-115425139D02*
X237614285Y-115520377D01*
X237614285Y-115520377D02*
X237661904Y-115663234D01*
X237661904Y-115663234D02*
X238233332Y-116234663D01*
X238233332Y-116234663D02*
X237614285Y-116234663D01*
X236661904Y-116234663D02*
X237233332Y-116234663D01*
X236947618Y-116234663D02*
X236947618Y-115234663D01*
X236947618Y-115234663D02*
X237042856Y-115377520D01*
X237042856Y-115377520D02*
X237138094Y-115472758D01*
X237138094Y-115472758D02*
X237233332Y-115520377D01*
X231629047Y-111687163D02*
X232105237Y-111687163D01*
X232105237Y-111687163D02*
X232105237Y-110687163D01*
X230771904Y-111687163D02*
X231343332Y-111687163D01*
X231057618Y-111687163D02*
X231057618Y-110687163D01*
X231057618Y-110687163D02*
X231152856Y-110830020D01*
X231152856Y-110830020D02*
X231248094Y-110925258D01*
X231248094Y-110925258D02*
X231343332Y-110972877D01*
X230390951Y-110782401D02*
X230343332Y-110734782D01*
X230343332Y-110734782D02*
X230248094Y-110687163D01*
X230248094Y-110687163D02*
X230009999Y-110687163D01*
X230009999Y-110687163D02*
X229914761Y-110734782D01*
X229914761Y-110734782D02*
X229867142Y-110782401D01*
X229867142Y-110782401D02*
X229819523Y-110877639D01*
X229819523Y-110877639D02*
X229819523Y-110972877D01*
X229819523Y-110972877D02*
X229867142Y-111115734D01*
X229867142Y-111115734D02*
X230438570Y-111687163D01*
X230438570Y-111687163D02*
X229819523Y-111687163D01*
X229486189Y-110687163D02*
X228867142Y-110687163D01*
X228867142Y-110687163D02*
X229200475Y-111068115D01*
X229200475Y-111068115D02*
X229057618Y-111068115D01*
X229057618Y-111068115D02*
X228962380Y-111115734D01*
X228962380Y-111115734D02*
X228914761Y-111163353D01*
X228914761Y-111163353D02*
X228867142Y-111258591D01*
X228867142Y-111258591D02*
X228867142Y-111496686D01*
X228867142Y-111496686D02*
X228914761Y-111591924D01*
X228914761Y-111591924D02*
X228962380Y-111639544D01*
X228962380Y-111639544D02*
X229057618Y-111687163D01*
X229057618Y-111687163D02*
X229343332Y-111687163D01*
X229343332Y-111687163D02*
X229438570Y-111639544D01*
X229438570Y-111639544D02*
X229486189Y-111591924D01*
X247153333Y-137104663D02*
X247153333Y-137818948D01*
X247153333Y-137818948D02*
X247200952Y-137961805D01*
X247200952Y-137961805D02*
X247296190Y-138057044D01*
X247296190Y-138057044D02*
X247439047Y-138104663D01*
X247439047Y-138104663D02*
X247534285Y-138104663D01*
X246153333Y-138104663D02*
X246724761Y-138104663D01*
X246439047Y-138104663D02*
X246439047Y-137104663D01*
X246439047Y-137104663D02*
X246534285Y-137247520D01*
X246534285Y-137247520D02*
X246629523Y-137342758D01*
X246629523Y-137342758D02*
X246724761Y-137390377D01*
X232589047Y-117337163D02*
X233065237Y-117337163D01*
X233065237Y-117337163D02*
X233065237Y-116337163D01*
X231731904Y-117337163D02*
X232303332Y-117337163D01*
X232017618Y-117337163D02*
X232017618Y-116337163D01*
X232017618Y-116337163D02*
X232112856Y-116480020D01*
X232112856Y-116480020D02*
X232208094Y-116575258D01*
X232208094Y-116575258D02*
X232303332Y-116622877D01*
X231350951Y-116432401D02*
X231303332Y-116384782D01*
X231303332Y-116384782D02*
X231208094Y-116337163D01*
X231208094Y-116337163D02*
X230969999Y-116337163D01*
X230969999Y-116337163D02*
X230874761Y-116384782D01*
X230874761Y-116384782D02*
X230827142Y-116432401D01*
X230827142Y-116432401D02*
X230779523Y-116527639D01*
X230779523Y-116527639D02*
X230779523Y-116622877D01*
X230779523Y-116622877D02*
X230827142Y-116765734D01*
X230827142Y-116765734D02*
X231398570Y-117337163D01*
X231398570Y-117337163D02*
X230779523Y-117337163D01*
X229827142Y-117337163D02*
X230398570Y-117337163D01*
X230112856Y-117337163D02*
X230112856Y-116337163D01*
X230112856Y-116337163D02*
X230208094Y-116480020D01*
X230208094Y-116480020D02*
X230303332Y-116575258D01*
X230303332Y-116575258D02*
X230398570Y-116622877D01*
D12*
X231614819Y-128211905D02*
X230614819Y-128211905D01*
X230614819Y-128211905D02*
X230614819Y-128450000D01*
X230614819Y-128450000D02*
X230662438Y-128592857D01*
X230662438Y-128592857D02*
X230757676Y-128688095D01*
X230757676Y-128688095D02*
X230852914Y-128735714D01*
X230852914Y-128735714D02*
X231043390Y-128783333D01*
X231043390Y-128783333D02*
X231186247Y-128783333D01*
X231186247Y-128783333D02*
X231376723Y-128735714D01*
X231376723Y-128735714D02*
X231471961Y-128688095D01*
X231471961Y-128688095D02*
X231567200Y-128592857D01*
X231567200Y-128592857D02*
X231614819Y-128450000D01*
X231614819Y-128450000D02*
X231614819Y-128211905D01*
X231614819Y-129735714D02*
X231614819Y-129164286D01*
X231614819Y-129450000D02*
X230614819Y-129450000D01*
X230614819Y-129450000D02*
X230757676Y-129354762D01*
X230757676Y-129354762D02*
X230852914Y-129259524D01*
X230852914Y-129259524D02*
X230900533Y-129164286D01*
D11*
X226662857Y-136999424D02*
X226710476Y-137047044D01*
X226710476Y-137047044D02*
X226853333Y-137094663D01*
X226853333Y-137094663D02*
X226948571Y-137094663D01*
X226948571Y-137094663D02*
X227091428Y-137047044D01*
X227091428Y-137047044D02*
X227186666Y-136951805D01*
X227186666Y-136951805D02*
X227234285Y-136856567D01*
X227234285Y-136856567D02*
X227281904Y-136666091D01*
X227281904Y-136666091D02*
X227281904Y-136523234D01*
X227281904Y-136523234D02*
X227234285Y-136332758D01*
X227234285Y-136332758D02*
X227186666Y-136237520D01*
X227186666Y-136237520D02*
X227091428Y-136142282D01*
X227091428Y-136142282D02*
X226948571Y-136094663D01*
X226948571Y-136094663D02*
X226853333Y-136094663D01*
X226853333Y-136094663D02*
X226710476Y-136142282D01*
X226710476Y-136142282D02*
X226662857Y-136189901D01*
X226281904Y-137047044D02*
X226139047Y-137094663D01*
X226139047Y-137094663D02*
X225900952Y-137094663D01*
X225900952Y-137094663D02*
X225805714Y-137047044D01*
X225805714Y-137047044D02*
X225758095Y-136999424D01*
X225758095Y-136999424D02*
X225710476Y-136904186D01*
X225710476Y-136904186D02*
X225710476Y-136808948D01*
X225710476Y-136808948D02*
X225758095Y-136713710D01*
X225758095Y-136713710D02*
X225805714Y-136666091D01*
X225805714Y-136666091D02*
X225900952Y-136618472D01*
X225900952Y-136618472D02*
X226091428Y-136570853D01*
X226091428Y-136570853D02*
X226186666Y-136523234D01*
X226186666Y-136523234D02*
X226234285Y-136475615D01*
X226234285Y-136475615D02*
X226281904Y-136380377D01*
X226281904Y-136380377D02*
X226281904Y-136285139D01*
X226281904Y-136285139D02*
X226234285Y-136189901D01*
X226234285Y-136189901D02*
X226186666Y-136142282D01*
X226186666Y-136142282D02*
X226091428Y-136094663D01*
X226091428Y-136094663D02*
X225853333Y-136094663D01*
X225853333Y-136094663D02*
X225710476Y-136142282D01*
X224758095Y-137094663D02*
X225329523Y-137094663D01*
X225043809Y-137094663D02*
X225043809Y-136094663D01*
X225043809Y-136094663D02*
X225139047Y-136237520D01*
X225139047Y-136237520D02*
X225234285Y-136332758D01*
X225234285Y-136332758D02*
X225329523Y-136380377D01*
X228919424Y-115420952D02*
X228967044Y-115373333D01*
X228967044Y-115373333D02*
X229014663Y-115230476D01*
X229014663Y-115230476D02*
X229014663Y-115135238D01*
X229014663Y-115135238D02*
X228967044Y-114992381D01*
X228967044Y-114992381D02*
X228871805Y-114897143D01*
X228871805Y-114897143D02*
X228776567Y-114849524D01*
X228776567Y-114849524D02*
X228586091Y-114801905D01*
X228586091Y-114801905D02*
X228443234Y-114801905D01*
X228443234Y-114801905D02*
X228252758Y-114849524D01*
X228252758Y-114849524D02*
X228157520Y-114897143D01*
X228157520Y-114897143D02*
X228062282Y-114992381D01*
X228062282Y-114992381D02*
X228014663Y-115135238D01*
X228014663Y-115135238D02*
X228014663Y-115230476D01*
X228014663Y-115230476D02*
X228062282Y-115373333D01*
X228062282Y-115373333D02*
X228109901Y-115420952D01*
X229014663Y-116373333D02*
X229014663Y-115801905D01*
X229014663Y-116087619D02*
X228014663Y-116087619D01*
X228014663Y-116087619D02*
X228157520Y-115992381D01*
X228157520Y-115992381D02*
X228252758Y-115897143D01*
X228252758Y-115897143D02*
X228300377Y-115801905D01*
X228014663Y-116992381D02*
X228014663Y-117087619D01*
X228014663Y-117087619D02*
X228062282Y-117182857D01*
X228062282Y-117182857D02*
X228109901Y-117230476D01*
X228109901Y-117230476D02*
X228205139Y-117278095D01*
X228205139Y-117278095D02*
X228395615Y-117325714D01*
X228395615Y-117325714D02*
X228633710Y-117325714D01*
X228633710Y-117325714D02*
X228824186Y-117278095D01*
X228824186Y-117278095D02*
X228919424Y-117230476D01*
X228919424Y-117230476D02*
X228967044Y-117182857D01*
X228967044Y-117182857D02*
X229014663Y-117087619D01*
X229014663Y-117087619D02*
X229014663Y-116992381D01*
X229014663Y-116992381D02*
X228967044Y-116897143D01*
X228967044Y-116897143D02*
X228919424Y-116849524D01*
X228919424Y-116849524D02*
X228824186Y-116801905D01*
X228824186Y-116801905D02*
X228633710Y-116754286D01*
X228633710Y-116754286D02*
X228395615Y-116754286D01*
X228395615Y-116754286D02*
X228205139Y-116801905D01*
X228205139Y-116801905D02*
X228109901Y-116849524D01*
X228109901Y-116849524D02*
X228062282Y-116897143D01*
X228062282Y-116897143D02*
X228014663Y-116992381D01*
X229014663Y-118278095D02*
X229014663Y-117706667D01*
X229014663Y-117992381D02*
X228014663Y-117992381D01*
X228014663Y-117992381D02*
X228157520Y-117897143D01*
X228157520Y-117897143D02*
X228252758Y-117801905D01*
X228252758Y-117801905D02*
X228300377Y-117706667D01*
X239369047Y-114779424D02*
X239416666Y-114827044D01*
X239416666Y-114827044D02*
X239559523Y-114874663D01*
X239559523Y-114874663D02*
X239654761Y-114874663D01*
X239654761Y-114874663D02*
X239797618Y-114827044D01*
X239797618Y-114827044D02*
X239892856Y-114731805D01*
X239892856Y-114731805D02*
X239940475Y-114636567D01*
X239940475Y-114636567D02*
X239988094Y-114446091D01*
X239988094Y-114446091D02*
X239988094Y-114303234D01*
X239988094Y-114303234D02*
X239940475Y-114112758D01*
X239940475Y-114112758D02*
X239892856Y-114017520D01*
X239892856Y-114017520D02*
X239797618Y-113922282D01*
X239797618Y-113922282D02*
X239654761Y-113874663D01*
X239654761Y-113874663D02*
X239559523Y-113874663D01*
X239559523Y-113874663D02*
X239416666Y-113922282D01*
X239416666Y-113922282D02*
X239369047Y-113969901D01*
X238416666Y-114874663D02*
X238988094Y-114874663D01*
X238702380Y-114874663D02*
X238702380Y-113874663D01*
X238702380Y-113874663D02*
X238797618Y-114017520D01*
X238797618Y-114017520D02*
X238892856Y-114112758D01*
X238892856Y-114112758D02*
X238988094Y-114160377D01*
X238083332Y-113874663D02*
X237464285Y-113874663D01*
X237464285Y-113874663D02*
X237797618Y-114255615D01*
X237797618Y-114255615D02*
X237654761Y-114255615D01*
X237654761Y-114255615D02*
X237559523Y-114303234D01*
X237559523Y-114303234D02*
X237511904Y-114350853D01*
X237511904Y-114350853D02*
X237464285Y-114446091D01*
X237464285Y-114446091D02*
X237464285Y-114684186D01*
X237464285Y-114684186D02*
X237511904Y-114779424D01*
X237511904Y-114779424D02*
X237559523Y-114827044D01*
X237559523Y-114827044D02*
X237654761Y-114874663D01*
X237654761Y-114874663D02*
X237940475Y-114874663D01*
X237940475Y-114874663D02*
X238035713Y-114827044D01*
X238035713Y-114827044D02*
X238083332Y-114779424D01*
X236511904Y-114874663D02*
X237083332Y-114874663D01*
X236797618Y-114874663D02*
X236797618Y-113874663D01*
X236797618Y-113874663D02*
X236892856Y-114017520D01*
X236892856Y-114017520D02*
X236988094Y-114112758D01*
X236988094Y-114112758D02*
X237083332Y-114160377D01*
X231699047Y-110271924D02*
X231746666Y-110319544D01*
X231746666Y-110319544D02*
X231889523Y-110367163D01*
X231889523Y-110367163D02*
X231984761Y-110367163D01*
X231984761Y-110367163D02*
X232127618Y-110319544D01*
X232127618Y-110319544D02*
X232222856Y-110224305D01*
X232222856Y-110224305D02*
X232270475Y-110129067D01*
X232270475Y-110129067D02*
X232318094Y-109938591D01*
X232318094Y-109938591D02*
X232318094Y-109795734D01*
X232318094Y-109795734D02*
X232270475Y-109605258D01*
X232270475Y-109605258D02*
X232222856Y-109510020D01*
X232222856Y-109510020D02*
X232127618Y-109414782D01*
X232127618Y-109414782D02*
X231984761Y-109367163D01*
X231984761Y-109367163D02*
X231889523Y-109367163D01*
X231889523Y-109367163D02*
X231746666Y-109414782D01*
X231746666Y-109414782D02*
X231699047Y-109462401D01*
X230746666Y-110367163D02*
X231318094Y-110367163D01*
X231032380Y-110367163D02*
X231032380Y-109367163D01*
X231032380Y-109367163D02*
X231127618Y-109510020D01*
X231127618Y-109510020D02*
X231222856Y-109605258D01*
X231222856Y-109605258D02*
X231318094Y-109652877D01*
X230365713Y-109462401D02*
X230318094Y-109414782D01*
X230318094Y-109414782D02*
X230222856Y-109367163D01*
X230222856Y-109367163D02*
X229984761Y-109367163D01*
X229984761Y-109367163D02*
X229889523Y-109414782D01*
X229889523Y-109414782D02*
X229841904Y-109462401D01*
X229841904Y-109462401D02*
X229794285Y-109557639D01*
X229794285Y-109557639D02*
X229794285Y-109652877D01*
X229794285Y-109652877D02*
X229841904Y-109795734D01*
X229841904Y-109795734D02*
X230413332Y-110367163D01*
X230413332Y-110367163D02*
X229794285Y-110367163D01*
X229460951Y-109367163D02*
X228841904Y-109367163D01*
X228841904Y-109367163D02*
X229175237Y-109748115D01*
X229175237Y-109748115D02*
X229032380Y-109748115D01*
X229032380Y-109748115D02*
X228937142Y-109795734D01*
X228937142Y-109795734D02*
X228889523Y-109843353D01*
X228889523Y-109843353D02*
X228841904Y-109938591D01*
X228841904Y-109938591D02*
X228841904Y-110176686D01*
X228841904Y-110176686D02*
X228889523Y-110271924D01*
X228889523Y-110271924D02*
X228937142Y-110319544D01*
X228937142Y-110319544D02*
X229032380Y-110367163D01*
X229032380Y-110367163D02*
X229318094Y-110367163D01*
X229318094Y-110367163D02*
X229413332Y-110319544D01*
X229413332Y-110319544D02*
X229460951Y-110271924D01*
X235063333Y-152144663D02*
X235063333Y-152858948D01*
X235063333Y-152858948D02*
X235110952Y-153001805D01*
X235110952Y-153001805D02*
X235206190Y-153097044D01*
X235206190Y-153097044D02*
X235349047Y-153144663D01*
X235349047Y-153144663D02*
X235444285Y-153144663D01*
X234634761Y-152239901D02*
X234587142Y-152192282D01*
X234587142Y-152192282D02*
X234491904Y-152144663D01*
X234491904Y-152144663D02*
X234253809Y-152144663D01*
X234253809Y-152144663D02*
X234158571Y-152192282D01*
X234158571Y-152192282D02*
X234110952Y-152239901D01*
X234110952Y-152239901D02*
X234063333Y-152335139D01*
X234063333Y-152335139D02*
X234063333Y-152430377D01*
X234063333Y-152430377D02*
X234110952Y-152573234D01*
X234110952Y-152573234D02*
X234682380Y-153144663D01*
X234682380Y-153144663D02*
X234063333Y-153144663D01*
X238969047Y-108807163D02*
X239445237Y-108807163D01*
X239445237Y-108807163D02*
X239445237Y-107807163D01*
X238111904Y-108807163D02*
X238683332Y-108807163D01*
X238397618Y-108807163D02*
X238397618Y-107807163D01*
X238397618Y-107807163D02*
X238492856Y-107950020D01*
X238492856Y-107950020D02*
X238588094Y-108045258D01*
X238588094Y-108045258D02*
X238683332Y-108092877D01*
X237730951Y-107902401D02*
X237683332Y-107854782D01*
X237683332Y-107854782D02*
X237588094Y-107807163D01*
X237588094Y-107807163D02*
X237349999Y-107807163D01*
X237349999Y-107807163D02*
X237254761Y-107854782D01*
X237254761Y-107854782D02*
X237207142Y-107902401D01*
X237207142Y-107902401D02*
X237159523Y-107997639D01*
X237159523Y-107997639D02*
X237159523Y-108092877D01*
X237159523Y-108092877D02*
X237207142Y-108235734D01*
X237207142Y-108235734D02*
X237778570Y-108807163D01*
X237778570Y-108807163D02*
X237159523Y-108807163D01*
X236302380Y-108140496D02*
X236302380Y-108807163D01*
X236540475Y-107759544D02*
X236778570Y-108473829D01*
X236778570Y-108473829D02*
X236159523Y-108473829D01*
X233169046Y-104338948D02*
X232692856Y-104338948D01*
X233264284Y-104624663D02*
X232930951Y-103624663D01*
X232930951Y-103624663D02*
X232597618Y-104624663D01*
X232264284Y-104624663D02*
X232264284Y-103624663D01*
X232264284Y-103624663D02*
X231692856Y-104624663D01*
X231692856Y-104624663D02*
X231692856Y-103624663D01*
X231359522Y-103624663D02*
X230788094Y-103624663D01*
X231073808Y-104624663D02*
X231073808Y-103624663D01*
X229930951Y-104624663D02*
X230502379Y-104624663D01*
X230216665Y-104624663D02*
X230216665Y-103624663D01*
X230216665Y-103624663D02*
X230311903Y-103767520D01*
X230311903Y-103767520D02*
X230407141Y-103862758D01*
X230407141Y-103862758D02*
X230502379Y-103910377D01*
X227674285Y-138252282D02*
X227769523Y-138204663D01*
X227769523Y-138204663D02*
X227912380Y-138204663D01*
X227912380Y-138204663D02*
X228055237Y-138252282D01*
X228055237Y-138252282D02*
X228150475Y-138347520D01*
X228150475Y-138347520D02*
X228198094Y-138442758D01*
X228198094Y-138442758D02*
X228245713Y-138633234D01*
X228245713Y-138633234D02*
X228245713Y-138776091D01*
X228245713Y-138776091D02*
X228198094Y-138966567D01*
X228198094Y-138966567D02*
X228150475Y-139061805D01*
X228150475Y-139061805D02*
X228055237Y-139157044D01*
X228055237Y-139157044D02*
X227912380Y-139204663D01*
X227912380Y-139204663D02*
X227817142Y-139204663D01*
X227817142Y-139204663D02*
X227674285Y-139157044D01*
X227674285Y-139157044D02*
X227626666Y-139109424D01*
X227626666Y-139109424D02*
X227626666Y-138776091D01*
X227626666Y-138776091D02*
X227817142Y-138776091D01*
X227198094Y-139204663D02*
X227198094Y-138204663D01*
X227198094Y-138204663D02*
X226959999Y-138204663D01*
X226959999Y-138204663D02*
X226817142Y-138252282D01*
X226817142Y-138252282D02*
X226721904Y-138347520D01*
X226721904Y-138347520D02*
X226674285Y-138442758D01*
X226674285Y-138442758D02*
X226626666Y-138633234D01*
X226626666Y-138633234D02*
X226626666Y-138776091D01*
X226626666Y-138776091D02*
X226674285Y-138966567D01*
X226674285Y-138966567D02*
X226721904Y-139061805D01*
X226721904Y-139061805D02*
X226817142Y-139157044D01*
X226817142Y-139157044D02*
X226959999Y-139204663D01*
X226959999Y-139204663D02*
X227198094Y-139204663D01*
X226007618Y-138204663D02*
X225912380Y-138204663D01*
X225912380Y-138204663D02*
X225817142Y-138252282D01*
X225817142Y-138252282D02*
X225769523Y-138299901D01*
X225769523Y-138299901D02*
X225721904Y-138395139D01*
X225721904Y-138395139D02*
X225674285Y-138585615D01*
X225674285Y-138585615D02*
X225674285Y-138823710D01*
X225674285Y-138823710D02*
X225721904Y-139014186D01*
X225721904Y-139014186D02*
X225769523Y-139109424D01*
X225769523Y-139109424D02*
X225817142Y-139157044D01*
X225817142Y-139157044D02*
X225912380Y-139204663D01*
X225912380Y-139204663D02*
X226007618Y-139204663D01*
X226007618Y-139204663D02*
X226102856Y-139157044D01*
X226102856Y-139157044D02*
X226150475Y-139109424D01*
X226150475Y-139109424D02*
X226198094Y-139014186D01*
X226198094Y-139014186D02*
X226245713Y-138823710D01*
X226245713Y-138823710D02*
X226245713Y-138585615D01*
X226245713Y-138585615D02*
X226198094Y-138395139D01*
X226198094Y-138395139D02*
X226150475Y-138299901D01*
X226150475Y-138299901D02*
X226102856Y-138252282D01*
X226102856Y-138252282D02*
X226007618Y-138204663D01*
X232596189Y-124297163D02*
X232596189Y-123297163D01*
X231548571Y-124201924D02*
X231596190Y-124249544D01*
X231596190Y-124249544D02*
X231739047Y-124297163D01*
X231739047Y-124297163D02*
X231834285Y-124297163D01*
X231834285Y-124297163D02*
X231977142Y-124249544D01*
X231977142Y-124249544D02*
X232072380Y-124154305D01*
X232072380Y-124154305D02*
X232119999Y-124059067D01*
X232119999Y-124059067D02*
X232167618Y-123868591D01*
X232167618Y-123868591D02*
X232167618Y-123725734D01*
X232167618Y-123725734D02*
X232119999Y-123535258D01*
X232119999Y-123535258D02*
X232072380Y-123440020D01*
X232072380Y-123440020D02*
X231977142Y-123344782D01*
X231977142Y-123344782D02*
X231834285Y-123297163D01*
X231834285Y-123297163D02*
X231739047Y-123297163D01*
X231739047Y-123297163D02*
X231596190Y-123344782D01*
X231596190Y-123344782D02*
X231548571Y-123392401D01*
X231167618Y-123392401D02*
X231119999Y-123344782D01*
X231119999Y-123344782D02*
X231024761Y-123297163D01*
X231024761Y-123297163D02*
X230786666Y-123297163D01*
X230786666Y-123297163D02*
X230691428Y-123344782D01*
X230691428Y-123344782D02*
X230643809Y-123392401D01*
X230643809Y-123392401D02*
X230596190Y-123487639D01*
X230596190Y-123487639D02*
X230596190Y-123582877D01*
X230596190Y-123582877D02*
X230643809Y-123725734D01*
X230643809Y-123725734D02*
X231215237Y-124297163D01*
X231215237Y-124297163D02*
X230596190Y-124297163D01*
X245587618Y-139524663D02*
X245587618Y-138524663D01*
X245587618Y-138524663D02*
X245254285Y-139238948D01*
X245254285Y-139238948D02*
X244920952Y-138524663D01*
X244920952Y-138524663D02*
X244920952Y-139524663D01*
X244444761Y-139524663D02*
X244444761Y-138524663D01*
X244016190Y-139477044D02*
X243873333Y-139524663D01*
X243873333Y-139524663D02*
X243635238Y-139524663D01*
X243635238Y-139524663D02*
X243540000Y-139477044D01*
X243540000Y-139477044D02*
X243492381Y-139429424D01*
X243492381Y-139429424D02*
X243444762Y-139334186D01*
X243444762Y-139334186D02*
X243444762Y-139238948D01*
X243444762Y-139238948D02*
X243492381Y-139143710D01*
X243492381Y-139143710D02*
X243540000Y-139096091D01*
X243540000Y-139096091D02*
X243635238Y-139048472D01*
X243635238Y-139048472D02*
X243825714Y-139000853D01*
X243825714Y-139000853D02*
X243920952Y-138953234D01*
X243920952Y-138953234D02*
X243968571Y-138905615D01*
X243968571Y-138905615D02*
X244016190Y-138810377D01*
X244016190Y-138810377D02*
X244016190Y-138715139D01*
X244016190Y-138715139D02*
X243968571Y-138619901D01*
X243968571Y-138619901D02*
X243920952Y-138572282D01*
X243920952Y-138572282D02*
X243825714Y-138524663D01*
X243825714Y-138524663D02*
X243587619Y-138524663D01*
X243587619Y-138524663D02*
X243444762Y-138572282D01*
X242825714Y-138524663D02*
X242635238Y-138524663D01*
X242635238Y-138524663D02*
X242540000Y-138572282D01*
X242540000Y-138572282D02*
X242444762Y-138667520D01*
X242444762Y-138667520D02*
X242397143Y-138857996D01*
X242397143Y-138857996D02*
X242397143Y-139191329D01*
X242397143Y-139191329D02*
X242444762Y-139381805D01*
X242444762Y-139381805D02*
X242540000Y-139477044D01*
X242540000Y-139477044D02*
X242635238Y-139524663D01*
X242635238Y-139524663D02*
X242825714Y-139524663D01*
X242825714Y-139524663D02*
X242920952Y-139477044D01*
X242920952Y-139477044D02*
X243016190Y-139381805D01*
X243016190Y-139381805D02*
X243063809Y-139191329D01*
X243063809Y-139191329D02*
X243063809Y-138857996D01*
X243063809Y-138857996D02*
X243016190Y-138667520D01*
X243016190Y-138667520D02*
X242920952Y-138572282D01*
X242920952Y-138572282D02*
X242825714Y-138524663D01*
X241444762Y-139524663D02*
X242016190Y-139524663D01*
X241730476Y-139524663D02*
X241730476Y-138524663D01*
X241730476Y-138524663D02*
X241825714Y-138667520D01*
X241825714Y-138667520D02*
X241920952Y-138762758D01*
X241920952Y-138762758D02*
X242016190Y-138810377D01*
X241871428Y-135009424D02*
X241919047Y-135057044D01*
X241919047Y-135057044D02*
X242061904Y-135104663D01*
X242061904Y-135104663D02*
X242157142Y-135104663D01*
X242157142Y-135104663D02*
X242299999Y-135057044D01*
X242299999Y-135057044D02*
X242395237Y-134961805D01*
X242395237Y-134961805D02*
X242442856Y-134866567D01*
X242442856Y-134866567D02*
X242490475Y-134676091D01*
X242490475Y-134676091D02*
X242490475Y-134533234D01*
X242490475Y-134533234D02*
X242442856Y-134342758D01*
X242442856Y-134342758D02*
X242395237Y-134247520D01*
X242395237Y-134247520D02*
X242299999Y-134152282D01*
X242299999Y-134152282D02*
X242157142Y-134104663D01*
X242157142Y-134104663D02*
X242061904Y-134104663D01*
X242061904Y-134104663D02*
X241919047Y-134152282D01*
X241919047Y-134152282D02*
X241871428Y-134199901D01*
X240966666Y-135104663D02*
X241442856Y-135104663D01*
X241442856Y-135104663D02*
X241442856Y-134104663D01*
X240633332Y-135104663D02*
X240633332Y-134104663D01*
X240061904Y-135104663D02*
X240490475Y-134533234D01*
X240061904Y-134104663D02*
X240633332Y-134676091D01*
X239109523Y-135104663D02*
X239680951Y-135104663D01*
X239395237Y-135104663D02*
X239395237Y-134104663D01*
X239395237Y-134104663D02*
X239490475Y-134247520D01*
X239490475Y-134247520D02*
X239585713Y-134342758D01*
X239585713Y-134342758D02*
X239680951Y-134390377D01*
X232606666Y-119881924D02*
X232654285Y-119929544D01*
X232654285Y-119929544D02*
X232797142Y-119977163D01*
X232797142Y-119977163D02*
X232892380Y-119977163D01*
X232892380Y-119977163D02*
X233035237Y-119929544D01*
X233035237Y-119929544D02*
X233130475Y-119834305D01*
X233130475Y-119834305D02*
X233178094Y-119739067D01*
X233178094Y-119739067D02*
X233225713Y-119548591D01*
X233225713Y-119548591D02*
X233225713Y-119405734D01*
X233225713Y-119405734D02*
X233178094Y-119215258D01*
X233178094Y-119215258D02*
X233130475Y-119120020D01*
X233130475Y-119120020D02*
X233035237Y-119024782D01*
X233035237Y-119024782D02*
X232892380Y-118977163D01*
X232892380Y-118977163D02*
X232797142Y-118977163D01*
X232797142Y-118977163D02*
X232654285Y-119024782D01*
X232654285Y-119024782D02*
X232606666Y-119072401D01*
X232130475Y-119977163D02*
X231939999Y-119977163D01*
X231939999Y-119977163D02*
X231844761Y-119929544D01*
X231844761Y-119929544D02*
X231797142Y-119881924D01*
X231797142Y-119881924D02*
X231701904Y-119739067D01*
X231701904Y-119739067D02*
X231654285Y-119548591D01*
X231654285Y-119548591D02*
X231654285Y-119167639D01*
X231654285Y-119167639D02*
X231701904Y-119072401D01*
X231701904Y-119072401D02*
X231749523Y-119024782D01*
X231749523Y-119024782D02*
X231844761Y-118977163D01*
X231844761Y-118977163D02*
X232035237Y-118977163D01*
X232035237Y-118977163D02*
X232130475Y-119024782D01*
X232130475Y-119024782D02*
X232178094Y-119072401D01*
X232178094Y-119072401D02*
X232225713Y-119167639D01*
X232225713Y-119167639D02*
X232225713Y-119405734D01*
X232225713Y-119405734D02*
X232178094Y-119500972D01*
X232178094Y-119500972D02*
X232130475Y-119548591D01*
X232130475Y-119548591D02*
X232035237Y-119596210D01*
X232035237Y-119596210D02*
X231844761Y-119596210D01*
X231844761Y-119596210D02*
X231749523Y-119548591D01*
X231749523Y-119548591D02*
X231701904Y-119500972D01*
X231701904Y-119500972D02*
X231654285Y-119405734D01*
X223191428Y-126540853D02*
X223524761Y-126540853D01*
X223524761Y-127064663D02*
X223524761Y-126064663D01*
X223524761Y-126064663D02*
X223048571Y-126064663D01*
X222667618Y-127064663D02*
X222667618Y-126064663D01*
X222191428Y-127064663D02*
X222191428Y-126064663D01*
X222191428Y-126064663D02*
X221953333Y-126064663D01*
X221953333Y-126064663D02*
X221810476Y-126112282D01*
X221810476Y-126112282D02*
X221715238Y-126207520D01*
X221715238Y-126207520D02*
X221667619Y-126302758D01*
X221667619Y-126302758D02*
X221620000Y-126493234D01*
X221620000Y-126493234D02*
X221620000Y-126636091D01*
X221620000Y-126636091D02*
X221667619Y-126826567D01*
X221667619Y-126826567D02*
X221715238Y-126921805D01*
X221715238Y-126921805D02*
X221810476Y-127017044D01*
X221810476Y-127017044D02*
X221953333Y-127064663D01*
X221953333Y-127064663D02*
X222191428Y-127064663D01*
X220715238Y-126064663D02*
X221191428Y-126064663D01*
X221191428Y-126064663D02*
X221239047Y-126540853D01*
X221239047Y-126540853D02*
X221191428Y-126493234D01*
X221191428Y-126493234D02*
X221096190Y-126445615D01*
X221096190Y-126445615D02*
X220858095Y-126445615D01*
X220858095Y-126445615D02*
X220762857Y-126493234D01*
X220762857Y-126493234D02*
X220715238Y-126540853D01*
X220715238Y-126540853D02*
X220667619Y-126636091D01*
X220667619Y-126636091D02*
X220667619Y-126874186D01*
X220667619Y-126874186D02*
X220715238Y-126969424D01*
X220715238Y-126969424D02*
X220762857Y-127017044D01*
X220762857Y-127017044D02*
X220858095Y-127064663D01*
X220858095Y-127064663D02*
X221096190Y-127064663D01*
X221096190Y-127064663D02*
X221191428Y-127017044D01*
X221191428Y-127017044D02*
X221239047Y-126969424D01*
X223191428Y-141980853D02*
X223524761Y-141980853D01*
X223524761Y-142504663D02*
X223524761Y-141504663D01*
X223524761Y-141504663D02*
X223048571Y-141504663D01*
X222667618Y-142504663D02*
X222667618Y-141504663D01*
X222191428Y-142504663D02*
X222191428Y-141504663D01*
X222191428Y-141504663D02*
X221953333Y-141504663D01*
X221953333Y-141504663D02*
X221810476Y-141552282D01*
X221810476Y-141552282D02*
X221715238Y-141647520D01*
X221715238Y-141647520D02*
X221667619Y-141742758D01*
X221667619Y-141742758D02*
X221620000Y-141933234D01*
X221620000Y-141933234D02*
X221620000Y-142076091D01*
X221620000Y-142076091D02*
X221667619Y-142266567D01*
X221667619Y-142266567D02*
X221715238Y-142361805D01*
X221715238Y-142361805D02*
X221810476Y-142457044D01*
X221810476Y-142457044D02*
X221953333Y-142504663D01*
X221953333Y-142504663D02*
X222191428Y-142504663D01*
X220762857Y-141504663D02*
X220953333Y-141504663D01*
X220953333Y-141504663D02*
X221048571Y-141552282D01*
X221048571Y-141552282D02*
X221096190Y-141599901D01*
X221096190Y-141599901D02*
X221191428Y-141742758D01*
X221191428Y-141742758D02*
X221239047Y-141933234D01*
X221239047Y-141933234D02*
X221239047Y-142314186D01*
X221239047Y-142314186D02*
X221191428Y-142409424D01*
X221191428Y-142409424D02*
X221143809Y-142457044D01*
X221143809Y-142457044D02*
X221048571Y-142504663D01*
X221048571Y-142504663D02*
X220858095Y-142504663D01*
X220858095Y-142504663D02*
X220762857Y-142457044D01*
X220762857Y-142457044D02*
X220715238Y-142409424D01*
X220715238Y-142409424D02*
X220667619Y-142314186D01*
X220667619Y-142314186D02*
X220667619Y-142076091D01*
X220667619Y-142076091D02*
X220715238Y-141980853D01*
X220715238Y-141980853D02*
X220762857Y-141933234D01*
X220762857Y-141933234D02*
X220858095Y-141885615D01*
X220858095Y-141885615D02*
X221048571Y-141885615D01*
X221048571Y-141885615D02*
X221143809Y-141933234D01*
X221143809Y-141933234D02*
X221191428Y-141980853D01*
X221191428Y-141980853D02*
X221239047Y-142076091D01*
X227679047Y-142164663D02*
X228155237Y-142164663D01*
X228155237Y-142164663D02*
X228155237Y-141164663D01*
X227345713Y-141640853D02*
X227012380Y-141640853D01*
X226869523Y-142164663D02*
X227345713Y-142164663D01*
X227345713Y-142164663D02*
X227345713Y-141164663D01*
X227345713Y-141164663D02*
X226869523Y-141164663D01*
X226440951Y-142164663D02*
X226440951Y-141164663D01*
X226440951Y-141164663D02*
X226202856Y-141164663D01*
X226202856Y-141164663D02*
X226059999Y-141212282D01*
X226059999Y-141212282D02*
X225964761Y-141307520D01*
X225964761Y-141307520D02*
X225917142Y-141402758D01*
X225917142Y-141402758D02*
X225869523Y-141593234D01*
X225869523Y-141593234D02*
X225869523Y-141736091D01*
X225869523Y-141736091D02*
X225917142Y-141926567D01*
X225917142Y-141926567D02*
X225964761Y-142021805D01*
X225964761Y-142021805D02*
X226059999Y-142117044D01*
X226059999Y-142117044D02*
X226202856Y-142164663D01*
X226202856Y-142164663D02*
X226440951Y-142164663D01*
X225488570Y-141259901D02*
X225440951Y-141212282D01*
X225440951Y-141212282D02*
X225345713Y-141164663D01*
X225345713Y-141164663D02*
X225107618Y-141164663D01*
X225107618Y-141164663D02*
X225012380Y-141212282D01*
X225012380Y-141212282D02*
X224964761Y-141259901D01*
X224964761Y-141259901D02*
X224917142Y-141355139D01*
X224917142Y-141355139D02*
X224917142Y-141450377D01*
X224917142Y-141450377D02*
X224964761Y-141593234D01*
X224964761Y-141593234D02*
X225536189Y-142164663D01*
X225536189Y-142164663D02*
X224917142Y-142164663D01*
X229426666Y-149099424D02*
X229474285Y-149147044D01*
X229474285Y-149147044D02*
X229617142Y-149194663D01*
X229617142Y-149194663D02*
X229712380Y-149194663D01*
X229712380Y-149194663D02*
X229855237Y-149147044D01*
X229855237Y-149147044D02*
X229950475Y-149051805D01*
X229950475Y-149051805D02*
X229998094Y-148956567D01*
X229998094Y-148956567D02*
X230045713Y-148766091D01*
X230045713Y-148766091D02*
X230045713Y-148623234D01*
X230045713Y-148623234D02*
X229998094Y-148432758D01*
X229998094Y-148432758D02*
X229950475Y-148337520D01*
X229950475Y-148337520D02*
X229855237Y-148242282D01*
X229855237Y-148242282D02*
X229712380Y-148194663D01*
X229712380Y-148194663D02*
X229617142Y-148194663D01*
X229617142Y-148194663D02*
X229474285Y-148242282D01*
X229474285Y-148242282D02*
X229426666Y-148289901D01*
X229093332Y-148194663D02*
X228474285Y-148194663D01*
X228474285Y-148194663D02*
X228807618Y-148575615D01*
X228807618Y-148575615D02*
X228664761Y-148575615D01*
X228664761Y-148575615D02*
X228569523Y-148623234D01*
X228569523Y-148623234D02*
X228521904Y-148670853D01*
X228521904Y-148670853D02*
X228474285Y-148766091D01*
X228474285Y-148766091D02*
X228474285Y-149004186D01*
X228474285Y-149004186D02*
X228521904Y-149099424D01*
X228521904Y-149099424D02*
X228569523Y-149147044D01*
X228569523Y-149147044D02*
X228664761Y-149194663D01*
X228664761Y-149194663D02*
X228950475Y-149194663D01*
X228950475Y-149194663D02*
X229045713Y-149147044D01*
X229045713Y-149147044D02*
X229093332Y-149099424D01*
X239599047Y-117557163D02*
X240075237Y-117557163D01*
X240075237Y-117557163D02*
X240075237Y-116557163D01*
X238741904Y-117557163D02*
X239313332Y-117557163D01*
X239027618Y-117557163D02*
X239027618Y-116557163D01*
X239027618Y-116557163D02*
X239122856Y-116700020D01*
X239122856Y-116700020D02*
X239218094Y-116795258D01*
X239218094Y-116795258D02*
X239313332Y-116842877D01*
X238408570Y-116557163D02*
X237789523Y-116557163D01*
X237789523Y-116557163D02*
X238122856Y-116938115D01*
X238122856Y-116938115D02*
X237979999Y-116938115D01*
X237979999Y-116938115D02*
X237884761Y-116985734D01*
X237884761Y-116985734D02*
X237837142Y-117033353D01*
X237837142Y-117033353D02*
X237789523Y-117128591D01*
X237789523Y-117128591D02*
X237789523Y-117366686D01*
X237789523Y-117366686D02*
X237837142Y-117461924D01*
X237837142Y-117461924D02*
X237884761Y-117509544D01*
X237884761Y-117509544D02*
X237979999Y-117557163D01*
X237979999Y-117557163D02*
X238265713Y-117557163D01*
X238265713Y-117557163D02*
X238360951Y-117509544D01*
X238360951Y-117509544D02*
X238408570Y-117461924D01*
X236837142Y-117557163D02*
X237408570Y-117557163D01*
X237122856Y-117557163D02*
X237122856Y-116557163D01*
X237122856Y-116557163D02*
X237218094Y-116700020D01*
X237218094Y-116700020D02*
X237313332Y-116795258D01*
X237313332Y-116795258D02*
X237408570Y-116842877D01*
X236656666Y-150834663D02*
X236989999Y-150358472D01*
X237228094Y-150834663D02*
X237228094Y-149834663D01*
X237228094Y-149834663D02*
X236847142Y-149834663D01*
X236847142Y-149834663D02*
X236751904Y-149882282D01*
X236751904Y-149882282D02*
X236704285Y-149929901D01*
X236704285Y-149929901D02*
X236656666Y-150025139D01*
X236656666Y-150025139D02*
X236656666Y-150167996D01*
X236656666Y-150167996D02*
X236704285Y-150263234D01*
X236704285Y-150263234D02*
X236751904Y-150310853D01*
X236751904Y-150310853D02*
X236847142Y-150358472D01*
X236847142Y-150358472D02*
X237228094Y-150358472D01*
X236275713Y-149929901D02*
X236228094Y-149882282D01*
X236228094Y-149882282D02*
X236132856Y-149834663D01*
X236132856Y-149834663D02*
X235894761Y-149834663D01*
X235894761Y-149834663D02*
X235799523Y-149882282D01*
X235799523Y-149882282D02*
X235751904Y-149929901D01*
X235751904Y-149929901D02*
X235704285Y-150025139D01*
X235704285Y-150025139D02*
X235704285Y-150120377D01*
X235704285Y-150120377D02*
X235751904Y-150263234D01*
X235751904Y-150263234D02*
X236323332Y-150834663D01*
X236323332Y-150834663D02*
X235704285Y-150834663D01*
X230682857Y-126199424D02*
X230730476Y-126247044D01*
X230730476Y-126247044D02*
X230873333Y-126294663D01*
X230873333Y-126294663D02*
X230968571Y-126294663D01*
X230968571Y-126294663D02*
X231111428Y-126247044D01*
X231111428Y-126247044D02*
X231206666Y-126151805D01*
X231206666Y-126151805D02*
X231254285Y-126056567D01*
X231254285Y-126056567D02*
X231301904Y-125866091D01*
X231301904Y-125866091D02*
X231301904Y-125723234D01*
X231301904Y-125723234D02*
X231254285Y-125532758D01*
X231254285Y-125532758D02*
X231206666Y-125437520D01*
X231206666Y-125437520D02*
X231111428Y-125342282D01*
X231111428Y-125342282D02*
X230968571Y-125294663D01*
X230968571Y-125294663D02*
X230873333Y-125294663D01*
X230873333Y-125294663D02*
X230730476Y-125342282D01*
X230730476Y-125342282D02*
X230682857Y-125389901D01*
X229778095Y-125294663D02*
X230254285Y-125294663D01*
X230254285Y-125294663D02*
X230301904Y-125770853D01*
X230301904Y-125770853D02*
X230254285Y-125723234D01*
X230254285Y-125723234D02*
X230159047Y-125675615D01*
X230159047Y-125675615D02*
X229920952Y-125675615D01*
X229920952Y-125675615D02*
X229825714Y-125723234D01*
X229825714Y-125723234D02*
X229778095Y-125770853D01*
X229778095Y-125770853D02*
X229730476Y-125866091D01*
X229730476Y-125866091D02*
X229730476Y-126104186D01*
X229730476Y-126104186D02*
X229778095Y-126199424D01*
X229778095Y-126199424D02*
X229825714Y-126247044D01*
X229825714Y-126247044D02*
X229920952Y-126294663D01*
X229920952Y-126294663D02*
X230159047Y-126294663D01*
X230159047Y-126294663D02*
X230254285Y-126247044D01*
X230254285Y-126247044D02*
X230301904Y-126199424D01*
X228778095Y-126294663D02*
X229349523Y-126294663D01*
X229063809Y-126294663D02*
X229063809Y-125294663D01*
X229063809Y-125294663D02*
X229159047Y-125437520D01*
X229159047Y-125437520D02*
X229254285Y-125532758D01*
X229254285Y-125532758D02*
X229349523Y-125580377D01*
X238939047Y-113507163D02*
X239415237Y-113507163D01*
X239415237Y-113507163D02*
X239415237Y-112507163D01*
X238081904Y-113507163D02*
X238653332Y-113507163D01*
X238367618Y-113507163D02*
X238367618Y-112507163D01*
X238367618Y-112507163D02*
X238462856Y-112650020D01*
X238462856Y-112650020D02*
X238558094Y-112745258D01*
X238558094Y-112745258D02*
X238653332Y-112792877D01*
X237748570Y-112507163D02*
X237129523Y-112507163D01*
X237129523Y-112507163D02*
X237462856Y-112888115D01*
X237462856Y-112888115D02*
X237319999Y-112888115D01*
X237319999Y-112888115D02*
X237224761Y-112935734D01*
X237224761Y-112935734D02*
X237177142Y-112983353D01*
X237177142Y-112983353D02*
X237129523Y-113078591D01*
X237129523Y-113078591D02*
X237129523Y-113316686D01*
X237129523Y-113316686D02*
X237177142Y-113411924D01*
X237177142Y-113411924D02*
X237224761Y-113459544D01*
X237224761Y-113459544D02*
X237319999Y-113507163D01*
X237319999Y-113507163D02*
X237605713Y-113507163D01*
X237605713Y-113507163D02*
X237700951Y-113459544D01*
X237700951Y-113459544D02*
X237748570Y-113411924D01*
X236748570Y-112602401D02*
X236700951Y-112554782D01*
X236700951Y-112554782D02*
X236605713Y-112507163D01*
X236605713Y-112507163D02*
X236367618Y-112507163D01*
X236367618Y-112507163D02*
X236272380Y-112554782D01*
X236272380Y-112554782D02*
X236224761Y-112602401D01*
X236224761Y-112602401D02*
X236177142Y-112697639D01*
X236177142Y-112697639D02*
X236177142Y-112792877D01*
X236177142Y-112792877D02*
X236224761Y-112935734D01*
X236224761Y-112935734D02*
X236796189Y-113507163D01*
X236796189Y-113507163D02*
X236177142Y-113507163D01*
X244463809Y-123944663D02*
X244797142Y-123468472D01*
X245035237Y-123944663D02*
X245035237Y-122944663D01*
X245035237Y-122944663D02*
X244654285Y-122944663D01*
X244654285Y-122944663D02*
X244559047Y-122992282D01*
X244559047Y-122992282D02*
X244511428Y-123039901D01*
X244511428Y-123039901D02*
X244463809Y-123135139D01*
X244463809Y-123135139D02*
X244463809Y-123277996D01*
X244463809Y-123277996D02*
X244511428Y-123373234D01*
X244511428Y-123373234D02*
X244559047Y-123420853D01*
X244559047Y-123420853D02*
X244654285Y-123468472D01*
X244654285Y-123468472D02*
X245035237Y-123468472D01*
X243701904Y-123420853D02*
X244035237Y-123420853D01*
X244035237Y-123944663D02*
X244035237Y-122944663D01*
X244035237Y-122944663D02*
X243559047Y-122944663D01*
X243320951Y-122944663D02*
X242987618Y-123944663D01*
X242987618Y-123944663D02*
X242654285Y-122944663D01*
X242320951Y-123944663D02*
X242320951Y-122944663D01*
X242320951Y-122944663D02*
X242082856Y-122944663D01*
X242082856Y-122944663D02*
X241939999Y-122992282D01*
X241939999Y-122992282D02*
X241844761Y-123087520D01*
X241844761Y-123087520D02*
X241797142Y-123182758D01*
X241797142Y-123182758D02*
X241749523Y-123373234D01*
X241749523Y-123373234D02*
X241749523Y-123516091D01*
X241749523Y-123516091D02*
X241797142Y-123706567D01*
X241797142Y-123706567D02*
X241844761Y-123801805D01*
X241844761Y-123801805D02*
X241939999Y-123897044D01*
X241939999Y-123897044D02*
X242082856Y-123944663D01*
X242082856Y-123944663D02*
X242320951Y-123944663D01*
X241320951Y-123944663D02*
X241320951Y-122944663D01*
X241320951Y-122944663D02*
X241082856Y-122944663D01*
X241082856Y-122944663D02*
X240939999Y-122992282D01*
X240939999Y-122992282D02*
X240844761Y-123087520D01*
X240844761Y-123087520D02*
X240797142Y-123182758D01*
X240797142Y-123182758D02*
X240749523Y-123373234D01*
X240749523Y-123373234D02*
X240749523Y-123516091D01*
X240749523Y-123516091D02*
X240797142Y-123706567D01*
X240797142Y-123706567D02*
X240844761Y-123801805D01*
X240844761Y-123801805D02*
X240939999Y-123897044D01*
X240939999Y-123897044D02*
X241082856Y-123944663D01*
X241082856Y-123944663D02*
X241320951Y-123944663D01*
X239797142Y-123944663D02*
X240368570Y-123944663D01*
X240082856Y-123944663D02*
X240082856Y-122944663D01*
X240082856Y-122944663D02*
X240178094Y-123087520D01*
X240178094Y-123087520D02*
X240273332Y-123182758D01*
X240273332Y-123182758D02*
X240368570Y-123230377D01*
X234986666Y-125889424D02*
X235034285Y-125937044D01*
X235034285Y-125937044D02*
X235177142Y-125984663D01*
X235177142Y-125984663D02*
X235272380Y-125984663D01*
X235272380Y-125984663D02*
X235415237Y-125937044D01*
X235415237Y-125937044D02*
X235510475Y-125841805D01*
X235510475Y-125841805D02*
X235558094Y-125746567D01*
X235558094Y-125746567D02*
X235605713Y-125556091D01*
X235605713Y-125556091D02*
X235605713Y-125413234D01*
X235605713Y-125413234D02*
X235558094Y-125222758D01*
X235558094Y-125222758D02*
X235510475Y-125127520D01*
X235510475Y-125127520D02*
X235415237Y-125032282D01*
X235415237Y-125032282D02*
X235272380Y-124984663D01*
X235272380Y-124984663D02*
X235177142Y-124984663D01*
X235177142Y-124984663D02*
X235034285Y-125032282D01*
X235034285Y-125032282D02*
X234986666Y-125079901D01*
X234653332Y-124984663D02*
X233986666Y-124984663D01*
X233986666Y-124984663D02*
X234415237Y-125984663D01*
X233621904Y-153884663D02*
X233621904Y-152884663D01*
X233621904Y-152884663D02*
X233288571Y-153598948D01*
X233288571Y-153598948D02*
X232955238Y-152884663D01*
X232955238Y-152884663D02*
X232955238Y-153884663D01*
X231907619Y-153789424D02*
X231955238Y-153837044D01*
X231955238Y-153837044D02*
X232098095Y-153884663D01*
X232098095Y-153884663D02*
X232193333Y-153884663D01*
X232193333Y-153884663D02*
X232336190Y-153837044D01*
X232336190Y-153837044D02*
X232431428Y-153741805D01*
X232431428Y-153741805D02*
X232479047Y-153646567D01*
X232479047Y-153646567D02*
X232526666Y-153456091D01*
X232526666Y-153456091D02*
X232526666Y-153313234D01*
X232526666Y-153313234D02*
X232479047Y-153122758D01*
X232479047Y-153122758D02*
X232431428Y-153027520D01*
X232431428Y-153027520D02*
X232336190Y-152932282D01*
X232336190Y-152932282D02*
X232193333Y-152884663D01*
X232193333Y-152884663D02*
X232098095Y-152884663D01*
X232098095Y-152884663D02*
X231955238Y-152932282D01*
X231955238Y-152932282D02*
X231907619Y-152979901D01*
X231479047Y-152884663D02*
X231479047Y-153694186D01*
X231479047Y-153694186D02*
X231431428Y-153789424D01*
X231431428Y-153789424D02*
X231383809Y-153837044D01*
X231383809Y-153837044D02*
X231288571Y-153884663D01*
X231288571Y-153884663D02*
X231098095Y-153884663D01*
X231098095Y-153884663D02*
X231002857Y-153837044D01*
X231002857Y-153837044D02*
X230955238Y-153789424D01*
X230955238Y-153789424D02*
X230907619Y-153694186D01*
X230907619Y-153694186D02*
X230907619Y-152884663D01*
X230574285Y-152884663D02*
X230240952Y-153884663D01*
X230240952Y-153884663D02*
X229907619Y-152884663D01*
X229574285Y-153884663D02*
X229574285Y-152884663D01*
X229574285Y-152884663D02*
X229336190Y-152884663D01*
X229336190Y-152884663D02*
X229193333Y-152932282D01*
X229193333Y-152932282D02*
X229098095Y-153027520D01*
X229098095Y-153027520D02*
X229050476Y-153122758D01*
X229050476Y-153122758D02*
X229002857Y-153313234D01*
X229002857Y-153313234D02*
X229002857Y-153456091D01*
X229002857Y-153456091D02*
X229050476Y-153646567D01*
X229050476Y-153646567D02*
X229098095Y-153741805D01*
X229098095Y-153741805D02*
X229193333Y-153837044D01*
X229193333Y-153837044D02*
X229336190Y-153884663D01*
X229336190Y-153884663D02*
X229574285Y-153884663D01*
X228574285Y-153884663D02*
X228574285Y-152884663D01*
X228574285Y-152884663D02*
X228336190Y-152884663D01*
X228336190Y-152884663D02*
X228193333Y-152932282D01*
X228193333Y-152932282D02*
X228098095Y-153027520D01*
X228098095Y-153027520D02*
X228050476Y-153122758D01*
X228050476Y-153122758D02*
X228002857Y-153313234D01*
X228002857Y-153313234D02*
X228002857Y-153456091D01*
X228002857Y-153456091D02*
X228050476Y-153646567D01*
X228050476Y-153646567D02*
X228098095Y-153741805D01*
X228098095Y-153741805D02*
X228193333Y-153837044D01*
X228193333Y-153837044D02*
X228336190Y-153884663D01*
X228336190Y-153884663D02*
X228574285Y-153884663D01*
X227050476Y-153884663D02*
X227621904Y-153884663D01*
X227336190Y-153884663D02*
X227336190Y-152884663D01*
X227336190Y-152884663D02*
X227431428Y-153027520D01*
X227431428Y-153027520D02*
X227526666Y-153122758D01*
X227526666Y-153122758D02*
X227621904Y-153170377D01*
X228126666Y-146004663D02*
X228459999Y-145528472D01*
X228698094Y-146004663D02*
X228698094Y-145004663D01*
X228698094Y-145004663D02*
X228317142Y-145004663D01*
X228317142Y-145004663D02*
X228221904Y-145052282D01*
X228221904Y-145052282D02*
X228174285Y-145099901D01*
X228174285Y-145099901D02*
X228126666Y-145195139D01*
X228126666Y-145195139D02*
X228126666Y-145337996D01*
X228126666Y-145337996D02*
X228174285Y-145433234D01*
X228174285Y-145433234D02*
X228221904Y-145480853D01*
X228221904Y-145480853D02*
X228317142Y-145528472D01*
X228317142Y-145528472D02*
X228698094Y-145528472D01*
X227174285Y-146004663D02*
X227745713Y-146004663D01*
X227459999Y-146004663D02*
X227459999Y-145004663D01*
X227459999Y-145004663D02*
X227555237Y-145147520D01*
X227555237Y-145147520D02*
X227650475Y-145242758D01*
X227650475Y-145242758D02*
X227745713Y-145290377D01*
X226969047Y-115887163D02*
X227445237Y-115887163D01*
X227445237Y-115887163D02*
X227445237Y-114887163D01*
X226111904Y-115887163D02*
X226683332Y-115887163D01*
X226397618Y-115887163D02*
X226397618Y-114887163D01*
X226397618Y-114887163D02*
X226492856Y-115030020D01*
X226492856Y-115030020D02*
X226588094Y-115125258D01*
X226588094Y-115125258D02*
X226683332Y-115172877D01*
X225730951Y-114982401D02*
X225683332Y-114934782D01*
X225683332Y-114934782D02*
X225588094Y-114887163D01*
X225588094Y-114887163D02*
X225349999Y-114887163D01*
X225349999Y-114887163D02*
X225254761Y-114934782D01*
X225254761Y-114934782D02*
X225207142Y-114982401D01*
X225207142Y-114982401D02*
X225159523Y-115077639D01*
X225159523Y-115077639D02*
X225159523Y-115172877D01*
X225159523Y-115172877D02*
X225207142Y-115315734D01*
X225207142Y-115315734D02*
X225778570Y-115887163D01*
X225778570Y-115887163D02*
X225159523Y-115887163D01*
X224778570Y-114982401D02*
X224730951Y-114934782D01*
X224730951Y-114934782D02*
X224635713Y-114887163D01*
X224635713Y-114887163D02*
X224397618Y-114887163D01*
X224397618Y-114887163D02*
X224302380Y-114934782D01*
X224302380Y-114934782D02*
X224254761Y-114982401D01*
X224254761Y-114982401D02*
X224207142Y-115077639D01*
X224207142Y-115077639D02*
X224207142Y-115172877D01*
X224207142Y-115172877D02*
X224254761Y-115315734D01*
X224254761Y-115315734D02*
X224826189Y-115887163D01*
X224826189Y-115887163D02*
X224207142Y-115887163D01*
D10*
X235169318Y-142158237D02*
X233899318Y-142158237D01*
X235048365Y-143488714D02*
X235108842Y-143428238D01*
X235108842Y-143428238D02*
X235169318Y-143246809D01*
X235169318Y-143246809D02*
X235169318Y-143125857D01*
X235169318Y-143125857D02*
X235108842Y-142944428D01*
X235108842Y-142944428D02*
X234987889Y-142823476D01*
X234987889Y-142823476D02*
X234866937Y-142762999D01*
X234866937Y-142762999D02*
X234625032Y-142702523D01*
X234625032Y-142702523D02*
X234443603Y-142702523D01*
X234443603Y-142702523D02*
X234201699Y-142762999D01*
X234201699Y-142762999D02*
X234080746Y-142823476D01*
X234080746Y-142823476D02*
X233959794Y-142944428D01*
X233959794Y-142944428D02*
X233899318Y-143125857D01*
X233899318Y-143125857D02*
X233899318Y-143246809D01*
X233899318Y-143246809D02*
X233959794Y-143428238D01*
X233959794Y-143428238D02*
X234020270Y-143488714D01*
X235169318Y-144698238D02*
X235169318Y-143972523D01*
X235169318Y-144335380D02*
X233899318Y-144335380D01*
X233899318Y-144335380D02*
X234080746Y-144214428D01*
X234080746Y-144214428D02*
X234201699Y-144093476D01*
X234201699Y-144093476D02*
X234262175Y-143972523D01*
%TO.C,S2*%
D13*
X232305000Y-133565000D02*
X232305000Y-133965000D01*
X235405000Y-132165000D02*
X233405000Y-132165000D01*
X235405000Y-135365000D02*
X233405000Y-135365000D01*
X236505000Y-133565000D02*
X236505000Y-133965000D01*
X237405000Y-132690000D02*
X237405000Y-132690000D01*
X237505000Y-132690000D02*
X237505000Y-132690000D01*
X237505000Y-132690000D02*
X237505000Y-132690000D01*
X237405000Y-132690000D02*
G75*
G02*
X237505000Y-132690000I50000J0D01*
G01*
X237505000Y-132690000D02*
G75*
G02*
X237405000Y-132690000I-50000J0D01*
G01*
X237505000Y-132690000D02*
G75*
G02*
X237405000Y-132690000I-50000J0D01*
G01*
%TO.C,Y1*%
D14*
X224350000Y-122292500D02*
X224350000Y-122292500D01*
X224450000Y-122292500D02*
X224450000Y-122292500D01*
X224350000Y-122292500D02*
G75*
G02*
X224450000Y-122292500I50000J0D01*
G01*
X224450000Y-122292500D02*
G75*
G02*
X224350000Y-122292500I-50000J0D01*
G01*
%TO.C,C2*%
D15*
X235010580Y-148140000D02*
X234729420Y-148140000D01*
X235010580Y-149160000D02*
X234729420Y-149160000D01*
%TO.C,MOSI1*%
X229610000Y-132190000D02*
G75*
G02*
X228010000Y-132190000I-800000J0D01*
G01*
X228010000Y-132190000D02*
G75*
G02*
X229610000Y-132190000I800000J0D01*
G01*
%TO.C,C4*%
X238780000Y-143470580D02*
X238780000Y-143189420D01*
X239800000Y-143470580D02*
X239800000Y-143189420D01*
%TO.C,C1*%
D13*
X228365000Y-127930000D02*
X226965000Y-127930000D01*
X228365000Y-129530000D02*
X226965000Y-129530000D01*
X230065000Y-128630000D02*
X230065000Y-128630000D01*
X230065000Y-128830000D02*
X230065000Y-128830000D01*
X230065000Y-128630000D02*
G75*
G02*
X230065000Y-128830000I0J-100000D01*
G01*
X230065000Y-128830000D02*
G75*
G02*
X230065000Y-128630000I0J100000D01*
G01*
%TO.C,FB1*%
X238430000Y-124480000D02*
X239030000Y-124480000D01*
%TO.C,J1*%
X245430000Y-127320000D02*
X245430000Y-136335000D01*
X245430000Y-136335000D02*
X248170000Y-136335000D01*
X248170000Y-125925000D02*
X246800000Y-125925000D01*
X248170000Y-136335000D02*
X248170000Y-125925000D01*
%TO.C,CS1*%
D15*
X227400000Y-134610000D02*
G75*
G02*
X225800000Y-134610000I-800000J0D01*
G01*
X225800000Y-134610000D02*
G75*
G02*
X227400000Y-134610000I800000J0D01*
G01*
%TO.C,J2*%
D13*
X236030000Y-151360000D02*
X244150000Y-151360000D01*
X236030000Y-154000000D02*
X236030000Y-151360000D01*
X244150000Y-151360000D02*
X244150000Y-154000000D01*
X244150000Y-154000000D02*
X236030000Y-154000000D01*
%TO.C,GD0*%
D15*
X231010000Y-138740000D02*
G75*
G02*
X229410000Y-138740000I-800000J0D01*
G01*
X229410000Y-138740000D02*
G75*
G02*
X231010000Y-138740000I800000J0D01*
G01*
%TO.C,IC2*%
D16*
X236575000Y-124127500D02*
G75*
G02*
X236325000Y-124127500I-125000J0D01*
G01*
X236325000Y-124127500D02*
G75*
G02*
X236575000Y-124127500I125000J0D01*
G01*
%TO.C,MISO1*%
D15*
X240970000Y-138980000D02*
G75*
G02*
X239370000Y-138980000I-800000J0D01*
G01*
X239370000Y-138980000D02*
G75*
G02*
X240970000Y-138980000I800000J0D01*
G01*
%TO.C,CLK1*%
X241560000Y-136470000D02*
G75*
G02*
X239960000Y-136470000I-800000J0D01*
G01*
X239960000Y-136470000D02*
G75*
G02*
X241560000Y-136470000I800000J0D01*
G01*
%TO.C,LED2*%
X227710000Y-143440000D02*
G75*
G02*
X226110000Y-143440000I-800000J0D01*
G01*
X226110000Y-143440000D02*
G75*
G02*
X227710000Y-143440000I800000J0D01*
G01*
%TO.C,C3*%
X231875580Y-148150000D02*
X231594420Y-148150000D01*
X231875580Y-149170000D02*
X231594420Y-149170000D01*
%TO.C,R2*%
X234027258Y-149887500D02*
X233552742Y-149887500D01*
X234027258Y-150932500D02*
X233552742Y-150932500D01*
%TO.C,RFVDD1*%
X242690000Y-125060000D02*
G75*
G02*
X241090000Y-125060000I-800000J0D01*
G01*
X241090000Y-125060000D02*
G75*
G02*
X242690000Y-125060000I800000J0D01*
G01*
%TO.C,MCUVDD1*%
X231860000Y-151380000D02*
G75*
G02*
X230260000Y-151380000I-800000J0D01*
G01*
X230260000Y-151380000D02*
G75*
G02*
X231860000Y-151380000I800000J0D01*
G01*
%TO.C,R1*%
X229217500Y-145772258D02*
X229217500Y-145297742D01*
X230262500Y-145772258D02*
X230262500Y-145297742D01*
%TO.C,IC1*%
D13*
X231345000Y-141548000D02*
X231345000Y-145248000D01*
X231345000Y-145248000D02*
X237845000Y-145248000D01*
X237845000Y-141548000D02*
X231345000Y-141548000D01*
X237845000Y-145248000D02*
X237845000Y-141548000D01*
X238095000Y-147073000D02*
X238095000Y-145598000D01*
%TD*%
M02*
