M48
; DRILL file {KiCad 9.0.7} date 2026-08-08T22:31:24+0100
; FORMAT={-:-/ absolute / metric / decimal}
; #@! TF.CreationDate,2026-08-08T22:31:24+01:00
; #@! TF.GenerationSoftware,Kicad,Pcbnew,9.0.7
; #@! TF.FileFunction,Plated,1,2,PTH
FMAT,2
METRIC
; #@! TA.AperFunction,Plated,PTH,ViaDrill
T1C0.300
; #@! TA.AperFunction,Plated,PTH,ComponentDrill
T2C0.800
; #@! TA.AperFunction,Plated,PTH,ComponentDrill
T3C1.000
; #@! TA.AperFunction,Plated,PTH,ComponentDrill
T4C1.150
%
G90
G05
T1
X220.91Y-123.86
X221.06Y-120.8
X221.06Y-122.3
X221.09Y-119.28
X221.12Y-139.01
X221.12Y-141.56
X221.13Y-106.19
X221.13Y-115.29
X221.15Y-117.23
X221.15Y-132.23
X221.17Y-108.56
X221.17Y-113.17
X221.18Y-125.93
X221.18Y-136.82
X221.19Y-103.48
X221.19Y-110.79
X221.57Y-130.7
X222.05Y-146.12
X222.94Y-117.74
X222.96Y-119.36
X223.1Y-121.16
X223.43Y-125.63
X223.91Y-140.54
X223.98Y-138.05
X224.0Y-147.41
X224.06Y-124.04
X224.6Y-145.52
X224.84Y-119.3
X224.84Y-127.4
X224.99Y-135.09
X225.02Y-117.98
X225.02Y-125.78
X225.06Y-121.14
X225.09Y-122.61
X225.25Y-142.34
X225.83Y-148.83
X225.98Y-146.97
X226.31Y-132.31
X226.39Y-140.64
X226.44Y-138.52
X226.51Y-136.29
X226.55Y-119.28
X227.01Y-123.54
X227.26Y-121.29
X227.27Y-118.03
X227.61Y-128.69
X227.68Y-148.96
X228.0Y-125.22
X228.29Y-144.59
X228.44Y-119.32
X229.01Y-130.69
X229.01Y-140.63
X229.03Y-120.77
X229.05Y-121.91
X229.05Y-141.77
X229.14Y-118.09
X229.311Y-149.971
X229.42Y-142.78
X229.48Y-147.52
X229.55Y-133.61
X229.86Y-135.47
X229.99Y-119.33
X230.02Y-152.62
X230.04Y-116.97
X230.62Y-137.36
X230.65Y-150.08
X230.76Y-140.46
X230.8Y-147.16
X230.81Y-141.55
X230.81Y-145.37
X230.98Y-122.67
X231.0Y-130.63
X231.08Y-133.17
X231.1Y-116.71
X231.23Y-143.12
X231.29Y-119.24
X231.34Y-125.89
X231.34Y-127.55
X231.34Y-128.67
X231.45Y-144.47
X231.57Y-138.3
X231.63Y-124.59
X232.03Y-117.122
X232.05Y-115.89
X232.17Y-114.88
X232.2Y-119.56
X232.38Y-113.53
X232.43Y-112.59
X232.73Y-139.2
X232.83Y-152.62
X232.85Y-111.718
X232.98Y-115.57
X232.98Y-116.33
X233.05Y-143.13
X233.4Y-106.718
X233.4Y-107.867
X233.4Y-108.968
X233.43Y-110.99
X233.44Y-109.96
X233.45Y-105.617
X233.8Y-133.58
X234.27Y-147.64
X234.29Y-137.78
X234.29Y-144.76
X234.46Y-135.47
X234.6Y-125.89
X234.83Y-152.62
X234.915Y-124.585
X234.92Y-143.9
X234.93Y-138.77
X234.99Y-128.82
X235.32Y-136.22
X235.48Y-110.56
X235.49Y-142.31
X235.57Y-137.81
X235.57Y-144.7
X235.68Y-107.73
X235.69Y-108.51
X235.7Y-105.567
X235.7Y-106.718
X235.9Y-115.667
X235.91Y-147.62
X235.97Y-111.36
X236.15Y-116.5
X236.16Y-117.24
X236.2Y-109.567
X236.21Y-138.68
X236.31Y-150.33
X236.4Y-112.468
X236.92Y-137.94
X236.95Y-115.667
X237.05Y-119.18
X237.08Y-143.57
X237.09Y-116.95
X237.13Y-144.71
X237.17Y-112.89
X237.99Y-118.1
X238.02Y-117.21
X238.05Y-115.567
X238.07Y-127.51
X238.11Y-125.72
X238.14Y-149.36
X238.167Y-120.234
X238.2Y-113.317
X238.25Y-114.517
X238.45Y-122.317
X238.5Y-138.56
X238.51Y-137.32
X238.76Y-146.99
X238.85Y-145.55
X238.95Y-117.67
X239.2Y-136.24
X239.5Y-121.117
X239.53Y-150.75
X239.99Y-124.33
X240.01Y-125.72
X240.35Y-148.43
X240.44Y-122.67
X240.46Y-119.69
X240.51Y-121.12
X240.52Y-117.69
X240.56Y-146.57
X240.68Y-137.77
X240.69Y-133.3
X240.74Y-141.19
X240.93Y-145.05
X241.01Y-142.29
X241.15Y-125.71
X241.16Y-130.85
X241.3Y-124.44
X241.54Y-149.74
X241.81Y-139.94
X241.96Y-143.25
X242.02Y-148.32
X242.13Y-117.75
X242.22Y-146.47
X242.34Y-141.57
X242.46Y-133.32
X242.54Y-136.3
X242.56Y-124.43
X242.59Y-125.73
X242.64Y-144.93
X243.23Y-128.25
X243.24Y-150.62
X243.28Y-118.57
X243.31Y-142.74
X243.64Y-147.43
X243.65Y-117.72
X243.74Y-138.27
X243.82Y-124.95
X243.85Y-123.67
X243.95Y-149.72
X244.44Y-136.27
X244.46Y-134.37
X244.6Y-144.53
X244.721Y-132.239
X244.81Y-141.29
X244.91Y-146.16
X244.97Y-149.14
X244.99Y-147.95
X245.05Y-128.83
X245.09Y-121.97
X245.11Y-120.3
X245.11Y-123.34
X245.17Y-117.75
X245.17Y-118.67
X245.69Y-139.79
X245.89Y-138.39
X245.94Y-137.02
X245.99Y-125.5
X246.49Y-121.9
X246.6Y-120.37
X246.65Y-118.71
X246.73Y-117.51
X246.87Y-146.12
X247.46Y-103.46
X247.55Y-106.07
X247.55Y-108.41
X247.58Y-110.54
X247.67Y-112.85
X247.83Y-125.48
X247.94Y-141.82
X247.97Y-137.19
X247.99Y-138.69
X248.0Y-116.96
X248.02Y-118.74
X248.02Y-120.56
X248.02Y-140.12
X248.04Y-121.88
X248.04Y-123.67
T2
X222.32Y-100.0
X222.32Y-123.4
X246.58Y-100.0
X246.58Y-123.4
T3
X222.392Y-134.886
X223.992Y-132.114
X227.85Y-151.432
X234.56Y-103.93
X241.05Y-128.568
T4
X237.55Y-152.68
X240.09Y-152.68
X242.63Y-152.68
X246.8Y-127.32
X246.8Y-129.86
X246.8Y-132.4
X246.8Y-134.94
M30
