M48
; DRILL file {KiCad 9.0.7} date 2026-08-28T22:35:46+0100
; FORMAT={-:-/ absolute / metric / decimal}
; #@! TF.CreationDate,2026-08-28T22:35:46+01:00
; #@! TF.GenerationSoftware,Kicad,Pcbnew,9.0.7
; #@! TF.FileFunction,Plated,1,2,PTH
FMAT,2
METRIC
; #@! TA.AperFunction,Plated,PTH,ViaDrill
T1C0.300
; #@! TA.AperFunction,Plated,PTH,ComponentDrill
T2C0.800
; #@! TA.AperFunction,Plated,PTH,ComponentDrill
T3C1.000
; #@! TA.AperFunction,Plated,PTH,ComponentDrill
T4C1.150
%
G90
G05
T1
X221.12Y-139.01
X221.12Y-141.56
X221.14Y-119.51
X221.14Y-121.15
X221.15Y-132.23
X221.17Y-108.56
X221.17Y-113.17
X221.17Y-116.38
X221.18Y-125.75
X221.18Y-136.82
X221.19Y-103.48
X221.57Y-130.7
X222.05Y-146.12
X222.83Y-119.51
X222.85Y-121.14
X223.83Y-129.12
X223.91Y-140.54
X223.98Y-138.05
X224.0Y-147.41
X224.17Y-119.66
X224.17Y-123.72
X224.18Y-122.36
X224.21Y-121.16
X224.54Y-125.79
X224.6Y-145.52
X224.74Y-118.47
X224.99Y-127.24
X224.99Y-135.09
X225.25Y-142.34
X225.55Y-123.84
X225.83Y-148.83
X225.98Y-146.97
X226.24Y-118.47
X226.31Y-132.31
X226.39Y-140.64
X226.44Y-138.52
X226.51Y-136.29
X226.65Y-124.51
X227.03Y-125.85
X227.58Y-118.52
X227.68Y-148.96
X228.13Y-124.47
X228.29Y-144.59
X228.5Y-117.822
X228.51Y-121.252
X228.56Y-119.822
X228.58Y-122.802
X228.87Y-134.64
X229.01Y-140.63
X229.05Y-141.77
X229.12Y-130.65
X229.14Y-126.87
X229.311Y-149.971
X229.42Y-142.78
X229.48Y-147.52
X229.52Y-121.25
X229.99Y-133.31
X230.02Y-152.62
X230.07Y-117.802
X230.17Y-128.73
X230.57Y-122.45
X230.65Y-150.08
X230.76Y-140.46
X230.77Y-114.65
X230.8Y-147.16
X230.81Y-141.55
X230.81Y-145.37
X230.82Y-113.45
X230.853Y-120.367
X230.95Y-127.24
X230.97Y-115.7
X231.0Y-117.343
X231.03Y-118.233
X231.23Y-143.12
X231.45Y-144.47
X231.62Y-136.49
X231.85Y-113.022
X231.93Y-117.082
X231.97Y-119.312
X232.03Y-137.82
X232.07Y-115.8
X232.17Y-138.88
X232.62Y-112.6
X232.78Y-124.222
X232.82Y-109.7
X232.83Y-152.62
X232.86Y-117.372
X232.87Y-116.632
X232.89Y-133.71
X232.98Y-137.36
X233.05Y-111.492
X233.05Y-143.13
X233.12Y-115.8
X233.32Y-105.7
X233.32Y-106.85
X233.33Y-108.642
X233.34Y-107.862
X233.54Y-110.692
X233.8Y-131.6
X233.84Y-126.68
X234.27Y-147.64
X234.29Y-144.76
X234.53Y-125.03
X234.83Y-152.62
X234.85Y-126.68
X234.92Y-143.9
X234.93Y-138.77
X235.48Y-136.44
X235.57Y-105.75
X235.57Y-137.81
X235.57Y-144.7
X235.58Y-110.093
X235.58Y-142.39
X235.59Y-111.122
X235.62Y-106.85
X235.62Y-108.0
X235.62Y-109.1
X235.91Y-147.62
X235.95Y-126.68
X236.04Y-115.703
X236.04Y-116.462
X236.17Y-111.85
X236.21Y-138.68
X236.31Y-150.33
X236.59Y-112.722
X236.6Y-125.03
X236.64Y-113.662
X236.82Y-119.692
X236.85Y-115.012
X236.92Y-137.94
X236.97Y-116.022
X236.99Y-117.255
X237.08Y-143.57
X237.13Y-144.71
X237.34Y-123.96
X237.45Y-131.52
X237.47Y-125.85
X237.47Y-133.77
X237.49Y-135.81
X237.73Y-119.372
X237.92Y-116.843
X238.14Y-149.36
X238.34Y-138.81
X238.4Y-129.69
X238.42Y-127.3
X238.76Y-146.99
X238.85Y-145.55
X238.98Y-117.102
X239.03Y-119.462
X239.16Y-136.46
X239.41Y-138.19
X239.53Y-150.75
X239.88Y-118.222
X239.89Y-134.79
X239.94Y-123.03
X239.97Y-122.042
X239.99Y-120.902
X240.2Y-148.22
X240.23Y-133.26
X240.24Y-124.97
X240.33Y-131.24
X240.58Y-119.453
X240.74Y-141.19
X240.78Y-145.22
X240.78Y-146.76
X241.01Y-142.29
X241.54Y-149.74
X241.81Y-139.94
X241.83Y-122.13
X241.83Y-123.51
X241.86Y-120.87
X241.89Y-119.44
X242.03Y-143.3
X242.46Y-133.32
X242.49Y-148.37
X242.54Y-136.3
X242.56Y-146.54
X242.61Y-141.3
X242.64Y-144.93
X242.88Y-150.71
X243.23Y-128.25
X243.52Y-139.59
X243.56Y-149.76
X243.64Y-142.49
X243.64Y-147.43
X243.73Y-119.44
X243.74Y-138.27
X243.76Y-120.9
X243.76Y-122.16
X243.79Y-123.6
X244.44Y-136.27
X244.46Y-134.37
X244.721Y-132.239
X244.81Y-141.29
X244.95Y-144.74
X244.95Y-146.15
X244.97Y-149.14
X245.0Y-147.64
X245.05Y-128.83
X245.69Y-139.79
X245.72Y-119.44
X245.78Y-120.9
X245.89Y-138.39
X245.94Y-137.02
X246.68Y-144.03
X246.87Y-146.12
X247.46Y-103.46
X247.55Y-108.41
X247.59Y-119.41
X247.59Y-142.32
X247.62Y-120.96
X247.67Y-112.85
X247.75Y-116.21
X247.83Y-125.48
X247.97Y-137.19
X247.99Y-138.69
X248.02Y-140.12
T2
X222.32Y-100.0
X222.32Y-123.4
X246.58Y-100.0
X246.58Y-123.4
T3
X222.392Y-134.886
X223.992Y-132.114
X227.85Y-151.432
X234.46Y-103.922
X241.05Y-128.568
T4
X237.55Y-152.68
X240.09Y-152.68
X242.63Y-152.68
X246.8Y-127.32
X246.8Y-129.86
X246.8Y-132.4
X246.8Y-134.94
M30
