%TF.GenerationSoftware,KiCad,Pcbnew,10.0.6-10.0.6~ubuntu24.04.1*%
%TF.CreationDate,2026-08-31T18:28:37+01:00*%
%TF.ProjectId,sensor_rev1,73656e73-6f72-45f7-9265-76312e6b6963,REV1.0*%
%TF.SameCoordinates,Original*%
%TF.FileFunction,Copper,L1,Top*%
%TF.FilePolarity,Positive*%
%FSLAX46Y46*%
G04 Gerber Fmt 4.6, Leading zero omitted, Abs format (unit mm)*
G04 Created by KiCad (PCBNEW 10.0.6-10.0.6~ubuntu24.04.1) date 2026-08-31 18:28:37*
%MOMM*%
%LPD*%
G01*
G04 APERTURE LIST*
%TA.AperFunction,ComponentPad*%
%ADD10R,1.300000X1.300000*%
%TD*%
%TA.AperFunction,ComponentPad*%
%ADD11C,1.300000*%
%TD*%
%TA.AperFunction,ComponentPad*%
%ADD12C,2.200000*%
%TD*%
%TA.AperFunction,ComponentPad*%
%ADD13R,1.725000X1.725000*%
%TD*%
%TA.AperFunction,ComponentPad*%
%ADD14C,1.725000*%
%TD*%
%TA.AperFunction,ComponentPad*%
%ADD15C,2.000000*%
%TD*%
%TA.AperFunction,ViaPad*%
%ADD16C,0.600000*%
%TD*%
%TA.AperFunction,Conductor*%
%ADD17C,0.200000*%
%TD*%
%TA.AperFunction,Conductor*%
%ADD18C,0.500000*%
%TD*%
%TA.AperFunction,Conductor*%
%ADD19C,0.700000*%
%TD*%
%TA.AperFunction,Conductor*%
%ADD20C,1.070000*%
%TD*%
%TA.AperFunction,Conductor*%
%ADD21C,0.400000*%
%TD*%
G04 APERTURE END LIST*
D10*
%TO.P,S1,1,1_1*%
%TO.N,GND*%
X246580000Y-100000000D03*
D11*
%TO.P,S1,2,2_2*%
%TO.N,REED*%
X246580000Y-123400000D03*
%TD*%
D10*
%TO.P,S3,1,1_1*%
%TO.N,GND*%
X222320000Y-100000000D03*
D11*
%TO.P,S3,2,2_2*%
%TO.N,REED*%
X222320000Y-123400000D03*
%TD*%
D12*
%TO.P,BT1,1,-_1*%
%TO.N,GND*%
X227850000Y-151431535D03*
%TO.P,BT1,2,-_2*%
X241050000Y-128568465D03*
%TO.P,BT1,3,+_3*%
%TO.N,VDD*%
X222391670Y-134885641D03*
%TO.P,BT1,4,+_4*%
X223991670Y-132114359D03*
%TD*%
D13*
%TO.P,J1,1,1_1*%
%TO.N,VDD*%
X246800000Y-127320000D03*
D14*
%TO.P,J1,2,2_2*%
%TO.N,SWIM*%
X246800000Y-129860000D03*
%TO.P,J1,3,3_3*%
%TO.N,GND*%
X246800000Y-132400000D03*
%TO.P,J1,4,4_4*%
%TO.N,NRST*%
X246800000Y-134940000D03*
%TD*%
D13*
%TO.P,J2,1,1_1*%
%TO.N,GND*%
X237550000Y-152680000D03*
D14*
%TO.P,J2,2,2_2*%
%TO.N,RX*%
X240090000Y-152680000D03*
%TO.P,J2,3,3_3*%
%TO.N,TX*%
X242630000Y-152680000D03*
%TD*%
D15*
%TO.P,ANT1,1,ANT_1*%
%TO.N,Net-(ANT1-ANT)*%
X234450000Y-104122500D03*
%TD*%
D16*
%TO.N,GND*%
X245000000Y-147640000D03*
X229010000Y-140630000D03*
X232980000Y-137360000D03*
X221150000Y-132230000D03*
X235910000Y-147620000D03*
X229140000Y-126870000D03*
X245690000Y-139790000D03*
X221170000Y-108560000D03*
X238760000Y-146990000D03*
X223910000Y-140540000D03*
X221190000Y-103480000D03*
X233320000Y-108842500D03*
X243760000Y-122160000D03*
X229310767Y-149970767D03*
X243640000Y-142490000D03*
X235570000Y-110292500D03*
X221170000Y-116380000D03*
X240200000Y-148220000D03*
X240580000Y-119452500D03*
X224990000Y-135090000D03*
X247550000Y-108410000D03*
X245780000Y-120900000D03*
X239030000Y-119462500D03*
X242540000Y-136300000D03*
X236210000Y-138680000D03*
X232590000Y-126910000D03*
X239890000Y-134790000D03*
X221170000Y-113170000D03*
X230810000Y-113650000D03*
X233530000Y-110892500D03*
X237920000Y-116842500D03*
X243790000Y-123600000D03*
X241830000Y-123510000D03*
X232610000Y-112800000D03*
X233050000Y-143130000D03*
X224600000Y-145520000D03*
X224170000Y-123720000D03*
X239880000Y-118222500D03*
X223830000Y-129120000D03*
X232830000Y-152620000D03*
X221180000Y-136820000D03*
X224740000Y-118470000D03*
X229050000Y-141770000D03*
X236820000Y-119692500D03*
X235580000Y-142390000D03*
X232860000Y-117372500D03*
X236990000Y-117255000D03*
X246680000Y-144030000D03*
X244950000Y-144740000D03*
X224000000Y-147410000D03*
X224180000Y-122360000D03*
X247590000Y-142320000D03*
X223980000Y-138050000D03*
X242610000Y-141300000D03*
X231000000Y-117342500D03*
X242030000Y-143300000D03*
X247750000Y-116210000D03*
X235580000Y-111322500D03*
X228130000Y-124470000D03*
X229480000Y-147520000D03*
X242490000Y-148370000D03*
X222830000Y-119510000D03*
X230810000Y-141550000D03*
X231030000Y-118232500D03*
X242880000Y-150710000D03*
X240330000Y-131240000D03*
X236630000Y-113862500D03*
X244460000Y-134370000D03*
X233040000Y-111692500D03*
X239970000Y-122042500D03*
X243760000Y-120900000D03*
X232890000Y-133710000D03*
X225830000Y-148830000D03*
X227580000Y-118520000D03*
X245720000Y-119440000D03*
X231930000Y-117082500D03*
X233310000Y-107050000D03*
X248020000Y-140120000D03*
X240780000Y-146760000D03*
X240780000Y-145220000D03*
X238140000Y-149360000D03*
X228290000Y-144590000D03*
X234830000Y-152620000D03*
X241830000Y-122130000D03*
X230070000Y-117802500D03*
X241010000Y-142290000D03*
X222850000Y-121140000D03*
X237470000Y-133770000D03*
X231230000Y-143120000D03*
X240740000Y-141190000D03*
X233310000Y-105900000D03*
X225980000Y-146970000D03*
X238850000Y-145550000D03*
X244810000Y-141290000D03*
X230760000Y-140460000D03*
X240240000Y-124970000D03*
X236310000Y-150330000D03*
X239990000Y-120902500D03*
X229990000Y-133310000D03*
X243640000Y-147430000D03*
X232170000Y-138880000D03*
X226510000Y-136290000D03*
X224990000Y-127240000D03*
X230760000Y-114850000D03*
X224210000Y-121160000D03*
X231840000Y-113222500D03*
X244720769Y-132239231D03*
X221120000Y-139010000D03*
X239530000Y-150750000D03*
X227680000Y-148960000D03*
X242560000Y-146540000D03*
X221140000Y-121150000D03*
X221180000Y-125750000D03*
X242640000Y-144930000D03*
X224170000Y-119660000D03*
X226240000Y-118470000D03*
X226390000Y-140640000D03*
X224540000Y-125790000D03*
X229120000Y-130650000D03*
X238980000Y-117102500D03*
X244440000Y-136270000D03*
X235610000Y-107050000D03*
X240230000Y-133260000D03*
X221140000Y-119510000D03*
X247590000Y-119410000D03*
X233330000Y-108062500D03*
X243520000Y-139590000D03*
X244970000Y-149140000D03*
X228560000Y-119822500D03*
X247670000Y-112850000D03*
X238420000Y-127300000D03*
X221570000Y-130700000D03*
X232060000Y-116000000D03*
X241810000Y-139940000D03*
X246870000Y-146120000D03*
X226310000Y-132310000D03*
X221120000Y-141560000D03*
X243730000Y-119440000D03*
X245940000Y-137020000D03*
X247990000Y-138690000D03*
X235610000Y-109300000D03*
X242460000Y-133320000D03*
X247970000Y-137190000D03*
X244950000Y-146150000D03*
X247830000Y-125480000D03*
X241890000Y-119440000D03*
X234270000Y-147640000D03*
X237450000Y-131520000D03*
X232810000Y-109900000D03*
X245050000Y-128830000D03*
X236840000Y-115212500D03*
X245890000Y-138390000D03*
X222050000Y-146120000D03*
X228500000Y-117822500D03*
X236580000Y-112922500D03*
X230810000Y-145370000D03*
X243230000Y-128250000D03*
X230800000Y-147160000D03*
X228580000Y-122802500D03*
X239940000Y-123030000D03*
X229520000Y-121250000D03*
X226650000Y-124510000D03*
X235610000Y-108200000D03*
X243560000Y-149760000D03*
X241540000Y-149740000D03*
X225250000Y-142340000D03*
X247460000Y-103460000D03*
X247620000Y-120960000D03*
X225550000Y-123840000D03*
X230170000Y-128730000D03*
X226440000Y-138520000D03*
X237490000Y-135810000D03*
X236160000Y-112050000D03*
X241860000Y-120870000D03*
X230020000Y-152620000D03*
X235560000Y-105950000D03*
X228510000Y-121252500D03*
X230960000Y-115900000D03*
X238340000Y-138810000D03*
X238400000Y-129690000D03*
X243740000Y-138270000D03*
%TO.N,REED*%
X234920000Y-143900000D03*
%TO.N,VDD*%
X237470000Y-125850000D03*
X230650000Y-150080000D03*
X227030000Y-125850000D03*
%TO.N,BTN*%
X234290000Y-144760000D03*
X231450000Y-144470000D03*
%TO.N,RF_VDD*%
X237340000Y-123960000D03*
X230570000Y-122450000D03*
X237730000Y-119372500D03*
X230853235Y-120366765D03*
X232780000Y-124222500D03*
X231970000Y-119312500D03*
%TO.N,/MCU/SDI*%
X233800000Y-131600000D03*
X236600000Y-125030000D03*
X233840000Y-126680000D03*
X234530000Y-125030000D03*
X234930000Y-138770000D03*
%TO.N,NRST*%
X235570000Y-144700000D03*
X237130000Y-144710000D03*
%TO.N,SWIM*%
X237080000Y-143570000D03*
%TO.N,Net-(D1-A)*%
X229420000Y-142780000D03*
X236920000Y-137940000D03*
%TO.N,/MCU/CS*%
X228870000Y-134640000D03*
X232030000Y-137820000D03*
%TO.N,/MCU/IRQ*%
X231620000Y-136490000D03*
X230950000Y-127240000D03*
%TO.N,/MCU/SCLK*%
X239160000Y-136460000D03*
X235950000Y-126680000D03*
X235480000Y-136440000D03*
%TO.N,/MCU/SDO*%
X234850000Y-126680000D03*
X239410000Y-138190000D03*
X235570000Y-137810000D03*
%TD*%
%TO.N,REED*%
D17*
X244020000Y-129630000D02*
X241460000Y-132190000D01*
X222320000Y-126300000D02*
X222320000Y-123400000D01*
X235510000Y-143900000D02*
X234920000Y-143900000D01*
X228190000Y-142820000D02*
X228190000Y-132170000D01*
X241460000Y-137950000D02*
X235510000Y-143900000D01*
X229270000Y-143900000D02*
X228190000Y-142820000D01*
X246580000Y-123400000D02*
X244020000Y-125960000D01*
X241460000Y-132190000D02*
X241460000Y-137950000D01*
X228190000Y-132170000D02*
X222320000Y-126300000D01*
X244020000Y-125960000D02*
X244020000Y-129630000D01*
X234920000Y-143900000D02*
X229270000Y-143900000D01*
%TO.N,VDD*%
D18*
X227030000Y-125850000D02*
X237470000Y-125850000D01*
D19*
X222391670Y-141890600D02*
X230581070Y-150080000D01*
D20*
X222391670Y-134885641D02*
X222391670Y-133714359D01*
D19*
X230581070Y-150080000D02*
X230650000Y-150080000D01*
D20*
X222391670Y-133714359D02*
X223991670Y-132114359D01*
D19*
X222391670Y-134885641D02*
X222391670Y-141890600D01*
%TO.N,BTN*%
D17*
X234110000Y-144370000D02*
X231450000Y-144370000D01*
X234290000Y-144550000D02*
X234110000Y-144370000D01*
X231450000Y-144370000D02*
X231450000Y-144470000D01*
X234290000Y-144760000D02*
X234290000Y-144550000D01*
%TO.N,RF_VDD*%
D21*
X232780000Y-124222500D02*
X232342500Y-124222500D01*
X232342500Y-124222500D02*
X230570000Y-122450000D01*
X230915735Y-120366765D02*
X231970000Y-119312500D01*
X232780000Y-124222500D02*
X237077500Y-124222500D01*
X230853235Y-120366765D02*
X230915735Y-120366765D01*
X237730000Y-123570000D02*
X237730000Y-119372500D01*
X231970000Y-119312500D02*
X231907500Y-119312500D01*
X237340000Y-123960000D02*
X237730000Y-123570000D01*
X237077500Y-124222500D02*
X237340000Y-123960000D01*
%TO.N,/MCU/SDI*%
D17*
X233820000Y-126700000D02*
X233820000Y-137660000D01*
X233820000Y-137660000D02*
X234930000Y-138770000D01*
X233840000Y-126680000D02*
X233820000Y-126700000D01*
X234530000Y-125030000D02*
X236600000Y-125030000D01*
%TO.N,NRST*%
X235570000Y-144700000D02*
X237120000Y-144700000D01*
X237120000Y-144700000D02*
X237130000Y-144710000D01*
%TO.N,SWIM*%
X243400000Y-137250000D02*
X243400000Y-132080000D01*
X246550000Y-130110000D02*
X246800000Y-129860000D01*
X243400000Y-132080000D02*
X245370000Y-130110000D01*
X245370000Y-130110000D02*
X246550000Y-130110000D01*
X237080000Y-143570000D02*
X243400000Y-137250000D01*
%TO.N,Net-(D1-A)*%
X233740000Y-142330000D02*
X236920000Y-139150000D01*
X236920000Y-137940000D02*
X236920000Y-139150000D01*
X229870000Y-142330000D02*
X233740000Y-142330000D01*
X229870000Y-142330000D02*
X229420000Y-142780000D01*
%TO.N,/MCU/CS*%
X232030000Y-137820000D02*
X228880000Y-134670000D01*
%TO.N,/MCU/IRQ*%
X230950000Y-127240000D02*
X230950000Y-135820000D01*
X230950000Y-135820000D02*
X231620000Y-136490000D01*
%TO.N,/MCU/SCLK*%
X235480000Y-136440000D02*
X239140000Y-136440000D01*
X239140000Y-136440000D02*
X239160000Y-136460000D01*
X235950000Y-126680000D02*
X235950000Y-135970000D01*
X235950000Y-135970000D02*
X235480000Y-136440000D01*
%TO.N,/MCU/SDO*%
X234850000Y-137090000D02*
X234850000Y-126680000D01*
X235570000Y-137810000D02*
X234850000Y-137090000D01*
X236110000Y-137270000D02*
X238500000Y-137270000D01*
X239410000Y-138180000D02*
X239410000Y-138190000D01*
X235570000Y-137810000D02*
X236110000Y-137270000D01*
X238500000Y-137270000D02*
X239410000Y-138180000D01*
%TD*%
%TA.AperFunction,Conductor*%
%TO.N,GND*%
G36*
X224056337Y-102589685D02*
G01*
X224102092Y-102642489D01*
X224103850Y-102646528D01*
X224120024Y-102685574D01*
X224176426Y-102741976D01*
X224250118Y-102772500D01*
X224250120Y-102772500D01*
X233939040Y-102772500D01*
X234006079Y-102792185D01*
X234051834Y-102844989D01*
X234061778Y-102914147D01*
X234032753Y-102977703D01*
X233992859Y-103006465D01*
X233993509Y-103007741D01*
X233820800Y-103095740D01*
X233733579Y-103159110D01*
X233667927Y-103206810D01*
X233667925Y-103206812D01*
X233667924Y-103206812D01*
X233534312Y-103340424D01*
X233534312Y-103340425D01*
X233534310Y-103340427D01*
X233486610Y-103406079D01*
X233423240Y-103493300D01*
X233337454Y-103661663D01*
X233279059Y-103841381D01*
X233249500Y-104028013D01*
X233249500Y-104216986D01*
X233279059Y-104403618D01*
X233337454Y-104583336D01*
X233423240Y-104751699D01*
X233534310Y-104904573D01*
X233667927Y-105038190D01*
X233820801Y-105149260D01*
X233900347Y-105189790D01*
X233989163Y-105235045D01*
X233989165Y-105235045D01*
X233989168Y-105235047D01*
X234085497Y-105266346D01*
X234168881Y-105293440D01*
X234355514Y-105323000D01*
X234355519Y-105323000D01*
X234544486Y-105323000D01*
X234731118Y-105293440D01*
X234910832Y-105235047D01*
X235079199Y-105149260D01*
X235232073Y-105038190D01*
X235365690Y-104904573D01*
X235476760Y-104751699D01*
X235562547Y-104583332D01*
X235620940Y-104403618D01*
X235650500Y-104216986D01*
X235650500Y-104028013D01*
X235620940Y-103841381D01*
X235562545Y-103661663D01*
X235476759Y-103493300D01*
X235365690Y-103340427D01*
X235232073Y-103206810D01*
X235079199Y-103095740D01*
X234910832Y-103009953D01*
X234906491Y-103007741D01*
X234907336Y-103006082D01*
X234859116Y-102967237D01*
X234837040Y-102900946D01*
X234854308Y-102833244D01*
X234905437Y-102785625D01*
X234960960Y-102772500D01*
X244649880Y-102772500D01*
X244649882Y-102772500D01*
X244723574Y-102741976D01*
X244779976Y-102685574D01*
X244796141Y-102646545D01*
X244839982Y-102592144D01*
X244906276Y-102570079D01*
X244910702Y-102570000D01*
X248575500Y-102570000D01*
X248642539Y-102589685D01*
X248688294Y-102642489D01*
X248699500Y-102694000D01*
X248699500Y-149675500D01*
X248679815Y-149742539D01*
X248627011Y-149788294D01*
X248575500Y-149799500D01*
X244570116Y-149799500D01*
X244496425Y-149830024D01*
X244440024Y-149886425D01*
X244409500Y-149960116D01*
X244409500Y-154125500D01*
X244389815Y-154192539D01*
X244337011Y-154238294D01*
X244285500Y-154249500D01*
X238635010Y-154249500D01*
X238567971Y-154229815D01*
X238522216Y-154177011D01*
X238512272Y-154107853D01*
X238541297Y-154044297D01*
X238591677Y-154009318D01*
X238654586Y-153985854D01*
X238654593Y-153985850D01*
X238769687Y-153899690D01*
X238769690Y-153899687D01*
X238855850Y-153784593D01*
X238855854Y-153784586D01*
X238906096Y-153649879D01*
X238906098Y-153649872D01*
X238912499Y-153590344D01*
X238912500Y-153590327D01*
X238912500Y-153237999D01*
X238932185Y-153170960D01*
X238984989Y-153125205D01*
X239054147Y-153115261D01*
X239117703Y-153144286D01*
X239145858Y-153179546D01*
X239147982Y-153183521D01*
X239264310Y-153357618D01*
X239264316Y-153357626D01*
X239412373Y-153505683D01*
X239412381Y-153505689D01*
X239586478Y-153622017D01*
X239643140Y-153645487D01*
X239779934Y-153702149D01*
X239779938Y-153702149D01*
X239779939Y-153702150D01*
X239985301Y-153743000D01*
X239985304Y-153743000D01*
X240194698Y-153743000D01*
X240332863Y-153715516D01*
X240400066Y-153702149D01*
X240593519Y-153622018D01*
X240593519Y-153622017D01*
X240593521Y-153622017D01*
X240679987Y-153564241D01*
X240767623Y-153505686D01*
X240915686Y-153357623D01*
X241032018Y-153183519D01*
X241112149Y-152990066D01*
X241135427Y-152873039D01*
X241153000Y-152784698D01*
X241566999Y-152784698D01*
X241607849Y-152990060D01*
X241607851Y-152990066D01*
X241687982Y-153183521D01*
X241804310Y-153357618D01*
X241804316Y-153357626D01*
X241952373Y-153505683D01*
X241952381Y-153505689D01*
X242126478Y-153622017D01*
X242183140Y-153645487D01*
X242319934Y-153702149D01*
X242319938Y-153702149D01*
X242319939Y-153702150D01*
X242525301Y-153743000D01*
X242525304Y-153743000D01*
X242734698Y-153743000D01*
X242872863Y-153715516D01*
X242940066Y-153702149D01*
X243133519Y-153622018D01*
X243133519Y-153622017D01*
X243133521Y-153622017D01*
X243219987Y-153564241D01*
X243307623Y-153505686D01*
X243455686Y-153357623D01*
X243572018Y-153183519D01*
X243652149Y-152990066D01*
X243675427Y-152873039D01*
X243693000Y-152784698D01*
X243693000Y-152575301D01*
X243652150Y-152369939D01*
X243652149Y-152369938D01*
X243652149Y-152369934D01*
X243589997Y-152219885D01*
X243572017Y-152176478D01*
X243455689Y-152002381D01*
X243455683Y-152002373D01*
X243307626Y-151854316D01*
X243307618Y-151854310D01*
X243133521Y-151737982D01*
X242940066Y-151657851D01*
X242940060Y-151657849D01*
X242734698Y-151617000D01*
X242734696Y-151617000D01*
X242525304Y-151617000D01*
X242525302Y-151617000D01*
X242319939Y-151657849D01*
X242319933Y-151657851D01*
X242126478Y-151737982D01*
X241952381Y-151854310D01*
X241952373Y-151854316D01*
X241804316Y-152002373D01*
X241804310Y-152002381D01*
X241687982Y-152176478D01*
X241607851Y-152369933D01*
X241607849Y-152369939D01*
X241567000Y-152575301D01*
X241567000Y-152575304D01*
X241567000Y-152784696D01*
X241567000Y-152784698D01*
X241566999Y-152784698D01*
X241153000Y-152784698D01*
X241153000Y-152575301D01*
X241112150Y-152369939D01*
X241112149Y-152369938D01*
X241112149Y-152369934D01*
X241049997Y-152219885D01*
X241032017Y-152176478D01*
X240915689Y-152002381D01*
X240915683Y-152002373D01*
X240767626Y-151854316D01*
X240767618Y-151854310D01*
X240593521Y-151737982D01*
X240400066Y-151657851D01*
X240400060Y-151657849D01*
X240194698Y-151617000D01*
X240194696Y-151617000D01*
X239985304Y-151617000D01*
X239985302Y-151617000D01*
X239779939Y-151657849D01*
X239779933Y-151657851D01*
X239586478Y-151737982D01*
X239412381Y-151854310D01*
X239412373Y-151854316D01*
X239264316Y-152002373D01*
X239264310Y-152002381D01*
X239147984Y-152176475D01*
X239145856Y-152180458D01*
X239096891Y-152230300D01*
X239028753Y-152245758D01*
X238963074Y-152221923D01*
X238920708Y-152166364D01*
X238912500Y-152122000D01*
X238912500Y-151769672D01*
X238912499Y-151769655D01*
X238906098Y-151710127D01*
X238906096Y-151710120D01*
X238855854Y-151575413D01*
X238855850Y-151575406D01*
X238769690Y-151460312D01*
X238769687Y-151460309D01*
X238654593Y-151374149D01*
X238654586Y-151374145D01*
X238519879Y-151323903D01*
X238519872Y-151323901D01*
X238460344Y-151317500D01*
X237800000Y-151317500D01*
X237800000Y-152160384D01*
X237771942Y-152144185D01*
X237625700Y-152105000D01*
X237474300Y-152105000D01*
X237328058Y-152144185D01*
X237300000Y-152160384D01*
X237300000Y-151317500D01*
X236639655Y-151317500D01*
X236580127Y-151323901D01*
X236580120Y-151323903D01*
X236445413Y-151374145D01*
X236445406Y-151374149D01*
X236330312Y-151460309D01*
X236330309Y-151460312D01*
X236244149Y-151575406D01*
X236244145Y-151575413D01*
X236193903Y-151710120D01*
X236193901Y-151710127D01*
X236187500Y-151769655D01*
X236187500Y-152430000D01*
X237030384Y-152430000D01*
X237014185Y-152458058D01*
X236975000Y-152604300D01*
X236975000Y-152755700D01*
X237014185Y-152901942D01*
X237030384Y-152930000D01*
X236187500Y-152930000D01*
X236187500Y-153590344D01*
X236193901Y-153649872D01*
X236193903Y-153649879D01*
X236244145Y-153784586D01*
X236244149Y-153784593D01*
X236330309Y-153899687D01*
X236330312Y-153899690D01*
X236445406Y-153985850D01*
X236445413Y-153985854D01*
X236508323Y-154009318D01*
X236564257Y-154051189D01*
X236588674Y-154116653D01*
X236573823Y-154184926D01*
X236524417Y-154234332D01*
X236464990Y-154249500D01*
X224624500Y-154249500D01*
X224557461Y-154229815D01*
X224511706Y-154177011D01*
X224500500Y-154125500D01*
X224500500Y-151305606D01*
X226250000Y-151305606D01*
X226250000Y-151557463D01*
X226289397Y-151806204D01*
X226367219Y-152045719D01*
X226481557Y-152270118D01*
X226629590Y-152473866D01*
X226629591Y-152473868D01*
X226807663Y-152651941D01*
X226842224Y-152677050D01*
X227416987Y-151681533D01*
X227449901Y-151738542D01*
X227542993Y-151831634D01*
X227657007Y-151897460D01*
X227784174Y-151931535D01*
X227849998Y-151931535D01*
X227275201Y-152927111D01*
X227475331Y-152992137D01*
X227724072Y-153031535D01*
X227975928Y-153031535D01*
X228224669Y-152992137D01*
X228464184Y-152914315D01*
X228688583Y-152799977D01*
X228892331Y-152651944D01*
X228892333Y-152651943D01*
X229070408Y-152473869D01*
X229095516Y-152439309D01*
X228100000Y-151864546D01*
X228157007Y-151831634D01*
X228250099Y-151738542D01*
X228315925Y-151624528D01*
X228350000Y-151497361D01*
X228350000Y-151431535D01*
X229345576Y-152006332D01*
X229345576Y-152006331D01*
X229410602Y-151806204D01*
X229419988Y-151746952D01*
X229419988Y-151746951D01*
X229450000Y-151557463D01*
X229450000Y-151305606D01*
X229410602Y-151056865D01*
X229332780Y-150817350D01*
X229218442Y-150592951D01*
X229070409Y-150389203D01*
X229070409Y-150389202D01*
X228892332Y-150211125D01*
X228857773Y-150186017D01*
X228283011Y-151181533D01*
X228250099Y-151124528D01*
X228157007Y-151031436D01*
X228042993Y-150965610D01*
X227915826Y-150931535D01*
X227849999Y-150931535D01*
X228424797Y-149935957D01*
X228424796Y-149935956D01*
X228224669Y-149870932D01*
X227975928Y-149831535D01*
X227724072Y-149831535D01*
X227475330Y-149870932D01*
X227235815Y-149948754D01*
X227011416Y-150063092D01*
X226807668Y-150211125D01*
X226807667Y-150211125D01*
X226629587Y-150389205D01*
X226604481Y-150423760D01*
X227600000Y-150998522D01*
X227542993Y-151031436D01*
X227449901Y-151124528D01*
X227384075Y-151238542D01*
X227350000Y-151365709D01*
X227350000Y-151431533D01*
X227347163Y-151429896D01*
X226354422Y-150856736D01*
X226354421Y-150856737D01*
X226289397Y-151056863D01*
X226250000Y-151305606D01*
X224500500Y-151305606D01*
X224500500Y-149960119D01*
X224500499Y-149960116D01*
X224490492Y-149935956D01*
X224469976Y-149886426D01*
X224413574Y-149830024D01*
X224339883Y-149799500D01*
X224339882Y-149799500D01*
X220324500Y-149799500D01*
X220257461Y-149779815D01*
X220211706Y-149727011D01*
X220200500Y-149675500D01*
X220200500Y-147896530D01*
X220949500Y-147896530D01*
X220949500Y-148103469D01*
X220989868Y-148306412D01*
X220989870Y-148306420D01*
X221069058Y-148497596D01*
X221184024Y-148669657D01*
X221330342Y-148815975D01*
X221330345Y-148815977D01*
X221502402Y-148930941D01*
X221693580Y-149010130D01*
X221896530Y-149050499D01*
X221896534Y-149050500D01*
X221896535Y-149050500D01*
X222103466Y-149050500D01*
X222103467Y-149050499D01*
X222306420Y-149010130D01*
X222497598Y-148930941D01*
X222669655Y-148815977D01*
X222815977Y-148669655D01*
X222930941Y-148497598D01*
X223010130Y-148306420D01*
X223050500Y-148103465D01*
X223050500Y-147896535D01*
X223010130Y-147693580D01*
X222930941Y-147502402D01*
X222815977Y-147330345D01*
X222815975Y-147330342D01*
X222669657Y-147184024D01*
X222583626Y-147126541D01*
X222497598Y-147069059D01*
X222306420Y-146989870D01*
X222306412Y-146989868D01*
X222103469Y-146949500D01*
X222103465Y-146949500D01*
X221896535Y-146949500D01*
X221896530Y-146949500D01*
X221693587Y-146989868D01*
X221693579Y-146989870D01*
X221502403Y-147069058D01*
X221330342Y-147184024D01*
X221184024Y-147330342D01*
X221069058Y-147502403D01*
X220989870Y-147693579D01*
X220989868Y-147693587D01*
X220949500Y-147896530D01*
X220200500Y-147896530D01*
X220200500Y-134783289D01*
X221091170Y-134783289D01*
X221091170Y-134987992D01*
X221123192Y-135190175D01*
X221186451Y-135384864D01*
X221279385Y-135567254D01*
X221399698Y-135732854D01*
X221399704Y-135732860D01*
X221544451Y-135877607D01*
X221710060Y-135997928D01*
X221773465Y-136030234D01*
X221824260Y-136078207D01*
X221841170Y-136140718D01*
X221841170Y-141818126D01*
X221841170Y-141963074D01*
X221878686Y-142103085D01*
X221951160Y-142228615D01*
X230243056Y-150520510D01*
X230346962Y-150580500D01*
X230368585Y-150592984D01*
X230508595Y-150630500D01*
X230508596Y-150630500D01*
X230508598Y-150630500D01*
X230722472Y-150630500D01*
X230722475Y-150630500D01*
X230862485Y-150592984D01*
X230988015Y-150520509D01*
X231090509Y-150418015D01*
X231162984Y-150292485D01*
X231200500Y-150152475D01*
X231200500Y-150007525D01*
X231162984Y-149867515D01*
X231141338Y-149830024D01*
X231090511Y-149741988D01*
X231090506Y-149741982D01*
X230988017Y-149639493D01*
X230988011Y-149639488D01*
X230862486Y-149567016D01*
X230858167Y-149565227D01*
X230817942Y-149538348D01*
X229257718Y-147978124D01*
X229176124Y-147896530D01*
X245849500Y-147896530D01*
X245849500Y-148103469D01*
X245889868Y-148306412D01*
X245889870Y-148306420D01*
X245969058Y-148497596D01*
X246084024Y-148669657D01*
X246230342Y-148815975D01*
X246230345Y-148815977D01*
X246402402Y-148930941D01*
X246593580Y-149010130D01*
X246796530Y-149050499D01*
X246796534Y-149050500D01*
X246796535Y-149050500D01*
X247003466Y-149050500D01*
X247003467Y-149050499D01*
X247206420Y-149010130D01*
X247397598Y-148930941D01*
X247569655Y-148815977D01*
X247715977Y-148669655D01*
X247830941Y-148497598D01*
X247910130Y-148306420D01*
X247950500Y-148103465D01*
X247950500Y-147896535D01*
X247910130Y-147693580D01*
X247830941Y-147502402D01*
X247715977Y-147330345D01*
X247715975Y-147330342D01*
X247569657Y-147184024D01*
X247483626Y-147126541D01*
X247397598Y-147069059D01*
X247206420Y-146989870D01*
X247206412Y-146989868D01*
X247003469Y-146949500D01*
X247003465Y-146949500D01*
X246796535Y-146949500D01*
X246796530Y-146949500D01*
X246593587Y-146989868D01*
X246593579Y-146989870D01*
X246402403Y-147069058D01*
X246230342Y-147184024D01*
X246084024Y-147330342D01*
X245969058Y-147502403D01*
X245889870Y-147693579D01*
X245889868Y-147693587D01*
X245849500Y-147896530D01*
X229176124Y-147896530D01*
X226540094Y-145260500D01*
X222978489Y-141698894D01*
X222945004Y-141637571D01*
X222942170Y-141611213D01*
X222942170Y-136140718D01*
X222961855Y-136073679D01*
X223009874Y-136030234D01*
X223073280Y-135997928D01*
X223238889Y-135877607D01*
X223383636Y-135732860D01*
X223383638Y-135732856D01*
X223383641Y-135732854D01*
X223448075Y-135644167D01*
X223503957Y-135567251D01*
X223596890Y-135384860D01*
X223660147Y-135190175D01*
X223692170Y-134987993D01*
X223692170Y-134783289D01*
X223690358Y-134771848D01*
X223660147Y-134581106D01*
X223630797Y-134490778D01*
X223596890Y-134386422D01*
X223596888Y-134386419D01*
X223596888Y-134386417D01*
X223558810Y-134311686D01*
X223503957Y-134204031D01*
X223481854Y-134173608D01*
X223383641Y-134038427D01*
X223333379Y-133988165D01*
X223299894Y-133926842D01*
X223304878Y-133857150D01*
X223333379Y-133812803D01*
X223504268Y-133641914D01*
X223708252Y-133437929D01*
X223769573Y-133404446D01*
X223815324Y-133403139D01*
X223889318Y-133414859D01*
X223889321Y-133414859D01*
X224094021Y-133414859D01*
X224094022Y-133414859D01*
X224296204Y-133382836D01*
X224490889Y-133319579D01*
X224673280Y-133226646D01*
X224788329Y-133143059D01*
X224838883Y-133106330D01*
X224838885Y-133106327D01*
X224838889Y-133106325D01*
X224983636Y-132961578D01*
X224983638Y-132961574D01*
X224983641Y-132961572D01*
X225036402Y-132888949D01*
X225103957Y-132795969D01*
X225196890Y-132613578D01*
X225260147Y-132418893D01*
X225292170Y-132216711D01*
X225292170Y-132012007D01*
X225284567Y-131964004D01*
X225260147Y-131809824D01*
X225213380Y-131665891D01*
X225196890Y-131615140D01*
X225196888Y-131615137D01*
X225196888Y-131615135D01*
X225155602Y-131534108D01*
X225103957Y-131432749D01*
X225085113Y-131406812D01*
X224983641Y-131267145D01*
X224838883Y-131122387D01*
X224673283Y-131002074D01*
X224673282Y-131002073D01*
X224673280Y-131002072D01*
X224616323Y-130973050D01*
X224490893Y-130909140D01*
X224296204Y-130845881D01*
X224121665Y-130818237D01*
X224094022Y-130813859D01*
X223889318Y-130813859D01*
X223864999Y-130817710D01*
X223687135Y-130845881D01*
X223492446Y-130909140D01*
X223310056Y-131002074D01*
X223144456Y-131122387D01*
X222999698Y-131267145D01*
X222879385Y-131432745D01*
X222786451Y-131615135D01*
X222723192Y-131809824D01*
X222691170Y-132012007D01*
X222691170Y-132216716D01*
X222702888Y-132290699D01*
X222693934Y-132359992D01*
X222668096Y-132397778D01*
X222269906Y-132795969D01*
X221922816Y-133143059D01*
X221895210Y-133170665D01*
X221820368Y-133245506D01*
X221739881Y-133365962D01*
X221739874Y-133365975D01*
X221684436Y-133499816D01*
X221684433Y-133499828D01*
X221656170Y-133641914D01*
X221656170Y-133749325D01*
X221636485Y-133816364D01*
X221605055Y-133849643D01*
X221544457Y-133893669D01*
X221544452Y-133893673D01*
X221399698Y-134038427D01*
X221279385Y-134204027D01*
X221186451Y-134386417D01*
X221123192Y-134581106D01*
X221091170Y-134783289D01*
X220200500Y-134783289D01*
X220200500Y-123316228D01*
X221469500Y-123316228D01*
X221469500Y-123483771D01*
X221502182Y-123648074D01*
X221502184Y-123648082D01*
X221566295Y-123802860D01*
X221659373Y-123942162D01*
X221777834Y-124060623D01*
X221777838Y-124060626D01*
X221917130Y-124153699D01*
X221917137Y-124153703D01*
X221942952Y-124164395D01*
X221997355Y-124208236D01*
X222019421Y-124274529D01*
X222019500Y-124278957D01*
X222019500Y-126339562D01*
X222039978Y-126415987D01*
X222042284Y-126419981D01*
X222042287Y-126419987D01*
X222079537Y-126484507D01*
X222079541Y-126484512D01*
X227853181Y-132258152D01*
X227886666Y-132319475D01*
X227889500Y-132345833D01*
X227889500Y-142859562D01*
X227890769Y-142864297D01*
X227909979Y-142935990D01*
X227909980Y-142935991D01*
X227916859Y-142947905D01*
X227926446Y-142964511D01*
X227949540Y-143004511D01*
X229085489Y-144140460D01*
X229154012Y-144180022D01*
X229230438Y-144200500D01*
X230842457Y-144200500D01*
X230909496Y-144220185D01*
X230955251Y-144272989D01*
X230965195Y-144342147D01*
X230962234Y-144356581D01*
X230949500Y-144404108D01*
X230949500Y-144535892D01*
X230966554Y-144599539D01*
X230983608Y-144663187D01*
X230995789Y-144684284D01*
X231049500Y-144777314D01*
X231142686Y-144870500D01*
X231256814Y-144936392D01*
X231384108Y-144970500D01*
X231384110Y-144970500D01*
X231515890Y-144970500D01*
X231515892Y-144970500D01*
X231643186Y-144936392D01*
X231757314Y-144870500D01*
X231850500Y-144777314D01*
X231876373Y-144732499D01*
X231926940Y-144684284D01*
X231983760Y-144670500D01*
X233665500Y-144670500D01*
X233732539Y-144690185D01*
X233778294Y-144742989D01*
X233789500Y-144794500D01*
X233789500Y-144825891D01*
X233823608Y-144953187D01*
X233833604Y-144970500D01*
X233889500Y-145067314D01*
X233982686Y-145160500D01*
X234096814Y-145226392D01*
X234224108Y-145260500D01*
X234224110Y-145260500D01*
X234355890Y-145260500D01*
X234355892Y-145260500D01*
X234483186Y-145226392D01*
X234597314Y-145160500D01*
X234690500Y-145067314D01*
X234756392Y-144953186D01*
X234790500Y-144825892D01*
X234790500Y-144694108D01*
X234756392Y-144566814D01*
X234756391Y-144566812D01*
X234754288Y-144558963D01*
X234757046Y-144558223D01*
X234751049Y-144502497D01*
X234782317Y-144440014D01*
X234842401Y-144404355D01*
X234873081Y-144400500D01*
X234970495Y-144400500D01*
X235037534Y-144420185D01*
X235083289Y-144472989D01*
X235093233Y-144542147D01*
X235090270Y-144556591D01*
X235069500Y-144634108D01*
X235069500Y-144765892D01*
X235085576Y-144825890D01*
X235103608Y-144893187D01*
X235109382Y-144903187D01*
X235169500Y-145007314D01*
X235262686Y-145100500D01*
X235361521Y-145157563D01*
X235366603Y-145160497D01*
X235376814Y-145166392D01*
X235504108Y-145200500D01*
X235504110Y-145200500D01*
X235635890Y-145200500D01*
X235635892Y-145200500D01*
X235763186Y-145166392D01*
X235877314Y-145100500D01*
X235940995Y-145036819D01*
X236002318Y-145003334D01*
X236028676Y-145000500D01*
X236661323Y-145000500D01*
X236728362Y-145020185D01*
X236749004Y-145036818D01*
X236822686Y-145110500D01*
X236936814Y-145176392D01*
X237064108Y-145210500D01*
X237064110Y-145210500D01*
X237195890Y-145210500D01*
X237195892Y-145210500D01*
X237323186Y-145176392D01*
X237437314Y-145110500D01*
X237530500Y-145017314D01*
X237596392Y-144903186D01*
X237630500Y-144775892D01*
X237630500Y-144644108D01*
X237596392Y-144516814D01*
X237590618Y-144506814D01*
X237587563Y-144501521D01*
X237530500Y-144402686D01*
X237437314Y-144309500D01*
X237359360Y-144264493D01*
X237323183Y-144243606D01*
X237317400Y-144241211D01*
X237262997Y-144197370D01*
X237240932Y-144131076D01*
X237258211Y-144063376D01*
X237302851Y-144019264D01*
X237387314Y-143970500D01*
X237480500Y-143877314D01*
X237546392Y-143763186D01*
X237580500Y-143635892D01*
X237580500Y-143545832D01*
X237600185Y-143478793D01*
X237616819Y-143458151D01*
X239463757Y-141611213D01*
X243640460Y-137434511D01*
X243680022Y-137365988D01*
X243700500Y-137289562D01*
X243700500Y-137210438D01*
X243700500Y-132255833D01*
X243720185Y-132188794D01*
X243736819Y-132168152D01*
X245458152Y-130446819D01*
X245519475Y-130413334D01*
X245545833Y-130410500D01*
X245823094Y-130410500D01*
X245890133Y-130430185D01*
X245926196Y-130465609D01*
X245974315Y-130537625D01*
X246122373Y-130685683D01*
X246122381Y-130685689D01*
X246296479Y-130802017D01*
X246431022Y-130857747D01*
X246485425Y-130901588D01*
X246507490Y-130967882D01*
X246490211Y-131035582D01*
X246439073Y-131083192D01*
X246421888Y-131090239D01*
X246276977Y-131137323D01*
X246085892Y-131234687D01*
X246029333Y-131275778D01*
X246029333Y-131275779D01*
X246609353Y-131855799D01*
X246578058Y-131864185D01*
X246446942Y-131939885D01*
X246339885Y-132046942D01*
X246264185Y-132178058D01*
X246255799Y-132209352D01*
X245675779Y-131629333D01*
X245675778Y-131629333D01*
X245634687Y-131685892D01*
X245537323Y-131876979D01*
X245471048Y-132080950D01*
X245437500Y-132292763D01*
X245437500Y-132507236D01*
X245471048Y-132719049D01*
X245537323Y-132923020D01*
X245634688Y-133114110D01*
X245675778Y-133170665D01*
X245675779Y-133170666D01*
X246255799Y-132590646D01*
X246264185Y-132621942D01*
X246339885Y-132753058D01*
X246446942Y-132860115D01*
X246578058Y-132935815D01*
X246609352Y-132944200D01*
X246029332Y-133524219D01*
X246085893Y-133565313D01*
X246276979Y-133662676D01*
X246421887Y-133709760D01*
X246479562Y-133749197D01*
X246506761Y-133813556D01*
X246494846Y-133882402D01*
X246447602Y-133933878D01*
X246431023Y-133942252D01*
X246296477Y-133997983D01*
X246122381Y-134114310D01*
X246122373Y-134114316D01*
X245974316Y-134262373D01*
X245974310Y-134262381D01*
X245857982Y-134436478D01*
X245777851Y-134629933D01*
X245777849Y-134629939D01*
X245737000Y-134835301D01*
X245737000Y-134835304D01*
X245737000Y-135044696D01*
X245737000Y-135044698D01*
X245736999Y-135044698D01*
X245777849Y-135250060D01*
X245777851Y-135250066D01*
X245857982Y-135443521D01*
X245974310Y-135617618D01*
X245974316Y-135617626D01*
X246122373Y-135765683D01*
X246122381Y-135765689D01*
X246296478Y-135882017D01*
X246347573Y-135903181D01*
X246489934Y-135962149D01*
X246489938Y-135962149D01*
X246489939Y-135962150D01*
X246695301Y-136003000D01*
X246695304Y-136003000D01*
X246904698Y-136003000D01*
X247052458Y-135973608D01*
X247110066Y-135962149D01*
X247303519Y-135882018D01*
X247303519Y-135882017D01*
X247303521Y-135882017D01*
X247452899Y-135782206D01*
X247477623Y-135765686D01*
X247625686Y-135617623D01*
X247742018Y-135443519D01*
X247822149Y-135250066D01*
X247843943Y-135140500D01*
X247863000Y-135044698D01*
X247863000Y-134835301D01*
X247822150Y-134629939D01*
X247822149Y-134629938D01*
X247822149Y-134629934D01*
X247742018Y-134436481D01*
X247742017Y-134436478D01*
X247625689Y-134262381D01*
X247625683Y-134262373D01*
X247477626Y-134114316D01*
X247477618Y-134114310D01*
X247303520Y-133997982D01*
X247168977Y-133942252D01*
X247114574Y-133898411D01*
X247092509Y-133832116D01*
X247109788Y-133764417D01*
X247160926Y-133716807D01*
X247178112Y-133709760D01*
X247323020Y-133662676D01*
X247514105Y-133565314D01*
X247570665Y-133524219D01*
X247570666Y-133524219D01*
X246990646Y-132944200D01*
X247021942Y-132935815D01*
X247153058Y-132860115D01*
X247260115Y-132753058D01*
X247335815Y-132621942D01*
X247344200Y-132590647D01*
X247924219Y-133170666D01*
X247924219Y-133170665D01*
X247965314Y-133114105D01*
X248062676Y-132923020D01*
X248128951Y-132719049D01*
X248162500Y-132507236D01*
X248162500Y-132292763D01*
X248128951Y-132080950D01*
X248062676Y-131876979D01*
X247965313Y-131685893D01*
X247924219Y-131629333D01*
X247924219Y-131629332D01*
X247344200Y-132209352D01*
X247335815Y-132178058D01*
X247260115Y-132046942D01*
X247153058Y-131939885D01*
X247021942Y-131864185D01*
X246990646Y-131855799D01*
X247570666Y-131275779D01*
X247570665Y-131275778D01*
X247514110Y-131234688D01*
X247323020Y-131137323D01*
X247178112Y-131090239D01*
X247120436Y-131050801D01*
X247093238Y-130986443D01*
X247105153Y-130917596D01*
X247152397Y-130866121D01*
X247168974Y-130857748D01*
X247303519Y-130802018D01*
X247303519Y-130802017D01*
X247303521Y-130802017D01*
X247389987Y-130744241D01*
X247477623Y-130685686D01*
X247625686Y-130537623D01*
X247708733Y-130413334D01*
X247742017Y-130363521D01*
X247742018Y-130363519D01*
X247822149Y-130170066D01*
X247863000Y-129964696D01*
X247863000Y-129755304D01*
X247863000Y-129755301D01*
X247822150Y-129549939D01*
X247822149Y-129549938D01*
X247822149Y-129549934D01*
X247742018Y-129356481D01*
X247742017Y-129356478D01*
X247625689Y-129182381D01*
X247625683Y-129182373D01*
X247477626Y-129034316D01*
X247477618Y-129034310D01*
X247303521Y-128917982D01*
X247110066Y-128837851D01*
X247110060Y-128837849D01*
X246904698Y-128797000D01*
X246904696Y-128797000D01*
X246695304Y-128797000D01*
X246695302Y-128797000D01*
X246489939Y-128837849D01*
X246489933Y-128837851D01*
X246296478Y-128917982D01*
X246122381Y-129034310D01*
X246122373Y-129034316D01*
X245974316Y-129182373D01*
X245974310Y-129182381D01*
X245857982Y-129356478D01*
X245777851Y-129549933D01*
X245777849Y-129549939D01*
X245746072Y-129709692D01*
X245713687Y-129771603D01*
X245652971Y-129806177D01*
X245624455Y-129809500D01*
X245330438Y-129809500D01*
X245254010Y-129829978D01*
X245185489Y-129869540D01*
X245185486Y-129869542D01*
X243159541Y-131895487D01*
X243159535Y-131895495D01*
X243119982Y-131964004D01*
X243119979Y-131964009D01*
X243099500Y-132040439D01*
X243099500Y-137074166D01*
X243079815Y-137141205D01*
X243063181Y-137161847D01*
X237191847Y-143033181D01*
X237130524Y-143066666D01*
X237104166Y-143069500D01*
X237064833Y-143069500D01*
X236997794Y-143049815D01*
X236952039Y-142997011D01*
X236942095Y-142927853D01*
X236971120Y-142864297D01*
X236977152Y-142857819D01*
X238223758Y-141611213D01*
X241700460Y-138134511D01*
X241740022Y-138065988D01*
X241760500Y-137989562D01*
X241760500Y-137910438D01*
X241760500Y-132365833D01*
X241780185Y-132298794D01*
X241796819Y-132278152D01*
X243024170Y-131050801D01*
X244260460Y-129814511D01*
X244300022Y-129745988D01*
X244320500Y-129669562D01*
X244320500Y-129590438D01*
X244320500Y-126437747D01*
X245737000Y-126437747D01*
X245737000Y-128202252D01*
X245748631Y-128260729D01*
X245748632Y-128260730D01*
X245792947Y-128327052D01*
X245859269Y-128371367D01*
X245859270Y-128371368D01*
X245917747Y-128382999D01*
X245917750Y-128383000D01*
X245917752Y-128383000D01*
X247682250Y-128383000D01*
X247682251Y-128382999D01*
X247697068Y-128380052D01*
X247740729Y-128371368D01*
X247740729Y-128371367D01*
X247740731Y-128371367D01*
X247807052Y-128327052D01*
X247851367Y-128260731D01*
X247851367Y-128260729D01*
X247851368Y-128260729D01*
X247862999Y-128202252D01*
X247863000Y-128202250D01*
X247863000Y-126437749D01*
X247862999Y-126437747D01*
X247851368Y-126379270D01*
X247851367Y-126379269D01*
X247807052Y-126312947D01*
X247740730Y-126268632D01*
X247740729Y-126268631D01*
X247682252Y-126257000D01*
X247682248Y-126257000D01*
X245917752Y-126257000D01*
X245917747Y-126257000D01*
X245859270Y-126268631D01*
X245859269Y-126268632D01*
X245792947Y-126312947D01*
X245748632Y-126379269D01*
X245748631Y-126379270D01*
X245737000Y-126437747D01*
X244320500Y-126437747D01*
X244320500Y-126135832D01*
X244340185Y-126068793D01*
X244356814Y-126048156D01*
X246170969Y-124234000D01*
X246232290Y-124200517D01*
X246301982Y-124205501D01*
X246306099Y-124207121D01*
X246331918Y-124217816D01*
X246496228Y-124250499D01*
X246496232Y-124250500D01*
X246496233Y-124250500D01*
X246663768Y-124250500D01*
X246663769Y-124250499D01*
X246828082Y-124217816D01*
X246982863Y-124153703D01*
X247122162Y-124060626D01*
X247240626Y-123942162D01*
X247333703Y-123802863D01*
X247397816Y-123648082D01*
X247430500Y-123483767D01*
X247430500Y-123316233D01*
X247397816Y-123151918D01*
X247333703Y-122997137D01*
X247279750Y-122916391D01*
X247240626Y-122857837D01*
X247122162Y-122739373D01*
X246982860Y-122646295D01*
X246828082Y-122582184D01*
X246828074Y-122582182D01*
X246663771Y-122549500D01*
X246663767Y-122549500D01*
X246496233Y-122549500D01*
X246496228Y-122549500D01*
X246331925Y-122582182D01*
X246331917Y-122582184D01*
X246177139Y-122646295D01*
X246037837Y-122739373D01*
X245919373Y-122857837D01*
X245826295Y-122997139D01*
X245762184Y-123151917D01*
X245762182Y-123151925D01*
X245729500Y-123316228D01*
X245729500Y-123483771D01*
X245762182Y-123648074D01*
X245762184Y-123648082D01*
X245772877Y-123673897D01*
X245780346Y-123743365D01*
X245749072Y-123805844D01*
X245745997Y-123809030D01*
X243835489Y-125719540D01*
X243779541Y-125775487D01*
X243779535Y-125775495D01*
X243739982Y-125844004D01*
X243739979Y-125844009D01*
X243726326Y-125894962D01*
X243720719Y-125915891D01*
X243719500Y-125920439D01*
X243719500Y-129454167D01*
X243699815Y-129521206D01*
X243683181Y-129541848D01*
X241219541Y-132005487D01*
X241219535Y-132005495D01*
X241179982Y-132074004D01*
X241179979Y-132074009D01*
X241159500Y-132150439D01*
X241159500Y-137774167D01*
X241139815Y-137841206D01*
X241123181Y-137861848D01*
X235444102Y-143540926D01*
X235382779Y-143574411D01*
X235313087Y-143569427D01*
X235268740Y-143540926D01*
X235227316Y-143499502D01*
X235227314Y-143499500D01*
X235155696Y-143458151D01*
X235113187Y-143433608D01*
X235049539Y-143416554D01*
X234985892Y-143399500D01*
X234854108Y-143399500D01*
X234726812Y-143433608D01*
X234612686Y-143499500D01*
X234612683Y-143499502D01*
X234549005Y-143563181D01*
X234487682Y-143596666D01*
X234461324Y-143599500D01*
X229445833Y-143599500D01*
X229378794Y-143579815D01*
X229358152Y-143563181D01*
X229287152Y-143492181D01*
X229253667Y-143430858D01*
X229258651Y-143361166D01*
X229300523Y-143305233D01*
X229365987Y-143280816D01*
X229374833Y-143280500D01*
X229485890Y-143280500D01*
X229485892Y-143280500D01*
X229613186Y-143246392D01*
X229727314Y-143180500D01*
X229820500Y-143087314D01*
X229886392Y-142973186D01*
X229920500Y-142845892D01*
X229920500Y-142755833D01*
X229940185Y-142688794D01*
X229956852Y-142668119D01*
X229958186Y-142666786D01*
X230019521Y-142633324D01*
X230045834Y-142630500D01*
X233779560Y-142630500D01*
X233779562Y-142630500D01*
X233855989Y-142610021D01*
X233924511Y-142570460D01*
X233980460Y-142514511D01*
X237160460Y-139334511D01*
X237200021Y-139265989D01*
X237220500Y-139189562D01*
X237220500Y-138398676D01*
X237240185Y-138331637D01*
X237256819Y-138310995D01*
X237281423Y-138286391D01*
X237320500Y-138247314D01*
X237386392Y-138133186D01*
X237420500Y-138005892D01*
X237420500Y-137874108D01*
X237386392Y-137746814D01*
X237386389Y-137746809D01*
X237384376Y-137741946D01*
X237376911Y-137672476D01*
X237408190Y-137609999D01*
X237468281Y-137574350D01*
X237498940Y-137570500D01*
X238324167Y-137570500D01*
X238391206Y-137590185D01*
X238411848Y-137606819D01*
X238873181Y-138068152D01*
X238906666Y-138129475D01*
X238909500Y-138155833D01*
X238909500Y-138255892D01*
X238922285Y-138303608D01*
X238943608Y-138383187D01*
X238952551Y-138398676D01*
X239009500Y-138497314D01*
X239102686Y-138590500D01*
X239216814Y-138656392D01*
X239344108Y-138690500D01*
X239344110Y-138690500D01*
X239475890Y-138690500D01*
X239475892Y-138690500D01*
X239603186Y-138656392D01*
X239717314Y-138590500D01*
X239810500Y-138497314D01*
X239876392Y-138383186D01*
X239910500Y-138255892D01*
X239910500Y-138124108D01*
X239876392Y-137996814D01*
X239872204Y-137989561D01*
X239867563Y-137981521D01*
X239810500Y-137882686D01*
X239717314Y-137789500D01*
X239638693Y-137744108D01*
X239603187Y-137723608D01*
X239513444Y-137699562D01*
X239475892Y-137689500D01*
X239475891Y-137689500D01*
X239395833Y-137689500D01*
X239328794Y-137669815D01*
X239308152Y-137653181D01*
X238720830Y-137065859D01*
X238687345Y-137004536D01*
X238692329Y-136934844D01*
X238734201Y-136878911D01*
X238799665Y-136854494D01*
X238867938Y-136869346D01*
X238870457Y-136870760D01*
X238966814Y-136926392D01*
X239094108Y-136960500D01*
X239094110Y-136960500D01*
X239225890Y-136960500D01*
X239225892Y-136960500D01*
X239353186Y-136926392D01*
X239467314Y-136860500D01*
X239560500Y-136767314D01*
X239626392Y-136653186D01*
X239660500Y-136525892D01*
X239660500Y-136394108D01*
X239626392Y-136266814D01*
X239560500Y-136152686D01*
X239467314Y-136059500D01*
X239391104Y-136015500D01*
X239353187Y-135993608D01*
X239258764Y-135968308D01*
X239225892Y-135959500D01*
X239094108Y-135959500D01*
X238966812Y-135993608D01*
X238852686Y-136059500D01*
X238852683Y-136059502D01*
X238809005Y-136103181D01*
X238747682Y-136136666D01*
X238721324Y-136139500D01*
X236374500Y-136139500D01*
X236307461Y-136119815D01*
X236261706Y-136067011D01*
X236250500Y-136015500D01*
X236250500Y-128442536D01*
X239450000Y-128442536D01*
X239450000Y-128694393D01*
X239489397Y-128943134D01*
X239567219Y-129182649D01*
X239681557Y-129407048D01*
X239829590Y-129610796D01*
X239829591Y-129610798D01*
X240007663Y-129788871D01*
X240042224Y-129813980D01*
X240616987Y-128818463D01*
X240649901Y-128875472D01*
X240742993Y-128968564D01*
X240857007Y-129034390D01*
X240984174Y-129068465D01*
X241049998Y-129068465D01*
X240475201Y-130064041D01*
X240675331Y-130129067D01*
X240924072Y-130168465D01*
X241175928Y-130168465D01*
X241424669Y-130129067D01*
X241664184Y-130051245D01*
X241888583Y-129936907D01*
X242092331Y-129788874D01*
X242092333Y-129788873D01*
X242270408Y-129610799D01*
X242295516Y-129576239D01*
X241300000Y-129001476D01*
X241357007Y-128968564D01*
X241450099Y-128875472D01*
X241515925Y-128761458D01*
X241550000Y-128634291D01*
X241550000Y-128568465D01*
X242545576Y-129143262D01*
X242545576Y-129143261D01*
X242610603Y-128943133D01*
X242650000Y-128694393D01*
X242650000Y-128442536D01*
X242610602Y-128193795D01*
X242532780Y-127954280D01*
X242418442Y-127729881D01*
X242270409Y-127526133D01*
X242270409Y-127526132D01*
X242092332Y-127348055D01*
X242057773Y-127322947D01*
X241483011Y-128318463D01*
X241450099Y-128261458D01*
X241357007Y-128168366D01*
X241242993Y-128102540D01*
X241115826Y-128068465D01*
X241049999Y-128068465D01*
X241624797Y-127072887D01*
X241624796Y-127072886D01*
X241424669Y-127007862D01*
X241175928Y-126968465D01*
X240924072Y-126968465D01*
X240675330Y-127007862D01*
X240435815Y-127085684D01*
X240211416Y-127200022D01*
X240007668Y-127348055D01*
X240007667Y-127348055D01*
X239829587Y-127526135D01*
X239804481Y-127560690D01*
X240800000Y-128135452D01*
X240742993Y-128168366D01*
X240649901Y-128261458D01*
X240584075Y-128375472D01*
X240550000Y-128502639D01*
X240550000Y-128568463D01*
X240547163Y-128566826D01*
X239554422Y-127993666D01*
X239554421Y-127993667D01*
X239489397Y-128193793D01*
X239450000Y-128442536D01*
X236250500Y-128442536D01*
X236250500Y-127138676D01*
X236270185Y-127071637D01*
X236286819Y-127050995D01*
X236306819Y-127030995D01*
X236350500Y-126987314D01*
X236416392Y-126873186D01*
X236450500Y-126745892D01*
X236450500Y-126614108D01*
X236416392Y-126486814D01*
X236416212Y-126486503D01*
X236416141Y-126486208D01*
X236413280Y-126479300D01*
X236414356Y-126478854D01*
X236399738Y-126418604D01*
X236422588Y-126352576D01*
X236477508Y-126309384D01*
X236523598Y-126300500D01*
X237216063Y-126300500D01*
X237268750Y-126314618D01*
X237269304Y-126313281D01*
X237276807Y-126316388D01*
X237276814Y-126316392D01*
X237404108Y-126350500D01*
X237404110Y-126350500D01*
X237535890Y-126350500D01*
X237535892Y-126350500D01*
X237663186Y-126316392D01*
X237777314Y-126250500D01*
X237870500Y-126157314D01*
X237936392Y-126043186D01*
X237970500Y-125915892D01*
X237970500Y-125784108D01*
X237936392Y-125656814D01*
X237870500Y-125542686D01*
X237777314Y-125449500D01*
X237690712Y-125399500D01*
X237663187Y-125383608D01*
X237599539Y-125366554D01*
X237535892Y-125349500D01*
X237404108Y-125349500D01*
X237276814Y-125383608D01*
X237269304Y-125386719D01*
X237268750Y-125385381D01*
X237216063Y-125399500D01*
X237178940Y-125399500D01*
X237111901Y-125379815D01*
X237066146Y-125327011D01*
X237056202Y-125257853D01*
X237064376Y-125228054D01*
X237066387Y-125223193D01*
X237066392Y-125223186D01*
X237100500Y-125095892D01*
X237100500Y-124964108D01*
X237066392Y-124836814D01*
X237050334Y-124809000D01*
X237048837Y-124806407D01*
X237032364Y-124738507D01*
X237055216Y-124672480D01*
X237110138Y-124629289D01*
X237124132Y-124624632D01*
X237130223Y-124623000D01*
X237130227Y-124623000D01*
X237232088Y-124595707D01*
X237323413Y-124542980D01*
X237382400Y-124483992D01*
X237437986Y-124451899D01*
X237484156Y-124439528D01*
X237533184Y-124426393D01*
X237533184Y-124426392D01*
X237533186Y-124426392D01*
X237647314Y-124360500D01*
X237740500Y-124267314D01*
X237806392Y-124153186D01*
X237831899Y-124057986D01*
X237863990Y-124002401D01*
X238050480Y-123815913D01*
X238103207Y-123724588D01*
X238130500Y-123622727D01*
X238130500Y-123517273D01*
X238130500Y-119713039D01*
X238147112Y-119651040D01*
X238196392Y-119565686D01*
X238230500Y-119438392D01*
X238230500Y-119306608D01*
X238196392Y-119179314D01*
X238130500Y-119065186D01*
X238037314Y-118972000D01*
X237980250Y-118939054D01*
X237923187Y-118906108D01*
X237859539Y-118889054D01*
X237795892Y-118872000D01*
X237664108Y-118872000D01*
X237536812Y-118906108D01*
X237422686Y-118972000D01*
X237422683Y-118972002D01*
X237329502Y-119065183D01*
X237329500Y-119065186D01*
X237263608Y-119179312D01*
X237254176Y-119214514D01*
X237229500Y-119306608D01*
X237229500Y-119438392D01*
X237263608Y-119565686D01*
X237312887Y-119651040D01*
X237329500Y-119713039D01*
X237329500Y-123349508D01*
X237309815Y-123416547D01*
X237257011Y-123462302D01*
X237237595Y-123469282D01*
X237146815Y-123493607D01*
X237146814Y-123493607D01*
X237032686Y-123559500D01*
X237032683Y-123559502D01*
X236939502Y-123652683D01*
X236939498Y-123652689D01*
X236877542Y-123760000D01*
X236826975Y-123808216D01*
X236770155Y-123822000D01*
X233120540Y-123822000D01*
X233058540Y-123805387D01*
X232973188Y-123756109D01*
X232973187Y-123756108D01*
X232973186Y-123756108D01*
X232845892Y-123722000D01*
X232714108Y-123722000D01*
X232586814Y-123756108D01*
X232586811Y-123756109D01*
X232577720Y-123761358D01*
X232509819Y-123777828D01*
X232443793Y-123754974D01*
X232428042Y-123741650D01*
X231093993Y-122407600D01*
X231061900Y-122352014D01*
X231036392Y-122256814D01*
X230970500Y-122142686D01*
X230877314Y-122049500D01*
X230820250Y-122016554D01*
X230763187Y-121983608D01*
X230699539Y-121966554D01*
X230635892Y-121949500D01*
X230504108Y-121949500D01*
X230376812Y-121983608D01*
X230262686Y-122049500D01*
X230262683Y-122049502D01*
X230169502Y-122142683D01*
X230169500Y-122142686D01*
X230103608Y-122256812D01*
X230069500Y-122384108D01*
X230069500Y-122515891D01*
X230103608Y-122643187D01*
X230105404Y-122646297D01*
X230169500Y-122757314D01*
X230262686Y-122850500D01*
X230376814Y-122916392D01*
X230472014Y-122941900D01*
X230527600Y-122973993D01*
X232017679Y-124464071D01*
X232017689Y-124464082D01*
X232022019Y-124468412D01*
X232022020Y-124468413D01*
X232096587Y-124542980D01*
X232187913Y-124595707D01*
X232289773Y-124623001D01*
X232289775Y-124623001D01*
X232402823Y-124623001D01*
X232402839Y-124623000D01*
X232439460Y-124623000D01*
X232501460Y-124639613D01*
X232586814Y-124688892D01*
X232714108Y-124723000D01*
X232714110Y-124723000D01*
X232845890Y-124723000D01*
X232845892Y-124723000D01*
X232973186Y-124688892D01*
X233058540Y-124639613D01*
X233120540Y-124623000D01*
X233972279Y-124623000D01*
X234039318Y-124642685D01*
X234085073Y-124695489D01*
X234095017Y-124764647D01*
X234079666Y-124809000D01*
X234063609Y-124836810D01*
X234063609Y-124836811D01*
X234029500Y-124964108D01*
X234029500Y-125095891D01*
X234063609Y-125223188D01*
X234065624Y-125228054D01*
X234073089Y-125297524D01*
X234041810Y-125360001D01*
X233981719Y-125395650D01*
X233951060Y-125399500D01*
X227283937Y-125399500D01*
X227231249Y-125385381D01*
X227230696Y-125386719D01*
X227223188Y-125383609D01*
X227223186Y-125383608D01*
X227095892Y-125349500D01*
X226964108Y-125349500D01*
X226836812Y-125383608D01*
X226722686Y-125449500D01*
X226722683Y-125449502D01*
X226629502Y-125542683D01*
X226629500Y-125542686D01*
X226563608Y-125656812D01*
X226546801Y-125719540D01*
X226529500Y-125784108D01*
X226529500Y-125915892D01*
X226546554Y-125979539D01*
X226563608Y-126043187D01*
X226578392Y-126068793D01*
X226629500Y-126157314D01*
X226722686Y-126250500D01*
X226821521Y-126307563D01*
X226831425Y-126313281D01*
X226836814Y-126316392D01*
X226964108Y-126350500D01*
X226964110Y-126350500D01*
X227095890Y-126350500D01*
X227095892Y-126350500D01*
X227223186Y-126316392D01*
X227223194Y-126316387D01*
X227230696Y-126313281D01*
X227231249Y-126314618D01*
X227283937Y-126300500D01*
X233266402Y-126300500D01*
X233333441Y-126320185D01*
X233379196Y-126372989D01*
X233389140Y-126442147D01*
X233376335Y-126479140D01*
X233376720Y-126479300D01*
X233374044Y-126485759D01*
X233373787Y-126486504D01*
X233373608Y-126486812D01*
X233339500Y-126614108D01*
X233339500Y-126745892D01*
X233356554Y-126809539D01*
X233373608Y-126873187D01*
X233397387Y-126914372D01*
X233439500Y-126987314D01*
X233439502Y-126987316D01*
X233483181Y-127030995D01*
X233516666Y-127092318D01*
X233519500Y-127118676D01*
X233519500Y-131121323D01*
X233499815Y-131188362D01*
X233483182Y-131209004D01*
X233399500Y-131292686D01*
X233333608Y-131406812D01*
X233299500Y-131534108D01*
X233299500Y-131665891D01*
X233333608Y-131793187D01*
X233366554Y-131850250D01*
X233399500Y-131907314D01*
X233399502Y-131907316D01*
X233483181Y-131990995D01*
X233516666Y-132052318D01*
X233519500Y-132078676D01*
X233519500Y-137699562D01*
X233529400Y-137736507D01*
X233539979Y-137775990D01*
X233551436Y-137795833D01*
X233576647Y-137839500D01*
X233577632Y-137841206D01*
X233579542Y-137844514D01*
X233579543Y-137844515D01*
X234393181Y-138658152D01*
X234426666Y-138719475D01*
X234429500Y-138745833D01*
X234429500Y-138835891D01*
X234463608Y-138963187D01*
X234496554Y-139020250D01*
X234529500Y-139077314D01*
X234622686Y-139170500D01*
X234736814Y-139236392D01*
X234864108Y-139270500D01*
X234864110Y-139270500D01*
X234995890Y-139270500D01*
X234995892Y-139270500D01*
X235123186Y-139236392D01*
X235237314Y-139170500D01*
X235330500Y-139077314D01*
X235396392Y-138963186D01*
X235430500Y-138835892D01*
X235430500Y-138704108D01*
X235396392Y-138576814D01*
X235344462Y-138486869D01*
X235327990Y-138418972D01*
X235350842Y-138352945D01*
X235405763Y-138309754D01*
X235475316Y-138303112D01*
X235483934Y-138305094D01*
X235504108Y-138310500D01*
X235504110Y-138310500D01*
X235635890Y-138310500D01*
X235635892Y-138310500D01*
X235763186Y-138276392D01*
X235877314Y-138210500D01*
X235970500Y-138117314D01*
X236036392Y-138003186D01*
X236070500Y-137875892D01*
X236070500Y-137785833D01*
X236090185Y-137718794D01*
X236106819Y-137698151D01*
X236151790Y-137653181D01*
X236198153Y-137606818D01*
X236259477Y-137573334D01*
X236285834Y-137570500D01*
X236341060Y-137570500D01*
X236408099Y-137590185D01*
X236453854Y-137642989D01*
X236463798Y-137712147D01*
X236455624Y-137741946D01*
X236453609Y-137746811D01*
X236453608Y-137746813D01*
X236453608Y-137746814D01*
X236419500Y-137874108D01*
X236419500Y-138005892D01*
X236421455Y-138013187D01*
X236453608Y-138133187D01*
X236486554Y-138190250D01*
X236519500Y-138247314D01*
X236519502Y-138247316D01*
X236583181Y-138310995D01*
X236616666Y-138372318D01*
X236619500Y-138398676D01*
X236619500Y-138974167D01*
X236599815Y-139041206D01*
X236583181Y-139061848D01*
X233651848Y-141993181D01*
X233590525Y-142026666D01*
X233564167Y-142029500D01*
X229830438Y-142029500D01*
X229792224Y-142039739D01*
X229754009Y-142049979D01*
X229754004Y-142049982D01*
X229685495Y-142089535D01*
X229685491Y-142089538D01*
X229685489Y-142089540D01*
X229531845Y-142243182D01*
X229470524Y-142276666D01*
X229444166Y-142279500D01*
X229354108Y-142279500D01*
X229226812Y-142313608D01*
X229112686Y-142379500D01*
X229112683Y-142379502D01*
X229019502Y-142472683D01*
X229019500Y-142472686D01*
X228953608Y-142586812D01*
X228919500Y-142714108D01*
X228919500Y-142825167D01*
X228899815Y-142892206D01*
X228847011Y-142937961D01*
X228777853Y-142947905D01*
X228714297Y-142918880D01*
X228707819Y-142912848D01*
X228526819Y-142731848D01*
X228493334Y-142670525D01*
X228490500Y-142644167D01*
X228490500Y-135213598D01*
X228510185Y-135146559D01*
X228562989Y-135100804D01*
X228632147Y-135090860D01*
X228669140Y-135103664D01*
X228669300Y-135103280D01*
X228675759Y-135105955D01*
X228676503Y-135106212D01*
X228676814Y-135106392D01*
X228804108Y-135140500D01*
X228874167Y-135140500D01*
X228941206Y-135160185D01*
X228961848Y-135176819D01*
X231493181Y-137708152D01*
X231526666Y-137769475D01*
X231529500Y-137795833D01*
X231529500Y-137885891D01*
X231563608Y-138013187D01*
X231594093Y-138065988D01*
X231629500Y-138127314D01*
X231722686Y-138220500D01*
X231836814Y-138286392D01*
X231964108Y-138320500D01*
X231964110Y-138320500D01*
X232095890Y-138320500D01*
X232095892Y-138320500D01*
X232223186Y-138286392D01*
X232337314Y-138220500D01*
X232430500Y-138127314D01*
X232496392Y-138013186D01*
X232530500Y-137885892D01*
X232530500Y-137754108D01*
X232496392Y-137626814D01*
X232430500Y-137512686D01*
X232337314Y-137419500D01*
X232280250Y-137386554D01*
X232223187Y-137353608D01*
X232159539Y-137336554D01*
X232095892Y-137319500D01*
X232005833Y-137319500D01*
X231938794Y-137299815D01*
X231918152Y-137283181D01*
X231786824Y-137151853D01*
X231753339Y-137090530D01*
X231758323Y-137020838D01*
X231800195Y-136964905D01*
X231812505Y-136956785D01*
X231840164Y-136940816D01*
X231927314Y-136890500D01*
X232020500Y-136797314D01*
X232086392Y-136683186D01*
X232120500Y-136555892D01*
X232120500Y-136424108D01*
X232086392Y-136296814D01*
X232020500Y-136182686D01*
X231927314Y-136089500D01*
X231840712Y-136039500D01*
X231813187Y-136023608D01*
X231736275Y-136003000D01*
X231685892Y-135989500D01*
X231595833Y-135989500D01*
X231528794Y-135969815D01*
X231508152Y-135953181D01*
X231286819Y-135731848D01*
X231253334Y-135670525D01*
X231250500Y-135644167D01*
X231250500Y-127698676D01*
X231270185Y-127631637D01*
X231286819Y-127610995D01*
X231350500Y-127547314D01*
X231416392Y-127433186D01*
X231450500Y-127305892D01*
X231450500Y-127174108D01*
X231416392Y-127046814D01*
X231350500Y-126932686D01*
X231257314Y-126839500D01*
X231200250Y-126806554D01*
X231143187Y-126773608D01*
X231039747Y-126745892D01*
X231015892Y-126739500D01*
X230884108Y-126739500D01*
X230756812Y-126773608D01*
X230642686Y-126839500D01*
X230642683Y-126839502D01*
X230549502Y-126932683D01*
X230549500Y-126932686D01*
X230483608Y-127046812D01*
X230458994Y-127138676D01*
X230449500Y-127174108D01*
X230449500Y-127305892D01*
X230466554Y-127369539D01*
X230483608Y-127433187D01*
X230516554Y-127490250D01*
X230549500Y-127547314D01*
X230549502Y-127547316D01*
X230613181Y-127610995D01*
X230646666Y-127672318D01*
X230649500Y-127698676D01*
X230649500Y-135715167D01*
X230629815Y-135782206D01*
X230577011Y-135827961D01*
X230507853Y-135837905D01*
X230444297Y-135808880D01*
X230437819Y-135802848D01*
X229406819Y-134771848D01*
X229373334Y-134710525D01*
X229370500Y-134684167D01*
X229370500Y-134574110D01*
X229370500Y-134574108D01*
X229336392Y-134446814D01*
X229330424Y-134436478D01*
X229327563Y-134431521D01*
X229270500Y-134332686D01*
X229177314Y-134239500D01*
X229115873Y-134204027D01*
X229063187Y-134173608D01*
X228999539Y-134156554D01*
X228935892Y-134139500D01*
X228804108Y-134139500D01*
X228676814Y-134173608D01*
X228676813Y-134173608D01*
X228676811Y-134173609D01*
X228676806Y-134173611D01*
X228676493Y-134173792D01*
X228676195Y-134173864D01*
X228669300Y-134176720D01*
X228668854Y-134175644D01*
X228608591Y-134190260D01*
X228542566Y-134167403D01*
X228499379Y-134112479D01*
X228490500Y-134066401D01*
X228490500Y-132130440D01*
X228490499Y-132130435D01*
X228482478Y-132100498D01*
X228470023Y-132054014D01*
X228470022Y-132054013D01*
X228470022Y-132054012D01*
X228430460Y-131985489D01*
X222656819Y-126211848D01*
X222623334Y-126150525D01*
X222620500Y-126124167D01*
X222620500Y-124278957D01*
X222640185Y-124211918D01*
X222692989Y-124166163D01*
X222697026Y-124164404D01*
X222722863Y-124153703D01*
X222862162Y-124060626D01*
X222980626Y-123942162D01*
X223073703Y-123802863D01*
X223137816Y-123648082D01*
X223170500Y-123483767D01*
X223170500Y-123316233D01*
X223137816Y-123151918D01*
X223073703Y-122997137D01*
X223019750Y-122916391D01*
X222980626Y-122857837D01*
X222862162Y-122739373D01*
X222722860Y-122646295D01*
X222568082Y-122582184D01*
X222568074Y-122582182D01*
X222403771Y-122549500D01*
X222403767Y-122549500D01*
X222236233Y-122549500D01*
X222236228Y-122549500D01*
X222071925Y-122582182D01*
X222071917Y-122582184D01*
X221917139Y-122646295D01*
X221777837Y-122739373D01*
X221659373Y-122857837D01*
X221566295Y-122997139D01*
X221502184Y-123151917D01*
X221502182Y-123151925D01*
X221469500Y-123316228D01*
X220200500Y-123316228D01*
X220200500Y-120300873D01*
X230352735Y-120300873D01*
X230352735Y-120432656D01*
X230386843Y-120559952D01*
X230419789Y-120617015D01*
X230452735Y-120674079D01*
X230545921Y-120767265D01*
X230660049Y-120833157D01*
X230787343Y-120867265D01*
X230787345Y-120867265D01*
X230919125Y-120867265D01*
X230919127Y-120867265D01*
X231046421Y-120833157D01*
X231160549Y-120767265D01*
X231253735Y-120674079D01*
X231319627Y-120559951D01*
X231322258Y-120550132D01*
X231354351Y-120494540D01*
X232012399Y-119836492D01*
X232067986Y-119804400D01*
X232163183Y-119778893D01*
X232163183Y-119778892D01*
X232163186Y-119778892D01*
X232277314Y-119713000D01*
X232370500Y-119619814D01*
X232436392Y-119505686D01*
X232470500Y-119378392D01*
X232470500Y-119246608D01*
X232436392Y-119119314D01*
X232370500Y-119005186D01*
X232277314Y-118912000D01*
X232208032Y-118872000D01*
X232163187Y-118846108D01*
X232099539Y-118829054D01*
X232035892Y-118812000D01*
X231904108Y-118812000D01*
X231776812Y-118846108D01*
X231662686Y-118912000D01*
X231662683Y-118912002D01*
X231569502Y-119005183D01*
X231569500Y-119005186D01*
X231503607Y-119119314D01*
X231503607Y-119119315D01*
X231478098Y-119214514D01*
X231446005Y-119270100D01*
X230886161Y-119829946D01*
X230824838Y-119863431D01*
X230798480Y-119866265D01*
X230787343Y-119866265D01*
X230660047Y-119900373D01*
X230545921Y-119966265D01*
X230545918Y-119966267D01*
X230452737Y-120059448D01*
X230452735Y-120059451D01*
X230386843Y-120173577D01*
X230352735Y-120300873D01*
X220200500Y-120300873D01*
X220200500Y-102694000D01*
X220220185Y-102626961D01*
X220272989Y-102581206D01*
X220324500Y-102570000D01*
X223989298Y-102570000D01*
X224056337Y-102589685D01*
G37*
%TD.AperFunction*%
%TD*%
M02*
