%TF.GenerationSoftware,KiCad,Pcbnew,9.0.7*%
%TF.CreationDate,2026-08-08T22:31:38+01:00*%
%TF.ProjectId,sensor_rev1,73656e73-6f72-45f7-9265-76312e6b6963,REV1.0*%
%TF.SameCoordinates,Original*%
%TF.FileFunction,Paste,Top*%
%TF.FilePolarity,Positive*%
%FSLAX46Y46*%
G04 Gerber Fmt 4.6, Leading zero omitted, Abs format (unit mm)*
G04 Created by KiCad (PCBNEW 9.0.7) date 2026-08-08 22:31:38*
%MOMM*%
%LPD*%
G01*
G04 APERTURE LIST*
G04 Aperture macros list*
%AMRoundRect*
0 Rectangle with rounded corners*
0 $1 Rounding radius*
0 $2 $3 $4 $5 $6 $7 $8 $9 X,Y pos of 4 corners*
0 Add a 4 corners polygon primitive as box body*
4,1,4,$2,$3,$4,$5,$6,$7,$8,$9,$2,$3,0*
0 Add four circle primitives for the rounded corners*
1,1,$1+$1,$2,$3*
1,1,$1+$1,$4,$5*
1,1,$1+$1,$6,$7*
1,1,$1+$1,$8,$9*
0 Add four rect primitives between the rounded corners*
20,1,$1+$1,$2,$3,$4,$5,0*
20,1,$1+$1,$4,$5,$6,$7,0*
20,1,$1+$1,$6,$7,$8,$9,0*
20,1,$1+$1,$8,$9,$2,$3,0*%
G04 Aperture macros list end*
%ADD10RoundRect,0.135000X0.135000X0.185000X-0.135000X0.185000X-0.135000X-0.185000X0.135000X-0.185000X0*%
%ADD11RoundRect,0.140000X0.170000X-0.140000X0.170000X0.140000X-0.170000X0.140000X-0.170000X-0.140000X0*%
%ADD12RoundRect,0.140000X0.140000X0.170000X-0.140000X0.170000X-0.140000X-0.170000X0.140000X-0.170000X0*%
%ADD13RoundRect,0.140000X-0.170000X0.140000X-0.170000X-0.140000X0.170000X-0.140000X0.170000X0.140000X0*%
%ADD14RoundRect,0.140000X-0.140000X-0.170000X0.140000X-0.170000X0.140000X0.170000X-0.140000X0.170000X0*%
%ADD15R,1.200000X1.400000*%
%ADD16R,0.650000X0.700000*%
%ADD17RoundRect,0.147500X0.172500X-0.147500X0.172500X0.147500X-0.172500X0.147500X-0.172500X-0.147500X0*%
%ADD18R,0.300000X0.950000*%
%ADD19R,0.950000X0.300000*%
%ADD20R,2.500000X2.500000*%
%ADD21RoundRect,0.147500X-0.147500X-0.172500X0.147500X-0.172500X0.147500X0.172500X-0.147500X0.172500X0*%
G04 APERTURE END LIST*
D10*
%TO.C,R171*%
X231010000Y-120752500D03*
X229990000Y-120752500D03*
%TD*%
D11*
%TO.C,C122*%
X235450000Y-113632500D03*
X235450000Y-112672500D03*
%TD*%
D12*
%TO.C,C5*%
X230980000Y-121902500D03*
X230020000Y-121902500D03*
%TD*%
D13*
%TO.C,C124*%
X237150000Y-113742500D03*
X237150000Y-114702500D03*
%TD*%
D14*
%TO.C,C11*%
X237840000Y-121102500D03*
X238800000Y-121102500D03*
%TD*%
D15*
%TO.C,Y1*%
X243470000Y-122160000D03*
X243470000Y-119960000D03*
X241870000Y-119960000D03*
X241870000Y-122160000D03*
%TD*%
D11*
%TO.C,C125*%
X234550000Y-106452500D03*
X234550000Y-105492500D03*
%TD*%
%TO.C,C81*%
X239500000Y-123462500D03*
X239500000Y-122502500D03*
%TD*%
%TO.C,C10*%
X232900000Y-118082500D03*
X232900000Y-117122500D03*
%TD*%
D12*
%TO.C,C6*%
X231830000Y-118080000D03*
X230870000Y-118080000D03*
%TD*%
D16*
%TO.C,FB1*%
X229870000Y-123530000D03*
X228520000Y-123530000D03*
%TD*%
D12*
%TO.C,C121*%
X235030000Y-115802500D03*
X234070000Y-115802500D03*
%TD*%
D17*
%TO.C,L123*%
X234500000Y-111587500D03*
X234500000Y-110617500D03*
%TD*%
%TO.C,L121*%
X235100000Y-118087500D03*
X235100000Y-117117500D03*
%TD*%
D13*
%TO.C,C101*%
X239500000Y-118652500D03*
X239500000Y-119612500D03*
%TD*%
D12*
%TO.C,C131*%
X234000000Y-114702500D03*
X233040000Y-114702500D03*
%TD*%
%TO.C,C123*%
X235480000Y-109552500D03*
X234520000Y-109552500D03*
%TD*%
D17*
%TO.C,L124*%
X234550000Y-108487500D03*
X234550000Y-107517500D03*
%TD*%
D18*
%TO.C,IC2*%
X233320000Y-123520000D03*
X233820000Y-123520000D03*
X234320000Y-123520000D03*
X234820000Y-123520000D03*
X235320000Y-123520000D03*
D19*
X236220000Y-122620000D03*
X236220000Y-122120000D03*
X236220000Y-121620000D03*
X236220000Y-121120000D03*
X236220000Y-120620000D03*
D18*
X235320000Y-119720000D03*
X234820000Y-119720000D03*
X234320000Y-119720000D03*
X233820000Y-119720000D03*
X233320000Y-119720000D03*
D19*
X232420000Y-120620000D03*
X232420000Y-121120000D03*
X232420000Y-121620000D03*
X232420000Y-122120000D03*
X232420000Y-122620000D03*
D20*
X234320000Y-121620000D03*
%TD*%
D14*
%TO.C,C9*%
X236140000Y-118090000D03*
X237100000Y-118090000D03*
%TD*%
D17*
%TO.C,L131*%
X234000000Y-118087500D03*
X234000000Y-117117500D03*
%TD*%
D13*
%TO.C,C51*%
X236960000Y-124930000D03*
X236960000Y-125890000D03*
%TD*%
D17*
%TO.C,L132*%
X233550000Y-113572500D03*
X233550000Y-112602500D03*
%TD*%
D13*
%TO.C,C7*%
X235810000Y-124930000D03*
X235810000Y-125890000D03*
%TD*%
D21*
%TO.C,L122*%
X235065000Y-114702500D03*
X236035000Y-114702500D03*
%TD*%
M02*
