%TF.GenerationSoftware,KiCad,Pcbnew,10.0.6-10.0.6~ubuntu24.04.1*%
%TF.CreationDate,2026-08-29T11:43:02+01:00*%
%TF.ProjectId,sensor_rev1,73656e73-6f72-45f7-9265-76312e6b6963,REV1.0*%
%TF.SameCoordinates,Original*%
%TF.FileFunction,Legend,Top*%
%TF.FilePolarity,Positive*%
%FSLAX46Y46*%
G04 Gerber Fmt 4.6, Leading zero omitted, Abs format (unit mm)*
G04 Created by KiCad (PCBNEW 10.0.6-10.0.6~ubuntu24.04.1) date 2026-08-29 11:43:02*
%MOMM*%
%LPD*%
G01*
G04 APERTURE LIST*
%ADD10C,0.153000*%
%ADD11C,0.200000*%
%ADD12C,0.100000*%
G04 APERTURE END LIST*
D10*
X222918752Y-124915909D02*
X223252085Y-124915909D01*
X223394942Y-125439719D02*
X222918752Y-125439719D01*
X222918752Y-125439719D02*
X222918752Y-124439719D01*
X222918752Y-124439719D02*
X223394942Y-124439719D01*
X223728276Y-125439719D02*
X224252085Y-124773052D01*
X223728276Y-124773052D02*
X224252085Y-125439719D01*
X224633038Y-125439719D02*
X224633038Y-124773052D01*
X224633038Y-124439719D02*
X224585419Y-124487338D01*
X224585419Y-124487338D02*
X224633038Y-124534957D01*
X224633038Y-124534957D02*
X224680657Y-124487338D01*
X224680657Y-124487338D02*
X224633038Y-124439719D01*
X224633038Y-124439719D02*
X224633038Y-124534957D01*
X224966371Y-124773052D02*
X225347323Y-124773052D01*
X225109228Y-124439719D02*
X225109228Y-125296861D01*
X225109228Y-125296861D02*
X225156847Y-125392100D01*
X225156847Y-125392100D02*
X225252085Y-125439719D01*
X225252085Y-125439719D02*
X225347323Y-125439719D01*
X226966371Y-124487338D02*
X226871133Y-124439719D01*
X226871133Y-124439719D02*
X226728276Y-124439719D01*
X226728276Y-124439719D02*
X226585419Y-124487338D01*
X226585419Y-124487338D02*
X226490181Y-124582576D01*
X226490181Y-124582576D02*
X226442562Y-124677814D01*
X226442562Y-124677814D02*
X226394943Y-124868290D01*
X226394943Y-124868290D02*
X226394943Y-125011147D01*
X226394943Y-125011147D02*
X226442562Y-125201623D01*
X226442562Y-125201623D02*
X226490181Y-125296861D01*
X226490181Y-125296861D02*
X226585419Y-125392100D01*
X226585419Y-125392100D02*
X226728276Y-125439719D01*
X226728276Y-125439719D02*
X226823514Y-125439719D01*
X226823514Y-125439719D02*
X226966371Y-125392100D01*
X226966371Y-125392100D02*
X227013990Y-125344480D01*
X227013990Y-125344480D02*
X227013990Y-125011147D01*
X227013990Y-125011147D02*
X226823514Y-125011147D01*
X227871133Y-124773052D02*
X227871133Y-125439719D01*
X227442562Y-124773052D02*
X227442562Y-125296861D01*
X227442562Y-125296861D02*
X227490181Y-125392100D01*
X227490181Y-125392100D02*
X227585419Y-125439719D01*
X227585419Y-125439719D02*
X227728276Y-125439719D01*
X227728276Y-125439719D02*
X227823514Y-125392100D01*
X227823514Y-125392100D02*
X227871133Y-125344480D01*
X228775895Y-125439719D02*
X228775895Y-124915909D01*
X228775895Y-124915909D02*
X228728276Y-124820671D01*
X228728276Y-124820671D02*
X228633038Y-124773052D01*
X228633038Y-124773052D02*
X228442562Y-124773052D01*
X228442562Y-124773052D02*
X228347324Y-124820671D01*
X228775895Y-125392100D02*
X228680657Y-125439719D01*
X228680657Y-125439719D02*
X228442562Y-125439719D01*
X228442562Y-125439719D02*
X228347324Y-125392100D01*
X228347324Y-125392100D02*
X228299705Y-125296861D01*
X228299705Y-125296861D02*
X228299705Y-125201623D01*
X228299705Y-125201623D02*
X228347324Y-125106385D01*
X228347324Y-125106385D02*
X228442562Y-125058766D01*
X228442562Y-125058766D02*
X228680657Y-125058766D01*
X228680657Y-125058766D02*
X228775895Y-125011147D01*
X229252086Y-125439719D02*
X229252086Y-124773052D01*
X229252086Y-124963528D02*
X229299705Y-124868290D01*
X229299705Y-124868290D02*
X229347324Y-124820671D01*
X229347324Y-124820671D02*
X229442562Y-124773052D01*
X229442562Y-124773052D02*
X229537800Y-124773052D01*
X230299705Y-125439719D02*
X230299705Y-124439719D01*
X230299705Y-125392100D02*
X230204467Y-125439719D01*
X230204467Y-125439719D02*
X230013991Y-125439719D01*
X230013991Y-125439719D02*
X229918753Y-125392100D01*
X229918753Y-125392100D02*
X229871134Y-125344480D01*
X229871134Y-125344480D02*
X229823515Y-125249242D01*
X229823515Y-125249242D02*
X229823515Y-124963528D01*
X229823515Y-124963528D02*
X229871134Y-124868290D01*
X229871134Y-124868290D02*
X229918753Y-124820671D01*
X229918753Y-124820671D02*
X230013991Y-124773052D01*
X230013991Y-124773052D02*
X230204467Y-124773052D01*
X230204467Y-124773052D02*
X230299705Y-124820671D01*
X230775896Y-125439719D02*
X230775896Y-124773052D01*
X230775896Y-124439719D02*
X230728277Y-124487338D01*
X230728277Y-124487338D02*
X230775896Y-124534957D01*
X230775896Y-124534957D02*
X230823515Y-124487338D01*
X230823515Y-124487338D02*
X230775896Y-124439719D01*
X230775896Y-124439719D02*
X230775896Y-124534957D01*
X231680657Y-125439719D02*
X231680657Y-124915909D01*
X231680657Y-124915909D02*
X231633038Y-124820671D01*
X231633038Y-124820671D02*
X231537800Y-124773052D01*
X231537800Y-124773052D02*
X231347324Y-124773052D01*
X231347324Y-124773052D02*
X231252086Y-124820671D01*
X231680657Y-125392100D02*
X231585419Y-125439719D01*
X231585419Y-125439719D02*
X231347324Y-125439719D01*
X231347324Y-125439719D02*
X231252086Y-125392100D01*
X231252086Y-125392100D02*
X231204467Y-125296861D01*
X231204467Y-125296861D02*
X231204467Y-125201623D01*
X231204467Y-125201623D02*
X231252086Y-125106385D01*
X231252086Y-125106385D02*
X231347324Y-125058766D01*
X231347324Y-125058766D02*
X231585419Y-125058766D01*
X231585419Y-125058766D02*
X231680657Y-125011147D01*
X232156848Y-124773052D02*
X232156848Y-125439719D01*
X232156848Y-124868290D02*
X232204467Y-124820671D01*
X232204467Y-124820671D02*
X232299705Y-124773052D01*
X232299705Y-124773052D02*
X232442562Y-124773052D01*
X232442562Y-124773052D02*
X232537800Y-124820671D01*
X232537800Y-124820671D02*
X232585419Y-124915909D01*
X232585419Y-124915909D02*
X232585419Y-125439719D01*
X233823515Y-125058766D02*
X234585420Y-125058766D01*
X235775896Y-125392100D02*
X235918753Y-125439719D01*
X235918753Y-125439719D02*
X236156848Y-125439719D01*
X236156848Y-125439719D02*
X236252086Y-125392100D01*
X236252086Y-125392100D02*
X236299705Y-125344480D01*
X236299705Y-125344480D02*
X236347324Y-125249242D01*
X236347324Y-125249242D02*
X236347324Y-125154004D01*
X236347324Y-125154004D02*
X236299705Y-125058766D01*
X236299705Y-125058766D02*
X236252086Y-125011147D01*
X236252086Y-125011147D02*
X236156848Y-124963528D01*
X236156848Y-124963528D02*
X235966372Y-124915909D01*
X235966372Y-124915909D02*
X235871134Y-124868290D01*
X235871134Y-124868290D02*
X235823515Y-124820671D01*
X235823515Y-124820671D02*
X235775896Y-124725433D01*
X235775896Y-124725433D02*
X235775896Y-124630195D01*
X235775896Y-124630195D02*
X235823515Y-124534957D01*
X235823515Y-124534957D02*
X235871134Y-124487338D01*
X235871134Y-124487338D02*
X235966372Y-124439719D01*
X235966372Y-124439719D02*
X236204467Y-124439719D01*
X236204467Y-124439719D02*
X236347324Y-124487338D01*
X237156848Y-125392100D02*
X237061610Y-125439719D01*
X237061610Y-125439719D02*
X236871134Y-125439719D01*
X236871134Y-125439719D02*
X236775896Y-125392100D01*
X236775896Y-125392100D02*
X236728277Y-125296861D01*
X236728277Y-125296861D02*
X236728277Y-124915909D01*
X236728277Y-124915909D02*
X236775896Y-124820671D01*
X236775896Y-124820671D02*
X236871134Y-124773052D01*
X236871134Y-124773052D02*
X237061610Y-124773052D01*
X237061610Y-124773052D02*
X237156848Y-124820671D01*
X237156848Y-124820671D02*
X237204467Y-124915909D01*
X237204467Y-124915909D02*
X237204467Y-125011147D01*
X237204467Y-125011147D02*
X236728277Y-125106385D01*
X237633039Y-124773052D02*
X237633039Y-125439719D01*
X237633039Y-124868290D02*
X237680658Y-124820671D01*
X237680658Y-124820671D02*
X237775896Y-124773052D01*
X237775896Y-124773052D02*
X237918753Y-124773052D01*
X237918753Y-124773052D02*
X238013991Y-124820671D01*
X238013991Y-124820671D02*
X238061610Y-124915909D01*
X238061610Y-124915909D02*
X238061610Y-125439719D01*
X238490182Y-125392100D02*
X238585420Y-125439719D01*
X238585420Y-125439719D02*
X238775896Y-125439719D01*
X238775896Y-125439719D02*
X238871134Y-125392100D01*
X238871134Y-125392100D02*
X238918753Y-125296861D01*
X238918753Y-125296861D02*
X238918753Y-125249242D01*
X238918753Y-125249242D02*
X238871134Y-125154004D01*
X238871134Y-125154004D02*
X238775896Y-125106385D01*
X238775896Y-125106385D02*
X238633039Y-125106385D01*
X238633039Y-125106385D02*
X238537801Y-125058766D01*
X238537801Y-125058766D02*
X238490182Y-124963528D01*
X238490182Y-124963528D02*
X238490182Y-124915909D01*
X238490182Y-124915909D02*
X238537801Y-124820671D01*
X238537801Y-124820671D02*
X238633039Y-124773052D01*
X238633039Y-124773052D02*
X238775896Y-124773052D01*
X238775896Y-124773052D02*
X238871134Y-124820671D01*
X239490182Y-125439719D02*
X239394944Y-125392100D01*
X239394944Y-125392100D02*
X239347325Y-125344480D01*
X239347325Y-125344480D02*
X239299706Y-125249242D01*
X239299706Y-125249242D02*
X239299706Y-124963528D01*
X239299706Y-124963528D02*
X239347325Y-124868290D01*
X239347325Y-124868290D02*
X239394944Y-124820671D01*
X239394944Y-124820671D02*
X239490182Y-124773052D01*
X239490182Y-124773052D02*
X239633039Y-124773052D01*
X239633039Y-124773052D02*
X239728277Y-124820671D01*
X239728277Y-124820671D02*
X239775896Y-124868290D01*
X239775896Y-124868290D02*
X239823515Y-124963528D01*
X239823515Y-124963528D02*
X239823515Y-125249242D01*
X239823515Y-125249242D02*
X239775896Y-125344480D01*
X239775896Y-125344480D02*
X239728277Y-125392100D01*
X239728277Y-125392100D02*
X239633039Y-125439719D01*
X239633039Y-125439719D02*
X239490182Y-125439719D01*
X240252087Y-125439719D02*
X240252087Y-124773052D01*
X240252087Y-124963528D02*
X240299706Y-124868290D01*
X240299706Y-124868290D02*
X240347325Y-124820671D01*
X240347325Y-124820671D02*
X240442563Y-124773052D01*
X240442563Y-124773052D02*
X240537801Y-124773052D01*
X242204468Y-125439719D02*
X241871135Y-124963528D01*
X241633040Y-125439719D02*
X241633040Y-124439719D01*
X241633040Y-124439719D02*
X242013992Y-124439719D01*
X242013992Y-124439719D02*
X242109230Y-124487338D01*
X242109230Y-124487338D02*
X242156849Y-124534957D01*
X242156849Y-124534957D02*
X242204468Y-124630195D01*
X242204468Y-124630195D02*
X242204468Y-124773052D01*
X242204468Y-124773052D02*
X242156849Y-124868290D01*
X242156849Y-124868290D02*
X242109230Y-124915909D01*
X242109230Y-124915909D02*
X242013992Y-124963528D01*
X242013992Y-124963528D02*
X241633040Y-124963528D01*
X242633040Y-124915909D02*
X242966373Y-124915909D01*
X243109230Y-125439719D02*
X242633040Y-125439719D01*
X242633040Y-125439719D02*
X242633040Y-124439719D01*
X242633040Y-124439719D02*
X243109230Y-124439719D01*
X243394945Y-124439719D02*
X243728278Y-125439719D01*
X243728278Y-125439719D02*
X244061611Y-124439719D01*
X244918754Y-125439719D02*
X244347326Y-125439719D01*
X244633040Y-125439719D02*
X244633040Y-124439719D01*
X244633040Y-124439719D02*
X244537802Y-124582576D01*
X244537802Y-124582576D02*
X244442564Y-124677814D01*
X244442564Y-124677814D02*
X244347326Y-124725433D01*
X245347326Y-125344480D02*
X245394945Y-125392100D01*
X245394945Y-125392100D02*
X245347326Y-125439719D01*
X245347326Y-125439719D02*
X245299707Y-125392100D01*
X245299707Y-125392100D02*
X245347326Y-125344480D01*
X245347326Y-125344480D02*
X245347326Y-125439719D01*
X246013992Y-124439719D02*
X246109230Y-124439719D01*
X246109230Y-124439719D02*
X246204468Y-124487338D01*
X246204468Y-124487338D02*
X246252087Y-124534957D01*
X246252087Y-124534957D02*
X246299706Y-124630195D01*
X246299706Y-124630195D02*
X246347325Y-124820671D01*
X246347325Y-124820671D02*
X246347325Y-125058766D01*
X246347325Y-125058766D02*
X246299706Y-125249242D01*
X246299706Y-125249242D02*
X246252087Y-125344480D01*
X246252087Y-125344480D02*
X246204468Y-125392100D01*
X246204468Y-125392100D02*
X246109230Y-125439719D01*
X246109230Y-125439719D02*
X246013992Y-125439719D01*
X246013992Y-125439719D02*
X245918754Y-125392100D01*
X245918754Y-125392100D02*
X245871135Y-125344480D01*
X245871135Y-125344480D02*
X245823516Y-125249242D01*
X245823516Y-125249242D02*
X245775897Y-125058766D01*
X245775897Y-125058766D02*
X245775897Y-124820671D01*
X245775897Y-124820671D02*
X245823516Y-124630195D01*
X245823516Y-124630195D02*
X245871135Y-124534957D01*
X245871135Y-124534957D02*
X245918754Y-124487338D01*
X245918754Y-124487338D02*
X246013992Y-124439719D01*
X222918752Y-127049663D02*
X222918752Y-126049663D01*
X222918752Y-126049663D02*
X223490180Y-127049663D01*
X223490180Y-127049663D02*
X223490180Y-126049663D01*
X223966371Y-127049663D02*
X223966371Y-126049663D01*
X223966371Y-126049663D02*
X224347323Y-126049663D01*
X224347323Y-126049663D02*
X224442561Y-126097282D01*
X224442561Y-126097282D02*
X224490180Y-126144901D01*
X224490180Y-126144901D02*
X224537799Y-126240139D01*
X224537799Y-126240139D02*
X224537799Y-126382996D01*
X224537799Y-126382996D02*
X224490180Y-126478234D01*
X224490180Y-126478234D02*
X224442561Y-126525853D01*
X224442561Y-126525853D02*
X224347323Y-126573472D01*
X224347323Y-126573472D02*
X223966371Y-126573472D01*
X224871133Y-126049663D02*
X225537799Y-127049663D01*
X225537799Y-126049663D02*
X224871133Y-127049663D01*
X226347323Y-126382996D02*
X226347323Y-127049663D01*
X226109228Y-126002044D02*
X225871133Y-126716329D01*
X225871133Y-126716329D02*
X226490180Y-126716329D01*
X226871133Y-126049663D02*
X226871133Y-126859186D01*
X226871133Y-126859186D02*
X226918752Y-126954424D01*
X226918752Y-126954424D02*
X226966371Y-127002044D01*
X226966371Y-127002044D02*
X227061609Y-127049663D01*
X227061609Y-127049663D02*
X227252085Y-127049663D01*
X227252085Y-127049663D02*
X227347323Y-127002044D01*
X227347323Y-127002044D02*
X227394942Y-126954424D01*
X227394942Y-126954424D02*
X227442561Y-126859186D01*
X227442561Y-126859186D02*
X227442561Y-126049663D01*
X228633038Y-126144901D02*
X228680657Y-126097282D01*
X228680657Y-126097282D02*
X228775895Y-126049663D01*
X228775895Y-126049663D02*
X229013990Y-126049663D01*
X229013990Y-126049663D02*
X229109228Y-126097282D01*
X229109228Y-126097282D02*
X229156847Y-126144901D01*
X229156847Y-126144901D02*
X229204466Y-126240139D01*
X229204466Y-126240139D02*
X229204466Y-126335377D01*
X229204466Y-126335377D02*
X229156847Y-126478234D01*
X229156847Y-126478234D02*
X228585419Y-127049663D01*
X228585419Y-127049663D02*
X229204466Y-127049663D01*
X229823514Y-126049663D02*
X229918752Y-126049663D01*
X229918752Y-126049663D02*
X230013990Y-126097282D01*
X230013990Y-126097282D02*
X230061609Y-126144901D01*
X230061609Y-126144901D02*
X230109228Y-126240139D01*
X230109228Y-126240139D02*
X230156847Y-126430615D01*
X230156847Y-126430615D02*
X230156847Y-126668710D01*
X230156847Y-126668710D02*
X230109228Y-126859186D01*
X230109228Y-126859186D02*
X230061609Y-126954424D01*
X230061609Y-126954424D02*
X230013990Y-127002044D01*
X230013990Y-127002044D02*
X229918752Y-127049663D01*
X229918752Y-127049663D02*
X229823514Y-127049663D01*
X229823514Y-127049663D02*
X229728276Y-127002044D01*
X229728276Y-127002044D02*
X229680657Y-126954424D01*
X229680657Y-126954424D02*
X229633038Y-126859186D01*
X229633038Y-126859186D02*
X229585419Y-126668710D01*
X229585419Y-126668710D02*
X229585419Y-126430615D01*
X229585419Y-126430615D02*
X229633038Y-126240139D01*
X229633038Y-126240139D02*
X229680657Y-126144901D01*
X229680657Y-126144901D02*
X229728276Y-126097282D01*
X229728276Y-126097282D02*
X229823514Y-126049663D01*
X230537800Y-126144901D02*
X230585419Y-126097282D01*
X230585419Y-126097282D02*
X230680657Y-126049663D01*
X230680657Y-126049663D02*
X230918752Y-126049663D01*
X230918752Y-126049663D02*
X231013990Y-126097282D01*
X231013990Y-126097282D02*
X231061609Y-126144901D01*
X231061609Y-126144901D02*
X231109228Y-126240139D01*
X231109228Y-126240139D02*
X231109228Y-126335377D01*
X231109228Y-126335377D02*
X231061609Y-126478234D01*
X231061609Y-126478234D02*
X230490181Y-127049663D01*
X230490181Y-127049663D02*
X231109228Y-127049663D01*
X231966371Y-126049663D02*
X231775895Y-126049663D01*
X231775895Y-126049663D02*
X231680657Y-126097282D01*
X231680657Y-126097282D02*
X231633038Y-126144901D01*
X231633038Y-126144901D02*
X231537800Y-126287758D01*
X231537800Y-126287758D02*
X231490181Y-126478234D01*
X231490181Y-126478234D02*
X231490181Y-126859186D01*
X231490181Y-126859186D02*
X231537800Y-126954424D01*
X231537800Y-126954424D02*
X231585419Y-127002044D01*
X231585419Y-127002044D02*
X231680657Y-127049663D01*
X231680657Y-127049663D02*
X231871133Y-127049663D01*
X231871133Y-127049663D02*
X231966371Y-127002044D01*
X231966371Y-127002044D02*
X232013990Y-126954424D01*
X232013990Y-126954424D02*
X232061609Y-126859186D01*
X232061609Y-126859186D02*
X232061609Y-126621091D01*
X232061609Y-126621091D02*
X232013990Y-126525853D01*
X232013990Y-126525853D02*
X231966371Y-126478234D01*
X231966371Y-126478234D02*
X231871133Y-126430615D01*
X231871133Y-126430615D02*
X231680657Y-126430615D01*
X231680657Y-126430615D02*
X231585419Y-126478234D01*
X231585419Y-126478234D02*
X231537800Y-126525853D01*
X231537800Y-126525853D02*
X231490181Y-126621091D01*
X246987044Y-112461904D02*
X247034663Y-112319047D01*
X247034663Y-112319047D02*
X247034663Y-112080952D01*
X247034663Y-112080952D02*
X246987044Y-111985714D01*
X246987044Y-111985714D02*
X246939424Y-111938095D01*
X246939424Y-111938095D02*
X246844186Y-111890476D01*
X246844186Y-111890476D02*
X246748948Y-111890476D01*
X246748948Y-111890476D02*
X246653710Y-111938095D01*
X246653710Y-111938095D02*
X246606091Y-111985714D01*
X246606091Y-111985714D02*
X246558472Y-112080952D01*
X246558472Y-112080952D02*
X246510853Y-112271428D01*
X246510853Y-112271428D02*
X246463234Y-112366666D01*
X246463234Y-112366666D02*
X246415615Y-112414285D01*
X246415615Y-112414285D02*
X246320377Y-112461904D01*
X246320377Y-112461904D02*
X246225139Y-112461904D01*
X246225139Y-112461904D02*
X246129901Y-112414285D01*
X246129901Y-112414285D02*
X246082282Y-112366666D01*
X246082282Y-112366666D02*
X246034663Y-112271428D01*
X246034663Y-112271428D02*
X246034663Y-112033333D01*
X246034663Y-112033333D02*
X246082282Y-111890476D01*
X247034663Y-110938095D02*
X247034663Y-111509523D01*
X247034663Y-111223809D02*
X246034663Y-111223809D01*
X246034663Y-111223809D02*
X246177520Y-111319047D01*
X246177520Y-111319047D02*
X246272758Y-111414285D01*
X246272758Y-111414285D02*
X246320377Y-111509523D01*
X221160476Y-146684663D02*
X221160476Y-145684663D01*
X221160476Y-145684663D02*
X221493809Y-146398948D01*
X221493809Y-146398948D02*
X221827142Y-145684663D01*
X221827142Y-145684663D02*
X221827142Y-146684663D01*
X222779523Y-145684663D02*
X222303333Y-145684663D01*
X222303333Y-145684663D02*
X222255714Y-146160853D01*
X222255714Y-146160853D02*
X222303333Y-146113234D01*
X222303333Y-146113234D02*
X222398571Y-146065615D01*
X222398571Y-146065615D02*
X222636666Y-146065615D01*
X222636666Y-146065615D02*
X222731904Y-146113234D01*
X222731904Y-146113234D02*
X222779523Y-146160853D01*
X222779523Y-146160853D02*
X222827142Y-146256091D01*
X222827142Y-146256091D02*
X222827142Y-146494186D01*
X222827142Y-146494186D02*
X222779523Y-146589424D01*
X222779523Y-146589424D02*
X222731904Y-146637044D01*
X222731904Y-146637044D02*
X222636666Y-146684663D01*
X222636666Y-146684663D02*
X222398571Y-146684663D01*
X222398571Y-146684663D02*
X222303333Y-146637044D01*
X222303333Y-146637044D02*
X222255714Y-146589424D01*
X222727044Y-112461904D02*
X222774663Y-112319047D01*
X222774663Y-112319047D02*
X222774663Y-112080952D01*
X222774663Y-112080952D02*
X222727044Y-111985714D01*
X222727044Y-111985714D02*
X222679424Y-111938095D01*
X222679424Y-111938095D02*
X222584186Y-111890476D01*
X222584186Y-111890476D02*
X222488948Y-111890476D01*
X222488948Y-111890476D02*
X222393710Y-111938095D01*
X222393710Y-111938095D02*
X222346091Y-111985714D01*
X222346091Y-111985714D02*
X222298472Y-112080952D01*
X222298472Y-112080952D02*
X222250853Y-112271428D01*
X222250853Y-112271428D02*
X222203234Y-112366666D01*
X222203234Y-112366666D02*
X222155615Y-112414285D01*
X222155615Y-112414285D02*
X222060377Y-112461904D01*
X222060377Y-112461904D02*
X221965139Y-112461904D01*
X221965139Y-112461904D02*
X221869901Y-112414285D01*
X221869901Y-112414285D02*
X221822282Y-112366666D01*
X221822282Y-112366666D02*
X221774663Y-112271428D01*
X221774663Y-112271428D02*
X221774663Y-112033333D01*
X221774663Y-112033333D02*
X221822282Y-111890476D01*
X221774663Y-111557142D02*
X221774663Y-110938095D01*
X221774663Y-110938095D02*
X222155615Y-111271428D01*
X222155615Y-111271428D02*
X222155615Y-111128571D01*
X222155615Y-111128571D02*
X222203234Y-111033333D01*
X222203234Y-111033333D02*
X222250853Y-110985714D01*
X222250853Y-110985714D02*
X222346091Y-110938095D01*
X222346091Y-110938095D02*
X222584186Y-110938095D01*
X222584186Y-110938095D02*
X222679424Y-110985714D01*
X222679424Y-110985714D02*
X222727044Y-111033333D01*
X222727044Y-111033333D02*
X222774663Y-111128571D01*
X222774663Y-111128571D02*
X222774663Y-111414285D01*
X222774663Y-111414285D02*
X222727044Y-111509523D01*
X222727044Y-111509523D02*
X222679424Y-111557142D01*
X221240476Y-94204663D02*
X221240476Y-93204663D01*
X221240476Y-93204663D02*
X221573809Y-93918948D01*
X221573809Y-93918948D02*
X221907142Y-93204663D01*
X221907142Y-93204663D02*
X221907142Y-94204663D01*
X222907142Y-94204663D02*
X222335714Y-94204663D01*
X222621428Y-94204663D02*
X222621428Y-93204663D01*
X222621428Y-93204663D02*
X222526190Y-93347520D01*
X222526190Y-93347520D02*
X222430952Y-93442758D01*
X222430952Y-93442758D02*
X222335714Y-93490377D01*
X227502069Y-136895875D02*
X227614737Y-136795967D01*
X227614737Y-136795967D02*
X227679785Y-136778537D01*
X227679785Y-136778537D02*
X227786074Y-136784916D01*
X227786074Y-136784916D02*
X227909791Y-136856345D01*
X227909791Y-136856345D02*
X227968461Y-136945203D01*
X227968461Y-136945203D02*
X227985890Y-137010252D01*
X227985890Y-137010252D02*
X227979511Y-137116540D01*
X227979511Y-137116540D02*
X227789034Y-137446455D01*
X227789034Y-137446455D02*
X226923009Y-136946455D01*
X226923009Y-136946455D02*
X227089676Y-136657780D01*
X227089676Y-136657780D02*
X227178534Y-136599111D01*
X227178534Y-136599111D02*
X227243583Y-136581681D01*
X227243583Y-136581681D02*
X227349871Y-136588061D01*
X227349871Y-136588061D02*
X227432350Y-136635680D01*
X227432350Y-136635680D02*
X227491019Y-136724538D01*
X227491019Y-136724538D02*
X227508448Y-136789587D01*
X227508448Y-136789587D02*
X227502069Y-136895875D01*
X227502069Y-136895875D02*
X227335402Y-137184550D01*
X227351580Y-136204147D02*
X227637295Y-135709276D01*
X228360463Y-136456711D02*
X227494438Y-135956711D01*
X228931892Y-135466968D02*
X228646177Y-135961840D01*
X228789034Y-135714404D02*
X227923009Y-135214404D01*
X227923009Y-135214404D02*
X227999108Y-135368311D01*
X227999108Y-135368311D02*
X228033968Y-135498409D01*
X228033968Y-135498409D02*
X228027588Y-135604697D01*
X246040476Y-146644663D02*
X246040476Y-145644663D01*
X246040476Y-145644663D02*
X246373809Y-146358948D01*
X246373809Y-146358948D02*
X246707142Y-145644663D01*
X246707142Y-145644663D02*
X246707142Y-146644663D01*
X247611904Y-145644663D02*
X247421428Y-145644663D01*
X247421428Y-145644663D02*
X247326190Y-145692282D01*
X247326190Y-145692282D02*
X247278571Y-145739901D01*
X247278571Y-145739901D02*
X247183333Y-145882758D01*
X247183333Y-145882758D02*
X247135714Y-146073234D01*
X247135714Y-146073234D02*
X247135714Y-146454186D01*
X247135714Y-146454186D02*
X247183333Y-146549424D01*
X247183333Y-146549424D02*
X247230952Y-146597044D01*
X247230952Y-146597044D02*
X247326190Y-146644663D01*
X247326190Y-146644663D02*
X247516666Y-146644663D01*
X247516666Y-146644663D02*
X247611904Y-146597044D01*
X247611904Y-146597044D02*
X247659523Y-146549424D01*
X247659523Y-146549424D02*
X247707142Y-146454186D01*
X247707142Y-146454186D02*
X247707142Y-146216091D01*
X247707142Y-146216091D02*
X247659523Y-146120853D01*
X247659523Y-146120853D02*
X247611904Y-146073234D01*
X247611904Y-146073234D02*
X247516666Y-146025615D01*
X247516666Y-146025615D02*
X247326190Y-146025615D01*
X247326190Y-146025615D02*
X247230952Y-146073234D01*
X247230952Y-146073234D02*
X247183333Y-146120853D01*
X247183333Y-146120853D02*
X247135714Y-146216091D01*
X246090476Y-94264663D02*
X246090476Y-93264663D01*
X246090476Y-93264663D02*
X246423809Y-93978948D01*
X246423809Y-93978948D02*
X246757142Y-93264663D01*
X246757142Y-93264663D02*
X246757142Y-94264663D01*
X247185714Y-93359901D02*
X247233333Y-93312282D01*
X247233333Y-93312282D02*
X247328571Y-93264663D01*
X247328571Y-93264663D02*
X247566666Y-93264663D01*
X247566666Y-93264663D02*
X247661904Y-93312282D01*
X247661904Y-93312282D02*
X247709523Y-93359901D01*
X247709523Y-93359901D02*
X247757142Y-93455139D01*
X247757142Y-93455139D02*
X247757142Y-93550377D01*
X247757142Y-93550377D02*
X247709523Y-93693234D01*
X247709523Y-93693234D02*
X247138095Y-94264663D01*
X247138095Y-94264663D02*
X247757142Y-94264663D01*
%TO.C,S1*%
D11*
X245430000Y-104600000D02*
X247730000Y-104600000D01*
X245430000Y-118800000D02*
X245430000Y-104600000D01*
D12*
X246580000Y-98800000D02*
X246580000Y-98800000D01*
X246580000Y-98900000D02*
X246580000Y-98900000D01*
D11*
X246580000Y-101200000D02*
X246580000Y-104600000D01*
X246580000Y-118800000D02*
X246580000Y-122200000D01*
X247730000Y-104600000D02*
X247730000Y-118800000D01*
X247730000Y-118800000D02*
X245430000Y-118800000D01*
D12*
X246580000Y-98800000D02*
G75*
G02*
X246580000Y-98900000I0J-50000D01*
G01*
X246580000Y-98900000D02*
G75*
G02*
X246580000Y-98800000I0J50000D01*
G01*
%TO.C,S3*%
D11*
X221170000Y-104600000D02*
X223470000Y-104600000D01*
X221170000Y-118800000D02*
X221170000Y-104600000D01*
D12*
X222320000Y-98800000D02*
X222320000Y-98800000D01*
X222320000Y-98900000D02*
X222320000Y-98900000D01*
D11*
X222320000Y-101200000D02*
X222320000Y-104600000D01*
X222320000Y-118800000D02*
X222320000Y-122200000D01*
X223470000Y-104600000D02*
X223470000Y-118800000D01*
X223470000Y-118800000D02*
X221170000Y-118800000D01*
D12*
X222320000Y-98800000D02*
G75*
G02*
X222320000Y-98900000I0J-50000D01*
G01*
X222320000Y-98900000D02*
G75*
G02*
X222320000Y-98800000I0J50000D01*
G01*
%TO.C,BT1*%
X220356029Y-135211474D02*
X223256029Y-130188526D01*
X221179234Y-134185641D02*
X222779234Y-131414359D01*
X223256029Y-130188526D02*
X240997372Y-126459619D01*
X224643336Y-136185641D02*
X223690708Y-135635641D01*
X225290708Y-132864359D02*
X226243336Y-133414359D01*
X225624425Y-141486345D02*
X224643336Y-136185641D01*
X225997372Y-152440381D02*
X220356029Y-135211474D01*
X226243336Y-133414359D02*
X224643336Y-136185641D01*
X227902628Y-153540381D02*
X225997372Y-152440381D01*
X231374425Y-131527053D02*
X226243336Y-133414359D01*
X240997372Y-126459619D02*
X242902628Y-127559619D01*
X241976279Y-148964102D02*
X227902628Y-153540381D01*
X242902628Y-127559619D02*
X245976279Y-142035898D01*
X245976279Y-142035898D02*
X241976279Y-148964102D01*
X244450000Y-140000000D02*
G75*
G02*
X224450000Y-140000000I-10000000J0D01*
G01*
X224450000Y-140000000D02*
G75*
G02*
X244450000Y-140000000I10000000J0D01*
G01*
%TD*%
M02*
