%TF.GenerationSoftware,KiCad,Pcbnew,9.0.7*%
%TF.CreationDate,2026-08-29T00:16:22+01:00*%
%TF.ProjectId,sensor_rev1,73656e73-6f72-45f7-9265-76312e6b6963,REV1.0*%
%TF.SameCoordinates,Original*%
%TF.FileFunction,Soldermask,Bot*%
%TF.FilePolarity,Negative*%
%FSLAX46Y46*%
G04 Gerber Fmt 4.6, Leading zero omitted, Abs format (unit mm)*
G04 Created by KiCad (PCBNEW 9.0.7) date 2026-08-29 00:16:22*
%MOMM*%
%LPD*%
G01*
G04 APERTURE LIST*
G04 Aperture macros list*
%AMRoundRect*
0 Rectangle with rounded corners*
0 $1 Rounding radius*
0 $2 $3 $4 $5 $6 $7 $8 $9 X,Y pos of 4 corners*
0 Add a 4 corners polygon primitive as box body*
4,1,4,$2,$3,$4,$5,$6,$7,$8,$9,$2,$3,0*
0 Add four circle primitives for the rounded corners*
1,1,$1+$1,$2,$3*
1,1,$1+$1,$4,$5*
1,1,$1+$1,$6,$7*
1,1,$1+$1,$8,$9*
0 Add four rect primitives between the rounded corners*
20,1,$1+$1,$2,$3,$4,$5,0*
20,1,$1+$1,$4,$5,$6,$7,0*
20,1,$1+$1,$6,$7,$8,$9,0*
20,1,$1+$1,$8,$9,$2,$3,0*%
G04 Aperture macros list end*
%ADD10R,1.300000X1.300000*%
%ADD11C,1.300000*%
%ADD12C,1.700000*%
%ADD13C,2.200000*%
%ADD14R,1.050000X0.650000*%
%ADD15RoundRect,0.135000X-0.135000X-0.185000X0.135000X-0.185000X0.135000X0.185000X-0.135000X0.185000X0*%
%ADD16C,2.000000*%
%ADD17RoundRect,0.140000X0.170000X-0.140000X0.170000X0.140000X-0.170000X0.140000X-0.170000X-0.140000X0*%
%ADD18RoundRect,0.140000X-0.140000X-0.170000X0.140000X-0.170000X0.140000X0.170000X-0.140000X0.170000X0*%
%ADD19RoundRect,0.140000X-0.170000X0.140000X-0.170000X-0.140000X0.170000X-0.140000X0.170000X0.140000X0*%
%ADD20RoundRect,0.140000X0.140000X0.170000X-0.140000X0.170000X-0.140000X-0.170000X0.140000X-0.170000X0*%
%ADD21R,1.200000X1.400000*%
%ADD22RoundRect,0.225000X0.225000X0.250000X-0.225000X0.250000X-0.225000X-0.250000X0.225000X-0.250000X0*%
%ADD23C,1.000000*%
%ADD24RoundRect,0.225000X0.250000X-0.225000X0.250000X0.225000X-0.250000X0.225000X-0.250000X-0.225000X0*%
%ADD25R,1.050000X1.600000*%
%ADD26R,0.700000X0.650000*%
%ADD27RoundRect,0.147500X0.172500X-0.147500X0.172500X0.147500X-0.172500X0.147500X-0.172500X-0.147500X0*%
%ADD28R,1.725000X1.725000*%
%ADD29C,1.725000*%
%ADD30R,1.480000X2.590000*%
%ADD31R,0.300000X0.950000*%
%ADD32R,0.950000X0.300000*%
%ADD33R,2.500000X2.500000*%
%ADD34RoundRect,0.200000X0.200000X0.275000X-0.200000X0.275000X-0.200000X-0.275000X0.200000X-0.275000X0*%
%ADD35RoundRect,0.200000X0.275000X-0.200000X0.275000X0.200000X-0.275000X0.200000X-0.275000X-0.200000X0*%
%ADD36RoundRect,0.147500X0.147500X0.172500X-0.147500X0.172500X-0.147500X-0.172500X0.147500X-0.172500X0*%
%ADD37R,0.450000X1.475000*%
G04 APERTURE END LIST*
D10*
%TO.C,S1*%
X246580000Y-100000000D03*
D11*
X246580000Y-123400000D03*
%TD*%
D12*
%TO.C,M5*%
X222000000Y-148000000D03*
%TD*%
D10*
%TO.C,S3*%
X222320000Y-100000000D03*
D11*
X222320000Y-123400000D03*
%TD*%
D12*
%TO.C,M1*%
X222000000Y-92000000D03*
%TD*%
D13*
%TO.C,BT1*%
X227850000Y-151431535D03*
X241050000Y-128568465D03*
X222391670Y-134885641D03*
X223991670Y-132114359D03*
%TD*%
D12*
%TO.C,M6*%
X246900000Y-148000000D03*
%TD*%
%TO.C,M2*%
X246900000Y-92000000D03*
%TD*%
D14*
%TO.C,S2*%
X236480000Y-132690000D03*
X232330000Y-132690000D03*
X236480000Y-134840000D03*
X232330000Y-134840000D03*
%TD*%
D15*
%TO.C,R171*%
X238010000Y-120885000D03*
X239030000Y-120885000D03*
%TD*%
D16*
%TO.C,FID4*%
X246900000Y-97000000D03*
%TD*%
D17*
%TO.C,C122*%
X233570000Y-113765000D03*
X233570000Y-112805000D03*
%TD*%
D18*
%TO.C,C5*%
X238040000Y-122035000D03*
X239000000Y-122035000D03*
%TD*%
D19*
%TO.C,C124*%
X231870000Y-113875000D03*
X231870000Y-114835000D03*
%TD*%
D20*
%TO.C,C11*%
X231180000Y-121235000D03*
X230220000Y-121235000D03*
%TD*%
D21*
%TO.C,Y1*%
X225550000Y-122292500D03*
X225550000Y-120092500D03*
X227150000Y-120092500D03*
X227150000Y-122292500D03*
%TD*%
D17*
%TO.C,C125*%
X234470000Y-106585000D03*
X234470000Y-105625000D03*
%TD*%
%TO.C,C81*%
X229520000Y-123595000D03*
X229520000Y-122635000D03*
%TD*%
%TO.C,C10*%
X236120000Y-118215000D03*
X236120000Y-117255000D03*
%TD*%
D22*
%TO.C,C2*%
X235645000Y-148650000D03*
X234095000Y-148650000D03*
%TD*%
D18*
%TO.C,C6*%
X237190000Y-118212500D03*
X238150000Y-118212500D03*
%TD*%
D23*
%TO.C,MOSI1*%
X228810000Y-132190000D03*
%TD*%
D24*
%TO.C,C4*%
X239290000Y-144105000D03*
X239290000Y-142555000D03*
%TD*%
D25*
%TO.C,C1*%
X229140000Y-128730000D03*
X226190000Y-128730000D03*
%TD*%
D26*
%TO.C,FB1*%
X238730000Y-123805000D03*
X238730000Y-125155000D03*
%TD*%
D18*
%TO.C,C121*%
X233990000Y-115935000D03*
X234950000Y-115935000D03*
%TD*%
D27*
%TO.C,L123*%
X234520000Y-111720000D03*
X234520000Y-110750000D03*
%TD*%
D28*
%TO.C,J1*%
X246800000Y-127320000D03*
D29*
X246800000Y-129860000D03*
X246800000Y-132400000D03*
X246800000Y-134940000D03*
%TD*%
D27*
%TO.C,L121*%
X233920000Y-118220000D03*
X233920000Y-117250000D03*
%TD*%
D30*
%TO.C,D1*%
X232880000Y-129070000D03*
X235930000Y-129070000D03*
%TD*%
D23*
%TO.C,CS1*%
X226600000Y-134610000D03*
%TD*%
D19*
%TO.C,C101*%
X229520000Y-118785000D03*
X229520000Y-119745000D03*
%TD*%
D18*
%TO.C,C131*%
X235020000Y-114835000D03*
X235980000Y-114835000D03*
%TD*%
%TO.C,C123*%
X233540000Y-109685000D03*
X234500000Y-109685000D03*
%TD*%
D28*
%TO.C,J2*%
X237550000Y-152680000D03*
D29*
X240090000Y-152680000D03*
X242630000Y-152680000D03*
%TD*%
D27*
%TO.C,L124*%
X234470000Y-108620000D03*
X234470000Y-107650000D03*
%TD*%
D16*
%TO.C,ANT1*%
X234460000Y-103922500D03*
%TD*%
D23*
%TO.C,GD0*%
X230210000Y-138740000D03*
%TD*%
D31*
%TO.C,IC2*%
X235700000Y-123652500D03*
X235200000Y-123652500D03*
X234700000Y-123652500D03*
X234200000Y-123652500D03*
X233700000Y-123652500D03*
D32*
X232800000Y-122752500D03*
X232800000Y-122252500D03*
X232800000Y-121752500D03*
X232800000Y-121252500D03*
X232800000Y-120752500D03*
D31*
X233700000Y-119852500D03*
X234200000Y-119852500D03*
X234700000Y-119852500D03*
X235200000Y-119852500D03*
X235700000Y-119852500D03*
D32*
X236600000Y-120752500D03*
X236600000Y-121252500D03*
X236600000Y-121752500D03*
X236600000Y-122252500D03*
X236600000Y-122752500D03*
D33*
X234700000Y-121752500D03*
%TD*%
D23*
%TO.C,MISO1*%
X240170000Y-138980000D03*
%TD*%
%TO.C,CLK1*%
X240760000Y-136470000D03*
%TD*%
D20*
%TO.C,C9*%
X232880000Y-118222500D03*
X231920000Y-118222500D03*
%TD*%
D16*
%TO.C,FID5*%
X222120000Y-128560000D03*
%TD*%
%TO.C,FID6*%
X222120000Y-144000000D03*
%TD*%
D23*
%TO.C,LED2*%
X226910000Y-143440000D03*
%TD*%
D22*
%TO.C,C3*%
X232510000Y-148660000D03*
X230960000Y-148660000D03*
%TD*%
D27*
%TO.C,L131*%
X235020000Y-118220000D03*
X235020000Y-117250000D03*
%TD*%
D34*
%TO.C,R2*%
X234615000Y-150410000D03*
X232965000Y-150410000D03*
%TD*%
D19*
%TO.C,C51*%
X232020000Y-124930000D03*
X232020000Y-125890000D03*
%TD*%
D27*
%TO.C,L132*%
X235470000Y-113705000D03*
X235470000Y-112735000D03*
%TD*%
D23*
%TO.C,RFVDD1*%
X241890000Y-125060000D03*
%TD*%
D19*
%TO.C,C7*%
X233170000Y-124930000D03*
X233170000Y-125890000D03*
%TD*%
D23*
%TO.C,MCUVDD1*%
X231060000Y-151380000D03*
%TD*%
D35*
%TO.C,R1*%
X229740000Y-146360000D03*
X229740000Y-144710000D03*
%TD*%
D36*
%TO.C,L122*%
X233955000Y-114835000D03*
X232985000Y-114835000D03*
%TD*%
D37*
%TO.C,IC1*%
X237520000Y-146336000D03*
X236870000Y-146336000D03*
X236220000Y-146336000D03*
X235570000Y-146336000D03*
X234920000Y-146336000D03*
X234270000Y-146336000D03*
X233620000Y-146336000D03*
X232970000Y-146336000D03*
X232320000Y-146336000D03*
X231670000Y-146336000D03*
X231670000Y-140460000D03*
X232320000Y-140460000D03*
X232970000Y-140460000D03*
X233620000Y-140460000D03*
X234270000Y-140460000D03*
X234920000Y-140460000D03*
X235570000Y-140460000D03*
X236220000Y-140460000D03*
X236870000Y-140460000D03*
X237520000Y-140460000D03*
%TD*%
M02*
