%TF.GenerationSoftware,KiCad,Pcbnew,9.0.7*%
%TF.CreationDate,2026-08-28T22:35:38+01:00*%
%TF.ProjectId,sensor_rev1,73656e73-6f72-45f7-9265-76312e6b6963,REV1.0*%
%TF.SameCoordinates,Original*%
%TF.FileFunction,Copper,L2,Bot*%
%TF.FilePolarity,Positive*%
%FSLAX46Y46*%
G04 Gerber Fmt 4.6, Leading zero omitted, Abs format (unit mm)*
G04 Created by KiCad (PCBNEW 9.0.7) date 2026-08-28 22:35:38*
%MOMM*%
%LPD*%
G01*
G04 APERTURE LIST*
G04 Aperture macros list*
%AMRoundRect*
0 Rectangle with rounded corners*
0 $1 Rounding radius*
0 $2 $3 $4 $5 $6 $7 $8 $9 X,Y pos of 4 corners*
0 Add a 4 corners polygon primitive as box body*
4,1,4,$2,$3,$4,$5,$6,$7,$8,$9,$2,$3,0*
0 Add four circle primitives for the rounded corners*
1,1,$1+$1,$2,$3*
1,1,$1+$1,$4,$5*
1,1,$1+$1,$6,$7*
1,1,$1+$1,$8,$9*
0 Add four rect primitives between the rounded corners*
20,1,$1+$1,$2,$3,$4,$5,0*
20,1,$1+$1,$4,$5,$6,$7,0*
20,1,$1+$1,$6,$7,$8,$9,0*
20,1,$1+$1,$8,$9,$2,$3,0*%
G04 Aperture macros list end*
%TA.AperFunction,SMDPad,CuDef*%
%ADD10R,1.050000X0.650000*%
%TD*%
%TA.AperFunction,ComponentPad*%
%ADD11R,1.300000X1.300000*%
%TD*%
%TA.AperFunction,ComponentPad*%
%ADD12C,1.300000*%
%TD*%
%TA.AperFunction,ComponentPad*%
%ADD13C,2.200000*%
%TD*%
%TA.AperFunction,SMDPad,CuDef*%
%ADD14RoundRect,0.135000X-0.135000X-0.185000X0.135000X-0.185000X0.135000X0.185000X-0.135000X0.185000X0*%
%TD*%
%TA.AperFunction,SMDPad,CuDef*%
%ADD15C,1.000000*%
%TD*%
%TA.AperFunction,SMDPad,CuDef*%
%ADD16RoundRect,0.140000X0.170000X-0.140000X0.170000X0.140000X-0.170000X0.140000X-0.170000X-0.140000X0*%
%TD*%
%TA.AperFunction,SMDPad,CuDef*%
%ADD17RoundRect,0.140000X-0.140000X-0.170000X0.140000X-0.170000X0.140000X0.170000X-0.140000X0.170000X0*%
%TD*%
%TA.AperFunction,SMDPad,CuDef*%
%ADD18RoundRect,0.140000X-0.170000X0.140000X-0.170000X-0.140000X0.170000X-0.140000X0.170000X0.140000X0*%
%TD*%
%TA.AperFunction,SMDPad,CuDef*%
%ADD19RoundRect,0.140000X0.140000X0.170000X-0.140000X0.170000X-0.140000X-0.170000X0.140000X-0.170000X0*%
%TD*%
%TA.AperFunction,SMDPad,CuDef*%
%ADD20R,1.200000X1.400000*%
%TD*%
%TA.AperFunction,SMDPad,CuDef*%
%ADD21RoundRect,0.225000X0.225000X0.250000X-0.225000X0.250000X-0.225000X-0.250000X0.225000X-0.250000X0*%
%TD*%
%TA.AperFunction,SMDPad,CuDef*%
%ADD22RoundRect,0.225000X0.250000X-0.225000X0.250000X0.225000X-0.250000X0.225000X-0.250000X-0.225000X0*%
%TD*%
%TA.AperFunction,SMDPad,CuDef*%
%ADD23R,1.050000X1.600000*%
%TD*%
%TA.AperFunction,SMDPad,CuDef*%
%ADD24R,0.700000X0.650000*%
%TD*%
%TA.AperFunction,SMDPad,CuDef*%
%ADD25RoundRect,0.147500X0.172500X-0.147500X0.172500X0.147500X-0.172500X0.147500X-0.172500X-0.147500X0*%
%TD*%
%TA.AperFunction,ComponentPad*%
%ADD26R,1.725000X1.725000*%
%TD*%
%TA.AperFunction,ComponentPad*%
%ADD27C,1.725000*%
%TD*%
%TA.AperFunction,SMDPad,CuDef*%
%ADD28R,1.480000X2.590000*%
%TD*%
%TA.AperFunction,ComponentPad*%
%ADD29C,2.000000*%
%TD*%
%TA.AperFunction,SMDPad,CuDef*%
%ADD30R,0.300000X0.950000*%
%TD*%
%TA.AperFunction,SMDPad,CuDef*%
%ADD31R,0.950000X0.300000*%
%TD*%
%TA.AperFunction,SMDPad,CuDef*%
%ADD32R,2.500000X2.500000*%
%TD*%
%TA.AperFunction,SMDPad,CuDef*%
%ADD33RoundRect,0.200000X0.200000X0.275000X-0.200000X0.275000X-0.200000X-0.275000X0.200000X-0.275000X0*%
%TD*%
%TA.AperFunction,SMDPad,CuDef*%
%ADD34RoundRect,0.200000X0.275000X-0.200000X0.275000X0.200000X-0.275000X0.200000X-0.275000X-0.200000X0*%
%TD*%
%TA.AperFunction,SMDPad,CuDef*%
%ADD35RoundRect,0.147500X0.147500X0.172500X-0.147500X0.172500X-0.147500X-0.172500X0.147500X-0.172500X0*%
%TD*%
%TA.AperFunction,SMDPad,CuDef*%
%ADD36R,0.450000X1.475000*%
%TD*%
%TA.AperFunction,ViaPad*%
%ADD37C,0.600000*%
%TD*%
%TA.AperFunction,Conductor*%
%ADD38C,0.200000*%
%TD*%
%TA.AperFunction,Conductor*%
%ADD39C,0.400000*%
%TD*%
%TA.AperFunction,Conductor*%
%ADD40C,1.070000*%
%TD*%
%TA.AperFunction,Conductor*%
%ADD41C,0.500000*%
%TD*%
%TA.AperFunction,Conductor*%
%ADD42C,0.700000*%
%TD*%
G04 APERTURE END LIST*
D10*
%TO.P,S2,1,NO_1*%
%TO.N,unconnected-(S2-NO_1-Pad1)*%
X236480000Y-132690000D03*
%TO.P,S2,2,NO_2*%
%TO.N,BTN*%
X232330000Y-132690000D03*
%TO.P,S2,3,COM_1*%
%TO.N,unconnected-(S2-COM_1-Pad3)*%
X236480000Y-134840000D03*
%TO.P,S2,4,COM_2*%
%TO.N,GND*%
X232330000Y-134840000D03*
%TD*%
D11*
%TO.P,S1,1,1*%
%TO.N,GND*%
X246580000Y-100000000D03*
D12*
%TO.P,S1,2,2*%
%TO.N,REED*%
X246580000Y-123400000D03*
%TD*%
D11*
%TO.P,S3,1,1*%
%TO.N,GND*%
X222320000Y-100000000D03*
D12*
%TO.P,S3,2,2*%
%TO.N,REED*%
X222320000Y-123400000D03*
%TD*%
D13*
%TO.P,BT1,1,-*%
%TO.N,GND*%
X227850000Y-151431535D03*
%TO.P,BT1,2,-*%
X241050000Y-128568465D03*
%TO.P,BT1,3,+*%
%TO.N,VDD*%
X222391670Y-134885641D03*
%TO.P,BT1,4,+*%
X223991670Y-132114359D03*
%TD*%
D14*
%TO.P,R171,1*%
%TO.N,Net-(IC2-RBIAS)*%
X238010000Y-120885000D03*
%TO.P,R171,2*%
%TO.N,GND*%
X239030000Y-120885000D03*
%TD*%
D15*
%TO.P,FID4,*%
%TO.N,*%
X246900000Y-97000000D03*
%TD*%
D16*
%TO.P,C122,1*%
%TO.N,Net-(C121-Pad1)*%
X233570000Y-113765000D03*
%TO.P,C122,2*%
%TO.N,Net-(C122-Pad2)*%
X233570000Y-112805000D03*
%TD*%
D17*
%TO.P,C5,1*%
%TO.N,RF_VDD*%
X238040000Y-122035000D03*
%TO.P,C5,2*%
%TO.N,GND*%
X239000000Y-122035000D03*
%TD*%
D18*
%TO.P,C124,1*%
%TO.N,GND*%
X231870000Y-113875000D03*
%TO.P,C124,2*%
%TO.N,Net-(C124-Pad2)*%
X231870000Y-114835000D03*
%TD*%
D19*
%TO.P,C11,1*%
%TO.N,RF_VDD*%
X231180000Y-121235000D03*
%TO.P,C11,2*%
%TO.N,GND*%
X230220000Y-121235000D03*
%TD*%
D20*
%TO.P,Y1,1,CRYSTAL__1*%
%TO.N,Net-(IC2-XOSC_Q1)*%
X225550000Y-122292500D03*
%TO.P,Y1,2,NC/GND_1*%
%TO.N,unconnected-(Y1-NC{slash}GND_1-Pad2)*%
X225550000Y-120092500D03*
%TO.P,Y1,3,CRYSTAL__2*%
%TO.N,Net-(IC2-XOSC_Q2)*%
X227150000Y-120092500D03*
%TO.P,Y1,4,NC/GND_2*%
%TO.N,unconnected-(Y1-NC{slash}GND_2-Pad4)*%
X227150000Y-122292500D03*
%TD*%
D16*
%TO.P,C125,1*%
%TO.N,Net-(C125-Pad1)*%
X234470000Y-106585000D03*
%TO.P,C125,2*%
%TO.N,Net-(ANT1-ANT)*%
X234470000Y-105625000D03*
%TD*%
%TO.P,C81,1*%
%TO.N,Net-(IC2-XOSC_Q1)*%
X229520000Y-123595000D03*
%TO.P,C81,2*%
%TO.N,GND*%
X229520000Y-122635000D03*
%TD*%
%TO.P,C10,1*%
%TO.N,RF_VDD*%
X236120000Y-118215000D03*
%TO.P,C10,2*%
%TO.N,GND*%
X236120000Y-117255000D03*
%TD*%
D21*
%TO.P,C2,1*%
%TO.N,REED*%
X235645000Y-148650000D03*
%TO.P,C2,2*%
%TO.N,GND*%
X234095000Y-148650000D03*
%TD*%
D17*
%TO.P,C6,1*%
%TO.N,RF_VDD*%
X237190000Y-118212500D03*
%TO.P,C6,2*%
%TO.N,GND*%
X238150000Y-118212500D03*
%TD*%
D15*
%TO.P,MOSI1,1,1*%
%TO.N,/MCU/SDI*%
X228810000Y-132190000D03*
%TD*%
D22*
%TO.P,C4,1*%
%TO.N,NRST*%
X239290000Y-144105000D03*
%TO.P,C4,2*%
%TO.N,GND*%
X239290000Y-142555000D03*
%TD*%
D23*
%TO.P,C1,1,1*%
%TO.N,GND*%
X229140000Y-128730000D03*
%TO.P,C1,2,2*%
%TO.N,VDD*%
X226190000Y-128730000D03*
%TD*%
D24*
%TO.P,FB1,1,1*%
%TO.N,RF_VDD*%
X238730000Y-123805000D03*
%TO.P,FB1,2,2*%
%TO.N,VDD*%
X238730000Y-125155000D03*
%TD*%
D17*
%TO.P,C121,1*%
%TO.N,Net-(C121-Pad1)*%
X233990000Y-115935000D03*
%TO.P,C121,2*%
%TO.N,Net-(C121-Pad2)*%
X234950000Y-115935000D03*
%TD*%
D25*
%TO.P,L123,1,1*%
%TO.N,Net-(C122-Pad2)*%
X234520000Y-111720000D03*
%TO.P,L123,2,2*%
%TO.N,Net-(C123-Pad2)*%
X234520000Y-110750000D03*
%TD*%
D26*
%TO.P,J1,1,1*%
%TO.N,VDD*%
X246800000Y-127320000D03*
D27*
%TO.P,J1,2,2*%
%TO.N,SWIM*%
X246800000Y-129860000D03*
%TO.P,J1,3,3*%
%TO.N,GND*%
X246800000Y-132400000D03*
%TO.P,J1,4,4*%
%TO.N,NRST*%
X246800000Y-134940000D03*
%TD*%
D25*
%TO.P,L121,1,1*%
%TO.N,Net-(IC2-RF_P)*%
X233920000Y-118220000D03*
%TO.P,L121,2,2*%
%TO.N,Net-(C121-Pad1)*%
X233920000Y-117250000D03*
%TD*%
D28*
%TO.P,D1,1,K*%
%TO.N,GND*%
X232880000Y-129070000D03*
%TO.P,D1,2,A*%
%TO.N,Net-(D1-A)*%
X235930000Y-129070000D03*
%TD*%
D15*
%TO.P,CS1,1,1*%
%TO.N,/MCU/CS*%
X226600000Y-134610000D03*
%TD*%
D18*
%TO.P,C101,1*%
%TO.N,Net-(IC2-XOSC_Q2)*%
X229520000Y-118785000D03*
%TO.P,C101,2*%
%TO.N,GND*%
X229520000Y-119745000D03*
%TD*%
D17*
%TO.P,C131,1*%
%TO.N,Net-(C121-Pad2)*%
X235020000Y-114835000D03*
%TO.P,C131,2*%
%TO.N,GND*%
X235980000Y-114835000D03*
%TD*%
%TO.P,C123,1*%
%TO.N,GND*%
X233540000Y-109685000D03*
%TO.P,C123,2*%
%TO.N,Net-(C123-Pad2)*%
X234500000Y-109685000D03*
%TD*%
D26*
%TO.P,J2,1,1*%
%TO.N,GND*%
X237550000Y-152680000D03*
D27*
%TO.P,J2,2,2*%
%TO.N,RX*%
X240090000Y-152680000D03*
%TO.P,J2,3,3*%
%TO.N,TX*%
X242630000Y-152680000D03*
%TD*%
D25*
%TO.P,L124,1,1*%
%TO.N,Net-(C123-Pad2)*%
X234470000Y-108620000D03*
%TO.P,L124,2,2*%
%TO.N,Net-(C125-Pad1)*%
X234470000Y-107650000D03*
%TD*%
D29*
%TO.P,ANT1,1,ANT*%
%TO.N,Net-(ANT1-ANT)*%
X234460000Y-103922500D03*
%TD*%
D15*
%TO.P,GD0,1,1*%
%TO.N,/MCU/IRQ*%
X230210000Y-138740000D03*
%TD*%
D30*
%TO.P,IC2,1,SCLK*%
%TO.N,/MCU/SCLK*%
X235700000Y-123652500D03*
%TO.P,IC2,2,SO_(GDO1)*%
%TO.N,/MCU/SDO*%
X235200000Y-123652500D03*
%TO.P,IC2,3,GDO2*%
%TO.N,unconnected-(IC2-GDO2-Pad3)*%
X234700000Y-123652500D03*
%TO.P,IC2,4,DVDD*%
%TO.N,RF_VDD*%
X234200000Y-123652500D03*
%TO.P,IC2,5,DCOUPL*%
%TO.N,Net-(IC2-DCOUPL)*%
X233700000Y-123652500D03*
D31*
%TO.P,IC2,6,GDO0_(ATEST)*%
%TO.N,/MCU/IRQ*%
X232800000Y-122752500D03*
%TO.P,IC2,7,CSN*%
%TO.N,/MCU/CS*%
X232800000Y-122252500D03*
%TO.P,IC2,8,XOSC_Q1*%
%TO.N,Net-(IC2-XOSC_Q1)*%
X232800000Y-121752500D03*
%TO.P,IC2,9,AVDD_1*%
%TO.N,RF_VDD*%
X232800000Y-121252500D03*
%TO.P,IC2,10,XOSC_Q2*%
%TO.N,Net-(IC2-XOSC_Q2)*%
X232800000Y-120752500D03*
D30*
%TO.P,IC2,11,AVDD_2*%
%TO.N,RF_VDD*%
X233700000Y-119852500D03*
%TO.P,IC2,12,RF_P*%
%TO.N,Net-(IC2-RF_P)*%
X234200000Y-119852500D03*
%TO.P,IC2,13,RF_N*%
%TO.N,Net-(IC2-RF_N)*%
X234700000Y-119852500D03*
%TO.P,IC2,14,AVDD_3*%
%TO.N,RF_VDD*%
X235200000Y-119852500D03*
%TO.P,IC2,15,AVDD_4*%
X235700000Y-119852500D03*
D31*
%TO.P,IC2,16,GND_1*%
%TO.N,GND*%
X236600000Y-120752500D03*
%TO.P,IC2,17,RBIAS*%
%TO.N,Net-(IC2-RBIAS)*%
X236600000Y-121252500D03*
%TO.P,IC2,18,DGUARD*%
%TO.N,RF_VDD*%
X236600000Y-121752500D03*
%TO.P,IC2,19,GND_2*%
%TO.N,GND*%
X236600000Y-122252500D03*
%TO.P,IC2,20,SI*%
%TO.N,/MCU/SDI*%
X236600000Y-122752500D03*
D32*
%TO.P,IC2,21,GND_3*%
%TO.N,GND*%
X234700000Y-121752500D03*
%TD*%
D15*
%TO.P,MISO1,1,1*%
%TO.N,/MCU/SDO*%
X240170000Y-138980000D03*
%TD*%
%TO.P,CLK1,1,1*%
%TO.N,/MCU/SCLK*%
X240760000Y-136470000D03*
%TD*%
D19*
%TO.P,C9,1*%
%TO.N,RF_VDD*%
X232880000Y-118222500D03*
%TO.P,C9,2*%
%TO.N,GND*%
X231920000Y-118222500D03*
%TD*%
D15*
%TO.P,FID5,*%
%TO.N,*%
X222120000Y-128560000D03*
%TD*%
%TO.P,FID6,*%
%TO.N,*%
X222120000Y-144000000D03*
%TD*%
%TO.P,LED2,1,1*%
%TO.N,LED*%
X226910000Y-143440000D03*
%TD*%
D21*
%TO.P,C3,1*%
%TO.N,VDD*%
X232510000Y-148660000D03*
%TO.P,C3,2*%
%TO.N,GND*%
X230960000Y-148660000D03*
%TD*%
D25*
%TO.P,L131,1,1*%
%TO.N,Net-(IC2-RF_N)*%
X235020000Y-118220000D03*
%TO.P,L131,2,2*%
%TO.N,Net-(C121-Pad2)*%
X235020000Y-117250000D03*
%TD*%
D33*
%TO.P,R2,1*%
%TO.N,REED*%
X234615000Y-150410000D03*
%TO.P,R2,2*%
%TO.N,VDD*%
X232965000Y-150410000D03*
%TD*%
D18*
%TO.P,C51,1*%
%TO.N,Net-(IC2-DCOUPL)*%
X232020000Y-124930000D03*
%TO.P,C51,2*%
%TO.N,GND*%
X232020000Y-125890000D03*
%TD*%
D25*
%TO.P,L132,1,1*%
%TO.N,Net-(C121-Pad2)*%
X235470000Y-113705000D03*
%TO.P,L132,2,2*%
%TO.N,Net-(C122-Pad2)*%
X235470000Y-112735000D03*
%TD*%
D15*
%TO.P,RFVDD1,1,1*%
%TO.N,RF_VDD*%
X241890000Y-125060000D03*
%TD*%
D18*
%TO.P,C7,1*%
%TO.N,RF_VDD*%
X233170000Y-124930000D03*
%TO.P,C7,2*%
%TO.N,GND*%
X233170000Y-125890000D03*
%TD*%
D15*
%TO.P,MCUVDD1,1,1*%
%TO.N,VDD*%
X231060000Y-151380000D03*
%TD*%
D34*
%TO.P,R1,1*%
%TO.N,LED*%
X229740000Y-146360000D03*
%TO.P,R1,2*%
%TO.N,Net-(D1-A)*%
X229740000Y-144710000D03*
%TD*%
D35*
%TO.P,L122,1,1*%
%TO.N,Net-(C121-Pad1)*%
X233955000Y-114835000D03*
%TO.P,L122,2,2*%
%TO.N,Net-(C124-Pad2)*%
X232985000Y-114835000D03*
%TD*%
D36*
%TO.P,IC1,1,PC5*%
%TO.N,TX*%
X237520000Y-146336000D03*
%TO.P,IC1,2,PC6*%
%TO.N,RX*%
X236870000Y-146336000D03*
%TO.P,IC1,3,PA0*%
%TO.N,SWIM*%
X236220000Y-146336000D03*
%TO.P,IC1,4,NRST_/_PA1*%
%TO.N,NRST*%
X235570000Y-146336000D03*
%TO.P,IC1,5,PA2*%
%TO.N,REED*%
X234920000Y-146336000D03*
%TO.P,IC1,6,PA3*%
%TO.N,BTN*%
X234270000Y-146336000D03*
%TO.P,IC1,7,VSS/VSSA/VREF-*%
%TO.N,GND*%
X233620000Y-146336000D03*
%TO.P,IC1,8,VDD/VDDA/VREF+*%
%TO.N,VDD*%
X232970000Y-146336000D03*
%TO.P,IC1,9,PD0*%
%TO.N,GND*%
X232320000Y-146336000D03*
%TO.P,IC1,10,PB0*%
%TO.N,LED*%
X231670000Y-146336000D03*
%TO.P,IC1,11,PB1*%
%TO.N,/MCU/IRQ*%
X231670000Y-140460000D03*
%TO.P,IC1,12,PB2*%
%TO.N,GND*%
X232320000Y-140460000D03*
%TO.P,IC1,13,PB3*%
X232970000Y-140460000D03*
%TO.P,IC1,14,PB4*%
%TO.N,/MCU/CS*%
X233620000Y-140460000D03*
%TO.P,IC1,15,PB5*%
%TO.N,/MCU/SCLK*%
X234270000Y-140460000D03*
%TO.P,IC1,16,PB6*%
%TO.N,/MCU/SDI*%
X234920000Y-140460000D03*
%TO.P,IC1,17,PB7*%
%TO.N,/MCU/SDO*%
X235570000Y-140460000D03*
%TO.P,IC1,18,PC0*%
%TO.N,GND*%
X236220000Y-140460000D03*
%TO.P,IC1,19,PC1*%
X236870000Y-140460000D03*
%TO.P,IC1,20,PC4*%
X237520000Y-140460000D03*
%TD*%
D37*
%TO.N,GND*%
X237450000Y-131520000D03*
X237490000Y-135810000D03*
X232890000Y-133710000D03*
X237470000Y-133770000D03*
%TO.N,/MCU/SDI*%
X233800000Y-131600000D03*
%TO.N,GND*%
X245000000Y-147640000D03*
X229010000Y-140630000D03*
X232980000Y-137360000D03*
X221150000Y-132230000D03*
X235910000Y-147620000D03*
X229140000Y-126870000D03*
X245690000Y-139790000D03*
X221170000Y-108560000D03*
X238760000Y-146990000D03*
X223910000Y-140540000D03*
X221190000Y-103480000D03*
X233330000Y-108642500D03*
X243760000Y-122160000D03*
X229310767Y-149970767D03*
X243640000Y-142490000D03*
X235580000Y-110092500D03*
X221170000Y-116380000D03*
X240200000Y-148220000D03*
X240580000Y-119452500D03*
X224990000Y-135090000D03*
X247550000Y-108410000D03*
X245780000Y-120900000D03*
X239030000Y-119462500D03*
X242540000Y-136300000D03*
X236210000Y-138680000D03*
X239890000Y-134790000D03*
X221170000Y-113170000D03*
X230820000Y-113450000D03*
X233540000Y-110692500D03*
X237920000Y-116842500D03*
X243790000Y-123600000D03*
X241830000Y-123510000D03*
X232620000Y-112600000D03*
X233050000Y-143130000D03*
X224600000Y-145520000D03*
X224170000Y-123720000D03*
X239880000Y-118222500D03*
X223830000Y-129120000D03*
X232830000Y-152620000D03*
X221180000Y-136820000D03*
X224740000Y-118470000D03*
X229050000Y-141770000D03*
X236820000Y-119692500D03*
X235580000Y-142390000D03*
X232860000Y-117372500D03*
X236990000Y-117255000D03*
X246680000Y-144030000D03*
X244950000Y-144740000D03*
X224000000Y-147410000D03*
X224180000Y-122360000D03*
X247590000Y-142320000D03*
X223980000Y-138050000D03*
X242610000Y-141300000D03*
X231000000Y-117342500D03*
X242030000Y-143300000D03*
X247750000Y-116210000D03*
X235590000Y-111122500D03*
X228130000Y-124470000D03*
X229480000Y-147520000D03*
X242490000Y-148370000D03*
X236040000Y-116462500D03*
X222830000Y-119510000D03*
X230810000Y-141550000D03*
X231030000Y-118232500D03*
X242880000Y-150710000D03*
X240330000Y-131240000D03*
X236640000Y-113662500D03*
X244460000Y-134370000D03*
X233050000Y-111492500D03*
X239970000Y-122042500D03*
X243760000Y-120900000D03*
X225830000Y-148830000D03*
X227580000Y-118520000D03*
X245720000Y-119440000D03*
X236040000Y-115702500D03*
X231930000Y-117082500D03*
X233320000Y-106850000D03*
X248020000Y-140120000D03*
X240780000Y-146760000D03*
X240780000Y-145220000D03*
X238140000Y-149360000D03*
X228290000Y-144590000D03*
X234830000Y-152620000D03*
X241830000Y-122130000D03*
X230070000Y-117802500D03*
X241010000Y-142290000D03*
X222850000Y-121140000D03*
X231230000Y-143120000D03*
X240740000Y-141190000D03*
X233320000Y-105700000D03*
X225980000Y-146970000D03*
X238850000Y-145550000D03*
X244810000Y-141290000D03*
X232870000Y-116632500D03*
X230760000Y-140460000D03*
X240240000Y-124970000D03*
X236310000Y-150330000D03*
X239990000Y-120902500D03*
X229990000Y-133310000D03*
X243640000Y-147430000D03*
X232170000Y-138880000D03*
X226510000Y-136290000D03*
X224990000Y-127240000D03*
X230770000Y-114650000D03*
X224210000Y-121160000D03*
X231850000Y-113022500D03*
X233120000Y-115800000D03*
X244720769Y-132239231D03*
X221120000Y-139010000D03*
X239530000Y-150750000D03*
X227680000Y-148960000D03*
X242560000Y-146540000D03*
X221140000Y-121150000D03*
X221180000Y-125750000D03*
X242640000Y-144930000D03*
X224170000Y-119660000D03*
X226240000Y-118470000D03*
X226390000Y-140640000D03*
X224540000Y-125790000D03*
X229120000Y-130650000D03*
X238980000Y-117102500D03*
X244440000Y-136270000D03*
X235620000Y-106850000D03*
X240230000Y-133260000D03*
X221140000Y-119510000D03*
X247590000Y-119410000D03*
X233340000Y-107862500D03*
X243520000Y-139590000D03*
X244970000Y-149140000D03*
X228560000Y-119822500D03*
X247670000Y-112850000D03*
X238420000Y-127300000D03*
X221570000Y-130700000D03*
X232070000Y-115800000D03*
X241810000Y-139940000D03*
X246870000Y-146120000D03*
X226310000Y-132310000D03*
X221120000Y-141560000D03*
X243730000Y-119440000D03*
X245940000Y-137020000D03*
X247990000Y-138690000D03*
X235620000Y-109100000D03*
X242460000Y-133320000D03*
X247970000Y-137190000D03*
X244950000Y-146150000D03*
X247830000Y-125480000D03*
X241890000Y-119440000D03*
X234270000Y-147640000D03*
X232820000Y-109700000D03*
X245050000Y-128830000D03*
X236850000Y-115012500D03*
X245890000Y-138390000D03*
X222050000Y-146120000D03*
X228500000Y-117822500D03*
X236970000Y-116022500D03*
X236590000Y-112722500D03*
X230810000Y-145370000D03*
X243230000Y-128250000D03*
X230800000Y-147160000D03*
X228580000Y-122802500D03*
X239940000Y-123030000D03*
X229520000Y-121250000D03*
X226650000Y-124510000D03*
X235620000Y-108000000D03*
X243560000Y-149760000D03*
X241540000Y-149740000D03*
X225250000Y-142340000D03*
X247460000Y-103460000D03*
X247620000Y-120960000D03*
X225550000Y-123840000D03*
X230170000Y-128730000D03*
X226440000Y-138520000D03*
X236170000Y-111850000D03*
X241860000Y-120870000D03*
X230020000Y-152620000D03*
X235570000Y-105750000D03*
X228510000Y-121252500D03*
X230970000Y-115700000D03*
X238340000Y-138810000D03*
X238400000Y-129690000D03*
X243740000Y-138270000D03*
%TO.N,REED*%
X234920000Y-143900000D03*
%TO.N,NRST*%
X235570000Y-144700000D03*
X237130000Y-144710000D03*
%TO.N,VDD*%
X237470000Y-125850000D03*
X230650000Y-150080000D03*
X227030000Y-125850000D03*
%TO.N,RF_VDD*%
X237340000Y-123960000D03*
X230570000Y-122450000D03*
X237730000Y-119372500D03*
X230853235Y-120366765D03*
X232780000Y-124222500D03*
X231970000Y-119312500D03*
%TO.N,/MCU/SDI*%
X236600000Y-125030000D03*
X233840000Y-126680000D03*
X234530000Y-125030000D03*
X234930000Y-138770000D03*
%TO.N,/MCU/IRQ*%
X231620000Y-136490000D03*
X230950000Y-127240000D03*
%TO.N,/MCU/SDO*%
X234850000Y-126680000D03*
X239410000Y-138190000D03*
X235570000Y-137810000D03*
%TO.N,BTN*%
X234290000Y-144760000D03*
X231450000Y-144470000D03*
%TO.N,/MCU/SCLK*%
X239160000Y-136460000D03*
X235950000Y-126680000D03*
X235480000Y-136440000D03*
%TO.N,SWIM*%
X237080000Y-143570000D03*
%TO.N,/MCU/CS*%
X228870000Y-134640000D03*
X232030000Y-137820000D03*
%TO.N,Net-(D1-A)*%
X229420000Y-142780000D03*
X236920000Y-137940000D03*
%TD*%
D38*
%TO.N,GND*%
X237520000Y-140460000D02*
X237520000Y-139630000D01*
X237520000Y-139630000D02*
X238340000Y-138810000D01*
X232980000Y-137360000D02*
X232330000Y-136710000D01*
X232330000Y-136710000D02*
X232330000Y-134840000D01*
%TO.N,BTN*%
X231450000Y-144470000D02*
X230020000Y-143040000D01*
X230020000Y-143040000D02*
X230020000Y-140520000D01*
X230020000Y-140520000D02*
X228750000Y-139250000D01*
X228750000Y-139250000D02*
X228750000Y-136270000D01*
X228750000Y-136270000D02*
X232330000Y-132690000D01*
%TO.N,/MCU/SDI*%
X229400000Y-131600000D02*
X233800000Y-131600000D01*
X228810000Y-132190000D02*
X229400000Y-131600000D01*
%TO.N,Net-(D1-A)*%
X236220000Y-136120000D02*
X235370000Y-135270000D01*
X235370000Y-135270000D02*
X235370000Y-129630000D01*
X236220000Y-137240000D02*
X236220000Y-136120000D01*
X235370000Y-129630000D02*
X235930000Y-129070000D01*
%TO.N,GND*%
X239020000Y-120082500D02*
X239030000Y-120092500D01*
X231920000Y-118222500D02*
X231040000Y-118222500D01*
X236620000Y-122250000D02*
X235510000Y-122250000D01*
X234270000Y-147640000D02*
X234270000Y-148475000D01*
X222320000Y-102350000D02*
X221190000Y-103480000D01*
X232320000Y-146336000D02*
X232320000Y-144940000D01*
X228747500Y-122635000D02*
X228580000Y-122802500D01*
D39*
X237490000Y-152620000D02*
X237550000Y-152680000D01*
X229310767Y-149970767D02*
X230621535Y-148660000D01*
D38*
X229520000Y-122635000D02*
X229520000Y-121250000D01*
D39*
X230020000Y-152620000D02*
X229038463Y-152620000D01*
D38*
X233370000Y-144930000D02*
X232330000Y-144930000D01*
X233920000Y-122350000D02*
X233870000Y-122350000D01*
X236850000Y-115012500D02*
X236782500Y-115012500D01*
D39*
X237520000Y-140460000D02*
X237690000Y-140290000D01*
D38*
X235220000Y-122250000D02*
X234720000Y-121750000D01*
X234720000Y-121750000D02*
X234170000Y-121200000D01*
X235510000Y-122250000D02*
X235370000Y-122250000D01*
X235720000Y-120750000D02*
X234720000Y-121750000D01*
X229520000Y-119745000D02*
X229520000Y-121250000D01*
X232320000Y-147300000D02*
X232320000Y-146336000D01*
X235720000Y-120750000D02*
X235513750Y-120956250D01*
X234120000Y-122350000D02*
X234720000Y-121750000D01*
X230220000Y-121235000D02*
X229535000Y-121235000D01*
X232330000Y-144930000D02*
X232320000Y-144940000D01*
X237287500Y-120082500D02*
X239020000Y-120082500D01*
X236120000Y-117255000D02*
X236990000Y-117255000D01*
X234170000Y-121200000D02*
X233970000Y-121200000D01*
X239030000Y-120885000D02*
X239030000Y-122005000D01*
X233620000Y-146336000D02*
X233620000Y-145180000D01*
X232320000Y-140460000D02*
X232970000Y-140460000D01*
X236620000Y-120750000D02*
X235720000Y-120750000D01*
X233620000Y-145180000D02*
X233370000Y-144930000D01*
X235370000Y-121100000D02*
X234728750Y-121741250D01*
X246580000Y-102580000D02*
X247460000Y-103460000D01*
X239030000Y-119462500D02*
X239030000Y-118962500D01*
D39*
X244720769Y-132239231D02*
X241050001Y-128568464D01*
D38*
X235370000Y-122250000D02*
X235220000Y-122250000D01*
X234270000Y-148475000D02*
X234095000Y-148650000D01*
D40*
X232540000Y-128730000D02*
X232880000Y-129070000D01*
D39*
X234830000Y-152620000D02*
X237490000Y-152620000D01*
D40*
X229140000Y-128730000D02*
X230170000Y-128730000D01*
D39*
X230621535Y-148660000D02*
X230960000Y-148660000D01*
X246800000Y-132400000D02*
X244881537Y-132400000D01*
X232830000Y-152620000D02*
X230020000Y-152620000D01*
D38*
X231040000Y-118222500D02*
X231030000Y-118232500D01*
D40*
X230170000Y-128730000D02*
X232540000Y-128730000D01*
D38*
X235513750Y-120956250D02*
X235370000Y-121100000D01*
X232020000Y-125890000D02*
X233170000Y-125890000D01*
X229442500Y-119822500D02*
X229520000Y-119745000D01*
X230960000Y-148660000D02*
X232320000Y-147300000D01*
D39*
X244881537Y-132400000D02*
X244720769Y-132239231D01*
D38*
X236220000Y-138690000D02*
X236210000Y-138680000D01*
D39*
X234830000Y-152620000D02*
X232830000Y-152620000D01*
D38*
X238280000Y-118212500D02*
X238150000Y-118212500D01*
X222320000Y-100000000D02*
X222320000Y-102350000D01*
X231870000Y-113042500D02*
X231850000Y-113022500D01*
X239030000Y-120885000D02*
X239030000Y-120092500D01*
X231870000Y-113875000D02*
X231870000Y-113042500D01*
X236620000Y-120750000D02*
X237287500Y-120082500D01*
X237192500Y-117255000D02*
X238150000Y-118212500D01*
X232835000Y-109685000D02*
X232820000Y-109700000D01*
X246580000Y-100000000D02*
X246580000Y-102580000D01*
D39*
X237520000Y-140460000D02*
X236870000Y-140460000D01*
X227849999Y-151431536D02*
X229310767Y-149970767D01*
D38*
X234728750Y-121741250D02*
X234720000Y-121750000D01*
X228560000Y-119822500D02*
X229442500Y-119822500D01*
X234095000Y-148650000D02*
X233620000Y-148175000D01*
X236782500Y-115012500D02*
X236605000Y-114835000D01*
D41*
X238980000Y-122055000D02*
X239000000Y-122035000D01*
D38*
X236990000Y-117255000D02*
X237192500Y-117255000D01*
X234120000Y-122350000D02*
X234010000Y-122350000D01*
X236220000Y-140460000D02*
X236870000Y-140460000D01*
X233540000Y-109685000D02*
X232835000Y-109685000D01*
X239030000Y-122005000D02*
X239000000Y-122035000D01*
X229520000Y-122635000D02*
X228747500Y-122635000D01*
X239030000Y-120092500D02*
X239030000Y-119462500D01*
X233620000Y-148175000D02*
X233620000Y-146336000D01*
D41*
X239000000Y-120915000D02*
X239030000Y-120885000D01*
D38*
X229535000Y-121235000D02*
X229520000Y-121250000D01*
D39*
X237520000Y-140460000D02*
X237520000Y-140785000D01*
D38*
X239030000Y-118962500D02*
X238280000Y-118212500D01*
X234010000Y-122350000D02*
X233920000Y-122350000D01*
X236220000Y-140460000D02*
X236220000Y-138690000D01*
X228510000Y-121252500D02*
X229517500Y-121252500D01*
X232320000Y-144940000D02*
X232320000Y-140460000D01*
D41*
X236140000Y-117235000D02*
X236120000Y-117255000D01*
D38*
X229517500Y-121252500D02*
X229520000Y-121250000D01*
D39*
X237520000Y-140785000D02*
X239290000Y-142555000D01*
D38*
X236605000Y-114835000D02*
X235980000Y-114835000D01*
D39*
X229038463Y-152620000D02*
X227849999Y-151431536D01*
D38*
%TO.N,Net-(ANT1-ANT)*%
X234470000Y-105625000D02*
X234470000Y-104072500D01*
X234470000Y-103984999D02*
X234440001Y-103955000D01*
X234470000Y-104072500D02*
X234460000Y-104062500D01*
%TO.N,REED*%
X234920000Y-147925000D02*
X235645000Y-148650000D01*
X234920000Y-146336000D02*
X234920000Y-147925000D01*
X234615000Y-150410000D02*
X234615000Y-149680000D01*
X234615000Y-149680000D02*
X235645000Y-148650000D01*
X234920000Y-146336000D02*
X234920000Y-143900000D01*
%TO.N,NRST*%
X235570000Y-146336000D02*
X235570000Y-144700000D01*
X246800000Y-140670000D02*
X246800000Y-134940000D01*
X239290000Y-144105000D02*
X239295000Y-144100000D01*
X237735000Y-144105000D02*
X237130000Y-144710000D01*
X239290000Y-144105000D02*
X237735000Y-144105000D01*
X235580000Y-144690000D02*
X235570000Y-144700000D01*
X243370000Y-144100000D02*
X246800000Y-140670000D01*
X239295000Y-144100000D02*
X243370000Y-144100000D01*
D39*
%TO.N,VDD*%
X238165000Y-125155000D02*
X237470000Y-125850000D01*
X240130000Y-126550000D02*
X246030000Y-126550000D01*
X238730000Y-125155000D02*
X238730000Y-125160000D01*
X232510000Y-148660000D02*
X232510000Y-149955000D01*
X246030000Y-126550000D02*
X246800000Y-127320000D01*
X238730000Y-125155000D02*
X238165000Y-125155000D01*
X232510000Y-149955000D02*
X232965000Y-150410000D01*
D41*
X226190000Y-126690000D02*
X227030000Y-125850000D01*
X226190000Y-128730000D02*
X226190000Y-126690000D01*
D40*
X223991670Y-132114359D02*
X223991670Y-130928330D01*
D39*
X232970000Y-148200000D02*
X232970000Y-146336000D01*
X238730000Y-125155000D02*
X238735000Y-125155000D01*
D42*
X231995000Y-151380000D02*
X232965000Y-150410000D01*
X231060000Y-151380000D02*
X231995000Y-151380000D01*
X230650000Y-150080000D02*
X230650000Y-150970000D01*
X230650000Y-150970000D02*
X231060000Y-151380000D01*
D40*
X223991670Y-130928330D02*
X226190000Y-128730000D01*
D39*
X238735000Y-125155000D02*
X240130000Y-126550000D01*
X232510000Y-148660000D02*
X232970000Y-148200000D01*
D38*
%TO.N,RF_VDD*%
X233530000Y-124930000D02*
X234200000Y-124260000D01*
D41*
X230870000Y-120350000D02*
X230853235Y-120366765D01*
D39*
X231970000Y-119312500D02*
X232880000Y-118402500D01*
D38*
X233170000Y-124930000D02*
X233530000Y-124930000D01*
X237190000Y-118380000D02*
X235720000Y-119850000D01*
X238040000Y-122035000D02*
X238020000Y-122055000D01*
D39*
X238040000Y-123430000D02*
X237510000Y-123960000D01*
D38*
X233720000Y-119062500D02*
X232880000Y-118222500D01*
X235220000Y-119115000D02*
X236120000Y-118215000D01*
D39*
X240635000Y-123805000D02*
X241890000Y-125060000D01*
D38*
X236122500Y-118212500D02*
X236120000Y-118215000D01*
X232805000Y-121235000D02*
X232820000Y-121250000D01*
D39*
X231180000Y-121235000D02*
X231180000Y-120693530D01*
D38*
X235220000Y-119850000D02*
X235220000Y-119115000D01*
D39*
X231180000Y-120693530D02*
X230853235Y-120366765D01*
D38*
X235720000Y-119850000D02*
X235720000Y-119645000D01*
X232780000Y-124220000D02*
X232780000Y-124222500D01*
D39*
X237730000Y-119372500D02*
X237190000Y-118832500D01*
D38*
X231180000Y-121235000D02*
X232805000Y-121235000D01*
X233170000Y-124930000D02*
X233170000Y-124610000D01*
D39*
X238730000Y-123805000D02*
X240635000Y-123805000D01*
X231180000Y-121840000D02*
X230570000Y-122450000D01*
X238040000Y-123430000D02*
X238040000Y-122035000D01*
X231180000Y-121235000D02*
X231180000Y-121840000D01*
X237190000Y-118832500D02*
X237190000Y-118212500D01*
X238730000Y-123805000D02*
X238415000Y-123805000D01*
D38*
X238040000Y-122035000D02*
X237755000Y-121750000D01*
D39*
X237510000Y-123960000D02*
X237340000Y-123960000D01*
D41*
X236140000Y-118195000D02*
X236120000Y-118215000D01*
D39*
X232880000Y-118402500D02*
X232880000Y-118222500D01*
D38*
X237755000Y-121750000D02*
X236620000Y-121750000D01*
X233720000Y-119850000D02*
X233720000Y-119062500D01*
X237190000Y-118212500D02*
X237190000Y-118380000D01*
X237190000Y-118212500D02*
X236122500Y-118212500D01*
X233170000Y-124610000D02*
X232780000Y-124220000D01*
D39*
X238415000Y-123805000D02*
X238040000Y-123430000D01*
D38*
X234200000Y-124260000D02*
X234200000Y-123652500D01*
%TO.N,Net-(IC2-DCOUPL)*%
X232447500Y-123652500D02*
X232020000Y-124080000D01*
X233700000Y-123652500D02*
X232447500Y-123652500D01*
X232020000Y-124080000D02*
X232020000Y-124930000D01*
%TO.N,Net-(IC2-XOSC_Q1)*%
X230275000Y-123595000D02*
X229520000Y-123595000D01*
X232820000Y-121750000D02*
X232120000Y-121750000D01*
X229520000Y-123595000D02*
X226752500Y-123595000D01*
X225550000Y-122392500D02*
X225550000Y-122292500D01*
X226752500Y-123595000D02*
X225550000Y-122392500D01*
X232120000Y-121750000D02*
X230275000Y-123595000D01*
%TO.N,Net-(IC2-XOSC_Q2)*%
X230120000Y-118785000D02*
X232085000Y-120750000D01*
X228457500Y-118785000D02*
X227150000Y-120092500D01*
X232085000Y-120750000D02*
X232820000Y-120750000D01*
X229520000Y-118785000D02*
X228457500Y-118785000D01*
X229520000Y-118785000D02*
X230120000Y-118785000D01*
%TO.N,Net-(C121-Pad2)*%
X234950000Y-114905000D02*
X235020000Y-114835000D01*
X234950000Y-115935000D02*
X234950000Y-114905000D01*
X235020000Y-114155000D02*
X235470000Y-113705000D01*
X235020000Y-117250000D02*
X235020000Y-116005000D01*
X235020000Y-116005000D02*
X234950000Y-115935000D01*
X235020000Y-114835000D02*
X235020000Y-114155000D01*
%TO.N,Net-(C121-Pad1)*%
X233955000Y-114150000D02*
X233570000Y-113765000D01*
X233920000Y-116005000D02*
X233990000Y-115935000D01*
X233990000Y-115935000D02*
X233990000Y-114870000D01*
X233920000Y-117250000D02*
X233920000Y-116005000D01*
X233990000Y-114870000D02*
X233955000Y-114835000D01*
X233955000Y-114835000D02*
X233955000Y-114150000D01*
%TO.N,Net-(C122-Pad2)*%
X233570000Y-112000000D02*
X233850000Y-111720000D01*
X235470000Y-112735000D02*
X235470000Y-112000000D01*
X235190000Y-111720000D02*
X234520000Y-111720000D01*
X233850000Y-111720000D02*
X234520000Y-111720000D01*
X233570000Y-112805000D02*
X233570000Y-112000000D01*
X235470000Y-112000000D02*
X235190000Y-111720000D01*
%TO.N,Net-(C123-Pad2)*%
X234470000Y-108620000D02*
X234470000Y-109655000D01*
X234470000Y-109655000D02*
X234500000Y-109685000D01*
X234520000Y-110750000D02*
X234520000Y-109705000D01*
X234520000Y-109705000D02*
X234500000Y-109685000D01*
%TO.N,Net-(C124-Pad2)*%
X232985000Y-114835000D02*
X231870000Y-114835000D01*
%TO.N,Net-(C125-Pad1)*%
X234470000Y-107650000D02*
X234470000Y-106585000D01*
%TO.N,/MCU/SDI*%
X234920000Y-140460000D02*
X234920000Y-138780000D01*
X234920000Y-138780000D02*
X234930000Y-138770000D01*
X233840000Y-125720000D02*
X234530000Y-125030000D01*
X236600000Y-122752500D02*
X236600000Y-125030000D01*
X236600000Y-122752500D02*
X236882500Y-122752500D01*
X233840000Y-126680000D02*
X233840000Y-125720000D01*
%TO.N,/MCU/IRQ*%
X230210000Y-138740000D02*
X231670000Y-140200000D01*
X230950000Y-124602500D02*
X230950000Y-127240000D01*
X231670000Y-140200000D02*
X231670000Y-140460000D01*
X232800000Y-122752500D02*
X230950000Y-124602500D01*
X232820000Y-122800000D02*
X232820000Y-122750000D01*
X231670000Y-140460000D02*
X231459000Y-140249000D01*
X231459000Y-136651000D02*
X231620000Y-136490000D01*
X232800000Y-122752500D02*
X232787500Y-122752500D01*
X231459000Y-140249000D02*
X231459000Y-136651000D01*
%TO.N,/MCU/SDO*%
X239410000Y-138190000D02*
X239410000Y-138220000D01*
X235200000Y-123652500D02*
X235129000Y-123723500D01*
X235570000Y-137810000D02*
X235570000Y-140460000D01*
X235200000Y-126330000D02*
X234850000Y-126680000D01*
X235200000Y-123652500D02*
X235200000Y-126330000D01*
X239410000Y-138220000D02*
X240170000Y-138980000D01*
%TO.N,BTN*%
X234270000Y-144800000D02*
X234270000Y-146336000D01*
%TO.N,/MCU/SCLK*%
X234270000Y-137650000D02*
X234270000Y-140460000D01*
X235700000Y-126430000D02*
X235950000Y-126680000D01*
X240760000Y-136470000D02*
X239170000Y-136470000D01*
X235480000Y-136440000D02*
X234270000Y-137650000D01*
X235700000Y-123652500D02*
X235700000Y-126430000D01*
X239170000Y-136470000D02*
X239160000Y-136460000D01*
%TO.N,TX*%
X237520000Y-146336000D02*
X237520000Y-147470000D01*
X237520000Y-147470000D02*
X242670000Y-152620000D01*
%TO.N,RX*%
X236870000Y-149360000D02*
X240130000Y-152620000D01*
X236870000Y-146336000D02*
X236870000Y-149360000D01*
%TO.N,SWIM*%
X236220000Y-144430000D02*
X237080000Y-143570000D01*
X236220000Y-146336000D02*
X236220000Y-144430000D01*
%TO.N,/MCU/CS*%
X233620000Y-139410000D02*
X232030000Y-137820000D01*
X228870000Y-125480000D02*
X228860000Y-125480000D01*
X227390000Y-133160000D02*
X227390000Y-126960000D01*
X227390000Y-126960000D02*
X228870000Y-125480000D01*
X228870000Y-134640000D02*
X227390000Y-133160000D01*
X226600000Y-134610000D02*
X228840000Y-134610000D01*
X233620000Y-140460000D02*
X233620000Y-139410000D01*
X228840000Y-134610000D02*
X228870000Y-134640000D01*
X232087500Y-122252500D02*
X232800000Y-122252500D01*
X228860000Y-125480000D02*
X232087500Y-122252500D01*
%TO.N,Net-(IC2-RBIAS)*%
X237645000Y-121250000D02*
X236620000Y-121250000D01*
X238010000Y-120885000D02*
X237645000Y-121250000D01*
%TO.N,Net-(IC2-RF_N)*%
X234720000Y-119850000D02*
X234720000Y-118520000D01*
X234720000Y-118520000D02*
X235020000Y-118220000D01*
%TO.N,Net-(IC2-RF_P)*%
X234220000Y-119850000D02*
X234220000Y-118520000D01*
X234220000Y-118520000D02*
X233920000Y-118220000D01*
%TO.N,Net-(D1-A)*%
X229420000Y-144390000D02*
X229740000Y-144710000D01*
X229420000Y-142780000D02*
X229420000Y-144390000D01*
X236220000Y-137240000D02*
X236920000Y-137940000D01*
%TO.N,LED*%
X228600000Y-146360000D02*
X226910000Y-144670000D01*
X229740000Y-146360000D02*
X231646000Y-146360000D01*
X231646000Y-146360000D02*
X231670000Y-146336000D01*
X226910000Y-144670000D02*
X226910000Y-143440000D01*
X229740000Y-146360000D02*
X228600000Y-146360000D01*
%TD*%
%TA.AperFunction,Conductor*%
%TO.N,GND*%
G36*
X224008479Y-102575632D02*
G01*
X224028457Y-102576346D01*
X224041316Y-102585274D01*
X224056337Y-102589685D01*
X224069426Y-102604791D01*
X224085850Y-102616194D01*
X224100059Y-102640143D01*
X224102092Y-102642489D01*
X224103850Y-102646528D01*
X224120024Y-102685574D01*
X224176426Y-102741976D01*
X224250118Y-102772500D01*
X233618795Y-102772500D01*
X233685834Y-102792185D01*
X233731589Y-102844989D01*
X233741533Y-102914147D01*
X233712508Y-102977703D01*
X233691686Y-102996813D01*
X233677927Y-103006810D01*
X233677923Y-103006813D01*
X233544312Y-103140424D01*
X233544312Y-103140425D01*
X233544310Y-103140427D01*
X233496610Y-103206079D01*
X233433240Y-103293300D01*
X233347454Y-103461663D01*
X233289059Y-103641381D01*
X233259500Y-103828013D01*
X233259500Y-104016986D01*
X233289059Y-104203618D01*
X233347454Y-104383336D01*
X233433240Y-104551699D01*
X233544310Y-104704573D01*
X233677927Y-104838190D01*
X233830801Y-104949260D01*
X233911835Y-104990549D01*
X233999165Y-105035046D01*
X233999167Y-105035046D01*
X233999168Y-105035047D01*
X234009935Y-105038545D01*
X234067610Y-105077979D01*
X234094811Y-105142337D01*
X234082900Y-105211184D01*
X234059302Y-105244157D01*
X234016776Y-105286683D01*
X233966027Y-105395514D01*
X233959500Y-105445097D01*
X233959500Y-105804894D01*
X233959501Y-105804900D01*
X233966028Y-105854487D01*
X233966029Y-105854489D01*
X233966029Y-105854490D01*
X234016776Y-105963316D01*
X234070779Y-106017319D01*
X234104264Y-106078642D01*
X234099280Y-106148334D01*
X234070779Y-106192681D01*
X234016776Y-106246683D01*
X233966027Y-106355514D01*
X233959500Y-106405097D01*
X233959500Y-106764894D01*
X233959501Y-106764900D01*
X233966028Y-106814487D01*
X233966029Y-106814489D01*
X233966029Y-106814490D01*
X234016776Y-106923316D01*
X234109355Y-107015895D01*
X234108052Y-107017197D01*
X234143483Y-107061520D01*
X234150677Y-107131019D01*
X234119155Y-107193374D01*
X234100791Y-107209436D01*
X234092486Y-107215365D01*
X234010365Y-107297486D01*
X233959355Y-107401828D01*
X233959355Y-107401830D01*
X233949500Y-107469472D01*
X233949500Y-107830528D01*
X233957947Y-107888506D01*
X233959355Y-107898171D01*
X234010365Y-108002513D01*
X234055171Y-108047319D01*
X234088656Y-108108642D01*
X234083672Y-108178334D01*
X234055171Y-108222681D01*
X234010365Y-108267486D01*
X233959355Y-108371828D01*
X233959355Y-108371830D01*
X233949500Y-108439472D01*
X233949500Y-108439477D01*
X233949500Y-108761680D01*
X233929815Y-108828719D01*
X233877011Y-108874474D01*
X233807853Y-108884418D01*
X233790905Y-108880756D01*
X233790001Y-108880493D01*
X233790000Y-108880494D01*
X233790000Y-110489503D01*
X233840906Y-110474715D01*
X233910775Y-110474915D01*
X233969445Y-110512858D01*
X233998288Y-110576496D01*
X233999500Y-110593792D01*
X233999500Y-110930528D01*
X234007947Y-110988506D01*
X234009355Y-110998171D01*
X234060365Y-111102513D01*
X234105171Y-111147319D01*
X234108900Y-111154149D01*
X234115226Y-111158687D01*
X234125410Y-111184385D01*
X234138656Y-111208642D01*
X234138100Y-111216405D01*
X234140969Y-111223642D01*
X234135643Y-111250765D01*
X234133672Y-111278334D01*
X234128667Y-111286298D01*
X234127508Y-111292202D01*
X234109611Y-111316622D01*
X234106935Y-111320881D01*
X234106043Y-111321809D01*
X234060364Y-111367489D01*
X234058475Y-111371351D01*
X234048846Y-111381381D01*
X234026035Y-111394444D01*
X234005350Y-111410673D01*
X233993841Y-111412883D01*
X233988217Y-111416105D01*
X233979415Y-111415655D01*
X233959401Y-111419500D01*
X233810438Y-111419500D01*
X233772224Y-111429739D01*
X233734009Y-111439979D01*
X233734008Y-111439980D01*
X233678843Y-111471830D01*
X233665492Y-111479538D01*
X233665486Y-111479542D01*
X233329541Y-111815487D01*
X233329535Y-111815495D01*
X233289982Y-111884004D01*
X233289979Y-111884009D01*
X233269500Y-111960439D01*
X233269500Y-112271155D01*
X233249815Y-112338194D01*
X233209237Y-112373643D01*
X233210573Y-112375551D01*
X233201685Y-112381774D01*
X233116776Y-112466683D01*
X233066027Y-112575514D01*
X233059500Y-112625097D01*
X233059500Y-112984894D01*
X233059501Y-112984900D01*
X233066028Y-113034487D01*
X233066029Y-113034489D01*
X233066029Y-113034490D01*
X233116776Y-113143316D01*
X233170779Y-113197319D01*
X233204264Y-113258642D01*
X233199280Y-113328334D01*
X233170779Y-113372681D01*
X233116776Y-113426683D01*
X233066027Y-113535514D01*
X233059500Y-113585097D01*
X233059500Y-113944894D01*
X233059501Y-113944900D01*
X233066028Y-113994487D01*
X233066029Y-113994489D01*
X233066029Y-113994490D01*
X233116776Y-114103317D01*
X233122998Y-114112202D01*
X233121843Y-114113010D01*
X233126695Y-114121895D01*
X233141041Y-114138226D01*
X233143110Y-114151956D01*
X233149764Y-114164142D01*
X233148213Y-114185820D01*
X233151453Y-114207315D01*
X233145770Y-114219984D01*
X233144780Y-114233834D01*
X233131754Y-114251234D01*
X233122859Y-114271066D01*
X233111228Y-114278652D01*
X233102908Y-114289767D01*
X233082544Y-114297362D01*
X233064338Y-114309238D01*
X233041813Y-114312554D01*
X233037444Y-114314184D01*
X233029438Y-114314497D01*
X233028995Y-114314500D01*
X232804472Y-114314500D01*
X232793524Y-114316094D01*
X232784961Y-114316153D01*
X232759270Y-114308798D01*
X232732816Y-114305044D01*
X232726196Y-114299329D01*
X232717790Y-114296923D01*
X232700155Y-114276848D01*
X232679928Y-114259386D01*
X232677448Y-114250999D01*
X232671678Y-114244430D01*
X232667696Y-114218007D01*
X232660121Y-114192383D01*
X232661918Y-114179670D01*
X232661266Y-114175341D01*
X232663113Y-114171222D01*
X232665045Y-114157561D01*
X232674505Y-114125000D01*
X231065496Y-114125000D01*
X231107968Y-114271195D01*
X231190278Y-114410374D01*
X231190285Y-114410383D01*
X231304616Y-114524714D01*
X231310785Y-114529499D01*
X231309265Y-114531457D01*
X231348625Y-114573599D01*
X231361139Y-114642339D01*
X231360769Y-114645461D01*
X231359500Y-114655101D01*
X231359500Y-115014894D01*
X231359501Y-115014900D01*
X231366028Y-115064487D01*
X231366029Y-115064489D01*
X231366029Y-115064490D01*
X231401068Y-115139631D01*
X231416776Y-115173316D01*
X231501684Y-115258224D01*
X231610513Y-115308972D01*
X231660099Y-115315500D01*
X232079900Y-115315499D01*
X232129487Y-115308972D01*
X232238316Y-115258224D01*
X232323224Y-115173316D01*
X232323224Y-115173315D01*
X232324721Y-115171819D01*
X232351648Y-115157115D01*
X232377467Y-115140523D01*
X232383667Y-115139631D01*
X232386044Y-115138334D01*
X232412402Y-115135500D01*
X232435311Y-115135500D01*
X232502350Y-115155185D01*
X232546712Y-115205040D01*
X232550365Y-115212513D01*
X232632486Y-115294634D01*
X232632487Y-115294634D01*
X232632489Y-115294636D01*
X232736830Y-115345645D01*
X232804472Y-115355500D01*
X232804478Y-115355500D01*
X233165522Y-115355500D01*
X233165528Y-115355500D01*
X233233170Y-115345645D01*
X233337511Y-115294636D01*
X233343923Y-115288224D01*
X233382319Y-115249829D01*
X233386284Y-115247663D01*
X233388725Y-115243860D01*
X233416670Y-115231071D01*
X233443642Y-115216344D01*
X233448149Y-115216666D01*
X233452258Y-115214786D01*
X233482676Y-115219135D01*
X233513334Y-115221328D01*
X233518205Y-115224215D01*
X233521424Y-115224676D01*
X233535769Y-115234628D01*
X233551130Y-115243734D01*
X233554519Y-115246666D01*
X233602489Y-115294636D01*
X233619678Y-115303039D01*
X233631867Y-115313584D01*
X233642406Y-115329955D01*
X233656779Y-115343087D01*
X233660927Y-115358726D01*
X233669687Y-115372333D01*
X233669702Y-115391802D01*
X233674694Y-115410620D01*
X233669728Y-115426021D01*
X233669741Y-115442203D01*
X233659228Y-115458588D01*
X233653254Y-115477119D01*
X233638419Y-115495041D01*
X233566775Y-115566685D01*
X233516027Y-115675514D01*
X233509500Y-115725098D01*
X233509500Y-116144894D01*
X233509501Y-116144900D01*
X233516028Y-116194487D01*
X233516029Y-116194489D01*
X233516029Y-116194490D01*
X233566776Y-116303316D01*
X233583181Y-116319721D01*
X233616666Y-116381044D01*
X233619500Y-116407402D01*
X233619500Y-116700311D01*
X233599815Y-116767350D01*
X233549963Y-116811710D01*
X233542488Y-116815364D01*
X233542486Y-116815366D01*
X233460365Y-116897486D01*
X233409355Y-117001828D01*
X233409355Y-117001830D01*
X233399500Y-117069472D01*
X233399500Y-117430528D01*
X233403862Y-117460465D01*
X233409355Y-117498171D01*
X233460365Y-117602513D01*
X233505171Y-117647319D01*
X233509509Y-117655264D01*
X233516757Y-117660690D01*
X233525991Y-117685449D01*
X233538656Y-117708642D01*
X233538010Y-117717671D01*
X233541174Y-117726154D01*
X233535557Y-117751974D01*
X233533672Y-117778334D01*
X233527853Y-117787387D01*
X233526322Y-117794427D01*
X233505171Y-117822681D01*
X233476127Y-117851725D01*
X233414804Y-117885210D01*
X233345112Y-117880226D01*
X233300765Y-117851725D01*
X233218316Y-117769276D01*
X233144811Y-117735000D01*
X233109487Y-117718528D01*
X233109485Y-117718527D01*
X233109486Y-117718527D01*
X233059902Y-117712000D01*
X232700102Y-117712000D01*
X232691746Y-117713100D01*
X232690459Y-117713269D01*
X232621425Y-117702501D01*
X232575964Y-117662148D01*
X232574499Y-117663285D01*
X232569714Y-117657116D01*
X232455383Y-117542785D01*
X232455374Y-117542778D01*
X232316193Y-117460467D01*
X232316190Y-117460465D01*
X232170001Y-117417993D01*
X232170000Y-117417994D01*
X232170000Y-118098500D01*
X232150315Y-118165539D01*
X232097511Y-118211294D01*
X232046000Y-118222500D01*
X231920000Y-118222500D01*
X231920000Y-118348500D01*
X231900315Y-118415539D01*
X231847511Y-118461294D01*
X231796000Y-118472500D01*
X231141210Y-118472500D01*
X231142854Y-118493410D01*
X231187968Y-118648695D01*
X231270278Y-118787874D01*
X231270285Y-118787883D01*
X231384616Y-118902214D01*
X231384625Y-118902221D01*
X231461137Y-118947470D01*
X231508821Y-118998539D01*
X231521324Y-119067281D01*
X231505408Y-119116193D01*
X231503611Y-119119304D01*
X231503609Y-119119311D01*
X231503608Y-119119313D01*
X231503608Y-119119314D01*
X231469500Y-119246608D01*
X231469500Y-119378392D01*
X231470931Y-119383732D01*
X231469266Y-119453582D01*
X231430102Y-119511443D01*
X231365872Y-119538946D01*
X231296970Y-119527357D01*
X231263474Y-119503503D01*
X230304512Y-118544541D01*
X230304504Y-118544535D01*
X230235995Y-118504982D01*
X230235990Y-118504979D01*
X230210513Y-118498152D01*
X230159562Y-118484500D01*
X230159560Y-118484500D01*
X230062402Y-118484500D01*
X229995363Y-118464815D01*
X229974721Y-118448181D01*
X229888316Y-118361776D01*
X229867377Y-118352012D01*
X229779487Y-118311028D01*
X229779485Y-118311027D01*
X229779486Y-118311027D01*
X229729901Y-118304500D01*
X229310105Y-118304500D01*
X229294386Y-118306569D01*
X229260513Y-118311028D01*
X229260511Y-118311029D01*
X229260509Y-118311029D01*
X229151683Y-118361776D01*
X229065279Y-118448181D01*
X229003956Y-118481666D01*
X228977598Y-118484500D01*
X228417938Y-118484500D01*
X228384686Y-118493410D01*
X228341509Y-118504979D01*
X228341504Y-118504982D01*
X228272995Y-118544535D01*
X228272987Y-118544541D01*
X227661848Y-119155681D01*
X227600525Y-119189166D01*
X227574167Y-119192000D01*
X226530247Y-119192000D01*
X226471770Y-119203631D01*
X226471769Y-119203632D01*
X226418891Y-119238965D01*
X226352214Y-119259843D01*
X226284834Y-119241359D01*
X226281109Y-119238965D01*
X226228230Y-119203632D01*
X226228229Y-119203631D01*
X226169752Y-119192000D01*
X226169748Y-119192000D01*
X224930252Y-119192000D01*
X224930247Y-119192000D01*
X224871770Y-119203631D01*
X224871769Y-119203632D01*
X224805447Y-119247947D01*
X224761132Y-119314269D01*
X224761131Y-119314270D01*
X224749500Y-119372747D01*
X224749500Y-120812252D01*
X224761131Y-120870729D01*
X224761132Y-120870730D01*
X224805447Y-120937052D01*
X224871769Y-120981367D01*
X224871770Y-120981368D01*
X224930247Y-120992999D01*
X224930250Y-120993000D01*
X224930252Y-120993000D01*
X226169750Y-120993000D01*
X226169751Y-120992999D01*
X226184568Y-120990052D01*
X226228229Y-120981368D01*
X226228231Y-120981367D01*
X226263279Y-120957948D01*
X226281108Y-120946034D01*
X226347785Y-120925156D01*
X226415165Y-120943640D01*
X226418886Y-120946031D01*
X226428077Y-120952172D01*
X226471768Y-120981367D01*
X226471770Y-120981368D01*
X226530247Y-120992999D01*
X226530250Y-120993000D01*
X226530252Y-120993000D01*
X227769750Y-120993000D01*
X227769751Y-120992999D01*
X227784568Y-120990052D01*
X227828229Y-120981368D01*
X227828229Y-120981367D01*
X227828231Y-120981367D01*
X227894552Y-120937052D01*
X227938867Y-120870731D01*
X227938867Y-120870729D01*
X227938868Y-120870729D01*
X227950499Y-120812252D01*
X227950500Y-120812250D01*
X227950500Y-119995000D01*
X228715496Y-119995000D01*
X228757968Y-120141195D01*
X228840278Y-120280374D01*
X228840285Y-120280383D01*
X228954616Y-120394714D01*
X228954625Y-120394721D01*
X229093804Y-120477031D01*
X229249089Y-120522145D01*
X229270000Y-120523789D01*
X229270000Y-119995000D01*
X228715496Y-119995000D01*
X227950500Y-119995000D01*
X227950500Y-119768333D01*
X227970185Y-119701294D01*
X227986819Y-119680652D01*
X228545652Y-119121819D01*
X228606975Y-119088334D01*
X228633333Y-119085500D01*
X228696291Y-119085500D01*
X228763330Y-119105185D01*
X228809085Y-119157989D01*
X228819029Y-119227147D01*
X228803023Y-119272621D01*
X228757968Y-119348804D01*
X228715496Y-119495000D01*
X230353667Y-119495000D01*
X230420706Y-119514685D01*
X230441348Y-119531319D01*
X230641100Y-119731071D01*
X230649915Y-119747216D01*
X230662803Y-119760347D01*
X230666313Y-119777246D01*
X230674585Y-119792394D01*
X230673272Y-119810743D01*
X230677015Y-119828757D01*
X230670832Y-119844870D01*
X230669601Y-119862086D01*
X230658574Y-119876814D01*
X230651985Y-119893989D01*
X230633650Y-119910109D01*
X230627729Y-119918019D01*
X230626796Y-119918711D01*
X230621304Y-119922742D01*
X230545921Y-119966265D01*
X230501495Y-120010690D01*
X230493873Y-120016286D01*
X230469555Y-120025097D01*
X230446853Y-120037494D01*
X230437242Y-120036806D01*
X230428183Y-120040089D01*
X230402958Y-120034353D01*
X230377161Y-120032508D01*
X230369432Y-120026730D01*
X230360052Y-120024598D01*
X230342076Y-120006282D01*
X230326983Y-119995000D01*
X229770000Y-119995000D01*
X229770000Y-120531000D01*
X229750315Y-120598039D01*
X229697511Y-120643794D01*
X229646000Y-120655000D01*
X229584901Y-120655000D01*
X229570285Y-120669616D01*
X229570278Y-120669625D01*
X229487968Y-120808804D01*
X229487966Y-120808809D01*
X229442855Y-120964081D01*
X229442854Y-120964087D01*
X229441209Y-120984999D01*
X229441210Y-120985000D01*
X230096000Y-120985000D01*
X230163039Y-121004685D01*
X230208794Y-121057489D01*
X230220000Y-121109000D01*
X230220000Y-121361000D01*
X230200315Y-121428039D01*
X230147511Y-121473794D01*
X230096000Y-121485000D01*
X229441210Y-121485000D01*
X229442854Y-121505910D01*
X229487968Y-121661195D01*
X229525701Y-121724999D01*
X229525703Y-121725000D01*
X229646000Y-121725000D01*
X229713039Y-121744685D01*
X229758794Y-121797489D01*
X229770000Y-121849000D01*
X229770000Y-122511000D01*
X229750315Y-122578039D01*
X229697511Y-122623794D01*
X229646000Y-122635000D01*
X229520000Y-122635000D01*
X229520000Y-122761000D01*
X229500315Y-122828039D01*
X229447511Y-122873794D01*
X229396000Y-122885000D01*
X228715496Y-122885000D01*
X228757968Y-123031195D01*
X228803023Y-123107379D01*
X228820206Y-123175103D01*
X228798046Y-123241366D01*
X228743580Y-123285129D01*
X228696291Y-123294500D01*
X228021337Y-123294500D01*
X227954298Y-123274815D01*
X227908543Y-123222011D01*
X227898599Y-123152853D01*
X227918235Y-123101609D01*
X227935711Y-123075454D01*
X227938867Y-123070731D01*
X227938867Y-123070729D01*
X227938868Y-123070729D01*
X227950499Y-123012252D01*
X227950500Y-123012250D01*
X227950500Y-122385000D01*
X228715496Y-122385000D01*
X229270000Y-122385000D01*
X229270000Y-121856210D01*
X229269999Y-121856209D01*
X229249087Y-121857854D01*
X229249081Y-121857855D01*
X229093809Y-121902966D01*
X229093804Y-121902968D01*
X228954625Y-121985278D01*
X228954616Y-121985285D01*
X228840285Y-122099616D01*
X228840278Y-122099625D01*
X228757968Y-122238804D01*
X228715496Y-122385000D01*
X227950500Y-122385000D01*
X227950500Y-121572749D01*
X227950499Y-121572747D01*
X227938868Y-121514270D01*
X227938867Y-121514269D01*
X227894552Y-121447947D01*
X227828230Y-121403632D01*
X227828229Y-121403631D01*
X227769752Y-121392000D01*
X227769748Y-121392000D01*
X226530252Y-121392000D01*
X226530247Y-121392000D01*
X226471770Y-121403631D01*
X226471769Y-121403632D01*
X226418891Y-121438965D01*
X226352214Y-121459843D01*
X226284834Y-121441359D01*
X226281109Y-121438965D01*
X226228230Y-121403632D01*
X226228229Y-121403631D01*
X226169752Y-121392000D01*
X226169748Y-121392000D01*
X224930252Y-121392000D01*
X224930247Y-121392000D01*
X224871770Y-121403631D01*
X224871769Y-121403632D01*
X224805447Y-121447947D01*
X224761132Y-121514269D01*
X224761131Y-121514270D01*
X224749500Y-121572747D01*
X224749500Y-123012252D01*
X224761131Y-123070729D01*
X224761132Y-123070730D01*
X224805447Y-123137052D01*
X224871769Y-123181367D01*
X224871770Y-123181368D01*
X224930247Y-123192999D01*
X224930250Y-123193000D01*
X224930252Y-123193000D01*
X225874167Y-123193000D01*
X225941206Y-123212685D01*
X225961848Y-123229319D01*
X226512040Y-123779511D01*
X226567989Y-123835460D01*
X226567991Y-123835461D01*
X226567995Y-123835464D01*
X226636504Y-123875017D01*
X226636511Y-123875021D01*
X226712938Y-123895500D01*
X226792062Y-123895500D01*
X228977598Y-123895500D01*
X229044637Y-123915185D01*
X229065279Y-123931819D01*
X229066776Y-123933316D01*
X229151684Y-124018224D01*
X229260513Y-124068972D01*
X229310099Y-124075500D01*
X229540167Y-124075499D01*
X229607206Y-124095183D01*
X229652961Y-124147987D01*
X229662905Y-124217146D01*
X229633880Y-124280701D01*
X229627848Y-124287180D01*
X228678034Y-125236994D01*
X228678025Y-125237003D01*
X228675489Y-125239540D01*
X228619540Y-125295489D01*
X228607701Y-125315992D01*
X228599268Y-125325465D01*
X228597499Y-125326568D01*
X228594336Y-125330691D01*
X227635860Y-126289168D01*
X227574537Y-126322653D01*
X227504846Y-126317669D01*
X227476352Y-126296338D01*
X227496604Y-126322090D01*
X227503246Y-126391644D01*
X227471231Y-126453747D01*
X227469169Y-126455859D01*
X227388506Y-126536523D01*
X227205489Y-126719540D01*
X227149541Y-126775487D01*
X227149535Y-126775495D01*
X227109982Y-126844004D01*
X227109979Y-126844009D01*
X227104045Y-126866156D01*
X227091126Y-126914372D01*
X227089500Y-126920439D01*
X227089500Y-127720815D01*
X227069815Y-127787854D01*
X227017011Y-127833609D01*
X226947853Y-127843553D01*
X226905214Y-127829174D01*
X226879038Y-127814611D01*
X226859552Y-127785448D01*
X226793231Y-127741133D01*
X226734748Y-127729500D01*
X226726058Y-127729500D01*
X226704214Y-127717347D01*
X226692806Y-127705757D01*
X226678397Y-127698220D01*
X226668801Y-127681369D01*
X226655201Y-127667552D01*
X226651870Y-127651636D01*
X226643823Y-127637504D01*
X226640500Y-127608988D01*
X226640500Y-126927964D01*
X226660185Y-126860925D01*
X226676815Y-126840287D01*
X227168990Y-126348111D01*
X227216228Y-126320842D01*
X227215674Y-126319504D01*
X227223186Y-126316392D01*
X227257920Y-126296338D01*
X227319489Y-126260791D01*
X227387386Y-126244318D01*
X227444550Y-126264102D01*
X227424495Y-126210333D01*
X227439347Y-126142060D01*
X227440755Y-126139550D01*
X227496392Y-126043186D01*
X227530500Y-125915892D01*
X227530500Y-125784108D01*
X227496392Y-125656814D01*
X227430500Y-125542686D01*
X227337314Y-125449500D01*
X227269764Y-125410500D01*
X227223187Y-125383608D01*
X227159539Y-125366554D01*
X227095892Y-125349500D01*
X226964108Y-125349500D01*
X226836812Y-125383608D01*
X226722686Y-125449500D01*
X226722683Y-125449502D01*
X226629502Y-125542683D01*
X226629498Y-125542689D01*
X226563606Y-125656816D01*
X226560495Y-125664328D01*
X226559161Y-125663775D01*
X226531886Y-125711009D01*
X225829513Y-126413383D01*
X225829509Y-126413389D01*
X225770201Y-126516112D01*
X225770200Y-126516117D01*
X225739500Y-126630691D01*
X225739500Y-127608988D01*
X225719815Y-127676027D01*
X225667011Y-127721782D01*
X225639692Y-127730605D01*
X225586770Y-127741132D01*
X225586769Y-127741132D01*
X225520447Y-127785447D01*
X225476132Y-127851769D01*
X225476131Y-127851770D01*
X225464500Y-127910247D01*
X225464500Y-128363984D01*
X225444815Y-128431023D01*
X225428181Y-128451665D01*
X223522816Y-130357030D01*
X223495098Y-130384748D01*
X223420368Y-130459477D01*
X223339881Y-130579933D01*
X223339874Y-130579946D01*
X223284436Y-130713787D01*
X223284433Y-130713799D01*
X223256170Y-130855885D01*
X223256170Y-130978043D01*
X223236485Y-131045082D01*
X223205055Y-131078361D01*
X223144457Y-131122387D01*
X223144452Y-131122391D01*
X222999698Y-131267145D01*
X222879385Y-131432745D01*
X222786451Y-131615135D01*
X222723192Y-131809824D01*
X222691170Y-132012007D01*
X222691170Y-132216710D01*
X222723192Y-132418893D01*
X222786451Y-132613582D01*
X222840190Y-132719049D01*
X222857771Y-132753554D01*
X222879385Y-132795972D01*
X222999698Y-132961572D01*
X223144456Y-133106330D01*
X223294717Y-133215499D01*
X223310060Y-133226646D01*
X223406901Y-133275989D01*
X223492446Y-133319577D01*
X223492448Y-133319577D01*
X223492451Y-133319579D01*
X223569184Y-133344511D01*
X223687135Y-133382836D01*
X223788227Y-133398847D01*
X223889318Y-133414859D01*
X223889319Y-133414859D01*
X224094021Y-133414859D01*
X224094022Y-133414859D01*
X224296204Y-133382836D01*
X224490889Y-133319579D01*
X224673280Y-133226646D01*
X224766260Y-133159091D01*
X224838883Y-133106330D01*
X224838885Y-133106327D01*
X224838889Y-133106325D01*
X224983636Y-132961578D01*
X224983638Y-132961574D01*
X224983641Y-132961572D01*
X225054835Y-132863580D01*
X225103957Y-132795969D01*
X225196890Y-132613578D01*
X225260147Y-132418893D01*
X225292170Y-132216711D01*
X225292170Y-132012007D01*
X225286958Y-131979100D01*
X225260147Y-131809824D01*
X225213380Y-131665891D01*
X225196890Y-131615140D01*
X225196888Y-131615137D01*
X225196888Y-131615135D01*
X225155602Y-131534108D01*
X225103957Y-131432749D01*
X225085113Y-131406812D01*
X224983641Y-131267145D01*
X224926005Y-131209509D01*
X224892520Y-131148186D01*
X224897504Y-131078494D01*
X224926003Y-131034149D01*
X226193335Y-129766819D01*
X226254658Y-129733334D01*
X226281016Y-129730500D01*
X226734750Y-129730500D01*
X226734751Y-129730499D01*
X226749568Y-129727552D01*
X226793229Y-129718868D01*
X226793229Y-129718867D01*
X226793231Y-129718867D01*
X226859552Y-129674552D01*
X226862397Y-129670293D01*
X226916009Y-129625488D01*
X226985334Y-129616781D01*
X227048362Y-129646935D01*
X227085082Y-129706378D01*
X227089500Y-129739184D01*
X227089500Y-133199562D01*
X227097922Y-133230991D01*
X227109979Y-133275989D01*
X227135145Y-133319578D01*
X227135147Y-133319580D01*
X227149542Y-133344514D01*
X227149543Y-133344515D01*
X227902848Y-134097819D01*
X227936333Y-134159142D01*
X227931349Y-134228833D01*
X227889477Y-134284767D01*
X227824013Y-134309184D01*
X227815167Y-134309500D01*
X227307976Y-134309500D01*
X227240937Y-134289815D01*
X227204874Y-134254391D01*
X227144114Y-134163458D01*
X227144111Y-134163454D01*
X227046545Y-134065888D01*
X227046541Y-134065885D01*
X226931817Y-133989228D01*
X226931804Y-133989221D01*
X226804332Y-133936421D01*
X226804322Y-133936418D01*
X226668995Y-133909500D01*
X226668993Y-133909500D01*
X226531007Y-133909500D01*
X226531005Y-133909500D01*
X226395677Y-133936418D01*
X226395667Y-133936421D01*
X226268195Y-133989221D01*
X226268182Y-133989228D01*
X226153458Y-134065885D01*
X226153454Y-134065888D01*
X226055888Y-134163454D01*
X226055885Y-134163458D01*
X225979228Y-134278182D01*
X225979221Y-134278195D01*
X225926421Y-134405667D01*
X225926418Y-134405677D01*
X225899500Y-134541004D01*
X225899500Y-134541007D01*
X225899500Y-134678993D01*
X225899500Y-134678995D01*
X225899499Y-134678995D01*
X225926418Y-134814322D01*
X225926421Y-134814332D01*
X225979221Y-134941804D01*
X225979228Y-134941817D01*
X226055885Y-135056541D01*
X226055888Y-135056545D01*
X226153454Y-135154111D01*
X226153458Y-135154114D01*
X226268182Y-135230771D01*
X226268195Y-135230778D01*
X226368613Y-135272372D01*
X226395672Y-135283580D01*
X226395676Y-135283580D01*
X226395677Y-135283581D01*
X226531004Y-135310500D01*
X226531007Y-135310500D01*
X226668995Y-135310500D01*
X226760041Y-135292389D01*
X226804328Y-135283580D01*
X226931811Y-135230775D01*
X227046542Y-135154114D01*
X227144114Y-135056542D01*
X227204874Y-134965609D01*
X227258486Y-134920804D01*
X227307976Y-134910500D01*
X228381323Y-134910500D01*
X228448362Y-134930185D01*
X228469004Y-134946818D01*
X228469499Y-134947313D01*
X228469500Y-134947314D01*
X228562686Y-135040500D01*
X228676814Y-135106392D01*
X228804108Y-135140500D01*
X228804110Y-135140500D01*
X228935890Y-135140500D01*
X228935892Y-135140500D01*
X229063186Y-135106392D01*
X229177314Y-135040500D01*
X229270500Y-134947314D01*
X229336392Y-134833186D01*
X229370500Y-134705892D01*
X229370500Y-134574108D01*
X229336392Y-134446814D01*
X229330424Y-134436478D01*
X229312641Y-134405677D01*
X229270500Y-134332686D01*
X229177314Y-134239500D01*
X229115873Y-134204027D01*
X229063187Y-134173608D01*
X228999539Y-134156554D01*
X228935892Y-134139500D01*
X228845833Y-134139500D01*
X228778794Y-134119815D01*
X228758152Y-134103181D01*
X227726819Y-133071848D01*
X227693334Y-133010525D01*
X227690500Y-132984167D01*
X227690500Y-132258995D01*
X228109499Y-132258995D01*
X228136418Y-132394322D01*
X228136421Y-132394332D01*
X228189221Y-132521804D01*
X228189228Y-132521817D01*
X228265885Y-132636541D01*
X228265888Y-132636545D01*
X228363454Y-132734111D01*
X228363458Y-132734114D01*
X228478182Y-132810771D01*
X228478195Y-132810778D01*
X228605667Y-132863578D01*
X228605672Y-132863580D01*
X228605676Y-132863580D01*
X228605677Y-132863581D01*
X228741004Y-132890500D01*
X228741007Y-132890500D01*
X228878995Y-132890500D01*
X228970041Y-132872389D01*
X229014328Y-132863580D01*
X229141811Y-132810775D01*
X229256542Y-132734114D01*
X229354114Y-132636542D01*
X229430775Y-132521811D01*
X229483580Y-132394328D01*
X229493342Y-132345252D01*
X229510500Y-132258995D01*
X229510500Y-132121004D01*
X229510499Y-132121002D01*
X229496116Y-132048691D01*
X229502343Y-131979100D01*
X229545206Y-131923922D01*
X229611096Y-131900678D01*
X229617733Y-131900500D01*
X233341324Y-131900500D01*
X233408363Y-131920185D01*
X233429005Y-131936819D01*
X233492686Y-132000500D01*
X233606814Y-132066392D01*
X233734108Y-132100500D01*
X233734110Y-132100500D01*
X233865890Y-132100500D01*
X233865892Y-132100500D01*
X233993186Y-132066392D01*
X234107314Y-132000500D01*
X234200500Y-131907314D01*
X234266392Y-131793186D01*
X234300500Y-131665892D01*
X234300500Y-131534108D01*
X234266392Y-131406814D01*
X234200500Y-131292686D01*
X234107314Y-131199500D01*
X233999621Y-131137323D01*
X233993187Y-131133608D01*
X233908266Y-131110854D01*
X233865892Y-131099500D01*
X233734108Y-131099500D01*
X233691734Y-131110853D01*
X233691733Y-131110854D01*
X233606812Y-131133608D01*
X233492686Y-131199500D01*
X233492683Y-131199502D01*
X233429005Y-131263181D01*
X233367682Y-131296666D01*
X233341324Y-131299500D01*
X229360438Y-131299500D01*
X229322224Y-131309739D01*
X229284009Y-131319979D01*
X229284004Y-131319982D01*
X229215495Y-131359535D01*
X229215491Y-131359538D01*
X229098128Y-131476900D01*
X229036804Y-131510384D01*
X228986256Y-131510835D01*
X228878997Y-131489500D01*
X228878993Y-131489500D01*
X228741007Y-131489500D01*
X228741005Y-131489500D01*
X228605677Y-131516418D01*
X228605667Y-131516421D01*
X228478195Y-131569221D01*
X228478182Y-131569228D01*
X228363458Y-131645885D01*
X228363454Y-131645888D01*
X228265888Y-131743454D01*
X228265885Y-131743458D01*
X228189228Y-131858182D01*
X228189221Y-131858195D01*
X228136421Y-131985667D01*
X228136418Y-131985677D01*
X228109500Y-132121004D01*
X228109500Y-132121007D01*
X228109500Y-132258993D01*
X228109500Y-132258995D01*
X228109499Y-132258995D01*
X227690500Y-132258995D01*
X227690500Y-130412844D01*
X231640000Y-130412844D01*
X231646401Y-130472372D01*
X231646403Y-130472379D01*
X231696645Y-130607086D01*
X231696649Y-130607093D01*
X231782809Y-130722187D01*
X231782812Y-130722190D01*
X231897906Y-130808350D01*
X231897913Y-130808354D01*
X232032620Y-130858596D01*
X232032627Y-130858598D01*
X232092155Y-130864999D01*
X232092172Y-130865000D01*
X232630000Y-130865000D01*
X233130000Y-130865000D01*
X233659181Y-130865000D01*
X233738548Y-130854430D01*
X233862086Y-130808354D01*
X233862093Y-130808350D01*
X233977187Y-130722190D01*
X233977190Y-130722187D01*
X234063350Y-130607093D01*
X234063354Y-130607086D01*
X234113596Y-130472379D01*
X234113598Y-130472372D01*
X234119999Y-130412844D01*
X234120000Y-130412827D01*
X234120000Y-129320000D01*
X233130000Y-129320000D01*
X233130000Y-130865000D01*
X232630000Y-130865000D01*
X232630000Y-129320000D01*
X231640000Y-129320000D01*
X231640000Y-130412844D01*
X227690500Y-130412844D01*
X227690500Y-129577844D01*
X228115000Y-129577844D01*
X228121401Y-129637372D01*
X228121403Y-129637379D01*
X228171645Y-129772086D01*
X228171649Y-129772093D01*
X228257809Y-129887187D01*
X228257812Y-129887190D01*
X228372906Y-129973350D01*
X228372913Y-129973354D01*
X228507620Y-130023596D01*
X228507627Y-130023598D01*
X228567155Y-130029999D01*
X228567172Y-130030000D01*
X228890000Y-130030000D01*
X229390000Y-130030000D01*
X229712828Y-130030000D01*
X229712844Y-130029999D01*
X229772372Y-130023598D01*
X229772379Y-130023596D01*
X229907086Y-129973354D01*
X229907093Y-129973350D01*
X230022187Y-129887190D01*
X230022190Y-129887187D01*
X230108350Y-129772093D01*
X230108354Y-129772086D01*
X230158596Y-129637379D01*
X230158598Y-129637372D01*
X230164999Y-129577844D01*
X230165000Y-129577827D01*
X230165000Y-128980000D01*
X229390000Y-128980000D01*
X229390000Y-130030000D01*
X228890000Y-130030000D01*
X228890000Y-128980000D01*
X228115000Y-128980000D01*
X228115000Y-129577844D01*
X227690500Y-129577844D01*
X227690500Y-127882155D01*
X228115000Y-127882155D01*
X228115000Y-128480000D01*
X228890000Y-128480000D01*
X229390000Y-128480000D01*
X230165000Y-128480000D01*
X230165000Y-127882172D01*
X230164999Y-127882155D01*
X230158598Y-127822627D01*
X230158596Y-127822620D01*
X230108354Y-127687913D01*
X230108350Y-127687906D01*
X230022190Y-127572812D01*
X230022187Y-127572809D01*
X229907093Y-127486649D01*
X229907086Y-127486645D01*
X229772379Y-127436403D01*
X229772372Y-127436401D01*
X229712844Y-127430000D01*
X229390000Y-127430000D01*
X229390000Y-128480000D01*
X228890000Y-128480000D01*
X228890000Y-127430000D01*
X228567155Y-127430000D01*
X228507627Y-127436401D01*
X228507620Y-127436403D01*
X228372913Y-127486645D01*
X228372906Y-127486649D01*
X228257812Y-127572809D01*
X228257809Y-127572812D01*
X228171649Y-127687906D01*
X228171645Y-127687913D01*
X228121403Y-127822620D01*
X228121401Y-127822627D01*
X228115000Y-127882155D01*
X227690500Y-127882155D01*
X227690500Y-127135833D01*
X227710185Y-127068794D01*
X227726819Y-127048152D01*
X229110457Y-125664514D01*
X229110460Y-125664511D01*
X229115957Y-125654988D01*
X229135660Y-125629309D01*
X231913851Y-122851119D01*
X231923642Y-122845773D01*
X231930631Y-122837070D01*
X231953764Y-122829325D01*
X231975172Y-122817636D01*
X231986302Y-122818432D01*
X231996886Y-122814889D01*
X232020531Y-122820879D01*
X232044864Y-122822620D01*
X232053798Y-122829308D01*
X232064616Y-122832049D01*
X232081269Y-122849873D01*
X232100797Y-122864492D01*
X232105939Y-122876278D01*
X232112316Y-122883103D01*
X232119036Y-122906293D01*
X232123521Y-122916571D01*
X232124500Y-122921943D01*
X232124500Y-122922248D01*
X232125162Y-122925579D01*
X232125345Y-122926580D01*
X232121773Y-122960358D01*
X232118743Y-122994213D01*
X232118087Y-122995212D01*
X232117998Y-122996062D01*
X232115458Y-122999224D01*
X232091035Y-123036492D01*
X230765489Y-124362040D01*
X230709541Y-124417987D01*
X230709535Y-124417995D01*
X230669982Y-124486504D01*
X230669979Y-124486509D01*
X230649500Y-124562939D01*
X230649500Y-126781323D01*
X230629815Y-126848362D01*
X230613182Y-126869004D01*
X230549500Y-126932686D01*
X230483608Y-127046812D01*
X230452499Y-127162916D01*
X230449500Y-127174108D01*
X230449500Y-127305892D01*
X230466554Y-127369539D01*
X230483608Y-127433187D01*
X230514473Y-127486645D01*
X230549500Y-127547314D01*
X230642686Y-127640500D01*
X230756814Y-127706392D01*
X230884108Y-127740500D01*
X230884110Y-127740500D01*
X231015890Y-127740500D01*
X231015892Y-127740500D01*
X231065697Y-127727155D01*
X231640000Y-127727155D01*
X231640000Y-128820000D01*
X232630000Y-128820000D01*
X232630000Y-127275000D01*
X232092155Y-127275000D01*
X232032627Y-127281401D01*
X232032620Y-127281403D01*
X231897913Y-127331645D01*
X231897906Y-127331649D01*
X231782812Y-127417809D01*
X231782809Y-127417812D01*
X231696649Y-127532906D01*
X231696645Y-127532913D01*
X231646403Y-127667620D01*
X231646401Y-127667627D01*
X231640000Y-127727155D01*
X231065697Y-127727155D01*
X231143186Y-127706392D01*
X231257314Y-127640500D01*
X231350500Y-127547314D01*
X231416392Y-127433186D01*
X231450500Y-127305892D01*
X231450500Y-127174108D01*
X231416392Y-127046814D01*
X231350500Y-126932686D01*
X231286818Y-126869004D01*
X231272113Y-126842073D01*
X231255523Y-126816258D01*
X231254631Y-126810055D01*
X231253334Y-126807680D01*
X231250500Y-126781323D01*
X231250500Y-126634501D01*
X231270185Y-126567462D01*
X231322989Y-126521707D01*
X231392147Y-126511763D01*
X231450503Y-126536523D01*
X231454627Y-126539722D01*
X231593804Y-126622031D01*
X231749089Y-126667145D01*
X231770000Y-126668789D01*
X232270000Y-126668789D01*
X232290910Y-126667145D01*
X232446195Y-126622031D01*
X232531879Y-126571358D01*
X232599602Y-126554175D01*
X232658121Y-126571358D01*
X232743804Y-126622031D01*
X232899089Y-126667145D01*
X232920000Y-126668789D01*
X232920000Y-126140000D01*
X232270000Y-126140000D01*
X232270000Y-126668789D01*
X231770000Y-126668789D01*
X231770000Y-126014000D01*
X231789685Y-125946961D01*
X231842489Y-125901206D01*
X231894000Y-125890000D01*
X232020000Y-125890000D01*
X232020000Y-125764000D01*
X232039685Y-125696961D01*
X232092489Y-125651206D01*
X232144000Y-125640000D01*
X233046000Y-125640000D01*
X233113039Y-125659685D01*
X233158794Y-125712489D01*
X233170000Y-125764000D01*
X233170000Y-125890000D01*
X233296000Y-125890000D01*
X233363039Y-125909685D01*
X233408794Y-125962489D01*
X233420000Y-126014000D01*
X233420000Y-126373234D01*
X233403388Y-126435233D01*
X233373608Y-126486813D01*
X233373608Y-126486814D01*
X233339500Y-126614108D01*
X233339500Y-126745892D01*
X233347432Y-126775495D01*
X233373608Y-126873187D01*
X233397387Y-126914372D01*
X233439500Y-126987314D01*
X233439502Y-126987316D01*
X233515505Y-127063319D01*
X233548990Y-127124642D01*
X233544006Y-127194334D01*
X233502134Y-127250267D01*
X233436670Y-127274684D01*
X233427824Y-127275000D01*
X233130000Y-127275000D01*
X233130000Y-128820000D01*
X234120000Y-128820000D01*
X234120000Y-127727172D01*
X234119999Y-127727155D01*
X234113598Y-127667627D01*
X234113596Y-127667620D01*
X234063354Y-127532913D01*
X234063350Y-127532906D01*
X233977190Y-127417812D01*
X233977187Y-127417809D01*
X233929295Y-127381957D01*
X233887424Y-127326024D01*
X233882440Y-127256332D01*
X233915926Y-127195009D01*
X233971511Y-127162917D01*
X234033186Y-127146392D01*
X234147314Y-127080500D01*
X234240500Y-126987314D01*
X234240504Y-126987306D01*
X234245448Y-126980865D01*
X234247761Y-126982640D01*
X234288171Y-126944103D01*
X234356777Y-126930875D01*
X234421644Y-126956837D01*
X234443297Y-126981827D01*
X234444552Y-126980865D01*
X234449498Y-126987311D01*
X234449500Y-126987314D01*
X234542686Y-127080500D01*
X234656814Y-127146392D01*
X234784108Y-127180500D01*
X234784110Y-127180500D01*
X234915890Y-127180500D01*
X234915892Y-127180500D01*
X235043186Y-127146392D01*
X235157314Y-127080500D01*
X235250500Y-126987314D01*
X235292613Y-126914371D01*
X235343180Y-126866156D01*
X235411787Y-126852933D01*
X235476652Y-126878901D01*
X235507386Y-126914371D01*
X235549500Y-126987314D01*
X235642686Y-127080500D01*
X235756814Y-127146392D01*
X235884108Y-127180500D01*
X235884110Y-127180500D01*
X236015890Y-127180500D01*
X236015892Y-127180500D01*
X236143186Y-127146392D01*
X236257314Y-127080500D01*
X236350500Y-126987314D01*
X236416392Y-126873186D01*
X236450500Y-126745892D01*
X236450500Y-126614108D01*
X236416392Y-126486814D01*
X236350500Y-126372686D01*
X236257314Y-126279500D01*
X236143186Y-126213608D01*
X236092405Y-126200001D01*
X236032746Y-126163637D01*
X236002217Y-126100790D01*
X236000500Y-126080227D01*
X236000500Y-125437676D01*
X236020185Y-125370637D01*
X236072989Y-125324882D01*
X236142147Y-125314938D01*
X236205703Y-125343963D01*
X236212181Y-125349995D01*
X236292686Y-125430500D01*
X236377626Y-125479540D01*
X236406810Y-125496390D01*
X236406814Y-125496392D01*
X236534108Y-125530500D01*
X236534110Y-125530500D01*
X236665890Y-125530500D01*
X236665892Y-125530500D01*
X236793186Y-125496392D01*
X236846974Y-125465337D01*
X236914871Y-125448864D01*
X236980898Y-125471715D01*
X237024090Y-125526635D01*
X237030733Y-125596189D01*
X237016362Y-125634721D01*
X237003609Y-125656810D01*
X237003609Y-125656811D01*
X237003609Y-125656812D01*
X237003608Y-125656814D01*
X236969500Y-125784108D01*
X236969500Y-125915892D01*
X236981986Y-125962489D01*
X237003608Y-126043187D01*
X237036554Y-126100250D01*
X237069500Y-126157314D01*
X237162686Y-126250500D01*
X237276814Y-126316392D01*
X237404108Y-126350500D01*
X237404110Y-126350500D01*
X237535890Y-126350500D01*
X237535892Y-126350500D01*
X237663186Y-126316392D01*
X237777314Y-126250500D01*
X237870500Y-126157314D01*
X237936392Y-126043186D01*
X237961900Y-125947986D01*
X237993992Y-125892399D01*
X238184636Y-125701755D01*
X238245957Y-125668272D01*
X238296506Y-125667821D01*
X238360247Y-125680499D01*
X238360250Y-125680500D01*
X238360252Y-125680500D01*
X238642745Y-125680500D01*
X238709784Y-125700185D01*
X238730426Y-125716819D01*
X239884087Y-126870480D01*
X239975412Y-126923207D01*
X240077273Y-126950500D01*
X240182727Y-126950500D01*
X240184634Y-126950500D01*
X240251673Y-126970185D01*
X240297428Y-127022989D01*
X240307372Y-127092147D01*
X240278347Y-127155703D01*
X240240929Y-127184985D01*
X240211416Y-127200022D01*
X240007668Y-127348055D01*
X240007667Y-127348055D01*
X239829587Y-127526135D01*
X239804481Y-127560690D01*
X240800000Y-128135452D01*
X240742993Y-128168366D01*
X240649901Y-128261458D01*
X240584075Y-128375472D01*
X240550000Y-128502639D01*
X240550000Y-128568463D01*
X240547163Y-128566826D01*
X239554422Y-127993666D01*
X239554421Y-127993667D01*
X239489397Y-128193793D01*
X239450000Y-128442536D01*
X239450000Y-128694393D01*
X239489397Y-128943134D01*
X239567219Y-129182649D01*
X239681557Y-129407048D01*
X239829590Y-129610796D01*
X239829591Y-129610798D01*
X240007663Y-129788871D01*
X240042224Y-129813980D01*
X240616987Y-128818463D01*
X240649901Y-128875472D01*
X240742993Y-128968564D01*
X240857007Y-129034390D01*
X240984174Y-129068465D01*
X241049998Y-129068465D01*
X240475201Y-130064041D01*
X240675331Y-130129067D01*
X240924072Y-130168465D01*
X241175928Y-130168465D01*
X241424669Y-130129067D01*
X241664184Y-130051245D01*
X241888583Y-129936907D01*
X242092328Y-129788877D01*
X242219677Y-129661530D01*
X242270408Y-129610799D01*
X242295516Y-129576239D01*
X241300000Y-129001476D01*
X241357007Y-128968564D01*
X241450099Y-128875472D01*
X241515925Y-128761458D01*
X241550000Y-128634291D01*
X241550000Y-128568465D01*
X242545576Y-129143262D01*
X242545576Y-129143261D01*
X242610603Y-128943133D01*
X242650000Y-128694393D01*
X242650000Y-128442536D01*
X242610602Y-128193795D01*
X242532780Y-127954280D01*
X242418442Y-127729881D01*
X242270409Y-127526133D01*
X242270409Y-127526132D01*
X242092332Y-127348055D01*
X242057773Y-127322947D01*
X241483011Y-128318463D01*
X241450099Y-128261458D01*
X241357007Y-128168366D01*
X241242993Y-128102540D01*
X241115826Y-128068465D01*
X241049999Y-128068465D01*
X241637020Y-127051715D01*
X241636825Y-127049302D01*
X241669722Y-126987662D01*
X241730722Y-126953592D01*
X241758238Y-126950500D01*
X245613000Y-126950500D01*
X245680039Y-126970185D01*
X245725794Y-127022989D01*
X245737000Y-127074500D01*
X245737000Y-128202252D01*
X245748631Y-128260729D01*
X245748632Y-128260730D01*
X245792947Y-128327052D01*
X245859269Y-128371367D01*
X245859270Y-128371368D01*
X245917747Y-128382999D01*
X245917750Y-128383000D01*
X245917752Y-128383000D01*
X247682250Y-128383000D01*
X247682251Y-128382999D01*
X247697068Y-128380052D01*
X247740729Y-128371368D01*
X247740729Y-128371367D01*
X247740731Y-128371367D01*
X247807052Y-128327052D01*
X247851367Y-128260731D01*
X247851367Y-128260729D01*
X247851368Y-128260729D01*
X247862999Y-128202252D01*
X247863000Y-128202250D01*
X247863000Y-126437749D01*
X247862999Y-126437747D01*
X247851368Y-126379270D01*
X247851367Y-126379269D01*
X247807052Y-126312947D01*
X247740730Y-126268632D01*
X247740729Y-126268631D01*
X247682252Y-126257000D01*
X247682248Y-126257000D01*
X246353818Y-126257000D01*
X246286779Y-126237315D01*
X246278332Y-126231376D01*
X246275916Y-126229522D01*
X246261715Y-126221323D01*
X246246967Y-126212808D01*
X246184589Y-126176793D01*
X246111897Y-126157316D01*
X246082727Y-126149500D01*
X246082726Y-126149500D01*
X240347255Y-126149500D01*
X240280216Y-126129815D01*
X240259574Y-126113181D01*
X239316819Y-125170426D01*
X239283334Y-125109103D01*
X239280500Y-125082745D01*
X239280500Y-124810249D01*
X239280499Y-124810247D01*
X239268868Y-124751770D01*
X239268867Y-124751769D01*
X239224552Y-124685447D01*
X239158230Y-124641132D01*
X239158229Y-124641131D01*
X239099752Y-124629500D01*
X239099748Y-124629500D01*
X238360252Y-124629500D01*
X238360247Y-124629500D01*
X238301770Y-124641131D01*
X238301769Y-124641132D01*
X238235447Y-124685447D01*
X238226131Y-124699391D01*
X238172518Y-124744196D01*
X238161927Y-124748241D01*
X238142982Y-124754500D01*
X238112273Y-124754500D01*
X238010413Y-124781793D01*
X237954610Y-124814011D01*
X237943591Y-124820372D01*
X237943590Y-124820373D01*
X237919087Y-124834519D01*
X237919085Y-124834521D01*
X237427600Y-125326005D01*
X237419180Y-125331480D01*
X237415306Y-125336776D01*
X237397727Y-125345433D01*
X237384515Y-125354027D01*
X237378365Y-125356397D01*
X237276814Y-125383608D01*
X237214650Y-125419497D01*
X237205622Y-125422978D01*
X237180057Y-125425086D01*
X237155126Y-125431135D01*
X237145810Y-125427910D01*
X237135988Y-125428721D01*
X237113343Y-125416673D01*
X237089099Y-125408283D01*
X237083005Y-125400534D01*
X237074304Y-125395905D01*
X237061766Y-125373527D01*
X237045908Y-125353361D01*
X237044971Y-125343548D01*
X237040154Y-125334950D01*
X237041705Y-125309344D01*
X237039267Y-125283808D01*
X237044025Y-125271051D01*
X237044379Y-125265209D01*
X237048102Y-125260120D01*
X237053640Y-125245274D01*
X237066389Y-125223191D01*
X237066388Y-125223191D01*
X237066392Y-125223186D01*
X237100500Y-125095892D01*
X237100500Y-124964108D01*
X237066392Y-124836814D01*
X237000500Y-124722686D01*
X236936818Y-124659004D01*
X236922113Y-124632073D01*
X236905523Y-124606258D01*
X236904631Y-124600055D01*
X236903334Y-124597680D01*
X236900500Y-124571323D01*
X236900500Y-124498956D01*
X236920185Y-124431917D01*
X236972989Y-124386162D01*
X237042147Y-124376218D01*
X237086498Y-124391568D01*
X237117251Y-124409324D01*
X237146811Y-124426391D01*
X237146813Y-124426391D01*
X237146814Y-124426392D01*
X237274108Y-124460500D01*
X237274110Y-124460500D01*
X237405890Y-124460500D01*
X237405892Y-124460500D01*
X237533186Y-124426392D01*
X237647314Y-124360500D01*
X237676756Y-124331056D01*
X237702424Y-124311361D01*
X237755913Y-124280480D01*
X237952319Y-124084074D01*
X237960264Y-124079735D01*
X237965690Y-124072488D01*
X237990449Y-124063253D01*
X238013642Y-124050589D01*
X238022671Y-124051234D01*
X238031154Y-124048071D01*
X238056974Y-124053687D01*
X238083334Y-124055573D01*
X238092387Y-124061391D01*
X238099427Y-124062923D01*
X238127681Y-124084074D01*
X238149461Y-124105854D01*
X238182946Y-124167177D01*
X238183397Y-124169344D01*
X238191131Y-124208229D01*
X238191132Y-124208230D01*
X238235447Y-124274552D01*
X238301769Y-124318867D01*
X238301770Y-124318868D01*
X238360247Y-124330499D01*
X238360250Y-124330500D01*
X238360252Y-124330500D01*
X239099750Y-124330500D01*
X239099751Y-124330499D01*
X239114568Y-124327552D01*
X239158229Y-124318868D01*
X239158229Y-124318867D01*
X239158231Y-124318867D01*
X239224552Y-124274552D01*
X239233869Y-124260609D01*
X239287482Y-124215804D01*
X239336971Y-124205500D01*
X240417745Y-124205500D01*
X240484784Y-124225185D01*
X240505426Y-124241819D01*
X241153867Y-124890260D01*
X241187352Y-124951583D01*
X241189290Y-124984915D01*
X241189500Y-124984915D01*
X241189500Y-124988531D01*
X241189590Y-124990080D01*
X241189500Y-124990994D01*
X241189500Y-124991007D01*
X241189500Y-125128993D01*
X241189500Y-125128995D01*
X241189499Y-125128995D01*
X241216418Y-125264322D01*
X241216421Y-125264332D01*
X241269221Y-125391804D01*
X241269228Y-125391817D01*
X241345885Y-125506541D01*
X241345888Y-125506545D01*
X241443454Y-125604111D01*
X241443458Y-125604114D01*
X241558182Y-125680771D01*
X241558195Y-125680778D01*
X241645207Y-125716819D01*
X241685672Y-125733580D01*
X241685676Y-125733580D01*
X241685677Y-125733581D01*
X241821004Y-125760500D01*
X241821007Y-125760500D01*
X241958995Y-125760500D01*
X242050041Y-125742389D01*
X242094328Y-125733580D01*
X242221811Y-125680775D01*
X242336542Y-125604114D01*
X242434114Y-125506542D01*
X242510775Y-125391811D01*
X242563580Y-125264328D01*
X242574191Y-125210981D01*
X242590500Y-125128995D01*
X242590500Y-124991004D01*
X242563581Y-124855677D01*
X242563580Y-124855676D01*
X242563580Y-124855672D01*
X242546324Y-124814011D01*
X242510778Y-124728195D01*
X242510771Y-124728182D01*
X242434114Y-124613458D01*
X242434111Y-124613454D01*
X242336545Y-124515888D01*
X242336541Y-124515885D01*
X242221817Y-124439228D01*
X242221804Y-124439221D01*
X242094332Y-124386421D01*
X242094322Y-124386418D01*
X241958995Y-124359500D01*
X241958993Y-124359500D01*
X241821007Y-124359500D01*
X241820995Y-124359500D01*
X241820080Y-124359590D01*
X241819606Y-124359500D01*
X241814915Y-124359500D01*
X241814915Y-124358609D01*
X241751435Y-124346563D01*
X241720260Y-124323867D01*
X240880915Y-123484522D01*
X240880913Y-123484520D01*
X240789588Y-123431793D01*
X240687727Y-123404500D01*
X240687726Y-123404500D01*
X239336971Y-123404500D01*
X239269932Y-123384815D01*
X239233869Y-123349391D01*
X239224552Y-123335447D01*
X239195789Y-123316228D01*
X245729500Y-123316228D01*
X245729500Y-123483771D01*
X245762182Y-123648074D01*
X245762184Y-123648082D01*
X245826295Y-123802860D01*
X245919373Y-123942162D01*
X246037837Y-124060626D01*
X246072930Y-124084074D01*
X246177137Y-124153703D01*
X246331918Y-124217816D01*
X246496228Y-124250499D01*
X246496232Y-124250500D01*
X246496233Y-124250500D01*
X246663768Y-124250500D01*
X246663769Y-124250499D01*
X246828082Y-124217816D01*
X246982863Y-124153703D01*
X247122162Y-124060626D01*
X247240626Y-123942162D01*
X247333703Y-123802863D01*
X247397816Y-123648082D01*
X247430500Y-123483767D01*
X247430500Y-123316233D01*
X247397816Y-123151918D01*
X247336205Y-123003178D01*
X247333704Y-122997139D01*
X247332984Y-122996062D01*
X247280033Y-122916814D01*
X247240626Y-122857837D01*
X247122162Y-122739373D01*
X246982860Y-122646295D01*
X246828082Y-122582184D01*
X246828074Y-122582182D01*
X246663771Y-122549500D01*
X246663767Y-122549500D01*
X246496233Y-122549500D01*
X246496228Y-122549500D01*
X246331925Y-122582182D01*
X246331917Y-122582184D01*
X246177139Y-122646295D01*
X246037837Y-122739373D01*
X245919373Y-122857837D01*
X245826295Y-122997139D01*
X245762184Y-123151917D01*
X245762182Y-123151925D01*
X245729500Y-123316228D01*
X239195789Y-123316228D01*
X239158230Y-123291132D01*
X239158229Y-123291131D01*
X239099752Y-123279500D01*
X239099748Y-123279500D01*
X238564500Y-123279500D01*
X238555814Y-123276949D01*
X238546853Y-123278238D01*
X238522812Y-123267259D01*
X238497461Y-123259815D01*
X238491533Y-123252974D01*
X238483297Y-123249213D01*
X238469007Y-123226978D01*
X238451706Y-123207011D01*
X238449418Y-123196496D01*
X238445523Y-123190435D01*
X238440500Y-123155500D01*
X238440500Y-122914739D01*
X238460185Y-122847700D01*
X238512989Y-122801945D01*
X238582147Y-122792001D01*
X238599095Y-122795663D01*
X238750000Y-122839504D01*
X238750000Y-122839503D01*
X239250000Y-122839503D01*
X239396195Y-122797031D01*
X239535374Y-122714721D01*
X239535383Y-122714714D01*
X239649714Y-122600383D01*
X239649721Y-122600374D01*
X239732031Y-122461195D01*
X239732033Y-122461190D01*
X239777144Y-122305918D01*
X239777145Y-122305912D01*
X239778790Y-122285000D01*
X239250000Y-122285000D01*
X239250000Y-122839503D01*
X238750000Y-122839503D01*
X238750000Y-121785000D01*
X239280000Y-121785000D01*
X239778790Y-121785000D01*
X239777145Y-121764089D01*
X239732032Y-121608806D01*
X239695388Y-121546846D01*
X239678205Y-121479122D01*
X239695388Y-121420602D01*
X239752408Y-121324187D01*
X239797166Y-121170128D01*
X239797167Y-121170122D01*
X239799931Y-121135000D01*
X239280000Y-121135000D01*
X239280000Y-121785000D01*
X238750000Y-121785000D01*
X238750000Y-121176362D01*
X238756021Y-121138191D01*
X238780000Y-121064076D01*
X238780000Y-120072154D01*
X239280000Y-120072154D01*
X239280000Y-120635000D01*
X239799931Y-120635000D01*
X239797167Y-120599877D01*
X239797166Y-120599871D01*
X239752407Y-120445811D01*
X239752406Y-120445808D01*
X239670738Y-120307714D01*
X239670731Y-120307705D01*
X239557294Y-120194268D01*
X239557285Y-120194261D01*
X239419191Y-120112593D01*
X239419188Y-120112591D01*
X239280001Y-120072153D01*
X239280000Y-120072154D01*
X238780000Y-120072154D01*
X238779998Y-120072153D01*
X238640811Y-120112591D01*
X238640808Y-120112593D01*
X238502714Y-120194261D01*
X238502705Y-120194268D01*
X238389266Y-120307708D01*
X238389265Y-120307708D01*
X238383426Y-120317582D01*
X238332355Y-120365264D01*
X238263612Y-120377765D01*
X238242003Y-120373505D01*
X238233173Y-120370931D01*
X238184317Y-120364500D01*
X238184316Y-120364500D01*
X237835684Y-120364500D01*
X237835683Y-120364500D01*
X237786827Y-120370931D01*
X237786826Y-120370931D01*
X237682884Y-120419401D01*
X237613807Y-120429893D01*
X237550023Y-120401373D01*
X237521645Y-120366441D01*
X237518349Y-120360405D01*
X237432190Y-120245312D01*
X237432187Y-120245309D01*
X237317093Y-120159149D01*
X237317086Y-120159145D01*
X237182379Y-120108903D01*
X237182372Y-120108901D01*
X237122844Y-120102500D01*
X236750000Y-120102500D01*
X236750000Y-120778000D01*
X236747449Y-120786685D01*
X236748738Y-120795647D01*
X236737759Y-120819687D01*
X236730315Y-120845039D01*
X236723474Y-120850966D01*
X236719713Y-120859203D01*
X236697478Y-120873492D01*
X236677511Y-120890794D01*
X236666996Y-120893081D01*
X236660935Y-120896977D01*
X236626000Y-120902000D01*
X236574000Y-120902000D01*
X236506961Y-120882315D01*
X236461206Y-120829511D01*
X236450000Y-120778000D01*
X236450000Y-120102500D01*
X236291273Y-120102500D01*
X236274849Y-120097878D01*
X236259030Y-120098235D01*
X236235588Y-120086829D01*
X236226603Y-120084301D01*
X236164886Y-120046577D01*
X236149099Y-120029167D01*
X236130286Y-120015083D01*
X236126065Y-120003765D01*
X236117952Y-119994818D01*
X236114083Y-119971635D01*
X236105872Y-119949617D01*
X236108439Y-119937816D01*
X236106451Y-119925901D01*
X236115730Y-119904307D01*
X236120726Y-119881345D01*
X236132160Y-119866070D01*
X236134036Y-119861707D01*
X236136849Y-119859807D01*
X236141872Y-119853098D01*
X236805358Y-119189613D01*
X236866681Y-119156128D01*
X236936373Y-119161112D01*
X236980720Y-119189613D01*
X237206005Y-119414898D01*
X237238099Y-119470485D01*
X237263608Y-119565686D01*
X237329500Y-119679814D01*
X237422686Y-119773000D01*
X237536814Y-119838892D01*
X237664108Y-119873000D01*
X237664110Y-119873000D01*
X237795890Y-119873000D01*
X237795892Y-119873000D01*
X237923186Y-119838892D01*
X238037314Y-119773000D01*
X238130500Y-119679814D01*
X238196392Y-119565686D01*
X238230500Y-119438392D01*
X238230500Y-119306608D01*
X238196392Y-119179314D01*
X238196390Y-119179312D01*
X238196198Y-119178592D01*
X238197861Y-119108743D01*
X238237024Y-119050880D01*
X238301252Y-119023376D01*
X238315973Y-119022499D01*
X238354624Y-119022499D01*
X238354649Y-119022498D01*
X238390910Y-119019645D01*
X238546196Y-118974530D01*
X238685374Y-118892221D01*
X238685383Y-118892214D01*
X238799714Y-118777883D01*
X238799721Y-118777874D01*
X238882031Y-118638695D01*
X238882033Y-118638690D01*
X238927144Y-118483418D01*
X238927145Y-118483412D01*
X238928790Y-118462500D01*
X238274000Y-118462500D01*
X238206961Y-118442815D01*
X238161206Y-118390011D01*
X238150000Y-118338500D01*
X238150000Y-118212500D01*
X238024000Y-118212500D01*
X237956961Y-118192815D01*
X237911206Y-118140011D01*
X237900000Y-118088500D01*
X237900000Y-117407994D01*
X238400000Y-117407994D01*
X238400000Y-117962500D01*
X238928790Y-117962500D01*
X238927145Y-117941589D01*
X238882031Y-117786304D01*
X238799721Y-117647125D01*
X238799714Y-117647116D01*
X238685383Y-117532785D01*
X238685374Y-117532778D01*
X238546193Y-117450467D01*
X238546190Y-117450465D01*
X238400001Y-117407993D01*
X238400000Y-117407994D01*
X237900000Y-117407994D01*
X237899998Y-117407993D01*
X237753809Y-117450465D01*
X237753806Y-117450467D01*
X237614625Y-117532778D01*
X237614620Y-117532782D01*
X237500282Y-117647121D01*
X237495499Y-117653288D01*
X237493544Y-117651772D01*
X237451362Y-117691144D01*
X237382618Y-117703635D01*
X237379537Y-117703268D01*
X237369904Y-117702000D01*
X237032423Y-117702000D01*
X236965384Y-117682315D01*
X236919629Y-117629511D01*
X236909685Y-117560353D01*
X236913347Y-117543405D01*
X236924505Y-117505000D01*
X236244000Y-117505000D01*
X236176961Y-117485315D01*
X236131206Y-117432511D01*
X236120000Y-117381000D01*
X236120000Y-117255000D01*
X235994000Y-117255000D01*
X235926961Y-117235315D01*
X235881206Y-117182511D01*
X235870000Y-117131000D01*
X235870000Y-117005000D01*
X236370000Y-117005000D01*
X236924504Y-117005000D01*
X236882031Y-116858804D01*
X236799721Y-116719625D01*
X236799714Y-116719616D01*
X236685383Y-116605285D01*
X236685374Y-116605278D01*
X236546195Y-116522968D01*
X236546190Y-116522966D01*
X236390918Y-116477855D01*
X236390912Y-116477854D01*
X236370000Y-116476209D01*
X236370000Y-117005000D01*
X235870000Y-117005000D01*
X235870000Y-116476210D01*
X235869999Y-116476209D01*
X235849087Y-116477854D01*
X235849081Y-116477855D01*
X235693809Y-116522966D01*
X235693804Y-116522968D01*
X235554625Y-116605278D01*
X235554616Y-116605285D01*
X235532181Y-116627721D01*
X235512744Y-116638333D01*
X235496011Y-116652834D01*
X235482679Y-116654750D01*
X235470858Y-116661206D01*
X235448771Y-116659626D01*
X235426853Y-116662778D01*
X235414601Y-116657182D01*
X235401166Y-116656222D01*
X235383439Y-116642951D01*
X235363297Y-116633753D01*
X235356014Y-116622421D01*
X235345233Y-116614350D01*
X235337495Y-116593604D01*
X235325523Y-116574975D01*
X235322371Y-116553056D01*
X235320816Y-116548886D01*
X235320500Y-116540040D01*
X235320500Y-116407402D01*
X235340185Y-116340363D01*
X235356819Y-116319721D01*
X235363963Y-116312577D01*
X235373224Y-116303316D01*
X235423972Y-116194487D01*
X235430500Y-116144901D01*
X235430499Y-115725100D01*
X235430499Y-115725098D01*
X235430499Y-115721041D01*
X235431578Y-115721041D01*
X235445795Y-115657505D01*
X235495493Y-115608395D01*
X235563853Y-115593949D01*
X235588867Y-115598502D01*
X235730000Y-115639504D01*
X235730000Y-115639503D01*
X236230000Y-115639503D01*
X236376195Y-115597031D01*
X236515374Y-115514721D01*
X236515383Y-115514714D01*
X236629714Y-115400383D01*
X236629721Y-115400374D01*
X236712031Y-115261195D01*
X236712033Y-115261190D01*
X236757144Y-115105918D01*
X236757145Y-115105912D01*
X236758790Y-115085000D01*
X236230000Y-115085000D01*
X236230000Y-115639503D01*
X235730000Y-115639503D01*
X235730000Y-114959000D01*
X235749685Y-114891961D01*
X235802489Y-114846206D01*
X235854000Y-114835000D01*
X235980000Y-114835000D01*
X235980000Y-114709000D01*
X235999685Y-114641961D01*
X236052489Y-114596206D01*
X236104000Y-114585000D01*
X236758790Y-114585000D01*
X236757145Y-114564089D01*
X236712031Y-114408804D01*
X236629721Y-114269625D01*
X236629714Y-114269616D01*
X236515383Y-114155285D01*
X236515374Y-114155278D01*
X236376196Y-114072969D01*
X236220909Y-114027854D01*
X236184644Y-114025000D01*
X236113555Y-114025000D01*
X236046516Y-114005315D01*
X236000761Y-113952511D01*
X235991789Y-113890113D01*
X235990176Y-113889997D01*
X235990500Y-113885528D01*
X235990500Y-113524477D01*
X235990500Y-113524472D01*
X235980645Y-113456830D01*
X235929636Y-113352489D01*
X235929634Y-113352487D01*
X235929634Y-113352486D01*
X235884829Y-113307681D01*
X235851344Y-113246358D01*
X235856328Y-113176666D01*
X235884829Y-113132319D01*
X235929634Y-113087513D01*
X235929636Y-113087511D01*
X235980645Y-112983170D01*
X235990500Y-112915528D01*
X235990500Y-112554472D01*
X235980645Y-112486830D01*
X235929636Y-112382489D01*
X235929634Y-112382487D01*
X235929634Y-112382486D01*
X235847514Y-112300366D01*
X235847511Y-112300364D01*
X235840037Y-112296710D01*
X235788456Y-112249581D01*
X235770500Y-112185311D01*
X235770500Y-111960439D01*
X235750020Y-111884009D01*
X235750017Y-111884004D01*
X235710464Y-111815495D01*
X235710458Y-111815487D01*
X235374513Y-111479542D01*
X235374511Y-111479540D01*
X235361157Y-111471830D01*
X235305991Y-111439980D01*
X235305990Y-111439979D01*
X235280513Y-111433152D01*
X235229562Y-111419500D01*
X235229560Y-111419500D01*
X235080599Y-111419500D01*
X235013560Y-111399815D01*
X234991154Y-111381381D01*
X234981524Y-111371351D01*
X234979636Y-111367489D01*
X234933956Y-111321809D01*
X234933065Y-111320881D01*
X234917502Y-111290949D01*
X234901344Y-111261358D01*
X234901437Y-111260052D01*
X234900833Y-111258890D01*
X234903922Y-111225306D01*
X234906328Y-111191666D01*
X234907131Y-111190415D01*
X234907233Y-111189314D01*
X234910661Y-111184922D01*
X234934829Y-111147319D01*
X234979634Y-111102513D01*
X234979636Y-111102511D01*
X235030645Y-110998170D01*
X235040500Y-110930528D01*
X235040500Y-110569472D01*
X235030645Y-110501830D01*
X234979636Y-110397489D01*
X234979634Y-110397487D01*
X234979634Y-110397486D01*
X234897514Y-110315366D01*
X234897511Y-110315364D01*
X234894799Y-110314038D01*
X234891743Y-110311246D01*
X234889152Y-110309396D01*
X234889375Y-110309082D01*
X234843218Y-110266909D01*
X234825305Y-110199374D01*
X234846748Y-110132876D01*
X234861571Y-110114968D01*
X234923224Y-110053316D01*
X234973972Y-109944487D01*
X234980500Y-109894901D01*
X234980499Y-109475100D01*
X234973972Y-109425513D01*
X234923224Y-109316684D01*
X234842025Y-109235485D01*
X234808540Y-109174162D01*
X234813524Y-109104470D01*
X234842025Y-109060123D01*
X234929634Y-108972513D01*
X234929636Y-108972511D01*
X234980645Y-108868170D01*
X234990500Y-108800528D01*
X234990500Y-108439472D01*
X234980645Y-108371830D01*
X234929636Y-108267489D01*
X234929634Y-108267487D01*
X234929634Y-108267486D01*
X234884829Y-108222681D01*
X234851344Y-108161358D01*
X234856328Y-108091666D01*
X234884829Y-108047319D01*
X234929634Y-108002513D01*
X234929636Y-108002511D01*
X234980645Y-107898170D01*
X234990500Y-107830528D01*
X234990500Y-107469472D01*
X234980645Y-107401830D01*
X234929636Y-107297489D01*
X234929634Y-107297487D01*
X234929634Y-107297486D01*
X234847514Y-107215366D01*
X234839211Y-107209438D01*
X234796089Y-107154463D01*
X234789534Y-107084901D01*
X234821628Y-107022838D01*
X234836278Y-107010261D01*
X234838314Y-107008224D01*
X234838316Y-107008224D01*
X234923224Y-106923316D01*
X234973972Y-106814487D01*
X234980500Y-106764901D01*
X234980499Y-106405100D01*
X234973972Y-106355513D01*
X234923224Y-106246684D01*
X234869221Y-106192681D01*
X234835736Y-106131358D01*
X234840720Y-106061666D01*
X234869221Y-106017319D01*
X234923224Y-105963316D01*
X234973972Y-105854487D01*
X234980500Y-105804901D01*
X234980499Y-105445100D01*
X234973972Y-105395513D01*
X234923224Y-105286684D01*
X234875793Y-105239253D01*
X234842308Y-105177930D01*
X234847292Y-105108238D01*
X234889164Y-105052305D01*
X234916796Y-105038012D01*
X234916339Y-105036908D01*
X234920830Y-105035048D01*
X234920834Y-105035046D01*
X235089199Y-104949260D01*
X235242073Y-104838190D01*
X235375690Y-104704573D01*
X235486760Y-104551699D01*
X235572547Y-104383332D01*
X235630940Y-104203618D01*
X235660500Y-104016986D01*
X235660500Y-103828013D01*
X235630940Y-103641381D01*
X235572545Y-103461663D01*
X235486759Y-103293300D01*
X235375690Y-103140427D01*
X235242073Y-103006810D01*
X235228317Y-102996816D01*
X235185654Y-102941489D01*
X235179675Y-102871876D01*
X235212280Y-102810080D01*
X235273119Y-102775723D01*
X235301205Y-102772500D01*
X244649880Y-102772500D01*
X244649882Y-102772500D01*
X244723574Y-102741976D01*
X244779976Y-102685574D01*
X244796141Y-102646545D01*
X244839982Y-102592144D01*
X244906276Y-102570079D01*
X244910702Y-102570000D01*
X248575500Y-102570000D01*
X248642539Y-102589685D01*
X248688294Y-102642489D01*
X248699500Y-102694000D01*
X248699500Y-149675500D01*
X248679815Y-149742539D01*
X248627011Y-149788294D01*
X248575500Y-149799500D01*
X244570116Y-149799500D01*
X244496425Y-149830024D01*
X244440024Y-149886425D01*
X244409500Y-149960116D01*
X244409500Y-154125500D01*
X244389815Y-154192539D01*
X244337011Y-154238294D01*
X244285500Y-154249500D01*
X238635010Y-154249500D01*
X238567971Y-154229815D01*
X238522216Y-154177011D01*
X238512272Y-154107853D01*
X238541297Y-154044297D01*
X238591677Y-154009318D01*
X238654586Y-153985854D01*
X238654593Y-153985850D01*
X238769687Y-153899690D01*
X238769690Y-153899687D01*
X238855850Y-153784593D01*
X238855854Y-153784586D01*
X238906096Y-153649879D01*
X238906098Y-153649872D01*
X238912499Y-153590344D01*
X238912500Y-153590327D01*
X238912500Y-153237999D01*
X238932185Y-153170960D01*
X238984989Y-153125205D01*
X239054147Y-153115261D01*
X239117703Y-153144286D01*
X239145858Y-153179546D01*
X239147982Y-153183521D01*
X239264310Y-153357618D01*
X239264316Y-153357626D01*
X239412373Y-153505683D01*
X239412381Y-153505689D01*
X239586478Y-153622017D01*
X239643140Y-153645487D01*
X239779934Y-153702149D01*
X239779938Y-153702149D01*
X239779939Y-153702150D01*
X239985301Y-153743000D01*
X239985304Y-153743000D01*
X240194698Y-153743000D01*
X240332863Y-153715516D01*
X240400066Y-153702149D01*
X240593519Y-153622018D01*
X240593519Y-153622017D01*
X240593521Y-153622017D01*
X240679987Y-153564241D01*
X240767623Y-153505686D01*
X240915686Y-153357623D01*
X241032018Y-153183519D01*
X241112149Y-152990066D01*
X241135427Y-152873039D01*
X241153000Y-152784698D01*
X241153000Y-152575301D01*
X241112150Y-152369939D01*
X241112149Y-152369938D01*
X241112149Y-152369934D01*
X241032018Y-152176481D01*
X241032017Y-152176478D01*
X240915689Y-152002381D01*
X240915683Y-152002373D01*
X240767626Y-151854316D01*
X240767618Y-151854310D01*
X240593521Y-151737982D01*
X240400066Y-151657851D01*
X240400060Y-151657849D01*
X240194698Y-151617000D01*
X240194696Y-151617000D01*
X239985304Y-151617000D01*
X239985302Y-151617000D01*
X239779940Y-151657849D01*
X239779932Y-151657851D01*
X239724169Y-151680948D01*
X239654699Y-151688415D01*
X239592221Y-151657139D01*
X239589038Y-151654067D01*
X237206819Y-149271848D01*
X237173334Y-149210525D01*
X237170500Y-149184167D01*
X237170500Y-147844833D01*
X237190185Y-147777794D01*
X237242989Y-147732039D01*
X237312147Y-147722095D01*
X237375703Y-147751120D01*
X237382181Y-147757152D01*
X241662646Y-152037617D01*
X241696131Y-152098940D01*
X241691147Y-152168632D01*
X241689526Y-152172750D01*
X241607852Y-152369929D01*
X241607849Y-152369939D01*
X241567000Y-152575301D01*
X241567000Y-152575304D01*
X241567000Y-152784696D01*
X241567000Y-152784698D01*
X241566999Y-152784698D01*
X241607849Y-152990060D01*
X241607851Y-152990066D01*
X241687982Y-153183521D01*
X241804310Y-153357618D01*
X241804316Y-153357626D01*
X241952373Y-153505683D01*
X241952381Y-153505689D01*
X242126478Y-153622017D01*
X242183140Y-153645487D01*
X242319934Y-153702149D01*
X242319938Y-153702149D01*
X242319939Y-153702150D01*
X242525301Y-153743000D01*
X242525304Y-153743000D01*
X242734698Y-153743000D01*
X242872863Y-153715516D01*
X242940066Y-153702149D01*
X243133519Y-153622018D01*
X243133519Y-153622017D01*
X243133521Y-153622017D01*
X243219987Y-153564241D01*
X243307623Y-153505686D01*
X243455686Y-153357623D01*
X243572018Y-153183519D01*
X243652149Y-152990066D01*
X243675427Y-152873039D01*
X243693000Y-152784698D01*
X243693000Y-152575301D01*
X243652150Y-152369939D01*
X243652149Y-152369938D01*
X243652149Y-152369934D01*
X243572018Y-152176481D01*
X243572017Y-152176478D01*
X243455689Y-152002381D01*
X243455683Y-152002373D01*
X243307626Y-151854316D01*
X243307618Y-151854310D01*
X243133521Y-151737982D01*
X242940066Y-151657851D01*
X242940060Y-151657849D01*
X242734698Y-151617000D01*
X242734696Y-151617000D01*
X242525304Y-151617000D01*
X242525302Y-151617000D01*
X242319940Y-151657849D01*
X242319932Y-151657851D01*
X242264169Y-151680948D01*
X242194699Y-151688415D01*
X242132221Y-151657139D01*
X242129038Y-151654067D01*
X238371501Y-147896530D01*
X245849500Y-147896530D01*
X245849500Y-148103469D01*
X245889868Y-148306412D01*
X245889870Y-148306420D01*
X245969058Y-148497596D01*
X246084024Y-148669657D01*
X246230342Y-148815975D01*
X246230345Y-148815977D01*
X246402402Y-148930941D01*
X246593580Y-149010130D01*
X246796530Y-149050499D01*
X246796534Y-149050500D01*
X246796535Y-149050500D01*
X247003466Y-149050500D01*
X247003467Y-149050499D01*
X247206420Y-149010130D01*
X247397598Y-148930941D01*
X247569655Y-148815977D01*
X247715977Y-148669655D01*
X247830941Y-148497598D01*
X247910130Y-148306420D01*
X247950500Y-148103465D01*
X247950500Y-147896535D01*
X247910130Y-147693580D01*
X247830941Y-147502402D01*
X247715977Y-147330345D01*
X247715975Y-147330342D01*
X247569657Y-147184024D01*
X247450512Y-147104415D01*
X247397598Y-147069059D01*
X247206420Y-146989870D01*
X247206412Y-146989868D01*
X247003469Y-146949500D01*
X247003465Y-146949500D01*
X246796535Y-146949500D01*
X246796530Y-146949500D01*
X246593587Y-146989868D01*
X246593579Y-146989870D01*
X246402403Y-147069058D01*
X246230342Y-147184024D01*
X246084024Y-147330342D01*
X245969058Y-147502403D01*
X245889870Y-147693579D01*
X245889868Y-147693587D01*
X245849500Y-147896530D01*
X238371501Y-147896530D01*
X237878581Y-147403610D01*
X237845096Y-147342287D01*
X237850080Y-147272595D01*
X237882935Y-147228706D01*
X237880917Y-147226688D01*
X237889551Y-147218053D01*
X237912289Y-147184024D01*
X237933867Y-147151731D01*
X237933867Y-147151729D01*
X237933868Y-147151729D01*
X237945499Y-147093252D01*
X237945500Y-147093250D01*
X237945500Y-145578749D01*
X237945499Y-145578747D01*
X237933868Y-145520270D01*
X237933867Y-145520269D01*
X237889552Y-145453947D01*
X237823230Y-145409632D01*
X237823229Y-145409631D01*
X237764752Y-145398000D01*
X237764748Y-145398000D01*
X237402125Y-145398000D01*
X237335086Y-145378315D01*
X237289331Y-145325511D01*
X237279387Y-145256353D01*
X237308412Y-145192797D01*
X237340124Y-145166613D01*
X237359983Y-145155147D01*
X237437314Y-145110500D01*
X237530500Y-145017314D01*
X237596392Y-144903186D01*
X237630500Y-144775892D01*
X237630500Y-144685832D01*
X237639144Y-144656391D01*
X237645668Y-144626405D01*
X237649422Y-144621389D01*
X237650185Y-144618793D01*
X237666814Y-144598156D01*
X237823153Y-144441816D01*
X237884475Y-144408334D01*
X237910833Y-144405500D01*
X238524932Y-144405500D01*
X238591971Y-144425185D01*
X238635415Y-144473203D01*
X238691472Y-144583220D01*
X238691474Y-144583222D01*
X238691476Y-144583225D01*
X238786774Y-144678523D01*
X238786778Y-144678526D01*
X238786780Y-144678528D01*
X238906874Y-144739719D01*
X238906876Y-144739719D01*
X238906878Y-144739720D01*
X239006507Y-144755500D01*
X239006512Y-144755500D01*
X239573493Y-144755500D01*
X239673121Y-144739720D01*
X239673121Y-144739719D01*
X239673126Y-144739719D01*
X239793220Y-144678528D01*
X239888528Y-144583220D01*
X239947131Y-144468204D01*
X239995106Y-144417409D01*
X240057616Y-144400500D01*
X243409560Y-144400500D01*
X243409562Y-144400500D01*
X243485989Y-144380021D01*
X243554511Y-144340460D01*
X243610460Y-144284511D01*
X247040460Y-140854511D01*
X247080022Y-140785988D01*
X247100500Y-140709562D01*
X247100500Y-140630438D01*
X247100500Y-136048965D01*
X247120185Y-135981926D01*
X247172989Y-135936171D01*
X247177048Y-135934404D01*
X247303517Y-135882019D01*
X247303521Y-135882017D01*
X247389987Y-135824241D01*
X247477623Y-135765686D01*
X247625686Y-135617623D01*
X247734672Y-135454513D01*
X247742017Y-135443521D01*
X247757109Y-135407086D01*
X247822149Y-135250066D01*
X247843943Y-135140500D01*
X247863000Y-135044698D01*
X247863000Y-134835301D01*
X247822150Y-134629939D01*
X247822149Y-134629938D01*
X247822149Y-134629934D01*
X247742138Y-134436770D01*
X247742017Y-134436478D01*
X247625689Y-134262381D01*
X247625683Y-134262373D01*
X247477626Y-134114316D01*
X247477618Y-134114310D01*
X247303520Y-133997982D01*
X247168977Y-133942252D01*
X247114574Y-133898411D01*
X247092509Y-133832116D01*
X247109788Y-133764417D01*
X247160926Y-133716807D01*
X247178112Y-133709760D01*
X247323020Y-133662676D01*
X247514105Y-133565314D01*
X247570665Y-133524219D01*
X247570666Y-133524219D01*
X246990646Y-132944200D01*
X247021942Y-132935815D01*
X247153058Y-132860115D01*
X247260115Y-132753058D01*
X247335815Y-132621942D01*
X247344200Y-132590647D01*
X247924219Y-133170666D01*
X247924219Y-133170665D01*
X247965314Y-133114105D01*
X248062676Y-132923020D01*
X248128951Y-132719049D01*
X248162500Y-132507236D01*
X248162500Y-132292763D01*
X248128951Y-132080950D01*
X248062676Y-131876979D01*
X247965313Y-131685893D01*
X247924219Y-131629333D01*
X247924219Y-131629332D01*
X247344200Y-132209352D01*
X247335815Y-132178058D01*
X247260115Y-132046942D01*
X247153058Y-131939885D01*
X247021942Y-131864185D01*
X246990646Y-131855799D01*
X247570666Y-131275779D01*
X247570665Y-131275778D01*
X247514110Y-131234688D01*
X247323020Y-131137323D01*
X247178112Y-131090239D01*
X247120436Y-131050801D01*
X247093238Y-130986443D01*
X247105153Y-130917596D01*
X247152397Y-130866121D01*
X247168974Y-130857748D01*
X247303519Y-130802018D01*
X247303519Y-130802017D01*
X247303521Y-130802017D01*
X247389987Y-130744241D01*
X247477623Y-130685686D01*
X247625686Y-130537623D01*
X247727832Y-130384750D01*
X247742017Y-130363521D01*
X247744706Y-130357030D01*
X247822149Y-130170066D01*
X247850010Y-130030000D01*
X247863000Y-129964698D01*
X247863000Y-129755301D01*
X247822150Y-129549939D01*
X247822149Y-129549938D01*
X247822149Y-129549934D01*
X247762964Y-129407048D01*
X247742017Y-129356478D01*
X247625689Y-129182381D01*
X247625683Y-129182373D01*
X247477626Y-129034316D01*
X247477618Y-129034310D01*
X247303521Y-128917982D01*
X247110066Y-128837851D01*
X247110060Y-128837849D01*
X246904698Y-128797000D01*
X246904696Y-128797000D01*
X246695304Y-128797000D01*
X246695302Y-128797000D01*
X246489939Y-128837849D01*
X246489933Y-128837851D01*
X246296478Y-128917982D01*
X246122381Y-129034310D01*
X246122373Y-129034316D01*
X245974316Y-129182373D01*
X245974310Y-129182381D01*
X245857982Y-129356478D01*
X245777851Y-129549933D01*
X245777849Y-129549939D01*
X245737000Y-129755301D01*
X245737000Y-129755304D01*
X245737000Y-129964696D01*
X245737000Y-129964698D01*
X245736999Y-129964698D01*
X245777849Y-130170060D01*
X245777851Y-130170066D01*
X245857982Y-130363521D01*
X245974310Y-130537618D01*
X245974316Y-130537626D01*
X246122373Y-130685683D01*
X246122381Y-130685689D01*
X246296479Y-130802017D01*
X246296480Y-130802017D01*
X246296481Y-130802018D01*
X246359769Y-130828233D01*
X246431022Y-130857747D01*
X246485425Y-130901588D01*
X246507490Y-130967882D01*
X246490211Y-131035582D01*
X246439073Y-131083192D01*
X246421888Y-131090239D01*
X246276977Y-131137323D01*
X246085892Y-131234687D01*
X246029333Y-131275778D01*
X246029333Y-131275779D01*
X246609353Y-131855799D01*
X246578058Y-131864185D01*
X246446942Y-131939885D01*
X246339885Y-132046942D01*
X246264185Y-132178058D01*
X246255799Y-132209352D01*
X245675779Y-131629333D01*
X245675778Y-131629333D01*
X245634687Y-131685892D01*
X245537323Y-131876979D01*
X245471048Y-132080950D01*
X245437500Y-132292763D01*
X245437500Y-132507236D01*
X245471048Y-132719049D01*
X245537323Y-132923020D01*
X245634688Y-133114110D01*
X245675778Y-133170665D01*
X245675779Y-133170666D01*
X246255799Y-132590646D01*
X246264185Y-132621942D01*
X246339885Y-132753058D01*
X246446942Y-132860115D01*
X246578058Y-132935815D01*
X246609352Y-132944200D01*
X246029332Y-133524219D01*
X246085893Y-133565313D01*
X246276979Y-133662676D01*
X246421887Y-133709760D01*
X246479562Y-133749197D01*
X246506761Y-133813556D01*
X246494846Y-133882402D01*
X246447602Y-133933878D01*
X246431023Y-133942252D01*
X246296477Y-133997983D01*
X246122381Y-134114310D01*
X246122373Y-134114316D01*
X245974316Y-134262373D01*
X245974310Y-134262381D01*
X245857982Y-134436478D01*
X245777851Y-134629933D01*
X245777849Y-134629939D01*
X245737000Y-134835301D01*
X245737000Y-134835304D01*
X245737000Y-135044696D01*
X245737000Y-135044698D01*
X245736999Y-135044698D01*
X245777849Y-135250060D01*
X245777851Y-135250066D01*
X245857982Y-135443521D01*
X245974310Y-135617618D01*
X245974316Y-135617626D01*
X246122373Y-135765683D01*
X246122381Y-135765689D01*
X246296478Y-135882017D01*
X246296482Y-135882019D01*
X246422952Y-135934404D01*
X246477356Y-135978245D01*
X246499421Y-136044539D01*
X246499500Y-136048965D01*
X246499500Y-140494167D01*
X246479815Y-140561206D01*
X246463181Y-140581848D01*
X243281848Y-143763181D01*
X243220525Y-143796666D01*
X243194167Y-143799500D01*
X240052520Y-143799500D01*
X240042574Y-143796579D01*
X240032284Y-143797838D01*
X240009620Y-143786903D01*
X239985481Y-143779815D01*
X239977020Y-143771174D01*
X239969356Y-143767476D01*
X239954847Y-143748527D01*
X239946812Y-143740321D01*
X239944257Y-143736154D01*
X239888528Y-143626780D01*
X239859211Y-143597463D01*
X239851548Y-143584966D01*
X239846092Y-143564821D01*
X239836090Y-143546503D01*
X239837143Y-143531775D01*
X239833284Y-143517525D01*
X239839585Y-143497629D01*
X239841074Y-143476811D01*
X239849922Y-143464991D01*
X239854380Y-143450917D01*
X239870438Y-143437585D01*
X239882946Y-143420878D01*
X239892160Y-143414606D01*
X239992731Y-143352573D01*
X240112572Y-143232732D01*
X240112575Y-143232728D01*
X240201542Y-143088492D01*
X240201547Y-143088481D01*
X240254855Y-142927606D01*
X240264999Y-142828322D01*
X240265000Y-142828309D01*
X240265000Y-142805000D01*
X238315001Y-142805000D01*
X238315001Y-142828322D01*
X238325144Y-142927607D01*
X238378452Y-143088481D01*
X238378457Y-143088492D01*
X238467424Y-143232728D01*
X238467427Y-143232732D01*
X238587266Y-143352571D01*
X238687840Y-143414606D01*
X238734564Y-143466554D01*
X238745787Y-143535517D01*
X238728604Y-143584716D01*
X238720890Y-143597361D01*
X238691472Y-143626780D01*
X238633262Y-143741022D01*
X238630793Y-143745071D01*
X238608304Y-143765501D01*
X238587442Y-143787591D01*
X238582527Y-143788920D01*
X238579078Y-143792054D01*
X238557646Y-143795650D01*
X238524932Y-143804500D01*
X237696921Y-143804500D01*
X237629882Y-143784815D01*
X237584127Y-143732011D01*
X237574183Y-143662853D01*
X237577147Y-143648405D01*
X237580500Y-143635892D01*
X237580500Y-143504108D01*
X237546392Y-143376814D01*
X237480500Y-143262686D01*
X237387314Y-143169500D01*
X237330250Y-143136554D01*
X237273187Y-143103608D01*
X237209539Y-143086554D01*
X237145892Y-143069500D01*
X237014108Y-143069500D01*
X236886812Y-143103608D01*
X236772686Y-143169500D01*
X236772683Y-143169502D01*
X236679502Y-143262683D01*
X236679500Y-143262686D01*
X236613608Y-143376812D01*
X236579500Y-143504108D01*
X236579500Y-143594166D01*
X236559815Y-143661205D01*
X236543181Y-143681847D01*
X236035491Y-144189537D01*
X236035490Y-144189538D01*
X236035489Y-144189540D01*
X236005043Y-144219986D01*
X235975161Y-144249868D01*
X235913837Y-144283352D01*
X235844145Y-144278367D01*
X235825480Y-144269573D01*
X235763189Y-144233609D01*
X235763186Y-144233608D01*
X235635892Y-144199500D01*
X235519505Y-144199500D01*
X235452466Y-144179815D01*
X235406711Y-144127011D01*
X235396767Y-144057853D01*
X235399730Y-144043407D01*
X235401610Y-144036392D01*
X235420500Y-143965892D01*
X235420500Y-143834108D01*
X235386392Y-143706814D01*
X235320500Y-143592686D01*
X235227314Y-143499500D01*
X235143166Y-143450917D01*
X235113187Y-143433608D01*
X235042269Y-143414606D01*
X234985892Y-143399500D01*
X234854108Y-143399500D01*
X234726812Y-143433608D01*
X234612686Y-143499500D01*
X234612683Y-143499502D01*
X234519502Y-143592683D01*
X234519500Y-143592686D01*
X234453608Y-143706812D01*
X234432708Y-143784815D01*
X234419500Y-143834108D01*
X234419500Y-143965892D01*
X234451846Y-144086611D01*
X234455712Y-144101037D01*
X234452953Y-144101776D01*
X234458951Y-144157503D01*
X234427683Y-144219986D01*
X234367599Y-144255645D01*
X234336919Y-144259500D01*
X234224108Y-144259500D01*
X234096812Y-144293608D01*
X233982686Y-144359500D01*
X233982683Y-144359502D01*
X233889502Y-144452683D01*
X233889500Y-144452686D01*
X233823608Y-144566812D01*
X233789500Y-144694108D01*
X233789500Y-144825892D01*
X233820483Y-144941524D01*
X233823609Y-144953188D01*
X233823610Y-144953191D01*
X233837051Y-144976471D01*
X233853525Y-145044371D01*
X233845000Y-145069002D01*
X233845000Y-145567584D01*
X233843509Y-145572661D01*
X233844500Y-145572661D01*
X233844500Y-146212000D01*
X233824815Y-146279039D01*
X233772011Y-146324794D01*
X233720500Y-146336000D01*
X233620000Y-146336000D01*
X233607181Y-146348819D01*
X233545858Y-146382304D01*
X233476166Y-146377320D01*
X233420233Y-146335448D01*
X233395816Y-146269984D01*
X233395500Y-146261138D01*
X233395500Y-145577762D01*
X233395000Y-145567584D01*
X233395000Y-145098500D01*
X233347155Y-145098500D01*
X233287627Y-145104901D01*
X233287620Y-145104903D01*
X233152913Y-145155145D01*
X233152911Y-145155147D01*
X233044311Y-145236445D01*
X232978847Y-145260862D01*
X232910574Y-145246011D01*
X232895689Y-145236445D01*
X232787088Y-145155147D01*
X232787086Y-145155145D01*
X232652379Y-145104903D01*
X232652372Y-145104901D01*
X232592844Y-145098500D01*
X232545000Y-145098500D01*
X232545000Y-145567584D01*
X232543509Y-145572661D01*
X232544500Y-145572661D01*
X232544500Y-147099341D01*
X232543896Y-147099341D01*
X232545000Y-147104415D01*
X232545000Y-147583325D01*
X232566666Y-147623004D01*
X232569500Y-147649362D01*
X232569500Y-147860500D01*
X232549815Y-147927539D01*
X232497011Y-147973294D01*
X232445500Y-147984500D01*
X232251507Y-147984500D01*
X232151878Y-148000279D01*
X232031778Y-148061473D01*
X232012825Y-148080426D01*
X231951501Y-148113910D01*
X231881809Y-148108924D01*
X231825876Y-148067052D01*
X231819606Y-148057840D01*
X231757571Y-147957266D01*
X231637732Y-147837427D01*
X231637728Y-147837424D01*
X231493492Y-147748457D01*
X231493481Y-147748452D01*
X231332606Y-147695144D01*
X231233322Y-147685000D01*
X231210000Y-147685000D01*
X231210000Y-148536000D01*
X231190315Y-148603039D01*
X231137511Y-148648794D01*
X231086000Y-148660000D01*
X230960000Y-148660000D01*
X230960000Y-148786000D01*
X230940315Y-148853039D01*
X230887511Y-148898794D01*
X230836000Y-148910000D01*
X230010001Y-148910000D01*
X230010001Y-148958322D01*
X230020144Y-149057607D01*
X230073452Y-149218481D01*
X230073457Y-149218492D01*
X230162424Y-149362728D01*
X230162427Y-149362732D01*
X230287375Y-149487680D01*
X230285190Y-149489864D01*
X230317559Y-149535545D01*
X230320721Y-149605343D01*
X230287967Y-149663509D01*
X230209488Y-149741988D01*
X230137017Y-149867511D01*
X230137016Y-149867515D01*
X230099500Y-150007525D01*
X230099500Y-151042475D01*
X230107049Y-151070646D01*
X230111029Y-151085499D01*
X230111029Y-151085500D01*
X230137016Y-151182485D01*
X230209489Y-151308013D01*
X230209491Y-151308016D01*
X230335144Y-151433669D01*
X230368629Y-151494992D01*
X230369080Y-151497158D01*
X230386418Y-151584322D01*
X230386421Y-151584332D01*
X230439221Y-151711804D01*
X230439228Y-151711817D01*
X230515885Y-151826541D01*
X230515888Y-151826545D01*
X230613454Y-151924111D01*
X230613458Y-151924114D01*
X230728182Y-152000771D01*
X230728195Y-152000778D01*
X230855667Y-152053578D01*
X230855672Y-152053580D01*
X230855676Y-152053580D01*
X230855677Y-152053581D01*
X230991004Y-152080500D01*
X230991007Y-152080500D01*
X231128995Y-152080500D01*
X231220041Y-152062389D01*
X231264328Y-152053580D01*
X231387934Y-152002381D01*
X231391804Y-152000778D01*
X231391804Y-152000777D01*
X231391811Y-152000775D01*
X231465709Y-151951398D01*
X231532386Y-151930520D01*
X231534600Y-151930500D01*
X232067472Y-151930500D01*
X232067474Y-151930500D01*
X232067475Y-151930500D01*
X232207485Y-151892984D01*
X232333015Y-151820510D01*
X232719856Y-151433669D01*
X233031706Y-151121818D01*
X233093029Y-151088333D01*
X233119387Y-151085499D01*
X233196517Y-151085499D01*
X233196518Y-151085499D01*
X233290304Y-151070646D01*
X233403342Y-151013050D01*
X233493050Y-150923342D01*
X233550646Y-150810304D01*
X233550646Y-150810302D01*
X233550647Y-150810301D01*
X233565499Y-150716524D01*
X233565500Y-150716519D01*
X233565499Y-150103482D01*
X233550646Y-150009696D01*
X233493050Y-149896658D01*
X233493046Y-149896654D01*
X233493045Y-149896652D01*
X233403347Y-149806954D01*
X233403344Y-149806952D01*
X233403342Y-149806950D01*
X233317372Y-149763146D01*
X233290301Y-149749352D01*
X233196524Y-149734500D01*
X233196519Y-149734500D01*
X233034500Y-149734500D01*
X233025814Y-149731949D01*
X233016853Y-149733238D01*
X232992812Y-149722259D01*
X232967461Y-149714815D01*
X232961533Y-149707974D01*
X232953297Y-149704213D01*
X232939007Y-149681978D01*
X232921706Y-149662011D01*
X232919418Y-149651496D01*
X232915523Y-149645435D01*
X232910500Y-149610500D01*
X232910500Y-149374115D01*
X232930185Y-149307076D01*
X232978205Y-149263630D01*
X232988220Y-149258528D01*
X233032634Y-149214114D01*
X233093957Y-149180628D01*
X233163648Y-149185612D01*
X233219582Y-149227483D01*
X233225854Y-149236696D01*
X233297426Y-149352731D01*
X233417267Y-149472572D01*
X233417271Y-149472575D01*
X233561507Y-149561542D01*
X233561518Y-149561547D01*
X233722393Y-149614855D01*
X233821683Y-149624999D01*
X233845000Y-149624998D01*
X233845000Y-148774000D01*
X233864685Y-148706961D01*
X233917489Y-148661206D01*
X233969000Y-148650000D01*
X234221000Y-148650000D01*
X234288039Y-148669685D01*
X234333794Y-148722489D01*
X234345000Y-148774000D01*
X234345000Y-149515153D01*
X234342365Y-149540581D01*
X234338867Y-149557276D01*
X234334979Y-149564011D01*
X234314500Y-149640438D01*
X234314500Y-149673579D01*
X234311865Y-149686156D01*
X234301183Y-149706080D01*
X234294815Y-149727767D01*
X234284602Y-149737007D01*
X234278851Y-149747734D01*
X234263010Y-149756541D01*
X234246796Y-149771212D01*
X234176659Y-149806949D01*
X234176652Y-149806954D01*
X234086954Y-149896652D01*
X234086951Y-149896657D01*
X234029352Y-150009698D01*
X234014500Y-150103475D01*
X234014500Y-150716517D01*
X234021265Y-150759228D01*
X234029354Y-150810304D01*
X234086950Y-150923342D01*
X234086952Y-150923344D01*
X234086954Y-150923347D01*
X234176652Y-151013045D01*
X234176654Y-151013046D01*
X234176658Y-151013050D01*
X234289694Y-151070645D01*
X234289698Y-151070647D01*
X234383475Y-151085499D01*
X234383481Y-151085500D01*
X234846518Y-151085499D01*
X234940304Y-151070646D01*
X235053342Y-151013050D01*
X235143050Y-150923342D01*
X235200646Y-150810304D01*
X235200646Y-150810302D01*
X235200647Y-150810301D01*
X235215499Y-150716524D01*
X235215500Y-150716519D01*
X235215499Y-150103482D01*
X235200646Y-150009696D01*
X235143050Y-149896658D01*
X235143046Y-149896654D01*
X235143045Y-149896652D01*
X235070862Y-149824469D01*
X235037377Y-149763146D01*
X235042361Y-149693454D01*
X235070857Y-149649112D01*
X235358154Y-149361816D01*
X235419475Y-149328334D01*
X235445833Y-149325500D01*
X235903493Y-149325500D01*
X236003121Y-149309720D01*
X236003121Y-149309719D01*
X236003126Y-149309719D01*
X236123220Y-149248528D01*
X236218528Y-149153220D01*
X236279719Y-149033126D01*
X236283361Y-149010131D01*
X236295500Y-148933493D01*
X236295500Y-148366506D01*
X236279720Y-148266878D01*
X236279719Y-148266876D01*
X236279719Y-148266874D01*
X236218528Y-148146780D01*
X236218526Y-148146778D01*
X236218523Y-148146774D01*
X236123225Y-148051476D01*
X236123221Y-148051473D01*
X236123220Y-148051472D01*
X236003126Y-147990281D01*
X236003124Y-147990280D01*
X236003121Y-147990279D01*
X235903493Y-147974500D01*
X235903488Y-147974500D01*
X235445833Y-147974500D01*
X235416392Y-147965855D01*
X235386406Y-147959332D01*
X235381390Y-147955577D01*
X235378794Y-147954815D01*
X235358152Y-147938181D01*
X235256819Y-147836848D01*
X235223334Y-147775525D01*
X235220500Y-147749167D01*
X235220500Y-147398000D01*
X235240185Y-147330961D01*
X235292989Y-147285206D01*
X235344500Y-147274000D01*
X235814750Y-147274000D01*
X235870808Y-147262849D01*
X235919192Y-147262849D01*
X235975249Y-147274000D01*
X236445500Y-147274000D01*
X236512539Y-147293685D01*
X236558294Y-147346489D01*
X236569500Y-147398000D01*
X236569500Y-149399562D01*
X236580212Y-149439540D01*
X236589979Y-149475990D01*
X236589982Y-149475995D01*
X236629535Y-149544504D01*
X236629541Y-149544512D01*
X238190848Y-151105819D01*
X238224333Y-151167142D01*
X238219349Y-151236834D01*
X238177477Y-151292767D01*
X238112013Y-151317184D01*
X238103167Y-151317500D01*
X237800000Y-151317500D01*
X237800000Y-152160384D01*
X237771942Y-152144185D01*
X237625700Y-152105000D01*
X237474300Y-152105000D01*
X237328058Y-152144185D01*
X237300000Y-152160384D01*
X237300000Y-151317500D01*
X236639655Y-151317500D01*
X236580127Y-151323901D01*
X236580120Y-151323903D01*
X236445413Y-151374145D01*
X236445406Y-151374149D01*
X236330312Y-151460309D01*
X236330309Y-151460312D01*
X236244149Y-151575406D01*
X236244145Y-151575413D01*
X236193903Y-151710120D01*
X236193901Y-151710127D01*
X236187500Y-151769655D01*
X236187500Y-152430000D01*
X237030384Y-152430000D01*
X237014185Y-152458058D01*
X236975000Y-152604300D01*
X236975000Y-152755700D01*
X237014185Y-152901942D01*
X237030384Y-152930000D01*
X236187500Y-152930000D01*
X236187500Y-153590344D01*
X236193901Y-153649872D01*
X236193903Y-153649879D01*
X236244145Y-153784586D01*
X236244149Y-153784593D01*
X236330309Y-153899687D01*
X236330312Y-153899690D01*
X236445406Y-153985850D01*
X236445413Y-153985854D01*
X236508323Y-154009318D01*
X236564257Y-154051189D01*
X236588674Y-154116653D01*
X236573823Y-154184926D01*
X236524417Y-154234332D01*
X236464990Y-154249500D01*
X224624500Y-154249500D01*
X224557461Y-154229815D01*
X224511706Y-154177011D01*
X224500500Y-154125500D01*
X224500500Y-151305606D01*
X226250000Y-151305606D01*
X226250000Y-151557463D01*
X226289397Y-151806204D01*
X226367219Y-152045719D01*
X226481557Y-152270118D01*
X226629590Y-152473866D01*
X226629591Y-152473868D01*
X226807663Y-152651941D01*
X226842224Y-152677050D01*
X227416987Y-151681533D01*
X227449901Y-151738542D01*
X227542993Y-151831634D01*
X227657007Y-151897460D01*
X227784174Y-151931535D01*
X227849998Y-151931535D01*
X227275201Y-152927111D01*
X227475331Y-152992137D01*
X227724072Y-153031535D01*
X227975928Y-153031535D01*
X228224669Y-152992137D01*
X228464184Y-152914315D01*
X228688583Y-152799977D01*
X228892331Y-152651944D01*
X228892333Y-152651943D01*
X229070408Y-152473869D01*
X229095516Y-152439309D01*
X228100000Y-151864546D01*
X228157007Y-151831634D01*
X228250099Y-151738542D01*
X228315925Y-151624528D01*
X228350000Y-151497361D01*
X228350000Y-151431535D01*
X229345576Y-152006332D01*
X229345576Y-152006331D01*
X229410603Y-151806203D01*
X229450000Y-151557463D01*
X229450000Y-151305606D01*
X229410602Y-151056865D01*
X229332780Y-150817350D01*
X229218442Y-150592951D01*
X229070409Y-150389203D01*
X229070409Y-150389202D01*
X228892332Y-150211125D01*
X228857773Y-150186017D01*
X228283011Y-151181533D01*
X228250099Y-151124528D01*
X228157007Y-151031436D01*
X228042993Y-150965610D01*
X227915826Y-150931535D01*
X227849999Y-150931535D01*
X228424797Y-149935957D01*
X228424796Y-149935956D01*
X228224669Y-149870932D01*
X227975928Y-149831535D01*
X227724072Y-149831535D01*
X227475330Y-149870932D01*
X227235815Y-149948754D01*
X227011416Y-150063092D01*
X226807668Y-150211125D01*
X226807667Y-150211125D01*
X226629587Y-150389205D01*
X226604481Y-150423760D01*
X227600000Y-150998522D01*
X227542993Y-151031436D01*
X227449901Y-151124528D01*
X227384075Y-151238542D01*
X227350000Y-151365709D01*
X227350000Y-151431533D01*
X227347163Y-151429896D01*
X226354422Y-150856736D01*
X226354421Y-150856737D01*
X226289397Y-151056863D01*
X226250000Y-151305606D01*
X224500500Y-151305606D01*
X224500500Y-149960119D01*
X224500499Y-149960116D01*
X224490492Y-149935956D01*
X224469976Y-149886426D01*
X224413574Y-149830024D01*
X224400163Y-149824469D01*
X224339883Y-149799500D01*
X224339882Y-149799500D01*
X220324500Y-149799500D01*
X220257461Y-149779815D01*
X220211706Y-149727011D01*
X220200500Y-149675500D01*
X220200500Y-147896530D01*
X220949500Y-147896530D01*
X220949500Y-148103469D01*
X220989868Y-148306412D01*
X220989870Y-148306420D01*
X221069058Y-148497596D01*
X221184024Y-148669657D01*
X221330342Y-148815975D01*
X221330345Y-148815977D01*
X221502402Y-148930941D01*
X221693580Y-149010130D01*
X221896530Y-149050499D01*
X221896534Y-149050500D01*
X221896535Y-149050500D01*
X222103466Y-149050500D01*
X222103467Y-149050499D01*
X222306420Y-149010130D01*
X222497598Y-148930941D01*
X222669655Y-148815977D01*
X222815977Y-148669655D01*
X222930941Y-148497598D01*
X222952350Y-148445913D01*
X222987242Y-148361677D01*
X230010000Y-148361677D01*
X230010000Y-148410000D01*
X230710000Y-148410000D01*
X230710000Y-147684999D01*
X230686693Y-147685000D01*
X230686674Y-147685001D01*
X230587392Y-147695144D01*
X230426518Y-147748452D01*
X230426507Y-147748457D01*
X230282271Y-147837424D01*
X230282267Y-147837427D01*
X230162427Y-147957267D01*
X230162424Y-147957271D01*
X230073457Y-148101507D01*
X230073452Y-148101518D01*
X230020144Y-148262393D01*
X230010000Y-148361677D01*
X222987242Y-148361677D01*
X223008202Y-148311075D01*
X223008203Y-148311073D01*
X223010127Y-148306428D01*
X223010127Y-148306426D01*
X223010130Y-148306420D01*
X223050500Y-148103465D01*
X223050500Y-147896535D01*
X223010130Y-147693580D01*
X222930941Y-147502402D01*
X222815977Y-147330345D01*
X222815975Y-147330342D01*
X222669657Y-147184024D01*
X222550512Y-147104415D01*
X222497598Y-147069059D01*
X222306420Y-146989870D01*
X222306412Y-146989868D01*
X222103469Y-146949500D01*
X222103465Y-146949500D01*
X221896535Y-146949500D01*
X221896530Y-146949500D01*
X221693587Y-146989868D01*
X221693579Y-146989870D01*
X221502403Y-147069058D01*
X221330342Y-147184024D01*
X221184024Y-147330342D01*
X221069058Y-147502403D01*
X220989870Y-147693579D01*
X220989868Y-147693587D01*
X220949500Y-147896530D01*
X220200500Y-147896530D01*
X220200500Y-143913389D01*
X221019500Y-143913389D01*
X221019500Y-144086611D01*
X221021785Y-144101037D01*
X221044663Y-144245489D01*
X221046598Y-144257701D01*
X221100127Y-144422445D01*
X221178768Y-144576788D01*
X221280586Y-144716928D01*
X221403072Y-144839414D01*
X221543212Y-144941232D01*
X221697555Y-145019873D01*
X221862299Y-145073402D01*
X222033389Y-145100500D01*
X222033390Y-145100500D01*
X222206610Y-145100500D01*
X222206611Y-145100500D01*
X222377701Y-145073402D01*
X222542445Y-145019873D01*
X222696788Y-144941232D01*
X222836928Y-144839414D01*
X222959414Y-144716928D01*
X223061232Y-144576788D01*
X223139873Y-144422445D01*
X223193402Y-144257701D01*
X223220500Y-144086611D01*
X223220500Y-143913389D01*
X223193402Y-143742299D01*
X223139873Y-143577555D01*
X223133385Y-143564821D01*
X223104941Y-143508995D01*
X226209499Y-143508995D01*
X226236418Y-143644322D01*
X226236421Y-143644332D01*
X226289221Y-143771804D01*
X226289228Y-143771817D01*
X226365885Y-143886541D01*
X226365888Y-143886545D01*
X226463455Y-143984112D01*
X226463458Y-143984114D01*
X226554391Y-144044874D01*
X226599196Y-144098484D01*
X226609500Y-144147975D01*
X226609500Y-144709562D01*
X226617581Y-144739719D01*
X226629979Y-144785991D01*
X226629981Y-144785994D01*
X226653017Y-144825892D01*
X226658442Y-144835288D01*
X226660824Y-144839414D01*
X226669542Y-144854514D01*
X226669543Y-144854515D01*
X227574529Y-145759500D01*
X228359540Y-146544511D01*
X228415489Y-146600460D01*
X228415491Y-146600461D01*
X228415495Y-146600464D01*
X228484004Y-146640017D01*
X228484011Y-146640021D01*
X228560438Y-146660500D01*
X228990728Y-146660500D01*
X229057767Y-146680185D01*
X229101212Y-146728204D01*
X229136949Y-146798340D01*
X229136954Y-146798347D01*
X229226652Y-146888045D01*
X229226654Y-146888046D01*
X229226658Y-146888050D01*
X229339694Y-146945645D01*
X229339698Y-146945647D01*
X229433475Y-146960499D01*
X229433481Y-146960500D01*
X230046518Y-146960499D01*
X230140304Y-146945646D01*
X230253342Y-146888050D01*
X230343050Y-146798342D01*
X230378787Y-146728203D01*
X230426761Y-146677409D01*
X230489271Y-146660500D01*
X231120500Y-146660500D01*
X231187539Y-146680185D01*
X231233294Y-146732989D01*
X231244500Y-146784500D01*
X231244500Y-147093252D01*
X231256131Y-147151729D01*
X231256132Y-147151730D01*
X231300447Y-147218052D01*
X231366769Y-147262367D01*
X231366770Y-147262368D01*
X231425247Y-147273999D01*
X231425250Y-147274000D01*
X231558444Y-147274000D01*
X231625483Y-147293685D01*
X231657710Y-147323689D01*
X231737809Y-147430687D01*
X231737812Y-147430690D01*
X231852906Y-147516850D01*
X231852913Y-147516854D01*
X231987620Y-147567096D01*
X231987627Y-147567098D01*
X232047155Y-147573499D01*
X232047172Y-147573500D01*
X232095000Y-147573500D01*
X232095000Y-147104415D01*
X232095500Y-147094247D01*
X232095500Y-145577762D01*
X232095000Y-145567584D01*
X232095000Y-145098500D01*
X232047155Y-145098500D01*
X231987627Y-145104901D01*
X231987620Y-145104903D01*
X231852913Y-145155145D01*
X231852906Y-145155149D01*
X231737812Y-145241309D01*
X231737809Y-145241312D01*
X231657710Y-145348311D01*
X231601777Y-145390182D01*
X231558444Y-145398000D01*
X231425247Y-145398000D01*
X231366770Y-145409631D01*
X231366769Y-145409632D01*
X231300447Y-145453947D01*
X231256132Y-145520269D01*
X231256131Y-145520270D01*
X231244500Y-145578747D01*
X231244500Y-145935500D01*
X231224815Y-146002539D01*
X231172011Y-146048294D01*
X231120500Y-146059500D01*
X230489272Y-146059500D01*
X230422233Y-146039815D01*
X230378788Y-145991796D01*
X230350103Y-145935500D01*
X230343050Y-145921658D01*
X230343047Y-145921655D01*
X230343045Y-145921652D01*
X230253347Y-145831954D01*
X230253344Y-145831952D01*
X230253342Y-145831950D01*
X230176517Y-145792805D01*
X230140301Y-145774352D01*
X230046524Y-145759500D01*
X229433482Y-145759500D01*
X229352519Y-145772323D01*
X229339696Y-145774354D01*
X229226658Y-145831950D01*
X229226657Y-145831951D01*
X229226652Y-145831954D01*
X229136954Y-145921652D01*
X229136951Y-145921657D01*
X229136950Y-145921658D01*
X229101212Y-145991796D01*
X229090764Y-146002859D01*
X229084442Y-146016703D01*
X229067261Y-146027744D01*
X229053239Y-146042591D01*
X229037559Y-146046832D01*
X229025664Y-146054477D01*
X228990729Y-146059500D01*
X228775833Y-146059500D01*
X228708794Y-146039815D01*
X228688152Y-146023181D01*
X227246819Y-144581848D01*
X227213334Y-144520525D01*
X227210500Y-144494167D01*
X227210500Y-144147975D01*
X227230185Y-144080936D01*
X227265607Y-144044874D01*
X227356542Y-143984114D01*
X227454114Y-143886542D01*
X227530775Y-143771811D01*
X227583580Y-143644328D01*
X227605224Y-143535517D01*
X227610500Y-143508995D01*
X227610500Y-143371004D01*
X227583581Y-143235677D01*
X227583580Y-143235676D01*
X227583580Y-143235672D01*
X227578957Y-143224511D01*
X227530778Y-143108195D01*
X227530771Y-143108182D01*
X227454114Y-142993458D01*
X227454111Y-142993454D01*
X227356545Y-142895888D01*
X227356541Y-142895885D01*
X227241817Y-142819228D01*
X227241804Y-142819221D01*
X227114332Y-142766421D01*
X227114322Y-142766418D01*
X226978995Y-142739500D01*
X226978993Y-142739500D01*
X226841007Y-142739500D01*
X226841005Y-142739500D01*
X226705677Y-142766418D01*
X226705667Y-142766421D01*
X226578195Y-142819221D01*
X226578182Y-142819228D01*
X226463458Y-142895885D01*
X226463454Y-142895888D01*
X226365888Y-142993454D01*
X226365885Y-142993458D01*
X226289228Y-143108182D01*
X226289221Y-143108195D01*
X226236421Y-143235667D01*
X226236418Y-143235677D01*
X226209500Y-143371004D01*
X226209500Y-143371007D01*
X226209500Y-143508993D01*
X226209500Y-143508995D01*
X226209499Y-143508995D01*
X223104941Y-143508995D01*
X223061234Y-143423214D01*
X223023385Y-143371120D01*
X222959414Y-143283072D01*
X222836928Y-143160586D01*
X222696788Y-143058768D01*
X222542445Y-142980127D01*
X222377701Y-142926598D01*
X222377699Y-142926597D01*
X222377698Y-142926597D01*
X222246271Y-142905781D01*
X222206611Y-142899500D01*
X222033389Y-142899500D01*
X221993728Y-142905781D01*
X221862302Y-142926597D01*
X221697552Y-142980128D01*
X221543211Y-143058768D01*
X221481495Y-143103608D01*
X221403072Y-143160586D01*
X221403070Y-143160588D01*
X221403069Y-143160588D01*
X221280588Y-143283069D01*
X221280588Y-143283070D01*
X221280586Y-143283072D01*
X221237703Y-143342095D01*
X221178768Y-143423211D01*
X221100128Y-143577552D01*
X221046597Y-143742302D01*
X221028029Y-143859540D01*
X221019500Y-143913389D01*
X220200500Y-143913389D01*
X220200500Y-136230438D01*
X228449500Y-136230438D01*
X228449500Y-139289562D01*
X228458155Y-139321862D01*
X228469978Y-139365988D01*
X228472543Y-139370429D01*
X228472545Y-139370438D01*
X228472547Y-139370438D01*
X228509535Y-139434504D01*
X228509541Y-139434512D01*
X229683181Y-140608152D01*
X229716666Y-140669475D01*
X229719500Y-140695833D01*
X229719500Y-142180495D01*
X229699815Y-142247534D01*
X229647011Y-142293289D01*
X229577853Y-142303233D01*
X229563407Y-142300270D01*
X229485892Y-142279500D01*
X229354108Y-142279500D01*
X229226812Y-142313608D01*
X229112686Y-142379500D01*
X229112683Y-142379502D01*
X229019502Y-142472683D01*
X229019500Y-142472686D01*
X228953608Y-142586812D01*
X228919500Y-142714108D01*
X228919500Y-142845892D01*
X228932896Y-142895886D01*
X228953608Y-142973187D01*
X228965312Y-142993458D01*
X229019500Y-143087314D01*
X229019502Y-143087316D01*
X229083181Y-143150995D01*
X229116666Y-143212318D01*
X229119500Y-143238676D01*
X229119500Y-144276135D01*
X229105985Y-144332429D01*
X229079352Y-144384698D01*
X229064500Y-144478475D01*
X229064500Y-144941517D01*
X229075292Y-145009657D01*
X229079354Y-145035304D01*
X229136950Y-145148342D01*
X229136952Y-145148344D01*
X229136954Y-145148347D01*
X229226652Y-145238045D01*
X229226654Y-145238046D01*
X229226658Y-145238050D01*
X229339694Y-145295645D01*
X229339698Y-145295647D01*
X229433475Y-145310499D01*
X229433481Y-145310500D01*
X230046518Y-145310499D01*
X230140304Y-145295646D01*
X230253342Y-145238050D01*
X230343050Y-145148342D01*
X230400646Y-145035304D01*
X230400646Y-145035302D01*
X230400647Y-145035301D01*
X230415499Y-144941524D01*
X230415500Y-144941519D01*
X230415499Y-144478482D01*
X230400646Y-144384696D01*
X230343050Y-144271658D01*
X230343046Y-144271654D01*
X230343045Y-144271652D01*
X230253347Y-144181954D01*
X230253344Y-144181952D01*
X230253342Y-144181950D01*
X230145519Y-144127011D01*
X230140301Y-144124352D01*
X230046524Y-144109500D01*
X230046519Y-144109500D01*
X229844500Y-144109500D01*
X229777461Y-144089815D01*
X229731706Y-144037011D01*
X229720500Y-143985500D01*
X229720500Y-143464833D01*
X229740185Y-143397794D01*
X229792989Y-143352039D01*
X229862147Y-143342095D01*
X229925703Y-143371120D01*
X229932181Y-143377152D01*
X230913181Y-144358152D01*
X230946666Y-144419475D01*
X230949500Y-144445833D01*
X230949500Y-144535892D01*
X230960458Y-144576788D01*
X230983608Y-144663187D01*
X231001461Y-144694108D01*
X231049500Y-144777314D01*
X231142686Y-144870500D01*
X231256814Y-144936392D01*
X231384108Y-144970500D01*
X231384110Y-144970500D01*
X231515890Y-144970500D01*
X231515892Y-144970500D01*
X231643186Y-144936392D01*
X231757314Y-144870500D01*
X231850500Y-144777314D01*
X231916392Y-144663186D01*
X231950500Y-144535892D01*
X231950500Y-144404108D01*
X231916392Y-144276814D01*
X231850500Y-144162686D01*
X231757314Y-144069500D01*
X231699969Y-144036392D01*
X231643187Y-144003608D01*
X231570425Y-143984112D01*
X231515892Y-143969500D01*
X231425833Y-143969500D01*
X231358794Y-143949815D01*
X231338152Y-143933181D01*
X230356819Y-142951848D01*
X230323334Y-142890525D01*
X230320500Y-142864167D01*
X230320500Y-142281677D01*
X238315000Y-142281677D01*
X238315000Y-142305000D01*
X239040000Y-142305000D01*
X239540000Y-142305000D01*
X240264999Y-142305000D01*
X240264999Y-142281692D01*
X240264998Y-142281677D01*
X240254855Y-142182392D01*
X240201547Y-142021518D01*
X240201542Y-142021507D01*
X240112575Y-141877271D01*
X240112572Y-141877267D01*
X239992732Y-141757427D01*
X239992728Y-141757424D01*
X239848492Y-141668457D01*
X239848481Y-141668452D01*
X239687606Y-141615144D01*
X239588322Y-141605000D01*
X239540000Y-141605000D01*
X239540000Y-142305000D01*
X239040000Y-142305000D01*
X239040000Y-141605000D01*
X239039999Y-141604999D01*
X238991693Y-141605000D01*
X238991675Y-141605001D01*
X238892392Y-141615144D01*
X238731518Y-141668452D01*
X238731507Y-141668457D01*
X238587271Y-141757424D01*
X238587267Y-141757427D01*
X238467427Y-141877267D01*
X238467424Y-141877271D01*
X238378457Y-142021507D01*
X238378452Y-142021518D01*
X238325144Y-142182393D01*
X238315000Y-142281677D01*
X230320500Y-142281677D01*
X230320500Y-140480439D01*
X230316369Y-140465023D01*
X230300021Y-140404011D01*
X230300017Y-140404004D01*
X230260464Y-140335495D01*
X230260458Y-140335487D01*
X229086819Y-139161848D01*
X229053334Y-139100525D01*
X229050500Y-139074167D01*
X229050500Y-138808995D01*
X229509499Y-138808995D01*
X229536418Y-138944322D01*
X229536421Y-138944332D01*
X229589221Y-139071804D01*
X229589228Y-139071817D01*
X229665885Y-139186541D01*
X229665888Y-139186545D01*
X229763454Y-139284111D01*
X229763458Y-139284114D01*
X229878182Y-139360771D01*
X229878195Y-139360778D01*
X230005667Y-139413578D01*
X230005672Y-139413580D01*
X230005676Y-139413580D01*
X230005677Y-139413581D01*
X230141004Y-139440500D01*
X230141007Y-139440500D01*
X230278995Y-139440500D01*
X230386256Y-139419164D01*
X230455848Y-139425391D01*
X230498129Y-139453100D01*
X231122181Y-140077152D01*
X231155666Y-140138475D01*
X231158500Y-140164833D01*
X231158500Y-140288562D01*
X231171074Y-140335487D01*
X231178979Y-140364990D01*
X231178982Y-140364995D01*
X231201507Y-140404011D01*
X231201508Y-140404011D01*
X231218536Y-140433505D01*
X231218538Y-140433507D01*
X231218540Y-140433511D01*
X231218542Y-140433513D01*
X231218871Y-140433941D01*
X231219038Y-140434374D01*
X231222604Y-140440550D01*
X231221641Y-140441105D01*
X231244069Y-140499109D01*
X231244500Y-140509434D01*
X231244500Y-141217252D01*
X231256131Y-141275729D01*
X231256132Y-141275730D01*
X231300447Y-141342052D01*
X231366769Y-141386367D01*
X231366770Y-141386368D01*
X231425247Y-141397999D01*
X231425250Y-141398000D01*
X231558444Y-141398000D01*
X231625483Y-141417685D01*
X231657710Y-141447689D01*
X231737809Y-141554687D01*
X231737812Y-141554690D01*
X231852906Y-141640850D01*
X231852913Y-141640854D01*
X231987620Y-141691096D01*
X231987627Y-141691098D01*
X232047155Y-141697499D01*
X232047172Y-141697500D01*
X232095000Y-141697500D01*
X232095000Y-141228415D01*
X232095500Y-141218247D01*
X232095500Y-139701762D01*
X232095000Y-139691584D01*
X232095000Y-139222500D01*
X232047155Y-139222500D01*
X231987627Y-139228901D01*
X231987619Y-139228903D01*
X231926833Y-139251575D01*
X231857141Y-139256559D01*
X231795818Y-139223073D01*
X231762334Y-139161750D01*
X231759500Y-139135393D01*
X231759500Y-138427275D01*
X231779185Y-138360236D01*
X231831989Y-138314481D01*
X231895952Y-138303902D01*
X231905915Y-138304907D01*
X231964108Y-138320500D01*
X232060407Y-138320500D01*
X232066619Y-138321127D01*
X232093434Y-138332030D01*
X232121206Y-138340185D01*
X232129064Y-138346517D01*
X232131343Y-138347444D01*
X232132823Y-138349546D01*
X232141848Y-138356819D01*
X232795848Y-139010819D01*
X232829333Y-139072142D01*
X232824349Y-139141834D01*
X232782477Y-139197767D01*
X232717013Y-139222184D01*
X232708167Y-139222500D01*
X232697164Y-139222500D01*
X232658252Y-139226683D01*
X232631748Y-139226683D01*
X232592835Y-139222500D01*
X232545000Y-139222500D01*
X232545000Y-141697500D01*
X232592821Y-141697500D01*
X232592831Y-141697499D01*
X232631742Y-141693315D01*
X232658258Y-141693315D01*
X232697168Y-141697499D01*
X232697179Y-141697500D01*
X232745000Y-141697500D01*
X232745000Y-140584000D01*
X232747550Y-140575314D01*
X232746262Y-140566353D01*
X232757240Y-140542312D01*
X232764685Y-140516961D01*
X232771525Y-140511033D01*
X232775287Y-140502797D01*
X232797521Y-140488507D01*
X232817489Y-140471206D01*
X232828003Y-140468918D01*
X232834065Y-140465023D01*
X232869000Y-140460000D01*
X233070500Y-140460000D01*
X233137539Y-140479685D01*
X233183294Y-140532489D01*
X233194500Y-140584000D01*
X233194500Y-141218247D01*
X233195000Y-141228415D01*
X233195000Y-141697500D01*
X233242828Y-141697500D01*
X233242844Y-141697499D01*
X233302372Y-141691098D01*
X233302379Y-141691096D01*
X233437086Y-141640854D01*
X233437093Y-141640850D01*
X233552187Y-141554690D01*
X233552190Y-141554687D01*
X233632290Y-141447689D01*
X233632705Y-141447377D01*
X233632892Y-141446890D01*
X233660684Y-141426432D01*
X233688223Y-141405818D01*
X233688883Y-141405677D01*
X233689162Y-141405472D01*
X233693095Y-141404778D01*
X233723709Y-141398249D01*
X233727636Y-141398000D01*
X233864748Y-141398000D01*
X233923231Y-141386367D01*
X233924502Y-141385517D01*
X233937153Y-141384715D01*
X233946596Y-141386849D01*
X233969192Y-141386849D01*
X234025249Y-141398000D01*
X234025252Y-141398000D01*
X234514750Y-141398000D01*
X234570808Y-141386849D01*
X234619192Y-141386849D01*
X234675249Y-141398000D01*
X234675252Y-141398000D01*
X235164750Y-141398000D01*
X235220808Y-141386849D01*
X235252847Y-141384715D01*
X235265497Y-141385517D01*
X235266769Y-141386367D01*
X235325252Y-141398000D01*
X235462364Y-141398000D01*
X235466291Y-141398249D01*
X235495579Y-141408904D01*
X235525483Y-141417685D01*
X235529182Y-141421129D01*
X235531950Y-141422136D01*
X235536053Y-141427526D01*
X235557710Y-141447689D01*
X235637809Y-141554687D01*
X235637812Y-141554690D01*
X235752906Y-141640850D01*
X235752913Y-141640854D01*
X235887620Y-141691096D01*
X235887627Y-141691098D01*
X235947155Y-141697499D01*
X235947172Y-141697500D01*
X235995000Y-141697500D01*
X236445000Y-141697500D01*
X236492821Y-141697500D01*
X236492831Y-141697499D01*
X236531742Y-141693315D01*
X236558258Y-141693315D01*
X236597168Y-141697499D01*
X236597179Y-141697500D01*
X236645000Y-141697500D01*
X237095000Y-141697500D01*
X237142821Y-141697500D01*
X237142831Y-141697499D01*
X237181742Y-141693315D01*
X237208258Y-141693315D01*
X237247168Y-141697499D01*
X237247179Y-141697500D01*
X237295000Y-141697500D01*
X237745000Y-141697500D01*
X237792828Y-141697500D01*
X237792844Y-141697499D01*
X237852372Y-141691098D01*
X237852379Y-141691096D01*
X237987086Y-141640854D01*
X237987093Y-141640850D01*
X238102187Y-141554690D01*
X238102190Y-141554687D01*
X238188350Y-141439593D01*
X238188354Y-141439586D01*
X238238596Y-141304879D01*
X238238598Y-141304872D01*
X238244999Y-141245344D01*
X238245000Y-141245327D01*
X238245000Y-140685000D01*
X237745000Y-140685000D01*
X237745000Y-141697500D01*
X237295000Y-141697500D01*
X237295000Y-140685000D01*
X237095000Y-140685000D01*
X237095000Y-141697500D01*
X236645000Y-141697500D01*
X236645000Y-140685000D01*
X236445000Y-140685000D01*
X236445000Y-141697500D01*
X235995000Y-141697500D01*
X235995000Y-141228415D01*
X235995500Y-141218247D01*
X235995500Y-140235000D01*
X236445000Y-140235000D01*
X236645000Y-140235000D01*
X237095000Y-140235000D01*
X237295000Y-140235000D01*
X237745000Y-140235000D01*
X238245000Y-140235000D01*
X238245000Y-139674672D01*
X238244999Y-139674655D01*
X238238598Y-139615127D01*
X238238596Y-139615120D01*
X238188354Y-139480413D01*
X238188350Y-139480406D01*
X238102190Y-139365312D01*
X238102187Y-139365309D01*
X237987093Y-139279149D01*
X237987086Y-139279145D01*
X237852379Y-139228903D01*
X237852372Y-139228901D01*
X237792844Y-139222500D01*
X237745000Y-139222500D01*
X237745000Y-140235000D01*
X237295000Y-140235000D01*
X237295000Y-139222500D01*
X237247164Y-139222500D01*
X237208252Y-139226683D01*
X237181748Y-139226683D01*
X237142835Y-139222500D01*
X237095000Y-139222500D01*
X237095000Y-140235000D01*
X236645000Y-140235000D01*
X236645000Y-139222500D01*
X236597164Y-139222500D01*
X236558252Y-139226683D01*
X236531748Y-139226683D01*
X236492835Y-139222500D01*
X236445000Y-139222500D01*
X236445000Y-140235000D01*
X235995500Y-140235000D01*
X235995500Y-139701762D01*
X235995000Y-139691584D01*
X235995000Y-139242353D01*
X235932012Y-139205604D01*
X235930112Y-139203593D01*
X235927461Y-139202815D01*
X235906270Y-139178359D01*
X235884027Y-139154818D01*
X235883515Y-139152099D01*
X235881706Y-139150011D01*
X235870500Y-139098500D01*
X235870500Y-138268676D01*
X235890185Y-138201637D01*
X235906819Y-138180995D01*
X235926786Y-138161028D01*
X235970500Y-138117314D01*
X236036392Y-138003186D01*
X236070500Y-137875892D01*
X236070500Y-137814833D01*
X236076738Y-137793587D01*
X236078318Y-137771499D01*
X236086390Y-137760715D01*
X236090185Y-137747794D01*
X236106918Y-137733294D01*
X236120190Y-137715566D01*
X236132810Y-137710858D01*
X236142989Y-137702039D01*
X236164906Y-137698887D01*
X236185654Y-137691149D01*
X236198814Y-137694011D01*
X236212147Y-137692095D01*
X236232290Y-137701294D01*
X236253927Y-137706001D01*
X236271652Y-137719269D01*
X236275703Y-137721120D01*
X236282181Y-137727152D01*
X236383181Y-137828152D01*
X236416666Y-137889475D01*
X236419500Y-137915833D01*
X236419500Y-138005891D01*
X236453608Y-138133187D01*
X236472726Y-138166299D01*
X236519500Y-138247314D01*
X236612686Y-138340500D01*
X236726814Y-138406392D01*
X236854108Y-138440500D01*
X236854110Y-138440500D01*
X236985890Y-138440500D01*
X236985892Y-138440500D01*
X237113186Y-138406392D01*
X237227314Y-138340500D01*
X237320500Y-138247314D01*
X237386392Y-138133186D01*
X237388824Y-138124108D01*
X238909500Y-138124108D01*
X238909500Y-138255892D01*
X238917876Y-138287152D01*
X238943608Y-138383187D01*
X238958047Y-138408195D01*
X239009500Y-138497314D01*
X239102686Y-138590500D01*
X239216814Y-138656392D01*
X239344108Y-138690500D01*
X239362267Y-138690500D01*
X239429306Y-138710185D01*
X239475061Y-138762989D01*
X239485005Y-138832147D01*
X239483884Y-138838691D01*
X239469500Y-138911002D01*
X239469500Y-138911007D01*
X239469500Y-139048993D01*
X239469500Y-139048995D01*
X239469499Y-139048995D01*
X239496418Y-139184322D01*
X239496421Y-139184332D01*
X239549221Y-139311804D01*
X239549228Y-139311817D01*
X239625885Y-139426541D01*
X239625888Y-139426545D01*
X239723454Y-139524111D01*
X239723458Y-139524114D01*
X239838182Y-139600771D01*
X239838195Y-139600778D01*
X239943193Y-139644269D01*
X239965672Y-139653580D01*
X239965676Y-139653580D01*
X239965677Y-139653581D01*
X240101004Y-139680500D01*
X240101007Y-139680500D01*
X240238995Y-139680500D01*
X240330041Y-139662389D01*
X240374328Y-139653580D01*
X240501811Y-139600775D01*
X240616542Y-139524114D01*
X240714114Y-139426542D01*
X240790775Y-139311811D01*
X240843580Y-139184328D01*
X240860250Y-139100525D01*
X240870500Y-139048995D01*
X240870500Y-138911004D01*
X240843581Y-138775677D01*
X240843580Y-138775676D01*
X240843580Y-138775672D01*
X240830610Y-138744360D01*
X240790778Y-138648195D01*
X240790771Y-138648182D01*
X240714114Y-138533458D01*
X240714111Y-138533454D01*
X240616545Y-138435888D01*
X240616541Y-138435885D01*
X240501817Y-138359228D01*
X240501804Y-138359221D01*
X240374332Y-138306421D01*
X240374322Y-138306418D01*
X240238995Y-138279500D01*
X240238993Y-138279500D01*
X240101007Y-138279500D01*
X240058690Y-138287917D01*
X239989099Y-138281688D01*
X239933922Y-138238825D01*
X239910678Y-138172935D01*
X239910500Y-138166299D01*
X239910500Y-138124110D01*
X239910500Y-138124108D01*
X239876392Y-137996814D01*
X239810500Y-137882686D01*
X239717314Y-137789500D01*
X239656013Y-137754108D01*
X239603187Y-137723608D01*
X239537475Y-137706001D01*
X239475892Y-137689500D01*
X239344108Y-137689500D01*
X239216812Y-137723608D01*
X239102686Y-137789500D01*
X239102683Y-137789502D01*
X239009502Y-137882683D01*
X239009500Y-137882686D01*
X238943608Y-137996812D01*
X238932170Y-138039500D01*
X238909500Y-138124108D01*
X237388824Y-138124108D01*
X237420500Y-138005892D01*
X237420500Y-137874108D01*
X237386392Y-137746814D01*
X237320500Y-137632686D01*
X237227314Y-137539500D01*
X237170250Y-137506554D01*
X237113187Y-137473608D01*
X237049539Y-137456554D01*
X236985892Y-137439500D01*
X236895833Y-137439500D01*
X236828794Y-137419815D01*
X236808152Y-137403181D01*
X236556819Y-137151848D01*
X236523334Y-137090525D01*
X236520500Y-137064167D01*
X236520500Y-136394108D01*
X238659500Y-136394108D01*
X238659500Y-136525892D01*
X238676554Y-136589539D01*
X238693608Y-136653187D01*
X238710929Y-136683187D01*
X238759500Y-136767314D01*
X238852686Y-136860500D01*
X238966814Y-136926392D01*
X239094108Y-136960500D01*
X239094110Y-136960500D01*
X239225890Y-136960500D01*
X239225892Y-136960500D01*
X239353186Y-136926392D01*
X239467314Y-136860500D01*
X239520995Y-136806819D01*
X239582318Y-136773334D01*
X239608676Y-136770500D01*
X240052024Y-136770500D01*
X240119063Y-136790185D01*
X240155126Y-136825609D01*
X240215885Y-136916541D01*
X240215888Y-136916545D01*
X240313454Y-137014111D01*
X240313458Y-137014114D01*
X240428182Y-137090771D01*
X240428195Y-137090778D01*
X240555667Y-137143578D01*
X240555672Y-137143580D01*
X240555676Y-137143580D01*
X240555677Y-137143581D01*
X240691004Y-137170500D01*
X240691007Y-137170500D01*
X240828995Y-137170500D01*
X240922762Y-137151848D01*
X240964328Y-137143580D01*
X241091811Y-137090775D01*
X241206542Y-137014114D01*
X241304114Y-136916542D01*
X241380775Y-136801811D01*
X241433580Y-136674328D01*
X241457139Y-136555890D01*
X241460500Y-136538995D01*
X241460500Y-136401004D01*
X241433581Y-136265677D01*
X241433580Y-136265676D01*
X241433580Y-136265672D01*
X241418986Y-136230438D01*
X241380778Y-136138195D01*
X241380771Y-136138182D01*
X241304114Y-136023458D01*
X241304111Y-136023454D01*
X241206545Y-135925888D01*
X241206541Y-135925885D01*
X241091817Y-135849228D01*
X241091804Y-135849221D01*
X240964332Y-135796421D01*
X240964322Y-135796418D01*
X240828995Y-135769500D01*
X240828993Y-135769500D01*
X240691007Y-135769500D01*
X240691005Y-135769500D01*
X240555677Y-135796418D01*
X240555667Y-135796421D01*
X240428195Y-135849221D01*
X240428182Y-135849228D01*
X240313458Y-135925885D01*
X240313454Y-135925888D01*
X240215888Y-136023454D01*
X240215885Y-136023458D01*
X240155126Y-136114391D01*
X240101514Y-136159196D01*
X240052024Y-136169500D01*
X239628677Y-136169500D01*
X239561638Y-136149815D01*
X239540996Y-136133182D01*
X239512193Y-136104379D01*
X239467314Y-136059500D01*
X239404881Y-136023454D01*
X239353187Y-135993608D01*
X239278544Y-135973608D01*
X239225892Y-135959500D01*
X239094108Y-135959500D01*
X238966812Y-135993608D01*
X238852686Y-136059500D01*
X238852683Y-136059502D01*
X238759502Y-136152683D01*
X238759500Y-136152686D01*
X238693608Y-136266812D01*
X238669134Y-136358152D01*
X238659500Y-136394108D01*
X236520500Y-136394108D01*
X236520500Y-136080438D01*
X236514890Y-136059500D01*
X236500022Y-136004012D01*
X236460460Y-135935489D01*
X236102152Y-135577181D01*
X236068667Y-135515858D01*
X236073651Y-135446166D01*
X236115523Y-135390233D01*
X236180987Y-135365816D01*
X236189833Y-135365500D01*
X237024750Y-135365500D01*
X237024751Y-135365499D01*
X237039568Y-135362552D01*
X237083229Y-135353868D01*
X237083229Y-135353867D01*
X237083231Y-135353867D01*
X237149552Y-135309552D01*
X237193867Y-135243231D01*
X237193867Y-135243229D01*
X237193868Y-135243229D01*
X237202552Y-135199568D01*
X237205500Y-135184748D01*
X237205500Y-134495252D01*
X237205500Y-134495249D01*
X237205499Y-134495247D01*
X237193868Y-134436770D01*
X237193867Y-134436769D01*
X237149552Y-134370447D01*
X237083230Y-134326132D01*
X237083229Y-134326131D01*
X237024752Y-134314500D01*
X237024748Y-134314500D01*
X235935252Y-134314500D01*
X235935247Y-134314500D01*
X235876770Y-134326131D01*
X235876766Y-134326133D01*
X235863389Y-134335072D01*
X235796711Y-134355949D01*
X235729331Y-134337463D01*
X235682642Y-134285484D01*
X235670500Y-134231969D01*
X235670500Y-133298030D01*
X235690185Y-133230991D01*
X235742989Y-133185236D01*
X235812147Y-133175292D01*
X235863392Y-133194929D01*
X235876768Y-133203867D01*
X235876770Y-133203868D01*
X235935247Y-133215499D01*
X235935250Y-133215500D01*
X235935252Y-133215500D01*
X237024750Y-133215500D01*
X237024751Y-133215499D01*
X237039568Y-133212552D01*
X237083229Y-133203868D01*
X237083229Y-133203867D01*
X237083231Y-133203867D01*
X237149552Y-133159552D01*
X237193867Y-133093231D01*
X237193867Y-133093229D01*
X237193868Y-133093229D01*
X237202552Y-133049568D01*
X237205500Y-133034748D01*
X237205500Y-132345252D01*
X237205500Y-132345249D01*
X237205499Y-132345247D01*
X237198904Y-132312088D01*
X237193868Y-132286770D01*
X237193867Y-132286769D01*
X237149552Y-132220447D01*
X237083230Y-132176132D01*
X237083229Y-132176131D01*
X237024752Y-132164500D01*
X237024748Y-132164500D01*
X235935252Y-132164500D01*
X235935247Y-132164500D01*
X235876770Y-132176131D01*
X235876766Y-132176133D01*
X235863389Y-132185072D01*
X235796711Y-132205949D01*
X235729331Y-132187463D01*
X235682642Y-132135484D01*
X235670500Y-132081969D01*
X235670500Y-130689500D01*
X235690185Y-130622461D01*
X235742989Y-130576706D01*
X235794500Y-130565500D01*
X236689750Y-130565500D01*
X236689751Y-130565499D01*
X236704568Y-130562552D01*
X236748229Y-130553868D01*
X236748229Y-130553867D01*
X236748231Y-130553867D01*
X236814552Y-130509552D01*
X236858867Y-130443231D01*
X236858867Y-130443229D01*
X236858868Y-130443229D01*
X236870499Y-130384752D01*
X236870500Y-130384750D01*
X236870500Y-127755249D01*
X236870499Y-127755247D01*
X236858868Y-127696770D01*
X236858867Y-127696769D01*
X236814552Y-127630447D01*
X236748230Y-127586132D01*
X236748229Y-127586131D01*
X236689752Y-127574500D01*
X236689748Y-127574500D01*
X235170252Y-127574500D01*
X235170247Y-127574500D01*
X235111770Y-127586131D01*
X235111769Y-127586132D01*
X235045447Y-127630447D01*
X235001132Y-127696769D01*
X235001131Y-127696770D01*
X234989500Y-127755247D01*
X234989500Y-130384752D01*
X235001131Y-130443228D01*
X235001132Y-130443230D01*
X235001133Y-130443231D01*
X235045448Y-130509552D01*
X235045449Y-130509552D01*
X235048602Y-130514271D01*
X235069480Y-130580948D01*
X235069500Y-130583163D01*
X235069500Y-135309562D01*
X235081372Y-135353867D01*
X235089979Y-135385990D01*
X235089980Y-135385991D01*
X235115247Y-135429755D01*
X235129540Y-135454511D01*
X235129542Y-135454513D01*
X235420306Y-135745277D01*
X235453791Y-135806600D01*
X235448807Y-135876292D01*
X235406935Y-135932225D01*
X235364720Y-135952732D01*
X235286815Y-135973607D01*
X235286814Y-135973607D01*
X235172686Y-136039500D01*
X235172683Y-136039502D01*
X235079502Y-136132683D01*
X235079500Y-136132686D01*
X235013608Y-136246812D01*
X234979500Y-136374108D01*
X234979500Y-136464166D01*
X234959815Y-136531205D01*
X234943181Y-136551847D01*
X234085489Y-137409540D01*
X234029541Y-137465487D01*
X234029535Y-137465495D01*
X233989982Y-137534004D01*
X233989979Y-137534009D01*
X233969500Y-137610439D01*
X233969500Y-139035167D01*
X233949815Y-139102206D01*
X233897011Y-139147961D01*
X233827853Y-139157905D01*
X233764297Y-139128880D01*
X233757819Y-139122848D01*
X232566819Y-137931848D01*
X232533334Y-137870525D01*
X232530500Y-137844167D01*
X232530500Y-137754110D01*
X232530500Y-137754108D01*
X232496392Y-137626814D01*
X232490618Y-137616814D01*
X232486937Y-137610438D01*
X232430500Y-137512686D01*
X232337314Y-137419500D01*
X232267457Y-137379168D01*
X232223187Y-137353608D01*
X232159539Y-137336554D01*
X232095892Y-137319500D01*
X231964108Y-137319500D01*
X231964106Y-137319500D01*
X231915592Y-137332499D01*
X231890600Y-137331903D01*
X231865853Y-137335462D01*
X231856270Y-137331085D01*
X231845742Y-137330835D01*
X231825040Y-137316823D01*
X231802297Y-137306437D01*
X231796602Y-137297575D01*
X231787880Y-137291672D01*
X231778039Y-137268691D01*
X231764523Y-137247659D01*
X231762242Y-137231800D01*
X231760377Y-137227443D01*
X231759500Y-137212724D01*
X231759500Y-137058978D01*
X231779185Y-136991939D01*
X231821500Y-136951591D01*
X231927314Y-136890500D01*
X232020500Y-136797314D01*
X232086392Y-136683186D01*
X232120500Y-136555892D01*
X232120500Y-136424108D01*
X232086392Y-136296814D01*
X232020500Y-136182686D01*
X231927314Y-136089500D01*
X231857106Y-136048965D01*
X231813187Y-136023608D01*
X231740052Y-136004012D01*
X231685892Y-135989500D01*
X231554108Y-135989500D01*
X231426812Y-136023608D01*
X231312686Y-136089500D01*
X231312683Y-136089502D01*
X231219502Y-136182683D01*
X231219500Y-136182686D01*
X231153608Y-136296812D01*
X231132897Y-136374108D01*
X231119500Y-136424108D01*
X231119500Y-136555892D01*
X231153608Y-136683186D01*
X231153609Y-136683187D01*
X231154275Y-136685673D01*
X231158500Y-136717766D01*
X231158500Y-138664915D01*
X231138815Y-138731954D01*
X231086011Y-138777709D01*
X231016853Y-138787653D01*
X230953297Y-138758628D01*
X230915523Y-138699850D01*
X230911097Y-138677067D01*
X230910500Y-138671004D01*
X230883581Y-138535677D01*
X230883580Y-138535676D01*
X230883580Y-138535672D01*
X230882661Y-138533454D01*
X230830778Y-138408195D01*
X230830771Y-138408182D01*
X230754114Y-138293458D01*
X230754111Y-138293454D01*
X230656545Y-138195888D01*
X230656541Y-138195885D01*
X230541817Y-138119228D01*
X230541804Y-138119221D01*
X230414332Y-138066421D01*
X230414322Y-138066418D01*
X230278995Y-138039500D01*
X230278993Y-138039500D01*
X230141007Y-138039500D01*
X230141005Y-138039500D01*
X230005677Y-138066418D01*
X230005667Y-138066421D01*
X229878195Y-138119221D01*
X229878182Y-138119228D01*
X229763458Y-138195885D01*
X229763454Y-138195888D01*
X229665888Y-138293454D01*
X229665885Y-138293458D01*
X229589228Y-138408182D01*
X229589221Y-138408195D01*
X229536421Y-138535667D01*
X229536418Y-138535677D01*
X229509500Y-138671004D01*
X229509500Y-138671007D01*
X229509500Y-138808993D01*
X229509500Y-138808995D01*
X229509499Y-138808995D01*
X229050500Y-138808995D01*
X229050500Y-136445833D01*
X229070185Y-136378794D01*
X229086819Y-136358152D01*
X229786375Y-135658596D01*
X230232127Y-135212844D01*
X231305000Y-135212844D01*
X231311401Y-135272372D01*
X231311403Y-135272379D01*
X231361645Y-135407086D01*
X231361649Y-135407093D01*
X231447809Y-135522187D01*
X231447812Y-135522190D01*
X231562906Y-135608350D01*
X231562913Y-135608354D01*
X231697620Y-135658596D01*
X231697627Y-135658598D01*
X231757155Y-135664999D01*
X231757172Y-135665000D01*
X232080000Y-135665000D01*
X232580000Y-135665000D01*
X232902828Y-135665000D01*
X232902844Y-135664999D01*
X232962372Y-135658598D01*
X232962379Y-135658596D01*
X233097086Y-135608354D01*
X233097093Y-135608350D01*
X233212187Y-135522190D01*
X233212190Y-135522187D01*
X233298350Y-135407093D01*
X233298354Y-135407086D01*
X233348596Y-135272379D01*
X233348598Y-135272372D01*
X233354999Y-135212844D01*
X233355000Y-135212827D01*
X233355000Y-135090000D01*
X232580000Y-135090000D01*
X232580000Y-135665000D01*
X232080000Y-135665000D01*
X232080000Y-135090000D01*
X231305000Y-135090000D01*
X231305000Y-135212844D01*
X230232127Y-135212844D01*
X231095873Y-134349097D01*
X231157194Y-134315614D01*
X231226886Y-134320598D01*
X231282819Y-134362470D01*
X231307236Y-134427934D01*
X231306842Y-134450032D01*
X231305000Y-134467164D01*
X231305000Y-134590000D01*
X232080000Y-134590000D01*
X232580000Y-134590000D01*
X233355000Y-134590000D01*
X233355000Y-134467172D01*
X233354999Y-134467155D01*
X233348598Y-134407627D01*
X233348596Y-134407620D01*
X233298354Y-134272913D01*
X233298350Y-134272906D01*
X233212190Y-134157812D01*
X233212187Y-134157809D01*
X233097093Y-134071649D01*
X233097086Y-134071645D01*
X232962379Y-134021403D01*
X232962372Y-134021401D01*
X232902844Y-134015000D01*
X232580000Y-134015000D01*
X232580000Y-134590000D01*
X232080000Y-134590000D01*
X232080000Y-134015000D01*
X231757164Y-134015000D01*
X231740032Y-134016842D01*
X231671273Y-134004435D01*
X231620137Y-133956823D01*
X231602859Y-133889124D01*
X231624925Y-133822830D01*
X231639093Y-133805877D01*
X232193152Y-133251819D01*
X232254475Y-133218334D01*
X232280833Y-133215500D01*
X232874750Y-133215500D01*
X232874751Y-133215499D01*
X232889568Y-133212552D01*
X232933229Y-133203868D01*
X232933229Y-133203867D01*
X232933231Y-133203867D01*
X232999552Y-133159552D01*
X233043867Y-133093231D01*
X233043867Y-133093229D01*
X233043868Y-133093229D01*
X233052552Y-133049568D01*
X233055500Y-133034748D01*
X233055500Y-132345252D01*
X233055500Y-132345249D01*
X233055499Y-132345247D01*
X233043868Y-132286770D01*
X233043867Y-132286769D01*
X232999552Y-132220447D01*
X232933230Y-132176132D01*
X232933229Y-132176131D01*
X232874752Y-132164500D01*
X232874748Y-132164500D01*
X231785252Y-132164500D01*
X231785247Y-132164500D01*
X231726770Y-132176131D01*
X231726769Y-132176132D01*
X231660447Y-132220447D01*
X231616132Y-132286769D01*
X231616131Y-132286770D01*
X231604500Y-132345247D01*
X231604500Y-132939167D01*
X231584815Y-133006206D01*
X231568181Y-133026848D01*
X228509541Y-136085487D01*
X228509535Y-136085495D01*
X228469982Y-136154004D01*
X228469979Y-136154009D01*
X228456326Y-136204962D01*
X228449500Y-136230438D01*
X220200500Y-136230438D01*
X220200500Y-134783289D01*
X221091170Y-134783289D01*
X221091170Y-134987992D01*
X221123192Y-135190175D01*
X221186451Y-135384864D01*
X221279385Y-135567254D01*
X221399698Y-135732854D01*
X221544456Y-135877612D01*
X221676586Y-135973608D01*
X221710060Y-135997928D01*
X221801539Y-136044539D01*
X221892446Y-136090859D01*
X221892448Y-136090859D01*
X221892451Y-136090861D01*
X221964869Y-136114391D01*
X222087135Y-136154118D01*
X222184253Y-136169500D01*
X222289318Y-136186141D01*
X222289319Y-136186141D01*
X222494021Y-136186141D01*
X222494022Y-136186141D01*
X222696204Y-136154118D01*
X222890889Y-136090861D01*
X223073280Y-135997928D01*
X223172438Y-135925886D01*
X223238883Y-135877612D01*
X223238885Y-135877609D01*
X223238889Y-135877607D01*
X223383636Y-135732860D01*
X223383638Y-135732856D01*
X223383641Y-135732854D01*
X223437590Y-135658598D01*
X223503957Y-135567251D01*
X223596890Y-135384860D01*
X223660147Y-135190175D01*
X223692170Y-134987993D01*
X223692170Y-134783289D01*
X223667881Y-134629934D01*
X223660147Y-134581106D01*
X223617558Y-134450032D01*
X223596890Y-134386422D01*
X223596888Y-134386419D01*
X223596888Y-134386417D01*
X223545094Y-134284767D01*
X223503957Y-134204031D01*
X223474479Y-134163458D01*
X223383641Y-134038427D01*
X223238883Y-133893669D01*
X223073283Y-133773356D01*
X223073282Y-133773355D01*
X223073280Y-133773354D01*
X223016323Y-133744332D01*
X222890893Y-133680422D01*
X222696204Y-133617163D01*
X222521665Y-133589519D01*
X222494022Y-133585141D01*
X222289318Y-133585141D01*
X222264999Y-133588992D01*
X222087135Y-133617163D01*
X221892446Y-133680422D01*
X221710056Y-133773356D01*
X221544456Y-133893669D01*
X221399698Y-134038427D01*
X221279385Y-134204027D01*
X221186451Y-134386417D01*
X221123192Y-134581106D01*
X221091170Y-134783289D01*
X220200500Y-134783289D01*
X220200500Y-128473389D01*
X221019500Y-128473389D01*
X221019500Y-128646611D01*
X221046598Y-128817701D01*
X221100127Y-128982445D01*
X221178768Y-129136788D01*
X221280586Y-129276928D01*
X221403072Y-129399414D01*
X221543212Y-129501232D01*
X221697555Y-129579873D01*
X221862299Y-129633402D01*
X222033389Y-129660500D01*
X222033390Y-129660500D01*
X222206610Y-129660500D01*
X222206611Y-129660500D01*
X222377701Y-129633402D01*
X222542445Y-129579873D01*
X222696788Y-129501232D01*
X222836928Y-129399414D01*
X222959414Y-129276928D01*
X223061232Y-129136788D01*
X223139873Y-128982445D01*
X223193402Y-128817701D01*
X223220500Y-128646611D01*
X223220500Y-128473389D01*
X223193402Y-128302299D01*
X223139873Y-128137555D01*
X223061232Y-127983212D01*
X222959414Y-127843072D01*
X222836928Y-127720586D01*
X222696788Y-127618768D01*
X222609906Y-127574500D01*
X222542447Y-127540128D01*
X222542446Y-127540127D01*
X222542445Y-127540127D01*
X222377701Y-127486598D01*
X222377699Y-127486597D01*
X222377698Y-127486597D01*
X222246271Y-127465781D01*
X222206611Y-127459500D01*
X222033389Y-127459500D01*
X221993728Y-127465781D01*
X221862302Y-127486597D01*
X221697552Y-127540128D01*
X221543211Y-127618768D01*
X221464402Y-127676027D01*
X221403072Y-127720586D01*
X221403070Y-127720588D01*
X221403069Y-127720588D01*
X221280588Y-127843069D01*
X221280588Y-127843070D01*
X221280586Y-127843072D01*
X221252178Y-127882172D01*
X221178768Y-127983211D01*
X221100128Y-128137552D01*
X221046597Y-128302302D01*
X221033816Y-128382999D01*
X221019500Y-128473389D01*
X220200500Y-128473389D01*
X220200500Y-123316228D01*
X221469500Y-123316228D01*
X221469500Y-123483771D01*
X221502182Y-123648074D01*
X221502184Y-123648082D01*
X221566295Y-123802860D01*
X221659373Y-123942162D01*
X221777837Y-124060626D01*
X221812930Y-124084074D01*
X221917137Y-124153703D01*
X222071918Y-124217816D01*
X222236228Y-124250499D01*
X222236232Y-124250500D01*
X222236233Y-124250500D01*
X222403768Y-124250500D01*
X222403769Y-124250499D01*
X222568082Y-124217816D01*
X222722863Y-124153703D01*
X222862162Y-124060626D01*
X222980626Y-123942162D01*
X223073703Y-123802863D01*
X223137816Y-123648082D01*
X223170500Y-123483767D01*
X223170500Y-123316233D01*
X223137816Y-123151918D01*
X223076205Y-123003178D01*
X223073704Y-122997139D01*
X223072984Y-122996062D01*
X223020033Y-122916814D01*
X222980626Y-122857837D01*
X222862162Y-122739373D01*
X222722860Y-122646295D01*
X222568082Y-122582184D01*
X222568074Y-122582182D01*
X222403771Y-122549500D01*
X222403767Y-122549500D01*
X222236233Y-122549500D01*
X222236228Y-122549500D01*
X222071925Y-122582182D01*
X222071917Y-122582184D01*
X221917139Y-122646295D01*
X221777837Y-122739373D01*
X221659373Y-122857837D01*
X221566295Y-122997139D01*
X221502184Y-123151917D01*
X221502182Y-123151925D01*
X221469500Y-123316228D01*
X220200500Y-123316228D01*
X220200500Y-117972499D01*
X231141209Y-117972499D01*
X231141210Y-117972500D01*
X231670000Y-117972500D01*
X231670000Y-117417994D01*
X231669998Y-117417993D01*
X231523809Y-117460465D01*
X231523806Y-117460467D01*
X231384625Y-117542778D01*
X231384616Y-117542785D01*
X231270285Y-117657116D01*
X231270278Y-117657125D01*
X231187968Y-117796304D01*
X231187966Y-117796309D01*
X231142855Y-117951581D01*
X231142854Y-117951587D01*
X231141209Y-117972499D01*
X220200500Y-117972499D01*
X220200500Y-113625000D01*
X231065496Y-113625000D01*
X231620000Y-113625000D01*
X232120000Y-113625000D01*
X232674504Y-113625000D01*
X232632031Y-113478804D01*
X232549721Y-113339625D01*
X232549714Y-113339616D01*
X232435383Y-113225285D01*
X232435374Y-113225278D01*
X232296195Y-113142968D01*
X232296190Y-113142966D01*
X232140918Y-113097855D01*
X232140912Y-113097854D01*
X232120000Y-113096209D01*
X232120000Y-113625000D01*
X231620000Y-113625000D01*
X231620000Y-113096210D01*
X231619999Y-113096209D01*
X231599087Y-113097854D01*
X231599081Y-113097855D01*
X231443809Y-113142966D01*
X231443804Y-113142968D01*
X231304625Y-113225278D01*
X231304616Y-113225285D01*
X231190285Y-113339616D01*
X231190278Y-113339625D01*
X231107968Y-113478804D01*
X231065496Y-113625000D01*
X220200500Y-113625000D01*
X220200500Y-109935000D01*
X232761210Y-109935000D01*
X232762854Y-109955910D01*
X232807968Y-110111195D01*
X232890278Y-110250374D01*
X232890285Y-110250383D01*
X233004616Y-110364714D01*
X233004625Y-110364721D01*
X233143804Y-110447031D01*
X233290000Y-110489504D01*
X233290000Y-109935000D01*
X232761210Y-109935000D01*
X220200500Y-109935000D01*
X220200500Y-109434999D01*
X232761209Y-109434999D01*
X232761210Y-109435000D01*
X233290000Y-109435000D01*
X233290000Y-108880494D01*
X233289998Y-108880493D01*
X233143809Y-108922965D01*
X233143806Y-108922967D01*
X233004625Y-109005278D01*
X233004616Y-109005285D01*
X232890285Y-109119616D01*
X232890278Y-109119625D01*
X232807968Y-109258804D01*
X232807966Y-109258809D01*
X232762855Y-109414081D01*
X232762854Y-109414087D01*
X232761209Y-109434999D01*
X220200500Y-109434999D01*
X220200500Y-102694000D01*
X220220185Y-102626961D01*
X220272989Y-102581206D01*
X220324500Y-102570000D01*
X223989298Y-102570000D01*
X224008479Y-102575632D01*
G37*
%TD.AperFunction*%
%TD*%
M02*
