M48
; DRILL file {KiCad 9.0.0-9.0.0-2~ubuntu24.04.1} date 2025-10-21T17:19:13+0100
; FORMAT={-:-/ absolute / inch / decimal}
; #@! TF.CreationDate,2025-10-21T17:19:13+01:00
; #@! TF.GenerationSoftware,Kicad,Pcbnew,9.0.0-9.0.0-2~ubuntu24.04.1
; #@! TF.FileFunction,Plated,1,2,PTH
FMAT,2
INCH
; #@! TA.AperFunction,Plated,PTH,ViaDrill
T1C0.0118
; #@! TA.AperFunction,Plated,PTH,ComponentDrill
T2C0.0354
; #@! TA.AperFunction,Plated,PTH,ComponentDrill
T3C0.0394
; #@! TA.AperFunction,Plated,PTH,ComponentDrill
T4C0.0402
; #@! TA.AperFunction,Plated,PTH,ComponentDrill
T5C0.0429
; #@! TA.AperFunction,Plated,PTH,ComponentDrill
T6C0.0453
; #@! TA.AperFunction,Plated,PTH,ComponentDrill
T7C0.1299
%
G90
G05
T1
X7.2854Y-4.9193
X7.2854Y-5.1201
X7.2854Y-5.7972
X7.2894Y-5.3425
X7.2894Y-5.5748
X7.2894Y-5.6772
X7.2913Y-4.7126
X7.2913Y-5.0236
X7.2913Y-5.248
X7.2913Y-5.4606
X7.3327Y-6.2264
X7.3366Y-6.0413
X7.3445Y-5.9193
X7.3543Y-4.5886
X7.3661Y-4.689
X7.4055Y-4.937
X7.4193Y-4.565
X7.439Y-4.6083
X7.439Y-5.3228
X7.4409Y-5.6634
X7.4449Y-5.1988
X7.4449Y-5.4311
X7.4488Y-4.815
X7.4508Y-5.5295
X7.4547Y-5.002
X7.4724Y-6.2539
X7.4803Y-4.689
X7.5236Y-6.0295
X7.5276Y-5.9213
X7.5413Y-4.565
X7.5906Y-5.3327
X7.5906Y-5.437
X7.5906Y-5.5157
X7.5925Y-5.6122
X7.5984Y-5.2165
X7.6004Y-4.7461
X7.6319Y-6.252
X7.6575Y-4.563
X7.6654Y-4.748
X7.7028Y-5.9232
X7.7028Y-6.0315
X7.75Y-4.6575
X7.7539Y-4.563
X7.7657Y-4.9173
X7.7717Y-5.313
X7.7736Y-5.2146
X7.7795Y-5.4331
X7.7815Y-4.6909
X7.7815Y-5.5177
X7.7815Y-5.6083
X7.7992Y-4.9705
X7.815Y-6.2559
X7.8425Y-4.565
X7.8484Y-4.6969
X7.8602Y-4.7559
X7.8642Y-4.8169
X7.8661Y-5.9193
X7.874Y-6.0177
X7.9272Y-4.8681
X7.939Y-4.565
X7.9547Y-5.2146
X7.9567Y-5.313
X7.9587Y-5.4173
X7.9587Y-5.6113
X7.9606Y-5.5138
X7.9902Y-4.937
X8.0079Y-6.2539
X8.0374Y-4.563
X8.0394Y-4.7756
X8.0531Y-4.8327
X8.0571Y-5.9213
X8.0571Y-6.0059
X8.0758Y-4.7116
X8.1535Y-4.8366
X8.1614Y-5.0886
X8.187Y-6.0531
X8.1909Y-5.6752
X8.1988Y-5.9232
X8.2126Y-4.7657
X8.2146Y-4.7146
X8.2157Y-4.6646
X8.2165Y-4.6142
X8.2283Y-5.7933
X8.2303Y-6.2539
X8.2421Y-4.8366
X8.2421Y-4.9272
X8.2874Y-4.6161
X8.2874Y-6.0217
X8.2894Y-4.7146
X8.2913Y-4.6654
X8.2913Y-4.7657
X8.3012Y-5.5512
X8.3327Y-5.4646
X8.3425Y-4.8366
X8.3465Y-5.0157
X8.3602Y-4.5787
X8.3622Y-5.9154
X8.3701Y-5.1496
X8.4075Y-4.7146
X8.4094Y-4.7618
X8.4232Y-5.0906
X8.4429Y-6.2579
X8.4449Y-5.8228
X8.4567Y-5.7008
X8.4665Y-5.1516
X8.4685Y-5.3583
X8.4724Y-5.6516
X8.4744Y-4.6575
X8.502Y-5.9724
X8.5177Y-4.5689
X8.5177Y-4.6142
X8.5335Y-5.2579
X8.5453Y-5.7894
X8.5531Y-5.6752
X8.5906Y-4.6929
X8.5965Y-6.0
X8.6024Y-5.6142
X8.6122Y-6.2559
X8.626Y-5.5531
X8.6299Y-5.6378
X8.6358Y-4.5945
X8.6555Y-5.5197
X8.6713Y-5.2343
X8.7028Y-5.6363
X8.7047Y-5.9744
X8.7047Y-6.2283
X8.7067Y-5.5827
X8.7087Y-5.4469
X8.7165Y-5.9311
X8.7224Y-4.7913
X8.7382Y-5.3858
X8.752Y-4.8819
X8.7579Y-4.565
X8.7579Y-5.5
X8.7638Y-4.7126
X8.7638Y-6.063
X8.7657Y-4.7894
X8.7677Y-4.6634
X8.7894Y-5.8661
X8.7933Y-4.8839
X8.7972Y-5.5
X8.811Y-4.6909
X8.815Y-5.7874
X8.8169Y-5.8307
X8.8209Y-5.752
X8.8287Y-5.0512
X8.8307Y-5.0059
X8.8425Y-4.5834
X8.8445Y-5.7185
X8.8445Y-5.1063
X8.8445Y-5.8701
X8.8484Y-6.2618
X8.8543Y-5.1496
X8.8563Y-4.8209
X8.8681Y-5.4311
X8.8681Y-6.0236
X8.8819Y-5.1909
X8.8819Y-5.8701
X8.9035Y-5.2362
X8.9055Y-4.9154
X8.9094Y-4.7835
X8.9114Y-5.0
X8.9134Y-4.7264
X8.9193Y-5.8287
X8.9222Y-5.438
X8.9321Y-5.5463
X8.9331Y-5.185
X8.937Y-6.0256
X8.939Y-5.874
X8.9528Y-4.9567
X8.9547Y-4.7815
X8.9547Y-4.9921
X8.9567Y-5.5118
X8.9567Y-5.685
X8.9587Y-4.7264
X8.9843Y-5.1929
X8.9875Y-4.9042
X8.9882Y-5.6713
X8.9941Y-4.6772
X8.9986Y-5.1614
X9.0039Y-4.998
X9.0059Y-4.622
X9.0177Y-5.4035
X9.0256Y-6.0256
X9.0276Y-4.8681
X9.0335Y-5.1969
X9.0398Y-4.5882
X9.0413Y-5.9488
X9.0433Y-5.6201
X9.0512Y-5.4921
X9.0512Y-6.2539
X9.061Y-4.9016
X9.0807Y-5.2028
X9.0886Y-4.9783
X9.0906Y-5.0276
X9.0906Y-5.0709
X9.0906Y-5.1142
X9.0906Y-5.1634
X9.0984Y-4.9134
X9.1083Y-5.7638
X9.122Y-4.7047
X9.1299Y-4.8661
X9.1319Y-5.8268
X9.1339Y-4.9035
X9.1398Y-5.7894
X9.1417Y-4.563
X9.1516Y-4.624
X9.1535Y-5.313
X9.1555Y-4.6614
X9.1555Y-6.1614
X9.1575Y-4.7047
X9.1654Y-4.876
X9.1693Y-5.0709
X9.1713Y-4.5945
X9.1752Y-4.9587
X9.185Y-4.5591
X9.185Y-4.8228
X9.187Y-4.6831
X9.1929Y-4.7244
X9.1949Y-4.6437
X9.2028Y-4.8583
X9.2047Y-5.7894
X9.2087Y-5.9173
X9.2283Y-5.0177
X9.2303Y-4.8189
X9.2323Y-5.3878
X9.2382Y-4.6358
X9.2382Y-6.25
X9.2559Y-6.1634
X9.2579Y-5.3287
X9.2638Y-4.561
X9.2677Y-5.8287
X9.2736Y-4.878
X9.2776Y-4.6516
X9.2776Y-4.685
X9.2815Y-4.7992
X9.2933Y-4.9587
X9.3091Y-4.685
X9.313Y-5.5866
X9.3327Y-5.1043
X9.3346Y-4.5591
X9.3406Y-4.685
X9.3425Y-5.2146
X9.3524Y-5.502
X9.3543Y-4.9114
X9.3563Y-4.7185
X9.3602Y-4.8012
X9.3681Y-5.7283
X9.3701Y-5.8071
X9.3878Y-6.2539
X9.3917Y-5.0394
X9.3937Y-4.7008
X9.3976Y-4.8189
X9.4094Y-4.563
X9.437Y-5.1102
X9.4488Y-4.872
X9.4508Y-4.7008
X9.4547Y-4.8209
X9.4626Y-5.4823
X9.4705Y-4.9764
X9.4843Y-5.0492
X9.4862Y-4.563
X9.4941Y-5.5965
X9.4941Y-6.0551
X9.4961Y-5.9528
X9.502Y-6.2638
X9.5079Y-4.7028
X9.5138Y-4.8189
X9.5138Y-5.8366
X9.5276Y-6.1732
X9.5354Y-5.6614
X9.5531Y-5.1102
X9.5551Y-5.4213
X9.563Y-4.563
X9.563Y-5.752
X9.565Y-4.7008
X9.565Y-5.3071
X9.5689Y-5.1791
X9.5709Y-4.8209
X9.5709Y-5.0177
X9.5787Y-6.2657
X9.6063Y-5.9488
X9.6083Y-5.8386
X9.6122Y-6.0512
X9.6201Y-4.8228
X9.622Y-4.6988
X9.6319Y-6.1772
X9.6417Y-4.565
X9.6555Y-5.065
X9.6555Y-6.2657
X9.6752Y-4.8228
X9.6752Y-5.2913
X9.6772Y-4.6988
X9.685Y-4.9862
X9.6949Y-4.8976
X9.7244Y-4.565
X9.7323Y-4.6988
X9.7323Y-4.8228
X9.7382Y-6.2638
X9.7776Y-5.9449
X9.7815Y-4.6988
X9.7815Y-6.0531
X9.7835Y-4.8228
X9.7835Y-5.8327
X9.7972Y-4.5709
X9.7992Y-5.063
X9.8031Y-4.9902
X9.8091Y-4.9035
X9.8228Y-6.2638
X9.8346Y-4.6988
X9.8386Y-4.8228
X9.8524Y-4.5709
X9.8898Y-4.6988
X9.8917Y-4.8248
X9.8937Y-6.1378
X9.8937Y-6.2087
X9.8937Y-6.2618
X9.8957Y-5.7933
X9.8957Y-5.8583
X9.8957Y-6.0709
X9.8976Y-4.8799
X9.8976Y-5.9291
X9.8976Y-5.9961
X9.8996Y-4.9547
X9.9016Y-5.0335
X9.9035Y-5.5433
X9.9075Y-4.5728
X9.9075Y-4.6339
X9.9075Y-5.2953
X9.9449Y-4.6988
X9.9488Y-4.8248
X10.0039Y-4.6988
X10.0079Y-4.8248
X10.065Y-4.6988
X10.0669Y-4.8228
X10.128Y-4.6988
X10.1299Y-4.8209
X10.189Y-4.6988
X10.189Y-4.8209
T2
X9.7755Y-5.1791
X9.8755Y-5.1791
T3
X8.0689Y-6.1594
X8.1476Y-6.1594
X8.2264Y-6.1594
X8.3051Y-6.1594
T4
X9.5669Y-4.9315
X9.5669Y-5.5217
T5
X9.7774Y-5.4193
X9.7774Y-5.6654
X9.8774Y-5.4193
X9.8774Y-5.6654
T6
X7.6327Y-6.1594
X7.7327Y-6.1594
X7.8327Y-6.1594
T7
X8.4969Y-4.9315
X8.4969Y-5.5217
M30
