%TF.GenerationSoftware,KiCad,Pcbnew,9.0.0-9.0.0-2~ubuntu24.04.1*%
%TF.CreationDate,2025-10-21T17:19:14+01:00*%
%TF.ProjectId,gateway_rev1,67617465-7761-4795-9f72-6576312e6b69,REV1.0*%
%TF.SameCoordinates,Original*%
%TF.FileFunction,Soldermask,Top*%
%TF.FilePolarity,Negative*%
%FSLAX46Y46*%
G04 Gerber Fmt 4.6, Leading zero omitted, Abs format (unit mm)*
G04 Created by KiCad (PCBNEW 9.0.0-9.0.0-2~ubuntu24.04.1) date 2025-10-21 17:19:14*
%MOMM*%
%LPD*%
G01*
G04 APERTURE LIST*
G04 Aperture macros list*
%AMRoundRect*
0 Rectangle with rounded corners*
0 $1 Rounding radius*
0 $2 $3 $4 $5 $6 $7 $8 $9 X,Y pos of 4 corners*
0 Add a 4 corners polygon primitive as box body*
4,1,4,$2,$3,$4,$5,$6,$7,$8,$9,$2,$3,0*
0 Add four circle primitives for the rounded corners*
1,1,$1+$1,$2,$3*
1,1,$1+$1,$4,$5*
1,1,$1+$1,$6,$7*
1,1,$1+$1,$8,$9*
0 Add four rect primitives between the rounded corners*
20,1,$1+$1,$2,$3,$4,$5,0*
20,1,$1+$1,$4,$5,$6,$7,0*
20,1,$1+$1,$6,$7,$8,$9,0*
20,1,$1+$1,$8,$9,$2,$3,0*%
G04 Aperture macros list end*
%ADD10RoundRect,0.140000X0.170000X-0.140000X0.170000X0.140000X-0.170000X0.140000X-0.170000X-0.140000X0*%
%ADD11R,1.300000X0.600000*%
%ADD12RoundRect,0.135000X0.185000X-0.135000X0.185000X0.135000X-0.185000X0.135000X-0.185000X-0.135000X0*%
%ADD13R,1.525000X0.650000*%
%ADD14R,1.550000X0.650000*%
%ADD15RoundRect,0.140000X-0.170000X0.140000X-0.170000X-0.140000X0.170000X-0.140000X0.170000X0.140000X0*%
%ADD16RoundRect,0.200000X-0.275000X0.200000X-0.275000X-0.200000X0.275000X-0.200000X0.275000X0.200000X0*%
%ADD17RoundRect,0.140000X-0.140000X-0.170000X0.140000X-0.170000X0.140000X0.170000X-0.140000X0.170000X0*%
%ADD18C,2.000000*%
%ADD19RoundRect,0.200000X-0.200000X-0.275000X0.200000X-0.275000X0.200000X0.275000X-0.200000X0.275000X0*%
%ADD20RoundRect,0.140000X0.140000X0.170000X-0.140000X0.170000X-0.140000X-0.170000X0.140000X-0.170000X0*%
%ADD21R,1.475000X0.600000*%
%ADD22R,0.600000X1.475000*%
%ADD23RoundRect,0.225000X0.250000X-0.225000X0.250000X0.225000X-0.250000X0.225000X-0.250000X-0.225000X0*%
%ADD24R,3.050000X1.650000*%
%ADD25R,0.650000X0.700000*%
%ADD26R,1.750000X4.500000*%
%ADD27RoundRect,0.147500X-0.147500X-0.172500X0.147500X-0.172500X0.147500X0.172500X-0.147500X0.172500X0*%
%ADD28R,1.400000X1.200000*%
%ADD29RoundRect,0.200000X0.200000X0.275000X-0.200000X0.275000X-0.200000X-0.275000X0.200000X-0.275000X0*%
%ADD30RoundRect,0.147500X-0.172500X0.147500X-0.172500X-0.147500X0.172500X-0.147500X0.172500X0.147500X0*%
%ADD31C,2.500000*%
%ADD32R,1.500000X1.500000*%
%ADD33C,1.500000*%
%ADD34RoundRect,0.250000X0.650000X-0.325000X0.650000X0.325000X-0.650000X0.325000X-0.650000X-0.325000X0*%
%ADD35RoundRect,0.250000X0.250000X0.475000X-0.250000X0.475000X-0.250000X-0.475000X0.250000X-0.475000X0*%
%ADD36RoundRect,0.225000X-0.250000X0.225000X-0.250000X-0.225000X0.250000X-0.225000X0.250000X0.225000X0*%
%ADD37R,6.400000X1.200000*%
%ADD38R,1.150000X0.600000*%
%ADD39C,1.400000*%
%ADD40RoundRect,0.250000X0.325000X0.650000X-0.325000X0.650000X-0.325000X-0.650000X0.325000X-0.650000X0*%
%ADD41RoundRect,0.200000X0.275000X-0.200000X0.275000X0.200000X-0.275000X0.200000X-0.275000X-0.200000X0*%
%ADD42C,1.635000*%
%ADD43RoundRect,0.250000X-0.475000X0.250000X-0.475000X-0.250000X0.475000X-0.250000X0.475000X0.250000X0*%
%ADD44R,0.950000X0.300000*%
%ADD45R,0.300000X0.950000*%
%ADD46R,2.500000X2.500000*%
%ADD47R,1.725000X1.725000*%
%ADD48C,1.725000*%
%ADD49RoundRect,0.250000X-0.325000X-0.650000X0.325000X-0.650000X0.325000X0.650000X-0.325000X0.650000X0*%
%ADD50R,1.150000X0.800000*%
%ADD51R,1.000000X3.100000*%
%ADD52R,7.620000X3.810000*%
%ADD53C,1.600000*%
%ADD54C,5.000000*%
G04 APERTURE END LIST*
D10*
%TO.C,C13*%
X225515000Y-117400000D03*
X225515000Y-116440000D03*
%TD*%
D11*
%TO.C,Q1*%
X228500000Y-134450000D03*
X228500000Y-136350000D03*
X230600000Y-135400000D03*
%TD*%
D12*
%TO.C,R13*%
X227765000Y-117410000D03*
X227765000Y-116390000D03*
%TD*%
D13*
%TO.C,IC4*%
X218350000Y-136510000D03*
X218350000Y-135240000D03*
X218350000Y-133970000D03*
X218350000Y-132700000D03*
X212926000Y-132700000D03*
X212926000Y-133970000D03*
X212926000Y-135240000D03*
X212926000Y-136510000D03*
%TD*%
D14*
%TO.C,IC5*%
X206900000Y-117210000D03*
X206900000Y-118480000D03*
X206900000Y-119750000D03*
X206900000Y-121020000D03*
X212350000Y-121020000D03*
X212350000Y-119750000D03*
X212350000Y-118480000D03*
X212350000Y-117210000D03*
%TD*%
D15*
%TO.C,C23*%
X234550000Y-118970000D03*
X234550000Y-119930000D03*
%TD*%
D10*
%TO.C,C12*%
X226615000Y-117380000D03*
X226615000Y-116420000D03*
%TD*%
D16*
%TO.C,R20*%
X208950000Y-136500000D03*
X208950000Y-138150000D03*
%TD*%
D17*
%TO.C,C7*%
X214300000Y-116050000D03*
X215260000Y-116050000D03*
%TD*%
D18*
%TO.C,FID2*%
X187000000Y-156000000D03*
%TD*%
D19*
%TO.C,R15*%
X189950000Y-117050000D03*
X191600000Y-117050000D03*
%TD*%
D20*
%TO.C,C21*%
X232480000Y-122500000D03*
X231520000Y-122500000D03*
%TD*%
D15*
%TO.C,C17*%
X227415000Y-124240000D03*
X227415000Y-125200000D03*
%TD*%
D21*
%TO.C,IC1*%
X221224000Y-144000000D03*
X221224000Y-144800000D03*
X221224000Y-145600000D03*
X221224000Y-146400000D03*
X221224000Y-147200000D03*
X221224000Y-148000000D03*
X221224000Y-148800000D03*
X221224000Y-149600000D03*
D22*
X222662000Y-151038000D03*
X223462000Y-151038000D03*
X224262000Y-151038000D03*
X225062000Y-151038000D03*
X225862000Y-151038000D03*
X226662000Y-151038000D03*
X227462000Y-151038000D03*
X228262000Y-151038000D03*
D21*
X229700000Y-149600000D03*
X229700000Y-148800000D03*
X229700000Y-148000000D03*
X229700000Y-147200000D03*
X229700000Y-146400000D03*
X229700000Y-145600000D03*
X229700000Y-144800000D03*
X229700000Y-144000000D03*
D22*
X228262000Y-142562000D03*
X227462000Y-142562000D03*
X226662000Y-142562000D03*
X225862000Y-142562000D03*
X225062000Y-142562000D03*
X224262000Y-142562000D03*
X223462000Y-142562000D03*
X222662000Y-142562000D03*
%TD*%
D19*
%TO.C,R12*%
X214900000Y-121150000D03*
X216550000Y-121150000D03*
%TD*%
D17*
%TO.C,C25*%
X237540000Y-120900000D03*
X238500000Y-120900000D03*
%TD*%
%TO.C,C18*%
X225055000Y-125900000D03*
X226015000Y-125900000D03*
%TD*%
%TO.C,C16*%
X230740000Y-118400000D03*
X231700000Y-118400000D03*
%TD*%
D23*
%TO.C,C1*%
X233900000Y-153325000D03*
X233900000Y-151775000D03*
%TD*%
D10*
%TO.C,C14*%
X230345000Y-117500000D03*
X230345000Y-116540000D03*
%TD*%
D24*
%TO.C,S1*%
X221100000Y-156700000D03*
X238750000Y-156700000D03*
%TD*%
D25*
%TO.C,FB1*%
X219550000Y-118800000D03*
X220900000Y-118800000D03*
%TD*%
D19*
%TO.C,R8*%
X244225000Y-131550000D03*
X245875000Y-131550000D03*
%TD*%
D16*
%TO.C,R5*%
X209250000Y-143750000D03*
X209250000Y-145400000D03*
%TD*%
D20*
%TO.C,C3*%
X218900000Y-143995000D03*
X217940000Y-143995000D03*
%TD*%
D26*
%TO.C,L5*%
X191530000Y-123680000D03*
X194780000Y-123680000D03*
%TD*%
D20*
%TO.C,C22*%
X232480000Y-121450000D03*
X231520000Y-121450000D03*
%TD*%
D27*
%TO.C,L4*%
X235530000Y-119950000D03*
X236500000Y-119950000D03*
%TD*%
D28*
%TO.C,Y1*%
X226365000Y-129849999D03*
X228565000Y-129849999D03*
X228565000Y-128249999D03*
X226365000Y-128249999D03*
%TD*%
D29*
%TO.C,R3*%
X237150000Y-153300000D03*
X235500000Y-153300000D03*
%TD*%
D19*
%TO.C,R19*%
X208850000Y-134800000D03*
X210500000Y-134800000D03*
%TD*%
D20*
%TO.C,C30*%
X217100000Y-131100000D03*
X216140000Y-131100000D03*
%TD*%
D30*
%TO.C,L2*%
X230550000Y-121450000D03*
X230550000Y-122420000D03*
%TD*%
D31*
%TO.C,H2*%
X182000000Y-157450000D03*
%TD*%
D29*
%TO.C,R1*%
X226750000Y-134450000D03*
X225100000Y-134450000D03*
%TD*%
D20*
%TO.C,C19*%
X229865000Y-125900000D03*
X228905000Y-125900000D03*
%TD*%
D32*
%TO.C,J1*%
X210950000Y-156450000D03*
D33*
X208950000Y-156450000D03*
X206950000Y-156450000D03*
X204950000Y-156450000D03*
%TD*%
D10*
%TO.C,C20*%
X230550000Y-120450000D03*
X230550000Y-119490000D03*
%TD*%
D34*
%TO.C,C6*%
X214500000Y-149400000D03*
X214500000Y-146450000D03*
%TD*%
D23*
%TO.C,C4*%
X217050000Y-150000000D03*
X217050000Y-148450000D03*
%TD*%
D31*
%TO.C,H3*%
X277000000Y-117450000D03*
%TD*%
D29*
%TO.C,R6*%
X214300000Y-143750000D03*
X212650000Y-143750000D03*
%TD*%
D18*
%TO.C,FID1*%
X187000000Y-122500000D03*
%TD*%
D17*
%TO.C,C8*%
X214290000Y-117210000D03*
X215250000Y-117210000D03*
%TD*%
D35*
%TO.C,C29*%
X217100000Y-129300000D03*
X215200000Y-129300000D03*
%TD*%
D10*
%TO.C,C24*%
X236550000Y-121880000D03*
X236550000Y-120920000D03*
%TD*%
D18*
%TO.C,FID3*%
X248000000Y-156000000D03*
%TD*%
D36*
%TO.C,C2*%
X218900000Y-146100000D03*
X218900000Y-147650000D03*
%TD*%
D19*
%TO.C,R18*%
X208850000Y-139750000D03*
X210500000Y-139750000D03*
%TD*%
D12*
%TO.C,R16*%
X197650000Y-118400000D03*
X197650000Y-117380000D03*
%TD*%
D37*
%TO.C,LS1*%
X193200000Y-146200000D03*
X202300000Y-146200000D03*
X202300000Y-129000000D03*
X193200000Y-129000000D03*
%TD*%
D19*
%TO.C,R9*%
X243975000Y-137650000D03*
X245625000Y-137650000D03*
%TD*%
D12*
%TO.C,R17*%
X200880000Y-118450000D03*
X200880000Y-117430000D03*
%TD*%
D20*
%TO.C,C27*%
X199780000Y-117430000D03*
X198820000Y-117430000D03*
%TD*%
D38*
%TO.C,IC3*%
X195850000Y-119250000D03*
X195850000Y-118300000D03*
X195850000Y-117350000D03*
X193250000Y-117350000D03*
X193250000Y-119250000D03*
%TD*%
D31*
%TO.C,H1*%
X182000000Y-117450000D03*
%TD*%
D16*
%TO.C,R4*%
X239950000Y-145450000D03*
X239950000Y-147100000D03*
%TD*%
D17*
%TO.C,C15*%
X230140000Y-123600000D03*
X231100000Y-123600000D03*
%TD*%
D39*
%TO.C,LED1*%
X250836500Y-131550000D03*
X248296500Y-131550000D03*
%TD*%
D19*
%TO.C,R11*%
X214900000Y-119550000D03*
X216550000Y-119550000D03*
%TD*%
D23*
%TO.C,C5*%
X218900000Y-150825000D03*
X218900000Y-149275000D03*
%TD*%
D16*
%TO.C,R7*%
X211050000Y-143700000D03*
X211050000Y-145350000D03*
%TD*%
D40*
%TO.C,C26*%
X191430000Y-119080000D03*
X188480000Y-119080000D03*
%TD*%
D27*
%TO.C,L1*%
X231530000Y-120450000D03*
X232500000Y-120450000D03*
%TD*%
D41*
%TO.C,R2*%
X238750000Y-153325000D03*
X238750000Y-151675000D03*
%TD*%
D42*
%TO.C,LED3*%
X248346500Y-143900000D03*
X250886500Y-143900000D03*
%TD*%
D15*
%TO.C,C11*%
X223350000Y-122440000D03*
X223350000Y-123400000D03*
%TD*%
D43*
%TO.C,C28*%
X203580000Y-117780000D03*
X203580000Y-119680000D03*
%TD*%
D44*
%TO.C,IC2*%
X225000000Y-119700000D03*
X225000000Y-120200000D03*
X225000000Y-120700000D03*
X225000000Y-121200000D03*
X225000000Y-121700000D03*
D45*
X225900000Y-122600000D03*
X226400000Y-122600000D03*
X226900000Y-122600000D03*
X227400000Y-122600000D03*
X227900000Y-122600000D03*
D44*
X228800000Y-121700000D03*
X228800000Y-121200000D03*
X228800000Y-120700000D03*
X228800000Y-120200000D03*
X228800000Y-119700000D03*
D45*
X227900000Y-118800000D03*
X227400000Y-118800000D03*
X226900000Y-118800000D03*
X226400000Y-118800000D03*
X225900000Y-118800000D03*
D46*
X226900000Y-120700000D03*
%TD*%
D15*
%TO.C,C10*%
X222300000Y-122440000D03*
X222300000Y-123400000D03*
%TD*%
D19*
%TO.C,R10*%
X243450000Y-143800000D03*
X245100000Y-143800000D03*
%TD*%
D47*
%TO.C,J2*%
X198950000Y-156450000D03*
D48*
X196410000Y-156450000D03*
X193870000Y-156450000D03*
%TD*%
D49*
%TO.C,C9*%
X217900000Y-116700000D03*
X220850000Y-116700000D03*
%TD*%
D50*
%TO.C,D1*%
X201480000Y-120880000D03*
X197980000Y-120880000D03*
%TD*%
D42*
%TO.C,LED2*%
X250886500Y-137650000D03*
X248346500Y-137650000D03*
%TD*%
D27*
%TO.C,L3*%
X233580000Y-120950000D03*
X234550000Y-120950000D03*
%TD*%
D31*
%TO.C,H4*%
X277000000Y-157450000D03*
%TD*%
D51*
%TO.C,S2*%
X235150000Y-133000000D03*
X235150000Y-141900000D03*
X239150000Y-133000000D03*
X239150000Y-141900000D03*
%TD*%
D52*
%TO.C,ANT1*%
X263650000Y-118550000D03*
X263650000Y-156650000D03*
%TD*%
D53*
%TO.C,U1*%
X243000000Y-125260000D03*
X243000000Y-140250000D03*
D54*
X215820000Y-140250000D03*
X215820000Y-125260000D03*
%TD*%
M02*
