ISO-10303-21;
HEADER;
/* Generated by software containing ST-Developer
 * from STEP Tools, Inc. (www.steptools.com) 
 */
/* OPTION: strings as raw bytes, not using required /X/ escapes */

FILE_DESCRIPTION(
/* description */ ('Unknown'),
/* implementation_level */ '2;1');

FILE_NAME(
/* name */ '597-3008-207F',
/* time_stamp */ '2023-12-06T13:25:49+02:00',
/* author */ ('Unknown'),
/* organization */ ('Unknown'),
/* preprocessor_version */ 'ST-DEVELOPER v18.102',
/* originating_system */ 'Solid Edge',
/* authorisation */ 'Unknown');

FILE_SCHEMA (('AUTOMOTIVE_DESIGN {1 0 10303 214 3 1 1}'));
ENDSEC;

DATA;
#10=PROPERTY_DEFINITION_REPRESENTATION(#14,#12);
#11=PROPERTY_DEFINITION_REPRESENTATION(#15,#13);
#12=REPRESENTATION('',(#16),#1965);
#13=REPRESENTATION('',(#17),#1965);
#14=PROPERTY_DEFINITION('pmi validation property','',#1970);
#15=PROPERTY_DEFINITION('pmi validation property','',#1970);
#16=VALUE_REPRESENTATION_ITEM('number of annotations',COUNT_MEASURE(0.));
#17=VALUE_REPRESENTATION_ITEM('number of views',COUNT_MEASURE(0.));
#18=SURFACE_STYLE_RENDERING_WITH_PROPERTIES(.CONSTANT_SHADING.,#1276,(#19));
#19=SURFACE_STYLE_TRANSPARENT(0.699999988079071);
#20=SHAPE_REPRESENTATION_RELATIONSHIP('','',#1335,#21);
#21=ADVANCED_BREP_SHAPE_REPRESENTATION('',(#1332,#1333),#1965);
#22=CONICAL_SURFACE('',#1395,0.995423058846898,0.139626340159546);
#23=CONICAL_SURFACE('',#1413,0.979021859125412,0.139626340159546);
#24=CYLINDRICAL_SURFACE('',#1369,0.15);
#25=CYLINDRICAL_SURFACE('',#1371,0.15);
#26=CYLINDRICAL_SURFACE('',#1376,0.02);
#27=CYLINDRICAL_SURFACE('',#1381,0.02);
#28=CYLINDRICAL_SURFACE('',#1385,0.15);
#29=CYLINDRICAL_SURFACE('',#1389,0.15);
#30=CYLINDRICAL_SURFACE('',#1401,0.069641775);
#31=CYLINDRICAL_SURFACE('',#1403,0.069641775);
#32=CYLINDRICAL_SURFACE('',#1404,0.069641775);
#33=CYLINDRICAL_SURFACE('',#1406,0.069641775);
#34=CYLINDRICAL_SURFACE('',#1407,0.069641775);
#35=CYLINDRICAL_SURFACE('',#1409,0.069641775);
#36=CYLINDRICAL_SURFACE('',#1410,0.069641775);
#37=CYLINDRICAL_SURFACE('',#1412,0.069641775);
#38=ELLIPSE('',#1340,0.0699814779858858,0.069641775);
#39=ELLIPSE('',#1341,0.0699814779858858,0.069641775);
#40=ELLIPSE('',#1342,0.0699814779858858,0.069641775);
#41=ELLIPSE('',#1352,0.0699814779858858,0.069641775);
#42=ELLIPSE('',#1353,0.0699814779858858,0.069641775);
#43=ELLIPSE('',#1356,0.0699814779858858,0.069641775);
#44=ELLIPSE('',#1357,0.0699814779858858,0.069641775);
#45=ELLIPSE('',#1400,0.0699814779858858,0.069641775);
#46=ELLIPSE('',#1402,0.0699814779858858,0.069641775);
#47=ELLIPSE('',#1405,0.0699814779858858,0.069641775);
#48=ELLIPSE('',#1408,0.0699814779858858,0.069641775);
#49=ELLIPSE('',#1411,0.0699814779858858,0.069641775);
#50=CIRCLE('',#1339,0.995423058846898);
#51=CIRCLE('',#1361,0.02);
#52=CIRCLE('',#1362,0.15);
#53=CIRCLE('',#1363,0.15);
#54=CIRCLE('',#1365,0.15);
#55=CIRCLE('',#1366,0.15);
#56=CIRCLE('',#1367,0.02);
#57=CIRCLE('',#1382,0.02);
#58=CIRCLE('',#1383,0.02);
#59=CIRCLE('',#1386,0.15);
#60=CIRCLE('',#1387,0.15);
#61=CIRCLE('',#1390,0.15);
#62=CIRCLE('',#1391,0.15);
#63=CIRCLE('',#1396,0.911015728194926);
#64=CIRCLE('',#1414,0.958516891661367);
#65=CIRCLE('',#1415,0.979021859125412);
#66=ORIENTED_EDGE('',*,*,#334,.F.);
#67=ORIENTED_EDGE('',*,*,#335,.T.);
#68=ORIENTED_EDGE('',*,*,#336,.T.);
#69=ORIENTED_EDGE('',*,*,#337,.T.);
#70=ORIENTED_EDGE('',*,*,#338,.F.);
#71=ORIENTED_EDGE('',*,*,#339,.F.);
#72=ORIENTED_EDGE('',*,*,#340,.T.);
#73=ORIENTED_EDGE('',*,*,#341,.T.);
#74=ORIENTED_EDGE('',*,*,#342,.F.);
#75=ORIENTED_EDGE('',*,*,#343,.F.);
#76=ORIENTED_EDGE('',*,*,#344,.T.);
#77=ORIENTED_EDGE('',*,*,#345,.T.);
#78=ORIENTED_EDGE('',*,*,#346,.T.);
#79=ORIENTED_EDGE('',*,*,#347,.T.);
#80=ORIENTED_EDGE('',*,*,#348,.T.);
#81=ORIENTED_EDGE('',*,*,#342,.T.);
#82=ORIENTED_EDGE('',*,*,#349,.T.);
#83=ORIENTED_EDGE('',*,*,#350,.T.);
#84=ORIENTED_EDGE('',*,*,#351,.T.);
#85=ORIENTED_EDGE('',*,*,#336,.F.);
#86=ORIENTED_EDGE('',*,*,#352,.T.);
#87=ORIENTED_EDGE('',*,*,#353,.T.);
#88=ORIENTED_EDGE('',*,*,#354,.T.);
#89=ORIENTED_EDGE('',*,*,#340,.F.);
#90=ORIENTED_EDGE('',*,*,#355,.T.);
#91=ORIENTED_EDGE('',*,*,#356,.T.);
#92=ORIENTED_EDGE('',*,*,#357,.F.);
#93=ORIENTED_EDGE('',*,*,#358,.T.);
#94=ORIENTED_EDGE('',*,*,#359,.T.);
#95=ORIENTED_EDGE('',*,*,#345,.F.);
#96=ORIENTED_EDGE('',*,*,#360,.T.);
#97=ORIENTED_EDGE('',*,*,#361,.T.);
#98=ORIENTED_EDGE('',*,*,#362,.F.);
#99=ORIENTED_EDGE('',*,*,#363,.T.);
#100=ORIENTED_EDGE('',*,*,#364,.T.);
#101=ORIENTED_EDGE('',*,*,#365,.F.);
#102=ORIENTED_EDGE('',*,*,#366,.T.);
#103=ORIENTED_EDGE('',*,*,#358,.F.);
#104=ORIENTED_EDGE('',*,*,#367,.F.);
#105=ORIENTED_EDGE('',*,*,#368,.F.);
#106=ORIENTED_EDGE('',*,*,#369,.T.);
#107=ORIENTED_EDGE('',*,*,#361,.F.);
#108=ORIENTED_EDGE('',*,*,#370,.T.);
#109=ORIENTED_EDGE('',*,*,#371,.T.);
#110=ORIENTED_EDGE('',*,*,#372,.T.);
#111=ORIENTED_EDGE('',*,*,#373,.F.);
#112=ORIENTED_EDGE('',*,*,#374,.T.);
#113=ORIENTED_EDGE('',*,*,#375,.F.);
#114=ORIENTED_EDGE('',*,*,#376,.F.);
#115=ORIENTED_EDGE('',*,*,#377,.T.);
#116=ORIENTED_EDGE('',*,*,#378,.T.);
#117=ORIENTED_EDGE('',*,*,#379,.F.);
#118=ORIENTED_EDGE('',*,*,#380,.T.);
#119=ORIENTED_EDGE('',*,*,#381,.F.);
#120=ORIENTED_EDGE('',*,*,#382,.T.);
#121=ORIENTED_EDGE('',*,*,#383,.T.);
#122=ORIENTED_EDGE('',*,*,#384,.T.);
#123=ORIENTED_EDGE('',*,*,#385,.T.);
#124=ORIENTED_EDGE('',*,*,#386,.F.);
#125=ORIENTED_EDGE('',*,*,#377,.F.);
#126=ORIENTED_EDGE('',*,*,#387,.T.);
#127=ORIENTED_EDGE('',*,*,#385,.F.);
#128=ORIENTED_EDGE('',*,*,#388,.F.);
#129=ORIENTED_EDGE('',*,*,#381,.T.);
#130=ORIENTED_EDGE('',*,*,#389,.T.);
#131=ORIENTED_EDGE('',*,*,#350,.F.);
#132=ORIENTED_EDGE('',*,*,#390,.T.);
#133=ORIENTED_EDGE('',*,*,#373,.T.);
#134=ORIENTED_EDGE('',*,*,#391,.T.);
#135=ORIENTED_EDGE('',*,*,#392,.F.);
#136=ORIENTED_EDGE('',*,*,#393,.T.);
#137=ORIENTED_EDGE('',*,*,#347,.F.);
#138=ORIENTED_EDGE('',*,*,#394,.T.);
#139=ORIENTED_EDGE('',*,*,#353,.F.);
#140=ORIENTED_EDGE('',*,*,#395,.T.);
#141=ORIENTED_EDGE('',*,*,#371,.F.);
#142=ORIENTED_EDGE('',*,*,#396,.F.);
#143=ORIENTED_EDGE('',*,*,#383,.F.);
#144=ORIENTED_EDGE('',*,*,#397,.T.);
#145=ORIENTED_EDGE('',*,*,#388,.T.);
#146=ORIENTED_EDGE('',*,*,#384,.F.);
#147=ORIENTED_EDGE('',*,*,#396,.T.);
#148=ORIENTED_EDGE('',*,*,#378,.F.);
#149=ORIENTED_EDGE('',*,*,#375,.T.);
#150=ORIENTED_EDGE('',*,*,#398,.T.);
#151=ORIENTED_EDGE('',*,*,#365,.T.);
#152=ORIENTED_EDGE('',*,*,#399,.T.);
#153=ORIENTED_EDGE('',*,*,#379,.T.);
#154=ORIENTED_EDGE('',*,*,#400,.T.);
#155=ORIENTED_EDGE('',*,*,#376,.T.);
#156=ORIENTED_EDGE('',*,*,#400,.F.);
#157=ORIENTED_EDGE('',*,*,#386,.T.);
#158=ORIENTED_EDGE('',*,*,#387,.F.);
#159=ORIENTED_EDGE('',*,*,#363,.F.);
#160=ORIENTED_EDGE('',*,*,#401,.T.);
#161=ORIENTED_EDGE('',*,*,#402,.T.);
#162=ORIENTED_EDGE('',*,*,#403,.F.);
#163=ORIENTED_EDGE('',*,*,#401,.F.);
#164=ORIENTED_EDGE('',*,*,#362,.T.);
#165=ORIENTED_EDGE('',*,*,#369,.F.);
#166=ORIENTED_EDGE('',*,*,#404,.F.);
#167=ORIENTED_EDGE('',*,*,#405,.F.);
#168=ORIENTED_EDGE('',*,*,#406,.F.);
#169=ORIENTED_EDGE('',*,*,#407,.F.);
#170=ORIENTED_EDGE('',*,*,#408,.F.);
#171=ORIENTED_EDGE('',*,*,#409,.F.);
#172=ORIENTED_EDGE('',*,*,#410,.F.);
#173=ORIENTED_EDGE('',*,*,#411,.F.);
#174=ORIENTED_EDGE('',*,*,#412,.F.);
#175=ORIENTED_EDGE('',*,*,#364,.F.);
#176=ORIENTED_EDGE('',*,*,#403,.T.);
#177=ORIENTED_EDGE('',*,*,#413,.T.);
#178=ORIENTED_EDGE('',*,*,#414,.T.);
#179=ORIENTED_EDGE('',*,*,#415,.T.);
#180=ORIENTED_EDGE('',*,*,#416,.T.);
#181=ORIENTED_EDGE('',*,*,#417,.T.);
#182=ORIENTED_EDGE('',*,*,#418,.T.);
#183=ORIENTED_EDGE('',*,*,#419,.T.);
#184=ORIENTED_EDGE('',*,*,#420,.T.);
#185=ORIENTED_EDGE('',*,*,#421,.T.);
#186=ORIENTED_EDGE('',*,*,#367,.T.);
#187=ORIENTED_EDGE('',*,*,#404,.T.);
#188=ORIENTED_EDGE('',*,*,#368,.T.);
#189=ORIENTED_EDGE('',*,*,#421,.F.);
#190=ORIENTED_EDGE('',*,*,#422,.F.);
#191=ORIENTED_EDGE('',*,*,#413,.F.);
#192=ORIENTED_EDGE('',*,*,#402,.F.);
#193=ORIENTED_EDGE('',*,*,#412,.T.);
#194=ORIENTED_EDGE('',*,*,#423,.T.);
#195=ORIENTED_EDGE('',*,*,#414,.F.);
#196=ORIENTED_EDGE('',*,*,#423,.F.);
#197=ORIENTED_EDGE('',*,*,#411,.T.);
#198=ORIENTED_EDGE('',*,*,#424,.T.);
#199=ORIENTED_EDGE('',*,*,#415,.F.);
#200=ORIENTED_EDGE('',*,*,#424,.F.);
#201=ORIENTED_EDGE('',*,*,#410,.T.);
#202=ORIENTED_EDGE('',*,*,#425,.T.);
#203=ORIENTED_EDGE('',*,*,#416,.F.);
#204=ORIENTED_EDGE('',*,*,#425,.F.);
#205=ORIENTED_EDGE('',*,*,#409,.T.);
#206=ORIENTED_EDGE('',*,*,#426,.T.);
#207=ORIENTED_EDGE('',*,*,#417,.F.);
#208=ORIENTED_EDGE('',*,*,#426,.F.);
#209=ORIENTED_EDGE('',*,*,#408,.T.);
#210=ORIENTED_EDGE('',*,*,#427,.T.);
#211=ORIENTED_EDGE('',*,*,#418,.F.);
#212=ORIENTED_EDGE('',*,*,#427,.F.);
#213=ORIENTED_EDGE('',*,*,#407,.T.);
#214=ORIENTED_EDGE('',*,*,#428,.T.);
#215=ORIENTED_EDGE('',*,*,#419,.F.);
#216=ORIENTED_EDGE('',*,*,#428,.F.);
#217=ORIENTED_EDGE('',*,*,#406,.T.);
#218=ORIENTED_EDGE('',*,*,#429,.T.);
#219=ORIENTED_EDGE('',*,*,#420,.F.);
#220=ORIENTED_EDGE('',*,*,#429,.F.);
#221=ORIENTED_EDGE('',*,*,#405,.T.);
#222=ORIENTED_EDGE('',*,*,#422,.T.);
#223=ORIENTED_EDGE('',*,*,#430,.F.);
#224=ORIENTED_EDGE('',*,*,#338,.T.);
#225=ORIENTED_EDGE('',*,*,#431,.T.);
#226=ORIENTED_EDGE('',*,*,#432,.F.);
#227=ORIENTED_EDGE('',*,*,#433,.T.);
#228=ORIENTED_EDGE('',*,*,#434,.F.);
#229=ORIENTED_EDGE('',*,*,#435,.F.);
#230=ORIENTED_EDGE('',*,*,#436,.T.);
#231=ORIENTED_EDGE('',*,*,#437,.T.);
#232=ORIENTED_EDGE('',*,*,#438,.F.);
#233=ORIENTED_EDGE('',*,*,#439,.F.);
#234=ORIENTED_EDGE('',*,*,#434,.T.);
#235=ORIENTED_EDGE('',*,*,#440,.T.);
#236=ORIENTED_EDGE('',*,*,#441,.F.);
#237=ORIENTED_EDGE('',*,*,#442,.F.);
#238=ORIENTED_EDGE('',*,*,#438,.T.);
#239=ORIENTED_EDGE('',*,*,#443,.T.);
#240=ORIENTED_EDGE('',*,*,#444,.F.);
#241=ORIENTED_EDGE('',*,*,#445,.F.);
#242=ORIENTED_EDGE('',*,*,#441,.T.);
#243=ORIENTED_EDGE('',*,*,#356,.F.);
#244=ORIENTED_EDGE('',*,*,#446,.F.);
#245=ORIENTED_EDGE('',*,*,#444,.T.);
#246=ORIENTED_EDGE('',*,*,#447,.T.);
#247=ORIENTED_EDGE('',*,*,#448,.T.);
#248=ORIENTED_EDGE('',*,*,#449,.F.);
#249=ORIENTED_EDGE('',*,*,#450,.F.);
#250=ORIENTED_EDGE('',*,*,#432,.T.);
#251=ORIENTED_EDGE('',*,*,#451,.T.);
#252=ORIENTED_EDGE('',*,*,#452,.F.);
#253=ORIENTED_EDGE('',*,*,#453,.F.);
#254=ORIENTED_EDGE('',*,*,#449,.T.);
#255=ORIENTED_EDGE('',*,*,#454,.T.);
#256=ORIENTED_EDGE('',*,*,#455,.F.);
#257=ORIENTED_EDGE('',*,*,#456,.F.);
#258=ORIENTED_EDGE('',*,*,#452,.T.);
#259=ORIENTED_EDGE('',*,*,#457,.T.);
#260=ORIENTED_EDGE('',*,*,#436,.F.);
#261=ORIENTED_EDGE('',*,*,#458,.F.);
#262=ORIENTED_EDGE('',*,*,#455,.T.);
#263=ORIENTED_EDGE('',*,*,#355,.F.);
#264=ORIENTED_EDGE('',*,*,#339,.T.);
#265=ORIENTED_EDGE('',*,*,#430,.T.);
#266=ORIENTED_EDGE('',*,*,#450,.T.);
#267=ORIENTED_EDGE('',*,*,#453,.T.);
#268=ORIENTED_EDGE('',*,*,#456,.T.);
#269=ORIENTED_EDGE('',*,*,#458,.T.);
#270=ORIENTED_EDGE('',*,*,#435,.T.);
#271=ORIENTED_EDGE('',*,*,#439,.T.);
#272=ORIENTED_EDGE('',*,*,#442,.T.);
#273=ORIENTED_EDGE('',*,*,#445,.T.);
#274=ORIENTED_EDGE('',*,*,#446,.T.);
#275=ORIENTED_EDGE('',*,*,#337,.F.);
#276=ORIENTED_EDGE('',*,*,#357,.T.);
#277=ORIENTED_EDGE('',*,*,#447,.F.);
#278=ORIENTED_EDGE('',*,*,#443,.F.);
#279=ORIENTED_EDGE('',*,*,#440,.F.);
#280=ORIENTED_EDGE('',*,*,#437,.F.);
#281=ORIENTED_EDGE('',*,*,#433,.F.);
#282=ORIENTED_EDGE('',*,*,#457,.F.);
#283=ORIENTED_EDGE('',*,*,#454,.F.);
#284=ORIENTED_EDGE('',*,*,#451,.F.);
#285=ORIENTED_EDGE('',*,*,#448,.F.);
#286=ORIENTED_EDGE('',*,*,#431,.F.);
#287=ORIENTED_EDGE('',*,*,#459,.T.);
#288=ORIENTED_EDGE('',*,*,#344,.F.);
#289=ORIENTED_EDGE('',*,*,#459,.F.);
#290=ORIENTED_EDGE('',*,*,#343,.T.);
#291=ORIENTED_EDGE('',*,*,#348,.F.);
#292=ORIENTED_EDGE('',*,*,#393,.F.);
#293=ORIENTED_EDGE('',*,*,#460,.F.);
#294=ORIENTED_EDGE('',*,*,#392,.T.);
#295=ORIENTED_EDGE('',*,*,#461,.T.);
#296=ORIENTED_EDGE('',*,*,#334,.T.);
#297=ORIENTED_EDGE('',*,*,#460,.T.);
#298=ORIENTED_EDGE('',*,*,#349,.F.);
#299=ORIENTED_EDGE('',*,*,#341,.F.);
#300=ORIENTED_EDGE('',*,*,#462,.F.);
#301=ORIENTED_EDGE('',*,*,#390,.F.);
#302=ORIENTED_EDGE('',*,*,#397,.F.);
#303=ORIENTED_EDGE('',*,*,#382,.F.);
#304=ORIENTED_EDGE('',*,*,#462,.T.);
#305=ORIENTED_EDGE('',*,*,#354,.F.);
#306=ORIENTED_EDGE('',*,*,#399,.F.);
#307=ORIENTED_EDGE('',*,*,#370,.F.);
#308=ORIENTED_EDGE('',*,*,#463,.F.);
#309=ORIENTED_EDGE('',*,*,#380,.F.);
#310=ORIENTED_EDGE('',*,*,#351,.F.);
#311=ORIENTED_EDGE('',*,*,#389,.F.);
#312=ORIENTED_EDGE('',*,*,#463,.T.);
#313=ORIENTED_EDGE('',*,*,#360,.F.);
#314=ORIENTED_EDGE('',*,*,#398,.F.);
#315=ORIENTED_EDGE('',*,*,#374,.F.);
#316=ORIENTED_EDGE('',*,*,#464,.F.);
#317=ORIENTED_EDGE('',*,*,#366,.F.);
#318=ORIENTED_EDGE('',*,*,#346,.F.);
#319=ORIENTED_EDGE('',*,*,#359,.F.);
#320=ORIENTED_EDGE('',*,*,#464,.T.);
#321=ORIENTED_EDGE('',*,*,#394,.F.);
#322=ORIENTED_EDGE('',*,*,#395,.F.);
#323=ORIENTED_EDGE('',*,*,#352,.F.);
#324=ORIENTED_EDGE('',*,*,#465,.F.);
#325=ORIENTED_EDGE('',*,*,#372,.F.);
#326=ORIENTED_EDGE('',*,*,#461,.F.);
#327=ORIENTED_EDGE('',*,*,#391,.F.);
#328=ORIENTED_EDGE('',*,*,#465,.T.);
#329=ORIENTED_EDGE('',*,*,#335,.F.);
#330=ORIENTED_EDGE('',*,*,#466,.F.);
#331=ORIENTED_EDGE('',*,*,#467,.T.);
#332=ORIENTED_EDGE('',*,*,#466,.T.);
#333=ORIENTED_EDGE('',*,*,#467,.F.);
#334=EDGE_CURVE('',#468,#469,#556,.F.);
#335=EDGE_CURVE('',#468,#470,#557,.F.);
#336=EDGE_CURVE('',#470,#471,#558,.F.);
#337=EDGE_CURVE('',#471,#472,#559,.F.);
#338=EDGE_CURVE('',#473,#472,#560,.F.);
#339=EDGE_CURVE('',#474,#473,#561,.F.);
#340=EDGE_CURVE('',#474,#475,#562,.F.);
#341=EDGE_CURVE('',#475,#476,#563,.T.);
#342=EDGE_CURVE('',#477,#476,#564,.F.);
#343=EDGE_CURVE('',#469,#477,#565,.F.);
#344=EDGE_CURVE('',#478,#478,#50,.T.);
#345=EDGE_CURVE('',#479,#480,#566,.F.);
#346=EDGE_CURVE('',#480,#481,#38,.T.);
#347=EDGE_CURVE('',#481,#482,#567,.F.);
#348=EDGE_CURVE('',#482,#477,#568,.T.);
#349=EDGE_CURVE('',#476,#483,#39,.T.);
#350=EDGE_CURVE('',#483,#484,#569,.F.);
#351=EDGE_CURVE('',#484,#479,#40,.T.);
#352=EDGE_CURVE('',#470,#485,#570,.F.);
#353=EDGE_CURVE('',#485,#486,#571,.T.);
#354=EDGE_CURVE('',#486,#475,#572,.T.);
#355=EDGE_CURVE('',#474,#487,#573,.T.);
#356=EDGE_CURVE('',#487,#488,#574,.T.);
#357=EDGE_CURVE('',#471,#488,#575,.T.);
#358=EDGE_CURVE('',#489,#490,#576,.F.);
#359=EDGE_CURVE('',#490,#480,#577,.T.);
#360=EDGE_CURVE('',#479,#491,#578,.F.);
#361=EDGE_CURVE('',#491,#492,#579,.F.);
#362=EDGE_CURVE('',#493,#492,#580,.F.);
#363=EDGE_CURVE('',#493,#494,#581,.F.);
#364=EDGE_CURVE('',#494,#489,#582,.F.);
#365=EDGE_CURVE('',#495,#496,#583,.T.);
#366=EDGE_CURVE('',#495,#490,#584,.T.);
#367=EDGE_CURVE('',#497,#489,#585,.T.);
#368=EDGE_CURVE('',#498,#497,#586,.T.);
#369=EDGE_CURVE('',#498,#492,#587,.T.);
#370=EDGE_CURVE('',#491,#496,#588,.F.);
#371=EDGE_CURVE('',#499,#500,#589,.T.);
#372=EDGE_CURVE('',#500,#501,#590,.T.);
#373=EDGE_CURVE('',#502,#501,#591,.F.);
#374=EDGE_CURVE('',#502,#503,#592,.F.);
#375=EDGE_CURVE('',#504,#503,#593,.T.);
#376=EDGE_CURVE('',#505,#504,#594,.T.);
#377=EDGE_CURVE('',#505,#506,#595,.T.);
#378=EDGE_CURVE('',#506,#499,#596,.T.);
#379=EDGE_CURVE('',#507,#508,#597,.T.);
#380=EDGE_CURVE('',#507,#509,#598,.T.);
#381=EDGE_CURVE('',#510,#509,#599,.F.);
#382=EDGE_CURVE('',#510,#511,#600,.F.);
#383=EDGE_CURVE('',#511,#512,#601,.T.);
#384=EDGE_CURVE('',#512,#513,#602,.T.);
#385=EDGE_CURVE('',#513,#514,#603,.T.);
#386=EDGE_CURVE('',#508,#514,#604,.T.);
#387=EDGE_CURVE('',#505,#514,#605,.T.);
#388=EDGE_CURVE('',#506,#513,#606,.T.);
#389=EDGE_CURVE('',#509,#484,#607,.T.);
#390=EDGE_CURVE('',#483,#510,#608,.F.);
#391=EDGE_CURVE('',#501,#515,#609,.T.);
#392=EDGE_CURVE('',#516,#515,#610,.F.);
#393=EDGE_CURVE('',#516,#482,#611,.F.);
#394=EDGE_CURVE('',#481,#502,#612,.F.);
#395=EDGE_CURVE('',#485,#500,#41,.T.);
#396=EDGE_CURVE('',#512,#499,#613,.T.);
#397=EDGE_CURVE('',#511,#486,#42,.T.);
#398=EDGE_CURVE('',#503,#495,#43,.F.);
#399=EDGE_CURVE('',#496,#507,#44,.F.);
#400=EDGE_CURVE('',#508,#504,#614,.T.);
#401=EDGE_CURVE('',#493,#517,#615,.T.);
#402=EDGE_CURVE('',#517,#518,#616,.T.);
#403=EDGE_CURVE('',#494,#518,#617,.T.);
#404=EDGE_CURVE('',#519,#498,#618,.T.);
#405=EDGE_CURVE('',#520,#519,#51,.T.);
#406=EDGE_CURVE('',#521,#520,#619,.T.);
#407=EDGE_CURVE('',#522,#521,#620,.T.);
#408=EDGE_CURVE('',#523,#522,#621,.T.);
#409=EDGE_CURVE('',#524,#523,#622,.T.);
#410=EDGE_CURVE('',#525,#524,#52,.T.);
#411=EDGE_CURVE('',#526,#525,#623,.T.);
#412=EDGE_CURVE('',#517,#526,#53,.T.);
#413=EDGE_CURVE('',#518,#527,#54,.T.);
#414=EDGE_CURVE('',#527,#528,#624,.T.);
#415=EDGE_CURVE('',#528,#529,#55,.T.);
#416=EDGE_CURVE('',#529,#530,#625,.T.);
#417=EDGE_CURVE('',#530,#531,#626,.T.);
#418=EDGE_CURVE('',#531,#532,#627,.T.);
#419=EDGE_CURVE('',#532,#533,#628,.T.);
#420=EDGE_CURVE('',#533,#534,#56,.T.);
#421=EDGE_CURVE('',#534,#497,#629,.T.);
#422=EDGE_CURVE('',#519,#534,#630,.T.);
#423=EDGE_CURVE('',#526,#527,#631,.T.);
#424=EDGE_CURVE('',#525,#528,#632,.T.);
#425=EDGE_CURVE('',#524,#529,#633,.T.);
#426=EDGE_CURVE('',#523,#530,#634,.T.);
#427=EDGE_CURVE('',#522,#531,#635,.T.);
#428=EDGE_CURVE('',#521,#532,#636,.T.);
#429=EDGE_CURVE('',#520,#533,#637,.T.);
#430=EDGE_CURVE('',#473,#535,#638,.T.);
#431=EDGE_CURVE('',#472,#536,#639,.T.);
#432=EDGE_CURVE('',#535,#536,#640,.T.);
#433=EDGE_CURVE('',#537,#538,#641,.T.);
#434=EDGE_CURVE('',#539,#538,#642,.T.);
#435=EDGE_CURVE('',#540,#539,#643,.T.);
#436=EDGE_CURVE('',#540,#537,#644,.T.);
#437=EDGE_CURVE('',#538,#541,#645,.T.);
#438=EDGE_CURVE('',#542,#541,#646,.T.);
#439=EDGE_CURVE('',#539,#542,#647,.T.);
#440=EDGE_CURVE('',#541,#543,#648,.T.);
#441=EDGE_CURVE('',#544,#543,#649,.T.);
#442=EDGE_CURVE('',#542,#544,#650,.T.);
#443=EDGE_CURVE('',#543,#545,#57,.T.);
#444=EDGE_CURVE('',#546,#545,#651,.T.);
#445=EDGE_CURVE('',#544,#546,#58,.T.);
#446=EDGE_CURVE('',#546,#487,#652,.T.);
#447=EDGE_CURVE('',#545,#488,#653,.T.);
#448=EDGE_CURVE('',#536,#547,#59,.T.);
#449=EDGE_CURVE('',#548,#547,#654,.T.);
#450=EDGE_CURVE('',#535,#548,#60,.T.);
#451=EDGE_CURVE('',#547,#549,#655,.T.);
#452=EDGE_CURVE('',#550,#549,#656,.T.);
#453=EDGE_CURVE('',#548,#550,#657,.T.);
#454=EDGE_CURVE('',#549,#551,#61,.T.);
#455=EDGE_CURVE('',#552,#551,#658,.T.);
#456=EDGE_CURVE('',#550,#552,#62,.T.);
#457=EDGE_CURVE('',#551,#537,#659,.T.);
#458=EDGE_CURVE('',#552,#540,#660,.T.);
#459=EDGE_CURVE('',#553,#553,#63,.T.);
#460=EDGE_CURVE('',#469,#516,#661,.T.);
#461=EDGE_CURVE('',#515,#468,#45,.T.);
#462=EDGE_CURVE('',#510,#475,#46,.T.);
#463=EDGE_CURVE('',#509,#491,#47,.T.);
#464=EDGE_CURVE('',#490,#502,#48,.T.);
#465=EDGE_CURVE('',#501,#470,#49,.T.);
#466=EDGE_CURVE('',#554,#554,#64,.T.);
#467=EDGE_CURVE('',#555,#555,#65,.T.);
#468=VERTEX_POINT('',#1691);
#469=VERTEX_POINT('',#1692);
#470=VERTEX_POINT('',#1694);
#471=VERTEX_POINT('',#1696);
#472=VERTEX_POINT('',#1698);
#473=VERTEX_POINT('',#1700);
#474=VERTEX_POINT('',#1702);
#475=VERTEX_POINT('',#1704);
#476=VERTEX_POINT('',#1706);
#477=VERTEX_POINT('',#1708);
#478=VERTEX_POINT('',#1712);
#479=VERTEX_POINT('',#1714);
#480=VERTEX_POINT('',#1715);
#481=VERTEX_POINT('',#1717);
#482=VERTEX_POINT('',#1719);
#483=VERTEX_POINT('',#1722);
#484=VERTEX_POINT('',#1724);
#485=VERTEX_POINT('',#1728);
#486=VERTEX_POINT('',#1730);
#487=VERTEX_POINT('',#1733);
#488=VERTEX_POINT('',#1735);
#489=VERTEX_POINT('',#1739);
#490=VERTEX_POINT('',#1740);
#491=VERTEX_POINT('',#1743);
#492=VERTEX_POINT('',#1745);
#493=VERTEX_POINT('',#1747);
#494=VERTEX_POINT('',#1749);
#495=VERTEX_POINT('',#1753);
#496=VERTEX_POINT('',#1754);
#497=VERTEX_POINT('',#1757);
#498=VERTEX_POINT('',#1759);
#499=VERTEX_POINT('',#1764);
#500=VERTEX_POINT('',#1765);
#501=VERTEX_POINT('',#1767);
#502=VERTEX_POINT('',#1769);
#503=VERTEX_POINT('',#1771);
#504=VERTEX_POINT('',#1773);
#505=VERTEX_POINT('',#1775);
#506=VERTEX_POINT('',#1777);
#507=VERTEX_POINT('',#1781);
#508=VERTEX_POINT('',#1782);
#509=VERTEX_POINT('',#1784);
#510=VERTEX_POINT('',#1786);
#511=VERTEX_POINT('',#1788);
#512=VERTEX_POINT('',#1790);
#513=VERTEX_POINT('',#1792);
#514=VERTEX_POINT('',#1794);
#515=VERTEX_POINT('',#1804);
#516=VERTEX_POINT('',#1806);
#517=VERTEX_POINT('',#1821);
#518=VERTEX_POINT('',#1823);
#519=VERTEX_POINT('',#1827);
#520=VERTEX_POINT('',#1829);
#521=VERTEX_POINT('',#1831);
#522=VERTEX_POINT('',#1833);
#523=VERTEX_POINT('',#1835);
#524=VERTEX_POINT('',#1837);
#525=VERTEX_POINT('',#1839);
#526=VERTEX_POINT('',#1841);
#527=VERTEX_POINT('',#1845);
#528=VERTEX_POINT('',#1847);
#529=VERTEX_POINT('',#1849);
#530=VERTEX_POINT('',#1851);
#531=VERTEX_POINT('',#1853);
#532=VERTEX_POINT('',#1855);
#533=VERTEX_POINT('',#1857);
#534=VERTEX_POINT('',#1859);
#535=VERTEX_POINT('',#1880);
#536=VERTEX_POINT('',#1882);
#537=VERTEX_POINT('',#1886);
#538=VERTEX_POINT('',#1887);
#539=VERTEX_POINT('',#1889);
#540=VERTEX_POINT('',#1891);
#541=VERTEX_POINT('',#1895);
#542=VERTEX_POINT('',#1897);
#543=VERTEX_POINT('',#1901);
#544=VERTEX_POINT('',#1903);
#545=VERTEX_POINT('',#1907);
#546=VERTEX_POINT('',#1909);
#547=VERTEX_POINT('',#1916);
#548=VERTEX_POINT('',#1918);
#549=VERTEX_POINT('',#1922);
#550=VERTEX_POINT('',#1924);
#551=VERTEX_POINT('',#1928);
#552=VERTEX_POINT('',#1930);
#553=VERTEX_POINT('',#1939);
#554=VERTEX_POINT('',#1959);
#555=VERTEX_POINT('',#1961);
#556=LINE('',#1690,#662);
#557=LINE('',#1693,#663);
#558=LINE('',#1695,#664);
#559=LINE('',#1697,#665);
#560=LINE('',#1699,#666);
#561=LINE('',#1701,#667);
#562=LINE('',#1703,#668);
#563=LINE('',#1705,#669);
#564=LINE('',#1707,#670);
#565=LINE('',#1709,#671);
#566=LINE('',#1713,#672);
#567=LINE('',#1718,#673);
#568=LINE('',#1720,#674);
#569=LINE('',#1723,#675);
#570=LINE('',#1727,#676);
#571=LINE('',#1729,#677);
#572=LINE('',#1731,#678);
#573=LINE('',#1732,#679);
#574=LINE('',#1734,#680);
#575=LINE('',#1736,#681);
#576=LINE('',#1738,#682);
#577=LINE('',#1741,#683);
#578=LINE('',#1742,#684);
#579=LINE('',#1744,#685);
#580=LINE('',#1746,#686);
#581=LINE('',#1748,#687);
#582=LINE('',#1750,#688);
#583=LINE('',#1752,#689);
#584=LINE('',#1755,#690);
#585=LINE('',#1756,#691);
#586=LINE('',#1758,#692);
#587=LINE('',#1760,#693);
#588=LINE('',#1761,#694);
#589=LINE('',#1763,#695);
#590=LINE('',#1766,#696);
#591=LINE('',#1768,#697);
#592=LINE('',#1770,#698);
#593=LINE('',#1772,#699);
#594=LINE('',#1774,#700);
#595=LINE('',#1776,#701);
#596=LINE('',#1778,#702);
#597=LINE('',#1780,#703);
#598=LINE('',#1783,#704);
#599=LINE('',#1785,#705);
#600=LINE('',#1787,#706);
#601=LINE('',#1789,#707);
#602=LINE('',#1791,#708);
#603=LINE('',#1793,#709);
#604=LINE('',#1795,#710);
#605=LINE('',#1797,#711);
#606=LINE('',#1798,#712);
#607=LINE('',#1800,#713);
#608=LINE('',#1801,#714);
#609=LINE('',#1803,#715);
#610=LINE('',#1805,#716);
#611=LINE('',#1807,#717);
#612=LINE('',#1808,#718);
#613=LINE('',#1811,#719);
#614=LINE('',#1817,#720);
#615=LINE('',#1820,#721);
#616=LINE('',#1822,#722);
#617=LINE('',#1824,#723);
#618=LINE('',#1826,#724);
#619=LINE('',#1830,#725);
#620=LINE('',#1832,#726);
#621=LINE('',#1834,#727);
#622=LINE('',#1836,#728);
#623=LINE('',#1840,#729);
#624=LINE('',#1846,#730);
#625=LINE('',#1850,#731);
#626=LINE('',#1852,#732);
#627=LINE('',#1854,#733);
#628=LINE('',#1856,#734);
#629=LINE('',#1860,#735);
#630=LINE('',#1862,#736);
#631=LINE('',#1864,#737);
#632=LINE('',#1866,#738);
#633=LINE('',#1868,#739);
#634=LINE('',#1870,#740);
#635=LINE('',#1872,#741);
#636=LINE('',#1874,#742);
#637=LINE('',#1876,#743);
#638=LINE('',#1879,#744);
#639=LINE('',#1881,#745);
#640=LINE('',#1883,#746);
#641=LINE('',#1885,#747);
#642=LINE('',#1888,#748);
#643=LINE('',#1890,#749);
#644=LINE('',#1892,#750);
#645=LINE('',#1894,#751);
#646=LINE('',#1896,#752);
#647=LINE('',#1898,#753);
#648=LINE('',#1900,#754);
#649=LINE('',#1902,#755);
#650=LINE('',#1904,#756);
#651=LINE('',#1908,#757);
#652=LINE('',#1912,#758);
#653=LINE('',#1913,#759);
#654=LINE('',#1917,#760);
#655=LINE('',#1921,#761);
#656=LINE('',#1923,#762);
#657=LINE('',#1925,#763);
#658=LINE('',#1929,#764);
#659=LINE('',#1933,#765);
#660=LINE('',#1934,#766);
#661=LINE('',#1942,#767);
#662=VECTOR('',#1422,1000.);
#663=VECTOR('',#1423,1000.);
#664=VECTOR('',#1424,1000.);
#665=VECTOR('',#1425,1000.);
#666=VECTOR('',#1426,1000.);
#667=VECTOR('',#1427,1000.);
#668=VECTOR('',#1428,1000.);
#669=VECTOR('',#1429,1000.);
#670=VECTOR('',#1430,1000.);
#671=VECTOR('',#1431,1000.);
#672=VECTOR('',#1436,1000.);
#673=VECTOR('',#1439,1000.);
#674=VECTOR('',#1440,1000.);
#675=VECTOR('',#1443,1000.);
#676=VECTOR('',#1448,1000.);
#677=VECTOR('',#1449,1000.);
#678=VECTOR('',#1450,1000.);
#679=VECTOR('',#1451,1000.);
#680=VECTOR('',#1452,1000.);
#681=VECTOR('',#1453,1000.);
#682=VECTOR('',#1456,1000.);
#683=VECTOR('',#1457,1000.);
#684=VECTOR('',#1458,1000.);
#685=VECTOR('',#1459,1000.);
#686=VECTOR('',#1460,1000.);
#687=VECTOR('',#1461,1000.);
#688=VECTOR('',#1462,1000.);
#689=VECTOR('',#1465,1000.);
#690=VECTOR('',#1466,1000.);
#691=VECTOR('',#1467,1000.);
#692=VECTOR('',#1468,1000.);
#693=VECTOR('',#1469,1000.);
#694=VECTOR('',#1470,1000.);
#695=VECTOR('',#1473,1000.);
#696=VECTOR('',#1474,1000.);
#697=VECTOR('',#1475,1000.);
#698=VECTOR('',#1476,1000.);
#699=VECTOR('',#1477,1000.);
#700=VECTOR('',#1478,1000.);
#701=VECTOR('',#1479,1000.);
#702=VECTOR('',#1480,1000.);
#703=VECTOR('',#1483,1000.);
#704=VECTOR('',#1484,1000.);
#705=VECTOR('',#1485,1000.);
#706=VECTOR('',#1486,1000.);
#707=VECTOR('',#1487,1000.);
#708=VECTOR('',#1488,1000.);
#709=VECTOR('',#1489,1000.);
#710=VECTOR('',#1490,1000.);
#711=VECTOR('',#1493,1000.);
#712=VECTOR('',#1494,1000.);
#713=VECTOR('',#1497,1000.);
#714=VECTOR('',#1498,1000.);
#715=VECTOR('',#1501,1000.);
#716=VECTOR('',#1502,1000.);
#717=VECTOR('',#1503,1000.);
#718=VECTOR('',#1504,1000.);
#719=VECTOR('',#1509,1000.);
#720=VECTOR('',#1520,1000.);
#721=VECTOR('',#1525,1000.);
#722=VECTOR('',#1526,1000.);
#723=VECTOR('',#1527,1000.);
#724=VECTOR('',#1530,1000.);
#725=VECTOR('',#1533,1000.);
#726=VECTOR('',#1534,1000.);
#727=VECTOR('',#1535,1000.);
#728=VECTOR('',#1536,1000.);
#729=VECTOR('',#1539,1000.);
#730=VECTOR('',#1546,1000.);
#731=VECTOR('',#1549,1000.);
#732=VECTOR('',#1550,1000.);
#733=VECTOR('',#1551,1000.);
#734=VECTOR('',#1552,1000.);
#735=VECTOR('',#1555,1000.);
#736=VECTOR('',#1558,1000.);
#737=VECTOR('',#1561,1000.);
#738=VECTOR('',#1564,1000.);
#739=VECTOR('',#1567,1000.);
#740=VECTOR('',#1570,1000.);
#741=VECTOR('',#1573,1000.);
#742=VECTOR('',#1576,1000.);
#743=VECTOR('',#1579,1000.);
#744=VECTOR('',#1584,1000.);
#745=VECTOR('',#1585,1000.);
#746=VECTOR('',#1586,1000.);
#747=VECTOR('',#1589,1000.);
#748=VECTOR('',#1590,1000.);
#749=VECTOR('',#1591,1000.);
#750=VECTOR('',#1592,1000.);
#751=VECTOR('',#1595,1000.);
#752=VECTOR('',#1596,1000.);
#753=VECTOR('',#1597,1000.);
#754=VECTOR('',#1600,1000.);
#755=VECTOR('',#1601,1000.);
#756=VECTOR('',#1602,1000.);
#757=VECTOR('',#1607,1000.);
#758=VECTOR('',#1612,1000.);
#759=VECTOR('',#1613,1000.);
#760=VECTOR('',#1618,1000.);
#761=VECTOR('',#1623,1000.);
#762=VECTOR('',#1624,1000.);
#763=VECTOR('',#1625,1000.);
#764=VECTOR('',#1630,1000.);
#765=VECTOR('',#1635,1000.);
#766=VECTOR('',#1636,1000.);
#767=VECTOR('',#1649,1000.);
#768=EDGE_LOOP('',(#66,#67,#68,#69,#70,#71,#72,#73,#74,#75));
#769=EDGE_LOOP('',(#76));
#770=EDGE_LOOP('',(#77,#78,#79,#80,#81,#82,#83,#84));
#771=EDGE_LOOP('',(#85,#86,#87,#88,#89,#90,#91,#92));
#772=EDGE_LOOP('',(#93,#94,#95,#96,#97,#98,#99,#100));
#773=EDGE_LOOP('',(#101,#102,#103,#104,#105,#106,#107,#108));
#774=EDGE_LOOP('',(#109,#110,#111,#112,#113,#114,#115,#116));
#775=EDGE_LOOP('',(#117,#118,#119,#120,#121,#122,#123,#124));
#776=EDGE_LOOP('',(#125,#126,#127,#128));
#777=EDGE_LOOP('',(#129,#130,#131,#132));
#778=EDGE_LOOP('',(#133,#134,#135,#136,#137,#138));
#779=EDGE_LOOP('',(#139,#140,#141,#142,#143,#144));
#780=EDGE_LOOP('',(#145,#146,#147,#148));
#781=EDGE_LOOP('',(#149,#150,#151,#152,#153,#154));
#782=EDGE_LOOP('',(#155,#156,#157,#158));
#783=EDGE_LOOP('',(#159,#160,#161,#162));
#784=EDGE_LOOP('',(#163,#164,#165,#166,#167,#168,#169,#170,#171,#172,#173,
#174));
#785=EDGE_LOOP('',(#175,#176,#177,#178,#179,#180,#181,#182,#183,#184,#185,
#186));
#786=EDGE_LOOP('',(#187,#188,#189,#190));
#787=EDGE_LOOP('',(#191,#192,#193,#194));
#788=EDGE_LOOP('',(#195,#196,#197,#198));
#789=EDGE_LOOP('',(#199,#200,#201,#202));
#790=EDGE_LOOP('',(#203,#204,#205,#206));
#791=EDGE_LOOP('',(#207,#208,#209,#210));
#792=EDGE_LOOP('',(#211,#212,#213,#214));
#793=EDGE_LOOP('',(#215,#216,#217,#218));
#794=EDGE_LOOP('',(#219,#220,#221,#222));
#795=EDGE_LOOP('',(#223,#224,#225,#226));
#796=EDGE_LOOP('',(#227,#228,#229,#230));
#797=EDGE_LOOP('',(#231,#232,#233,#234));
#798=EDGE_LOOP('',(#235,#236,#237,#238));
#799=EDGE_LOOP('',(#239,#240,#241,#242));
#800=EDGE_LOOP('',(#243,#244,#245,#246));
#801=EDGE_LOOP('',(#247,#248,#249,#250));
#802=EDGE_LOOP('',(#251,#252,#253,#254));
#803=EDGE_LOOP('',(#255,#256,#257,#258));
#804=EDGE_LOOP('',(#259,#260,#261,#262));
#805=EDGE_LOOP('',(#263,#264,#265,#266,#267,#268,#269,#270,#271,#272,#273,
#274));
#806=EDGE_LOOP('',(#275,#276,#277,#278,#279,#280,#281,#282,#283,#284,#285,
#286));
#807=EDGE_LOOP('',(#287));
#808=EDGE_LOOP('',(#288));
#809=EDGE_LOOP('',(#289));
#810=EDGE_LOOP('',(#290,#291,#292,#293));
#811=EDGE_LOOP('',(#294,#295,#296,#297));
#812=EDGE_LOOP('',(#298,#299,#300,#301));
#813=EDGE_LOOP('',(#302,#303,#304,#305));
#814=EDGE_LOOP('',(#306,#307,#308,#309));
#815=EDGE_LOOP('',(#310,#311,#312,#313));
#816=EDGE_LOOP('',(#314,#315,#316,#317));
#817=EDGE_LOOP('',(#318,#319,#320,#321));
#818=EDGE_LOOP('',(#322,#323,#324,#325));
#819=EDGE_LOOP('',(#326,#327,#328,#329));
#820=EDGE_LOOP('',(#330));
#821=EDGE_LOOP('',(#331));
#822=EDGE_LOOP('',(#332));
#823=EDGE_LOOP('',(#333));
#824=FACE_BOUND('',#768,.T.);
#825=FACE_BOUND('',#769,.T.);
#826=FACE_BOUND('',#770,.T.);
#827=FACE_BOUND('',#771,.T.);
#828=FACE_BOUND('',#772,.T.);
#829=FACE_BOUND('',#773,.T.);
#830=FACE_BOUND('',#774,.T.);
#831=FACE_BOUND('',#775,.T.);
#832=FACE_BOUND('',#776,.T.);
#833=FACE_BOUND('',#777,.T.);
#834=FACE_BOUND('',#778,.T.);
#835=FACE_BOUND('',#779,.T.);
#836=FACE_BOUND('',#780,.T.);
#837=FACE_BOUND('',#781,.T.);
#838=FACE_BOUND('',#782,.T.);
#839=FACE_BOUND('',#783,.T.);
#840=FACE_BOUND('',#784,.T.);
#841=FACE_BOUND('',#785,.T.);
#842=FACE_BOUND('',#786,.T.);
#843=FACE_BOUND('',#787,.T.);
#844=FACE_BOUND('',#788,.T.);
#845=FACE_BOUND('',#789,.T.);
#846=FACE_BOUND('',#790,.T.);
#847=FACE_BOUND('',#791,.T.);
#848=FACE_BOUND('',#792,.T.);
#849=FACE_BOUND('',#793,.T.);
#850=FACE_BOUND('',#794,.T.);
#851=FACE_BOUND('',#795,.T.);
#852=FACE_BOUND('',#796,.T.);
#853=FACE_BOUND('',#797,.T.);
#854=FACE_BOUND('',#798,.T.);
#855=FACE_BOUND('',#799,.T.);
#856=FACE_BOUND('',#800,.T.);
#857=FACE_BOUND('',#801,.T.);
#858=FACE_BOUND('',#802,.T.);
#859=FACE_BOUND('',#803,.T.);
#860=FACE_BOUND('',#804,.T.);
#861=FACE_BOUND('',#805,.T.);
#862=FACE_BOUND('',#806,.T.);
#863=FACE_BOUND('',#807,.T.);
#864=FACE_BOUND('',#808,.T.);
#865=FACE_BOUND('',#809,.T.);
#866=FACE_BOUND('',#810,.T.);
#867=FACE_BOUND('',#811,.T.);
#868=FACE_BOUND('',#812,.T.);
#869=FACE_BOUND('',#813,.T.);
#870=FACE_BOUND('',#814,.T.);
#871=FACE_BOUND('',#815,.T.);
#872=FACE_BOUND('',#816,.T.);
#873=FACE_BOUND('',#817,.T.);
#874=FACE_BOUND('',#818,.T.);
#875=FACE_BOUND('',#819,.T.);
#876=FACE_BOUND('',#820,.T.);
#877=FACE_BOUND('',#821,.T.);
#878=FACE_BOUND('',#822,.T.);
#879=FACE_BOUND('',#823,.T.);
#880=PLANE('',#1337);
#881=PLANE('',#1338);
#882=PLANE('',#1343);
#883=PLANE('',#1344);
#884=PLANE('',#1345);
#885=PLANE('',#1346);
#886=PLANE('',#1347);
#887=PLANE('',#1348);
#888=PLANE('',#1349);
#889=PLANE('',#1350);
#890=PLANE('',#1351);
#891=PLANE('',#1354);
#892=PLANE('',#1355);
#893=PLANE('',#1358);
#894=PLANE('',#1359);
#895=PLANE('',#1360);
#896=PLANE('',#1364);
#897=PLANE('',#1368);
#898=PLANE('',#1370);
#899=PLANE('',#1372);
#900=PLANE('',#1373);
#901=PLANE('',#1374);
#902=PLANE('',#1375);
#903=PLANE('',#1377);
#904=PLANE('',#1378);
#905=PLANE('',#1379);
#906=PLANE('',#1380);
#907=PLANE('',#1384);
#908=PLANE('',#1388);
#909=PLANE('',#1392);
#910=PLANE('',#1393);
#911=PLANE('',#1394);
#912=PLANE('',#1397);
#913=PLANE('',#1398);
#914=PLANE('',#1399);
#915=PLANE('',#1416);
#916=PLANE('',#1417);
#917=STYLED_ITEM('',(#968),#1277);
#918=STYLED_ITEM('',(#969),#1278);
#919=STYLED_ITEM('',(#970),#1279);
#920=STYLED_ITEM('',(#971),#1280);
#921=STYLED_ITEM('',(#972),#1281);
#922=STYLED_ITEM('',(#973),#1282);
#923=STYLED_ITEM('',(#974),#1283);
#924=STYLED_ITEM('',(#975),#1284);
#925=STYLED_ITEM('',(#976),#1285);
#926=STYLED_ITEM('',(#977),#1286);
#927=STYLED_ITEM('',(#978),#1287);
#928=STYLED_ITEM('',(#979),#1288);
#929=STYLED_ITEM('',(#980),#1289);
#930=STYLED_ITEM('',(#981),#1290);
#931=STYLED_ITEM('',(#982),#1291);
#932=STYLED_ITEM('',(#983),#1292);
#933=STYLED_ITEM('',(#984),#1293);
#934=STYLED_ITEM('',(#985),#1294);
#935=STYLED_ITEM('',(#986),#1295);
#936=STYLED_ITEM('',(#987),#1296);
#937=STYLED_ITEM('',(#988),#1297);
#938=STYLED_ITEM('',(#989),#1298);
#939=STYLED_ITEM('',(#990),#1299);
#940=STYLED_ITEM('',(#991),#1300);
#941=STYLED_ITEM('',(#992),#1301);
#942=STYLED_ITEM('',(#993),#1302);
#943=STYLED_ITEM('',(#994),#1303);
#944=STYLED_ITEM('',(#995),#1304);
#945=STYLED_ITEM('',(#996),#1305);
#946=STYLED_ITEM('',(#997),#1306);
#947=STYLED_ITEM('',(#998),#1307);
#948=STYLED_ITEM('',(#999),#1308);
#949=STYLED_ITEM('',(#1000),#1309);
#950=STYLED_ITEM('',(#1001),#1310);
#951=STYLED_ITEM('',(#1002),#1311);
#952=STYLED_ITEM('',(#1003),#1312);
#953=STYLED_ITEM('',(#1004),#1313);
#954=STYLED_ITEM('',(#1005),#1314);
#955=STYLED_ITEM('',(#1006),#1315);
#956=STYLED_ITEM('',(#1007),#1316);
#957=STYLED_ITEM('',(#1008),#1317);
#958=STYLED_ITEM('',(#1009),#1318);
#959=STYLED_ITEM('',(#1010),#1319);
#960=STYLED_ITEM('',(#1011),#1320);
#961=STYLED_ITEM('',(#1012),#1321);
#962=STYLED_ITEM('',(#1013),#1322);
#963=STYLED_ITEM('',(#1014),#1323);
#964=STYLED_ITEM('',(#1015),#1324);
#965=STYLED_ITEM('',(#1016),#1325);
#966=STYLED_ITEM('',(#1017),#1326);
#967=STYLED_ITEM('',(#1018),#1333);
#968=PRESENTATION_STYLE_ASSIGNMENT((#1019));
#969=PRESENTATION_STYLE_ASSIGNMENT((#1020));
#970=PRESENTATION_STYLE_ASSIGNMENT((#1021));
#971=PRESENTATION_STYLE_ASSIGNMENT((#1022));
#972=PRESENTATION_STYLE_ASSIGNMENT((#1023));
#973=PRESENTATION_STYLE_ASSIGNMENT((#1024));
#974=PRESENTATION_STYLE_ASSIGNMENT((#1025));
#975=PRESENTATION_STYLE_ASSIGNMENT((#1026));
#976=PRESENTATION_STYLE_ASSIGNMENT((#1027));
#977=PRESENTATION_STYLE_ASSIGNMENT((#1028));
#978=PRESENTATION_STYLE_ASSIGNMENT((#1029));
#979=PRESENTATION_STYLE_ASSIGNMENT((#1030));
#980=PRESENTATION_STYLE_ASSIGNMENT((#1031));
#981=PRESENTATION_STYLE_ASSIGNMENT((#1032));
#982=PRESENTATION_STYLE_ASSIGNMENT((#1033));
#983=PRESENTATION_STYLE_ASSIGNMENT((#1034));
#984=PRESENTATION_STYLE_ASSIGNMENT((#1035));
#985=PRESENTATION_STYLE_ASSIGNMENT((#1036));
#986=PRESENTATION_STYLE_ASSIGNMENT((#1037));
#987=PRESENTATION_STYLE_ASSIGNMENT((#1038));
#988=PRESENTATION_STYLE_ASSIGNMENT((#1039));
#989=PRESENTATION_STYLE_ASSIGNMENT((#1040));
#990=PRESENTATION_STYLE_ASSIGNMENT((#1041));
#991=PRESENTATION_STYLE_ASSIGNMENT((#1042));
#992=PRESENTATION_STYLE_ASSIGNMENT((#1043));
#993=PRESENTATION_STYLE_ASSIGNMENT((#1044));
#994=PRESENTATION_STYLE_ASSIGNMENT((#1045));
#995=PRESENTATION_STYLE_ASSIGNMENT((#1046));
#996=PRESENTATION_STYLE_ASSIGNMENT((#1047));
#997=PRESENTATION_STYLE_ASSIGNMENT((#1048));
#998=PRESENTATION_STYLE_ASSIGNMENT((#1049));
#999=PRESENTATION_STYLE_ASSIGNMENT((#1050));
#1000=PRESENTATION_STYLE_ASSIGNMENT((#1051));
#1001=PRESENTATION_STYLE_ASSIGNMENT((#1052));
#1002=PRESENTATION_STYLE_ASSIGNMENT((#1053));
#1003=PRESENTATION_STYLE_ASSIGNMENT((#1054));
#1004=PRESENTATION_STYLE_ASSIGNMENT((#1055));
#1005=PRESENTATION_STYLE_ASSIGNMENT((#1056));
#1006=PRESENTATION_STYLE_ASSIGNMENT((#1057));
#1007=PRESENTATION_STYLE_ASSIGNMENT((#1058));
#1008=PRESENTATION_STYLE_ASSIGNMENT((#1059));
#1009=PRESENTATION_STYLE_ASSIGNMENT((#1060));
#1010=PRESENTATION_STYLE_ASSIGNMENT((#1061));
#1011=PRESENTATION_STYLE_ASSIGNMENT((#1062));
#1012=PRESENTATION_STYLE_ASSIGNMENT((#1063));
#1013=PRESENTATION_STYLE_ASSIGNMENT((#1064));
#1014=PRESENTATION_STYLE_ASSIGNMENT((#1065));
#1015=PRESENTATION_STYLE_ASSIGNMENT((#1066));
#1016=PRESENTATION_STYLE_ASSIGNMENT((#1067));
#1017=PRESENTATION_STYLE_ASSIGNMENT((#1068));
#1018=PRESENTATION_STYLE_ASSIGNMENT((#1069));
#1019=SURFACE_STYLE_USAGE(.BOTH.,#1070);
#1020=SURFACE_STYLE_USAGE(.BOTH.,#1071);
#1021=SURFACE_STYLE_USAGE(.BOTH.,#1072);
#1022=SURFACE_STYLE_USAGE(.BOTH.,#1073);
#1023=SURFACE_STYLE_USAGE(.BOTH.,#1074);
#1024=SURFACE_STYLE_USAGE(.BOTH.,#1075);
#1025=SURFACE_STYLE_USAGE(.BOTH.,#1076);
#1026=SURFACE_STYLE_USAGE(.BOTH.,#1077);
#1027=SURFACE_STYLE_USAGE(.BOTH.,#1078);
#1028=SURFACE_STYLE_USAGE(.BOTH.,#1079);
#1029=SURFACE_STYLE_USAGE(.BOTH.,#1080);
#1030=SURFACE_STYLE_USAGE(.BOTH.,#1081);
#1031=SURFACE_STYLE_USAGE(.BOTH.,#1082);
#1032=SURFACE_STYLE_USAGE(.BOTH.,#1083);
#1033=SURFACE_STYLE_USAGE(.BOTH.,#1084);
#1034=SURFACE_STYLE_USAGE(.BOTH.,#1085);
#1035=SURFACE_STYLE_USAGE(.BOTH.,#1086);
#1036=SURFACE_STYLE_USAGE(.BOTH.,#1087);
#1037=SURFACE_STYLE_USAGE(.BOTH.,#1088);
#1038=SURFACE_STYLE_USAGE(.BOTH.,#1089);
#1039=SURFACE_STYLE_USAGE(.BOTH.,#1090);
#1040=SURFACE_STYLE_USAGE(.BOTH.,#1091);
#1041=SURFACE_STYLE_USAGE(.BOTH.,#1092);
#1042=SURFACE_STYLE_USAGE(.BOTH.,#1093);
#1043=SURFACE_STYLE_USAGE(.BOTH.,#1094);
#1044=SURFACE_STYLE_USAGE(.BOTH.,#1095);
#1045=SURFACE_STYLE_USAGE(.BOTH.,#1096);
#1046=SURFACE_STYLE_USAGE(.BOTH.,#1097);
#1047=SURFACE_STYLE_USAGE(.BOTH.,#1098);
#1048=SURFACE_STYLE_USAGE(.BOTH.,#1099);
#1049=SURFACE_STYLE_USAGE(.BOTH.,#1100);
#1050=SURFACE_STYLE_USAGE(.BOTH.,#1101);
#1051=SURFACE_STYLE_USAGE(.BOTH.,#1102);
#1052=SURFACE_STYLE_USAGE(.BOTH.,#1103);
#1053=SURFACE_STYLE_USAGE(.BOTH.,#1104);
#1054=SURFACE_STYLE_USAGE(.BOTH.,#1105);
#1055=SURFACE_STYLE_USAGE(.BOTH.,#1106);
#1056=SURFACE_STYLE_USAGE(.BOTH.,#1107);
#1057=SURFACE_STYLE_USAGE(.BOTH.,#1108);
#1058=SURFACE_STYLE_USAGE(.BOTH.,#1109);
#1059=SURFACE_STYLE_USAGE(.BOTH.,#1110);
#1060=SURFACE_STYLE_USAGE(.BOTH.,#1111);
#1061=SURFACE_STYLE_USAGE(.BOTH.,#1112);
#1062=SURFACE_STYLE_USAGE(.BOTH.,#1113);
#1063=SURFACE_STYLE_USAGE(.BOTH.,#1114);
#1064=SURFACE_STYLE_USAGE(.BOTH.,#1115);
#1065=SURFACE_STYLE_USAGE(.BOTH.,#1116);
#1066=SURFACE_STYLE_USAGE(.BOTH.,#1117);
#1067=SURFACE_STYLE_USAGE(.BOTH.,#1118);
#1068=SURFACE_STYLE_USAGE(.BOTH.,#1119);
#1069=SURFACE_STYLE_USAGE(.BOTH.,#1120);
#1070=SURFACE_SIDE_STYLE('',(#1121));
#1071=SURFACE_SIDE_STYLE('',(#1122));
#1072=SURFACE_SIDE_STYLE('',(#1123));
#1073=SURFACE_SIDE_STYLE('',(#1124));
#1074=SURFACE_SIDE_STYLE('',(#1125));
#1075=SURFACE_SIDE_STYLE('',(#1126));
#1076=SURFACE_SIDE_STYLE('',(#1127));
#1077=SURFACE_SIDE_STYLE('',(#1128));
#1078=SURFACE_SIDE_STYLE('',(#1129));
#1079=SURFACE_SIDE_STYLE('',(#1130));
#1080=SURFACE_SIDE_STYLE('',(#1131));
#1081=SURFACE_SIDE_STYLE('',(#1132));
#1082=SURFACE_SIDE_STYLE('',(#1133));
#1083=SURFACE_SIDE_STYLE('',(#1134));
#1084=SURFACE_SIDE_STYLE('',(#1135));
#1085=SURFACE_SIDE_STYLE('',(#1136));
#1086=SURFACE_SIDE_STYLE('',(#1137));
#1087=SURFACE_SIDE_STYLE('',(#1138));
#1088=SURFACE_SIDE_STYLE('',(#1139));
#1089=SURFACE_SIDE_STYLE('',(#1140));
#1090=SURFACE_SIDE_STYLE('',(#1141));
#1091=SURFACE_SIDE_STYLE('',(#1142));
#1092=SURFACE_SIDE_STYLE('',(#1143));
#1093=SURFACE_SIDE_STYLE('',(#1144));
#1094=SURFACE_SIDE_STYLE('',(#1145));
#1095=SURFACE_SIDE_STYLE('',(#1146));
#1096=SURFACE_SIDE_STYLE('',(#1147));
#1097=SURFACE_SIDE_STYLE('',(#1148));
#1098=SURFACE_SIDE_STYLE('',(#1149));
#1099=SURFACE_SIDE_STYLE('',(#1150));
#1100=SURFACE_SIDE_STYLE('',(#1151));
#1101=SURFACE_SIDE_STYLE('',(#1152));
#1102=SURFACE_SIDE_STYLE('',(#1153));
#1103=SURFACE_SIDE_STYLE('',(#1154));
#1104=SURFACE_SIDE_STYLE('',(#1155));
#1105=SURFACE_SIDE_STYLE('',(#1156));
#1106=SURFACE_SIDE_STYLE('',(#1157));
#1107=SURFACE_SIDE_STYLE('',(#1158));
#1108=SURFACE_SIDE_STYLE('',(#1159));
#1109=SURFACE_SIDE_STYLE('',(#1160));
#1110=SURFACE_SIDE_STYLE('',(#1161));
#1111=SURFACE_SIDE_STYLE('',(#1162));
#1112=SURFACE_SIDE_STYLE('',(#1163));
#1113=SURFACE_SIDE_STYLE('',(#1164));
#1114=SURFACE_SIDE_STYLE('',(#1165));
#1115=SURFACE_SIDE_STYLE('',(#1166));
#1116=SURFACE_SIDE_STYLE('',(#1167));
#1117=SURFACE_SIDE_STYLE('',(#1168));
#1118=SURFACE_SIDE_STYLE('',(#1169));
#1119=SURFACE_SIDE_STYLE('',(#1170));
#1120=SURFACE_SIDE_STYLE('',(#1171,#18));
#1121=SURFACE_STYLE_FILL_AREA(#1172);
#1122=SURFACE_STYLE_FILL_AREA(#1173);
#1123=SURFACE_STYLE_FILL_AREA(#1174);
#1124=SURFACE_STYLE_FILL_AREA(#1175);
#1125=SURFACE_STYLE_FILL_AREA(#1176);
#1126=SURFACE_STYLE_FILL_AREA(#1177);
#1127=SURFACE_STYLE_FILL_AREA(#1178);
#1128=SURFACE_STYLE_FILL_AREA(#1179);
#1129=SURFACE_STYLE_FILL_AREA(#1180);
#1130=SURFACE_STYLE_FILL_AREA(#1181);
#1131=SURFACE_STYLE_FILL_AREA(#1182);
#1132=SURFACE_STYLE_FILL_AREA(#1183);
#1133=SURFACE_STYLE_FILL_AREA(#1184);
#1134=SURFACE_STYLE_FILL_AREA(#1185);
#1135=SURFACE_STYLE_FILL_AREA(#1186);
#1136=SURFACE_STYLE_FILL_AREA(#1187);
#1137=SURFACE_STYLE_FILL_AREA(#1188);
#1138=SURFACE_STYLE_FILL_AREA(#1189);
#1139=SURFACE_STYLE_FILL_AREA(#1190);
#1140=SURFACE_STYLE_FILL_AREA(#1191);
#1141=SURFACE_STYLE_FILL_AREA(#1192);
#1142=SURFACE_STYLE_FILL_AREA(#1193);
#1143=SURFACE_STYLE_FILL_AREA(#1194);
#1144=SURFACE_STYLE_FILL_AREA(#1195);
#1145=SURFACE_STYLE_FILL_AREA(#1196);
#1146=SURFACE_STYLE_FILL_AREA(#1197);
#1147=SURFACE_STYLE_FILL_AREA(#1198);
#1148=SURFACE_STYLE_FILL_AREA(#1199);
#1149=SURFACE_STYLE_FILL_AREA(#1200);
#1150=SURFACE_STYLE_FILL_AREA(#1201);
#1151=SURFACE_STYLE_FILL_AREA(#1202);
#1152=SURFACE_STYLE_FILL_AREA(#1203);
#1153=SURFACE_STYLE_FILL_AREA(#1204);
#1154=SURFACE_STYLE_FILL_AREA(#1205);
#1155=SURFACE_STYLE_FILL_AREA(#1206);
#1156=SURFACE_STYLE_FILL_AREA(#1207);
#1157=SURFACE_STYLE_FILL_AREA(#1208);
#1158=SURFACE_STYLE_FILL_AREA(#1209);
#1159=SURFACE_STYLE_FILL_AREA(#1210);
#1160=SURFACE_STYLE_FILL_AREA(#1211);
#1161=SURFACE_STYLE_FILL_AREA(#1212);
#1162=SURFACE_STYLE_FILL_AREA(#1213);
#1163=SURFACE_STYLE_FILL_AREA(#1214);
#1164=SURFACE_STYLE_FILL_AREA(#1215);
#1165=SURFACE_STYLE_FILL_AREA(#1216);
#1166=SURFACE_STYLE_FILL_AREA(#1217);
#1167=SURFACE_STYLE_FILL_AREA(#1218);
#1168=SURFACE_STYLE_FILL_AREA(#1219);
#1169=SURFACE_STYLE_FILL_AREA(#1220);
#1170=SURFACE_STYLE_FILL_AREA(#1221);
#1171=SURFACE_STYLE_FILL_AREA(#1222);
#1172=FILL_AREA_STYLE('',(#1223));
#1173=FILL_AREA_STYLE('',(#1224));
#1174=FILL_AREA_STYLE('',(#1225));
#1175=FILL_AREA_STYLE('',(#1226));
#1176=FILL_AREA_STYLE('',(#1227));
#1177=FILL_AREA_STYLE('',(#1228));
#1178=FILL_AREA_STYLE('',(#1229));
#1179=FILL_AREA_STYLE('',(#1230));
#1180=FILL_AREA_STYLE('',(#1231));
#1181=FILL_AREA_STYLE('',(#1232));
#1182=FILL_AREA_STYLE('',(#1233));
#1183=FILL_AREA_STYLE('',(#1234));
#1184=FILL_AREA_STYLE('',(#1235));
#1185=FILL_AREA_STYLE('',(#1236));
#1186=FILL_AREA_STYLE('',(#1237));
#1187=FILL_AREA_STYLE('',(#1238));
#1188=FILL_AREA_STYLE('',(#1239));
#1189=FILL_AREA_STYLE('',(#1240));
#1190=FILL_AREA_STYLE('',(#1241));
#1191=FILL_AREA_STYLE('',(#1242));
#1192=FILL_AREA_STYLE('',(#1243));
#1193=FILL_AREA_STYLE('',(#1244));
#1194=FILL_AREA_STYLE('',(#1245));
#1195=FILL_AREA_STYLE('',(#1246));
#1196=FILL_AREA_STYLE('',(#1247));
#1197=FILL_AREA_STYLE('',(#1248));
#1198=FILL_AREA_STYLE('',(#1249));
#1199=FILL_AREA_STYLE('',(#1250));
#1200=FILL_AREA_STYLE('',(#1251));
#1201=FILL_AREA_STYLE('',(#1252));
#1202=FILL_AREA_STYLE('',(#1253));
#1203=FILL_AREA_STYLE('',(#1254));
#1204=FILL_AREA_STYLE('',(#1255));
#1205=FILL_AREA_STYLE('',(#1256));
#1206=FILL_AREA_STYLE('',(#1257));
#1207=FILL_AREA_STYLE('',(#1258));
#1208=FILL_AREA_STYLE('',(#1259));
#1209=FILL_AREA_STYLE('',(#1260));
#1210=FILL_AREA_STYLE('',(#1261));
#1211=FILL_AREA_STYLE('',(#1262));
#1212=FILL_AREA_STYLE('',(#1263));
#1213=FILL_AREA_STYLE('',(#1264));
#1214=FILL_AREA_STYLE('',(#1265));
#1215=FILL_AREA_STYLE('',(#1266));
#1216=FILL_AREA_STYLE('',(#1267));
#1217=FILL_AREA_STYLE('',(#1268));
#1218=FILL_AREA_STYLE('',(#1269));
#1219=FILL_AREA_STYLE('',(#1270));
#1220=FILL_AREA_STYLE('',(#1271));
#1221=FILL_AREA_STYLE('',(#1272));
#1222=FILL_AREA_STYLE('',(#1273));
#1223=FILL_AREA_STYLE_COLOUR('',#1274);
#1224=FILL_AREA_STYLE_COLOUR('',#1274);
#1225=FILL_AREA_STYLE_COLOUR('',#1274);
#1226=FILL_AREA_STYLE_COLOUR('',#1274);
#1227=FILL_AREA_STYLE_COLOUR('',#1274);
#1228=FILL_AREA_STYLE_COLOUR('',#1274);
#1229=FILL_AREA_STYLE_COLOUR('',#1274);
#1230=FILL_AREA_STYLE_COLOUR('',#1274);
#1231=FILL_AREA_STYLE_COLOUR('',#1274);
#1232=FILL_AREA_STYLE_COLOUR('',#1274);
#1233=FILL_AREA_STYLE_COLOUR('',#1274);
#1234=FILL_AREA_STYLE_COLOUR('',#1274);
#1235=FILL_AREA_STYLE_COLOUR('',#1274);
#1236=FILL_AREA_STYLE_COLOUR('',#1274);
#1237=FILL_AREA_STYLE_COLOUR('',#1275);
#1238=FILL_AREA_STYLE_COLOUR('',#1275);
#1239=FILL_AREA_STYLE_COLOUR('',#1275);
#1240=FILL_AREA_STYLE_COLOUR('',#1275);
#1241=FILL_AREA_STYLE_COLOUR('',#1275);
#1242=FILL_AREA_STYLE_COLOUR('',#1275);
#1243=FILL_AREA_STYLE_COLOUR('',#1275);
#1244=FILL_AREA_STYLE_COLOUR('',#1275);
#1245=FILL_AREA_STYLE_COLOUR('',#1275);
#1246=FILL_AREA_STYLE_COLOUR('',#1275);
#1247=FILL_AREA_STYLE_COLOUR('',#1275);
#1248=FILL_AREA_STYLE_COLOUR('',#1275);
#1249=FILL_AREA_STYLE_COLOUR('',#1275);
#1250=FILL_AREA_STYLE_COLOUR('',#1275);
#1251=FILL_AREA_STYLE_COLOUR('',#1275);
#1252=FILL_AREA_STYLE_COLOUR('',#1275);
#1253=FILL_AREA_STYLE_COLOUR('',#1275);
#1254=FILL_AREA_STYLE_COLOUR('',#1275);
#1255=FILL_AREA_STYLE_COLOUR('',#1275);
#1256=FILL_AREA_STYLE_COLOUR('',#1275);
#1257=FILL_AREA_STYLE_COLOUR('',#1275);
#1258=FILL_AREA_STYLE_COLOUR('',#1275);
#1259=FILL_AREA_STYLE_COLOUR('',#1275);
#1260=FILL_AREA_STYLE_COLOUR('',#1275);
#1261=FILL_AREA_STYLE_COLOUR('',#1274);
#1262=FILL_AREA_STYLE_COLOUR('',#1274);
#1263=FILL_AREA_STYLE_COLOUR('',#1274);
#1264=FILL_AREA_STYLE_COLOUR('',#1274);
#1265=FILL_AREA_STYLE_COLOUR('',#1274);
#1266=FILL_AREA_STYLE_COLOUR('',#1274);
#1267=FILL_AREA_STYLE_COLOUR('',#1274);
#1268=FILL_AREA_STYLE_COLOUR('',#1274);
#1269=FILL_AREA_STYLE_COLOUR('',#1274);
#1270=FILL_AREA_STYLE_COLOUR('',#1274);
#1271=FILL_AREA_STYLE_COLOUR('',#1274);
#1272=FILL_AREA_STYLE_COLOUR('',#1274);
#1273=FILL_AREA_STYLE_COLOUR('',#1276);
#1274=COLOUR_RGB('',0.949999988079071,0.949999988079071,0.949999988079071);
#1275=COLOUR_RGB('',0.699999988079071,0.699999988079071,0.699999988079071);
#1276=COLOUR_RGB('',0.850000023841858,0.,0.);
#1277=ADVANCED_FACE('',(#824),#880,.T.);
#1278=ADVANCED_FACE('',(#825,#826),#881,.T.);
#1279=ADVANCED_FACE('',(#827),#882,.T.);
#1280=ADVANCED_FACE('',(#828),#883,.T.);
#1281=ADVANCED_FACE('',(#829),#884,.T.);
#1282=ADVANCED_FACE('',(#830),#885,.T.);
#1283=ADVANCED_FACE('',(#831),#886,.T.);
#1284=ADVANCED_FACE('',(#832),#887,.F.);
#1285=ADVANCED_FACE('',(#833),#888,.T.);
#1286=ADVANCED_FACE('',(#834),#889,.T.);
#1287=ADVANCED_FACE('',(#835),#890,.T.);
#1288=ADVANCED_FACE('',(#836),#891,.T.);
#1289=ADVANCED_FACE('',(#837),#892,.F.);
#1290=ADVANCED_FACE('',(#838),#893,.F.);
#1291=ADVANCED_FACE('',(#839),#894,.T.);
#1292=ADVANCED_FACE('',(#840),#895,.F.);
#1293=ADVANCED_FACE('',(#841),#896,.T.);
#1294=ADVANCED_FACE('',(#842),#897,.T.);
#1295=ADVANCED_FACE('',(#843),#24,.T.);
#1296=ADVANCED_FACE('',(#844),#898,.T.);
#1297=ADVANCED_FACE('',(#845),#25,.T.);
#1298=ADVANCED_FACE('',(#846),#899,.T.);
#1299=ADVANCED_FACE('',(#847),#900,.T.);
#1300=ADVANCED_FACE('',(#848),#901,.T.);
#1301=ADVANCED_FACE('',(#849),#902,.T.);
#1302=ADVANCED_FACE('',(#850),#26,.F.);
#1303=ADVANCED_FACE('',(#851),#903,.F.);
#1304=ADVANCED_FACE('',(#852),#904,.F.);
#1305=ADVANCED_FACE('',(#853),#905,.F.);
#1306=ADVANCED_FACE('',(#854),#906,.F.);
#1307=ADVANCED_FACE('',(#855),#27,.F.);
#1308=ADVANCED_FACE('',(#856),#907,.F.);
#1309=ADVANCED_FACE('',(#857),#28,.T.);
#1310=ADVANCED_FACE('',(#858),#908,.F.);
#1311=ADVANCED_FACE('',(#859),#29,.T.);
#1312=ADVANCED_FACE('',(#860),#909,.F.);
#1313=ADVANCED_FACE('',(#861),#910,.F.);
#1314=ADVANCED_FACE('',(#862),#911,.T.);
#1315=ADVANCED_FACE('',(#863,#864),#22,.F.);
#1316=ADVANCED_FACE('',(#865),#912,.F.);
#1317=ADVANCED_FACE('',(#866),#913,.T.);
#1318=ADVANCED_FACE('',(#867),#914,.T.);
#1319=ADVANCED_FACE('',(#868),#30,.T.);
#1320=ADVANCED_FACE('',(#869),#31,.T.);
#1321=ADVANCED_FACE('',(#870),#32,.T.);
#1322=ADVANCED_FACE('',(#871),#33,.T.);
#1323=ADVANCED_FACE('',(#872),#34,.T.);
#1324=ADVANCED_FACE('',(#873),#35,.T.);
#1325=ADVANCED_FACE('',(#874),#36,.T.);
#1326=ADVANCED_FACE('',(#875),#37,.T.);
#1327=ADVANCED_FACE('',(#876,#877),#23,.T.);
#1328=ADVANCED_FACE('',(#878),#915,.T.);
#1329=ADVANCED_FACE('',(#879),#916,.F.);
#1330=CLOSED_SHELL('',(#1277,#1278,#1279,#1280,#1281,#1282,#1283,#1284,
#1285,#1286,#1287,#1288,#1289,#1290,#1291,#1292,#1293,#1294,#1295,#1296,
#1297,#1298,#1299,#1300,#1301,#1302,#1303,#1304,#1305,#1306,#1307,#1308,
#1309,#1310,#1311,#1312,#1313,#1314,#1315,#1316,#1317,#1318,#1319,#1320,
#1321,#1322,#1323,#1324,#1325,#1326));
#1331=CLOSED_SHELL('',(#1327,#1328,#1329));
#1332=MANIFOLD_SOLID_BREP('',#1330);
#1333=MANIFOLD_SOLID_BREP('',#1331);
#1334=SHAPE_DEFINITION_REPRESENTATION(#1970,#1335);
#1335=SHAPE_REPRESENTATION('597-3008-207F',(#1336),#1965);
#1336=AXIS2_PLACEMENT_3D('',#1688,#1418,#1419);
#1337=AXIS2_PLACEMENT_3D('',#1689,#1420,#1421);
#1338=AXIS2_PLACEMENT_3D('',#1710,#1432,#1433);
#1339=AXIS2_PLACEMENT_3D('',#1711,#1434,#1435);
#1340=AXIS2_PLACEMENT_3D('',#1716,#1437,#1438);
#1341=AXIS2_PLACEMENT_3D('',#1721,#1441,#1442);
#1342=AXIS2_PLACEMENT_3D('',#1725,#1444,#1445);
#1343=AXIS2_PLACEMENT_3D('',#1726,#1446,#1447);
#1344=AXIS2_PLACEMENT_3D('',#1737,#1454,#1455);
#1345=AXIS2_PLACEMENT_3D('',#1751,#1463,#1464);
#1346=AXIS2_PLACEMENT_3D('',#1762,#1471,#1472);
#1347=AXIS2_PLACEMENT_3D('',#1779,#1481,#1482);
#1348=AXIS2_PLACEMENT_3D('',#1796,#1491,#1492);
#1349=AXIS2_PLACEMENT_3D('',#1799,#1495,#1496);
#1350=AXIS2_PLACEMENT_3D('',#1802,#1499,#1500);
#1351=AXIS2_PLACEMENT_3D('',#1809,#1505,#1506);
#1352=AXIS2_PLACEMENT_3D('',#1810,#1507,#1508);
#1353=AXIS2_PLACEMENT_3D('',#1812,#1510,#1511);
#1354=AXIS2_PLACEMENT_3D('',#1813,#1512,#1513);
#1355=AXIS2_PLACEMENT_3D('',#1814,#1514,#1515);
#1356=AXIS2_PLACEMENT_3D('',#1815,#1516,#1517);
#1357=AXIS2_PLACEMENT_3D('',#1816,#1518,#1519);
#1358=AXIS2_PLACEMENT_3D('',#1818,#1521,#1522);
#1359=AXIS2_PLACEMENT_3D('',#1819,#1523,#1524);
#1360=AXIS2_PLACEMENT_3D('',#1825,#1528,#1529);
#1361=AXIS2_PLACEMENT_3D('',#1828,#1531,#1532);
#1362=AXIS2_PLACEMENT_3D('',#1838,#1537,#1538);
#1363=AXIS2_PLACEMENT_3D('',#1842,#1540,#1541);
#1364=AXIS2_PLACEMENT_3D('',#1843,#1542,#1543);
#1365=AXIS2_PLACEMENT_3D('',#1844,#1544,#1545);
#1366=AXIS2_PLACEMENT_3D('',#1848,#1547,#1548);
#1367=AXIS2_PLACEMENT_3D('',#1858,#1553,#1554);
#1368=AXIS2_PLACEMENT_3D('',#1861,#1556,#1557);
#1369=AXIS2_PLACEMENT_3D('',#1863,#1559,#1560);
#1370=AXIS2_PLACEMENT_3D('',#1865,#1562,#1563);
#1371=AXIS2_PLACEMENT_3D('',#1867,#1565,#1566);
#1372=AXIS2_PLACEMENT_3D('',#1869,#1568,#1569);
#1373=AXIS2_PLACEMENT_3D('',#1871,#1571,#1572);
#1374=AXIS2_PLACEMENT_3D('',#1873,#1574,#1575);
#1375=AXIS2_PLACEMENT_3D('',#1875,#1577,#1578);
#1376=AXIS2_PLACEMENT_3D('',#1877,#1580,#1581);
#1377=AXIS2_PLACEMENT_3D('',#1878,#1582,#1583);
#1378=AXIS2_PLACEMENT_3D('',#1884,#1587,#1588);
#1379=AXIS2_PLACEMENT_3D('',#1893,#1593,#1594);
#1380=AXIS2_PLACEMENT_3D('',#1899,#1598,#1599);
#1381=AXIS2_PLACEMENT_3D('',#1905,#1603,#1604);
#1382=AXIS2_PLACEMENT_3D('',#1906,#1605,#1606);
#1383=AXIS2_PLACEMENT_3D('',#1910,#1608,#1609);
#1384=AXIS2_PLACEMENT_3D('',#1911,#1610,#1611);
#1385=AXIS2_PLACEMENT_3D('',#1914,#1614,#1615);
#1386=AXIS2_PLACEMENT_3D('',#1915,#1616,#1617);
#1387=AXIS2_PLACEMENT_3D('',#1919,#1619,#1620);
#1388=AXIS2_PLACEMENT_3D('',#1920,#1621,#1622);
#1389=AXIS2_PLACEMENT_3D('',#1926,#1626,#1627);
#1390=AXIS2_PLACEMENT_3D('',#1927,#1628,#1629);
#1391=AXIS2_PLACEMENT_3D('',#1931,#1631,#1632);
#1392=AXIS2_PLACEMENT_3D('',#1932,#1633,#1634);
#1393=AXIS2_PLACEMENT_3D('',#1935,#1637,#1638);
#1394=AXIS2_PLACEMENT_3D('',#1936,#1639,#1640);
#1395=AXIS2_PLACEMENT_3D('',#1937,#1641,#1642);
#1396=AXIS2_PLACEMENT_3D('',#1938,#1643,#1644);
#1397=AXIS2_PLACEMENT_3D('',#1940,#1645,#1646);
#1398=AXIS2_PLACEMENT_3D('',#1941,#1647,#1648);
#1399=AXIS2_PLACEMENT_3D('',#1943,#1650,#1651);
#1400=AXIS2_PLACEMENT_3D('',#1944,#1652,#1653);
#1401=AXIS2_PLACEMENT_3D('',#1945,#1654,#1655);
#1402=AXIS2_PLACEMENT_3D('',#1946,#1656,#1657);
#1403=AXIS2_PLACEMENT_3D('',#1947,#1658,#1659);
#1404=AXIS2_PLACEMENT_3D('',#1948,#1660,#1661);
#1405=AXIS2_PLACEMENT_3D('',#1949,#1662,#1663);
#1406=AXIS2_PLACEMENT_3D('',#1950,#1664,#1665);
#1407=AXIS2_PLACEMENT_3D('',#1951,#1666,#1667);
#1408=AXIS2_PLACEMENT_3D('',#1952,#1668,#1669);
#1409=AXIS2_PLACEMENT_3D('',#1953,#1670,#1671);
#1410=AXIS2_PLACEMENT_3D('',#1954,#1672,#1673);
#1411=AXIS2_PLACEMENT_3D('',#1955,#1674,#1675);
#1412=AXIS2_PLACEMENT_3D('',#1956,#1676,#1677);
#1413=AXIS2_PLACEMENT_3D('',#1957,#1678,#1679);
#1414=AXIS2_PLACEMENT_3D('',#1958,#1680,#1681);
#1415=AXIS2_PLACEMENT_3D('',#1960,#1682,#1683);
#1416=AXIS2_PLACEMENT_3D('',#1962,#1684,#1685);
#1417=AXIS2_PLACEMENT_3D('',#1963,#1686,#1687);
#1418=DIRECTION('',(0.,0.,1.));
#1419=DIRECTION('',(1.,0.,0.));
#1420=DIRECTION('',(0.,-0.997564050259824,0.0697564737441253));
#1421=DIRECTION('',(0.,-0.0697564737441253,-0.997564050259824));
#1422=DIRECTION('',(-1.,0.,0.));
#1423=DIRECTION('',(0.0695873743166647,0.0695873743166647,0.995145815783509));
#1424=DIRECTION('',(-1.,0.,0.));
#1425=DIRECTION('',(-4.27121104836498E-18,-0.0697564737441253,-0.997564050259824));
#1426=DIRECTION('',(1.,0.,0.));
#1427=DIRECTION('',(-4.27121104836498E-18,-0.0697564737441253,-0.997564050259824));
#1428=DIRECTION('',(-1.,0.,0.));
#1429=DIRECTION('',(-0.0695873743166647,0.0695873743166647,0.995145815783509));
#1430=DIRECTION('',(-1.,0.,0.));
#1431=DIRECTION('',(0.0769195207303684,-0.0695498065800633,-0.994608572120352));
#1432=DIRECTION('',(0.,0.,1.));
#1433=DIRECTION('',(1.,0.,0.));
#1434=DIRECTION('',(0.,0.,-1.));
#1435=DIRECTION('',(1.,0.,0.));
#1436=DIRECTION('',(1.,0.,0.));
#1437=DIRECTION('',(0.,0.,1.));
#1438=DIRECTION('',(-0.707106781186548,0.707106781186548,0.));
#1439=DIRECTION('',(0.,1.,0.));
#1440=DIRECTION('',(0.741747052039028,-0.670679737871521,0.));
#1441=DIRECTION('',(0.,0.,1.));
#1442=DIRECTION('',(0.707106781186548,-0.707106781186548,0.));
#1443=DIRECTION('',(0.,-1.,0.));
#1444=DIRECTION('',(0.,0.,1.));
#1445=DIRECTION('',(0.707106781186548,0.707106781186548,0.));
#1446=DIRECTION('',(0.,-0.997564050259824,-0.0697564737441253));
#1447=DIRECTION('',(0.,0.0697564737441253,-0.997564050259824));
#1448=DIRECTION('',(-0.0695873743166647,-0.0695873743166647,0.995145815783509));
#1449=DIRECTION('',(1.,0.,0.));
#1450=DIRECTION('',(0.0695873743166647,-0.0695873743166647,0.995145815783509));
#1451=DIRECTION('',(4.27121104836498E-18,0.0697564737441253,-0.997564050259824));
#1452=DIRECTION('',(-1.,0.,0.));
#1453=DIRECTION('',(4.27121104836498E-18,0.0697564737441253,-0.997564050259824));
#1454=DIRECTION('',(0.,0.997564050259824,0.0697564737441253));
#1455=DIRECTION('',(0.,-0.0697564737441253,0.997564050259824));
#1456=DIRECTION('',(1.,0.,0.));
#1457=DIRECTION('',(0.0695873743166647,-0.0695873743166647,0.995145815783509));
#1458=DIRECTION('',(-0.0695873743166647,-0.0695873743166647,0.995145815783509));
#1459=DIRECTION('',(1.,0.,0.));
#1460=DIRECTION('',(-4.27121104836498E-18,-0.0697564737441253,0.997564050259824));
#1461=DIRECTION('',(1.,0.,0.));
#1462=DIRECTION('',(-4.27121104836498E-18,-0.0697564737441253,0.997564050259824));
#1463=DIRECTION('',(0.,0.997564050259824,-0.0697564737441253));
#1464=DIRECTION('',(0.,0.0697564737441253,0.997564050259824));
#1465=DIRECTION('',(1.,0.,0.));
#1466=DIRECTION('',(-0.0695873743166647,0.0695873743166647,0.995145815783509));
#1467=DIRECTION('',(4.27121104836498E-18,0.0697564737441253,0.997564050259824));
#1468=DIRECTION('',(-1.,0.,0.));
#1469=DIRECTION('',(4.27121104836498E-18,0.0697564737441253,0.997564050259824));
#1470=DIRECTION('',(0.0695873743166647,0.0695873743166647,0.995145815783509));
#1471=DIRECTION('',(-0.997564050259824,0.,-0.0697564737441253));
#1472=DIRECTION('',(-0.0697564737441253,0.,0.997564050259824));
#1473=DIRECTION('',(0.,-1.,0.));
#1474=DIRECTION('',(-0.0695873743166647,-0.0695873743166647,0.995145815783509));
#1475=DIRECTION('',(0.,1.,0.));
#1476=DIRECTION('',(-0.0695873743166647,0.0695873743166647,0.995145815783509));
#1477=DIRECTION('',(0.,1.,0.));
#1478=DIRECTION('',(-0.0697564737441253,0.,0.997564050259824));
#1479=DIRECTION('',(0.,-1.,0.));
#1480=DIRECTION('',(-0.0697564737441253,0.,0.997564050259824));
#1481=DIRECTION('',(0.997564050259824,0.,-0.0697564737441253));
#1482=DIRECTION('',(-0.0697564737441253,0.,-0.997564050259824));
#1483=DIRECTION('',(0.,-1.,0.));
#1484=DIRECTION('',(0.0695873743166647,0.0695873743166647,0.995145815783509));
#1485=DIRECTION('',(0.,-1.,0.));
#1486=DIRECTION('',(0.0695873743166647,-0.0695873743166647,0.995145815783509));
#1487=DIRECTION('',(0.,1.,0.));
#1488=DIRECTION('',(-0.0697564737441253,0.,-0.997564050259824));
#1489=DIRECTION('',(0.,1.,0.));
#1490=DIRECTION('',(-0.0697564737441253,0.,-0.997564050259824));
#1491=DIRECTION('',(0.,0.,1.));
#1492=DIRECTION('',(1.,0.,0.));
#1493=DIRECTION('',(1.,0.,0.));
#1494=DIRECTION('',(1.,0.,0.));
#1495=DIRECTION('',(0.997564050259824,0.,0.0697564737441253));
#1496=DIRECTION('',(0.0697564737441253,0.,-0.997564050259824));
#1497=DIRECTION('',(-0.0695873743166647,-0.0695873743166647,0.995145815783509));
#1498=DIRECTION('',(-0.0695873743166647,0.0695873743166647,0.995145815783509));
#1499=DIRECTION('',(-0.997564050259824,0.,0.0697564737441253));
#1500=DIRECTION('',(0.0697564737441253,0.,0.997564050259824));
#1501=DIRECTION('',(0.0695873743166647,0.0695873743166647,0.995145815783509));
#1502=DIRECTION('',(0.,1.,0.));
#1503=DIRECTION('',(-0.0696181334023467,0.06294797038025,-0.995585691202209));
#1504=DIRECTION('',(0.0695873743166647,-0.0695873743166647,0.995145815783509));
#1505=DIRECTION('',(0.,0.,-1.));
#1506=DIRECTION('',(-1.,0.,0.));
#1507=DIRECTION('',(0.,0.,-1.));
#1508=DIRECTION('',(-0.707106781186548,-0.707106781186548,0.));
#1509=DIRECTION('',(-1.,0.,0.));
#1510=DIRECTION('',(0.,0.,-1.));
#1511=DIRECTION('',(0.707106781186548,-0.707106781186548,0.));
#1512=DIRECTION('',(0.,-1.,0.));
#1513=DIRECTION('',(0.,0.,-1.));
#1514=DIRECTION('',(0.,0.,1.));
#1515=DIRECTION('',(1.,0.,0.));
#1516=DIRECTION('',(0.,0.,1.));
#1517=DIRECTION('',(-0.707106781186548,0.707106781186548,0.));
#1518=DIRECTION('',(0.,0.,1.));
#1519=DIRECTION('',(0.707106781186548,0.707106781186548,0.));
#1520=DIRECTION('',(-1.,0.,0.));
#1521=DIRECTION('',(0.,-1.,0.));
#1522=DIRECTION('',(0.,0.,-1.));
#1523=DIRECTION('',(0.,1.27924690600514E-16,1.));
#1524=DIRECTION('',(0.,-1.,1.27924690600514E-16));
#1525=DIRECTION('',(6.12303176911189E-17,1.,-1.27924690600514E-16));
#1526=DIRECTION('',(-1.,0.,0.));
#1527=DIRECTION('',(6.12303176911189E-17,1.,-1.27924690600514E-16));
#1528=DIRECTION('',(-1.,6.12303176911189E-17,0.));
#1529=DIRECTION('',(-6.12303176911189E-17,-1.,0.));
#1530=DIRECTION('',(-6.12303176911189E-17,-1.,0.));
#1531=DIRECTION('',(1.,-6.12303176911189E-17,0.));
#1532=DIRECTION('',(6.12303176911189E-17,1.,0.));
#1533=DIRECTION('',(0.,0.,1.));
#1534=DIRECTION('',(6.12303176911189E-17,1.,-1.12000563596085E-16));
#1535=DIRECTION('',(0.,0.,1.));
#1536=DIRECTION('',(-6.12303176911189E-17,-1.,0.));
#1537=DIRECTION('',(-1.,6.12303176911189E-17,0.));
#1538=DIRECTION('',(6.12303176911189E-17,1.,0.));
#1539=DIRECTION('',(-1.55951401704079E-32,-2.54696378501231E-16,-1.));
#1540=DIRECTION('',(-1.,6.12303176911189E-17,0.));
#1541=DIRECTION('',(-6.12303176911189E-17,-1.,0.));
#1542=DIRECTION('',(-1.,6.12303176911189E-17,0.));
#1543=DIRECTION('',(-6.12303176911189E-17,-1.,0.));
#1544=DIRECTION('',(-1.,6.12303176911189E-17,0.));
#1545=DIRECTION('',(-6.12303176911189E-17,-1.,0.));
#1546=DIRECTION('',(-1.55951401704079E-32,-2.54696378501231E-16,-1.));
#1547=DIRECTION('',(-1.,6.12303176911189E-17,0.));
#1548=DIRECTION('',(6.12303176911189E-17,1.,0.));
#1549=DIRECTION('',(-6.12303176911189E-17,-1.,0.));
#1550=DIRECTION('',(0.,0.,1.));
#1551=DIRECTION('',(6.12303176911189E-17,1.,-1.12000563596085E-16));
#1552=DIRECTION('',(0.,0.,1.));
#1553=DIRECTION('',(1.,-6.12303176911189E-17,0.));
#1554=DIRECTION('',(6.12303176911189E-17,1.,0.));
#1555=DIRECTION('',(-6.12303176911189E-17,-1.,0.));
#1556=DIRECTION('',(0.,0.,-1.));
#1557=DIRECTION('',(-1.,0.,0.));
#1558=DIRECTION('',(-1.,0.,0.));
#1559=DIRECTION('',(-1.,0.,0.));
#1560=DIRECTION('',(0.,0.,1.));
#1561=DIRECTION('',(-1.,0.,0.));
#1562=DIRECTION('',(0.,1.,-2.54696378501231E-16));
#1563=DIRECTION('',(0.,2.54696378501231E-16,1.));
#1564=DIRECTION('',(-1.,0.,0.));
#1565=DIRECTION('',(-1.,0.,0.));
#1566=DIRECTION('',(0.,0.,1.));
#1567=DIRECTION('',(-1.,0.,0.));
#1568=DIRECTION('',(0.,0.,-1.));
#1569=DIRECTION('',(-1.,0.,0.));
#1570=DIRECTION('',(-1.,0.,0.));
#1571=DIRECTION('',(0.,-1.,0.));
#1572=DIRECTION('',(0.,0.,-1.));
#1573=DIRECTION('',(-1.,0.,0.));
#1574=DIRECTION('',(0.,1.12000563596085E-16,1.));
#1575=DIRECTION('',(0.,-1.,1.12000563596085E-16));
#1576=DIRECTION('',(-1.,0.,0.));
#1577=DIRECTION('',(0.,-1.,0.));
#1578=DIRECTION('',(0.,0.,-1.));
#1579=DIRECTION('',(-1.,0.,0.));
#1580=DIRECTION('',(-1.,0.,0.));
#1581=DIRECTION('',(0.,0.,1.));
#1582=DIRECTION('',(0.,1.27924690600514E-16,-1.));
#1583=DIRECTION('',(0.,1.,1.27924690600514E-16));
#1584=DIRECTION('',(-6.12303176911189E-17,-1.,-1.27924690600514E-16));
#1585=DIRECTION('',(-6.12303176911189E-17,-1.,-1.27924690600514E-16));
#1586=DIRECTION('',(-1.,0.,0.));
#1587=DIRECTION('',(0.,-1.,0.));
#1588=DIRECTION('',(0.,0.,-1.));
#1589=DIRECTION('',(0.,0.,1.));
#1590=DIRECTION('',(-1.,0.,0.));
#1591=DIRECTION('',(0.,0.,1.));
#1592=DIRECTION('',(-1.,0.,0.));
#1593=DIRECTION('',(0.,1.12000563596085E-16,-1.));
#1594=DIRECTION('',(0.,1.,1.12000563596085E-16));
#1595=DIRECTION('',(-6.12303176911189E-17,-1.,-1.12000563596085E-16));
#1596=DIRECTION('',(-1.,0.,0.));
#1597=DIRECTION('',(-6.12303176911189E-17,-1.,-1.12000563596085E-16));
#1598=DIRECTION('',(0.,-1.,0.));
#1599=DIRECTION('',(0.,0.,-1.));
#1600=DIRECTION('',(0.,0.,1.));
#1601=DIRECTION('',(-1.,0.,0.));
#1602=DIRECTION('',(0.,0.,1.));
#1603=DIRECTION('',(-1.,0.,0.));
#1604=DIRECTION('',(0.,0.,1.));
#1605=DIRECTION('',(-1.,6.12303176911189E-17,0.));
#1606=DIRECTION('',(6.12303176911189E-17,1.,0.));
#1607=DIRECTION('',(-1.,0.,0.));
#1608=DIRECTION('',(-1.,6.12303176911189E-17,0.));
#1609=DIRECTION('',(6.12303176911189E-17,1.,0.));
#1610=DIRECTION('',(0.,0.,1.));
#1611=DIRECTION('',(1.,0.,0.));
#1612=DIRECTION('',(6.12303176911189E-17,1.,0.));
#1613=DIRECTION('',(6.12303176911189E-17,1.,0.));
#1614=DIRECTION('',(-1.,0.,0.));
#1615=DIRECTION('',(0.,0.,1.));
#1616=DIRECTION('',(1.,-6.12303176911189E-17,0.));
#1617=DIRECTION('',(6.12303176911189E-17,1.,0.));
#1618=DIRECTION('',(-1.,0.,0.));
#1619=DIRECTION('',(1.,-6.12303176911189E-17,0.));
#1620=DIRECTION('',(6.12303176911189E-17,1.,0.));
#1621=DIRECTION('',(0.,1.,2.54696378501231E-16));
#1622=DIRECTION('',(0.,-2.54696378501231E-16,1.));
#1623=DIRECTION('',(1.55951401704079E-32,2.54696378501231E-16,-1.));
#1624=DIRECTION('',(-1.,0.,0.));
#1625=DIRECTION('',(1.55951401704079E-32,2.54696378501231E-16,-1.));
#1626=DIRECTION('',(-1.,0.,0.));
#1627=DIRECTION('',(0.,0.,1.));
#1628=DIRECTION('',(1.,-6.12303176911189E-17,0.));
#1629=DIRECTION('',(6.12303176911189E-17,1.,0.));
#1630=DIRECTION('',(-1.,0.,0.));
#1631=DIRECTION('',(1.,-6.12303176911189E-17,0.));
#1632=DIRECTION('',(6.12303176911189E-17,1.,0.));
#1633=DIRECTION('',(0.,0.,1.));
#1634=DIRECTION('',(1.,0.,0.));
#1635=DIRECTION('',(6.12303176911189E-17,1.,0.));
#1636=DIRECTION('',(6.12303176911189E-17,1.,0.));
#1637=DIRECTION('',(-1.,6.12303176911189E-17,0.));
#1638=DIRECTION('',(-6.12303176911189E-17,-1.,0.));
#1639=DIRECTION('',(-1.,6.12303176911189E-17,0.));
#1640=DIRECTION('',(-6.12303176911189E-17,-1.,0.));
#1641=DIRECTION('',(0.,0.,1.));
#1642=DIRECTION('',(1.,0.,0.));
#1643=DIRECTION('',(0.,0.,-1.));
#1644=DIRECTION('',(-1.,0.,0.));
#1645=DIRECTION('',(0.,0.,-1.));
#1646=DIRECTION('',(-1.,0.,0.));
#1647=DIRECTION('',(-0.670679737871521,-0.741747052039028,0.));
#1648=DIRECTION('',(0.741747052039028,-0.670679737871521,0.));
#1649=DIRECTION('',(-0.741747052039028,0.670679737871521,0.));
#1650=DIRECTION('',(0.,0.,1.));
#1651=DIRECTION('',(1.,0.,0.));
#1652=DIRECTION('',(0.,0.,1.));
#1653=DIRECTION('',(-0.707106781186548,-0.707106781186548,0.));
#1654=DIRECTION('',(0.0695873743166647,-0.0695873743166647,-0.995145815783508));
#1655=DIRECTION('',(-0.997564050259824,0.,-0.0697564737441253));
#1656=DIRECTION('',(0.,0.,-1.));
#1657=DIRECTION('',(0.707106781186547,-0.707106781186547,0.));
#1658=DIRECTION('',(0.0695873743166647,-0.0695873743166647,0.995145815783508));
#1659=DIRECTION('',(0.997564050259824,0.,-0.0697564737441253));
#1660=DIRECTION('',(0.0695873743166647,0.0695873743166647,0.995145815783508));
#1661=DIRECTION('',(0.997564050259824,0.,-0.0697564737441253));
#1662=DIRECTION('',(0.,0.,1.));
#1663=DIRECTION('',(0.707106781186547,0.707106781186547,0.));
#1664=DIRECTION('',(0.0695873743166647,0.0695873743166647,-0.995145815783508));
#1665=DIRECTION('',(-0.997564050259824,0.,-0.0697564737441253));
#1666=DIRECTION('',(-0.0695873743166647,0.0695873743166647,0.995145815783508));
#1667=DIRECTION('',(0.997564050259824,0.,0.0697564737441253));
#1668=DIRECTION('',(0.,0.,1.));
#1669=DIRECTION('',(-0.707106781186547,0.707106781186547,0.));
#1670=DIRECTION('',(-0.0695873743166647,0.0695873743166647,-0.995145815783508));
#1671=DIRECTION('',(-0.997564050259824,0.,0.0697564737441253));
#1672=DIRECTION('',(-0.0695873743166647,-0.0695873743166647,0.995145815783508));
#1673=DIRECTION('',(0.997564050259824,0.,0.0697564737441253));
#1674=DIRECTION('',(0.,0.,1.));
#1675=DIRECTION('',(-0.707106781186547,-0.707106781186547,0.));
#1676=DIRECTION('',(-0.0695873743166647,-0.0695873743166647,-0.995145815783508));
#1677=DIRECTION('',(-0.997564050259824,0.,0.0697564737441253));
#1678=DIRECTION('',(0.,0.,1.));
#1679=DIRECTION('',(1.,0.,0.));
#1680=DIRECTION('',(0.,0.,-1.));
#1681=DIRECTION('',(-1.,0.,0.));
#1682=DIRECTION('',(0.,0.,-1.));
#1683=DIRECTION('',(-1.,0.,0.));
#1684=DIRECTION('',(0.,0.,-1.));
#1685=DIRECTION('',(-1.,0.,0.));
#1686=DIRECTION('',(0.,0.,-1.));
#1687=DIRECTION('',(-1.,0.,0.));
#1688=CARTESIAN_POINT('',(0.,0.,0.));
#1689=CARTESIAN_POINT('',(0.,-1.6,0.));
#1690=CARTESIAN_POINT('',(0.,-1.57640007081428,0.337494710967062));
#1691=CARTESIAN_POINT('',(-1.30692793967799,-1.57640007081428,0.337494710967062));
#1692=CARTESIAN_POINT('',(-0.736763827771276,-1.57640007081428,0.337494710967062));
#1693=CARTESIAN_POINT('',(-1.32408491716662,-1.59355704830291,0.0921385019282651));
#1694=CARTESIAN_POINT('',(-1.33052786886372,-1.6,0.));
#1695=CARTESIAN_POINT('',(0.,-1.6,0.));
#1696=CARTESIAN_POINT('',(-1.1,-1.6,-5.35952256376697E-23));
#1697=CARTESIAN_POINT('',(-1.1,-1.6,4.68688725221363E-18));
#1698=CARTESIAN_POINT('',(-1.1,-1.5950943263059,0.070154402263636));
#1699=CARTESIAN_POINT('',(0.,-1.5950943263059,0.070154402263636));
#1700=CARTESIAN_POINT('',(1.1,-1.5950943263059,0.070154402263636));
#1701=CARTESIAN_POINT('',(1.1,-1.6,-4.68688725221363E-18));
#1702=CARTESIAN_POINT('',(1.1,-1.6,5.35952256376697E-23));
#1703=CARTESIAN_POINT('',(0.,-1.6,0.));
#1704=CARTESIAN_POINT('',(1.33052786886372,-1.6,0.));
#1705=CARTESIAN_POINT('',(1.32408491716662,-1.59355704830291,0.0921385019282651));
#1706=CARTESIAN_POINT('',(1.27458641930891,-1.54405855044519,0.8));
#1707=CARTESIAN_POINT('',(0.,-1.54405855044519,0.8));
#1708=CARTESIAN_POINT('',(-0.772532356381312,-1.54405855044519,0.8));
#1709=CARTESIAN_POINT('',(-0.706458457821925,-1.603801861651,-0.0543691546251453));
#1710=CARTESIAN_POINT('',(0.,0.,0.8));
#1711=CARTESIAN_POINT('',(0.,0.,0.8));
#1712=CARTESIAN_POINT('',(0.995423058846898,0.,0.8));
#1713=CARTESIAN_POINT('',(0.,1.54405855044519,0.8));
#1714=CARTESIAN_POINT('',(1.27458641930891,1.54405855044519,0.8));
#1715=CARTESIAN_POINT('',(-1.27458641930891,1.54405855044519,0.8));
#1716=CARTESIAN_POINT('',(-1.27424671732845,1.47424671732845,0.8));
#1717=CARTESIAN_POINT('',(-1.34405855044519,1.47458641930891,0.8));
#1718=CARTESIAN_POINT('',(-1.34405855044519,0.,0.8));
#1719=CARTESIAN_POINT('',(-1.34405855044519,-1.02729068872229,0.8));
#1720=CARTESIAN_POINT('',(-1.34405855044519,-1.02729068872229,0.8));
#1721=CARTESIAN_POINT('',(1.27424671732845,-1.47424671732845,0.8));
#1722=CARTESIAN_POINT('',(1.34405855044519,-1.47458641930891,0.8));
#1723=CARTESIAN_POINT('',(1.34405855044519,0.,0.8));
#1724=CARTESIAN_POINT('',(1.34405855044519,1.47458641930891,0.8));
#1725=CARTESIAN_POINT('',(1.27424671732845,1.47424671732845,0.8));
#1726=CARTESIAN_POINT('',(0.,-1.6,0.));
#1727=CARTESIAN_POINT('',(-1.32408491716662,-1.59355704830291,-0.0921385019282651));
#1728=CARTESIAN_POINT('',(-1.26927530084456,-1.53874743198084,-0.875952532608572));
#1729=CARTESIAN_POINT('',(0.,-1.53874743198084,-0.875952532608572));
#1730=CARTESIAN_POINT('',(1.26927530084456,-1.53874743198084,-0.875952532608572));
#1731=CARTESIAN_POINT('',(1.32408491716662,-1.59355704830291,-0.0921385019282651));
#1732=CARTESIAN_POINT('',(1.1,-1.6,4.68688725221363E-18));
#1733=CARTESIAN_POINT('',(1.1,-1.59424692463401,-0.0822728107587831));
#1734=CARTESIAN_POINT('',(0.,-1.59424692463401,-0.0822728107587831));
#1735=CARTESIAN_POINT('',(-1.1,-1.59424692463401,-0.0822728107587831));
#1736=CARTESIAN_POINT('',(-1.1,-1.6,-4.68688725221363E-18));
#1737=CARTESIAN_POINT('',(0.,1.6,0.));
#1738=CARTESIAN_POINT('',(0.,1.6,0.));
#1739=CARTESIAN_POINT('',(-1.1,1.6,-5.35952256376697E-23));
#1740=CARTESIAN_POINT('',(-1.33052786886372,1.6,0.));
#1741=CARTESIAN_POINT('',(-1.32408491716662,1.59355704830291,0.0921385019282651));
#1742=CARTESIAN_POINT('',(1.32408491716662,1.59355704830291,0.0921385019282651));
#1743=CARTESIAN_POINT('',(1.33052786886372,1.6,0.));
#1744=CARTESIAN_POINT('',(0.,1.6,0.));
#1745=CARTESIAN_POINT('',(1.1,1.6,0.));
#1746=CARTESIAN_POINT('',(1.1,1.6,4.68688725221363E-18));
#1747=CARTESIAN_POINT('',(1.1,1.5950943263059,0.070154402263636));
#1748=CARTESIAN_POINT('',(0.,1.5950943263059,0.070154402263636));
#1749=CARTESIAN_POINT('',(-1.1,1.5950943263059,0.070154402263636));
#1750=CARTESIAN_POINT('',(-1.1,1.6,-4.68688725221363E-18));
#1751=CARTESIAN_POINT('',(0.,1.6,0.));
#1752=CARTESIAN_POINT('',(0.,1.53874743198084,-0.875952532608572));
#1753=CARTESIAN_POINT('',(-1.26927530084456,1.53874743198084,-0.875952532608572));
#1754=CARTESIAN_POINT('',(1.26927530084456,1.53874743198084,-0.875952532608572));
#1755=CARTESIAN_POINT('',(-1.32408491716662,1.59355704830291,-0.0921385019282651));
#1756=CARTESIAN_POINT('',(-1.1,1.6,4.68688725221363E-18));
#1757=CARTESIAN_POINT('',(-1.1,1.59424692463401,-0.0822728107587831));
#1758=CARTESIAN_POINT('',(0.,1.59424692463401,-0.0822728107587831));
#1759=CARTESIAN_POINT('',(1.1,1.59424692463401,-0.0822728107587831));
#1760=CARTESIAN_POINT('',(1.1,1.6,-4.68688725221363E-18));
#1761=CARTESIAN_POINT('',(1.32408491716662,1.59355704830291,-0.0921385019282651));
#1762=CARTESIAN_POINT('',(-1.4,0.,0.));
#1763=CARTESIAN_POINT('',(-1.33874743198084,0.,-0.875952532608572));
#1764=CARTESIAN_POINT('',(-1.33874743198084,-0.383100611213985,-0.875952532608572));
#1765=CARTESIAN_POINT('',(-1.33874743198084,-1.46927530084456,-0.875952532608572));
#1766=CARTESIAN_POINT('',(-1.39258856777005,-1.52311643663376,-0.105988418804783));
#1767=CARTESIAN_POINT('',(-1.4,-1.53052786886372,0.));
#1768=CARTESIAN_POINT('',(-1.4,0.,0.));
#1769=CARTESIAN_POINT('',(-1.4,1.53052786886372,0.));
#1770=CARTESIAN_POINT('',(-1.39258856777005,1.52311643663376,-0.105988418804783));
#1771=CARTESIAN_POINT('',(-1.33874743198084,1.46927530084456,-0.875952532608572));
#1772=CARTESIAN_POINT('',(-1.33874743198084,0.,-0.875952532608572));
#1773=CARTESIAN_POINT('',(-1.33874743198084,0.383100611213985,-0.875952532608572));
#1774=CARTESIAN_POINT('',(-1.4,0.383100611213985,0.));
#1775=CARTESIAN_POINT('',(-1.33007318805649,0.383100611213985,-1.));
#1776=CARTESIAN_POINT('',(-1.33007318805649,0.,-1.));
#1777=CARTESIAN_POINT('',(-1.33007318805649,-0.383100611213985,-1.));
#1778=CARTESIAN_POINT('',(-1.4,-0.383100611213985,0.));
#1779=CARTESIAN_POINT('',(1.4,0.,0.));
#1780=CARTESIAN_POINT('',(1.33874743198084,0.,-0.875952532608572));
#1781=CARTESIAN_POINT('',(1.33874743198084,1.46927530084456,-0.875952532608572));
#1782=CARTESIAN_POINT('',(1.33874743198084,0.383100611213985,-0.875952532608572));
#1783=CARTESIAN_POINT('',(1.39258856777005,1.52311643663377,-0.105988418804783));
#1784=CARTESIAN_POINT('',(1.4,1.53052786886372,0.));
#1785=CARTESIAN_POINT('',(1.4,0.,0.));
#1786=CARTESIAN_POINT('',(1.4,-1.53052786886372,0.));
#1787=CARTESIAN_POINT('',(1.39258856777005,-1.52311643663376,-0.105988418804783));
#1788=CARTESIAN_POINT('',(1.33874743198084,-1.46927530084456,-0.875952532608572));
#1789=CARTESIAN_POINT('',(1.33874743198084,0.,-0.875952532608572));
#1790=CARTESIAN_POINT('',(1.33874743198084,-0.383100611213985,-0.875952532608572));
#1791=CARTESIAN_POINT('',(1.4,-0.383100611213985,0.));
#1792=CARTESIAN_POINT('',(1.33007318805649,-0.383100611213985,-1.));
#1793=CARTESIAN_POINT('',(1.33007318805649,0.,-1.));
#1794=CARTESIAN_POINT('',(1.33007318805649,0.383100611213985,-1.));
#1795=CARTESIAN_POINT('',(1.4,0.383100611213985,0.));
#1796=CARTESIAN_POINT('',(0.,0.,-1.));
#1797=CARTESIAN_POINT('',(0.,0.383100611213985,-1.));
#1798=CARTESIAN_POINT('',(0.,-0.383100611213985,-1.));
#1799=CARTESIAN_POINT('',(1.4,0.,0.));
#1800=CARTESIAN_POINT('',(1.39258856777005,1.52311643663377,0.105988418804783));
#1801=CARTESIAN_POINT('',(1.39258856777005,-1.52311643663376,0.105988418804783));
#1802=CARTESIAN_POINT('',(-1.4,0.,0.));
#1803=CARTESIAN_POINT('',(-1.39258856777005,-1.52311643663376,0.105988418804783));
#1804=CARTESIAN_POINT('',(-1.37640007081428,-1.50692793967799,0.337494710967062));
#1805=CARTESIAN_POINT('',(-1.37640007081428,0.,0.337494710967062));
#1806=CARTESIAN_POINT('',(-1.37640007081428,-0.998047832490001,0.337494710967062));
#1807=CARTESIAN_POINT('',(-1.40428025170822,-0.972838871615326,-0.061210451173913));
#1808=CARTESIAN_POINT('',(-1.39258856777005,1.52311643663377,0.105988418804783));
#1809=CARTESIAN_POINT('',(2.99862968022384,-0.383100611213985,-0.875952532608572));
#1810=CARTESIAN_POINT('',(-1.2689355988641,-1.4689355988641,-0.875952532608572));
#1811=CARTESIAN_POINT('',(2.99862968022384,-0.383100611213985,-0.875952532608572));
#1812=CARTESIAN_POINT('',(1.2689355988641,-1.4689355988641,-0.875952532608572));
#1813=CARTESIAN_POINT('',(2.99862968022384,-0.383100611213985,-1.04516039947135));
#1814=CARTESIAN_POINT('',(2.99862968022384,0.383100611213985,-0.875952532608572));
#1815=CARTESIAN_POINT('',(-1.2689355988641,1.4689355988641,-0.875952532608572));
#1816=CARTESIAN_POINT('',(1.2689355988641,1.4689355988641,-0.875952532608572));
#1817=CARTESIAN_POINT('',(2.99862968022384,0.383100611213985,-0.875952532608572));
#1818=CARTESIAN_POINT('',(2.99862968022384,0.383100611213985,-1.04516039947135));
#1819=CARTESIAN_POINT('',(1.1,1.54405855044519,0.070154402263636));
#1820=CARTESIAN_POINT('',(1.1,1.54405855044519,0.070154402263636));
#1821=CARTESIAN_POINT('',(1.1,1.65,0.070154402263636));
#1822=CARTESIAN_POINT('',(1.1,1.65,0.070154402263636));
#1823=CARTESIAN_POINT('',(-1.1,1.65,0.070154402263636));
#1824=CARTESIAN_POINT('',(-1.1,1.54405855044519,0.070154402263636));
#1825=CARTESIAN_POINT('',(1.1,1.65,-0.0798455977363639));
#1826=CARTESIAN_POINT('',(1.1,1.6027379972529,-0.0822728107587831));
#1827=CARTESIAN_POINT('',(1.1,1.6027379972529,-0.0822728107587831));
#1828=CARTESIAN_POINT('',(1.1,1.6027379972529,-0.102272810758783));
#1829=CARTESIAN_POINT('',(1.1,1.6227379972529,-0.102272810758783));
#1830=CARTESIAN_POINT('',(1.1,1.6227379972529,-0.923910217964019));
#1831=CARTESIAN_POINT('',(1.1,1.6227379972529,-0.923910217964019));
#1832=CARTESIAN_POINT('',(1.1,0.654705214493397,-0.923910217964018));
#1833=CARTESIAN_POINT('',(1.1,0.654705214493397,-0.923910217964018));
#1834=CARTESIAN_POINT('',(1.1,0.654705214493397,-1.08121394373761));
#1835=CARTESIAN_POINT('',(1.1,0.654705214493397,-1.08121394373761));
#1836=CARTESIAN_POINT('',(1.1,1.65,-1.08121394373761));
#1837=CARTESIAN_POINT('',(1.1,1.65,-1.08121394373761));
#1838=CARTESIAN_POINT('',(1.1,1.65,-0.931213943737611));
#1839=CARTESIAN_POINT('',(1.1,1.8,-0.931213943737611));
#1840=CARTESIAN_POINT('',(1.1,1.8,-0.0798455977363639));
#1841=CARTESIAN_POINT('',(1.1,1.8,-0.0798455977363639));
#1842=CARTESIAN_POINT('',(1.1,1.65,-0.0798455977363639));
#1843=CARTESIAN_POINT('',(-1.1,1.65,-0.0798455977363639));
#1844=CARTESIAN_POINT('',(-1.1,1.65,-0.0798455977363639));
#1845=CARTESIAN_POINT('',(-1.1,1.8,-0.0798455977363639));
#1846=CARTESIAN_POINT('',(-1.1,1.8,-0.0798455977363639));
#1847=CARTESIAN_POINT('',(-1.1,1.8,-0.931213943737611));
#1848=CARTESIAN_POINT('',(-1.1,1.65,-0.931213943737611));
#1849=CARTESIAN_POINT('',(-1.1,1.65,-1.08121394373761));
#1850=CARTESIAN_POINT('',(-1.1,1.65,-1.08121394373761));
#1851=CARTESIAN_POINT('',(-1.1,0.654705214493397,-1.08121394373761));
#1852=CARTESIAN_POINT('',(-1.1,0.654705214493397,-1.08121394373761));
#1853=CARTESIAN_POINT('',(-1.1,0.654705214493397,-0.923910217964018));
#1854=CARTESIAN_POINT('',(-1.1,0.654705214493397,-0.923910217964018));
#1855=CARTESIAN_POINT('',(-1.1,1.6227379972529,-0.923910217964019));
#1856=CARTESIAN_POINT('',(-1.1,1.6227379972529,-0.923910217964019));
#1857=CARTESIAN_POINT('',(-1.1,1.6227379972529,-0.102272810758783));
#1858=CARTESIAN_POINT('',(-1.1,1.6027379972529,-0.102272810758783));
#1859=CARTESIAN_POINT('',(-1.1,1.6027379972529,-0.0822728107587831));
#1860=CARTESIAN_POINT('',(-1.1,1.6027379972529,-0.0822728107587831));
#1861=CARTESIAN_POINT('',(1.1,1.6027379972529,-0.0822728107587831));
#1862=CARTESIAN_POINT('',(1.1,1.6027379972529,-0.0822728107587831));
#1863=CARTESIAN_POINT('',(1.1,1.65,-0.0798455977363639));
#1864=CARTESIAN_POINT('',(1.1,1.8,-0.0798455977363639));
#1865=CARTESIAN_POINT('',(1.1,1.8,-0.0798455977363639));
#1866=CARTESIAN_POINT('',(1.1,1.8,-0.931213943737611));
#1867=CARTESIAN_POINT('',(1.1,1.65,-0.931213943737611));
#1868=CARTESIAN_POINT('',(1.1,1.65,-1.08121394373761));
#1869=CARTESIAN_POINT('',(1.1,1.65,-1.08121394373761));
#1870=CARTESIAN_POINT('',(1.1,0.654705214493397,-1.08121394373761));
#1871=CARTESIAN_POINT('',(1.1,0.654705214493397,-1.08121394373761));
#1872=CARTESIAN_POINT('',(1.1,0.654705214493397,-0.923910217964018));
#1873=CARTESIAN_POINT('',(1.1,0.654705214493397,-0.923910217964018));
#1874=CARTESIAN_POINT('',(1.1,1.6227379972529,-0.923910217964019));
#1875=CARTESIAN_POINT('',(1.1,1.6227379972529,-0.923910217964019));
#1876=CARTESIAN_POINT('',(1.1,1.6227379972529,-0.102272810758783));
#1877=CARTESIAN_POINT('',(1.1,1.6027379972529,-0.102272810758783));
#1878=CARTESIAN_POINT('',(1.1,-1.54405855044519,0.070154402263636));
#1879=CARTESIAN_POINT('',(1.1,-1.54405855044519,0.070154402263636));
#1880=CARTESIAN_POINT('',(1.1,-1.65,0.070154402263636));
#1881=CARTESIAN_POINT('',(-1.1,-1.54405855044519,0.070154402263636));
#1882=CARTESIAN_POINT('',(-1.1,-1.65,0.070154402263636));
#1883=CARTESIAN_POINT('',(1.1,-1.65,0.070154402263636));
#1884=CARTESIAN_POINT('',(1.1,-0.654705214493397,-1.08121394373761));
#1885=CARTESIAN_POINT('',(-1.1,-0.654705214493397,-1.08121394373761));
#1886=CARTESIAN_POINT('',(-1.1,-0.654705214493397,-1.08121394373761));
#1887=CARTESIAN_POINT('',(-1.1,-0.654705214493397,-0.923910217964018));
#1888=CARTESIAN_POINT('',(1.1,-0.654705214493397,-0.923910217964018));
#1889=CARTESIAN_POINT('',(1.1,-0.654705214493397,-0.923910217964018));
#1890=CARTESIAN_POINT('',(1.1,-0.654705214493397,-1.08121394373761));
#1891=CARTESIAN_POINT('',(1.1,-0.654705214493397,-1.08121394373761));
#1892=CARTESIAN_POINT('',(1.1,-0.654705214493397,-1.08121394373761));
#1893=CARTESIAN_POINT('',(1.1,-0.654705214493397,-0.923910217964018));
#1894=CARTESIAN_POINT('',(-1.1,-0.654705214493397,-0.923910217964018));
#1895=CARTESIAN_POINT('',(-1.1,-1.6227379972529,-0.923910217964019));
#1896=CARTESIAN_POINT('',(1.1,-1.6227379972529,-0.923910217964019));
#1897=CARTESIAN_POINT('',(1.1,-1.6227379972529,-0.923910217964019));
#1898=CARTESIAN_POINT('',(1.1,-0.654705214493397,-0.923910217964018));
#1899=CARTESIAN_POINT('',(1.1,-1.6227379972529,-0.923910217964019));
#1900=CARTESIAN_POINT('',(-1.1,-1.6227379972529,-0.923910217964019));
#1901=CARTESIAN_POINT('',(-1.1,-1.6227379972529,-0.102272810758783));
#1902=CARTESIAN_POINT('',(1.1,-1.6227379972529,-0.102272810758783));
#1903=CARTESIAN_POINT('',(1.1,-1.6227379972529,-0.102272810758783));
#1904=CARTESIAN_POINT('',(1.1,-1.6227379972529,-0.923910217964019));
#1905=CARTESIAN_POINT('',(1.1,-1.6027379972529,-0.102272810758783));
#1906=CARTESIAN_POINT('',(-1.1,-1.6027379972529,-0.102272810758783));
#1907=CARTESIAN_POINT('',(-1.1,-1.6027379972529,-0.0822728107587831));
#1908=CARTESIAN_POINT('',(1.1,-1.6027379972529,-0.0822728107587831));
#1909=CARTESIAN_POINT('',(1.1,-1.6027379972529,-0.0822728107587831));
#1910=CARTESIAN_POINT('',(1.1,-1.6027379972529,-0.102272810758783));
#1911=CARTESIAN_POINT('',(1.1,-1.6027379972529,-0.0822728107587831));
#1912=CARTESIAN_POINT('',(1.1,-1.6027379972529,-0.0822728107587831));
#1913=CARTESIAN_POINT('',(-1.1,-1.6027379972529,-0.0822728107587831));
#1914=CARTESIAN_POINT('',(1.1,-1.65,-0.0798455977363639));
#1915=CARTESIAN_POINT('',(-1.1,-1.65,-0.0798455977363639));
#1916=CARTESIAN_POINT('',(-1.1,-1.8,-0.0798455977363639));
#1917=CARTESIAN_POINT('',(1.1,-1.8,-0.0798455977363639));
#1918=CARTESIAN_POINT('',(1.1,-1.8,-0.0798455977363639));
#1919=CARTESIAN_POINT('',(1.1,-1.65,-0.0798455977363639));
#1920=CARTESIAN_POINT('',(1.1,-1.8,-0.0798455977363639));
#1921=CARTESIAN_POINT('',(-1.1,-1.8,-0.0798455977363639));
#1922=CARTESIAN_POINT('',(-1.1,-1.8,-0.931213943737611));
#1923=CARTESIAN_POINT('',(1.1,-1.8,-0.931213943737611));
#1924=CARTESIAN_POINT('',(1.1,-1.8,-0.931213943737611));
#1925=CARTESIAN_POINT('',(1.1,-1.8,-0.0798455977363639));
#1926=CARTESIAN_POINT('',(1.1,-1.65,-0.931213943737611));
#1927=CARTESIAN_POINT('',(-1.1,-1.65,-0.931213943737611));
#1928=CARTESIAN_POINT('',(-1.1,-1.65,-1.08121394373761));
#1929=CARTESIAN_POINT('',(1.1,-1.65,-1.08121394373761));
#1930=CARTESIAN_POINT('',(1.1,-1.65,-1.08121394373761));
#1931=CARTESIAN_POINT('',(1.1,-1.65,-0.931213943737611));
#1932=CARTESIAN_POINT('',(1.1,-1.65,-1.08121394373761));
#1933=CARTESIAN_POINT('',(-1.1,-1.65,-1.08121394373761));
#1934=CARTESIAN_POINT('',(1.1,-1.65,-1.08121394373761));
#1935=CARTESIAN_POINT('',(1.1,-1.6027379972529,-0.102272810758783));
#1936=CARTESIAN_POINT('',(-1.1,-1.6027379972529,-0.102272810758783));
#1937=CARTESIAN_POINT('',(0.,0.,0.8));
#1938=CARTESIAN_POINT('',(0.,0.,0.199410635131684));
#1939=CARTESIAN_POINT('',(-0.911015728194926,0.,0.199410635131684));
#1940=CARTESIAN_POINT('',(0.,0.,0.199410635131684));
#1941=CARTESIAN_POINT('',(-0.772532356381312,-1.54405855044519,0.337494710967062));
#1942=CARTESIAN_POINT('',(-1.34405855044519,-1.02729068872229,0.337494710967062));
#1943=CARTESIAN_POINT('',(-1.05829545341325,-1.28567461958374,0.337494710967062));
#1944=CARTESIAN_POINT('',(-1.30658823769753,-1.50658823769754,0.337494710967062));
#1945=CARTESIAN_POINT('',(1.32311643663376,-1.52311643663376,0.101130454155501));
#1946=CARTESIAN_POINT('',(1.33018816688326,-1.53018816688326,-1.03676832743926E-15));
#1947=CARTESIAN_POINT('',(1.32408491716662,-1.52408491716662,-0.0872805372789833));
#1948=CARTESIAN_POINT('',(1.32311643663376,1.52311643663377,-0.101130454155501));
#1949=CARTESIAN_POINT('',(1.33018816688326,1.53018816688326,9.96110745971057E-16));
#1950=CARTESIAN_POINT('',(1.32408491716662,1.52408491716662,0.0872805372789833));
#1951=CARTESIAN_POINT('',(-1.32408491716662,1.52408491716662,-0.0872805372789833));
#1952=CARTESIAN_POINT('',(-1.33018816688326,1.53018816688326,1.18584612615602E-15));
#1953=CARTESIAN_POINT('',(-1.32311643663376,1.52311643663377,0.101130454155501));
#1954=CARTESIAN_POINT('',(-1.32311643663376,-1.52311643663376,-0.101130454155501));
#1955=CARTESIAN_POINT('',(-1.33018816688326,-1.53018816688326,1.03676832743926E-15));
#1956=CARTESIAN_POINT('',(-1.32408491716662,-1.52408491716662,0.0872805372789833));
#1957=CARTESIAN_POINT('',(0.,0.,0.8));
#1958=CARTESIAN_POINT('',(0.,0.,0.654099575347863));
#1959=CARTESIAN_POINT('',(-0.958516891661367,0.,0.654099575347863));
#1960=CARTESIAN_POINT('',(0.,0.,0.8));
#1961=CARTESIAN_POINT('',(-0.979021859125412,0.,0.8));
#1962=CARTESIAN_POINT('',(0.,0.,0.654099575347863));
#1963=CARTESIAN_POINT('',(0.,0.,0.8));
#1964=MECHANICAL_DESIGN_GEOMETRIC_PRESENTATION_REPRESENTATION('',(#917,
#918,#919,#920,#921,#922,#923,#924,#925,#926,#927,#928,#929,#930,#931,#932,
#933,#934,#935,#936,#937,#938,#939,#940,#941,#942,#943,#944,#945,#946,#947,
#948,#949,#950,#951,#952,#953,#954,#955,#956,#957,#958,#959,#960,#961,#962,
#963,#964,#965,#966,#967),#1965);
#1965=(
GEOMETRIC_REPRESENTATION_CONTEXT(3)
GLOBAL_UNCERTAINTY_ASSIGNED_CONTEXT((#1966))
GLOBAL_UNIT_ASSIGNED_CONTEXT((#1969,#1968,#1967))
REPRESENTATION_CONTEXT('597-3008-207F','TOP_LEVEL_ASSEMBLY_PART')
);
#1966=UNCERTAINTY_MEASURE_WITH_UNIT(LENGTH_MEASURE(0.005),#1969,
'DISTANCE_ACCURACY_VALUE','Maximum Tolerance applied to model');
#1967=(
NAMED_UNIT(*)
SI_UNIT($,.STERADIAN.)
SOLID_ANGLE_UNIT()
);
#1968=(
NAMED_UNIT(*)
PLANE_ANGLE_UNIT()
SI_UNIT($,.RADIAN.)
);
#1969=(
LENGTH_UNIT()
NAMED_UNIT(*)
SI_UNIT(.MILLI.,.METRE.)
);
#1970=PRODUCT_DEFINITION_SHAPE('','',#1971);
#1971=PRODUCT_DEFINITION('','',#1973,#1972);
#1972=PRODUCT_DEFINITION_CONTEXT('',#1979,'design');
#1973=PRODUCT_DEFINITION_FORMATION_WITH_SPECIFIED_SOURCE('','',#1975,
 .NOT_KNOWN.);
#1974=PRODUCT_RELATED_PRODUCT_CATEGORY('','',(#1975));
#1975=PRODUCT('597-3008-207F','597-3008-207F','597-3008-207F',(#1977));
#1976=PRODUCT_CATEGORY('','');
#1977=PRODUCT_CONTEXT('',#1979,'mechanical');
#1978=APPLICATION_PROTOCOL_DEFINITION('international standard',
'automotive_design',2010,#1979);
#1979=APPLICATION_CONTEXT(
'core data for automotive mechanical design processes');
ENDSEC;
END-ISO-10303-21;
