ISO-10303-21;
HEADER;
/****************************************************************
 * Generated by software with PDElib inside                    *
 * PDElib Version v51a, created Wed 11/30/2011                  *
 * ITI Transcendata (http://www.transcendata.com/)              *
 ****************************************************************/
FILE_DESCRIPTION((''),'2;1');
FILE_NAME('C:\\Users\\takachi\\Desktop\\cst-2032p.stp','2020-06-03T09:08:44',('takachi'),(''),'Autodesk Inventor 2013','Autodesk Inventor 2013','');
FILE_SCHEMA(('AUTOMOTIVE_DESIGN { 1 0 10303 214 1 1 1 1 }'));
ENDSEC;
DATA;
#5=APPLICATION_CONTEXT('automotive design');
#6=APPLICATION_PROTOCOL_DEFINITION('International Standard','automotive_design',2001,#5);
#7=PRODUCT_CONTEXT('',#5,'mechanical');
#8=PRODUCT('cst-2032p','cst-2032p',$,(#7));
#9=PRODUCT_RELATED_PRODUCT_CATEGORY('part',$,(#8));
#10=PRODUCT_DEFINITION_FORMATION('',$,#8);
#11=PRODUCT_DEFINITION_CONTEXT('part definition',#5,'design');
#12=PRODUCT_DEFINITION('',$,#10,#11);
#18=(NAMED_UNIT(*)PLANE_ANGLE_UNIT()SI_UNIT($,.RADIAN.));
#19=DIMENSIONAL_EXPONENTS(0.0,0.0,0.0,0.0,0.0,0.0,0.0);
#20=PLANE_ANGLE_MEASURE_WITH_UNIT(PLANE_ANGLE_MEASURE(0.0174532925),#18);
#24=(CONVERSION_BASED_UNIT('DEGREE',#20)NAMED_UNIT(#19)PLANE_ANGLE_UNIT());
#28=(NAMED_UNIT(*)SI_UNIT($,.STERADIAN.)SOLID_ANGLE_UNIT());
#32=(LENGTH_UNIT()NAMED_UNIT(*)SI_UNIT(.MILLI.,.METRE.));
#34=UNCERTAINTY_MEASURE_WITH_UNIT(LENGTH_MEASURE(0.01),#32,'DISTANCE_ACCURACY_VALUE','');
#36=(GEOMETRIC_REPRESENTATION_CONTEXT(3)GLOBAL_UNCERTAINTY_ASSIGNED_CONTEXT((#34))GLOBAL_UNIT_ASSIGNED_CONTEXT((#24,#28,#32))REPRESENTATION_CONTEXT('None','None'));
#37=AXIS2_PLACEMENT_3D('',#38,#39,#40);
#38=CARTESIAN_POINT('',(0.0,0.0,0.0));
#39=DIRECTION('',(0.0,0.0,1.0));
#40=DIRECTION('',(1.0,0.0,0.0));
#41=SHAPE_REPRESENTATION('',(#37),#36);
#42=PRODUCT_DEFINITION_SHAPE('','',#12);
#43=SHAPE_DEFINITION_REPRESENTATION(#42,#41);
#49=(NAMED_UNIT(*)PLANE_ANGLE_UNIT()SI_UNIT($,.RADIAN.));
#50=DIMENSIONAL_EXPONENTS(0.0,0.0,0.0,0.0,0.0,0.0,0.0);
#51=PLANE_ANGLE_MEASURE_WITH_UNIT(PLANE_ANGLE_MEASURE(0.0174532925),#49);
#55=(CONVERSION_BASED_UNIT('DEGREE',#51)NAMED_UNIT(#50)PLANE_ANGLE_UNIT());
#59=(NAMED_UNIT(*)SI_UNIT($,.STERADIAN.)SOLID_ANGLE_UNIT());
#63=(LENGTH_UNIT()NAMED_UNIT(*)SI_UNIT(.MILLI.,.METRE.));
#65=UNCERTAINTY_MEASURE_WITH_UNIT(LENGTH_MEASURE(0.000001),#63,'DISTANCE_ACCURACY_VALUE','');
#67=(GEOMETRIC_REPRESENTATION_CONTEXT(3)GLOBAL_UNCERTAINTY_ASSIGNED_CONTEXT((#65))GLOBAL_UNIT_ASSIGNED_CONTEXT((#55,#59,#63))REPRESENTATION_CONTEXT('','3D'));
#68=CARTESIAN_POINT('',(0.986761533605246,4.567027272165753,2.078346308492094));
#69=DIRECTION('',(-0.635523241842486,0.757387106642898,-0.149916576031863));
#70=DIRECTION('',(0.649239693822158,0.419151725395453,-0.634664991206956));
#71=AXIS2_PLACEMENT_3D('',#68,#69,#70);
#72=CYLINDRICAL_SURFACE('',#71,0.5);
#73=CARTESIAN_POINT('',(0.268598474558301,5.559709931104232,1.395212184195856));
#74=VERTEX_POINT('',#73);
#75=CARTESIAN_POINT('',(0.584255289475172,5.824577448079573,1.893044292455158));
#76=VERTEX_POINT('',#75);
#77=CARTESIAN_POINT('',(0.201233067915683,5.503183643236303,1.893044292455158));
#78=DIRECTION('',(0.642787609686539,-0.766044443118978,0.0));
#79=DIRECTION('',(0.0,0.0,-1.0));
#80=AXIS2_PLACEMENT_3D('',#77,#78,#79);
#81=ELLIPSE('',#80,0.505715265285181,0.5);
#82=EDGE_CURVE('',#74,#76,#81,.T.);
#83=ORIENTED_EDGE('',*,*,#82,.T.);
#84=CARTESIAN_POINT('',(0.71281281141248,5.671368559455779,1.923370332862598));
#85=VERTEX_POINT('',#84);
#86=CARTESIAN_POINT('',(0.584255289475172,5.824577448079573,1.893044292455158));
#87=DIRECTION('',(0.635523241842487,-0.757387106642897,0.149916576031863));
#88=VECTOR('',#87,0.202286106114071);
#89=LINE('',#86,#88);
#90=EDGE_CURVE('',#76,#85,#89,.T.);
#91=ORIENTED_EDGE('',*,*,#90,.T.);
#92=CARTESIAN_POINT('',(0.397155996495609,5.406501042480437,1.425538224603296));
#93=VERTEX_POINT('',#92);
#94=CARTESIAN_POINT('',(0.329790589852991,5.349974754612509,1.923370332862598));
#95=DIRECTION('',(-0.642787609686539,0.766044443118978,0.0));
#96=DIRECTION('',(0.0,0.0,-1.0));
#97=AXIS2_PLACEMENT_3D('',#94,#95,#96);
#98=ELLIPSE('',#97,0.505715265285181,0.5);
#99=EDGE_CURVE('',#85,#93,#98,.T.);
#100=ORIENTED_EDGE('',*,*,#99,.T.);
#101=CARTESIAN_POINT('',(0.397155996495609,5.406501042480437,1.425538224603296));
#102=DIRECTION('',(-0.635523241842487,0.757387106642896,-0.149916576031863));
#103=VECTOR('',#102,0.202286106114071);
#104=LINE('',#101,#103);
#105=EDGE_CURVE('',#93,#74,#104,.T.);
#106=ORIENTED_EDGE('',*,*,#105,.T.);
#107=EDGE_LOOP('',(#83,#91,#100,#106));
#108=FACE_OUTER_BOUND('',#107,.T.);
#109=ADVANCED_FACE('',(#108),#72,.T.);
#110=CARTESIAN_POINT('',(0.71281281141248,5.671368559455779,0.5));
#111=DIRECTION('',(0.642787609686539,-0.766044443118978,0.0));
#112=DIRECTION('',(0.0,0.0,-1.0));
#113=AXIS2_PLACEMENT_3D('',#110,#111,#112);
#114=PLANE('',#113);
#115=ORIENTED_EDGE('',*,*,#99,.F.);
#116=CARTESIAN_POINT('',(0.71281281141248,5.671368559455779,2.5));
#117=VERTEX_POINT('',#116);
#118=CARTESIAN_POINT('',(0.71281281141248,5.671368559455779,1.923370332862598));
#119=DIRECTION('',(0.0,0.0,1.0));
#120=VECTOR('',#119,0.576629667137402);
#121=LINE('',#118,#120);
#122=EDGE_CURVE('',#85,#117,#121,.T.);
#123=ORIENTED_EDGE('',*,*,#122,.T.);
#124=CARTESIAN_POINT('',(0.329790589852991,5.349974754612509,3.0));
#125=VERTEX_POINT('',#124);
#126=CARTESIAN_POINT('',(0.329790589852991,5.349974754612507,2.5));
#127=DIRECTION('',(-0.64278760968654,0.766044443118977,-9.714451E-016));
#128=DIRECTION('',(0.541675220419701,0.454519477672045,0.707106781186548));
#129=AXIS2_PLACEMENT_3D('',#126,#127,#128);
#130=CIRCLE('',#129,0.5);
#131=EDGE_CURVE('',#125,#117,#130,.T.);
#132=ORIENTED_EDGE('',*,*,#131,.F.);
#133=CARTESIAN_POINT('',(-3.119896763335317,2.455343368875271,3.0));
#134=VERTEX_POINT('',#133);
#135=CARTESIAN_POINT('',(0.329790589852991,5.349974754612509,3.0));
#136=DIRECTION('',(-0.766044443118978,-0.642787609686539,0.0));
#137=VECTOR('',#136,4.503247016769393);
#138=LINE('',#135,#137);
#139=EDGE_CURVE('',#125,#134,#138,.T.);
#140=ORIENTED_EDGE('',*,*,#139,.T.);
#141=CARTESIAN_POINT('',(-3.119896763335317,2.455343368875271,0.59588405499552));
#142=VERTEX_POINT('',#141);
#143=CARTESIAN_POINT('',(-3.119896763335317,2.455343368875271,0.59588405499552));
#144=DIRECTION('',(0.0,0.0,1.0));
#145=VECTOR('',#144,2.40411594500448);
#146=LINE('',#143,#145);
#147=EDGE_CURVE('',#142,#134,#146,.T.);
#148=ORIENTED_EDGE('',*,*,#147,.F.);
#149=CARTESIAN_POINT('',(-3.119896763335318,2.45534336887527,0.59588405499552));
#150=DIRECTION('',(0.753835220516441,0.63254285550379,0.177825746898584));
#151=VECTOR('',#150,4.665545817057268);
#152=LINE('',#149,#151);
#153=EDGE_CURVE('',#142,#93,#152,.T.);
#154=ORIENTED_EDGE('',*,*,#153,.T.);
#155=EDGE_LOOP('',(#115,#123,#132,#140,#148,#154));
#156=FACE_OUTER_BOUND('',#155,.T.);
#157=CARTESIAN_POINT('',(-0.053231631706496,5.02858094976924,2.65));
#158=VERTEX_POINT('',#157);
#159=CARTESIAN_POINT('',(-0.053231631706496,5.02858094976924,2.25));
#160=DIRECTION('',(0.642787609686539,-0.766044443118978,0.0));
#161=DIRECTION('',(0.0,0.0,-1.0));
#162=AXIS2_PLACEMENT_3D('',#159,#160,#161);
#163=CIRCLE('',#162,0.4);
#164=EDGE_CURVE('',#158,#158,#163,.T.);
#165=ORIENTED_EDGE('',*,*,#164,.F.);
#166=EDGE_LOOP('',(#165));
#167=FACE_BOUND('',#166,.T.);
#168=ADVANCED_FACE('',(#156,#167),#114,.T.);
#169=CARTESIAN_POINT('',(0.584255289475172,5.824577448079573,0.5));
#170=DIRECTION('',(0.766044443118977,0.642787609686541,0.0));
#171=DIRECTION('',(0.0,0.0,-1.0));
#172=AXIS2_PLACEMENT_3D('',#169,#170,#171);
#173=PLANE('',#172);
#174=ORIENTED_EDGE('',*,*,#90,.F.);
#175=CARTESIAN_POINT('',(0.584255289475172,5.824577448079573,2.5));
#176=VERTEX_POINT('',#175);
#177=CARTESIAN_POINT('',(0.584255289475172,5.824577448079573,1.893044292455159));
#178=DIRECTION('',(0.0,0.0,1.0));
#179=VECTOR('',#178,0.606955707544842);
#180=LINE('',#177,#179);
#181=EDGE_CURVE('',#76,#176,#180,.T.);
#182=ORIENTED_EDGE('',*,*,#181,.T.);
#183=CARTESIAN_POINT('',(0.71281281141248,5.671368559455779,2.5));
#184=DIRECTION('',(-0.642787609686542,0.766044443118976,0.0));
#185=VECTOR('',#184,0.199999999999999);
#186=LINE('',#183,#185);
#187=EDGE_CURVE('',#117,#176,#186,.T.);
#188=ORIENTED_EDGE('',*,*,#187,.F.);
#189=ORIENTED_EDGE('',*,*,#122,.F.);
#190=EDGE_LOOP('',(#174,#182,#188,#189));
#191=FACE_OUTER_BOUND('',#190,.T.);
#192=ADVANCED_FACE('',(#191),#173,.T.);
#193=CARTESIAN_POINT('',(-0.436921969411643,6.263707201603232,2.5));
#194=DIRECTION('',(0.642787609686541,-0.766044443118977,3.128648E-031));
#195=DIRECTION('',(0.541675220419701,0.454519477672045,0.707106781186548));
#196=AXIS2_PLACEMENT_3D('',#193,#194,#195);
#197=CYLINDRICAL_SURFACE('',#196,0.5);
#198=ORIENTED_EDGE('',*,*,#131,.T.);
#199=ORIENTED_EDGE('',*,*,#187,.T.);
#200=CARTESIAN_POINT('',(0.201233067915683,5.503183643236303,3.0));
#201=VERTEX_POINT('',#200);
#202=CARTESIAN_POINT('',(0.201233067915677,5.50318364323631,2.5));
#203=DIRECTION('',(0.64278760968654,-0.766044443118977,9.992007E-016));
#204=DIRECTION('',(0.541675220419701,0.454519477672045,0.707106781186548));
#205=AXIS2_PLACEMENT_3D('',#202,#203,#204);
#206=CIRCLE('',#205,0.5);
#207=EDGE_CURVE('',#176,#201,#206,.T.);
#208=ORIENTED_EDGE('',*,*,#207,.T.);
#209=CARTESIAN_POINT('',(0.201233067915683,5.503183643236303,3.0));
#210=DIRECTION('',(0.64278760968654,-0.766044443118978,0.0));
#211=VECTOR('',#210,0.2);
#212=LINE('',#209,#211);
#213=EDGE_CURVE('',#201,#125,#212,.T.);
#214=ORIENTED_EDGE('',*,*,#213,.T.);
#215=EDGE_LOOP('',(#198,#199,#208,#214));
#216=FACE_OUTER_BOUND('',#215,.T.);
#217=ADVANCED_FACE('',(#216),#197,.T.);
#218=CARTESIAN_POINT('',(-4.037187188587521,-1.185029965253347,0.0));
#219=DIRECTION('',(0.0,0.0,-1.0));
#220=DIRECTION('',(0.707106781186548,-0.707106781186547,0.0));
#221=AXIS2_PLACEMENT_3D('',#218,#219,#220);
#222=CYLINDRICAL_SURFACE('',#221,0.5);
#223=CARTESIAN_POINT('',(-4.037187188587521,-1.685029965253347,-0.2));
#224=VERTEX_POINT('',#223);
#225=CARTESIAN_POINT('',(-3.537187188587521,-1.185029965253347,-0.2));
#226=VERTEX_POINT('',#225);
#227=CARTESIAN_POINT('',(-4.037187188587521,-1.185029965253347,-0.2));
#228=DIRECTION('',(0.0,0.0,1.0));
#229=DIRECTION('',(0.707106781186548,-0.707106781186547,0.0));
#230=AXIS2_PLACEMENT_3D('',#227,#228,#229);
#231=CIRCLE('',#230,0.5);
#232=EDGE_CURVE('',#224,#226,#231,.T.);
#233=ORIENTED_EDGE('',*,*,#232,.T.);
#234=CARTESIAN_POINT('',(-3.537187188587521,-1.185029965253347,0.0));
#235=VERTEX_POINT('',#234);
#236=CARTESIAN_POINT('',(-3.537187188587521,-1.185029965253347,-0.2));
#237=DIRECTION('',(0.0,0.0,1.0));
#238=VECTOR('',#237,0.2);
#239=LINE('',#236,#238);
#240=EDGE_CURVE('',#226,#235,#239,.T.);
#241=ORIENTED_EDGE('',*,*,#240,.T.);
#242=CARTESIAN_POINT('',(-4.037187188587521,-1.685029965253347,0.0));
#243=VERTEX_POINT('',#242);
#244=CARTESIAN_POINT('',(-4.037187188587521,-1.185029965253347,0.0));
#245=DIRECTION('',(0.0,0.0,-1.0));
#246=DIRECTION('',(0.707106781186548,-0.707106781186547,0.0));
#247=AXIS2_PLACEMENT_3D('',#244,#245,#246);
#248=CIRCLE('',#247,0.5);
#249=EDGE_CURVE('',#235,#243,#248,.T.);
#250=ORIENTED_EDGE('',*,*,#249,.T.);
#251=CARTESIAN_POINT('',(-4.037187188587521,-1.685029965253347,0.0));
#252=DIRECTION('',(0.0,0.0,-1.0));
#253=VECTOR('',#252,0.2);
#254=LINE('',#251,#253);
#255=EDGE_CURVE('',#243,#224,#254,.T.);
#256=ORIENTED_EDGE('',*,*,#255,.T.);
#257=EDGE_LOOP('',(#233,#241,#250,#256));
#258=FACE_OUTER_BOUND('',#257,.T.);
#259=ADVANCED_FACE('',(#258),#222,.T.);
#260=CARTESIAN_POINT('',(-3.537187188587521,-0.685029965253347,0.0));
#261=DIRECTION('',(1.0,0.0,0.0));
#262=DIRECTION('',(0.0,0.0,-1.0));
#263=AXIS2_PLACEMENT_3D('',#260,#261,#262);
#264=PLANE('',#263);
#265=ORIENTED_EDGE('',*,*,#240,.F.);
#266=CARTESIAN_POINT('',(-3.537187188587521,-0.685029965253344,-0.2));
#267=VERTEX_POINT('',#266);
#268=CARTESIAN_POINT('',(-3.537187188587521,-1.185029965253347,-0.2));
#269=DIRECTION('',(0.0,1.0,0.0));
#270=VECTOR('',#269,0.500000000000003);
#271=LINE('',#268,#270);
#272=EDGE_CURVE('',#226,#267,#271,.T.);
#273=ORIENTED_EDGE('',*,*,#272,.T.);
#274=CARTESIAN_POINT('',(-3.537187188587521,-0.685029965253344,0.0));
#275=VERTEX_POINT('',#274);
#276=CARTESIAN_POINT('',(-3.537187188587521,-0.685029965253344,-0.2));
#277=DIRECTION('',(0.0,0.0,1.0));
#278=VECTOR('',#277,0.2);
#279=LINE('',#276,#278);
#280=EDGE_CURVE('',#267,#275,#279,.T.);
#281=ORIENTED_EDGE('',*,*,#280,.T.);
#282=CARTESIAN_POINT('',(-3.537187188587521,-0.685029965253344,0.0));
#283=DIRECTION('',(0.0,-1.0,0.0));
#284=VECTOR('',#283,0.500000000000003);
#285=LINE('',#282,#284);
#286=EDGE_CURVE('',#275,#235,#285,.T.);
#287=ORIENTED_EDGE('',*,*,#286,.T.);
#288=EDGE_LOOP('',(#265,#273,#281,#287));
#289=FACE_OUTER_BOUND('',#288,.T.);
#290=ADVANCED_FACE('',(#289),#264,.T.);
#291=CARTESIAN_POINT('',(-5.03718718858752,0.914970034746654,-0.2));
#292=DIRECTION('',(0.0,0.0,1.0));
#293=DIRECTION('',(1.0,0.0,0.0));
#294=AXIS2_PLACEMENT_3D('',#291,#292,#293);
#295=PLANE('',#294);
#296=ORIENTED_EDGE('',*,*,#232,.F.);
#297=CARTESIAN_POINT('',(-6.037187188587518,-1.685029965253347,-0.2));
#298=VERTEX_POINT('',#297);
#299=CARTESIAN_POINT('',(-4.037187188587521,-1.685029965253347,-0.2));
#300=DIRECTION('',(-1.0,0.0,0.0));
#301=VECTOR('',#300,1.999999999999997);
#302=LINE('',#299,#301);
#303=EDGE_CURVE('',#224,#298,#302,.T.);
#304=ORIENTED_EDGE('',*,*,#303,.T.);
#305=CARTESIAN_POINT('',(-6.537187188587518,-1.185029965253348,-0.2));
#306=VERTEX_POINT('',#305);
#307=CARTESIAN_POINT('',(-6.037187188587518,-1.185029965253348,-0.2));
#308=DIRECTION('',(0.0,0.0,1.0));
#309=DIRECTION('',(-0.707106781186548,-0.707106781186548,0.0));
#310=AXIS2_PLACEMENT_3D('',#307,#308,#309);
#311=CIRCLE('',#310,0.5);
#312=EDGE_CURVE('',#306,#298,#311,.T.);
#313=ORIENTED_EDGE('',*,*,#312,.F.);
#314=CARTESIAN_POINT('',(-6.537187188587518,-0.685029965253348,-0.2));
#315=VERTEX_POINT('',#314);
#316=CARTESIAN_POINT('',(-6.537187188587518,-1.185029965253348,-0.2));
#317=DIRECTION('',(0.0,1.0,0.0));
#318=VECTOR('',#317,0.5);
#319=LINE('',#316,#318);
#320=EDGE_CURVE('',#306,#315,#319,.T.);
#321=ORIENTED_EDGE('',*,*,#320,.T.);
#322=CARTESIAN_POINT('',(-6.53718718858752,0.314970034746653,-0.2));
#323=VERTEX_POINT('',#322);
#324=CARTESIAN_POINT('',(-6.537187188587519,-0.685029965253348,-0.2));
#325=DIRECTION('',(0.0,1.0,0.0));
#326=VECTOR('',#325,1.0);
#327=LINE('',#324,#326);
#328=EDGE_CURVE('',#315,#323,#327,.T.);
#329=ORIENTED_EDGE('',*,*,#328,.T.);
#330=CARTESIAN_POINT('',(-6.537187188587518,2.314970034746653,-0.2));
#331=VERTEX_POINT('',#330);
#332=CARTESIAN_POINT('',(-6.537187188587518,0.314970034746653,-0.2));
#333=DIRECTION('',(0.0,1.0,0.0));
#334=VECTOR('',#333,2.000000000000001);
#335=LINE('',#332,#334);
#336=EDGE_CURVE('',#323,#331,#335,.T.);
#337=ORIENTED_EDGE('',*,*,#336,.T.);
#338=CARTESIAN_POINT('',(-3.537187188587521,2.314970034746653,-0.2));
#339=VERTEX_POINT('',#338);
#340=CARTESIAN_POINT('',(-3.537187188587521,2.314970034746653,-0.2));
#341=DIRECTION('',(-1.0,0.0,0.0));
#342=VECTOR('',#341,2.999999999999998);
#343=LINE('',#340,#342);
#344=EDGE_CURVE('',#339,#331,#343,.T.);
#345=ORIENTED_EDGE('',*,*,#344,.F.);
#346=CARTESIAN_POINT('',(-3.537187188587521,0.314970034746652,-0.2));
#347=VERTEX_POINT('',#346);
#348=CARTESIAN_POINT('',(-3.537187188587521,0.314970034746652,-0.2));
#349=DIRECTION('',(0.0,1.0,0.0));
#350=VECTOR('',#349,2.000000000000001);
#351=LINE('',#348,#350);
#352=EDGE_CURVE('',#347,#339,#351,.T.);
#353=ORIENTED_EDGE('',*,*,#352,.F.);
#354=CARTESIAN_POINT('',(-3.537187188587521,0.314970034746652,-0.2));
#355=DIRECTION('',(0.0,-1.0,0.0));
#356=VECTOR('',#355,0.999999999999996);
#357=LINE('',#354,#356);
#358=EDGE_CURVE('',#347,#267,#357,.T.);
#359=ORIENTED_EDGE('',*,*,#358,.T.);
#360=ORIENTED_EDGE('',*,*,#272,.F.);
#361=EDGE_LOOP('',(#296,#304,#313,#321,#329,#337,#345,#353,#359,#360));
#362=FACE_OUTER_BOUND('',#361,.T.);
#363=ADVANCED_FACE('',(#362),#295,.F.);
#364=CARTESIAN_POINT('',(-6.037187188587518,-1.185029965253348,0.0));
#365=DIRECTION('',(0.0,0.0,-1.0));
#366=DIRECTION('',(-0.707106781186548,-0.707106781186548,0.0));
#367=AXIS2_PLACEMENT_3D('',#364,#365,#366);
#368=CYLINDRICAL_SURFACE('',#367,0.5);
#369=ORIENTED_EDGE('',*,*,#312,.T.);
#370=CARTESIAN_POINT('',(-6.037187188587518,-1.685029965253347,0.0));
#371=VERTEX_POINT('',#370);
#372=CARTESIAN_POINT('',(-6.037187188587518,-1.685029965253347,-0.2));
#373=DIRECTION('',(0.0,0.0,1.0));
#374=VECTOR('',#373,0.2);
#375=LINE('',#372,#374);
#376=EDGE_CURVE('',#298,#371,#375,.T.);
#377=ORIENTED_EDGE('',*,*,#376,.T.);
#378=CARTESIAN_POINT('',(-6.537187188587518,-1.185029965253348,0.0));
#379=VERTEX_POINT('',#378);
#380=CARTESIAN_POINT('',(-6.037187188587518,-1.185029965253348,0.0));
#381=DIRECTION('',(0.0,0.0,-1.0));
#382=DIRECTION('',(-0.707106781186548,-0.707106781186548,0.0));
#383=AXIS2_PLACEMENT_3D('',#380,#381,#382);
#384=CIRCLE('',#383,0.5);
#385=EDGE_CURVE('',#371,#379,#384,.T.);
#386=ORIENTED_EDGE('',*,*,#385,.T.);
#387=CARTESIAN_POINT('',(-6.537187188587518,-1.185029965253348,0.0));
#388=DIRECTION('',(0.0,0.0,-1.0));
#389=VECTOR('',#388,0.2);
#390=LINE('',#387,#389);
#391=EDGE_CURVE('',#379,#306,#390,.T.);
#392=ORIENTED_EDGE('',*,*,#391,.T.);
#393=EDGE_LOOP('',(#369,#377,#386,#392));
#394=FACE_OUTER_BOUND('',#393,.T.);
#395=ADVANCED_FACE('',(#394),#368,.T.);
#396=CARTESIAN_POINT('',(-6.537187188587521,2.514970034746654,0.0));
#397=DIRECTION('',(-1.0,0.0,0.0));
#398=DIRECTION('',(0.0,0.0,1.0));
#399=AXIS2_PLACEMENT_3D('',#396,#397,#398);
#400=PLANE('',#399);
#401=ORIENTED_EDGE('',*,*,#391,.F.);
#402=CARTESIAN_POINT('',(-6.537187188587518,-0.685029965253348,0.0));
#403=VERTEX_POINT('',#402);
#404=CARTESIAN_POINT('',(-6.537187188587518,-0.685029965253348,0.0));
#405=DIRECTION('',(0.0,-1.0,0.0));
#406=VECTOR('',#405,0.5);
#407=LINE('',#404,#406);
#408=EDGE_CURVE('',#403,#379,#407,.T.);
#409=ORIENTED_EDGE('',*,*,#408,.F.);
#410=CARTESIAN_POINT('',(-6.537187188587518,-0.685029965253347,0.0));
#411=DIRECTION('',(0.0,0.0,-1.0));
#412=VECTOR('',#411,0.2);
#413=LINE('',#410,#412);
#414=EDGE_CURVE('',#403,#315,#413,.T.);
#415=ORIENTED_EDGE('',*,*,#414,.T.);
#416=ORIENTED_EDGE('',*,*,#320,.F.);
#417=EDGE_LOOP('',(#401,#409,#415,#416));
#418=FACE_OUTER_BOUND('',#417,.T.);
#419=ADVANCED_FACE('',(#418),#400,.T.);
#420=CARTESIAN_POINT('',(-5.03718718858752,0.914970034746654,0.0));
#421=DIRECTION('',(0.0,0.0,1.0));
#422=DIRECTION('',(1.0,0.0,0.0));
#423=AXIS2_PLACEMENT_3D('',#420,#421,#422);
#424=PLANE('',#423);
#425=ORIENTED_EDGE('',*,*,#249,.F.);
#426=ORIENTED_EDGE('',*,*,#286,.F.);
#427=CARTESIAN_POINT('',(-3.537187188587521,0.314970034746652,0.0));
#428=VERTEX_POINT('',#427);
#429=CARTESIAN_POINT('',(-3.537187188587521,0.314970034746652,0.0));
#430=DIRECTION('',(0.0,-1.0,0.0));
#431=VECTOR('',#430,0.999999999999997);
#432=LINE('',#429,#431);
#433=EDGE_CURVE('',#428,#275,#432,.T.);
#434=ORIENTED_EDGE('',*,*,#433,.F.);
#435=CARTESIAN_POINT('',(-3.537187188587521,2.314970034746656,0.0));
#436=VERTEX_POINT('',#435);
#437=CARTESIAN_POINT('',(-3.537187188587521,2.314970034746656,0.0));
#438=DIRECTION('',(0.0,-1.0,0.0));
#439=VECTOR('',#438,2.000000000000004);
#440=LINE('',#437,#439);
#441=EDGE_CURVE('',#436,#428,#440,.T.);
#442=ORIENTED_EDGE('',*,*,#441,.F.);
#443=CARTESIAN_POINT('',(-6.537187188587521,2.314970034746651,0.0));
#444=VERTEX_POINT('',#443);
#445=CARTESIAN_POINT('',(-3.53718718858752,2.314970034746656,0.0));
#446=DIRECTION('',(-1.0,0.0,0.0));
#447=VECTOR('',#446,3.000000000000001);
#448=LINE('',#445,#447);
#449=EDGE_CURVE('',#436,#444,#448,.T.);
#450=ORIENTED_EDGE('',*,*,#449,.T.);
#451=CARTESIAN_POINT('',(-6.53718718858752,0.314970034746653,0.0));
#452=VERTEX_POINT('',#451);
#453=CARTESIAN_POINT('',(-6.537187188587518,2.314970034746651,0.0));
#454=DIRECTION('',(0.0,-1.0,0.0));
#455=VECTOR('',#454,1.999999999999998);
#456=LINE('',#453,#455);
#457=EDGE_CURVE('',#444,#452,#456,.T.);
#458=ORIENTED_EDGE('',*,*,#457,.T.);
#459=CARTESIAN_POINT('',(-6.53718718858752,-0.685029965253348,0.0));
#460=DIRECTION('',(0.0,1.0,0.0));
#461=VECTOR('',#460,1.0);
#462=LINE('',#459,#461);
#463=EDGE_CURVE('',#403,#452,#462,.T.);
#464=ORIENTED_EDGE('',*,*,#463,.F.);
#465=ORIENTED_EDGE('',*,*,#408,.T.);
#466=ORIENTED_EDGE('',*,*,#385,.F.);
#467=CARTESIAN_POINT('',(-6.037187188587518,-1.685029965253347,0.0));
#468=DIRECTION('',(1.0,0.0,0.0));
#469=VECTOR('',#468,1.999999999999998);
#470=LINE('',#467,#469);
#471=EDGE_CURVE('',#371,#243,#470,.T.);
#472=ORIENTED_EDGE('',*,*,#471,.T.);
#473=EDGE_LOOP('',(#425,#426,#434,#442,#450,#458,#464,#465,#466,#472));
#474=FACE_OUTER_BOUND('',#473,.T.);
#475=ADVANCED_FACE('',(#474),#424,.T.);
#476=CARTESIAN_POINT('',(-10.220251658501224,5.569154100775214,1.879986154777944));
#477=DIRECTION('',(-0.635523241842492,-0.757387106642892,0.149916576031865));
#478=DIRECTION('',(-0.649239693822154,0.419151725395457,-0.634664991206957));
#479=AXIS2_PLACEMENT_3D('',#476,#477,#478);
#480=CYLINDRICAL_SURFACE('',#479,0.5);
#481=CARTESIAN_POINT('',(-10.47153037367065,5.406501042480437,1.425538224603294));
#482=VERTEX_POINT('',#481);
#483=CARTESIAN_POINT('',(-10.787187188587522,5.671368559455779,1.923370332862598));
#484=VERTEX_POINT('',#483);
#485=CARTESIAN_POINT('',(-10.404164967028034,5.349974754612509,1.923370332862597));
#486=DIRECTION('',(0.64278760968654,0.766044443118978,0.0));
#487=DIRECTION('',(0.0,0.0,-1.0));
#488=AXIS2_PLACEMENT_3D('',#485,#486,#487);
#489=ELLIPSE('',#488,0.505715265285181,0.5);
#490=EDGE_CURVE('',#482,#484,#489,.T.);
#491=ORIENTED_EDGE('',*,*,#490,.T.);
#492=CARTESIAN_POINT('',(-10.658629666650212,5.824577448079572,1.893044292455158));
#493=VERTEX_POINT('',#492);
#494=CARTESIAN_POINT('',(-10.787187188587522,5.671368559455779,1.923370332862598));
#495=DIRECTION('',(0.635523241842495,0.757387106642889,-0.149916576031865));
#496=VECTOR('',#495,0.202286106114072);
#497=LINE('',#494,#496);
#498=EDGE_CURVE('',#484,#493,#497,.T.);
#499=ORIENTED_EDGE('',*,*,#498,.T.);
#500=CARTESIAN_POINT('',(-10.342972851733341,5.559709931104231,1.395212184195854));
#501=VERTEX_POINT('',#500);
#502=CARTESIAN_POINT('',(-10.275607445090724,5.503183643236302,1.893044292455157));
#503=DIRECTION('',(-0.642787609686539,-0.766044443118978,0.0));
#504=DIRECTION('',(0.0,0.0,-1.0));
#505=AXIS2_PLACEMENT_3D('',#502,#503,#504);
#506=ELLIPSE('',#505,0.505715265285181,0.5);
#507=EDGE_CURVE('',#493,#501,#506,.T.);
#508=ORIENTED_EDGE('',*,*,#507,.T.);
#509=CARTESIAN_POINT('',(-10.342972851733339,5.55970993110423,1.395212184195854));
#510=DIRECTION('',(-0.635523241842495,-0.757387106642889,0.149916576031866));
#511=VECTOR('',#510,0.202286106114072);
#512=LINE('',#509,#511);
#513=EDGE_CURVE('',#501,#482,#512,.T.);
#514=ORIENTED_EDGE('',*,*,#513,.T.);
#515=EDGE_LOOP('',(#491,#499,#508,#514));
#516=FACE_OUTER_BOUND('',#515,.T.);
#517=ADVANCED_FACE('',(#516),#480,.T.);
#518=CARTESIAN_POINT('',(-10.658629666650212,5.824577448079572,0.5));
#519=DIRECTION('',(0.642787609686539,0.766044443118978,0.0));
#520=DIRECTION('',(0.0,0.0,-1.0));
#521=AXIS2_PLACEMENT_3D('',#518,#519,#520);
#522=PLANE('',#521);
#523=ORIENTED_EDGE('',*,*,#507,.F.);
#524=CARTESIAN_POINT('',(-10.658629666650212,5.824577448079572,2.5));
#525=VERTEX_POINT('',#524);
#526=CARTESIAN_POINT('',(-10.658629666650212,5.824577448079572,1.893044292455158));
#527=DIRECTION('',(0.0,0.0,1.0));
#528=VECTOR('',#527,0.606955707544842);
#529=LINE('',#526,#528);
#530=EDGE_CURVE('',#493,#525,#529,.T.);
#531=ORIENTED_EDGE('',*,*,#530,.T.);
#532=CARTESIAN_POINT('',(-10.275607445090724,5.503183643236302,3.0));
#533=VERTEX_POINT('',#532);
#534=CARTESIAN_POINT('',(-10.275607445090726,5.503183643236298,2.5));
#535=DIRECTION('',(-0.642787609686544,-0.766044443118974,6.189493E-015));
#536=DIRECTION('',(-0.541675220419697,0.454519477672051,0.707106781186547));
#537=AXIS2_PLACEMENT_3D('',#534,#535,#536);
#538=CIRCLE('',#537,0.5);
#539=EDGE_CURVE('',#533,#525,#538,.T.);
#540=ORIENTED_EDGE('',*,*,#539,.F.);
#541=CARTESIAN_POINT('',(-6.825920091902415,2.608552257499064,3.0));
#542=VERTEX_POINT('',#541);
#543=CARTESIAN_POINT('',(-10.275607445090724,5.503183643236303,3.0));
#544=DIRECTION('',(0.766044443118978,-0.64278760968654,0.0));
#545=VECTOR('',#544,4.503247016769395);
#546=LINE('',#543,#545);
#547=EDGE_CURVE('',#533,#542,#546,.T.);
#548=ORIENTED_EDGE('',*,*,#547,.T.);
#549=CARTESIAN_POINT('',(-6.825920091902415,2.608552257499064,0.56555801458808));
#550=VERTEX_POINT('',#549);
#551=CARTESIAN_POINT('',(-6.825920091902415,2.608552257499064,0.56555801458808));
#552=DIRECTION('',(0.0,0.0,1.0));
#553=VECTOR('',#552,2.43444198541192);
#554=LINE('',#551,#553);
#555=EDGE_CURVE('',#550,#542,#554,.T.);
#556=ORIENTED_EDGE('',*,*,#555,.F.);
#557=CARTESIAN_POINT('',(-6.825920091902415,2.608552257499065,0.56555801458808));
#558=DIRECTION('',(-0.753835220516442,0.63254285550379,0.177825746898584));
#559=VECTOR('',#558,4.665545817057267);
#560=LINE('',#557,#559);
#561=EDGE_CURVE('',#550,#501,#560,.T.);
#562=ORIENTED_EDGE('',*,*,#561,.T.);
#563=EDGE_LOOP('',(#523,#531,#540,#548,#556,#562));
#564=FACE_OUTER_BOUND('',#563,.T.);
#565=CARTESIAN_POINT('',(-9.892585223531238,5.181789838393036,2.65));
#566=VERTEX_POINT('',#565);
#567=CARTESIAN_POINT('',(-9.892585223531238,5.181789838393036,2.25));
#568=DIRECTION('',(-0.642787609686539,-0.766044443118978,0.0));
#569=DIRECTION('',(0.0,0.0,-1.0));
#570=AXIS2_PLACEMENT_3D('',#567,#568,#569);
#571=CIRCLE('',#570,0.400000000000001);
#572=EDGE_CURVE('',#566,#566,#571,.T.);
#573=ORIENTED_EDGE('',*,*,#572,.T.);
#574=EDGE_LOOP('',(#573));
#575=FACE_BOUND('',#574,.T.);
#576=ADVANCED_FACE('',(#564,#575),#522,.T.);
#577=CARTESIAN_POINT('',(-10.787187188587522,5.671368559455779,0.5));
#578=DIRECTION('',(-0.766044443118971,0.642787609686548,0.0));
#579=DIRECTION('',(0.0,0.0,1.0));
#580=AXIS2_PLACEMENT_3D('',#577,#578,#579);
#581=PLANE('',#580);
#582=ORIENTED_EDGE('',*,*,#498,.F.);
#583=CARTESIAN_POINT('',(-10.787187188587522,5.671368559455779,2.5));
#584=VERTEX_POINT('',#583);
#585=CARTESIAN_POINT('',(-10.787187188587522,5.671368559455779,1.923370332862598));
#586=DIRECTION('',(0.0,0.0,1.0));
#587=VECTOR('',#586,0.576629667137402);
#588=LINE('',#585,#587);
#589=EDGE_CURVE('',#484,#584,#588,.T.);
#590=ORIENTED_EDGE('',*,*,#589,.T.);
#591=CARTESIAN_POINT('',(-10.658629666650214,5.824577448079573,2.5));
#592=DIRECTION('',(-0.642787609686549,-0.76604444311897,0.0));
#593=VECTOR('',#592,0.2);
#594=LINE('',#591,#593);
#595=EDGE_CURVE('',#525,#584,#594,.T.);
#596=ORIENTED_EDGE('',*,*,#595,.F.);
#597=ORIENTED_EDGE('',*,*,#530,.F.);
#598=EDGE_LOOP('',(#582,#590,#596,#597));
#599=FACE_OUTER_BOUND('',#598,.T.);
#600=ADVANCED_FACE('',(#599),#581,.T.);
#601=CARTESIAN_POINT('',(-9.701731168732032,6.187102757291347,2.5));
#602=DIRECTION('',(0.642787609686548,0.766044443118971,-2.357257E-031));
#603=DIRECTION('',(-0.541675220419697,0.454519477672051,0.707106781186547));
#604=AXIS2_PLACEMENT_3D('',#601,#602,#603);
#605=CYLINDRICAL_SURFACE('',#604,0.5);
#606=ORIENTED_EDGE('',*,*,#539,.T.);
#607=ORIENTED_EDGE('',*,*,#595,.T.);
#608=CARTESIAN_POINT('',(-10.404164967028034,5.349974754612509,3.0));
#609=VERTEX_POINT('',#608);
#610=CARTESIAN_POINT('',(-10.404164967028002,5.349974754612546,2.5));
#611=DIRECTION('',(0.642787609686544,0.766044443118974,-6.161738E-015));
#612=DIRECTION('',(-0.541675220419697,0.454519477672051,0.707106781186547));
#613=AXIS2_PLACEMENT_3D('',#610,#611,#612);
#614=CIRCLE('',#613,0.5);
#615=EDGE_CURVE('',#584,#609,#614,.T.);
#616=ORIENTED_EDGE('',*,*,#615,.T.);
#617=CARTESIAN_POINT('',(-10.404164967028034,5.349974754612508,3.0));
#618=DIRECTION('',(0.642787609686549,0.76604444311897,0.0));
#619=VECTOR('',#618,0.2);
#620=LINE('',#617,#619);
#621=EDGE_CURVE('',#609,#533,#620,.T.);
#622=ORIENTED_EDGE('',*,*,#621,.T.);
#623=EDGE_LOOP('',(#606,#607,#616,#622));
#624=FACE_OUTER_BOUND('',#623,.T.);
#625=ADVANCED_FACE('',(#624),#605,.T.);
#626=CARTESIAN_POINT('',(-3.487187188587521,-0.585029965253344,-1.1));
#627=DIRECTION('',(1.0,-2.775558E-015,4.311783E-029));
#628=DIRECTION('',(0.0,-0.707106781186547,-0.707106781186548));
#629=AXIS2_PLACEMENT_3D('',#626,#627,#628);
#630=CYLINDRICAL_SURFACE('',#629,0.1);
#631=CARTESIAN_POINT('',(-3.33718718858752,-0.585029965253345,-1.2));
#632=VERTEX_POINT('',#631);
#633=CARTESIAN_POINT('',(-3.33718718858752,-0.685029965253345,-1.1));
#634=VERTEX_POINT('',#633);
#635=CARTESIAN_POINT('',(-3.337187188587519,-0.585029965253345,-1.1));
#636=DIRECTION('',(-1.0,0.0,0.0));
#637=DIRECTION('',(0.0,-0.707106781186547,-0.707106781186548));
#638=AXIS2_PLACEMENT_3D('',#635,#636,#637);
#639=CIRCLE('',#638,0.1);
#640=EDGE_CURVE('',#632,#634,#639,.T.);
#641=ORIENTED_EDGE('',*,*,#640,.T.);
#642=CARTESIAN_POINT('',(-3.537187188587521,-0.685029965253344,-1.1));
#643=VERTEX_POINT('',#642);
#644=CARTESIAN_POINT('',(-3.33718718858752,-0.685029965253345,-1.1));
#645=DIRECTION('',(-1.0,0.0,0.0));
#646=VECTOR('',#645,0.200000000000001);
#647=LINE('',#644,#646);
#648=EDGE_CURVE('',#634,#643,#647,.T.);
#649=ORIENTED_EDGE('',*,*,#648,.T.);
#650=CARTESIAN_POINT('',(-3.537187188587521,-0.585029965253344,-1.2));
#651=VERTEX_POINT('',#650);
#652=CARTESIAN_POINT('',(-3.537187188587523,-0.585029965253344,-1.1));
#653=DIRECTION('',(1.0,0.0,0.0));
#654=DIRECTION('',(0.0,-0.707106781186547,-0.707106781186548));
#655=AXIS2_PLACEMENT_3D('',#652,#653,#654);
#656=CIRCLE('',#655,0.1);
#657=EDGE_CURVE('',#643,#651,#656,.T.);
#658=ORIENTED_EDGE('',*,*,#657,.T.);
#659=CARTESIAN_POINT('',(-3.537187188587521,-0.585029965253344,-1.2));
#660=DIRECTION('',(1.0,0.0,0.0));
#661=VECTOR('',#660,0.200000000000001);
#662=LINE('',#659,#661);
#663=EDGE_CURVE('',#651,#632,#662,.T.);
#664=ORIENTED_EDGE('',*,*,#663,.T.);
#665=EDGE_LOOP('',(#641,#649,#658,#664));
#666=FACE_OUTER_BOUND('',#665,.T.);
#667=ADVANCED_FACE('',(#666),#630,.T.);
#668=CARTESIAN_POINT('',(-3.437187188587521,-0.185029965253346,-1.2));
#669=DIRECTION('',(0.0,0.0,1.0));
#670=DIRECTION('',(1.0,0.0,0.0));
#671=AXIS2_PLACEMENT_3D('',#668,#669,#670);
#672=PLANE('',#671);
#673=ORIENTED_EDGE('',*,*,#663,.F.);
#674=CARTESIAN_POINT('',(-3.537187188587521,0.214970034746652,-1.2));
#675=VERTEX_POINT('',#674);
#676=CARTESIAN_POINT('',(-3.537187188587521,0.214970034746652,-1.2));
#677=DIRECTION('',(0.0,-1.0,0.0));
#678=VECTOR('',#677,0.799999999999997);
#679=LINE('',#676,#678);
#680=EDGE_CURVE('',#675,#651,#679,.T.);
#681=ORIENTED_EDGE('',*,*,#680,.F.);
#682=CARTESIAN_POINT('',(-3.337187188587521,0.214970034746653,-1.2));
#683=VERTEX_POINT('',#682);
#684=CARTESIAN_POINT('',(-3.337187188587521,0.214970034746653,-1.2));
#685=DIRECTION('',(-1.0,0.0,0.0));
#686=VECTOR('',#685,0.2);
#687=LINE('',#684,#686);
#688=EDGE_CURVE('',#683,#675,#687,.T.);
#689=ORIENTED_EDGE('',*,*,#688,.F.);
#690=CARTESIAN_POINT('',(-3.33718718858752,-0.585029965253345,-1.2));
#691=DIRECTION('',(0.0,1.0,0.0));
#692=VECTOR('',#691,0.799999999999997);
#693=LINE('',#690,#692);
#694=EDGE_CURVE('',#632,#683,#693,.T.);
#695=ORIENTED_EDGE('',*,*,#694,.F.);
#696=EDGE_LOOP('',(#673,#681,#689,#695));
#697=FACE_OUTER_BOUND('',#696,.T.);
#698=ADVANCED_FACE('',(#697),#672,.F.);
#699=CARTESIAN_POINT('',(-3.537187188587521,0.314970034746652,-0.2));
#700=DIRECTION('',(-1.0,0.0,0.0));
#701=DIRECTION('',(0.0,0.0,1.0));
#702=AXIS2_PLACEMENT_3D('',#699,#700,#701);
#703=PLANE('',#702);
#704=ORIENTED_EDGE('',*,*,#657,.F.);
#705=CARTESIAN_POINT('',(-3.537187188587521,-0.685029965253344,-0.2));
#706=DIRECTION('',(0.0,0.0,-1.0));
#707=VECTOR('',#706,0.9);
#708=LINE('',#705,#707);
#709=EDGE_CURVE('',#267,#643,#708,.T.);
#710=ORIENTED_EDGE('',*,*,#709,.F.);
#711=ORIENTED_EDGE('',*,*,#358,.F.);
#712=CARTESIAN_POINT('',(-3.537187188587521,0.314970034746652,-1.1));
#713=VERTEX_POINT('',#712);
#714=CARTESIAN_POINT('',(-3.537187188587521,0.314970034746652,-0.2));
#715=DIRECTION('',(0.0,0.0,-1.0));
#716=VECTOR('',#715,0.9);
#717=LINE('',#714,#716);
#718=EDGE_CURVE('',#347,#713,#717,.T.);
#719=ORIENTED_EDGE('',*,*,#718,.T.);
#720=CARTESIAN_POINT('',(-3.537187188587521,0.214970034746652,-1.1));
#721=DIRECTION('',(1.0,0.0,0.0));
#722=DIRECTION('',(0.0,0.707106781186547,-0.707106781186548));
#723=AXIS2_PLACEMENT_3D('',#720,#721,#722);
#724=CIRCLE('',#723,0.1);
#725=EDGE_CURVE('',#675,#713,#724,.T.);
#726=ORIENTED_EDGE('',*,*,#725,.F.);
#727=ORIENTED_EDGE('',*,*,#680,.T.);
#728=EDGE_LOOP('',(#704,#710,#711,#719,#726,#727));
#729=FACE_OUTER_BOUND('',#728,.T.);
#730=ADVANCED_FACE('',(#729),#703,.T.);
#731=CARTESIAN_POINT('',(-3.387187188587521,0.214970034746653,-1.1));
#732=DIRECTION('',(-1.0,-6.938894E-016,-4.311783E-029));
#733=DIRECTION('',(0.0,0.707106781186547,-0.707106781186548));
#734=AXIS2_PLACEMENT_3D('',#731,#732,#733);
#735=CYLINDRICAL_SURFACE('',#734,0.1);
#736=ORIENTED_EDGE('',*,*,#725,.T.);
#737=CARTESIAN_POINT('',(-3.337187188587521,0.314970034746653,-1.1));
#738=VERTEX_POINT('',#737);
#739=CARTESIAN_POINT('',(-3.537187188587521,0.314970034746653,-1.1));
#740=DIRECTION('',(1.0,0.0,0.0));
#741=VECTOR('',#740,0.2);
#742=LINE('',#739,#741);
#743=EDGE_CURVE('',#713,#738,#742,.T.);
#744=ORIENTED_EDGE('',*,*,#743,.T.);
#745=CARTESIAN_POINT('',(-3.33718718858752,0.214970034746653,-1.1));
#746=DIRECTION('',(-1.0,0.0,0.0));
#747=DIRECTION('',(0.0,0.707106781186547,-0.707106781186548));
#748=AXIS2_PLACEMENT_3D('',#745,#746,#747);
#749=CIRCLE('',#748,0.1);
#750=EDGE_CURVE('',#738,#683,#749,.T.);
#751=ORIENTED_EDGE('',*,*,#750,.T.);
#752=ORIENTED_EDGE('',*,*,#688,.T.);
#753=EDGE_LOOP('',(#736,#744,#751,#752));
#754=FACE_OUTER_BOUND('',#753,.T.);
#755=ADVANCED_FACE('',(#754),#735,.T.);
#756=CARTESIAN_POINT('',(-3.33718718858752,-0.685029965253345,0.0));
#757=DIRECTION('',(1.0,0.0,0.0));
#758=DIRECTION('',(0.0,0.0,-1.0));
#759=AXIS2_PLACEMENT_3D('',#756,#757,#758);
#760=PLANE('',#759);
#761=ORIENTED_EDGE('',*,*,#640,.F.);
#762=ORIENTED_EDGE('',*,*,#694,.T.);
#763=ORIENTED_EDGE('',*,*,#750,.F.);
#764=CARTESIAN_POINT('',(-3.337187188587521,0.314970034746653,-0.2));
#765=VERTEX_POINT('',#764);
#766=CARTESIAN_POINT('',(-3.337187188587521,0.314970034746653,-0.2));
#767=DIRECTION('',(0.0,0.0,-1.0));
#768=VECTOR('',#767,0.9);
#769=LINE('',#766,#768);
#770=EDGE_CURVE('',#765,#738,#769,.T.);
#771=ORIENTED_EDGE('',*,*,#770,.F.);
#772=CARTESIAN_POINT('',(-3.33718718858752,-0.685029965253345,-0.2));
#773=VERTEX_POINT('',#772);
#774=CARTESIAN_POINT('',(-3.33718718858752,-0.685029965253345,-0.2));
#775=DIRECTION('',(0.0,1.0,0.0));
#776=VECTOR('',#775,0.999999999999997);
#777=LINE('',#774,#776);
#778=EDGE_CURVE('',#773,#765,#777,.T.);
#779=ORIENTED_EDGE('',*,*,#778,.F.);
#780=CARTESIAN_POINT('',(-3.33718718858752,-0.685029965253345,-0.2));
#781=DIRECTION('',(0.0,0.0,-1.0));
#782=VECTOR('',#781,0.9);
#783=LINE('',#780,#782);
#784=EDGE_CURVE('',#773,#634,#783,.T.);
#785=ORIENTED_EDGE('',*,*,#784,.T.);
#786=EDGE_LOOP('',(#761,#762,#763,#771,#779,#785));
#787=FACE_OUTER_BOUND('',#786,.T.);
#788=ADVANCED_FACE('',(#787),#760,.T.);
#789=CARTESIAN_POINT('',(-3.337187188587521,0.314970034746653,0.0));
#790=DIRECTION('',(0.0,1.0,0.0));
#791=DIRECTION('',(0.0,0.0,1.0));
#792=AXIS2_PLACEMENT_3D('',#789,#790,#791);
#793=PLANE('',#792);
#794=ORIENTED_EDGE('',*,*,#743,.F.);
#795=ORIENTED_EDGE('',*,*,#718,.F.);
#796=CARTESIAN_POINT('',(-3.537187188587521,0.314970034746652,0.0));
#797=DIRECTION('',(0.0,0.0,-1.0));
#798=VECTOR('',#797,0.2);
#799=LINE('',#796,#798);
#800=EDGE_CURVE('',#428,#347,#799,.T.);
#801=ORIENTED_EDGE('',*,*,#800,.F.);
#802=CARTESIAN_POINT('',(-3.537187188587521,0.314970034746652,-0.2));
#803=DIRECTION('',(5.204170E-016,-1.0,5.204170E-016));
#804=DIRECTION('',(0.707106781186548,7.359808E-016,0.707106781186547));
#805=AXIS2_PLACEMENT_3D('',#802,#803,#804);
#806=CIRCLE('',#805,0.2);
#807=EDGE_CURVE('',#765,#428,#806,.T.);
#808=ORIENTED_EDGE('',*,*,#807,.F.);
#809=ORIENTED_EDGE('',*,*,#770,.T.);
#810=EDGE_LOOP('',(#794,#795,#801,#808,#809));
#811=FACE_OUTER_BOUND('',#810,.T.);
#812=ADVANCED_FACE('',(#811),#793,.T.);
#813=CARTESIAN_POINT('',(-6.687187188587521,-0.585029965253347,-1.1));
#814=DIRECTION('',(1.0,-1.387779E-015,-4.699844E-029));
#815=DIRECTION('',(0.0,-0.707106781186547,-0.707106781186548));
#816=AXIS2_PLACEMENT_3D('',#813,#814,#815);
#817=CYLINDRICAL_SURFACE('',#816,0.1);
#818=CARTESIAN_POINT('',(-6.537187188587518,-0.585029965253347,-1.2));
#819=VERTEX_POINT('',#818);
#820=CARTESIAN_POINT('',(-6.537187188587518,-0.685029965253348,-1.1));
#821=VERTEX_POINT('',#820);
#822=CARTESIAN_POINT('',(-6.537187188587518,-0.585029965253348,-1.1));
#823=DIRECTION('',(-1.0,0.0,0.0));
#824=DIRECTION('',(0.0,-0.707106781186547,-0.707106781186548));
#825=AXIS2_PLACEMENT_3D('',#822,#823,#824);
#826=CIRCLE('',#825,0.1);
#827=EDGE_CURVE('',#819,#821,#826,.T.);
#828=ORIENTED_EDGE('',*,*,#827,.T.);
#829=CARTESIAN_POINT('',(-6.73718718858752,-0.685029965253347,-1.1));
#830=VERTEX_POINT('',#829);
#831=CARTESIAN_POINT('',(-6.537187188587519,-0.685029965253348,-1.1));
#832=DIRECTION('',(-1.0,0.0,0.0));
#833=VECTOR('',#832,0.200000000000001);
#834=LINE('',#831,#833);
#835=EDGE_CURVE('',#821,#830,#834,.T.);
#836=ORIENTED_EDGE('',*,*,#835,.T.);
#837=CARTESIAN_POINT('',(-6.73718718858752,-0.585029965253347,-1.2));
#838=VERTEX_POINT('',#837);
#839=CARTESIAN_POINT('',(-6.737187188587521,-0.585029965253347,-1.1));
#840=DIRECTION('',(1.0,0.0,0.0));
#841=DIRECTION('',(0.0,-0.707106781186547,-0.707106781186548));
#842=AXIS2_PLACEMENT_3D('',#839,#840,#841);
#843=CIRCLE('',#842,0.1);
#844=EDGE_CURVE('',#830,#838,#843,.T.);
#845=ORIENTED_EDGE('',*,*,#844,.T.);
#846=CARTESIAN_POINT('',(-6.73718718858752,-0.585029965253347,-1.2));
#847=DIRECTION('',(1.0,0.0,0.0));
#848=VECTOR('',#847,0.200000000000001);
#849=LINE('',#846,#848);
#850=EDGE_CURVE('',#838,#819,#849,.T.);
#851=ORIENTED_EDGE('',*,*,#850,.T.);
#852=EDGE_LOOP('',(#828,#836,#845,#851));
#853=FACE_OUTER_BOUND('',#852,.T.);
#854=ADVANCED_FACE('',(#853),#817,.T.);
#855=CARTESIAN_POINT('',(-6.73718718858752,-0.685029965253347,0.0));
#856=DIRECTION('',(0.0,-1.0,0.0));
#857=DIRECTION('',(0.0,0.0,-1.0));
#858=AXIS2_PLACEMENT_3D('',#855,#856,#857);
#859=PLANE('',#858);
#860=ORIENTED_EDGE('',*,*,#835,.F.);
#861=CARTESIAN_POINT('',(-6.537187188587518,-0.685029965253348,-0.2));
#862=DIRECTION('',(0.0,0.0,-1.0));
#863=VECTOR('',#862,0.9);
#864=LINE('',#861,#863);
#865=EDGE_CURVE('',#315,#821,#864,.T.);
#866=ORIENTED_EDGE('',*,*,#865,.F.);
#867=ORIENTED_EDGE('',*,*,#414,.F.);
#868=CARTESIAN_POINT('',(-6.73718718858752,-0.685029965253347,-0.2));
#869=VERTEX_POINT('',#868);
#870=CARTESIAN_POINT('',(-6.53718718858752,-0.685029965253347,-0.2));
#871=DIRECTION('',(0.0,1.0,0.0));
#872=DIRECTION('',(-0.707106781186548,0.0,0.707106781186547));
#873=AXIS2_PLACEMENT_3D('',#870,#871,#872);
#874=CIRCLE('',#873,0.2);
#875=EDGE_CURVE('',#869,#403,#874,.T.);
#876=ORIENTED_EDGE('',*,*,#875,.F.);
#877=CARTESIAN_POINT('',(-6.73718718858752,-0.685029965253347,-0.2));
#878=DIRECTION('',(0.0,0.0,-1.0));
#879=VECTOR('',#878,0.9);
#880=LINE('',#877,#879);
#881=EDGE_CURVE('',#869,#830,#880,.T.);
#882=ORIENTED_EDGE('',*,*,#881,.T.);
#883=EDGE_LOOP('',(#860,#866,#867,#876,#882));
#884=FACE_OUTER_BOUND('',#883,.T.);
#885=ADVANCED_FACE('',(#884),#859,.T.);
#886=CARTESIAN_POINT('',(-6.537187188587518,-0.685029965253348,-0.2));
#887=DIRECTION('',(1.0,0.0,0.0));
#888=DIRECTION('',(0.0,0.0,-1.0));
#889=AXIS2_PLACEMENT_3D('',#886,#887,#888);
#890=PLANE('',#889);
#891=ORIENTED_EDGE('',*,*,#827,.F.);
#892=CARTESIAN_POINT('',(-6.53718718858752,0.214970034746653,-1.2));
#893=VERTEX_POINT('',#892);
#894=CARTESIAN_POINT('',(-6.537187188587519,-0.585029965253347,-1.2));
#895=DIRECTION('',(0.0,1.0,0.0));
#896=VECTOR('',#895,0.8);
#897=LINE('',#894,#896);
#898=EDGE_CURVE('',#819,#893,#897,.T.);
#899=ORIENTED_EDGE('',*,*,#898,.T.);
#900=CARTESIAN_POINT('',(-6.53718718858752,0.314970034746653,-1.1));
#901=VERTEX_POINT('',#900);
#902=CARTESIAN_POINT('',(-6.537187188587518,0.214970034746653,-1.1));
#903=DIRECTION('',(-1.0,0.0,0.0));
#904=DIRECTION('',(0.0,0.707106781186547,-0.707106781186548));
#905=AXIS2_PLACEMENT_3D('',#902,#903,#904);
#906=CIRCLE('',#905,0.1);
#907=EDGE_CURVE('',#901,#893,#906,.T.);
#908=ORIENTED_EDGE('',*,*,#907,.F.);
#909=CARTESIAN_POINT('',(-6.53718718858752,0.314970034746653,-0.2));
#910=DIRECTION('',(0.0,0.0,-1.0));
#911=VECTOR('',#910,0.9);
#912=LINE('',#909,#911);
#913=EDGE_CURVE('',#323,#901,#912,.T.);
#914=ORIENTED_EDGE('',*,*,#913,.F.);
#915=ORIENTED_EDGE('',*,*,#328,.F.);
#916=ORIENTED_EDGE('',*,*,#865,.T.);
#917=EDGE_LOOP('',(#891,#899,#908,#914,#915,#916));
#918=FACE_OUTER_BOUND('',#917,.T.);
#919=ADVANCED_FACE('',(#918),#890,.T.);
#920=CARTESIAN_POINT('',(-6.58718718858752,0.214970034746653,-1.1));
#921=DIRECTION('',(-1.0,0.0,4.699844E-029));
#922=DIRECTION('',(0.0,0.707106781186547,-0.707106781186548));
#923=AXIS2_PLACEMENT_3D('',#920,#921,#922);
#924=CYLINDRICAL_SURFACE('',#923,0.1);
#925=CARTESIAN_POINT('',(-6.73718718858752,0.214970034746653,-1.2));
#926=VERTEX_POINT('',#925);
#927=CARTESIAN_POINT('',(-6.73718718858752,0.314970034746653,-1.1));
#928=VERTEX_POINT('',#927);
#929=CARTESIAN_POINT('',(-6.73718718858752,0.214970034746653,-1.1));
#930=DIRECTION('',(1.0,0.0,0.0));
#931=DIRECTION('',(0.0,0.707106781186547,-0.707106781186548));
#932=AXIS2_PLACEMENT_3D('',#929,#930,#931);
#933=CIRCLE('',#932,0.1);
#934=EDGE_CURVE('',#926,#928,#933,.T.);
#935=ORIENTED_EDGE('',*,*,#934,.T.);
#936=CARTESIAN_POINT('',(-6.73718718858752,0.314970034746653,-1.1));
#937=DIRECTION('',(1.0,0.0,0.0));
#938=VECTOR('',#937,0.2);
#939=LINE('',#936,#938);
#940=EDGE_CURVE('',#928,#901,#939,.T.);
#941=ORIENTED_EDGE('',*,*,#940,.T.);
#942=ORIENTED_EDGE('',*,*,#907,.T.);
#943=CARTESIAN_POINT('',(-6.53718718858752,0.214970034746653,-1.2));
#944=DIRECTION('',(-1.0,0.0,0.0));
#945=VECTOR('',#944,0.2);
#946=LINE('',#943,#945);
#947=EDGE_CURVE('',#893,#926,#946,.T.);
#948=ORIENTED_EDGE('',*,*,#947,.T.);
#949=EDGE_LOOP('',(#935,#941,#942,#948));
#950=FACE_OUTER_BOUND('',#949,.T.);
#951=ADVANCED_FACE('',(#950),#924,.T.);
#952=CARTESIAN_POINT('',(-6.53718718858752,0.314970034746653,0.0));
#953=DIRECTION('',(0.0,1.0,0.0));
#954=DIRECTION('',(0.0,0.0,1.0));
#955=AXIS2_PLACEMENT_3D('',#952,#953,#954);
#956=PLANE('',#955);
#957=ORIENTED_EDGE('',*,*,#940,.F.);
#958=CARTESIAN_POINT('',(-6.73718718858752,0.314970034746653,-0.2));
#959=VERTEX_POINT('',#958);
#960=CARTESIAN_POINT('',(-6.73718718858752,0.314970034746653,-0.2));
#961=DIRECTION('',(0.0,0.0,-1.0));
#962=VECTOR('',#961,0.9);
#963=LINE('',#960,#962);
#964=EDGE_CURVE('',#959,#928,#963,.T.);
#965=ORIENTED_EDGE('',*,*,#964,.F.);
#966=CARTESIAN_POINT('',(-6.53718718858752,0.314970034746653,-0.2));
#967=DIRECTION('',(0.0,-1.0,0.0));
#968=DIRECTION('',(-0.707106781186548,0.0,0.707106781186547));
#969=AXIS2_PLACEMENT_3D('',#966,#967,#968);
#970=CIRCLE('',#969,0.2);
#971=EDGE_CURVE('',#452,#959,#970,.T.);
#972=ORIENTED_EDGE('',*,*,#971,.F.);
#973=CARTESIAN_POINT('',(-6.53718718858752,0.314970034746653,-0.2));
#974=DIRECTION('',(0.0,0.0,1.0));
#975=VECTOR('',#974,0.2);
#976=LINE('',#973,#975);
#977=EDGE_CURVE('',#323,#452,#976,.T.);
#978=ORIENTED_EDGE('',*,*,#977,.F.);
#979=ORIENTED_EDGE('',*,*,#913,.T.);
#980=EDGE_LOOP('',(#957,#965,#972,#978,#979));
#981=FACE_OUTER_BOUND('',#980,.T.);
#982=ADVANCED_FACE('',(#981),#956,.T.);
#983=CARTESIAN_POINT('',(-6.73718718858752,0.314970034746653,0.0));
#984=DIRECTION('',(-1.0,0.0,0.0));
#985=DIRECTION('',(0.0,0.0,1.0));
#986=AXIS2_PLACEMENT_3D('',#983,#984,#985);
#987=PLANE('',#986);
#988=ORIENTED_EDGE('',*,*,#844,.F.);
#989=ORIENTED_EDGE('',*,*,#881,.F.);
#990=CARTESIAN_POINT('',(-6.73718718858752,0.314970034746653,-0.2));
#991=DIRECTION('',(0.0,-1.0,0.0));
#992=VECTOR('',#991,1.0);
#993=LINE('',#990,#992);
#994=EDGE_CURVE('',#959,#869,#993,.T.);
#995=ORIENTED_EDGE('',*,*,#994,.F.);
#996=ORIENTED_EDGE('',*,*,#964,.T.);
#997=ORIENTED_EDGE('',*,*,#934,.F.);
#998=CARTESIAN_POINT('',(-6.73718718858752,0.214970034746653,-1.2));
#999=DIRECTION('',(0.0,-1.0,0.0));
#1000=VECTOR('',#999,0.8);
#1001=LINE('',#998,#1000);
#1002=EDGE_CURVE('',#926,#838,#1001,.T.);
#1003=ORIENTED_EDGE('',*,*,#1002,.T.);
#1004=EDGE_LOOP('',(#988,#989,#995,#996,#997,#1003));
#1005=FACE_OUTER_BOUND('',#1004,.T.);
#1006=ADVANCED_FACE('',(#1005),#987,.T.);
#1007=CARTESIAN_POINT('',(-4.28718718858752,2.314970034746653,0.0));
#1008=DIRECTION('',(-1.0,0.0,0.0));
#1009=DIRECTION('',(0.0,0.707106781186548,-0.707106781186547));
#1010=AXIS2_PLACEMENT_3D('',#1007,#1008,#1009);
#1011=CYLINDRICAL_SURFACE('',#1010,0.2);
#1012=CARTESIAN_POINT('',(-6.537187188587521,2.514970034746654,0.0));
#1013=VERTEX_POINT('',#1012);
#1014=CARTESIAN_POINT('',(-6.537187188587521,2.314970034746653,0.0));
#1015=DIRECTION('',(1.0,0.0,0.0));
#1016=DIRECTION('',(0.0,0.707106781186548,-0.707106781186547));
#1017=AXIS2_PLACEMENT_3D('',#1014,#1015,#1016);
#1018=CIRCLE('',#1017,0.2);
#1019=EDGE_CURVE('',#331,#1013,#1018,.T.);
#1020=ORIENTED_EDGE('',*,*,#1019,.T.);
#1021=CARTESIAN_POINT('',(-3.537187188587521,2.514970034746654,0.0));
#1022=VERTEX_POINT('',#1021);
#1023=CARTESIAN_POINT('',(-6.537187188587521,2.514970034746654,0.0));
#1024=DIRECTION('',(1.0,0.0,0.0));
#1025=VECTOR('',#1024,3.0);
#1026=LINE('',#1023,#1025);
#1027=EDGE_CURVE('',#1013,#1022,#1026,.T.);
#1028=ORIENTED_EDGE('',*,*,#1027,.T.);
#1029=CARTESIAN_POINT('',(-3.537187188587521,2.314970034746653,0.0));
#1030=DIRECTION('',(-1.0,0.0,0.0));
#1031=DIRECTION('',(0.0,0.707106781186548,-0.707106781186547));
#1032=AXIS2_PLACEMENT_3D('',#1029,#1030,#1031);
#1033=CIRCLE('',#1032,0.2);
#1034=EDGE_CURVE('',#1022,#339,#1033,.T.);
#1035=ORIENTED_EDGE('',*,*,#1034,.T.);
#1036=ORIENTED_EDGE('',*,*,#344,.T.);
#1037=EDGE_LOOP('',(#1020,#1028,#1035,#1036));
#1038=FACE_OUTER_BOUND('',#1037,.T.);
#1039=ADVANCED_FACE('',(#1038),#1011,.T.);
#1040=CARTESIAN_POINT('',(-3.537187188587521,-0.685029965253347,0.0));
#1041=DIRECTION('',(1.0,0.0,0.0));
#1042=DIRECTION('',(0.0,0.0,-1.0));
#1043=AXIS2_PLACEMENT_3D('',#1040,#1041,#1042);
#1044=PLANE('',#1043);
#1045=ORIENTED_EDGE('',*,*,#1034,.F.);
#1046=CARTESIAN_POINT('',(-3.537187188587521,2.514970034746654,0.5));
#1047=VERTEX_POINT('',#1046);
#1048=CARTESIAN_POINT('',(-3.537187188587521,2.514970034746654,0.5));
#1049=DIRECTION('',(0.0,0.0,-1.0));
#1050=VECTOR('',#1049,0.5);
#1051=LINE('',#1048,#1050);
#1052=EDGE_CURVE('',#1047,#1022,#1051,.T.);
#1053=ORIENTED_EDGE('',*,*,#1052,.F.);
#1054=CARTESIAN_POINT('',(-3.537187188587521,2.314970034746656,0.5));
#1055=VERTEX_POINT('',#1054);
#1056=CARTESIAN_POINT('',(-3.537187188587521,2.514970034746654,0.5));
#1057=DIRECTION('',(0.0,-1.0,0.0));
#1058=VECTOR('',#1057,0.199999999999998);
#1059=LINE('',#1056,#1058);
#1060=EDGE_CURVE('',#1047,#1055,#1059,.T.);
#1061=ORIENTED_EDGE('',*,*,#1060,.T.);
#1062=CARTESIAN_POINT('',(-3.537187188587521,2.314970034746656,0.0));
#1063=DIRECTION('',(0.0,0.0,1.0));
#1064=VECTOR('',#1063,0.5);
#1065=LINE('',#1062,#1064);
#1066=EDGE_CURVE('',#436,#1055,#1065,.T.);
#1067=ORIENTED_EDGE('',*,*,#1066,.F.);
#1068=ORIENTED_EDGE('',*,*,#441,.T.);
#1069=ORIENTED_EDGE('',*,*,#800,.T.);
#1070=ORIENTED_EDGE('',*,*,#352,.T.);
#1071=EDGE_LOOP('',(#1045,#1053,#1061,#1067,#1068,#1069,#1070));
#1072=FACE_OUTER_BOUND('',#1071,.T.);
#1073=ADVANCED_FACE('',(#1072),#1044,.T.);
#1074=CARTESIAN_POINT('',(-3.537187188587521,0.114970034746655,-0.2));
#1075=DIRECTION('',(-1.110223E-015,1.0,0.0));
#1076=DIRECTION('',(0.707106781186548,7.359808E-016,0.707106781186547));
#1077=AXIS2_PLACEMENT_3D('',#1074,#1075,#1076);
#1078=CYLINDRICAL_SURFACE('',#1077,0.2);
#1079=ORIENTED_EDGE('',*,*,#807,.T.);
#1080=ORIENTED_EDGE('',*,*,#433,.T.);
#1081=CARTESIAN_POINT('',(-3.537187188587519,-0.685029965253344,-0.2));
#1082=DIRECTION('',(-5.204170E-016,1.0,-5.204170E-016));
#1083=DIRECTION('',(0.707106781186548,7.359808E-016,0.707106781186547));
#1084=AXIS2_PLACEMENT_3D('',#1081,#1082,#1083);
#1085=CIRCLE('',#1084,0.2);
#1086=EDGE_CURVE('',#275,#773,#1085,.T.);
#1087=ORIENTED_EDGE('',*,*,#1086,.T.);
#1088=ORIENTED_EDGE('',*,*,#778,.T.);
#1089=EDGE_LOOP('',(#1079,#1080,#1087,#1088));
#1090=FACE_OUTER_BOUND('',#1089,.T.);
#1091=ADVANCED_FACE('',(#1090),#1078,.T.);
#1092=CARTESIAN_POINT('',(-6.53718718858752,0.614970034746653,-0.2));
#1093=DIRECTION('',(0.0,-1.0,0.0));
#1094=DIRECTION('',(-0.707106781186548,0.0,0.707106781186547));
#1095=AXIS2_PLACEMENT_3D('',#1092,#1093,#1094);
#1096=CYLINDRICAL_SURFACE('',#1095,0.2);
#1097=ORIENTED_EDGE('',*,*,#875,.T.);
#1098=ORIENTED_EDGE('',*,*,#463,.T.);
#1099=ORIENTED_EDGE('',*,*,#971,.T.);
#1100=ORIENTED_EDGE('',*,*,#994,.T.);
#1101=EDGE_LOOP('',(#1097,#1098,#1099,#1100));
#1102=FACE_OUTER_BOUND('',#1101,.T.);
#1103=ADVANCED_FACE('',(#1102),#1096,.T.);
#1104=CARTESIAN_POINT('',(-6.637187188587519,-0.185029965253348,-1.2));
#1105=DIRECTION('',(0.0,0.0,1.0));
#1106=DIRECTION('',(1.0,0.0,0.0));
#1107=AXIS2_PLACEMENT_3D('',#1104,#1105,#1106);
#1108=PLANE('',#1107);
#1109=ORIENTED_EDGE('',*,*,#850,.F.);
#1110=ORIENTED_EDGE('',*,*,#1002,.F.);
#1111=ORIENTED_EDGE('',*,*,#947,.F.);
#1112=ORIENTED_EDGE('',*,*,#898,.F.);
#1113=EDGE_LOOP('',(#1109,#1110,#1111,#1112));
#1114=FACE_OUTER_BOUND('',#1113,.T.);
#1115=ADVANCED_FACE('',(#1114),#1108,.F.);
#1116=CARTESIAN_POINT('',(-3.537187188587521,-0.685029965253344,0.0));
#1117=DIRECTION('',(0.0,-1.0,0.0));
#1118=DIRECTION('',(0.0,0.0,-1.0));
#1119=AXIS2_PLACEMENT_3D('',#1116,#1117,#1118);
#1120=PLANE('',#1119);
#1121=ORIENTED_EDGE('',*,*,#648,.F.);
#1122=ORIENTED_EDGE('',*,*,#784,.F.);
#1123=ORIENTED_EDGE('',*,*,#1086,.F.);
#1124=ORIENTED_EDGE('',*,*,#280,.F.);
#1125=ORIENTED_EDGE('',*,*,#709,.T.);
#1126=EDGE_LOOP('',(#1121,#1122,#1123,#1124,#1125));
#1127=FACE_OUTER_BOUND('',#1126,.T.);
#1128=ADVANCED_FACE('',(#1127),#1120,.T.);
#1129=CARTESIAN_POINT('',(-6.537187188587521,2.514970034746654,0.0));
#1130=DIRECTION('',(-1.0,0.0,0.0));
#1131=DIRECTION('',(0.0,0.0,1.0));
#1132=AXIS2_PLACEMENT_3D('',#1129,#1130,#1131);
#1133=PLANE('',#1132);
#1134=ORIENTED_EDGE('',*,*,#1019,.F.);
#1135=ORIENTED_EDGE('',*,*,#336,.F.);
#1136=ORIENTED_EDGE('',*,*,#977,.T.);
#1137=ORIENTED_EDGE('',*,*,#457,.F.);
#1138=CARTESIAN_POINT('',(-6.537187188587521,2.314970034746651,0.5));
#1139=VERTEX_POINT('',#1138);
#1140=CARTESIAN_POINT('',(-6.537187188587521,2.314970034746651,0.0));
#1141=DIRECTION('',(0.0,0.0,1.0));
#1142=VECTOR('',#1141,0.5);
#1143=LINE('',#1140,#1142);
#1144=EDGE_CURVE('',#444,#1139,#1143,.T.);
#1145=ORIENTED_EDGE('',*,*,#1144,.T.);
#1146=CARTESIAN_POINT('',(-6.537187188587521,2.514970034746654,0.5));
#1147=VERTEX_POINT('',#1146);
#1148=CARTESIAN_POINT('',(-6.537187188587521,2.314970034746651,0.5));
#1149=DIRECTION('',(0.0,1.0,0.0));
#1150=VECTOR('',#1149,0.200000000000003);
#1151=LINE('',#1148,#1150);
#1152=EDGE_CURVE('',#1139,#1147,#1151,.T.);
#1153=ORIENTED_EDGE('',*,*,#1152,.T.);
#1154=CARTESIAN_POINT('',(-6.537187188587521,2.514970034746654,0.0));
#1155=DIRECTION('',(0.0,0.0,1.0));
#1156=VECTOR('',#1155,0.5);
#1157=LINE('',#1154,#1156);
#1158=EDGE_CURVE('',#1013,#1147,#1157,.T.);
#1159=ORIENTED_EDGE('',*,*,#1158,.F.);
#1160=EDGE_LOOP('',(#1134,#1135,#1136,#1137,#1145,#1153,#1159));
#1161=FACE_OUTER_BOUND('',#1160,.T.);
#1162=ADVANCED_FACE('',(#1161),#1133,.T.);
#1163=CARTESIAN_POINT('',(-6.537187188587518,-1.685029965253347,0.0));
#1164=DIRECTION('',(0.0,-1.0,0.0));
#1165=DIRECTION('',(0.0,0.0,-1.0));
#1166=AXIS2_PLACEMENT_3D('',#1163,#1164,#1165);
#1167=PLANE('',#1166);
#1168=ORIENTED_EDGE('',*,*,#255,.F.);
#1169=ORIENTED_EDGE('',*,*,#471,.F.);
#1170=ORIENTED_EDGE('',*,*,#376,.F.);
#1171=ORIENTED_EDGE('',*,*,#303,.F.);
#1172=EDGE_LOOP('',(#1168,#1169,#1170,#1171));
#1173=FACE_OUTER_BOUND('',#1172,.T.);
#1174=ADVANCED_FACE('',(#1173),#1167,.T.);
#1175=CARTESIAN_POINT('',(0.139604651199465,4.798767616833547,2.25));
#1176=DIRECTION('',(0.0,0.0,1.0));
#1177=DIRECTION('',(1.0,0.0,0.0));
#1178=AXIS2_PLACEMENT_3D('',#1175,#1176,#1177);
#1179=SPHERICAL_SURFACE('',#1178,0.5);
#1180=ORIENTED_EDGE('',*,*,#164,.T.);
#1181=EDGE_LOOP('',(#1180));
#1182=FACE_OUTER_BOUND('',#1181,.T.);
#1183=ADVANCED_FACE('',(#1182),#1179,.F.);
#1184=CARTESIAN_POINT('',(0.011047129262157,4.951976505457342,2.25));
#1185=DIRECTION('',(0.0,0.0,1.0));
#1186=DIRECTION('',(1.0,0.0,0.0));
#1187=AXIS2_PLACEMENT_3D('',#1184,#1185,#1186);
#1188=SPHERICAL_SURFACE('',#1187,0.5);
#1189=CARTESIAN_POINT('',(-0.181789153643804,5.181789838393035,2.650000000000001));
#1190=VERTEX_POINT('',#1189);
#1191=CARTESIAN_POINT('',(-0.181789153643804,5.181789838393035,2.25));
#1192=DIRECTION('',(0.642787609686539,-0.766044443118978,0.0));
#1193=DIRECTION('',(0.0,0.0,-1.0));
#1194=AXIS2_PLACEMENT_3D('',#1191,#1192,#1193);
#1195=CIRCLE('',#1194,0.400000000000001);
#1196=EDGE_CURVE('',#1190,#1190,#1195,.T.);
#1197=ORIENTED_EDGE('',*,*,#1196,.F.);
#1198=EDGE_LOOP('',(#1197));
#1199=FACE_OUTER_BOUND('',#1198,.T.);
#1200=ADVANCED_FACE('',(#1199),#1188,.T.);
#1201=CARTESIAN_POINT('',(-10.21397902837451,4.798767616833548,2.25));
#1202=DIRECTION('',(0.0,0.0,1.0));
#1203=DIRECTION('',(1.0,0.0,0.0));
#1204=AXIS2_PLACEMENT_3D('',#1201,#1202,#1203);
#1205=SPHERICAL_SURFACE('',#1204,0.5);
#1206=CARTESIAN_POINT('',(-10.021142745468548,5.028580949769241,2.65));
#1207=VERTEX_POINT('',#1206);
#1208=CARTESIAN_POINT('',(-10.021142745468548,5.028580949769241,2.25));
#1209=DIRECTION('',(-0.64278760968654,-0.766044443118978,0.0));
#1210=DIRECTION('',(0.0,0.0,-1.0));
#1211=AXIS2_PLACEMENT_3D('',#1208,#1209,#1210);
#1212=CIRCLE('',#1211,0.4);
#1213=EDGE_CURVE('',#1207,#1207,#1212,.T.);
#1214=ORIENTED_EDGE('',*,*,#1213,.T.);
#1215=EDGE_LOOP('',(#1214));
#1216=FACE_OUTER_BOUND('',#1215,.T.);
#1217=ADVANCED_FACE('',(#1216),#1205,.F.);
#1218=CARTESIAN_POINT('',(-10.0854215064372,4.951976505457344,2.25));
#1219=DIRECTION('',(0.0,0.0,1.0));
#1220=DIRECTION('',(1.0,0.0,0.0));
#1221=AXIS2_PLACEMENT_3D('',#1218,#1219,#1220);
#1222=SPHERICAL_SURFACE('',#1221,0.5);
#1223=ORIENTED_EDGE('',*,*,#572,.F.);
#1224=EDGE_LOOP('',(#1223));
#1225=FACE_OUTER_BOUND('',#1224,.T.);
#1226=ADVANCED_FACE('',(#1225),#1222,.T.);
#1227=CARTESIAN_POINT('',(-6.548007915260131,2.314970034746651,0.5));
#1228=DIRECTION('',(0.229593187888836,3.823495E-016,0.973286683395515));
#1229=DIRECTION('',(0.973286683395515,0.0,-0.229593187888836));
#1230=AXIS2_PLACEMENT_3D('',#1227,#1228,#1229);
#1231=PLANE('',#1230);
#1232=ORIENTED_EDGE('',*,*,#513,.F.);
#1233=ORIENTED_EDGE('',*,*,#561,.F.);
#1234=CARTESIAN_POINT('',(-6.568805048027798,2.514970034746656,0.5049059337732));
#1235=VERTEX_POINT('',#1234);
#1236=CARTESIAN_POINT('',(-6.568805048027798,2.914970034746656,0.5049059337732));
#1237=DIRECTION('',(-0.229593187888836,-3.823495E-016,-0.973286683395515));
#1238=DIRECTION('',(0.973286683395515,2.194898E-015,-0.229593187888836));
#1239=AXIS2_PLACEMENT_3D('',#1236,#1237,#1238);
#1240=ELLIPSE('',#1239,0.410978601499539,0.400000000000013);
#1241=EDGE_CURVE('',#1235,#550,#1240,.T.);
#1242=ORIENTED_EDGE('',*,*,#1241,.F.);
#1243=CARTESIAN_POINT('',(-6.548007915260131,2.514970034746654,0.5));
#1244=VERTEX_POINT('',#1243);
#1245=CARTESIAN_POINT('',(-6.548007915260132,2.514970034746654,0.5));
#1246=DIRECTION('',(-0.973286683395515,0.0,0.229593187888839));
#1247=VECTOR('',#1246,0.021367941350138);
#1248=LINE('',#1245,#1247);
#1249=EDGE_CURVE('',#1244,#1235,#1248,.T.);
#1250=ORIENTED_EDGE('',*,*,#1249,.F.);
#1251=CARTESIAN_POINT('',(-6.548007915260131,2.314970034746651,0.5));
#1252=VERTEX_POINT('',#1251);
#1253=CARTESIAN_POINT('',(-6.548007915260132,2.314970034746651,0.5));
#1254=DIRECTION('',(0.0,1.0,0.0));
#1255=VECTOR('',#1254,0.200000000000003);
#1256=LINE('',#1253,#1255);
#1257=EDGE_CURVE('',#1252,#1244,#1256,.T.);
#1258=ORIENTED_EDGE('',*,*,#1257,.F.);
#1259=CARTESIAN_POINT('',(-6.568805048027801,2.314970034746651,0.504905933773201));
#1260=VERTEX_POINT('',#1259);
#1261=CARTESIAN_POINT('',(-6.568805048027801,2.314970034746651,0.5049059337732));
#1262=DIRECTION('',(0.973286683395515,0.0,-0.229593187888836));
#1263=VECTOR('',#1262,0.021367941350141);
#1264=LINE('',#1261,#1263);
#1265=EDGE_CURVE('',#1260,#1252,#1264,.T.);
#1266=ORIENTED_EDGE('',*,*,#1265,.F.);
#1267=CARTESIAN_POINT('',(-6.954477613839726,2.455343368875272,0.595884054995521));
#1268=VERTEX_POINT('',#1267);
#1269=CARTESIAN_POINT('',(-6.568805048027802,2.914970034746658,0.504905933773201));
#1270=DIRECTION('',(0.229593187888836,3.823495E-016,0.973286683395515));
#1271=DIRECTION('',(-0.973286683395515,-1.688383E-015,0.229593187888836));
#1272=AXIS2_PLACEMENT_3D('',#1269,#1270,#1271);
#1273=ELLIPSE('',#1272,0.616467902249294,0.600000000000006);
#1274=EDGE_CURVE('',#1268,#1260,#1273,.T.);
#1275=ORIENTED_EDGE('',*,*,#1274,.F.);
#1276=CARTESIAN_POINT('',(-10.47153037367065,5.406501042480437,1.425538224603294));
#1277=DIRECTION('',(0.753835220516441,-0.63254285550379,-0.177825746898584));
#1278=VECTOR('',#1277,4.665545817057264);
#1279=LINE('',#1276,#1278);
#1280=EDGE_CURVE('',#482,#1268,#1279,.T.);
#1281=ORIENTED_EDGE('',*,*,#1280,.F.);
#1282=EDGE_LOOP('',(#1232,#1233,#1242,#1250,#1258,#1266,#1275,#1281));
#1283=FACE_OUTER_BOUND('',#1282,.T.);
#1284=ADVANCED_FACE('',(#1283),#1231,.F.);
#1285=CARTESIAN_POINT('',(0.712812811412485,2.314970034746664,1.5));
#1286=DIRECTION('',(-0.229593187888836,-4.221775E-016,0.973286683395515));
#1287=DIRECTION('',(0.973286683395515,0.0,0.229593187888836));
#1288=AXIS2_PLACEMENT_3D('',#1285,#1286,#1287);
#1289=PLANE('',#1288);
#1290=ORIENTED_EDGE('',*,*,#105,.F.);
#1291=ORIENTED_EDGE('',*,*,#153,.F.);
#1292=CARTESIAN_POINT('',(-3.50556932914724,2.314970034746656,0.504905933773201));
#1293=VERTEX_POINT('',#1292);
#1294=CARTESIAN_POINT('',(-3.505569329147241,2.914970034746658,0.504905933773201));
#1295=DIRECTION('',(-0.229593187888836,-4.221775E-016,0.973286683395515));
#1296=DIRECTION('',(0.973286683395515,0.0,0.229593187888836));
#1297=AXIS2_PLACEMENT_3D('',#1294,#1295,#1296);
#1298=ELLIPSE('',#1297,0.616467902249285,0.599999999999997);
#1299=EDGE_CURVE('',#1293,#142,#1298,.T.);
#1300=ORIENTED_EDGE('',*,*,#1299,.F.);
#1301=CARTESIAN_POINT('',(-3.52636646191491,2.314970034746656,0.5));
#1302=VERTEX_POINT('',#1301);
#1303=CARTESIAN_POINT('',(-3.526366461914911,2.314970034746656,0.5));
#1304=DIRECTION('',(0.973286683395516,2.078297E-014,0.229593187888832));
#1305=VECTOR('',#1304,0.021367941350143);
#1306=LINE('',#1303,#1305);
#1307=EDGE_CURVE('',#1302,#1293,#1306,.T.);
#1308=ORIENTED_EDGE('',*,*,#1307,.F.);
#1309=CARTESIAN_POINT('',(-3.526366461914911,2.514970034746656,0.5));
#1310=VERTEX_POINT('',#1309);
#1311=CARTESIAN_POINT('',(-3.52636646191491,2.514970034746656,0.5));
#1312=DIRECTION('',(0.0,-1.0,0.0));
#1313=VECTOR('',#1312,0.2);
#1314=LINE('',#1311,#1313);
#1315=EDGE_CURVE('',#1310,#1302,#1314,.T.);
#1316=ORIENTED_EDGE('',*,*,#1315,.F.);
#1317=CARTESIAN_POINT('',(-3.505569329147243,2.514970034746656,0.5049059337732));
#1318=VERTEX_POINT('',#1317);
#1319=CARTESIAN_POINT('',(-3.505569329147244,2.514970034746654,0.5049059337732));
#1320=DIRECTION('',(-0.973286683395515,0.0,-0.229593187888835));
#1321=VECTOR('',#1320,0.02136794135014);
#1322=LINE('',#1319,#1321);
#1323=EDGE_CURVE('',#1318,#1310,#1322,.T.);
#1324=ORIENTED_EDGE('',*,*,#1323,.F.);
#1325=CARTESIAN_POINT('',(-3.248454285272628,2.608552257499064,0.56555801458808));
#1326=VERTEX_POINT('',#1325);
#1327=CARTESIAN_POINT('',(-3.505569329147243,2.914970034746656,0.5049059337732));
#1328=DIRECTION('',(0.229593187888836,4.221775E-016,-0.973286683395516));
#1329=DIRECTION('',(-0.973286683395515,0.0,-0.229593187888836));
#1330=AXIS2_PLACEMENT_3D('',#1327,#1328,#1329);
#1331=ELLIPSE('',#1330,0.410978601499528,0.400000000000003);
#1332=EDGE_CURVE('',#1326,#1318,#1331,.T.);
#1333=ORIENTED_EDGE('',*,*,#1332,.F.);
#1334=CARTESIAN_POINT('',(0.268598474558301,5.559709931104232,1.395212184195856));
#1335=DIRECTION('',(-0.753835220516442,-0.63254285550379,-0.177825746898585));
#1336=VECTOR('',#1335,4.66554581705727);
#1337=LINE('',#1334,#1336);
#1338=EDGE_CURVE('',#74,#1326,#1337,.T.);
#1339=ORIENTED_EDGE('',*,*,#1338,.F.);
#1340=EDGE_LOOP('',(#1290,#1291,#1300,#1308,#1316,#1324,#1333,#1339));
#1341=FACE_OUTER_BOUND('',#1340,.T.);
#1342=ADVANCED_FACE('',(#1341),#1289,.F.);
#1343=CARTESIAN_POINT('',(-6.568805048027798,2.914970034746656,0.5));
#1344=DIRECTION('',(0.0,0.0,1.0));
#1345=DIRECTION('',(0.642787609686539,0.766044443118979,0.0));
#1346=AXIS2_PLACEMENT_3D('',#1343,#1344,#1345);
#1347=CYLINDRICAL_SURFACE('',#1346,0.400000000000013);
#1348=ORIENTED_EDGE('',*,*,#1241,.T.);
#1349=ORIENTED_EDGE('',*,*,#555,.T.);
#1350=CARTESIAN_POINT('',(-6.568805048027798,2.514970034746656,3.0));
#1351=VERTEX_POINT('',#1350);
#1352=CARTESIAN_POINT('',(-6.568805048027798,2.914970034746656,3.0));
#1353=DIRECTION('',(0.0,0.0,1.0));
#1354=DIRECTION('',(0.642787609686539,0.766044443118979,0.0));
#1355=AXIS2_PLACEMENT_3D('',#1352,#1353,#1354);
#1356=CIRCLE('',#1355,0.400000000000013);
#1357=EDGE_CURVE('',#542,#1351,#1356,.T.);
#1358=ORIENTED_EDGE('',*,*,#1357,.T.);
#1359=CARTESIAN_POINT('',(-6.568805048027798,2.514970034746656,0.5049059337732));
#1360=DIRECTION('',(0.0,0.0,1.0));
#1361=VECTOR('',#1360,2.4950940662268);
#1362=LINE('',#1359,#1361);
#1363=EDGE_CURVE('',#1235,#1351,#1362,.T.);
#1364=ORIENTED_EDGE('',*,*,#1363,.F.);
#1365=EDGE_LOOP('',(#1348,#1349,#1358,#1364));
#1366=FACE_OUTER_BOUND('',#1365,.T.);
#1367=ADVANCED_FACE('',(#1366),#1347,.F.);
#1368=CARTESIAN_POINT('',(-6.954477613839726,2.455343368875272,0.5));
#1369=DIRECTION('',(-0.64278760968654,-0.766044443118978,0.0));
#1370=DIRECTION('',(0.0,0.0,1.0));
#1371=AXIS2_PLACEMENT_3D('',#1368,#1369,#1370);
#1372=PLANE('',#1371);
#1373=ORIENTED_EDGE('',*,*,#490,.F.);
#1374=ORIENTED_EDGE('',*,*,#1280,.T.);
#1375=CARTESIAN_POINT('',(-6.954477613839726,2.455343368875272,3.0));
#1376=VERTEX_POINT('',#1375);
#1377=CARTESIAN_POINT('',(-6.954477613839726,2.455343368875272,0.595884054995521));
#1378=DIRECTION('',(0.0,0.0,1.0));
#1379=VECTOR('',#1378,2.404115945004479);
#1380=LINE('',#1377,#1379);
#1381=EDGE_CURVE('',#1268,#1376,#1380,.T.);
#1382=ORIENTED_EDGE('',*,*,#1381,.T.);
#1383=CARTESIAN_POINT('',(-6.954477613839726,2.455343368875271,3.0));
#1384=DIRECTION('',(-0.766044443118978,0.642787609686539,0.0));
#1385=VECTOR('',#1384,4.503247016769394);
#1386=LINE('',#1383,#1385);
#1387=EDGE_CURVE('',#1376,#609,#1386,.T.);
#1388=ORIENTED_EDGE('',*,*,#1387,.T.);
#1389=ORIENTED_EDGE('',*,*,#615,.F.);
#1390=ORIENTED_EDGE('',*,*,#589,.F.);
#1391=EDGE_LOOP('',(#1373,#1374,#1382,#1388,#1389,#1390));
#1392=FACE_OUTER_BOUND('',#1391,.T.);
#1393=ORIENTED_EDGE('',*,*,#1213,.F.);
#1394=EDGE_LOOP('',(#1393));
#1395=FACE_BOUND('',#1394,.T.);
#1396=ADVANCED_FACE('',(#1392,#1395),#1372,.T.);
#1397=CARTESIAN_POINT('',(-3.248454285272628,2.608552257499064,0.5));
#1398=DIRECTION('',(-0.642787609686539,0.766044443118978,0.0));
#1399=DIRECTION('',(0.0,0.0,1.0));
#1400=AXIS2_PLACEMENT_3D('',#1397,#1398,#1399);
#1401=PLANE('',#1400);
#1402=ORIENTED_EDGE('',*,*,#82,.F.);
#1403=ORIENTED_EDGE('',*,*,#1338,.T.);
#1404=CARTESIAN_POINT('',(-3.248454285272628,2.608552257499064,3.0));
#1405=VERTEX_POINT('',#1404);
#1406=CARTESIAN_POINT('',(-3.248454285272628,2.608552257499064,0.56555801458808));
#1407=DIRECTION('',(0.0,0.0,1.0));
#1408=VECTOR('',#1407,2.43444198541192);
#1409=LINE('',#1406,#1408);
#1410=EDGE_CURVE('',#1326,#1405,#1409,.T.);
#1411=ORIENTED_EDGE('',*,*,#1410,.T.);
#1412=CARTESIAN_POINT('',(-3.248454285272628,2.608552257499064,3.0));
#1413=DIRECTION('',(0.766044443118978,0.642787609686539,0.0));
#1414=VECTOR('',#1413,4.503247016769396);
#1415=LINE('',#1412,#1414);
#1416=EDGE_CURVE('',#1405,#201,#1415,.T.);
#1417=ORIENTED_EDGE('',*,*,#1416,.T.);
#1418=ORIENTED_EDGE('',*,*,#207,.F.);
#1419=ORIENTED_EDGE('',*,*,#181,.F.);
#1420=EDGE_LOOP('',(#1402,#1403,#1411,#1417,#1418,#1419));
#1421=FACE_OUTER_BOUND('',#1420,.T.);
#1422=ORIENTED_EDGE('',*,*,#1196,.T.);
#1423=EDGE_LOOP('',(#1422));
#1424=FACE_BOUND('',#1423,.T.);
#1425=ADVANCED_FACE('',(#1421,#1424),#1401,.T.);
#1426=CARTESIAN_POINT('',(-3.505569329147243,2.914970034746656,0.5));
#1427=DIRECTION('',(0.0,0.0,1.0));
#1428=DIRECTION('',(0.0,1.0,0.0));
#1429=AXIS2_PLACEMENT_3D('',#1426,#1427,#1428);
#1430=CYLINDRICAL_SURFACE('',#1429,0.400000000000003);
#1431=ORIENTED_EDGE('',*,*,#1332,.T.);
#1432=CARTESIAN_POINT('',(-3.505569329147243,2.514970034746656,3.0));
#1433=VERTEX_POINT('',#1432);
#1434=CARTESIAN_POINT('',(-3.505569329147243,2.514970034746656,0.5049059337732));
#1435=DIRECTION('',(0.0,0.0,1.0));
#1436=VECTOR('',#1435,2.4950940662268);
#1437=LINE('',#1434,#1436);
#1438=EDGE_CURVE('',#1318,#1433,#1437,.T.);
#1439=ORIENTED_EDGE('',*,*,#1438,.T.);
#1440=CARTESIAN_POINT('',(-3.505569329147243,2.914970034746656,3.0));
#1441=DIRECTION('',(0.0,0.0,1.0));
#1442=DIRECTION('',(0.0,1.0,0.0));
#1443=AXIS2_PLACEMENT_3D('',#1440,#1441,#1442);
#1444=CIRCLE('',#1443,0.400000000000003);
#1445=EDGE_CURVE('',#1433,#1405,#1444,.T.);
#1446=ORIENTED_EDGE('',*,*,#1445,.T.);
#1447=ORIENTED_EDGE('',*,*,#1410,.F.);
#1448=EDGE_LOOP('',(#1431,#1439,#1446,#1447));
#1449=FACE_OUTER_BOUND('',#1448,.T.);
#1450=ADVANCED_FACE('',(#1449),#1430,.F.);
#1451=CARTESIAN_POINT('',(-5.037187188587522,3.699625567697288,0.5));
#1452=DIRECTION('',(0.0,0.0,1.0));
#1453=DIRECTION('',(1.0,0.0,0.0));
#1454=AXIS2_PLACEMENT_3D('',#1451,#1452,#1453);
#1455=PLANE('',#1454);
#1456=ORIENTED_EDGE('',*,*,#1315,.T.);
#1457=CARTESIAN_POINT('',(-3.537187188587521,2.314970034746657,0.5));
#1458=DIRECTION('',(1.0,0.0,0.0));
#1459=VECTOR('',#1458,0.01082072667261);
#1460=LINE('',#1457,#1459);
#1461=EDGE_CURVE('',#1055,#1302,#1460,.T.);
#1462=ORIENTED_EDGE('',*,*,#1461,.F.);
#1463=ORIENTED_EDGE('',*,*,#1060,.F.);
#1464=CARTESIAN_POINT('',(-3.526366461914911,2.514970034746656,0.5));
#1465=DIRECTION('',(-1.0,0.0,0.0));
#1466=VECTOR('',#1465,0.010820726672609);
#1467=LINE('',#1464,#1466);
#1468=EDGE_CURVE('',#1310,#1047,#1467,.T.);
#1469=ORIENTED_EDGE('',*,*,#1468,.F.);
#1470=EDGE_LOOP('',(#1456,#1462,#1463,#1469));
#1471=FACE_OUTER_BOUND('',#1470,.T.);
#1472=ADVANCED_FACE('',(#1471),#1455,.F.);
#1473=CARTESIAN_POINT('',(-5.037187188587522,3.699625567697288,0.5));
#1474=DIRECTION('',(0.0,0.0,1.0));
#1475=DIRECTION('',(1.0,0.0,0.0));
#1476=AXIS2_PLACEMENT_3D('',#1473,#1474,#1475);
#1477=PLANE('',#1476);
#1478=ORIENTED_EDGE('',*,*,#1257,.T.);
#1479=CARTESIAN_POINT('',(-6.537187188587521,2.514970034746656,0.5));
#1480=DIRECTION('',(-1.0,0.0,0.0));
#1481=VECTOR('',#1480,0.01082072667261);
#1482=LINE('',#1479,#1481);
#1483=EDGE_CURVE('',#1147,#1244,#1482,.T.);
#1484=ORIENTED_EDGE('',*,*,#1483,.F.);
#1485=ORIENTED_EDGE('',*,*,#1152,.F.);
#1486=CARTESIAN_POINT('',(-6.548007915260131,2.314970034746658,0.5));
#1487=DIRECTION('',(1.0,0.0,0.0));
#1488=VECTOR('',#1487,0.01082072667261);
#1489=LINE('',#1486,#1488);
#1490=EDGE_CURVE('',#1252,#1139,#1489,.T.);
#1491=ORIENTED_EDGE('',*,*,#1490,.F.);
#1492=EDGE_LOOP('',(#1478,#1484,#1485,#1491));
#1493=FACE_OUTER_BOUND('',#1492,.T.);
#1494=ADVANCED_FACE('',(#1493),#1477,.F.);
#1495=CARTESIAN_POINT('',(-3.505569329147241,2.914970034746658,0.5));
#1496=DIRECTION('',(0.0,0.0,1.0));
#1497=DIRECTION('',(0.0,-1.0,0.0));
#1498=AXIS2_PLACEMENT_3D('',#1495,#1496,#1497);
#1499=CYLINDRICAL_SURFACE('',#1498,0.599999999999997);
#1500=ORIENTED_EDGE('',*,*,#1299,.T.);
#1501=ORIENTED_EDGE('',*,*,#147,.T.);
#1502=CARTESIAN_POINT('',(-3.505569329147241,2.314970034746658,3.0));
#1503=VERTEX_POINT('',#1502);
#1504=CARTESIAN_POINT('',(-3.505569329147241,2.914970034746658,3.0));
#1505=DIRECTION('',(0.0,0.0,-1.0));
#1506=DIRECTION('',(0.0,-1.0,0.0));
#1507=AXIS2_PLACEMENT_3D('',#1504,#1505,#1506);
#1508=CIRCLE('',#1507,0.599999999999997);
#1509=EDGE_CURVE('',#134,#1503,#1508,.T.);
#1510=ORIENTED_EDGE('',*,*,#1509,.T.);
#1511=CARTESIAN_POINT('',(-3.505569329147241,2.314970034746658,0.504905933773201));
#1512=DIRECTION('',(0.0,0.0,1.0));
#1513=VECTOR('',#1512,2.495094066226799);
#1514=LINE('',#1511,#1513);
#1515=EDGE_CURVE('',#1293,#1503,#1514,.T.);
#1516=ORIENTED_EDGE('',*,*,#1515,.F.);
#1517=EDGE_LOOP('',(#1500,#1501,#1510,#1516));
#1518=FACE_OUTER_BOUND('',#1517,.T.);
#1519=ADVANCED_FACE('',(#1518),#1499,.T.);
#1520=CARTESIAN_POINT('',(-6.568805048027802,2.914970034746658,0.5));
#1521=DIRECTION('',(0.0,0.0,1.0));
#1522=DIRECTION('',(-0.64278760968654,-0.766044443118978,0.0));
#1523=AXIS2_PLACEMENT_3D('',#1520,#1521,#1522);
#1524=CYLINDRICAL_SURFACE('',#1523,0.600000000000006);
#1525=ORIENTED_EDGE('',*,*,#1274,.T.);
#1526=CARTESIAN_POINT('',(-6.568805048027802,2.314970034746658,3.0));
#1527=VERTEX_POINT('',#1526);
#1528=CARTESIAN_POINT('',(-6.568805048027802,2.314970034746658,0.504905933773201));
#1529=DIRECTION('',(0.0,0.0,1.0));
#1530=VECTOR('',#1529,2.495094066226799);
#1531=LINE('',#1528,#1530);
#1532=EDGE_CURVE('',#1260,#1527,#1531,.T.);
#1533=ORIENTED_EDGE('',*,*,#1532,.T.);
#1534=CARTESIAN_POINT('',(-6.568805048027802,2.914970034746658,3.0));
#1535=DIRECTION('',(0.0,0.0,-1.0));
#1536=DIRECTION('',(-0.64278760968654,-0.766044443118978,0.0));
#1537=AXIS2_PLACEMENT_3D('',#1534,#1535,#1536);
#1538=CIRCLE('',#1537,0.600000000000006);
#1539=EDGE_CURVE('',#1527,#1376,#1538,.T.);
#1540=ORIENTED_EDGE('',*,*,#1539,.T.);
#1541=ORIENTED_EDGE('',*,*,#1381,.F.);
#1542=EDGE_LOOP('',(#1525,#1533,#1540,#1541));
#1543=FACE_OUTER_BOUND('',#1542,.T.);
#1544=ADVANCED_FACE('',(#1543),#1524,.T.);
#1545=CARTESIAN_POINT('',(-5.03718718858752,3.699625567697286,3.0));
#1546=DIRECTION('',(0.0,0.0,1.0));
#1547=DIRECTION('',(1.0,0.0,0.0));
#1548=AXIS2_PLACEMENT_3D('',#1545,#1546,#1547);
#1549=PLANE('',#1548);
#1550=ORIENTED_EDGE('',*,*,#213,.F.);
#1551=ORIENTED_EDGE('',*,*,#1416,.F.);
#1552=ORIENTED_EDGE('',*,*,#1445,.F.);
#1553=CARTESIAN_POINT('',(-6.568805048027798,2.514970034746656,3.0));
#1554=DIRECTION('',(1.0,0.0,0.0));
#1555=VECTOR('',#1554,3.063235718880555);
#1556=LINE('',#1553,#1555);
#1557=EDGE_CURVE('',#1351,#1433,#1556,.T.);
#1558=ORIENTED_EDGE('',*,*,#1557,.F.);
#1559=ORIENTED_EDGE('',*,*,#1357,.F.);
#1560=ORIENTED_EDGE('',*,*,#547,.F.);
#1561=ORIENTED_EDGE('',*,*,#621,.F.);
#1562=ORIENTED_EDGE('',*,*,#1387,.F.);
#1563=ORIENTED_EDGE('',*,*,#1539,.F.);
#1564=CARTESIAN_POINT('',(-3.505569329147241,2.314970034746657,3.0));
#1565=DIRECTION('',(-1.0,0.0,0.0));
#1566=VECTOR('',#1565,3.06323571888056);
#1567=LINE('',#1564,#1566);
#1568=EDGE_CURVE('',#1503,#1527,#1567,.T.);
#1569=ORIENTED_EDGE('',*,*,#1568,.F.);
#1570=ORIENTED_EDGE('',*,*,#1509,.F.);
#1571=ORIENTED_EDGE('',*,*,#139,.F.);
#1572=EDGE_LOOP('',(#1550,#1551,#1552,#1558,#1559,#1560,#1561,#1562,#1563,#1569,#1570,#1571));
#1573=FACE_OUTER_BOUND('',#1572,.T.);
#1574=ADVANCED_FACE('',(#1573),#1549,.T.);
#1575=CARTESIAN_POINT('',(-3.537187188587521,2.314970034746656,0.0));
#1576=DIRECTION('',(0.0,-1.0,0.0));
#1577=DIRECTION('',(0.0,0.0,-1.0));
#1578=AXIS2_PLACEMENT_3D('',#1575,#1576,#1577);
#1579=PLANE('',#1578);
#1580=ORIENTED_EDGE('',*,*,#1265,.T.);
#1581=ORIENTED_EDGE('',*,*,#1490,.T.);
#1582=ORIENTED_EDGE('',*,*,#1144,.F.);
#1583=ORIENTED_EDGE('',*,*,#449,.F.);
#1584=ORIENTED_EDGE('',*,*,#1066,.T.);
#1585=ORIENTED_EDGE('',*,*,#1461,.T.);
#1586=ORIENTED_EDGE('',*,*,#1307,.T.);
#1587=ORIENTED_EDGE('',*,*,#1515,.T.);
#1588=ORIENTED_EDGE('',*,*,#1568,.T.);
#1589=ORIENTED_EDGE('',*,*,#1532,.F.);
#1590=EDGE_LOOP('',(#1580,#1581,#1582,#1583,#1584,#1585,#1586,#1587,#1588,#1589));
#1591=FACE_OUTER_BOUND('',#1590,.T.);
#1592=ADVANCED_FACE('',(#1591),#1579,.T.);
#1593=CARTESIAN_POINT('',(-3.537187188587521,2.514970034746654,0.0));
#1594=DIRECTION('',(0.0,1.0,0.0));
#1595=DIRECTION('',(0.0,0.0,1.0));
#1596=AXIS2_PLACEMENT_3D('',#1593,#1594,#1595);
#1597=PLANE('',#1596);
#1598=ORIENTED_EDGE('',*,*,#1027,.F.);
#1599=ORIENTED_EDGE('',*,*,#1158,.T.);
#1600=ORIENTED_EDGE('',*,*,#1483,.T.);
#1601=ORIENTED_EDGE('',*,*,#1249,.T.);
#1602=ORIENTED_EDGE('',*,*,#1363,.T.);
#1603=ORIENTED_EDGE('',*,*,#1557,.T.);
#1604=ORIENTED_EDGE('',*,*,#1438,.F.);
#1605=ORIENTED_EDGE('',*,*,#1323,.T.);
#1606=ORIENTED_EDGE('',*,*,#1468,.T.);
#1607=ORIENTED_EDGE('',*,*,#1052,.T.);
#1608=EDGE_LOOP('',(#1598,#1599,#1600,#1601,#1602,#1603,#1604,#1605,#1606,#1607));
#1609=FACE_OUTER_BOUND('',#1608,.T.);
#1610=ADVANCED_FACE('',(#1609),#1597,.T.);
#1611=CLOSED_SHELL('',(#109,#168,#192,#217,#259,#290,#363,#395,#419,#475,#517,#576,#600,#625,#667,#698,#730,#755,#788,#812,#854,#885,#919,#951,#982,#1006,#1039,#1073,#1091,#1103,#1115,#1128,#1162,#1174,#1183,#1200,#1217,#1226,#1284,#1342,#1367,#1396,#1425,#1450,#1472,#1494,#1519,#1544,#1574,#1592,#1610));
#1612=MANIFOLD_SOLID_BREP('\X2\30BD30EA30C330C9\X0\1',#1611);
#1613=COLOUR_RGB('\X2\FFFD\X0\X\X2\FFFD\X0\e\X2\FFFDFFFDFFFDFFFDFFFD\X0\X - \X2\FFFD\X0\u\X2\FFFDFFFDFFFD\X0\V\X2\FFFD\X0\d\X2\FFFD30B0\X0\',0.745000004768372,0.736999988555908,0.728999972343445);
#1614=FILL_AREA_STYLE_COLOUR('\X2\FFFD\X0\X\X2\FFFD\X0\e\X2\FFFDFFFDFFFDFFFDFFFD\X0\X - \X2\FFFD\X0\u\X2\FFFDFFFDFFFD\X0\V\X2\FFFD\X0\d\X2\FFFD30B0\X0\',#1613);
#1615=FILL_AREA_STYLE('\X2\FFFD\X0\X\X2\FFFD\X0\e\X2\FFFDFFFDFFFDFFFDFFFD\X0\X - \X2\FFFD\X0\u\X2\FFFDFFFDFFFD\X0\V\X2\FFFD\X0\d\X2\FFFD30B0\X0\',(#1614));
#1616=SURFACE_STYLE_FILL_AREA(#1615);
#1617=SURFACE_SIDE_STYLE('\X2\FFFD\X0\X\X2\FFFD\X0\e\X2\FFFDFFFDFFFDFFFDFFFD\X0\X - \X2\FFFD\X0\u\X2\FFFDFFFDFFFD\X0\V\X2\FFFD\X0\d\X2\FFFD30B0\X0\',(#1616));
#1618=SURFACE_STYLE_USAGE(.BOTH.,#1617);
#1619=PRESENTATION_STYLE_ASSIGNMENT((#1618));
#1620=STYLED_ITEM('',(#1619),#1612);
#1621=MECHANICAL_DESIGN_GEOMETRIC_PRESENTATION_REPRESENTATION('',(#1620),#36);
#1622=ADVANCED_BREP_SHAPE_REPRESENTATION('ABSR',(#1612),#36);
#1623=SHAPE_REPRESENTATION_RELATIONSHIP('SRR','None',#1622,#41);
ENDSEC;
END-ISO-10303-21;
